<?xml version="1.0" encoding="utf-8"?>
<!-- Generator: Adobe Illustrator 15.0.0, SVG Export Plug-In . SVG Version: 6.00 Build 0)  -->
<!DOCTYPE svg PUBLIC "-//W3C//DTD SVG 1.1//EN" "http://www.w3.org/Graphics/SVG/1.1/DTD/svg11.dtd">
<svg version="1.1" id="Layer_1" xmlns="http://www.w3.org/2000/svg" xmlns:xlink="http://www.w3.org/1999/xlink" x="0px" y="0px"
	 width="159.333px" height="153.667px" viewBox="0 0 159.333 153.667" enable-background="new 0 0 159.333 153.667"
	 xml:space="preserve">
<g>
	<g>
		<rect x="1.234" y="3.172" fill="#F9F9F9" width="155.865" height="143.633"/>
		<rect x="1.5" y="3.333" fill="#F5F6F8" width="155.333" height="143.309"/>
		<rect x="1.765" y="3.453" fill="#F2F2F2" width="154.802" height="143.068"/>
		<rect x="2.042" y="3.531" fill="#EFEFEF" width="154.25" height="142.912"/>
		<rect x="2.292" y="3.625" fill="#EDECED" width="153.75" height="142.725"/>
		<rect x="2.583" y="3.792" fill="#E8E7E7" width="153.167" height="142.392"/>
		<rect x="2.833" y="3.987" fill="#FFFFFF" width="152.667" height="141.834"/>
		<rect x="12.333" y="13.333" fill="#F9F9FA" width="133.667" height="123"/>
		<g>
			<path fill="#F2F2F2" d="M155.177,147.251L2.974,147.433l0.094,4.776c49.25-5.599,135.439-5.432,151.954-0.302L155.177,147.251z"
				/>
			<path fill="#EAEAE9" d="M155.177,146.725L2.974,146.906l0.249,4.688c49.251-5.599,135.174-5.364,151.69-0.234L155.177,146.725z"
				/>
			<path fill="#E2E2E1" d="M155.177,145.85L2.974,146.031l0.374,4.812c48.164-5.019,139.907-4.392,151.534-0.219L155.177,145.85z"/>
			<path fill="#D8D8D7" d="M155.083,145.91L3.145,145.971l0.326,3.998c48.165-5.019,139.752-4.469,151.379-0.297L155.083,145.91z"/>
			<path fill="#D3D3D3" d="M154.944,145.9H3.253l0.374,3.459c47.076-4.33,140.271-3.082,151.207-0.281L154.944,145.9z"/>
			<path fill="#C8C8C8" d="M154.82,145.9H3.377l0.343,2.803c46.96-3.013,141.801-2.658,150.989-0.375L154.82,145.9z"/>
			<path fill="#C4C3C3" d="M154.696,146.436c-0.015-0.293-0.031-0.535-0.031-0.535H3.501l0.328,2.209
				c46.893-3.01,141.651-2.315,150.741-0.031c0.019-0.034,0.021-0.182,0.031-0.266L154.696,146.436z"/>
		</g>
	</g>
	<g>
		<g>
			<path fill="#939393" d="M66.616,84.622H54.46V51.339l0.118-5.468l0.197-5.98c-2.02,2.02-3.422,3.344-4.209,3.973l-6.609,5.312
				l-5.862-7.318l18.53-14.753h9.993V84.622z"/>
			<path fill="#939393" d="M78.933,60.191c0-11.382,2.406-19.854,7.219-25.414c4.812-5.56,12.019-8.341,21.618-8.341
				c3.278,0,5.848,0.197,7.711,0.59v9.717c-2.335-0.524-4.643-0.787-6.924-0.787c-4.17,0-7.573,0.629-10.209,1.888
				s-4.61,3.122-5.921,5.586c-1.312,2.466-2.085,5.967-2.321,10.504h0.512c2.596-4.458,6.753-6.688,12.471-6.688
				c5.14,0,9.167,1.613,12.078,4.839s4.367,7.685,4.367,13.376c0,6.137-1.731,10.996-5.193,14.576s-8.262,5.37-14.399,5.37
				c-4.249,0-7.954-0.983-11.114-2.951c-3.161-1.967-5.6-4.839-7.317-8.615C79.792,70.066,78.933,65.516,78.933,60.191z
				 M99.706,75.691c2.596,0,4.589-0.872,5.979-2.616c1.39-1.744,2.085-4.229,2.085-7.455c0-2.806-0.649-5.016-1.948-6.629
				c-1.298-1.613-3.259-2.419-5.881-2.419c-2.465,0-4.57,0.8-6.314,2.4c-1.744,1.6-2.616,3.462-2.616,5.586
				c0,3.122,0.82,5.757,2.459,7.908C95.108,74.617,97.188,75.691,99.706,75.691z"/>
		</g>
	</g>
	<g>
		<g>
			<path fill="#939393" d="M53.904,114.623l-0.988-2.546h-0.134c-0.86,1.083-1.745,1.834-2.655,2.253s-2.097,0.628-3.559,0.628
				c-1.798,0-3.213-0.514-4.246-1.541s-1.549-2.49-1.549-4.389c0-1.987,0.695-3.452,2.085-4.396c1.39-0.943,3.486-1.466,6.289-1.565
				l3.25-0.101v-0.821c0-1.898-0.971-2.848-2.915-2.848c-1.496,0-3.255,0.453-5.276,1.357l-1.691-3.45
				c2.155-1.128,4.544-1.692,7.168-1.692c2.513,0,4.438,0.548,5.779,1.642c1.34,1.095,2.01,2.758,2.01,4.991v12.479H53.904z
				 M52.397,105.947l-1.977,0.066c-1.485,0.045-2.59,0.312-3.316,0.804c-0.726,0.492-1.088,1.24-1.088,2.245
				c0,1.44,0.826,2.16,2.479,2.16c1.183,0,2.129-0.34,2.839-1.021c0.709-0.681,1.063-1.585,1.063-2.713V105.947z"/>
			<path fill="#939393" d="M80.017,114.623h-5.108v-10.938c0-1.351-0.24-2.364-0.72-3.04c-0.48-0.676-1.246-1.013-2.295-1.013
				c-1.429,0-2.462,0.477-3.099,1.432c-0.636,0.955-0.955,2.537-0.955,4.748v8.811h-5.109V95.897h3.903l0.687,2.395h0.285
				c0.569-0.904,1.354-1.588,2.353-2.052c0.999-0.463,2.136-0.694,3.409-0.694c2.177,0,3.83,0.589,4.958,1.767
				c1.128,1.179,1.692,2.878,1.692,5.101V114.623z"/>
			<path fill="#939393" d="M102.293,105.227c0,3.049-0.804,5.433-2.412,7.152c-1.608,1.72-3.847,2.579-6.716,2.579
				c-1.798,0-3.383-0.394-4.757-1.181s-2.429-1.918-3.166-3.392c-0.737-1.475-1.105-3.193-1.105-5.159
				c0-3.06,0.798-5.438,2.395-7.135s3.841-2.546,6.733-2.546c1.798,0,3.383,0.391,4.757,1.172c1.374,0.782,2.429,1.904,3.166,3.367
				S102.293,103.262,102.293,105.227z M89.346,105.227c0,1.854,0.304,3.255,0.913,4.204c0.608,0.949,1.599,1.424,2.973,1.424
				c1.362,0,2.342-0.472,2.939-1.415s0.896-2.348,0.896-4.213c0-1.854-0.302-3.243-0.905-4.171c-0.603-0.927-1.591-1.39-2.964-1.39
				c-1.363,0-2.345,0.46-2.948,1.382C89.647,101.969,89.346,103.362,89.346,105.227z"/>
			<path fill="#939393" d="M119.579,109.062c0,1.921-0.667,3.383-2.002,4.388s-3.33,1.508-5.988,1.508
				c-1.362,0-2.523-0.092-3.484-0.276s-1.859-0.455-2.697-0.812v-4.221c0.949,0.447,2.019,0.82,3.208,1.122
				c1.189,0.302,2.236,0.452,3.141,0.452c1.854,0,2.78-0.536,2.78-1.607c0-0.402-0.123-0.729-0.368-0.98
				c-0.246-0.251-0.67-0.535-1.273-0.854s-1.407-0.689-2.412-1.114c-1.44-0.603-2.499-1.161-3.174-1.675
				c-0.676-0.514-1.167-1.103-1.474-1.768c-0.307-0.664-0.46-1.481-0.46-2.453c0-1.664,0.645-2.951,1.935-3.861
				c1.29-0.909,3.118-1.364,5.485-1.364c2.255,0,4.45,0.491,6.583,1.474l-1.541,3.685c-0.938-0.401-1.814-0.731-2.629-0.988
				c-0.815-0.257-1.647-0.385-2.496-0.385c-1.507,0-2.261,0.407-2.261,1.223c0,0.458,0.243,0.854,0.729,1.189s1.549,0.832,3.19,1.49
				c1.463,0.592,2.535,1.145,3.216,1.658c0.681,0.514,1.183,1.105,1.507,1.775C119.417,107.337,119.579,108.136,119.579,109.062z"/>
		</g>
	</g>
	<g>
		<g>
			<path fill="#939393" d="M42.758,129.276c-0.939,0-1.677-0.364-2.213-1.094c-0.536-0.729-0.804-1.739-0.804-3.031
				c0-1.311,0.273-2.331,0.819-3.063c0.545-0.731,1.297-1.097,2.255-1.097c1.005,0,1.773,0.391,2.302,1.172h0.071
				c-0.11-0.596-0.165-1.127-0.165-1.594v-2.56h2.188v11.124h-1.673l-0.421-1.037h-0.093
				C44.528,128.884,43.773,129.276,42.758,129.276z M43.522,127.539c0.558,0,0.966-0.161,1.227-0.485
				c0.259-0.324,0.401-0.875,0.425-1.651v-0.236c0-0.858-0.132-1.473-0.397-1.845s-0.695-0.558-1.291-0.558
				c-0.486,0-0.864,0.206-1.133,0.618c-0.27,0.413-0.404,1.012-0.404,1.799c0,0.786,0.136,1.376,0.408,1.769
				C42.629,127.343,43.018,127.539,43.522,127.539z"/>
			<path fill="#939393" d="M52.524,129.276c-1.287,0-2.292-0.354-3.017-1.064c-0.725-0.711-1.087-1.716-1.087-3.018
				c0-1.339,0.335-2.374,1.004-3.106c0.669-0.731,1.596-1.097,2.777-1.097c1.13,0,2.009,0.321,2.638,0.965
				c0.629,0.644,0.944,1.532,0.944,2.667v1.058h-5.155c0.024,0.62,0.208,1.104,0.551,1.451s0.824,0.522,1.444,0.522
				c0.481,0,0.937-0.051,1.366-0.15c0.429-0.101,0.877-0.26,1.344-0.479v1.688c-0.382,0.19-0.789,0.332-1.223,0.426
				C53.677,129.23,53.148,129.276,52.524,129.276z M52.217,122.542c-0.462,0-0.825,0.146-1.087,0.439
				c-0.262,0.294-0.412,0.709-0.45,1.248h3.06c-0.009-0.539-0.15-0.954-0.421-1.248C53.046,122.688,52.679,122.542,52.217,122.542z"
				/>
			<path fill="#939393" d="M67.346,129.134h-2.181v-4.669c0-0.576-0.096-1.009-0.29-1.297c-0.193-0.288-0.497-0.433-0.912-0.433
				c-0.558,0-0.962,0.205-1.215,0.614c-0.252,0.41-0.379,1.085-0.379,2.023v3.761h-2.18v-7.993h1.666l0.293,1.022h0.122
				c0.215-0.367,0.524-0.654,0.93-0.861c0.405-0.207,0.87-0.311,1.394-0.311c1.196,0,2.006,0.391,2.431,1.172h0.193
				c0.215-0.371,0.53-0.66,0.947-0.865c0.417-0.204,0.888-0.307,1.412-0.307c0.906,0,1.591,0.231,2.056,0.696
				c0.464,0.465,0.697,1.21,0.697,2.234v5.212h-2.188v-4.669c0-0.576-0.097-1.009-0.29-1.297s-0.497-0.433-0.912-0.433
				c-0.534,0-0.933,0.19-1.197,0.572c-0.265,0.381-0.397,0.986-0.397,1.815V129.134z"/>
			<path fill="#939393" d="M77.598,129.276c-1.287,0-2.292-0.354-3.017-1.064c-0.725-0.711-1.087-1.716-1.087-3.018
				c0-1.339,0.335-2.374,1.004-3.106c0.669-0.731,1.596-1.097,2.777-1.097c1.13,0,2.009,0.321,2.638,0.965
				c0.629,0.644,0.944,1.532,0.944,2.667v1.058h-5.155c0.024,0.62,0.208,1.104,0.551,1.451s0.824,0.522,1.444,0.522
				c0.481,0,0.937-0.051,1.366-0.15c0.429-0.101,0.877-0.26,1.344-0.479v1.688c-0.382,0.19-0.789,0.332-1.223,0.426
				C78.751,129.23,78.223,129.276,77.598,129.276z M77.291,122.542c-0.462,0-0.825,0.146-1.087,0.439
				c-0.262,0.294-0.412,0.709-0.45,1.248h3.06c-0.009-0.539-0.15-0.954-0.421-1.248C78.12,122.688,77.753,122.542,77.291,122.542z"
				/>
			<path fill="#939393" d="M86.507,120.991c0.295,0,0.541,0.021,0.736,0.063l-0.165,2.045c-0.176-0.048-0.391-0.071-0.643-0.071
				c-0.696,0-1.238,0.179-1.626,0.536c-0.389,0.357-0.583,0.858-0.583,1.501v4.068h-2.18v-7.993h1.651l0.322,1.345h0.107
				c0.248-0.448,0.583-0.81,1.005-1.083C85.552,121.128,86.011,120.991,86.507,120.991z"/>
			<path fill="#939393" d="M91.354,129.276c-2.488,0-3.732-1.365-3.732-4.096c0-1.358,0.338-2.396,1.015-3.114
				c0.677-0.717,1.647-1.075,2.91-1.075c0.925,0,1.754,0.181,2.488,0.543l-0.644,1.688c-0.343-0.139-0.663-0.252-0.958-0.34
				s-0.591-0.133-0.887-0.133c-1.134,0-1.701,0.806-1.701,2.417c0,1.563,0.567,2.345,1.701,2.345c0.419,0,0.808-0.056,1.166-0.168
				c0.357-0.111,0.715-0.287,1.072-0.525v1.866c-0.353,0.224-0.709,0.379-1.069,0.465C92.356,129.233,91.902,129.276,91.354,129.276
				z"/>
			<path fill="#939393" d="M100.127,129.134l-0.422-1.087h-0.057c-0.367,0.463-0.745,0.783-1.133,0.962
				c-0.389,0.179-0.895,0.268-1.52,0.268c-0.767,0-1.372-0.219-1.812-0.657c-0.441-0.438-0.662-1.062-0.662-1.873
				c0-0.849,0.297-1.474,0.89-1.877c0.593-0.402,1.488-0.625,2.685-0.668l1.387-0.043v-0.351c0-0.811-0.415-1.216-1.244-1.216
				c-0.639,0-1.39,0.193-2.252,0.579l-0.722-1.473c0.92-0.481,1.94-0.722,3.06-0.722c1.072,0,1.895,0.233,2.466,0.7
				c0.572,0.468,0.858,1.178,0.858,2.131v5.326H100.127z M99.483,125.431l-0.843,0.028c-0.634,0.02-1.106,0.134-1.416,0.343
				c-0.31,0.21-0.465,0.529-0.465,0.958c0,0.615,0.353,0.923,1.058,0.923c0.505,0,0.909-0.146,1.212-0.437
				c0.303-0.29,0.454-0.677,0.454-1.158V125.431z"/>
			<path fill="#939393" d="M105.84,129.276c-0.939,0-1.677-0.364-2.213-1.094c-0.536-0.729-0.804-1.739-0.804-3.031
				c0-1.311,0.273-2.331,0.819-3.063c0.545-0.731,1.297-1.097,2.255-1.097c1.005,0,1.773,0.391,2.302,1.172h0.071
				c-0.11-0.596-0.165-1.127-0.165-1.594v-2.56h2.188v11.124h-1.673l-0.421-1.037h-0.093
				C107.611,128.884,106.855,129.276,105.84,129.276z M106.605,127.539c0.558,0,0.966-0.161,1.227-0.485
				c0.259-0.324,0.401-0.875,0.425-1.651v-0.236c0-0.858-0.132-1.473-0.397-1.845s-0.695-0.558-1.291-0.558
				c-0.486,0-0.864,0.206-1.133,0.618c-0.27,0.413-0.404,1.012-0.404,1.799c0,0.786,0.136,1.376,0.408,1.769
				C105.711,127.343,106.1,127.539,106.605,127.539z"/>
			<path fill="#939393" d="M119.253,125.123c0,1.301-0.343,2.318-1.03,3.053c-0.686,0.734-1.642,1.101-2.867,1.101
				c-0.768,0-1.444-0.168-2.03-0.504c-0.586-0.336-1.037-0.818-1.352-1.447c-0.314-0.629-0.472-1.363-0.472-2.202
				c0-1.306,0.341-2.321,1.022-3.046c0.682-0.724,1.64-1.086,2.874-1.086c0.767,0,1.444,0.166,2.03,0.5s1.037,0.812,1.351,1.438
				C119.095,123.553,119.253,124.284,119.253,125.123z M113.727,125.123c0,0.791,0.129,1.39,0.39,1.795
				c0.259,0.404,0.683,0.607,1.269,0.607c0.582,0,1-0.201,1.255-0.604c0.255-0.402,0.382-1.002,0.382-1.798
				c0-0.791-0.128-1.385-0.386-1.78s-0.679-0.594-1.266-0.594c-0.582,0-1.001,0.197-1.258,0.59
				C113.855,123.732,113.727,124.327,113.727,125.123z"/>
		</g>
	</g>
</g>
</svg>
