<?xml version="1.0" encoding="utf-8"?>
<!-- Generator: Adobe Illustrator 15.0.0, SVG Export Plug-In . SVG Version: 6.00 Build 0)  -->
<!DOCTYPE svg PUBLIC "-//W3C//DTD SVG 1.1//EN" "http://www.w3.org/Graphics/SVG/1.1/DTD/svg11.dtd">
<svg version="1.1" id="Layer_1" xmlns="http://www.w3.org/2000/svg" xmlns:xlink="http://www.w3.org/1999/xlink" x="0px" y="0px"
	 width="124px" height="34px" viewBox="0 0 124 34" enable-background="new 0 0 124 34" xml:space="preserve">
<g>
	<path fill="#EB3046" d="M9.138,11.101v10.12h2.57v2.307H6.682V11.101H9.138z"/>
	<path fill="#EB3046" d="M17.556,11.101l2.983,12.426h-2.62l-0.462-2.094h-2.488l-0.445,2.094h-2.439l2.884-12.426H17.556z
		 M16.469,16.177l-0.28-1.879h-0.033l-0.264,1.879l-0.527,3.312h1.73L16.469,16.177z"/>
	<path fill="#EB3046" d="M23.881,11.101l3.065,7.499l0.033-0.033c-0.148-0.593-0.198-1.236-0.198-1.878v-5.587h2.456v12.426h-2.324
		l-3.032-7.499l-0.033,0.033l0.115,1.252l0.017,0.511v5.703h-2.456V11.101H23.881z"/>
	<path fill="#EB3046" d="M37.161,13.441c-0.313-0.083-0.61-0.132-0.923-0.132c-2.159,0-3.098,1.961-3.098,3.873
		c0,1.845,0.939,4.121,3.082,4.121c0.313,0,0.626-0.082,0.939-0.182v2.324c-0.363,0.148-0.742,0.213-1.137,0.213
		c-3.543,0-5.504-3.197-5.504-6.459c0-3.082,2.044-6.246,5.389-6.246c0.428,0,0.84,0.083,1.252,0.23V13.441z M35.694,24.912
		l-1.73,2.207l-1.038-0.527l1.285-2.273L35.694,24.912z"/>
	<path fill="#EB3046" d="M43.141,11.101l2.983,12.426h-2.621l-0.461-2.094h-2.489l-0.445,2.094h-2.439l2.884-12.426H43.141z
		 M42.053,16.177l-0.28-1.879H41.74l-0.264,1.879l-0.527,3.312h1.73L42.053,16.177z"/>
	<path fill="#EB3046" d="M50.933,11.101l1.203,7.333h0.032l0.989-7.333h3.296l1.302,12.426h-2.521l-0.593-8.949h-0.033l-0.396,3.065
		l-1.055,5.884h-1.896l-1.203-5.95l-0.412-2.769v-0.23h-0.033l-0.363,8.949h-2.637l1.088-12.426H50.933z"/>
	<path fill="#EB3046" d="M63.947,11.101v2.308h-2.488v2.702h2.191v2.307h-2.191v2.803h2.521v2.307h-4.978V11.101H63.947z"/>
	<path fill="#EB3046" d="M67.818,11.101l3.064,7.499l0.033-0.033c-0.148-0.593-0.197-1.236-0.197-1.878v-5.587h2.455v12.426H70.85
		l-3.031-7.499l-0.033,0.033l0.115,1.252l0.017,0.511v5.703h-2.456V11.101H67.818z"/>
	<path fill="#EB3046" d="M80.603,11.101v2.308h-1.944v10.119h-2.455V13.409h-1.929v-2.308H80.603z"/>
	<path fill="#EB3046" d="M90.01,17.314c0,4.665-2.175,6.411-4.366,6.411c-2.192,0-4.367-1.746-4.367-6.411
		c0-4.664,2.175-6.41,4.367-6.41C87.835,10.904,90.01,12.65,90.01,17.314z M85.644,21.451c1.631,0,1.746-3.148,1.746-4.137
		c0-1.104-0.115-4.136-1.746-4.136c-1.632,0-1.747,3.032-1.747,4.136C83.896,18.303,84.012,21.451,85.644,21.451z"/>
</g>
<polygon fill="#EB3046" points="111.115,13.08 112.904,18.585 118.692,18.585 114.01,21.988 115.798,27.494 111.115,24.092 
	106.432,27.494 108.22,21.988 103.537,18.585 109.325,18.585 "/>
<polygon fill="#EB3046" points="100.982,6.648 102.024,9.856 105.397,9.856 102.669,11.839 103.711,15.047 100.982,13.065 
	98.253,15.047 99.295,11.839 96.566,9.856 99.939,9.856 "/>
</svg>
