<?xml version="1.0" encoding="utf-8"?>
<!-- Generator: Adobe Illustrator 15.0.0, SVG Export Plug-In . SVG Version: 6.00 Build 0)  -->
<!DOCTYPE svg PUBLIC "-//W3C//DTD SVG 1.1//EN" "http://www.w3.org/Graphics/SVG/1.1/DTD/svg11.dtd">
<svg version="1.1" id="Layer_1" xmlns="http://www.w3.org/2000/svg" xmlns:xlink="http://www.w3.org/1999/xlink" x="0px" y="0px"
	 width="278px" height="71.667px" viewBox="0 0 278 71.667" enable-background="new 0 0 278 71.667" xml:space="preserve">
<g>
	<path fill="#1AB51E" d="M276,62.166c0,2.671-2.164,4.835-4.835,4.835H6.834C4.165,67,2,64.836,2,62.166V9.168
		c0-2.67,2.165-4.834,4.834-4.834h264.331c2.671,0,4.835,2.165,4.835,4.834V62.166z"/>
</g>
<g enable-background="new    ">
	<path fill="#FFFFFF" d="M49.729,39.289l4.478,1.42c-0.686,2.496-1.828,4.352-3.425,5.562c-1.597,1.214-3.623,1.818-6.078,1.818
		c-3.038,0-5.535-1.039-7.49-3.113c-1.956-2.075-2.934-4.914-2.934-8.513c0-3.808,0.983-6.765,2.949-8.871
		c1.967-2.106,4.551-3.16,7.756-3.16c2.798,0,5.072,0.827,6.819,2.481c1.041,0.978,1.82,2.382,2.341,4.213l-4.572,1.092
		c-0.271-1.186-0.835-2.123-1.693-2.809c-0.858-0.687-1.901-1.03-3.128-1.03c-1.696,0-3.072,0.609-4.127,1.826
		c-1.056,1.217-1.584,3.188-1.584,5.914c0,2.893,0.52,4.952,1.561,6.18c1.04,1.228,2.393,1.84,4.057,1.84
		c1.228,0,2.283-0.389,3.168-1.17C48.709,42.192,49.343,40.962,49.729,39.289z"/>
	<path fill="#FFFFFF" d="M57.234,36.402c0-2.33,0.349-4.286,1.046-5.868c0.52-1.165,1.229-2.21,2.13-3.136
		c0.9-0.927,1.886-1.613,2.957-2.061c1.425-0.603,3.069-0.905,4.932-0.905c3.37,0,6.067,1.045,8.091,3.138
		c2.023,2.091,3.035,4.999,3.035,8.723c0,3.694-1.004,6.583-3.012,8.668c-2.008,2.085-4.692,3.129-8.052,3.129
		c-3.401,0-6.107-1.039-8.115-3.113C58.238,42.901,57.234,40.042,57.234,36.402z M61.994,36.245c0,2.591,0.598,4.554,1.794,5.892
		c1.196,1.336,2.715,2.004,4.557,2.004c1.842,0,3.353-0.662,4.533-1.987c1.181-1.328,1.771-3.316,1.771-5.971
		c0-2.621-0.575-4.576-1.725-5.866c-1.15-1.29-2.676-1.936-4.58-1.936c-1.904,0-3.438,0.653-4.603,1.959
		C62.577,31.644,61.994,33.614,61.994,36.245z"/>
	<path fill="#FFFFFF" d="M83.076,47.7V24.823h4.494l9.363,15.276V24.823h4.292v22.876H96.59l-9.223-14.918v14.918L83.076,47.7
		L83.076,47.7z"/>
	<path fill="#FFFFFF" d="M111.258,47.7V28.693h-6.788v-3.87h18.18v3.87h-6.772v19.006L111.258,47.7L111.258,47.7z"/>
	<path fill="#FFFFFF" d="M125.491,47.7V24.823h4.619v22.876L125.491,47.7L125.491,47.7z"/>
	<path fill="#FFFFFF" d="M134.557,47.7V24.823h4.494l9.363,15.276V24.823h4.291v22.876h-4.635l-9.222-14.918v14.918L134.557,47.7
		L134.557,47.7z"/>
	<path fill="#FFFFFF" d="M157.559,24.823h4.619v12.391c0,1.966,0.057,3.24,0.172,3.824c0.197,0.936,0.668,1.688,1.412,2.254
		s1.76,0.85,3.051,0.85c1.312,0,2.299-0.266,2.966-0.803c0.664-0.535,1.066-1.193,1.201-1.975c0.135-0.779,0.201-2.074,0.201-3.886
		V24.823h4.62v12.016c0,2.746-0.125,4.688-0.374,5.822c-0.25,1.133-0.711,2.09-1.382,2.871c-0.671,0.778-1.567,1.399-2.69,1.862
		c-1.125,0.464-2.591,0.695-4.4,0.695c-2.185,0-3.843-0.252-4.972-0.756c-1.127-0.506-2.021-1.16-2.676-1.967
		c-0.656-0.808-1.088-1.652-1.295-2.537c-0.302-1.312-0.453-3.246-0.453-5.804V24.823L157.559,24.823z"/>
	<path fill="#FFFFFF" d="M201.3,47.7h-5.025l-1.996-5.197h-9.146l-1.888,5.197h-4.899l8.91-22.876h4.885L201.3,47.7z
		 M192.795,38.649l-3.151-8.489l-3.09,8.489H192.795z"/>
	<path fill="#FFFFFF" d="M203.767,47.7V24.823h9.721c2.445,0,4.222,0.205,5.33,0.616c1.107,0.41,1.994,1.142,2.66,2.191
		c0.664,1.051,0.998,2.253,0.998,3.605c0,1.717-0.504,3.134-1.514,4.252c-1.01,1.119-2.518,1.823-4.525,2.114
		c1,0.583,1.823,1.224,2.474,1.921c0.649,0.694,1.526,1.934,2.63,3.713l2.794,4.463h-5.524l-3.34-4.979
		c-1.186-1.776-1.996-2.897-2.435-3.362c-0.437-0.462-0.899-0.779-1.39-0.951s-1.264-0.258-2.324-0.258h-0.936v9.551L203.767,47.7
		L203.767,47.7z M208.386,34.498h3.416c2.217,0,3.6-0.094,4.15-0.281c0.552-0.188,0.982-0.51,1.296-0.967
		c0.312-0.458,0.468-1.03,0.468-1.717c0-0.771-0.205-1.393-0.615-1.865c-0.41-0.474-0.99-0.772-1.74-0.897
		c-0.375-0.052-1.498-0.077-3.371-0.077h-3.604V34.498z"/>
</g>
<path fill="#FFFFFF" d="M259.81,36.26c0.004-0.481-0.178-0.964-0.545-1.331L245.95,21.616c-0.727-0.728-1.904-0.728-2.633,0
	c-0.726,0.727-0.726,1.907,0,2.634l12.014,12.012l-12.014,12.013c-0.726,0.727-0.726,1.905,0,2.633c0.729,0.729,1.906,0.729,2.633,0
	l13.316-13.313C259.632,37.225,259.813,36.741,259.81,36.26z"/>
</svg>
