<?xml version="1.0" encoding="utf-8"?>
<!-- Generator: Adobe Illustrator 15.0.0, SVG Export Plug-In . SVG Version: 6.00 Build 0)  -->
<!DOCTYPE svg PUBLIC "-//W3C//DTD SVG 1.1//EN" "http://www.w3.org/Graphics/SVG/1.1/DTD/svg11.dtd">
<svg version="1.1" id="Layer_1" xmlns="http://www.w3.org/2000/svg" xmlns:xlink="http://www.w3.org/1999/xlink" x="0px" y="0px"
	 width="230px" height="115px" viewBox="0 0 230 115" enable-background="new 0 0 230 115" xml:space="preserve">
<g>
	<g>
		<path fill="#696A6A" d="M127.354,38.565V25.956h2.006c1.439,0,3.278,0.134,3.278,3.378c0,2.559-1.003,3.746-3.612,3.646v5.586
			H127.354z M129.025,27.377v4.181c1.438,0.101,1.84-0.686,1.84-2.09c0-1.137-0.334-2.09-1.605-2.09H129.025z"/>
		<path fill="#696A6A" d="M136.453,25.956l2.709,12.609h-1.689l-0.468-2.458h-2.509l-0.468,2.458h-1.64l2.743-12.609H136.453z
			 M136.42,32.979l-0.636-4.582h-0.034l-1.003,6.405h2.007L136.42,32.979z"/>
		<path fill="#696A6A" d="M140.269,25.956h2.007c1.221,0,3.127,0.066,3.127,3.228c0,1.188-0.351,2.993-1.738,3.244l2.324,6.138
			h-1.739l-2.274-6.171h-0.033v6.171h-1.673V25.956z M143.63,29.551c0-1.204-0.15-2.208-1.421-2.174h-0.268v4.164
			C143.195,31.625,143.63,30.822,143.63,29.551z"/>
		<path fill="#696A6A" d="M150.339,25.956l2.709,12.609h-1.688l-0.469-2.458h-2.509l-0.468,2.458h-1.639l2.742-12.609H150.339z
			 M150.305,32.979l-0.635-4.582h-0.033l-1.004,6.405h2.007L150.305,32.979z"/>
		<path fill="#696A6A" d="M162.033,25.956v1.455h-1.891v11.155h-1.672V27.411h-1.974v-1.455H162.033z"/>
		<path fill="#696A6A" d="M162.988,25.956h2.006c1.222,0,3.128,0.066,3.128,3.228c0,1.188-0.351,2.993-1.739,3.244l2.324,6.138
			h-1.738l-2.275-6.171h-0.033v6.171h-1.672V25.956z M166.35,29.551c0-1.204-0.15-2.208-1.422-2.174h-0.268v4.164
			C165.914,31.625,166.35,30.822,166.35,29.551z"/>
		<path fill="#696A6A" d="M176.186,32.261c0,2.274-0.033,6.472-3.278,6.472c-3.244,0-3.277-4.197-3.277-6.472
			s0.033-6.472,3.277-6.472C176.152,25.789,176.186,29.986,176.186,32.261z M171.402,32.261c0,2.676,0.184,4.9,1.505,4.9
			s1.505-2.224,1.505-4.9s-0.184-4.9-1.505-4.9S171.402,29.585,171.402,32.261z"/>
		<path fill="#696A6A" d="M182.795,27.678c-0.335-0.167-0.687-0.318-1.07-0.318c-2.342,0-2.358,3.412-2.358,4.984
			c0,1.672,0.134,4.816,2.425,4.816c0.368,0,0.686-0.083,1.004-0.251v1.472c-0.419,0.268-0.854,0.351-1.338,0.351
			c-3.412,0-3.863-3.629-3.863-6.271c0-2.525,0.317-6.673,3.746-6.673c0.568,0,0.97,0.083,1.455,0.368V27.678z"/>
		<path fill="#696A6A" d="M187.195,25.956l2.709,12.609h-1.688l-0.469-2.458h-2.509l-0.468,2.458h-1.639l2.742-12.609H187.195z
			 M187.162,32.979l-0.636-4.582h-0.033l-1.004,6.405h2.007L187.162,32.979z"/>
		<path fill="#696A6A" d="M191.011,25.956h2.007c1.221,0,3.127,0.066,3.127,3.228c0,1.188-0.352,2.993-1.739,3.244l2.324,6.138
			h-1.739l-2.274-6.171h-0.033v6.171h-1.672V25.956z M194.372,29.551c0-1.204-0.15-2.208-1.422-2.174h-0.268v4.164
			C193.937,31.625,194.372,30.822,194.372,29.551z"/>
	</g>
</g>
<g>
	<g>
		<path fill="#696A6A" d="M67.135,25.956v12.609H64.71V28.13h-1.204v-2.174H67.135z"/>
		<path fill="#696A6A" d="M72.54,31.742c-1.137-0.385-1.723-1.472-1.723-2.659c0-1.856,1.238-3.328,3.161-3.328
			c1.907,0,3.145,1.472,3.145,3.328c0,1.188-0.569,2.258-1.723,2.676v0.017c1.572,0.502,2.19,1.756,2.19,3.345
			c0,2.074-1.505,3.646-3.612,3.646c-2.107,0-3.629-1.572-3.629-3.646c0-1.622,0.619-2.826,2.191-3.345V31.742z M72.907,34.803
			c0,0.652,0.184,1.789,1.054,1.789c0.853,0,1.07-1.17,1.07-1.789c0-0.619-0.268-1.823-1.087-1.823
			C73.091,32.979,72.907,34.15,72.907,34.803z M73.928,30.471c0.769,0,0.769-0.953,0.769-1.421c0-0.452-0.083-1.338-0.769-1.338
			c-0.602,0-0.686,0.87-0.686,1.321C73.242,29.518,73.309,30.471,73.928,30.471z"/>
		<path fill="#696A6A" d="M85.704,32.261c0,2.224-0.519,6.505-3.545,6.505s-3.545-4.281-3.545-6.505
			c0-2.225,0.519-6.506,3.545-6.506S85.704,30.036,85.704,32.261z M81.038,32.261c0,0.819-0.117,4.231,1.121,4.231
			c1.238,0,1.121-3.412,1.121-4.231s0.117-4.231-1.121-4.231C80.921,28.029,81.038,31.441,81.038,32.261z"/>
		<path fill="#696A6A" d="M91.245,38.565V25.956h1.89c0.435,0,5.652-0.636,5.652,6.405c0,3.596-1.388,6.205-5.318,6.205H91.245z
			 M96.295,32.344c0-1.605-0.502-4.147-2.559-4.147v8.127C95.743,36.425,96.295,33.916,96.295,32.344z"/>
		<path fill="#696A6A" d="M102.604,25.956v12.609h-2.492V25.956H102.604z"/>
		<path fill="#696A6A" d="M109.177,25.956l3.027,12.609h-2.659l-0.468-2.124h-2.525l-0.452,2.124h-2.475l2.927-12.609H109.177z
			 M108.073,31.106l-0.284-1.906h-0.033l-0.268,1.906l-0.535,3.362h1.756L108.073,31.106z"/>
		<path fill="#696A6A" d="M118.396,28.799c-0.501-0.435-1.12-0.803-1.806-0.803c-0.77,0-1.254,0.468-1.254,1.237
			c0,2.074,3.796,2.191,3.796,5.603c0,2.241-1.288,3.93-3.629,3.93c-0.703,0-1.572-0.217-2.141-0.635v-2.375
			c0.585,0.401,1.154,0.669,1.89,0.669c0.803,0,1.438-0.535,1.438-1.371c0-0.97-0.77-1.338-1.472-1.84
			c-1.438-0.97-2.325-1.906-2.325-3.746c0-1.99,1.154-3.713,3.295-3.713c0.803,0,1.521,0.218,2.207,0.619V28.799z"/>
	</g>
</g>
<g>
	<path fill="#696A6A" d="M69.012,57.341c0,0.754-0.273,1.342-0.82,1.764s-1.289,0.633-2.227,0.633c-1.016,0-1.797-0.131-2.344-0.393
		v-0.961c0.352,0.148,0.734,0.266,1.148,0.352s0.824,0.129,1.23,0.129c0.664,0,1.164-0.126,1.5-0.378s0.504-0.603,0.504-1.052
		c0-0.297-0.06-0.54-0.179-0.729s-0.318-0.364-0.598-0.524s-0.704-0.342-1.274-0.545c-0.797-0.285-1.366-0.623-1.708-1.014
		s-0.513-0.9-0.513-1.529c0-0.66,0.248-1.186,0.744-1.576s1.152-0.586,1.969-0.586c0.852,0,1.635,0.156,2.35,0.469l-0.311,0.867
		c-0.707-0.297-1.395-0.445-2.062-0.445c-0.527,0-0.939,0.113-1.236,0.34s-0.445,0.541-0.445,0.943c0,0.297,0.055,0.54,0.164,0.729
		s0.294,0.363,0.554,0.521s0.657,0.333,1.192,0.524c0.898,0.32,1.517,0.664,1.854,1.031S69.012,56.755,69.012,57.341z"/>
	<path fill="#696A6A" d="M73.03,59.737c-0.949,0-1.698-0.289-2.247-0.867s-0.823-1.381-0.823-2.408c0-1.035,0.255-1.857,0.765-2.467
		s1.194-0.914,2.054-0.914c0.805,0,1.441,0.265,1.91,0.794s0.703,1.228,0.703,2.095v0.615h-4.424c0.02,0.754,0.21,1.326,0.571,1.717
		s0.87,0.586,1.526,0.586c0.691,0,1.375-0.145,2.051-0.434v0.867c-0.344,0.148-0.669,0.255-0.976,0.319S73.464,59.737,73.03,59.737z
		 M72.767,53.896c-0.516,0-0.927,0.168-1.233,0.504s-0.487,0.801-0.542,1.395h3.357c0-0.613-0.137-1.083-0.41-1.409
		S73.274,53.896,72.767,53.896z"/>
	<path fill="#696A6A" d="M84.935,59.62v-4.178c0-0.512-0.109-0.896-0.328-1.151s-0.559-0.384-1.02-0.384
		c-0.605,0-1.053,0.174-1.342,0.521s-0.434,0.883-0.434,1.605v3.586h-0.973v-4.178c0-0.512-0.109-0.896-0.328-1.151
		s-0.561-0.384-1.025-0.384c-0.609,0-1.056,0.183-1.339,0.548s-0.425,0.964-0.425,1.796v3.369H76.75v-6.422h0.791l0.158,0.879h0.047
		c0.184-0.312,0.442-0.557,0.776-0.732s0.708-0.264,1.122-0.264c1.004,0,1.66,0.363,1.969,1.09h0.047
		c0.191-0.336,0.469-0.602,0.832-0.797s0.777-0.293,1.242-0.293c0.727,0,1.271,0.187,1.632,0.56s0.542,0.97,0.542,1.79v4.189H84.935
		z"/>
	<path fill="#696A6A" d="M92.995,59.737c-0.93,0-1.649-0.286-2.159-0.858s-0.765-1.382-0.765-2.429c0-1.074,0.259-1.904,0.776-2.49
		s1.255-0.879,2.212-0.879c0.309,0,0.617,0.033,0.926,0.1s0.551,0.145,0.727,0.234l-0.299,0.826
		c-0.215-0.086-0.449-0.157-0.703-0.214s-0.479-0.085-0.674-0.085c-1.305,0-1.957,0.832-1.957,2.496
		c0,0.789,0.159,1.395,0.478,1.816s0.79,0.633,1.415,0.633c0.535,0,1.084-0.115,1.646-0.346v0.861
		C94.188,59.626,93.647,59.737,92.995,59.737z"/>
	<path fill="#696A6A" d="M96.756,53.198v4.166c0,0.523,0.119,0.914,0.357,1.172s0.611,0.387,1.119,0.387
		c0.672,0,1.163-0.184,1.474-0.551s0.466-0.967,0.466-1.799v-3.375h0.973v6.422h-0.803l-0.141-0.861h-0.053
		c-0.199,0.316-0.476,0.559-0.829,0.727s-0.757,0.252-1.21,0.252c-0.781,0-1.366-0.186-1.755-0.557s-0.583-0.965-0.583-1.781v-4.201
		H96.756z"/>
	<path fill="#696A6A" d="M107.05,57.868c0,0.598-0.223,1.059-0.668,1.383s-1.07,0.486-1.875,0.486c-0.852,0-1.516-0.135-1.992-0.404
		v-0.902c0.309,0.156,0.64,0.279,0.993,0.369s0.694,0.135,1.022,0.135c0.508,0,0.898-0.081,1.172-0.243s0.41-0.409,0.41-0.741
		c0-0.25-0.108-0.464-0.325-0.642s-0.64-0.388-1.269-0.63c-0.598-0.223-1.022-0.417-1.274-0.583s-0.439-0.354-0.562-0.565
		s-0.185-0.463-0.185-0.756c0-0.523,0.213-0.937,0.639-1.239s1.01-0.454,1.752-0.454c0.691,0,1.367,0.141,2.027,0.422l-0.346,0.791
		c-0.645-0.266-1.229-0.398-1.752-0.398c-0.461,0-0.809,0.072-1.043,0.217s-0.352,0.344-0.352,0.598
		c0,0.172,0.044,0.318,0.132,0.439s0.229,0.236,0.425,0.346s0.57,0.268,1.125,0.475c0.762,0.277,1.276,0.557,1.544,0.838
		S107.05,57.442,107.05,57.868z"/>
	<path fill="#696A6A" d="M110.406,58.935c0.172,0,0.338-0.013,0.498-0.038s0.287-0.052,0.381-0.079v0.744
		c-0.105,0.051-0.262,0.093-0.467,0.126s-0.389,0.05-0.553,0.05c-1.243,0-1.864-0.654-1.864-1.963v-3.82h-0.92v-0.469l0.92-0.404
		l0.41-1.371h0.562v1.488h1.864v0.756h-1.864v3.779c0,0.387,0.092,0.684,0.276,0.891C109.834,58.831,110.086,58.935,110.406,58.935z
		"/>
	<path fill="#696A6A" d="M117.811,56.403c0,1.047-0.264,1.864-0.791,2.452s-1.256,0.882-2.186,0.882
		c-0.574,0-1.084-0.135-1.529-0.404s-0.789-0.656-1.031-1.16s-0.363-1.094-0.363-1.77c0-1.047,0.262-1.862,0.785-2.446
		s1.25-0.876,2.18-0.876c0.898,0,1.612,0.299,2.142,0.896S117.811,55.384,117.811,56.403z M112.918,56.403
		c0,0.82,0.164,1.445,0.492,1.875s0.811,0.645,1.447,0.645s1.12-0.214,1.45-0.642s0.495-1.054,0.495-1.878
		c0-0.816-0.165-1.437-0.495-1.86s-0.817-0.636-1.462-0.636c-0.637,0-1.117,0.209-1.441,0.627S112.918,55.575,112.918,56.403z"/>
	<path fill="#696A6A" d="M125.982,59.62l-0.193-0.914h-0.047c-0.32,0.402-0.64,0.675-0.958,0.817s-0.716,0.214-1.192,0.214
		c-0.637,0-1.136-0.164-1.497-0.492s-0.542-0.795-0.542-1.4c0-1.297,1.037-1.977,3.111-2.039l1.09-0.035v-0.398
		c0-0.504-0.108-0.876-0.325-1.116s-0.563-0.36-1.04-0.36c-0.535,0-1.141,0.164-1.816,0.492l-0.299-0.744
		c0.316-0.172,0.663-0.307,1.04-0.404s0.755-0.146,1.134-0.146c0.766,0,1.333,0.17,1.702,0.51s0.554,0.885,0.554,1.635v4.383
		H125.982z M123.785,58.935c0.605,0,1.081-0.166,1.427-0.498s0.519-0.797,0.519-1.395v-0.58l-0.973,0.041
		c-0.773,0.027-1.331,0.147-1.673,0.36s-0.513,0.544-0.513,0.993c0,0.352,0.106,0.619,0.319,0.803S123.402,58.935,123.785,58.935z"
		/>
	<path fill="#696A6A" d="M132.778,58.759h-0.053c-0.449,0.652-1.121,0.979-2.016,0.979c-0.84,0-1.493-0.287-1.96-0.861
		s-0.7-1.391-0.7-2.449s0.234-1.881,0.703-2.467s1.121-0.879,1.957-0.879c0.871,0,1.539,0.316,2.004,0.949h0.076l-0.041-0.463
		l-0.023-0.451v-2.613h0.973v9.117h-0.791L132.778,58.759z M130.833,58.923c0.664,0,1.146-0.181,1.444-0.542
		s0.448-0.944,0.448-1.749v-0.205c0-0.91-0.151-1.56-0.454-1.948s-0.786-0.583-1.45-0.583c-0.57,0-1.007,0.222-1.31,0.665
		s-0.454,1.069-0.454,1.878c0,0.82,0.15,1.439,0.451,1.857S130.251,58.923,130.833,58.923z"/>
	<path fill="#696A6A" d="M135.379,51.458c0-0.223,0.055-0.386,0.164-0.489s0.246-0.155,0.41-0.155c0.156,0,0.291,0.053,0.404,0.158
		s0.17,0.268,0.17,0.486s-0.057,0.382-0.17,0.489s-0.248,0.161-0.404,0.161c-0.164,0-0.301-0.054-0.41-0.161
		S135.379,51.677,135.379,51.458z M136.434,59.62h-0.973v-6.422h0.973V59.62z"/>
	<path fill="#696A6A" d="M140.762,59.737c-0.93,0-1.649-0.286-2.159-0.858s-0.765-1.382-0.765-2.429c0-1.074,0.259-1.904,0.776-2.49
		s1.255-0.879,2.212-0.879c0.309,0,0.617,0.033,0.926,0.1s0.551,0.145,0.727,0.234l-0.299,0.826
		c-0.215-0.086-0.449-0.157-0.703-0.214s-0.479-0.085-0.674-0.085c-1.305,0-1.957,0.832-1.957,2.496
		c0,0.789,0.159,1.395,0.478,1.816s0.79,0.633,1.415,0.633c0.535,0,1.084-0.115,1.646-0.346v0.861
		C141.955,59.626,141.414,59.737,140.762,59.737z"/>
	<path fill="#696A6A" d="M143.526,51.458c0-0.223,0.055-0.386,0.164-0.489s0.246-0.155,0.41-0.155c0.156,0,0.291,0.053,0.404,0.158
		s0.17,0.268,0.17,0.486s-0.057,0.382-0.17,0.489s-0.248,0.161-0.404,0.161c-0.164,0-0.301-0.054-0.41-0.161
		S143.526,51.677,143.526,51.458z M144.581,59.62h-0.973v-6.422h0.973V59.62z"/>
	<path fill="#696A6A" d="M151.887,56.403c0,1.047-0.264,1.864-0.791,2.452s-1.256,0.882-2.186,0.882
		c-0.574,0-1.084-0.135-1.529-0.404s-0.789-0.656-1.031-1.16s-0.363-1.094-0.363-1.77c0-1.047,0.262-1.862,0.785-2.446
		s1.25-0.876,2.18-0.876c0.898,0,1.612,0.299,2.142,0.896S151.887,55.384,151.887,56.403z M146.994,56.403
		c0,0.82,0.164,1.445,0.492,1.875s0.811,0.645,1.447,0.645s1.12-0.214,1.45-0.642s0.495-1.054,0.495-1.878
		c0-0.816-0.165-1.437-0.495-1.86s-0.817-0.636-1.462-0.636c-0.637,0-1.117,0.209-1.441,0.627S146.994,55.575,146.994,56.403z"/>
	<path fill="#696A6A" d="M157.687,59.62v-4.154c0-0.523-0.119-0.914-0.357-1.172s-0.611-0.387-1.119-0.387
		c-0.672,0-1.164,0.182-1.477,0.545s-0.469,0.963-0.469,1.799v3.369h-0.973v-6.422h0.791l0.158,0.879h0.047
		c0.199-0.316,0.479-0.562,0.838-0.735s0.76-0.261,1.201-0.261c0.773,0,1.355,0.187,1.746,0.56s0.586,0.97,0.586,1.79v4.189H157.687
		z"/>
	<path fill="#696A6A" d="M164.307,59.62l-0.193-0.914h-0.047c-0.32,0.402-0.64,0.675-0.958,0.817s-0.716,0.214-1.192,0.214
		c-0.637,0-1.136-0.164-1.497-0.492s-0.542-0.795-0.542-1.4c0-1.297,1.037-1.977,3.111-2.039l1.09-0.035v-0.398
		c0-0.504-0.108-0.876-0.325-1.116s-0.563-0.36-1.04-0.36c-0.535,0-1.141,0.164-1.816,0.492l-0.299-0.744
		c0.316-0.172,0.663-0.307,1.04-0.404s0.755-0.146,1.134-0.146c0.766,0,1.333,0.17,1.702,0.51s0.554,0.885,0.554,1.635v4.383
		H164.307z M162.109,58.935c0.605,0,1.081-0.166,1.427-0.498s0.519-0.797,0.519-1.395v-0.58l-0.973,0.041
		c-0.773,0.027-1.331,0.147-1.673,0.36s-0.513,0.544-0.513,0.993c0,0.352,0.106,0.619,0.319,0.803S161.727,58.935,162.109,58.935z"
		/>
	<path fill="#696A6A" d="M167.703,59.62h-0.973v-9.117h0.973V59.62z"/>
	<path fill="#696A6A" d="M175.271,59.737c-0.418,0-0.8-0.077-1.146-0.231s-0.636-0.392-0.87-0.712h-0.07
		c0.047,0.375,0.07,0.73,0.07,1.066v2.643h-0.973v-9.305h0.791l0.135,0.879h0.047c0.25-0.352,0.541-0.605,0.873-0.762
		s0.713-0.234,1.143-0.234c0.852,0,1.509,0.291,1.972,0.873s0.694,1.398,0.694,2.449c0,1.055-0.235,1.874-0.706,2.458
		S176.107,59.737,175.271,59.737z M175.131,53.907c-0.656,0-1.131,0.182-1.424,0.545s-0.443,0.941-0.451,1.734v0.217
		c0,0.902,0.15,1.548,0.451,1.937s0.783,0.583,1.447,0.583c0.555,0,0.989-0.225,1.304-0.674s0.472-1.068,0.472-1.857
		c0-0.801-0.157-1.415-0.472-1.843S175.701,53.907,175.131,53.907z"/>
	<path fill="#696A6A" d="M183.286,59.62l-0.193-0.914h-0.047c-0.32,0.402-0.64,0.675-0.958,0.817s-0.716,0.214-1.192,0.214
		c-0.637,0-1.136-0.164-1.497-0.492s-0.542-0.795-0.542-1.4c0-1.297,1.037-1.977,3.111-2.039l1.09-0.035v-0.398
		c0-0.504-0.108-0.876-0.325-1.116s-0.563-0.36-1.04-0.36c-0.535,0-1.141,0.164-1.816,0.492l-0.299-0.744
		c0.316-0.172,0.663-0.307,1.04-0.404s0.755-0.146,1.134-0.146c0.766,0,1.333,0.17,1.702,0.51s0.554,0.885,0.554,1.635v4.383
		H183.286z M181.089,58.935c0.605,0,1.081-0.166,1.427-0.498s0.519-0.797,0.519-1.395v-0.58l-0.973,0.041
		c-0.773,0.027-1.331,0.147-1.673,0.36s-0.513,0.544-0.513,0.993c0,0.352,0.106,0.619,0.319,0.803S180.706,58.935,181.089,58.935z"
		/>
	<path fill="#696A6A" d="M188.641,53.081c0.285,0,0.541,0.023,0.768,0.07l-0.135,0.902c-0.266-0.059-0.5-0.088-0.703-0.088
		c-0.52,0-0.964,0.211-1.333,0.633s-0.554,0.947-0.554,1.576v3.445h-0.973v-6.422h0.803l0.111,1.189h0.047
		c0.238-0.418,0.525-0.74,0.861-0.967S188.238,53.081,188.641,53.081z"/>
	<path fill="#696A6A" d="M194.258,59.62l-0.193-0.914h-0.047c-0.32,0.402-0.64,0.675-0.958,0.817s-0.716,0.214-1.192,0.214
		c-0.637,0-1.136-0.164-1.497-0.492s-0.542-0.795-0.542-1.4c0-1.297,1.037-1.977,3.111-2.039l1.09-0.035v-0.398
		c0-0.504-0.108-0.876-0.325-1.116s-0.563-0.36-1.04-0.36c-0.535,0-1.141,0.164-1.816,0.492l-0.299-0.744
		c0.316-0.172,0.663-0.307,1.04-0.404s0.755-0.146,1.134-0.146c0.766,0,1.333,0.17,1.702,0.51s0.554,0.885,0.554,1.635v4.383
		H194.258z M192.061,58.935c0.605,0,1.081-0.166,1.427-0.498s0.519-0.797,0.519-1.395v-0.58l-0.973,0.041
		c-0.773,0.027-1.331,0.147-1.673,0.36s-0.513,0.544-0.513,0.993c0,0.352,0.106,0.619,0.319,0.803S191.678,58.935,192.061,58.935z"
		/>
	<path fill="#696A6A" d="M67.98,73.248l-0.193-0.914H67.74c-0.32,0.402-0.64,0.675-0.958,0.817s-0.716,0.214-1.192,0.214
		c-0.637,0-1.136-0.164-1.497-0.492s-0.542-0.795-0.542-1.4c0-1.297,1.037-1.977,3.111-2.039l1.09-0.035V69
		c0-0.504-0.108-0.876-0.325-1.116s-0.563-0.36-1.04-0.36c-0.535,0-1.141,0.164-1.816,0.492l-0.299-0.744
		c0.316-0.172,0.663-0.307,1.04-0.404s0.755-0.146,1.134-0.146c0.766,0,1.333,0.17,1.702,0.51s0.554,0.885,0.554,1.635v4.383H67.98z
		 M65.783,72.562c0.605,0,1.081-0.166,1.427-0.498s0.519-0.797,0.519-1.395v-0.58l-0.973,0.041c-0.773,0.027-1.331,0.147-1.673,0.36
		s-0.513,0.544-0.513,0.993c0,0.352,0.106,0.619,0.319,0.803S65.4,72.562,65.783,72.562z"/>
	<path fill="#696A6A" d="M75.296,72.562c0.172,0,0.338-0.013,0.498-0.038s0.287-0.052,0.381-0.079v0.744
		c-0.105,0.051-0.261,0.093-0.466,0.126s-0.39,0.05-0.554,0.05c-1.242,0-1.863-0.654-1.863-1.963v-3.82h-0.92v-0.469l0.92-0.404
		l0.41-1.371h0.562v1.488h1.863v0.756h-1.863v3.779c0,0.387,0.092,0.684,0.275,0.891S74.976,72.562,75.296,72.562z"/>
	<path fill="#696A6A" d="M80.088,66.709c0.285,0,0.541,0.023,0.768,0.07l-0.135,0.902c-0.266-0.059-0.5-0.088-0.703-0.088
		c-0.52,0-0.964,0.211-1.333,0.633s-0.554,0.947-0.554,1.576v3.445h-0.973v-6.422h0.803l0.111,1.189h0.047
		c0.238-0.418,0.525-0.74,0.861-0.967S79.686,66.709,80.088,66.709z"/>
	<path fill="#696A6A" d="M87.3,70.031c0,1.047-0.264,1.864-0.791,2.452s-1.256,0.882-2.186,0.882c-0.574,0-1.084-0.135-1.529-0.404
		s-0.789-0.656-1.031-1.16s-0.363-1.094-0.363-1.77c0-1.047,0.262-1.862,0.785-2.446s1.25-0.876,2.18-0.876
		c0.898,0,1.612,0.299,2.142,0.896S87.3,69.012,87.3,70.031z M82.407,70.031c0,0.82,0.164,1.445,0.492,1.875
		s0.811,0.645,1.447,0.645s1.12-0.214,1.45-0.642s0.495-1.054,0.495-1.878c0-0.816-0.165-1.437-0.495-1.86s-0.817-0.636-1.462-0.636
		c-0.637,0-1.117,0.209-1.441,0.627S82.407,69.203,82.407,70.031z"/>
	<path fill="#696A6A" d="M91.271,73.365c-0.93,0-1.649-0.286-2.159-0.858s-0.765-1.382-0.765-2.429c0-1.074,0.259-1.904,0.776-2.49
		s1.255-0.879,2.212-0.879c0.309,0,0.617,0.033,0.926,0.1s0.551,0.145,0.727,0.234l-0.299,0.826
		c-0.215-0.086-0.449-0.157-0.703-0.214s-0.479-0.085-0.674-0.085c-1.305,0-1.957,0.832-1.957,2.496
		c0,0.789,0.159,1.395,0.478,1.816s0.79,0.633,1.415,0.633c0.535,0,1.084-0.115,1.646-0.346v0.861
		C92.465,73.254,91.924,73.365,91.271,73.365z"/>
	<path fill="#696A6A" d="M98.067,73.248l-0.193-0.914h-0.047c-0.32,0.402-0.64,0.675-0.958,0.817s-0.716,0.214-1.192,0.214
		c-0.637,0-1.136-0.164-1.497-0.492s-0.542-0.795-0.542-1.4c0-1.297,1.037-1.977,3.111-2.039l1.09-0.035V69
		c0-0.504-0.108-0.876-0.325-1.116s-0.563-0.36-1.04-0.36c-0.535,0-1.141,0.164-1.816,0.492l-0.299-0.744
		c0.316-0.172,0.663-0.307,1.04-0.404s0.755-0.146,1.134-0.146c0.766,0,1.333,0.17,1.702,0.51s0.554,0.885,0.554,1.635v4.383H98.067
		z M95.87,72.562c0.605,0,1.081-0.166,1.427-0.498s0.519-0.797,0.519-1.395v-0.58l-0.973,0.041c-0.773,0.027-1.331,0.147-1.673,0.36
		s-0.513,0.544-0.513,0.993c0,0.352,0.106,0.619,0.319,0.803S95.487,72.562,95.87,72.562z"/>
	<path fill="#696A6A" d="M107.68,72.387h-0.053c-0.449,0.652-1.121,0.979-2.016,0.979c-0.84,0-1.493-0.287-1.96-0.861
		s-0.7-1.391-0.7-2.449s0.234-1.881,0.703-2.467s1.121-0.879,1.957-0.879c0.871,0,1.539,0.316,2.004,0.949h0.076l-0.041-0.463
		l-0.023-0.451v-2.613h0.973v9.117h-0.791L107.68,72.387z M105.735,72.551c0.664,0,1.146-0.181,1.444-0.542s0.448-0.944,0.448-1.749
		v-0.205c0-0.91-0.151-1.56-0.454-1.948s-0.786-0.583-1.45-0.583c-0.57,0-1.007,0.222-1.31,0.665s-0.454,1.069-0.454,1.878
		c0,0.82,0.15,1.439,0.451,1.857S105.153,72.551,105.735,72.551z"/>
	<path fill="#696A6A" d="M113.075,73.365c-0.949,0-1.698-0.289-2.247-0.867s-0.823-1.381-0.823-2.408
		c0-1.035,0.255-1.857,0.765-2.467s1.194-0.914,2.054-0.914c0.805,0,1.441,0.265,1.91,0.794s0.703,1.228,0.703,2.095v0.615h-4.424
		c0.02,0.754,0.21,1.326,0.571,1.717s0.87,0.586,1.526,0.586c0.691,0,1.375-0.145,2.051-0.434v0.867
		c-0.344,0.148-0.669,0.255-0.976,0.319S113.509,73.365,113.075,73.365z M112.812,67.523c-0.516,0-0.927,0.168-1.233,0.504
		s-0.487,0.801-0.542,1.395h3.357c0-0.613-0.137-1.083-0.41-1.409S113.319,67.523,112.812,67.523z"/>
	<path fill="#696A6A" d="M122.601,73.365c-0.418,0-0.8-0.077-1.146-0.231s-0.636-0.392-0.87-0.712h-0.07
		c0.047,0.375,0.07,0.73,0.07,1.066v2.643h-0.973v-9.305h0.791l0.135,0.879h0.047c0.25-0.352,0.541-0.605,0.873-0.762
		s0.713-0.234,1.143-0.234c0.852,0,1.509,0.291,1.972,0.873s0.694,1.398,0.694,2.449c0,1.055-0.235,1.874-0.706,2.458
		S123.437,73.365,122.601,73.365z M122.46,67.535c-0.656,0-1.131,0.182-1.424,0.545s-0.443,0.941-0.451,1.734v0.217
		c0,0.902,0.15,1.548,0.451,1.937s0.783,0.583,1.447,0.583c0.555,0,0.989-0.225,1.304-0.674s0.472-1.068,0.472-1.857
		c0-0.801-0.157-1.415-0.472-1.843S123.03,67.535,122.46,67.535z"/>
	<path fill="#696A6A" d="M129.596,66.709c0.285,0,0.541,0.023,0.768,0.07l-0.135,0.902c-0.266-0.059-0.5-0.088-0.703-0.088
		c-0.52,0-0.964,0.211-1.333,0.633s-0.554,0.947-0.554,1.576v3.445h-0.973v-6.422h0.803l0.111,1.189h0.047
		c0.238-0.418,0.525-0.74,0.861-0.967S129.193,66.709,129.596,66.709z"/>
	<path fill="#696A6A" d="M136.807,70.031c0,1.047-0.264,1.864-0.791,2.452s-1.256,0.882-2.186,0.882
		c-0.574,0-1.084-0.135-1.529-0.404s-0.789-0.656-1.031-1.16s-0.363-1.094-0.363-1.77c0-1.047,0.262-1.862,0.785-2.446
		s1.25-0.876,2.18-0.876c0.898,0,1.612,0.299,2.142,0.896S136.807,69.012,136.807,70.031z M131.914,70.031
		c0,0.82,0.164,1.445,0.492,1.875s0.811,0.645,1.447,0.645s1.12-0.214,1.45-0.642s0.495-1.054,0.495-1.878
		c0-0.816-0.165-1.437-0.495-1.86s-0.817-0.636-1.462-0.636c-0.637,0-1.117,0.209-1.441,0.627S131.914,69.203,131.914,70.031z"/>
	<path fill="#696A6A" d="M142.583,72.387h-0.053c-0.449,0.652-1.121,0.979-2.016,0.979c-0.84,0-1.493-0.287-1.96-0.861
		s-0.7-1.391-0.7-2.449s0.234-1.881,0.703-2.467s1.121-0.879,1.957-0.879c0.871,0,1.539,0.316,2.004,0.949h0.076l-0.041-0.463
		l-0.023-0.451v-2.613h0.973v9.117h-0.791L142.583,72.387z M140.638,72.551c0.664,0,1.146-0.181,1.444-0.542
		s0.448-0.944,0.448-1.749v-0.205c0-0.91-0.151-1.56-0.454-1.948s-0.786-0.583-1.45-0.583c-0.57,0-1.007,0.222-1.31,0.665
		s-0.454,1.069-0.454,1.878c0,0.82,0.15,1.439,0.451,1.857S140.056,72.551,140.638,72.551z"/>
	<path fill="#696A6A" d="M146.18,66.826v4.166c0,0.523,0.119,0.914,0.357,1.172s0.611,0.387,1.119,0.387
		c0.672,0,1.163-0.184,1.474-0.551s0.466-0.967,0.466-1.799v-3.375h0.973v6.422h-0.803l-0.141-0.861h-0.053
		c-0.199,0.316-0.476,0.559-0.829,0.727s-0.757,0.252-1.21,0.252c-0.781,0-1.366-0.186-1.755-0.557s-0.583-0.965-0.583-1.781v-4.201
		H146.18z"/>
	<path fill="#696A6A" d="M154.405,72.562c0.172,0,0.338-0.013,0.498-0.038s0.287-0.052,0.381-0.079v0.744
		c-0.105,0.051-0.261,0.093-0.466,0.126s-0.39,0.05-0.554,0.05c-1.242,0-1.863-0.654-1.863-1.963v-3.82h-0.92v-0.469l0.92-0.404
		l0.41-1.371h0.562v1.488h1.863v0.756h-1.863v3.779c0,0.387,0.092,0.684,0.275,0.891S154.085,72.562,154.405,72.562z"/>
	<path fill="#696A6A" d="M161.811,70.031c0,1.047-0.264,1.864-0.791,2.452s-1.256,0.882-2.186,0.882
		c-0.574,0-1.084-0.135-1.529-0.404s-0.789-0.656-1.031-1.16s-0.363-1.094-0.363-1.77c0-1.047,0.262-1.862,0.785-2.446
		s1.25-0.876,2.18-0.876c0.898,0,1.612,0.299,2.142,0.896S161.811,69.012,161.811,70.031z M156.918,70.031
		c0,0.82,0.164,1.445,0.492,1.875s0.811,0.645,1.447,0.645s1.12-0.214,1.45-0.642s0.495-1.054,0.495-1.878
		c0-0.816-0.165-1.437-0.495-1.86s-0.817-0.636-1.462-0.636c-0.637,0-1.117,0.209-1.441,0.627S156.918,69.203,156.918,70.031z"/>
	<path fill="#696A6A" d="M167.357,71.496c0,0.598-0.223,1.059-0.668,1.383s-1.07,0.486-1.875,0.486
		c-0.852,0-1.516-0.135-1.992-0.404v-0.902c0.309,0.156,0.64,0.279,0.993,0.369s0.694,0.135,1.022,0.135
		c0.508,0,0.898-0.081,1.172-0.243s0.41-0.409,0.41-0.741c0-0.25-0.108-0.464-0.325-0.642s-0.64-0.388-1.269-0.63
		c-0.598-0.223-1.022-0.417-1.274-0.583s-0.439-0.354-0.562-0.565s-0.185-0.463-0.185-0.756c0-0.523,0.213-0.937,0.639-1.239
		s1.01-0.454,1.752-0.454c0.691,0,1.367,0.141,2.027,0.422l-0.346,0.791c-0.645-0.266-1.229-0.398-1.752-0.398
		c-0.461,0-0.809,0.072-1.043,0.217s-0.352,0.344-0.352,0.598c0,0.172,0.044,0.318,0.132,0.439s0.229,0.236,0.425,0.346
		s0.57,0.268,1.125,0.475c0.762,0.277,1.276,0.557,1.544,0.838S167.357,71.07,167.357,71.496z"/>
	<path fill="#696A6A" d="M175.852,73.248v-4.154c0-0.523-0.119-0.914-0.357-1.172s-0.611-0.387-1.119-0.387
		c-0.672,0-1.164,0.182-1.477,0.545s-0.469,0.963-0.469,1.799v3.369h-0.973v-6.422h0.791l0.158,0.879h0.047
		c0.199-0.316,0.479-0.562,0.838-0.735s0.76-0.261,1.201-0.261c0.773,0,1.355,0.187,1.746,0.56s0.586,0.97,0.586,1.79v4.189H175.852
		z"/>
	<path fill="#696A6A" d="M182.472,73.248l-0.193-0.914h-0.047c-0.32,0.402-0.64,0.675-0.958,0.817s-0.716,0.214-1.192,0.214
		c-0.637,0-1.136-0.164-1.497-0.492s-0.542-0.795-0.542-1.4c0-1.297,1.037-1.977,3.111-2.039l1.09-0.035V69
		c0-0.504-0.108-0.876-0.325-1.116s-0.563-0.36-1.04-0.36c-0.535,0-1.141,0.164-1.816,0.492l-0.299-0.744
		c0.316-0.172,0.663-0.307,1.04-0.404s0.755-0.146,1.134-0.146c0.766,0,1.333,0.17,1.702,0.51s0.554,0.885,0.554,1.635v4.383
		H182.472z M180.274,72.562c0.605,0,1.081-0.166,1.427-0.498s0.519-0.797,0.519-1.395v-0.58l-0.973,0.041
		c-0.773,0.027-1.331,0.147-1.673,0.36s-0.513,0.544-0.513,0.993c0,0.352,0.106,0.619,0.319,0.803S179.892,72.562,180.274,72.562z"
		/>
	<path fill="#696A6A" d="M64.178,86.876V78.31h0.996v7.664h3.779v0.902H64.178z"/>
	<path fill="#696A6A" d="M75.503,83.659c0,1.047-0.264,1.864-0.791,2.452s-1.256,0.882-2.186,0.882
		c-0.574,0-1.084-0.135-1.529-0.404s-0.789-0.656-1.031-1.16s-0.363-1.094-0.363-1.77c0-1.047,0.262-1.862,0.785-2.446
		s1.25-0.876,2.18-0.876c0.898,0,1.612,0.299,2.142,0.896S75.503,82.64,75.503,83.659z M70.61,83.659
		c0,0.82,0.164,1.445,0.492,1.875s0.811,0.645,1.447,0.645s1.12-0.214,1.45-0.642s0.495-1.054,0.495-1.878
		c0-0.816-0.165-1.437-0.495-1.86s-0.817-0.636-1.462-0.636c-0.637,0-1.117,0.209-1.441,0.627S70.61,82.831,70.61,83.659z"/>
	<path fill="#696A6A" d="M76.128,89.759c-0.371,0-0.672-0.049-0.902-0.146v-0.791c0.27,0.078,0.535,0.117,0.797,0.117
		c0.305,0,0.528-0.083,0.671-0.249s0.214-0.419,0.214-0.759v-7.477h0.973v7.406C77.88,89.126,77.296,89.759,76.128,89.759z
		 M76.826,78.714c0-0.223,0.055-0.386,0.164-0.489s0.246-0.155,0.41-0.155c0.156,0,0.291,0.053,0.404,0.158s0.17,0.268,0.17,0.486
		s-0.057,0.382-0.17,0.489s-0.248,0.161-0.404,0.161c-0.164,0-0.301-0.054-0.41-0.161S76.826,78.933,76.826,78.714z"/>
	<path fill="#696A6A" d="M83.592,86.876l-0.193-0.914h-0.047c-0.32,0.402-0.64,0.675-0.958,0.817s-0.716,0.214-1.192,0.214
		c-0.637,0-1.136-0.164-1.497-0.492s-0.542-0.795-0.542-1.4c0-1.297,1.037-1.977,3.111-2.039l1.09-0.035v-0.398
		c0-0.504-0.108-0.876-0.325-1.116s-0.563-0.36-1.04-0.36c-0.535,0-1.141,0.164-1.816,0.492l-0.299-0.744
		c0.316-0.172,0.663-0.307,1.04-0.404s0.755-0.146,1.134-0.146c0.766,0,1.333,0.17,1.702,0.51s0.554,0.885,0.554,1.635v4.383H83.592
		z M81.395,86.19c0.605,0,1.081-0.166,1.427-0.498s0.519-0.797,0.519-1.395v-0.58l-0.973,0.041c-0.773,0.027-1.331,0.147-1.673,0.36
		s-0.513,0.544-0.513,0.993c0,0.352,0.106,0.619,0.319,0.803S81.012,86.19,81.395,86.19z"/>
	<path fill="#696A6A" d="M93.205,86.015h-0.053c-0.449,0.652-1.121,0.979-2.016,0.979c-0.84,0-1.493-0.287-1.96-0.861
		s-0.7-1.391-0.7-2.449s0.234-1.881,0.703-2.467s1.121-0.879,1.957-0.879c0.871,0,1.539,0.316,2.004,0.949h0.076l-0.041-0.463
		l-0.023-0.451v-2.613h0.973v9.117h-0.791L93.205,86.015z M91.26,86.179c0.664,0,1.146-0.181,1.444-0.542s0.448-0.944,0.448-1.749
		v-0.205c0-0.91-0.151-1.56-0.454-1.948s-0.786-0.583-1.45-0.583c-0.57,0-1.007,0.222-1.31,0.665s-0.454,1.069-0.454,1.878
		c0,0.82,0.15,1.439,0.451,1.857S90.678,86.179,91.26,86.179z"/>
	<path fill="#696A6A" d="M101.431,83.659c0,1.047-0.264,1.864-0.791,2.452s-1.256,0.882-2.186,0.882
		c-0.574,0-1.084-0.135-1.529-0.404s-0.789-0.656-1.031-1.16s-0.363-1.094-0.363-1.77c0-1.047,0.262-1.862,0.785-2.446
		s1.25-0.876,2.18-0.876c0.898,0,1.612,0.299,2.142,0.896S101.431,82.64,101.431,83.659z M96.538,83.659
		c0,0.82,0.164,1.445,0.492,1.875s0.811,0.645,1.447,0.645s1.12-0.214,1.45-0.642s0.495-1.054,0.495-1.878
		c0-0.816-0.165-1.437-0.495-1.86s-0.817-0.636-1.462-0.636c-0.637,0-1.117,0.209-1.441,0.627S96.538,82.831,96.538,83.659z"/>
	<path fill="#696A6A" d="M111.23,80.806c0,0.867-0.295,1.534-0.887,2.001s-1.439,0.7-2.541,0.7h-1.008v3.369h-0.996V78.31h2.221
		C110.16,78.31,111.23,79.142,111.23,80.806z M106.795,82.651h0.896c0.883,0,1.521-0.143,1.916-0.428
		c0.395-0.285,0.592-0.742,0.592-1.371c0-0.566-0.186-0.988-0.557-1.266c-0.371-0.277-0.949-0.416-1.734-0.416h-1.113V82.651z"/>
	<path fill="#696A6A" d="M115.507,80.337c0.285,0,0.541,0.023,0.768,0.07l-0.135,0.902c-0.266-0.059-0.5-0.088-0.703-0.088
		c-0.52,0-0.964,0.211-1.333,0.633s-0.554,0.947-0.554,1.576v3.445h-0.973v-6.422h0.803l0.111,1.189h0.047
		c0.238-0.418,0.525-0.74,0.861-0.967S115.104,80.337,115.507,80.337z"/>
	<path fill="#696A6A" d="M121.125,86.876l-0.193-0.914h-0.047c-0.32,0.402-0.64,0.675-0.958,0.817s-0.716,0.214-1.192,0.214
		c-0.637,0-1.136-0.164-1.497-0.492s-0.542-0.795-0.542-1.4c0-1.297,1.037-1.977,3.111-2.039l1.09-0.035v-0.398
		c0-0.504-0.108-0.876-0.325-1.116s-0.563-0.36-1.04-0.36c-0.535,0-1.141,0.164-1.816,0.492l-0.299-0.744
		c0.316-0.172,0.663-0.307,1.04-0.404s0.755-0.146,1.134-0.146c0.766,0,1.333,0.17,1.702,0.51s0.554,0.885,0.554,1.635v4.383
		H121.125z M118.928,86.19c0.605,0,1.081-0.166,1.427-0.498s0.519-0.797,0.519-1.395v-0.58l-0.973,0.041
		c-0.773,0.027-1.331,0.147-1.673,0.36s-0.513,0.544-0.513,0.993c0,0.352,0.106,0.619,0.319,0.803S118.545,86.19,118.928,86.19z"/>
	<path fill="#696A6A" d="M127.657,86.876h-4.658v-0.662l3.504-5.004h-3.287v-0.756h4.354v0.756l-3.457,4.91h3.545V86.876z"/>
	<path fill="#696A6A" d="M131.576,86.993c-0.949,0-1.698-0.289-2.247-0.867s-0.823-1.381-0.823-2.408
		c0-1.035,0.255-1.857,0.765-2.467s1.194-0.914,2.054-0.914c0.805,0,1.441,0.265,1.91,0.794s0.703,1.228,0.703,2.095v0.615h-4.424
		c0.02,0.754,0.21,1.326,0.571,1.717s0.87,0.586,1.526,0.586c0.691,0,1.375-0.145,2.051-0.434v0.867
		c-0.344,0.148-0.669,0.255-0.976,0.319S132.01,86.993,131.576,86.993z M131.312,81.151c-0.516,0-0.927,0.168-1.233,0.504
		s-0.487,0.801-0.542,1.395h3.357c0-0.613-0.137-1.083-0.41-1.409S131.82,81.151,131.312,81.151z"/>
	<path fill="#696A6A" d="M138.225,80.337c0.285,0,0.541,0.023,0.768,0.07l-0.135,0.902c-0.266-0.059-0.5-0.088-0.703-0.088
		c-0.52,0-0.964,0.211-1.333,0.633s-0.554,0.947-0.554,1.576v3.445h-0.973v-6.422h0.803l0.111,1.189h0.047
		c0.238-0.418,0.525-0.74,0.861-0.967S137.822,80.337,138.225,80.337z"/>
	<path fill="#696A6A" d="M139.753,86.255c0-0.262,0.06-0.46,0.179-0.595s0.29-0.202,0.513-0.202c0.227,0,0.403,0.067,0.53,0.202
		s0.19,0.333,0.19,0.595c0,0.254-0.064,0.449-0.193,0.586s-0.305,0.205-0.527,0.205c-0.199,0-0.364-0.062-0.495-0.185
		S139.753,86.536,139.753,86.255z"/>
</g>
<g>
	<path fill="#696A6A" d="M70.512,106.221c0,0.754-0.273,1.342-0.82,1.764s-1.289,0.633-2.227,0.633
		c-1.016,0-1.797-0.131-2.344-0.393v-0.961c0.352,0.148,0.734,0.266,1.148,0.352s0.824,0.129,1.23,0.129
		c0.664,0,1.164-0.126,1.5-0.378s0.504-0.603,0.504-1.052c0-0.297-0.06-0.54-0.179-0.729s-0.318-0.364-0.598-0.524
		s-0.704-0.342-1.274-0.545c-0.797-0.285-1.366-0.623-1.708-1.014s-0.513-0.9-0.513-1.529c0-0.66,0.248-1.186,0.744-1.576
		s1.152-0.586,1.969-0.586c0.852,0,1.635,0.156,2.35,0.469l-0.311,0.867c-0.707-0.297-1.395-0.445-2.062-0.445
		c-0.527,0-0.939,0.113-1.236,0.34s-0.445,0.541-0.445,0.943c0,0.297,0.055,0.54,0.164,0.729s0.294,0.363,0.554,0.521
		s0.657,0.333,1.192,0.524c0.898,0.32,1.517,0.664,1.854,1.031S70.512,105.635,70.512,106.221z"/>
	<path fill="#696A6A" d="M75.767,108.5l-0.193-0.914h-0.047c-0.32,0.402-0.64,0.675-0.958,0.817s-0.716,0.214-1.192,0.214
		c-0.637,0-1.136-0.164-1.497-0.492s-0.542-0.795-0.542-1.4c0-1.297,1.037-1.977,3.111-2.039l1.09-0.035v-0.398
		c0-0.504-0.108-0.876-0.325-1.116s-0.563-0.36-1.04-0.36c-0.535,0-1.141,0.164-1.816,0.492l-0.299-0.744
		c0.316-0.172,0.663-0.307,1.04-0.404s0.755-0.146,1.134-0.146c0.766,0,1.333,0.17,1.702,0.51s0.554,0.885,0.554,1.635v4.383H75.767
		z M73.569,107.814c0.605,0,1.081-0.166,1.427-0.498s0.519-0.797,0.519-1.395v-0.58l-0.973,0.041
		c-0.773,0.027-1.331,0.147-1.673,0.36s-0.513,0.544-0.513,0.993c0,0.352,0.106,0.619,0.319,0.803S73.187,107.814,73.569,107.814z"
		/>
	<path fill="#696A6A" d="M78.109,100.338c0-0.223,0.055-0.386,0.164-0.489s0.246-0.155,0.41-0.155c0.156,0,0.291,0.053,0.404,0.158
		s0.17,0.268,0.17,0.486s-0.057,0.382-0.17,0.489s-0.248,0.161-0.404,0.161c-0.164,0-0.301-0.054-0.41-0.161
		S78.109,100.557,78.109,100.338z M79.164,108.5h-0.973v-6.422h0.973V108.5z"/>
	<path fill="#696A6A" d="M83.915,101.973c0.844,0,1.499,0.288,1.966,0.864s0.7,1.392,0.7,2.446s-0.235,1.874-0.706,2.458
		s-1.124,0.876-1.96,0.876c-0.418,0-0.8-0.077-1.146-0.231s-0.636-0.392-0.87-0.712h-0.07l-0.205,0.826h-0.697v-9.117h0.973v2.215
		c0,0.496-0.016,0.941-0.047,1.336h0.047C82.352,102.293,83.024,101.973,83.915,101.973z M83.774,102.787
		c-0.664,0-1.143,0.19-1.436,0.571s-0.439,1.022-0.439,1.925s0.15,1.548,0.451,1.937s0.783,0.583,1.447,0.583
		c0.598,0,1.043-0.218,1.336-0.653s0.439-1.062,0.439-1.878c0-0.836-0.146-1.459-0.439-1.869S84.387,102.787,83.774,102.787z"/>
	<path fill="#696A6A" d="M91.929,108.5l-0.193-0.914h-0.047c-0.32,0.402-0.64,0.675-0.958,0.817s-0.716,0.214-1.192,0.214
		c-0.637,0-1.136-0.164-1.497-0.492s-0.542-0.795-0.542-1.4c0-1.297,1.037-1.977,3.111-2.039l1.09-0.035v-0.398
		c0-0.504-0.108-0.876-0.325-1.116s-0.563-0.36-1.04-0.36c-0.535,0-1.141,0.164-1.816,0.492l-0.299-0.744
		c0.316-0.172,0.663-0.307,1.04-0.404s0.755-0.146,1.134-0.146c0.766,0,1.333,0.17,1.702,0.51s0.554,0.885,0.554,1.635v4.383H91.929
		z M89.731,107.814c0.605,0,1.081-0.166,1.427-0.498s0.519-0.797,0.519-1.395v-0.58l-0.973,0.041
		c-0.773,0.027-1.331,0.147-1.673,0.36s-0.513,0.544-0.513,0.993c0,0.352,0.106,0.619,0.319,0.803S89.349,107.814,89.731,107.814z"
		/>
	<path fill="#696A6A" d="M105.356,108.5v-4.178c0-0.512-0.109-0.896-0.328-1.151s-0.559-0.384-1.02-0.384
		c-0.605,0-1.053,0.174-1.342,0.521s-0.434,0.883-0.434,1.605v3.586h-0.973v-4.178c0-0.512-0.109-0.896-0.328-1.151
		s-0.561-0.384-1.025-0.384c-0.609,0-1.056,0.183-1.339,0.548s-0.425,0.964-0.425,1.796v3.369h-0.973v-6.422h0.791l0.158,0.879
		h0.047c0.184-0.312,0.442-0.557,0.776-0.732s0.708-0.264,1.122-0.264c1.004,0,1.66,0.363,1.969,1.09h0.047
		c0.191-0.336,0.469-0.602,0.832-0.797s0.777-0.293,1.242-0.293c0.727,0,1.271,0.187,1.632,0.56s0.542,0.97,0.542,1.79v4.189
		H105.356z"/>
	<path fill="#696A6A" d="M111.982,108.5l-0.193-0.914h-0.047c-0.32,0.402-0.64,0.675-0.958,0.817s-0.716,0.214-1.192,0.214
		c-0.637,0-1.136-0.164-1.497-0.492s-0.542-0.795-0.542-1.4c0-1.297,1.037-1.977,3.111-2.039l1.09-0.035v-0.398
		c0-0.504-0.108-0.876-0.325-1.116s-0.563-0.36-1.04-0.36c-0.535,0-1.141,0.164-1.816,0.492l-0.299-0.744
		c0.316-0.172,0.663-0.307,1.04-0.404s0.755-0.146,1.134-0.146c0.766,0,1.333,0.17,1.702,0.51s0.554,0.885,0.554,1.635v4.383
		H111.982z M109.785,107.814c0.605,0,1.081-0.166,1.427-0.498s0.519-0.797,0.519-1.395v-0.58l-0.973,0.041
		c-0.773,0.027-1.331,0.147-1.673,0.36s-0.513,0.544-0.513,0.993c0,0.352,0.106,0.619,0.319,0.803S109.402,107.814,109.785,107.814z
		"/>
	<path fill="#696A6A" d="M114.325,100.338c0-0.223,0.055-0.386,0.164-0.489s0.246-0.155,0.41-0.155c0.156,0,0.291,0.053,0.404,0.158
		s0.17,0.268,0.17,0.486s-0.057,0.382-0.17,0.489s-0.248,0.161-0.404,0.161c-0.164,0-0.301-0.054-0.41-0.161
		S114.325,100.557,114.325,100.338z M115.379,108.5h-0.973v-6.422h0.973V108.5z"/>
	<path fill="#696A6A" d="M121.284,106.748c0,0.598-0.223,1.059-0.668,1.383s-1.07,0.486-1.875,0.486
		c-0.852,0-1.516-0.135-1.992-0.404v-0.902c0.309,0.156,0.64,0.279,0.993,0.369s0.694,0.135,1.022,0.135
		c0.508,0,0.898-0.081,1.172-0.243s0.41-0.409,0.41-0.741c0-0.25-0.108-0.464-0.325-0.642s-0.64-0.388-1.269-0.63
		c-0.598-0.223-1.022-0.417-1.274-0.583s-0.439-0.354-0.562-0.565s-0.185-0.463-0.185-0.756c0-0.523,0.213-0.937,0.639-1.239
		s1.01-0.454,1.752-0.454c0.691,0,1.367,0.141,2.027,0.422l-0.346,0.791c-0.645-0.266-1.229-0.398-1.752-0.398
		c-0.461,0-0.809,0.072-1.043,0.217s-0.352,0.344-0.352,0.598c0,0.172,0.044,0.318,0.132,0.439s0.229,0.236,0.425,0.346
		s0.57,0.268,1.125,0.475c0.762,0.277,1.276,0.557,1.544,0.838S121.284,106.322,121.284,106.748z"/>
	<path fill="#696A6A" d="M64.5,109.701v-0.598h57.035v0.598H64.5z"/>
</g>
<g>
	<path fill="#818386" d="M31.54,20.133l-9.435,5.728v11.204l11.456,7.076l9.437-5.812V26.956L31.54,20.133z M31.54,21.985
		l9.183,5.392l-2.113,1.169l-8.857-5.434L31.54,21.985z M32.721,41.024l-8.93-5.308V27.63l8.93,5.307V41.024z M24.717,26.282
		l2.223-1.399l8.46,5.438l-1.838,1.016L24.717,26.282z M41.312,36.896l-6.739,3.959v-8.001l1.602-0.9v3.511l3.621-2.021v-3.527
		l1.517-0.854V36.896z"/>
	<path fill="#818386" d="M32.257,9.771c-6.11,0-11.642,2.463-15.666,6.447l-3.751-3.752l-2.106,13.816l13.226-2.695l-3.795-3.795
		c3.109-3.07,7.378-4.966,12.093-4.966c9.515,0,17.228,7.714,17.228,17.228c0,9.514-7.713,17.227-17.228,17.227
		c-9.448,0-17.117-7.608-17.222-17.033L10,33.019c0.507,11.857,10.275,21.315,22.257,21.315c12.306,0,22.281-9.976,22.281-22.281
		C54.538,19.747,44.562,9.771,32.257,9.771"/>
</g>
</svg>
