<?xml version="1.0" encoding="utf-8"?>
<!-- Generator: Adobe Illustrator 15.0.0, SVG Export Plug-In . SVG Version: 6.00 Build 0)  -->
<!DOCTYPE svg PUBLIC "-//W3C//DTD SVG 1.1//EN" "http://www.w3.org/Graphics/SVG/1.1/DTD/svg11.dtd">
<svg version="1.1" id="Layer_1" xmlns="http://www.w3.org/2000/svg" xmlns:xlink="http://www.w3.org/1999/xlink" x="0px" y="0px"
	 width="230px" height="115px" viewBox="0 0 230 115" enable-background="new 0 0 230 115" xml:space="preserve">
<g>
	<g>
		<path fill="#696A6A" d="M68.185,25.956v1.455h-2.826v3.963h2.525v1.455h-2.525v4.281h2.826v1.455h-4.499V25.956H68.185z"/>
		<path fill="#696A6A" d="M70.913,29.702l0.25,4.231v4.632h-1.672V25.956h1.605l2.943,9.583l0.034-0.034l-0.401-5.05v-4.499h1.672
			v12.609h-1.556l-2.943-9.716l-0.033,0.033L70.913,29.702z"/>
		<path fill="#696A6A" d="M81.836,25.956v1.455h-1.89v11.155h-1.672V27.411h-1.974v-1.455H81.836z"/>
		<path fill="#696A6A" d="M82.792,25.956h2.007c1.221,0,3.127,0.066,3.127,3.228c0,1.188-0.351,2.993-1.739,3.244l2.325,6.138
			h-1.739l-2.274-6.171h-0.034v6.171h-1.672V25.956z M86.153,29.551c0-1.204-0.151-2.208-1.422-2.174h-0.268v4.164
			C85.718,31.625,86.153,30.822,86.153,29.551z"/>
		<path fill="#696A6A" d="M94.25,25.956v1.455h-2.826v3.963h2.525v1.455h-2.525v4.281h2.826v1.455h-4.499V25.956H94.25z"/>
		<path fill="#696A6A" d="M101.594,31.909v0.201c0,2.408,0.352,6.622-3.01,6.622c-2.994,0-3.345-2.876-3.345-6.438
			c0-3.528,0.284-6.505,3.194-6.505c1.79,0,2.643,0.903,3.077,2.576l-1.588,0.652c-0.167-0.836-0.401-1.656-1.438-1.656
			c-1.371,0-1.472,1.873-1.472,4.917c0,4.382,0.736,4.883,1.472,4.883c0.686,0,1.438-0.1,1.438-3.111v-0.686h-1.405v-1.455H101.594z
			"/>
		<path fill="#696A6A" d="M106.363,25.956l2.709,12.609h-1.689l-0.468-2.458h-2.509l-0.468,2.458h-1.639l2.743-12.609H106.363z
			 M106.33,32.979l-0.635-4.582h-0.034l-1.003,6.405h2.007L106.33,32.979z"/>
		<path fill="#696A6A" d="M118.106,25.956v1.455h-2.826v3.963h2.525v1.455h-2.525v4.281h2.826v1.455h-4.499V25.956H118.106z"/>
		<path fill="#696A6A" d="M121.27,25.956l1.79,9.098h0.033l0.05-0.519l0.502-3.027l1.087-5.552h1.472l1.171,12.609h-1.639
			l-0.301-4.699l-0.101-2.341l-0.033-1.656h-0.034l-0.284,1.806l-1.305,6.89h-1.153l-1.622-8.696h-0.033l-0.485,8.696h-1.589
			l1.037-12.609H121.27z"/>
		<path fill="#696A6A" d="M135.339,25.956l2.709,12.609h-1.688l-0.469-2.458h-2.509l-0.468,2.458h-1.639l2.742-12.609H135.339z
			 M135.306,32.979l-0.636-4.582h-0.033l-1.004,6.405h2.007L135.306,32.979z"/>
		<path fill="#696A6A" d="M142.984,25.956v1.455h-1.89v11.155h-1.673V27.411h-1.973v-1.455H142.984z"/>
		<path fill="#696A6A" d="M148.438,25.956v1.455h-2.826v3.963h2.525v1.455h-2.525v4.281h2.826v1.455h-4.498V25.956H148.438z
			 M146.181,25.404l-0.836-0.485l1.371-2.492l1.121,0.719L146.181,25.404z"/>
	</g>
</g>
<g>
	<g>
		<path fill="#696A6A" d="M173.711,25.956v4.933h2.525v-4.933h2.492v12.609h-2.492V33.23h-2.525v5.335h-2.492V25.956H173.711z"/>
		<path fill="#696A6A" d="M188.916,32.261c0,4.732-2.207,6.505-4.432,6.505c-2.224,0-4.432-1.773-4.432-6.505
			c0-4.733,2.208-6.506,4.432-6.506C186.709,25.755,188.916,27.528,188.916,32.261z M184.484,36.458
			c1.656,0,1.773-3.194,1.773-4.197c0-1.121-0.117-4.198-1.773-4.198c-1.655,0-1.772,3.077-1.772,4.198
			C182.712,33.264,182.829,36.458,184.484,36.458z"/>
		<path fill="#696A6A" d="M190.241,38.565V25.956h2.509c1.589,0,4.432,0.167,4.432,3.612c0,1.388-0.552,2.575-1.789,3.261
			l2.19,5.736h-2.626l-2.19-5.82h-0.033v5.82H190.241z M192.733,31.374l0.435,0.017c1.137,0,1.589-0.77,1.589-1.806
			c0-0.903-0.435-1.639-1.689-1.572h-0.334V31.374z"/>
		<path fill="#696A6A" d="M203.908,25.956l3.027,12.609h-2.659l-0.469-2.124h-2.524l-0.452,2.124h-2.476l2.928-12.609H203.908z
			 M202.805,31.106L202.52,29.2h-0.033l-0.268,1.906l-0.535,3.362h1.756L202.805,31.106z"/>
		<path fill="#696A6A" d="M213.127,28.799c-0.502-0.435-1.121-0.803-1.807-0.803c-0.77,0-1.254,0.468-1.254,1.237
			c0,2.074,3.797,2.191,3.797,5.603c0,2.241-1.288,3.93-3.63,3.93c-0.702,0-1.571-0.217-2.141-0.635v-2.375
			c0.585,0.401,1.154,0.669,1.89,0.669c0.803,0,1.438-0.535,1.438-1.371c0-0.97-0.769-1.338-1.472-1.84
			c-1.438-0.97-2.324-1.906-2.324-3.746c0-1.99,1.154-3.713,3.295-3.713c0.803,0,1.521,0.218,2.207,0.619V28.799z"/>
	</g>
</g>
<g>
	<g>
		<path fill="#696A6A" d="M164.416,19.829v11.44h1.523v2.848h-1.523v4.546h-3.621v-4.546h-5.471v-2.798l4.996-11.49H164.416z
			 M160.795,24.125h-0.051l-2.797,7.144h2.848V24.125z"/>
	</g>
</g>
<g>
	<path fill="#696A6A" d="M66.85,50.503l-0.252,2.314l2.332-0.65l0.152,1.066l-2.232,0.182l1.453,1.91l-1.008,0.551l-1.031-2.121
		l-0.938,2.121l-1.031-0.551l1.418-1.91l-2.209-0.182l0.17-1.066l2.291,0.65l-0.252-2.314H66.85z"/>
	<path fill="#696A6A" d="M75.884,59.62l-1.066-2.725h-3.434l-1.055,2.725h-1.008l3.387-8.602h0.838l3.369,8.602H75.884z
		 M74.507,55.999l-0.996-2.654c-0.129-0.336-0.262-0.748-0.398-1.236c-0.086,0.375-0.209,0.787-0.369,1.236l-1.008,2.654H74.507z"/>
	<path fill="#696A6A" d="M79.72,58.935c0.172,0,0.338-0.013,0.498-0.038s0.287-0.052,0.381-0.079v0.744
		c-0.105,0.051-0.261,0.093-0.466,0.126s-0.39,0.05-0.554,0.05c-1.242,0-1.863-0.654-1.863-1.963v-3.82h-0.92v-0.469l0.92-0.404
		l0.41-1.371h0.562v1.488h1.863v0.756h-1.863v3.779c0,0.387,0.092,0.684,0.275,0.891S79.4,58.935,79.72,58.935z"/>
	<path fill="#696A6A" d="M84.295,59.737c-0.949,0-1.698-0.289-2.247-0.867s-0.823-1.381-0.823-2.408
		c0-1.035,0.255-1.857,0.765-2.467s1.194-0.914,2.054-0.914c0.805,0,1.441,0.265,1.91,0.794s0.703,1.228,0.703,2.095v0.615h-4.424
		c0.02,0.754,0.21,1.326,0.571,1.717s0.87,0.586,1.526,0.586c0.691,0,1.375-0.145,2.051-0.434v0.867
		c-0.344,0.148-0.669,0.255-0.976,0.319S84.729,59.737,84.295,59.737z M84.032,53.896c-0.516,0-0.927,0.168-1.233,0.504
		s-0.487,0.801-0.542,1.395h3.357c0-0.613-0.137-1.083-0.41-1.409S84.54,53.896,84.032,53.896z M83.311,52.202
		c0.188-0.242,0.39-0.535,0.606-0.879s0.388-0.643,0.513-0.896h1.184v0.123c-0.172,0.254-0.428,0.566-0.768,0.938
		s-0.635,0.658-0.885,0.861h-0.65V52.202z"/>
	<path fill="#696A6A" d="M96.422,57.651H95.15v1.969h-0.932v-1.969h-4.166v-0.85l4.066-5.795h1.031v5.76h1.271V57.651z
		 M94.219,56.767v-2.848c0-0.559,0.02-1.189,0.059-1.893H94.23c-0.188,0.375-0.363,0.686-0.527,0.932l-2.678,3.809H94.219z"/>
	<path fill="#696A6A" d="M104.605,59.62v-4.154c0-0.523-0.119-0.914-0.357-1.172s-0.611-0.387-1.119-0.387
		c-0.676,0-1.169,0.184-1.479,0.551s-0.466,0.969-0.466,1.805v3.357h-0.973v-9.117h0.973v2.76c0,0.332-0.016,0.607-0.047,0.826
		h0.059c0.191-0.309,0.464-0.552,0.817-0.729s0.757-0.267,1.21-0.267c0.785,0,1.374,0.187,1.767,0.56s0.589,0.966,0.589,1.778v4.189
		H104.605z"/>
	<path fill="#696A6A" d="M112.818,56.403c0,1.047-0.264,1.864-0.791,2.452s-1.256,0.882-2.186,0.882
		c-0.574,0-1.083-0.135-1.529-0.404s-0.789-0.656-1.031-1.16s-0.363-1.094-0.363-1.77c0-1.047,0.262-1.862,0.785-2.446
		s1.25-0.876,2.179-0.876c0.898,0,1.613,0.299,2.143,0.896S112.818,55.384,112.818,56.403z M107.926,56.403
		c0,0.82,0.164,1.445,0.492,1.875s0.811,0.645,1.447,0.645c0.637,0,1.121-0.214,1.451-0.642s0.494-1.054,0.494-1.878
		c0-0.816-0.164-1.437-0.494-1.86s-0.818-0.636-1.463-0.636c-0.636,0-1.117,0.209-1.441,0.627S107.926,55.575,107.926,56.403z"/>
	<path fill="#696A6A" d="M117.153,53.081c0.285,0,0.541,0.023,0.768,0.07l-0.135,0.902c-0.266-0.059-0.5-0.088-0.703-0.088
		c-0.52,0-0.964,0.211-1.333,0.633s-0.554,0.947-0.554,1.576v3.445h-0.973v-6.422h0.803l0.111,1.189h0.047
		c0.238-0.418,0.525-0.74,0.861-0.967S116.751,53.081,117.153,53.081z"/>
	<path fill="#696A6A" d="M122.771,59.62l-0.193-0.914h-0.047c-0.32,0.402-0.64,0.675-0.958,0.817s-0.716,0.214-1.192,0.214
		c-0.637,0-1.136-0.164-1.497-0.492s-0.542-0.795-0.542-1.4c0-1.297,1.037-1.977,3.111-2.039l1.09-0.035v-0.398
		c0-0.504-0.108-0.876-0.325-1.116s-0.563-0.36-1.04-0.36c-0.535,0-1.141,0.164-1.816,0.492l-0.299-0.744
		c0.316-0.172,0.663-0.307,1.04-0.404s0.755-0.146,1.134-0.146c0.766,0,1.333,0.17,1.702,0.51s0.554,0.885,0.554,1.635v4.383
		H122.771z M120.574,58.935c0.605,0,1.081-0.166,1.427-0.498s0.519-0.797,0.519-1.395v-0.58l-0.973,0.041
		c-0.773,0.027-1.331,0.147-1.673,0.36s-0.513,0.544-0.513,0.993c0,0.352,0.106,0.619,0.319,0.803S120.191,58.935,120.574,58.935z"
		/>
	<path fill="#696A6A" d="M129.339,57.868c0,0.598-0.223,1.059-0.668,1.383s-1.07,0.486-1.875,0.486
		c-0.852,0-1.516-0.135-1.992-0.404v-0.902c0.309,0.156,0.64,0.279,0.993,0.369s0.694,0.135,1.022,0.135
		c0.508,0,0.898-0.081,1.172-0.243s0.41-0.409,0.41-0.741c0-0.25-0.108-0.464-0.325-0.642s-0.64-0.388-1.269-0.63
		c-0.598-0.223-1.022-0.417-1.274-0.583s-0.439-0.354-0.562-0.565s-0.185-0.463-0.185-0.756c0-0.523,0.213-0.937,0.639-1.239
		s1.01-0.454,1.752-0.454c0.691,0,1.367,0.141,2.027,0.422l-0.346,0.791c-0.645-0.266-1.229-0.398-1.752-0.398
		c-0.461,0-0.809,0.072-1.043,0.217s-0.352,0.344-0.352,0.598c0,0.172,0.044,0.318,0.132,0.439s0.229,0.236,0.425,0.346
		s0.57,0.268,1.125,0.475c0.762,0.277,1.276,0.557,1.544,0.838S129.339,57.442,129.339,57.868z"/>
	<path fill="#696A6A" d="M136.426,59.737c-0.418,0-0.8-0.077-1.146-0.231s-0.636-0.392-0.87-0.712h-0.07
		c0.047,0.375,0.07,0.73,0.07,1.066v2.643h-0.973v-9.305h0.791l0.135,0.879h0.047c0.25-0.352,0.541-0.605,0.873-0.762
		s0.713-0.234,1.143-0.234c0.852,0,1.509,0.291,1.972,0.873s0.694,1.398,0.694,2.449c0,1.055-0.235,1.874-0.706,2.458
		S137.262,59.737,136.426,59.737z M136.285,53.907c-0.656,0-1.131,0.182-1.424,0.545s-0.443,0.941-0.451,1.734v0.217
		c0,0.902,0.15,1.548,0.451,1.937s0.783,0.583,1.447,0.583c0.555,0,0.989-0.225,1.304-0.674s0.472-1.068,0.472-1.857
		c0-0.801-0.157-1.415-0.472-1.843S136.855,53.907,136.285,53.907z"/>
	<path fill="#696A6A" d="M144.44,59.62l-0.193-0.914H144.2c-0.32,0.402-0.64,0.675-0.958,0.817s-0.716,0.214-1.192,0.214
		c-0.637,0-1.136-0.164-1.497-0.492s-0.542-0.795-0.542-1.4c0-1.297,1.037-1.977,3.111-2.039l1.09-0.035v-0.398
		c0-0.504-0.108-0.876-0.325-1.116s-0.563-0.36-1.04-0.36c-0.535,0-1.141,0.164-1.816,0.492l-0.299-0.744
		c0.316-0.172,0.663-0.307,1.04-0.404s0.755-0.146,1.134-0.146c0.766,0,1.333,0.17,1.702,0.51s0.554,0.885,0.554,1.635v4.383H144.44
		z M142.243,58.935c0.605,0,1.081-0.166,1.427-0.498s0.519-0.797,0.519-1.395v-0.58l-0.973,0.041
		c-0.773,0.027-1.331,0.147-1.673,0.36s-0.513,0.544-0.513,0.993c0,0.352,0.106,0.619,0.319,0.803S141.86,58.935,142.243,58.935z"/>
	<path fill="#696A6A" d="M149.795,53.081c0.285,0,0.541,0.023,0.768,0.07l-0.135,0.902c-0.266-0.059-0.5-0.088-0.703-0.088
		c-0.52,0-0.964,0.211-1.333,0.633s-0.554,0.947-0.554,1.576v3.445h-0.973v-6.422h0.803l0.111,1.189h0.047
		c0.238-0.418,0.525-0.74,0.861-0.967S149.393,53.081,149.795,53.081z"/>
	<path fill="#696A6A" d="M155.413,59.62l-0.193-0.914h-0.047c-0.32,0.402-0.64,0.675-0.958,0.817s-0.716,0.214-1.192,0.214
		c-0.637,0-1.136-0.164-1.497-0.492s-0.542-0.795-0.542-1.4c0-1.297,1.037-1.977,3.111-2.039l1.09-0.035v-0.398
		c0-0.504-0.108-0.876-0.325-1.116s-0.563-0.36-1.04-0.36c-0.535,0-1.141,0.164-1.816,0.492l-0.299-0.744
		c0.316-0.172,0.663-0.307,1.04-0.404s0.755-0.146,1.134-0.146c0.766,0,1.333,0.17,1.702,0.51s0.554,0.885,0.554,1.635v4.383
		H155.413z M153.216,58.935c0.605,0,1.081-0.166,1.427-0.498s0.519-0.797,0.519-1.395v-0.58l-0.973,0.041
		c-0.773,0.027-1.331,0.147-1.673,0.36s-0.513,0.544-0.513,0.993c0,0.352,0.106,0.619,0.319,0.803S152.833,58.935,153.216,58.935z"
		/>
	<path fill="#696A6A" d="M165.635,57.341c0,0.754-0.273,1.342-0.82,1.764s-1.289,0.633-2.227,0.633
		c-1.016,0-1.797-0.131-2.344-0.393v-0.961c0.352,0.148,0.734,0.266,1.148,0.352s0.824,0.129,1.23,0.129
		c0.664,0,1.164-0.126,1.5-0.378s0.504-0.603,0.504-1.052c0-0.297-0.06-0.54-0.179-0.729s-0.318-0.364-0.598-0.524
		s-0.704-0.342-1.274-0.545c-0.797-0.285-1.366-0.623-1.708-1.014s-0.513-0.9-0.513-1.529c0-0.66,0.248-1.186,0.744-1.576
		s1.152-0.586,1.969-0.586c0.852,0,1.635,0.156,2.35,0.469l-0.311,0.867c-0.707-0.297-1.395-0.445-2.062-0.445
		c-0.527,0-0.939,0.113-1.236,0.34s-0.445,0.541-0.445,0.943c0,0.297,0.055,0.54,0.164,0.729s0.294,0.363,0.554,0.521
		s0.657,0.333,1.192,0.524c0.898,0.32,1.517,0.664,1.854,1.031S165.635,56.755,165.635,57.341z"/>
	<path fill="#696A6A" d="M170.89,59.62l-0.193-0.914h-0.047c-0.32,0.402-0.64,0.675-0.958,0.817s-0.716,0.214-1.192,0.214
		c-0.637,0-1.136-0.164-1.497-0.492s-0.542-0.795-0.542-1.4c0-1.297,1.037-1.977,3.111-2.039l1.09-0.035v-0.398
		c0-0.504-0.108-0.876-0.325-1.116s-0.563-0.36-1.04-0.36c-0.535,0-1.141,0.164-1.816,0.492l-0.299-0.744
		c0.316-0.172,0.663-0.307,1.04-0.404s0.755-0.146,1.134-0.146c0.766,0,1.333,0.17,1.702,0.51s0.554,0.885,0.554,1.635v4.383H170.89
		z M170.134,52.337c-0.168,0-0.332-0.036-0.492-0.108s-0.317-0.152-0.472-0.24s-0.303-0.168-0.445-0.24s-0.28-0.108-0.413-0.108
		c-0.195,0-0.343,0.059-0.442,0.176s-0.177,0.295-0.231,0.533h-0.574c0.051-0.473,0.188-0.843,0.413-1.11s0.515-0.401,0.87-0.401
		c0.18,0,0.354,0.036,0.521,0.108s0.328,0.152,0.48,0.24s0.299,0.168,0.439,0.24s0.273,0.108,0.398,0.108
		c0.191,0,0.334-0.058,0.428-0.173s0.17-0.294,0.229-0.536h0.58c-0.051,0.473-0.187,0.843-0.407,1.11S170.501,52.337,170.134,52.337
		z M168.692,58.935c0.605,0,1.081-0.166,1.427-0.498s0.519-0.797,0.519-1.395v-0.58l-0.973,0.041
		c-0.773,0.027-1.331,0.147-1.673,0.36s-0.513,0.544-0.513,0.993c0,0.352,0.106,0.619,0.319,0.803S168.31,58.935,168.692,58.935z"/>
	<path fill="#696A6A" d="M178.857,56.403c0,1.047-0.264,1.864-0.791,2.452s-1.256,0.882-2.186,0.882
		c-0.574,0-1.084-0.135-1.529-0.404s-0.789-0.656-1.031-1.16s-0.363-1.094-0.363-1.77c0-1.047,0.262-1.862,0.785-2.446
		s1.25-0.876,2.18-0.876c0.898,0,1.612,0.299,2.142,0.896S178.857,55.384,178.857,56.403z M173.965,56.403
		c0,0.82,0.164,1.445,0.492,1.875s0.811,0.645,1.447,0.645s1.12-0.214,1.45-0.642s0.495-1.054,0.495-1.878
		c0-0.816-0.165-1.437-0.495-1.86s-0.817-0.636-1.462-0.636c-0.637,0-1.117,0.209-1.441,0.627S173.965,55.575,173.965,56.403z"/>
	<path fill="#696A6A" d="M188.658,53.55c0,0.867-0.296,1.534-0.888,2.001s-1.438,0.7-2.54,0.7h-1.008v3.369h-0.996v-8.566h2.221
		C187.588,51.054,188.658,51.886,188.658,53.55z M184.223,55.396h0.896c0.883,0,1.521-0.143,1.916-0.428s0.592-0.742,0.592-1.371
		c0-0.566-0.186-0.988-0.557-1.266s-0.949-0.416-1.734-0.416h-1.113V55.396z"/>
	<path fill="#696A6A" d="M193.953,59.62l-0.193-0.914h-0.047c-0.32,0.402-0.64,0.675-0.958,0.817s-0.716,0.214-1.192,0.214
		c-0.637,0-1.136-0.164-1.497-0.492s-0.542-0.795-0.542-1.4c0-1.297,1.037-1.977,3.111-2.039l1.09-0.035v-0.398
		c0-0.504-0.108-0.876-0.325-1.116s-0.563-0.36-1.04-0.36c-0.535,0-1.141,0.164-1.816,0.492l-0.299-0.744
		c0.316-0.172,0.663-0.307,1.04-0.404s0.755-0.146,1.134-0.146c0.766,0,1.333,0.17,1.702,0.51s0.554,0.885,0.554,1.635v4.383
		H193.953z M191.756,58.935c0.605,0,1.081-0.166,1.427-0.498s0.519-0.797,0.519-1.395v-0.58l-0.973,0.041
		c-0.773,0.027-1.331,0.147-1.673,0.36s-0.513,0.544-0.513,0.993c0,0.352,0.106,0.619,0.319,0.803S191.373,58.935,191.756,58.935z"
		/>
	<path fill="#696A6A" d="M197.292,53.198v4.166c0,0.523,0.119,0.914,0.357,1.172s0.611,0.387,1.119,0.387
		c0.672,0,1.163-0.184,1.474-0.551s0.466-0.967,0.466-1.799v-3.375h0.973v6.422h-0.803l-0.141-0.861h-0.053
		c-0.199,0.316-0.476,0.559-0.829,0.727s-0.757,0.252-1.21,0.252c-0.781,0-1.366-0.186-1.755-0.557s-0.583-0.965-0.583-1.781v-4.201
		H197.292z"/>
	<path fill="#696A6A" d="M204.416,59.62h-0.973v-9.117h0.973V59.62z"/>
	<path fill="#696A6A" d="M211.722,56.403c0,1.047-0.264,1.864-0.791,2.452s-1.256,0.882-2.186,0.882
		c-0.574,0-1.084-0.135-1.529-0.404s-0.789-0.656-1.031-1.16s-0.363-1.094-0.363-1.77c0-1.047,0.262-1.862,0.785-2.446
		s1.25-0.876,2.18-0.876c0.898,0,1.612,0.299,2.142,0.896S211.722,55.384,211.722,56.403z M206.829,56.403
		c0,0.82,0.164,1.445,0.492,1.875s0.811,0.645,1.447,0.645s1.12-0.214,1.45-0.642s0.495-1.054,0.495-1.878
		c0-0.816-0.165-1.437-0.495-1.86s-0.817-0.636-1.462-0.636c-0.637,0-1.117,0.209-1.441,0.627S206.829,55.575,206.829,56.403z"/>
	<path fill="#696A6A" d="M67.846,65.449c-0.941,0-1.685,0.313-2.229,0.94s-0.817,1.485-0.817,2.575c0,1.121,0.263,1.987,0.788,2.599
		s1.274,0.917,2.247,0.917c0.598,0,1.279-0.107,2.045-0.322v0.873c-0.594,0.223-1.326,0.334-2.197,0.334
		c-1.262,0-2.235-0.383-2.921-1.148s-1.028-1.854-1.028-3.264c0-0.883,0.165-1.656,0.495-2.32s0.807-1.176,1.43-1.535
		s1.356-0.539,2.2-0.539c0.898,0,1.684,0.164,2.355,0.492l-0.422,0.855C69.143,65.602,68.494,65.449,67.846,65.449z"/>
	<path fill="#696A6A" d="M75.251,73.248l-0.193-0.914h-0.047c-0.32,0.402-0.64,0.675-0.958,0.817s-0.716,0.214-1.192,0.214
		c-0.637,0-1.136-0.164-1.497-0.492s-0.542-0.795-0.542-1.4c0-1.297,1.037-1.977,3.111-2.039l1.09-0.035V69
		c0-0.504-0.108-0.876-0.325-1.116s-0.563-0.36-1.04-0.36c-0.535,0-1.141,0.164-1.816,0.492l-0.299-0.744
		c0.316-0.172,0.663-0.307,1.04-0.404s0.755-0.146,1.134-0.146c0.766,0,1.333,0.17,1.702,0.51s0.554,0.885,0.554,1.635v4.383H75.251
		z M73.054,72.562c0.605,0,1.081-0.166,1.427-0.498s0.519-0.797,0.519-1.395v-0.58l-0.973,0.041
		c-0.773,0.027-1.331,0.147-1.673,0.36s-0.513,0.544-0.513,0.993c0,0.352,0.106,0.619,0.319,0.803S72.671,72.562,73.054,72.562z"/>
	<path fill="#696A6A" d="M80.664,73.365c-0.418,0-0.8-0.077-1.146-0.231s-0.636-0.392-0.87-0.712h-0.07
		c0.047,0.375,0.07,0.73,0.07,1.066v2.643h-0.973v-9.305h0.791l0.135,0.879h0.047c0.25-0.352,0.541-0.605,0.873-0.762
		s0.713-0.234,1.143-0.234c0.852,0,1.509,0.291,1.972,0.873s0.694,1.398,0.694,2.449c0,1.055-0.235,1.874-0.706,2.458
		S81.5,73.365,80.664,73.365z M80.523,67.535c-0.656,0-1.131,0.182-1.424,0.545s-0.443,0.941-0.451,1.734v0.217
		c0,0.902,0.15,1.548,0.451,1.937s0.783,0.583,1.447,0.583c0.555,0,0.989-0.225,1.304-0.674s0.472-1.068,0.472-1.857
		c0-0.801-0.157-1.415-0.472-1.843S81.093,67.535,80.523,67.535z"/>
	<path fill="#696A6A" d="M84.647,65.086c0-0.223,0.055-0.386,0.164-0.489s0.246-0.155,0.41-0.155c0.156,0,0.291,0.053,0.404,0.158
		s0.17,0.268,0.17,0.486s-0.057,0.382-0.17,0.489s-0.248,0.161-0.404,0.161c-0.164,0-0.301-0.054-0.41-0.161
		S84.647,65.305,84.647,65.086z M85.702,73.248h-0.973v-6.422h0.973V73.248z"/>
	<path fill="#696A6A" d="M89.538,72.562c0.172,0,0.338-0.013,0.498-0.038s0.287-0.052,0.381-0.079v0.744
		c-0.105,0.051-0.261,0.093-0.466,0.126s-0.39,0.05-0.554,0.05c-1.242,0-1.863-0.654-1.863-1.963v-3.82h-0.92v-0.469l0.92-0.404
		l0.41-1.371h0.562v1.488h1.863v0.756h-1.863v3.779c0,0.387,0.092,0.684,0.275,0.891S89.218,72.562,89.538,72.562z"/>
	<path fill="#696A6A" d="M95.35,73.248l-0.193-0.914h-0.047c-0.32,0.402-0.64,0.675-0.958,0.817s-0.716,0.214-1.192,0.214
		c-0.637,0-1.136-0.164-1.497-0.492s-0.542-0.795-0.542-1.4c0-1.297,1.037-1.977,3.111-2.039l1.09-0.035V69
		c0-0.504-0.108-0.876-0.325-1.116s-0.563-0.36-1.04-0.36c-0.535,0-1.141,0.164-1.816,0.492l-0.299-0.744
		c0.316-0.172,0.663-0.307,1.04-0.404s0.755-0.146,1.134-0.146c0.766,0,1.333,0.17,1.702,0.51s0.554,0.885,0.554,1.635v4.383H95.35z
		 M93.152,72.562c0.605,0,1.081-0.166,1.427-0.498s0.519-0.797,0.519-1.395v-0.58l-0.973,0.041c-0.773,0.027-1.331,0.147-1.673,0.36
		s-0.513,0.544-0.513,0.993c0,0.352,0.106,0.619,0.319,0.803S92.77,72.562,93.152,72.562z"/>
	<path fill="#696A6A" d="M98.747,73.248h-0.973v-9.117h0.973V73.248z"/>
	<path fill="#696A6A" d="M104.733,73.248l-2.438-6.422h1.043l1.383,3.809c0.312,0.891,0.496,1.469,0.551,1.734h0.047
		c0.043-0.207,0.179-0.636,0.407-1.286s0.741-2.069,1.538-4.257h1.043l-2.438,6.422H104.733z"/>
	<path fill="#696A6A" d="M108.956,65.086c0-0.223,0.055-0.386,0.164-0.489s0.246-0.155,0.41-0.155c0.156,0,0.291,0.053,0.404,0.158
		s0.17,0.268,0.17,0.486s-0.057,0.382-0.17,0.489s-0.248,0.161-0.404,0.161c-0.164,0-0.301-0.054-0.41-0.161
		S108.956,65.305,108.956,65.086z M110.011,73.248h-0.973v-6.422h0.973V73.248z"/>
	<path fill="#696A6A" d="M115.723,73.248l-0.193-0.914h-0.047c-0.32,0.402-0.64,0.675-0.958,0.817s-0.716,0.214-1.192,0.214
		c-0.637,0-1.136-0.164-1.497-0.492s-0.542-0.795-0.542-1.4c0-1.297,1.037-1.977,3.111-2.039l1.09-0.035V69
		c0-0.504-0.108-0.876-0.325-1.116s-0.563-0.36-1.04-0.36c-0.535,0-1.141,0.164-1.816,0.492l-0.299-0.744
		c0.316-0.172,0.663-0.307,1.04-0.404s0.755-0.146,1.134-0.146c0.766,0,1.333,0.17,1.702,0.51s0.554,0.885,0.554,1.635v4.383
		H115.723z M113.525,72.562c0.605,0,1.081-0.166,1.427-0.498s0.519-0.797,0.519-1.395v-0.58l-0.973,0.041
		c-0.773,0.027-1.331,0.147-1.673,0.36s-0.513,0.544-0.513,0.993c0,0.352,0.106,0.619,0.319,0.803S113.143,72.562,113.525,72.562z"
		/>
	<path fill="#696A6A" d="M129.15,73.248V69.07c0-0.512-0.109-0.896-0.328-1.151s-0.559-0.384-1.02-0.384
		c-0.605,0-1.053,0.174-1.342,0.521s-0.434,0.883-0.434,1.605v3.586h-0.973V69.07c0-0.512-0.109-0.896-0.328-1.151
		s-0.561-0.384-1.025-0.384c-0.609,0-1.056,0.183-1.339,0.548s-0.425,0.964-0.425,1.796v3.369h-0.973v-6.422h0.791l0.158,0.879
		h0.047c0.184-0.312,0.442-0.557,0.776-0.732s0.708-0.264,1.122-0.264c1.004,0,1.66,0.363,1.969,1.09h0.047
		c0.191-0.336,0.469-0.602,0.832-0.797s0.777-0.293,1.242-0.293c0.727,0,1.271,0.187,1.632,0.56s0.542,0.97,0.542,1.79v4.189H129.15
		z"/>
	<path fill="#696A6A" d="M137.369,70.031c0,1.047-0.264,1.864-0.791,2.452s-1.256,0.882-2.186,0.882
		c-0.574,0-1.084-0.135-1.529-0.404s-0.789-0.656-1.031-1.16s-0.363-1.094-0.363-1.77c0-1.047,0.262-1.862,0.785-2.446
		s1.25-0.876,2.18-0.876c0.898,0,1.612,0.299,2.142,0.896S137.369,69.012,137.369,70.031z M132.477,70.031
		c0,0.82,0.164,1.445,0.492,1.875s0.811,0.645,1.447,0.645s1.12-0.214,1.45-0.642s0.495-1.054,0.495-1.878
		c0-0.816-0.165-1.437-0.495-1.86s-0.817-0.636-1.462-0.636c-0.637,0-1.117,0.209-1.441,0.627S132.477,69.203,132.477,70.031z"/>
	<path fill="#696A6A" d="M140.849,72.562c0.172,0,0.338-0.013,0.498-0.038s0.287-0.052,0.381-0.079v0.744
		c-0.105,0.051-0.261,0.093-0.466,0.126s-0.39,0.05-0.554,0.05c-1.242,0-1.863-0.654-1.863-1.963v-3.82h-0.92v-0.469l0.92-0.404
		l0.41-1.371h0.562v1.488h1.863v0.756h-1.863v3.779c0,0.387,0.092,0.684,0.275,0.891S140.528,72.562,140.849,72.562z"/>
	<path fill="#696A6A" d="M148.254,70.031c0,1.047-0.264,1.864-0.791,2.452s-1.256,0.882-2.186,0.882
		c-0.574,0-1.084-0.135-1.529-0.404s-0.789-0.656-1.031-1.16s-0.363-1.094-0.363-1.77c0-1.047,0.262-1.862,0.785-2.446
		s1.25-0.876,2.18-0.876c0.898,0,1.612,0.299,2.142,0.896S148.254,69.012,148.254,70.031z M143.361,70.031
		c0,0.82,0.164,1.445,0.492,1.875s0.811,0.645,1.447,0.645s1.12-0.214,1.45-0.642s0.495-1.054,0.495-1.878
		c0-0.816-0.165-1.437-0.495-1.86s-0.817-0.636-1.462-0.636c-0.637,0-1.117,0.209-1.441,0.627S143.361,69.203,143.361,70.031z"/>
	<path fill="#696A6A" d="M152.647,66.721c0.844,0,1.499,0.288,1.966,0.864s0.7,1.392,0.7,2.446s-0.235,1.874-0.706,2.458
		s-1.124,0.876-1.96,0.876c-0.418,0-0.8-0.077-1.146-0.231s-0.636-0.392-0.87-0.712h-0.07l-0.205,0.826h-0.697v-9.117h0.973v2.215
		c0,0.496-0.016,0.941-0.047,1.336h0.047C151.085,67.041,151.757,66.721,152.647,66.721z M152.507,67.535
		c-0.664,0-1.143,0.19-1.436,0.571s-0.439,1.022-0.439,1.925s0.15,1.548,0.451,1.937s0.783,0.583,1.447,0.583
		c0.598,0,1.043-0.218,1.336-0.653s0.439-1.062,0.439-1.878c0-0.836-0.146-1.459-0.439-1.869S153.12,67.535,152.507,67.535z"/>
	<path fill="#696A6A" d="M162.256,70.031c0,1.047-0.264,1.864-0.791,2.452s-1.256,0.882-2.186,0.882
		c-0.574,0-1.084-0.135-1.529-0.404s-0.789-0.656-1.031-1.16s-0.363-1.094-0.363-1.77c0-1.047,0.262-1.862,0.785-2.446
		s1.25-0.876,2.18-0.876c0.898,0,1.612,0.299,2.142,0.896S162.256,69.012,162.256,70.031z M157.363,70.031
		c0,0.82,0.164,1.445,0.492,1.875s0.811,0.645,1.447,0.645s1.12-0.214,1.45-0.642s0.495-1.054,0.495-1.878
		c0-0.816-0.165-1.437-0.495-1.86s-0.817-0.636-1.462-0.636c-0.637,0-1.117,0.209-1.441,0.627S157.363,69.203,157.363,70.031z"/>
	<path fill="#696A6A" d="M162.641,66.826h1.043l1.406,3.662c0.309,0.836,0.5,1.439,0.574,1.811h0.047
		c0.051-0.199,0.157-0.54,0.319-1.022s0.692-1.966,1.591-4.45h1.043l-2.76,7.312c-0.273,0.723-0.593,1.235-0.958,1.538
		s-0.813,0.454-1.345,0.454c-0.297,0-0.59-0.033-0.879-0.1v-0.779c0.215,0.047,0.455,0.07,0.721,0.07
		c0.668,0,1.145-0.375,1.43-1.125l0.357-0.914L162.641,66.826z"/>
	<path fill="#696A6A" d="M177.768,70.031c0,1.047-0.264,1.864-0.791,2.452s-1.256,0.882-2.186,0.882
		c-0.574,0-1.084-0.135-1.529-0.404s-0.789-0.656-1.031-1.16s-0.363-1.094-0.363-1.77c0-1.047,0.262-1.862,0.785-2.446
		s1.25-0.876,2.18-0.876c0.898,0,1.612,0.299,2.142,0.896S177.768,69.012,177.768,70.031z M172.875,70.031
		c0,0.82,0.164,1.445,0.492,1.875s0.811,0.645,1.447,0.645s1.12-0.214,1.45-0.642s0.495-1.054,0.495-1.878
		c0-0.816-0.165-1.437-0.495-1.86s-0.817-0.636-1.462-0.636c-0.637,0-1.117,0.209-1.441,0.627S172.875,69.203,172.875,70.031z"/>
	<path fill="#696A6A" d="M180.087,66.826v4.166c0,0.523,0.119,0.914,0.357,1.172s0.611,0.387,1.119,0.387
		c0.672,0,1.163-0.184,1.474-0.551s0.466-0.967,0.466-1.799v-3.375h0.973v6.422h-0.803l-0.141-0.861h-0.053
		c-0.199,0.316-0.476,0.559-0.829,0.727s-0.757,0.252-1.21,0.252c-0.781,0-1.366-0.186-1.755-0.557s-0.583-0.965-0.583-1.781v-4.201
		H180.087z"/>
	<path fill="#696A6A" d="M193.004,73.248l-0.193-0.914h-0.047c-0.32,0.402-0.64,0.675-0.958,0.817s-0.716,0.214-1.192,0.214
		c-0.637,0-1.136-0.164-1.497-0.492s-0.542-0.795-0.542-1.4c0-1.297,1.037-1.977,3.111-2.039l1.09-0.035V69
		c0-0.504-0.108-0.876-0.325-1.116s-0.563-0.36-1.04-0.36c-0.535,0-1.141,0.164-1.816,0.492l-0.299-0.744
		c0.316-0.172,0.663-0.307,1.04-0.404s0.755-0.146,1.134-0.146c0.766,0,1.333,0.17,1.702,0.51s0.554,0.885,0.554,1.635v4.383
		H193.004z M190.807,72.562c0.605,0,1.081-0.166,1.427-0.498s0.519-0.797,0.519-1.395v-0.58l-0.973,0.041
		c-0.773,0.027-1.331,0.147-1.673,0.36s-0.513,0.544-0.513,0.993c0,0.352,0.106,0.619,0.319,0.803S190.424,72.562,190.807,72.562z"
		/>
	<path fill="#696A6A" d="M197.503,72.562c0.172,0,0.338-0.013,0.498-0.038s0.287-0.052,0.381-0.079v0.744
		c-0.105,0.051-0.261,0.093-0.466,0.126s-0.39,0.05-0.554,0.05c-1.242,0-1.863-0.654-1.863-1.963v-3.82h-0.92v-0.469l0.92-0.404
		l0.41-1.371h0.562v1.488h1.863v0.756h-1.863v3.779c0,0.387,0.092,0.684,0.275,0.891S197.183,72.562,197.503,72.562z"/>
	<path fill="#696A6A" d="M202.078,73.365c-0.949,0-1.698-0.289-2.247-0.867s-0.823-1.381-0.823-2.408
		c0-1.035,0.255-1.857,0.765-2.467s1.194-0.914,2.054-0.914c0.805,0,1.441,0.265,1.91,0.794s0.703,1.228,0.703,2.095v0.615h-4.424
		c0.02,0.754,0.21,1.326,0.571,1.717s0.87,0.586,1.526,0.586c0.691,0,1.375-0.145,2.051-0.434v0.867
		c-0.344,0.148-0.669,0.255-0.976,0.319S202.512,73.365,202.078,73.365z M201.814,67.523c-0.516,0-0.927,0.168-1.233,0.504
		s-0.487,0.801-0.542,1.395h3.357c0-0.613-0.137-1.083-0.41-1.409S202.322,67.523,201.814,67.523z M201.094,65.83
		c0.188-0.242,0.39-0.535,0.606-0.879s0.388-0.643,0.513-0.896h1.184v0.123c-0.172,0.254-0.428,0.566-0.768,0.938
		s-0.635,0.658-0.885,0.861h-0.65V65.83z"/>
	<path fill="#696A6A" d="M69.621,84.907H68.35v1.969h-0.932v-1.969h-4.166v-0.85l4.066-5.795h1.031v5.76h1.271V84.907z
		 M67.418,84.022v-2.848c0-0.559,0.02-1.189,0.059-1.893H67.43c-0.188,0.375-0.363,0.686-0.527,0.932l-2.678,3.809H67.418z"/>
	<path fill="#696A6A" d="M72.983,78.187c0.781,0,1.4,0.182,1.857,0.545s0.686,0.865,0.686,1.506c0,0.422-0.131,0.807-0.393,1.154
		s-0.68,0.664-1.254,0.949c0.695,0.332,1.189,0.681,1.482,1.046s0.439,0.788,0.439,1.269c0,0.711-0.248,1.278-0.744,1.702
		s-1.176,0.636-2.039,0.636c-0.914,0-1.617-0.2-2.109-0.601s-0.738-0.968-0.738-1.702c0-0.98,0.598-1.744,1.793-2.291
		c-0.539-0.305-0.926-0.634-1.16-0.987s-0.352-0.749-0.352-1.187c0-0.621,0.229-1.116,0.688-1.485S72.214,78.187,72.983,78.187z
		 M71.132,84.714c0,0.469,0.163,0.834,0.489,1.096s0.784,0.393,1.374,0.393c0.582,0,1.035-0.137,1.359-0.41s0.486-0.648,0.486-1.125
		c0-0.379-0.152-0.716-0.457-1.011s-0.836-0.581-1.594-0.858c-0.582,0.25-1.004,0.526-1.266,0.829S71.132,84.292,71.132,84.714z
		 M72.972,78.978c-0.488,0-0.871,0.117-1.148,0.352s-0.416,0.547-0.416,0.938c0,0.359,0.115,0.668,0.346,0.926
		s0.656,0.516,1.277,0.773c0.559-0.234,0.954-0.486,1.187-0.756s0.349-0.584,0.349-0.943c0-0.395-0.142-0.708-0.425-0.94
		S73.468,78.978,72.972,78.978z"/>
	<path fill="#696A6A" d="M84.366,86.876v-4.154c0-0.523-0.119-0.914-0.357-1.172s-0.611-0.387-1.119-0.387
		c-0.676,0-1.169,0.184-1.479,0.551s-0.466,0.969-0.466,1.805v3.357h-0.973v-9.117h0.973v2.76c0,0.332-0.016,0.607-0.047,0.826
		h0.059c0.191-0.309,0.464-0.552,0.817-0.729s0.757-0.267,1.21-0.267c0.785,0,1.374,0.187,1.767,0.56s0.589,0.966,0.589,1.778v4.189
		H84.366z"/>
	<path fill="#696A6A" d="M92.579,83.659c0,1.047-0.264,1.864-0.791,2.452s-1.256,0.882-2.186,0.882
		c-0.574,0-1.084-0.135-1.529-0.404s-0.789-0.656-1.031-1.16s-0.363-1.094-0.363-1.77c0-1.047,0.262-1.862,0.785-2.446
		s1.25-0.876,2.18-0.876c0.898,0,1.612,0.299,2.142,0.896S92.579,82.64,92.579,83.659z M87.687,83.659
		c0,0.82,0.164,1.445,0.492,1.875s0.811,0.645,1.447,0.645s1.12-0.214,1.45-0.642s0.495-1.054,0.495-1.878
		c0-0.816-0.165-1.437-0.495-1.86s-0.817-0.636-1.462-0.636c-0.637,0-1.117,0.209-1.441,0.627S87.687,82.831,87.687,83.659z"/>
	<path fill="#696A6A" d="M96.914,80.337c0.285,0,0.541,0.023,0.768,0.07l-0.135,0.902c-0.266-0.059-0.5-0.088-0.703-0.088
		c-0.52,0-0.964,0.211-1.333,0.633s-0.554,0.947-0.554,1.576v3.445h-0.973v-6.422h0.803l0.111,1.189h0.047
		c0.238-0.418,0.525-0.74,0.861-0.967S96.512,80.337,96.914,80.337z"/>
	<path fill="#696A6A" d="M102.532,86.876l-0.193-0.914h-0.047c-0.32,0.402-0.64,0.675-0.958,0.817s-0.716,0.214-1.192,0.214
		c-0.637,0-1.136-0.164-1.497-0.492s-0.542-0.795-0.542-1.4c0-1.297,1.037-1.977,3.111-2.039l1.09-0.035v-0.398
		c0-0.504-0.108-0.876-0.325-1.116s-0.563-0.36-1.04-0.36c-0.535,0-1.141,0.164-1.816,0.492l-0.299-0.744
		c0.316-0.172,0.663-0.307,1.04-0.404s0.755-0.146,1.134-0.146c0.766,0,1.333,0.17,1.702,0.51s0.554,0.885,0.554,1.635v4.383
		H102.532z M100.335,86.19c0.605,0,1.081-0.166,1.427-0.498s0.519-0.797,0.519-1.395v-0.58l-0.973,0.041
		c-0.773,0.027-1.331,0.147-1.673,0.36s-0.513,0.544-0.513,0.993c0,0.352,0.106,0.619,0.319,0.803S99.952,86.19,100.335,86.19z"/>
	<path fill="#696A6A" d="M109.099,85.124c0,0.598-0.223,1.059-0.668,1.383s-1.07,0.486-1.875,0.486
		c-0.852,0-1.516-0.135-1.992-0.404v-0.902c0.309,0.156,0.64,0.279,0.993,0.369s0.694,0.135,1.022,0.135
		c0.508,0,0.898-0.081,1.172-0.243s0.41-0.409,0.41-0.741c0-0.25-0.108-0.464-0.325-0.642s-0.64-0.388-1.269-0.63
		c-0.598-0.223-1.022-0.417-1.274-0.583s-0.439-0.354-0.562-0.565s-0.185-0.463-0.185-0.756c0-0.523,0.213-0.937,0.639-1.239
		s1.01-0.454,1.752-0.454c0.691,0,1.367,0.141,2.027,0.422l-0.346,0.791c-0.645-0.266-1.229-0.398-1.752-0.398
		c-0.461,0-0.809,0.072-1.043,0.217s-0.352,0.344-0.352,0.598c0,0.172,0.044,0.318,0.132,0.439s0.229,0.236,0.425,0.346
		s0.57,0.268,1.125,0.475c0.762,0.277,1.276,0.557,1.544,0.838S109.099,84.698,109.099,85.124z"/>
	<path fill="#696A6A" d="M116.187,86.993c-0.418,0-0.8-0.077-1.146-0.231s-0.636-0.392-0.87-0.712h-0.07
		c0.047,0.375,0.07,0.73,0.07,1.066v2.643h-0.973v-9.305h0.791l0.135,0.879h0.047c0.25-0.352,0.541-0.605,0.873-0.762
		s0.713-0.234,1.143-0.234c0.852,0,1.509,0.291,1.972,0.873s0.694,1.398,0.694,2.449c0,1.055-0.235,1.874-0.706,2.458
		S117.022,86.993,116.187,86.993z M116.046,81.163c-0.656,0-1.131,0.182-1.424,0.545s-0.443,0.941-0.451,1.734v0.217
		c0,0.902,0.15,1.548,0.451,1.937s0.783,0.583,1.447,0.583c0.555,0,0.989-0.225,1.304-0.674s0.472-1.068,0.472-1.857
		c0-0.801-0.157-1.415-0.472-1.843S116.616,81.163,116.046,81.163z"/>
	<path fill="#696A6A" d="M124.201,86.876l-0.193-0.914h-0.047c-0.32,0.402-0.64,0.675-0.958,0.817s-0.716,0.214-1.192,0.214
		c-0.637,0-1.136-0.164-1.497-0.492s-0.542-0.795-0.542-1.4c0-1.297,1.037-1.977,3.111-2.039l1.09-0.035v-0.398
		c0-0.504-0.108-0.876-0.325-1.116s-0.563-0.36-1.04-0.36c-0.535,0-1.141,0.164-1.816,0.492l-0.299-0.744
		c0.316-0.172,0.663-0.307,1.04-0.404s0.755-0.146,1.134-0.146c0.766,0,1.333,0.17,1.702,0.51s0.554,0.885,0.554,1.635v4.383
		H124.201z M122.004,86.19c0.605,0,1.081-0.166,1.427-0.498s0.519-0.797,0.519-1.395v-0.58l-0.973,0.041
		c-0.773,0.027-1.331,0.147-1.673,0.36s-0.513,0.544-0.513,0.993c0,0.352,0.106,0.619,0.319,0.803S121.621,86.19,122.004,86.19z"/>
	<path fill="#696A6A" d="M129.556,80.337c0.285,0,0.541,0.023,0.768,0.07l-0.135,0.902c-0.266-0.059-0.5-0.088-0.703-0.088
		c-0.52,0-0.964,0.211-1.333,0.633s-0.554,0.947-0.554,1.576v3.445h-0.973v-6.422h0.803l0.111,1.189h0.047
		c0.238-0.418,0.525-0.74,0.861-0.967S129.153,80.337,129.556,80.337z"/>
	<path fill="#696A6A" d="M135.174,86.876l-0.193-0.914h-0.047c-0.32,0.402-0.64,0.675-0.958,0.817s-0.716,0.214-1.192,0.214
		c-0.637,0-1.136-0.164-1.497-0.492s-0.542-0.795-0.542-1.4c0-1.297,1.037-1.977,3.111-2.039l1.09-0.035v-0.398
		c0-0.504-0.108-0.876-0.325-1.116s-0.563-0.36-1.04-0.36c-0.535,0-1.141,0.164-1.816,0.492l-0.299-0.744
		c0.316-0.172,0.663-0.307,1.04-0.404s0.755-0.146,1.134-0.146c0.766,0,1.333,0.17,1.702,0.51s0.554,0.885,0.554,1.635v4.383
		H135.174z M132.977,86.19c0.605,0,1.081-0.166,1.427-0.498s0.519-0.797,0.519-1.395v-0.58l-0.973,0.041
		c-0.773,0.027-1.331,0.147-1.673,0.36s-0.513,0.544-0.513,0.993c0,0.352,0.106,0.619,0.319,0.803S132.594,86.19,132.977,86.19z"/>
	<path fill="#696A6A" d="M145.958,83.659c0,1.047-0.264,1.864-0.791,2.452s-1.256,0.882-2.186,0.882
		c-0.574,0-1.084-0.135-1.529-0.404s-0.789-0.656-1.031-1.16s-0.363-1.094-0.363-1.77c0-1.047,0.262-1.862,0.785-2.446
		s1.25-0.876,2.18-0.876c0.898,0,1.612,0.299,2.142,0.896S145.958,82.64,145.958,83.659z M141.065,83.659
		c0,0.82,0.164,1.445,0.492,1.875s0.811,0.645,1.447,0.645s1.12-0.214,1.45-0.642s0.495-1.054,0.495-1.878
		c0-0.816-0.165-1.437-0.495-1.86s-0.817-0.636-1.462-0.636c-0.637,0-1.117,0.209-1.441,0.627S141.065,82.831,141.065,83.659z"/>
	<path fill="#696A6A" d="M148.277,80.454v4.166c0,0.523,0.119,0.914,0.357,1.172s0.611,0.387,1.119,0.387
		c0.672,0,1.163-0.184,1.474-0.551s0.466-0.967,0.466-1.799v-3.375h0.973v6.422h-0.803l-0.141-0.861h-0.053
		c-0.199,0.316-0.476,0.559-0.829,0.727s-0.757,0.252-1.21,0.252c-0.781,0-1.366-0.186-1.755-0.557s-0.583-0.965-0.583-1.781v-4.201
		H148.277z"/>
	<path fill="#696A6A" d="M156.503,86.19c0.172,0,0.338-0.013,0.498-0.038s0.287-0.052,0.381-0.079v0.744
		c-0.105,0.051-0.261,0.093-0.466,0.126s-0.39,0.05-0.554,0.05c-1.242,0-1.863-0.654-1.863-1.963v-3.82h-0.92v-0.469l0.92-0.404
		l0.41-1.371h0.562v1.488h1.863v0.756h-1.863v3.779c0,0.387,0.092,0.684,0.275,0.891S156.183,86.19,156.503,86.19z"/>
	<path fill="#696A6A" d="M161.295,80.337c0.285,0,0.541,0.023,0.768,0.07l-0.135,0.902c-0.266-0.059-0.5-0.088-0.703-0.088
		c-0.52,0-0.964,0.211-1.333,0.633s-0.554,0.947-0.554,1.576v3.445h-0.973v-6.422h0.803l0.111,1.189h0.047
		c0.238-0.418,0.525-0.74,0.861-0.967S160.893,80.337,161.295,80.337z"/>
	<path fill="#696A6A" d="M168.506,83.659c0,1.047-0.264,1.864-0.791,2.452s-1.256,0.882-2.186,0.882
		c-0.574,0-1.084-0.135-1.529-0.404s-0.789-0.656-1.031-1.16s-0.363-1.094-0.363-1.77c0-1.047,0.262-1.862,0.785-2.446
		s1.25-0.876,2.18-0.876c0.898,0,1.612,0.299,2.142,0.896S168.506,82.64,168.506,83.659z M163.613,83.659
		c0,0.82,0.164,1.445,0.492,1.875s0.811,0.645,1.447,0.645s1.12-0.214,1.45-0.642s0.495-1.054,0.495-1.878
		c0-0.816-0.165-1.437-0.495-1.86s-0.817-0.636-1.462-0.636c-0.637,0-1.117,0.209-1.441,0.627S163.613,82.831,163.613,83.659z"/>
	<path fill="#696A6A" d="M174.054,85.124c0,0.598-0.223,1.059-0.668,1.383s-1.07,0.486-1.875,0.486
		c-0.852,0-1.516-0.135-1.992-0.404v-0.902c0.309,0.156,0.64,0.279,0.993,0.369s0.694,0.135,1.022,0.135
		c0.508,0,0.898-0.081,1.172-0.243s0.41-0.409,0.41-0.741c0-0.25-0.108-0.464-0.325-0.642s-0.64-0.388-1.269-0.63
		c-0.598-0.223-1.022-0.417-1.274-0.583s-0.439-0.354-0.562-0.565s-0.185-0.463-0.185-0.756c0-0.523,0.213-0.937,0.639-1.239
		s1.01-0.454,1.752-0.454c0.691,0,1.367,0.141,2.027,0.422l-0.346,0.791c-0.645-0.266-1.229-0.398-1.752-0.398
		c-0.461,0-0.809,0.072-1.043,0.217s-0.352,0.344-0.352,0.598c0,0.172,0.044,0.318,0.132,0.439s0.229,0.236,0.425,0.346
		s0.57,0.268,1.125,0.475c0.762,0.277,1.276,0.557,1.544,0.838S174.054,84.698,174.054,85.124z"/>
	<path fill="#696A6A" d="M183.075,86.876H178.3V78.31h4.775v0.885h-3.779v2.76h3.551v0.879h-3.551v3.152h3.779V86.876z"/>
	<path fill="#696A6A" d="M188.67,85.124c0,0.598-0.223,1.059-0.668,1.383s-1.07,0.486-1.875,0.486c-0.852,0-1.516-0.135-1.992-0.404
		v-0.902c0.309,0.156,0.64,0.279,0.993,0.369s0.694,0.135,1.022,0.135c0.508,0,0.898-0.081,1.172-0.243s0.41-0.409,0.41-0.741
		c0-0.25-0.108-0.464-0.325-0.642s-0.64-0.388-1.269-0.63c-0.598-0.223-1.022-0.417-1.274-0.583s-0.439-0.354-0.562-0.565
		s-0.185-0.463-0.185-0.756c0-0.523,0.213-0.937,0.639-1.239s1.01-0.454,1.752-0.454c0.691,0,1.367,0.141,2.027,0.422l-0.346,0.791
		c-0.645-0.266-1.229-0.398-1.752-0.398c-0.461,0-0.809,0.072-1.043,0.217s-0.352,0.344-0.352,0.598
		c0,0.172,0.044,0.318,0.132,0.439s0.229,0.236,0.425,0.346s0.57,0.268,1.125,0.475c0.762,0.277,1.276,0.557,1.544,0.838
		S188.67,84.698,188.67,85.124z"/>
	<path fill="#696A6A" d="M192.025,86.19c0.172,0,0.338-0.013,0.498-0.038s0.287-0.052,0.381-0.079v0.744
		c-0.105,0.051-0.261,0.093-0.466,0.126s-0.39,0.05-0.554,0.05c-1.242,0-1.863-0.654-1.863-1.963v-3.82h-0.92v-0.469l0.92-0.404
		l0.41-1.371h0.562v1.488h1.863v0.756h-1.863v3.779c0,0.387,0.092,0.684,0.275,0.891S191.705,86.19,192.025,86.19z"/>
	<path fill="#696A6A" d="M197.837,86.876l-0.193-0.914h-0.047c-0.32,0.402-0.64,0.675-0.958,0.817s-0.716,0.214-1.192,0.214
		c-0.637,0-1.136-0.164-1.497-0.492s-0.542-0.795-0.542-1.4c0-1.297,1.037-1.977,3.111-2.039l1.09-0.035v-0.398
		c0-0.504-0.108-0.876-0.325-1.116s-0.563-0.36-1.04-0.36c-0.535,0-1.141,0.164-1.816,0.492l-0.299-0.744
		c0.316-0.172,0.663-0.307,1.04-0.404s0.755-0.146,1.134-0.146c0.766,0,1.333,0.17,1.702,0.51s0.554,0.885,0.554,1.635v4.383
		H197.837z M195.64,86.19c0.605,0,1.081-0.166,1.427-0.498s0.519-0.797,0.519-1.395v-0.58l-0.973,0.041
		c-0.773,0.027-1.331,0.147-1.673,0.36s-0.513,0.544-0.513,0.993c0,0.352,0.106,0.619,0.319,0.803S195.257,86.19,195.64,86.19z"/>
	<path fill="#696A6A" d="M204.633,86.015h-0.053c-0.449,0.652-1.121,0.979-2.016,0.979c-0.84,0-1.493-0.287-1.96-0.861
		s-0.7-1.391-0.7-2.449s0.234-1.881,0.703-2.467s1.121-0.879,1.957-0.879c0.871,0,1.539,0.316,2.004,0.949h0.076l-0.041-0.463
		l-0.023-0.451v-2.613h0.973v9.117h-0.791L204.633,86.015z M202.688,86.179c0.664,0,1.146-0.181,1.444-0.542
		s0.448-0.944,0.448-1.749v-0.205c0-0.91-0.151-1.56-0.454-1.948s-0.786-0.583-1.45-0.583c-0.57,0-1.007,0.222-1.31,0.665
		s-0.454,1.069-0.454,1.878c0,0.82,0.15,1.439,0.451,1.857S202.105,86.179,202.688,86.179z"/>
	<path fill="#696A6A" d="M212.858,83.659c0,1.047-0.264,1.864-0.791,2.452s-1.256,0.882-2.186,0.882
		c-0.574,0-1.084-0.135-1.529-0.404s-0.789-0.656-1.031-1.16s-0.363-1.094-0.363-1.77c0-1.047,0.262-1.862,0.785-2.446
		s1.25-0.876,2.18-0.876c0.898,0,1.612,0.299,2.142,0.896S212.858,82.64,212.858,83.659z M207.966,83.659
		c0,0.82,0.164,1.445,0.492,1.875s0.811,0.645,1.447,0.645s1.12-0.214,1.45-0.642s0.495-1.054,0.495-1.878
		c0-0.816-0.165-1.437-0.495-1.86s-0.817-0.636-1.462-0.636c-0.637,0-1.117,0.209-1.441,0.627S207.966,82.831,207.966,83.659z"/>
	<path fill="#696A6A" d="M218.406,85.124c0,0.598-0.223,1.059-0.668,1.383s-1.07,0.486-1.875,0.486
		c-0.852,0-1.516-0.135-1.992-0.404v-0.902c0.309,0.156,0.64,0.279,0.993,0.369s0.694,0.135,1.022,0.135
		c0.508,0,0.898-0.081,1.172-0.243s0.41-0.409,0.41-0.741c0-0.25-0.108-0.464-0.325-0.642s-0.64-0.388-1.269-0.63
		c-0.598-0.223-1.022-0.417-1.274-0.583s-0.439-0.354-0.562-0.565s-0.185-0.463-0.185-0.756c0-0.523,0.213-0.937,0.639-1.239
		s1.01-0.454,1.752-0.454c0.691,0,1.367,0.141,2.027,0.422l-0.346,0.791c-0.645-0.266-1.229-0.398-1.752-0.398
		c-0.461,0-0.809,0.072-1.043,0.217s-0.352,0.344-0.352,0.598c0,0.172,0.044,0.318,0.132,0.439s0.229,0.236,0.425,0.346
		s0.57,0.268,1.125,0.475c0.762,0.277,1.276,0.557,1.544,0.838S218.406,84.698,218.406,85.124z"/>
	<path fill="#696A6A" d="M219.547,86.255c0-0.262,0.06-0.46,0.179-0.595s0.29-0.202,0.513-0.202c0.227,0,0.403,0.067,0.53,0.202
		s0.19,0.333,0.19,0.595c0,0.254-0.064,0.449-0.193,0.586s-0.305,0.205-0.527,0.205c-0.199,0-0.364-0.062-0.495-0.185
		S219.547,86.536,219.547,86.255z"/>
</g>
<g>
	<path fill="#696A6A" d="M70.512,106.221c0,0.754-0.273,1.342-0.82,1.764s-1.289,0.633-2.227,0.633
		c-1.016,0-1.797-0.131-2.344-0.393v-0.961c0.352,0.148,0.734,0.266,1.148,0.352s0.824,0.129,1.23,0.129
		c0.664,0,1.164-0.126,1.5-0.378s0.504-0.603,0.504-1.052c0-0.297-0.06-0.54-0.179-0.729s-0.318-0.364-0.598-0.524
		s-0.704-0.342-1.274-0.545c-0.797-0.285-1.366-0.623-1.708-1.014s-0.513-0.9-0.513-1.529c0-0.66,0.248-1.186,0.744-1.576
		s1.152-0.586,1.969-0.586c0.852,0,1.635,0.156,2.35,0.469l-0.311,0.867c-0.707-0.297-1.395-0.445-2.062-0.445
		c-0.527,0-0.939,0.113-1.236,0.34s-0.445,0.541-0.445,0.943c0,0.297,0.055,0.54,0.164,0.729s0.294,0.363,0.554,0.521
		s0.657,0.333,1.192,0.524c0.898,0.32,1.517,0.664,1.854,1.031S70.512,105.635,70.512,106.221z"/>
	<path fill="#696A6A" d="M75.767,108.5l-0.193-0.914h-0.047c-0.32,0.402-0.64,0.675-0.958,0.817s-0.716,0.214-1.192,0.214
		c-0.637,0-1.136-0.164-1.497-0.492s-0.542-0.795-0.542-1.4c0-1.297,1.037-1.977,3.111-2.039l1.09-0.035v-0.398
		c0-0.504-0.108-0.876-0.325-1.116s-0.563-0.36-1.04-0.36c-0.535,0-1.141,0.164-1.816,0.492l-0.299-0.744
		c0.316-0.172,0.663-0.307,1.04-0.404s0.755-0.146,1.134-0.146c0.766,0,1.333,0.17,1.702,0.51s0.554,0.885,0.554,1.635v4.383H75.767
		z M73.569,107.814c0.605,0,1.081-0.166,1.427-0.498s0.519-0.797,0.519-1.395v-0.58l-0.973,0.041
		c-0.773,0.027-1.331,0.147-1.673,0.36s-0.513,0.544-0.513,0.993c0,0.352,0.106,0.619,0.319,0.803S73.187,107.814,73.569,107.814z"
		/>
	<path fill="#696A6A" d="M78.109,100.338c0-0.223,0.055-0.386,0.164-0.489s0.246-0.155,0.41-0.155c0.156,0,0.291,0.053,0.404,0.158
		s0.17,0.268,0.17,0.486s-0.057,0.382-0.17,0.489s-0.248,0.161-0.404,0.161c-0.164,0-0.301-0.054-0.41-0.161
		S78.109,100.557,78.109,100.338z M79.164,108.5h-0.973v-6.422h0.973V108.5z"/>
	<path fill="#696A6A" d="M83.915,101.973c0.844,0,1.499,0.288,1.966,0.864s0.7,1.392,0.7,2.446s-0.235,1.874-0.706,2.458
		s-1.124,0.876-1.96,0.876c-0.418,0-0.8-0.077-1.146-0.231s-0.636-0.392-0.87-0.712h-0.07l-0.205,0.826h-0.697v-9.117h0.973v2.215
		c0,0.496-0.016,0.941-0.047,1.336h0.047C82.352,102.293,83.024,101.973,83.915,101.973z M83.774,102.787
		c-0.664,0-1.143,0.19-1.436,0.571s-0.439,1.022-0.439,1.925s0.15,1.548,0.451,1.937s0.783,0.583,1.447,0.583
		c0.598,0,1.043-0.218,1.336-0.653s0.439-1.062,0.439-1.878c0-0.836-0.146-1.459-0.439-1.869S84.387,102.787,83.774,102.787z"/>
	<path fill="#696A6A" d="M91.929,108.5l-0.193-0.914h-0.047c-0.32,0.402-0.64,0.675-0.958,0.817s-0.716,0.214-1.192,0.214
		c-0.637,0-1.136-0.164-1.497-0.492s-0.542-0.795-0.542-1.4c0-1.297,1.037-1.977,3.111-2.039l1.09-0.035v-0.398
		c0-0.504-0.108-0.876-0.325-1.116s-0.563-0.36-1.04-0.36c-0.535,0-1.141,0.164-1.816,0.492l-0.299-0.744
		c0.316-0.172,0.663-0.307,1.04-0.404s0.755-0.146,1.134-0.146c0.766,0,1.333,0.17,1.702,0.51s0.554,0.885,0.554,1.635v4.383H91.929
		z M89.731,107.814c0.605,0,1.081-0.166,1.427-0.498s0.519-0.797,0.519-1.395v-0.58l-0.973,0.041
		c-0.773,0.027-1.331,0.147-1.673,0.36s-0.513,0.544-0.513,0.993c0,0.352,0.106,0.619,0.319,0.803S89.349,107.814,89.731,107.814z"
		/>
	<path fill="#696A6A" d="M105.356,108.5v-4.178c0-0.512-0.109-0.896-0.328-1.151s-0.559-0.384-1.02-0.384
		c-0.605,0-1.053,0.174-1.342,0.521s-0.434,0.883-0.434,1.605v3.586h-0.973v-4.178c0-0.512-0.109-0.896-0.328-1.151
		s-0.561-0.384-1.025-0.384c-0.609,0-1.056,0.183-1.339,0.548s-0.425,0.964-0.425,1.796v3.369h-0.973v-6.422h0.791l0.158,0.879
		h0.047c0.184-0.312,0.442-0.557,0.776-0.732s0.708-0.264,1.122-0.264c1.004,0,1.66,0.363,1.969,1.09h0.047
		c0.191-0.336,0.469-0.602,0.832-0.797s0.777-0.293,1.242-0.293c0.727,0,1.271,0.187,1.632,0.56s0.542,0.97,0.542,1.79v4.189
		H105.356z"/>
	<path fill="#696A6A" d="M111.982,108.5l-0.193-0.914h-0.047c-0.32,0.402-0.64,0.675-0.958,0.817s-0.716,0.214-1.192,0.214
		c-0.637,0-1.136-0.164-1.497-0.492s-0.542-0.795-0.542-1.4c0-1.297,1.037-1.977,3.111-2.039l1.09-0.035v-0.398
		c0-0.504-0.108-0.876-0.325-1.116s-0.563-0.36-1.04-0.36c-0.535,0-1.141,0.164-1.816,0.492l-0.299-0.744
		c0.316-0.172,0.663-0.307,1.04-0.404s0.755-0.146,1.134-0.146c0.766,0,1.333,0.17,1.702,0.51s0.554,0.885,0.554,1.635v4.383
		H111.982z M109.785,107.814c0.605,0,1.081-0.166,1.427-0.498s0.519-0.797,0.519-1.395v-0.58l-0.973,0.041
		c-0.773,0.027-1.331,0.147-1.673,0.36s-0.513,0.544-0.513,0.993c0,0.352,0.106,0.619,0.319,0.803S109.402,107.814,109.785,107.814z
		"/>
	<path fill="#696A6A" d="M114.325,100.338c0-0.223,0.055-0.386,0.164-0.489s0.246-0.155,0.41-0.155c0.156,0,0.291,0.053,0.404,0.158
		s0.17,0.268,0.17,0.486s-0.057,0.382-0.17,0.489s-0.248,0.161-0.404,0.161c-0.164,0-0.301-0.054-0.41-0.161
		S114.325,100.557,114.325,100.338z M115.379,108.5h-0.973v-6.422h0.973V108.5z"/>
	<path fill="#696A6A" d="M121.284,106.748c0,0.598-0.223,1.059-0.668,1.383s-1.07,0.486-1.875,0.486
		c-0.852,0-1.516-0.135-1.992-0.404v-0.902c0.309,0.156,0.64,0.279,0.993,0.369s0.694,0.135,1.022,0.135
		c0.508,0,0.898-0.081,1.172-0.243s0.41-0.409,0.41-0.741c0-0.25-0.108-0.464-0.325-0.642s-0.64-0.388-1.269-0.63
		c-0.598-0.223-1.022-0.417-1.274-0.583s-0.439-0.354-0.562-0.565s-0.185-0.463-0.185-0.756c0-0.523,0.213-0.937,0.639-1.239
		s1.01-0.454,1.752-0.454c0.691,0,1.367,0.141,2.027,0.422l-0.346,0.791c-0.645-0.266-1.229-0.398-1.752-0.398
		c-0.461,0-0.809,0.072-1.043,0.217s-0.352,0.344-0.352,0.598c0,0.172,0.044,0.318,0.132,0.439s0.229,0.236,0.425,0.346
		s0.57,0.268,1.125,0.475c0.762,0.277,1.276,0.557,1.544,0.838S121.284,106.322,121.284,106.748z"/>
	<path fill="#696A6A" d="M64.5,109.701v-0.598h57.035v0.598H64.5z"/>
</g>
<path fill="#818386" d="M29.887,14.751c-12.613,0-22.875,10.263-22.875,22.874c0,12.613,10.262,22.875,22.875,22.875
	c12.611,0,22.873-10.261,22.873-22.875C52.76,25.014,42.498,14.751,29.887,14.751 M29.887,54.262
	c-9.174,0-16.637-7.463-16.637-16.636c0-9.173,7.463-16.636,16.637-16.636c9.172,0,16.635,7.463,16.635,16.636
	C46.521,46.799,39.059,54.262,29.887,54.262 M34.045,37.625c0,1.536-0.841,2.862-2.08,3.583v1.851c0,0.574-0.467,1.084-1.039,1.084
	h-2.079c-0.574,0-1.041-0.511-1.041-1.084v-1.851c-1.238-0.722-2.079-2.048-2.079-3.583c0-1.535,0.841-2.861,2.079-3.583v-7.574
	c0-0.574,0.467-1.04,1.041-1.04h2.079c0.572,0,1.039,0.466,1.039,1.04v7.574C33.204,34.765,34.045,36.09,34.045,37.625
	 M29.887,10.678c-1.057,0-3.137,0.073-4.16,0.195V5.739c0-0.571,0.468-1.104,1.04-1.104h6.238c0.572,0,1.04,0.533,1.04,1.104v5.134
	C33.021,10.751,30.941,10.678,29.887,10.678 M54.058,18.482l-3.078,3.077c-0.636-0.808-1.322-1.595-2.069-2.34
	c-0.746-0.746-1.532-1.433-2.344-2.07l3.078-3.077c0.406-0.402,1.068-0.402,1.473,0l2.94,2.94
	C54.462,17.416,54.462,18.079,54.058,18.482"/>
</svg>
