<?xml version="1.0" encoding="utf-8"?>
<!-- Generator: Adobe Illustrator 15.0.0, SVG Export Plug-In . SVG Version: 6.00 Build 0)  -->
<!DOCTYPE svg PUBLIC "-//W3C//DTD SVG 1.1//EN" "http://www.w3.org/Graphics/SVG/1.1/DTD/svg11.dtd">
<svg version="1.1" id="Layer_1" xmlns="http://www.w3.org/2000/svg" xmlns:xlink="http://www.w3.org/1999/xlink" x="0px" y="0px"
	 width="230px" height="115px" viewBox="0 0 230 115" enable-background="new 0 0 230 115" xml:space="preserve">
<g>
	<g>
		<path fill="#696A6A" d="M79.586,25.956v2.341h-2.542v2.692h2.292v2.342h-2.292v5.234h-2.492V25.956H79.586z"/>
		<path fill="#696A6A" d="M81.144,38.565V25.956h2.509c1.588,0,4.432,0.167,4.432,3.612c0,1.388-0.552,2.575-1.79,3.261l2.191,5.736
			H85.86l-2.191-5.82h-0.034v5.82H81.144z M83.636,31.374l0.435,0.017c1.137,0,1.589-0.77,1.589-1.806
			c0-0.903-0.435-1.64-1.689-1.572h-0.335V31.374z"/>
		<path fill="#696A6A" d="M95.028,25.956v2.341h-2.525v2.743h2.225v2.341h-2.225v2.843h2.559v2.342h-5.051V25.956H95.028z"/>
		<path fill="#696A6A" d="M102.356,25.956v2.341h-1.974v10.269h-2.492V28.297h-1.957v-2.341H102.356z"/>
		<path fill="#696A6A" d="M108.513,25.956v2.341h-2.525v2.743h2.225v2.341h-2.225v2.843h2.559v2.342h-5.051V25.956H108.513z"/>
		<path fill="#696A6A" d="M122.247,31.541v0.987c0,2.676-0.652,6.237-4.047,6.237c-3.395,0-4.499-3.646-4.499-6.438
			c0-2.91,0.937-6.572,4.499-6.572c1.923,0,3.177,1.204,3.712,2.993l-2.424,0.937c-0.117-0.635-0.318-1.622-1.271-1.622
			c-1.689-0.1-1.856,3.011-1.856,4.198c0,1.304,0.084,4.197,1.923,4.197c1.271,0,1.473-1.706,1.473-2.575h-1.59v-2.342H122.247z"/>
		<path fill="#696A6A" d="M123.572,38.565V25.956h2.508c1.589,0,4.432,0.167,4.432,3.612c0,1.388-0.552,2.575-1.789,3.261
			l2.191,5.736h-2.626l-2.19-5.82h-0.034v5.82H123.572z M126.063,31.374l0.435,0.017c1.138,0,1.589-0.77,1.589-1.806
			c0-0.903-0.435-1.64-1.688-1.572h-0.335V31.374z"/>
		<path fill="#696A6A" d="M137.238,25.956l3.027,12.609h-2.659l-0.468-2.124h-2.525l-0.451,2.124h-2.476l2.927-12.609H137.238z
			 M137.874,22.979l-2.157,2.309l-1.154-0.669l1.605-2.408L137.874,22.979z M136.135,31.106l-0.284-1.906h-0.033l-0.268,1.906
			l-0.535,3.361h1.756L136.135,31.106z"/>
		<path fill="#696A6A" d="M146.14,25.956v2.341h-1.974v10.269h-2.492V28.297h-1.956v-2.341H146.14z"/>
		<path fill="#696A6A" d="M149.771,25.956v12.609h-2.491V25.956H149.771z"/>
		<path fill="#696A6A" d="M156.729,28.799c-0.501-0.435-1.12-0.803-1.806-0.803c-0.77,0-1.255,0.468-1.255,1.237
			c0,2.074,3.797,2.19,3.797,5.603c0,2.241-1.288,3.93-3.629,3.93c-0.703,0-1.572-0.217-2.141-0.635v-2.375
			c0.585,0.401,1.153,0.669,1.89,0.669c0.803,0,1.438-0.535,1.438-1.371c0-0.971-0.77-1.338-1.472-1.84
			c-1.438-0.97-2.325-1.906-2.325-3.746c0-1.99,1.154-3.713,3.295-3.713c0.803,0,1.521,0.218,2.207,0.619V28.799z"/>
		<path fill="#696A6A" d="M161.732,25.956v1.989l1.655-1.053l0.535,0.937l-1.756,0.97l1.756,0.986l-0.535,0.953l-1.655-1.087v2.058
			h-1.07v-2.058l-1.723,1.087l-0.535-0.953l1.739-0.986l-1.739-0.97l0.535-0.937l1.723,1.053v-1.989H161.732z"/>
	</g>
</g>
<g>
	<path fill="#696A6A" d="M81.609,53.55c0,0.867-0.296,1.534-0.888,2.001s-1.438,0.7-2.54,0.7h-1.008v3.369h-0.996v-8.566h2.221
		C80.539,51.054,81.609,51.886,81.609,53.55z M77.174,55.396h0.896c0.883,0,1.521-0.143,1.916-0.428s0.592-0.742,0.592-1.371
		c0-0.566-0.186-0.988-0.557-1.266s-0.949-0.416-1.734-0.416h-1.113V55.396z"/>
	<path fill="#696A6A" d="M86.905,59.62l-0.193-0.914h-0.047c-0.32,0.402-0.64,0.675-0.958,0.817s-0.716,0.214-1.192,0.214
		c-0.637,0-1.136-0.164-1.497-0.492s-0.542-0.795-0.542-1.4c0-1.297,1.037-1.977,3.111-2.039l1.09-0.035v-0.398
		c0-0.504-0.108-0.876-0.325-1.116s-0.563-0.36-1.04-0.36c-0.535,0-1.141,0.164-1.816,0.492l-0.299-0.744
		c0.316-0.172,0.663-0.307,1.04-0.404s0.755-0.146,1.134-0.146c0.766,0,1.333,0.17,1.702,0.51s0.554,0.885,0.554,1.635v4.383H86.905
		z M84.708,58.935c0.605,0,1.081-0.166,1.427-0.498s0.519-0.797,0.519-1.395v-0.58l-0.973,0.041
		c-0.773,0.027-1.331,0.147-1.673,0.36s-0.513,0.544-0.513,0.993c0,0.352,0.106,0.619,0.319,0.803S84.325,58.935,84.708,58.935z"/>
	<path fill="#696A6A" d="M92.259,53.081c0.285,0,0.541,0.023,0.768,0.07l-0.135,0.902c-0.266-0.059-0.5-0.088-0.703-0.088
		c-0.52,0-0.964,0.211-1.333,0.633s-0.554,0.947-0.554,1.576v3.445H89.33v-6.422h0.803l0.111,1.189h0.047
		c0.238-0.418,0.525-0.74,0.861-0.967S91.857,53.081,92.259,53.081z"/>
	<path fill="#696A6A" d="M97.877,59.62l-0.193-0.914h-0.047c-0.32,0.402-0.64,0.675-0.958,0.817s-0.716,0.214-1.192,0.214
		c-0.637,0-1.136-0.164-1.497-0.492s-0.542-0.795-0.542-1.4c0-1.297,1.037-1.977,3.111-2.039l1.09-0.035v-0.398
		c0-0.504-0.108-0.876-0.325-1.116s-0.563-0.36-1.04-0.36c-0.535,0-1.141,0.164-1.816,0.492l-0.299-0.744
		c0.316-0.172,0.663-0.307,1.04-0.404s0.755-0.146,1.134-0.146c0.766,0,1.333,0.17,1.702,0.51s0.554,0.885,0.554,1.635v4.383H97.877
		z M95.68,58.935c0.605,0,1.081-0.166,1.427-0.498s0.519-0.797,0.519-1.395v-0.58l-0.973,0.041c-0.773,0.027-1.331,0.147-1.673,0.36
		s-0.513,0.544-0.513,0.993c0,0.352,0.106,0.619,0.319,0.803S95.297,58.935,95.68,58.935z"/>
	<path fill="#696A6A" d="M105.193,58.935c0.172,0,0.338-0.013,0.498-0.038s0.287-0.052,0.381-0.079v0.744
		c-0.105,0.051-0.261,0.093-0.466,0.126s-0.39,0.05-0.554,0.05c-1.242,0-1.863-0.654-1.863-1.963v-3.82h-0.92v-0.469l0.92-0.404
		l0.41-1.371h0.562v1.488h1.863v0.756h-1.863v3.779c0,0.387,0.092,0.684,0.275,0.891S104.873,58.935,105.193,58.935z"/>
	<path fill="#696A6A" d="M112.599,56.403c0,1.047-0.264,1.864-0.791,2.452s-1.256,0.882-2.186,0.882
		c-0.574,0-1.084-0.135-1.529-0.404s-0.789-0.656-1.031-1.16s-0.363-1.094-0.363-1.77c0-1.047,0.262-1.862,0.785-2.446
		s1.25-0.876,2.18-0.876c0.898,0,1.612,0.299,2.142,0.896S112.599,55.384,112.599,56.403z M107.706,56.403
		c0,0.82,0.164,1.445,0.492,1.875s0.811,0.645,1.447,0.645s1.12-0.214,1.45-0.642s0.495-1.054,0.495-1.878
		c0-0.816-0.165-1.437-0.495-1.86s-0.817-0.636-1.462-0.636c-0.637,0-1.117,0.209-1.441,0.627S107.706,55.575,107.706,56.403z"/>
	<path fill="#696A6A" d="M118.375,58.759h-0.053c-0.449,0.652-1.121,0.979-2.016,0.979c-0.84,0-1.494-0.287-1.96-0.861
		s-0.7-1.391-0.7-2.449s0.234-1.881,0.703-2.467s1.121-0.879,1.958-0.879c0.871,0,1.539,0.316,2.004,0.949h0.076l-0.041-0.463
		l-0.023-0.451v-2.613h0.973v9.117h-0.791L118.375,58.759z M116.43,58.923c0.664,0,1.145-0.181,1.443-0.542s0.449-0.944,0.449-1.749
		v-0.205c0-0.91-0.152-1.56-0.455-1.948s-0.785-0.583-1.449-0.583c-0.571,0-1.007,0.222-1.31,0.665s-0.454,1.069-0.454,1.878
		c0,0.82,0.15,1.439,0.451,1.857S115.847,58.923,116.43,58.923z"/>
	<path fill="#696A6A" d="M126.6,56.403c0,1.047-0.264,1.864-0.791,2.452s-1.256,0.882-2.186,0.882c-0.574,0-1.084-0.135-1.529-0.404
		s-0.789-0.656-1.031-1.16s-0.363-1.094-0.363-1.77c0-1.047,0.262-1.862,0.785-2.446s1.25-0.876,2.18-0.876
		c0.898,0,1.613,0.299,2.143,0.896S126.6,55.384,126.6,56.403z M121.707,56.403c0,0.82,0.164,1.445,0.492,1.875
		s0.811,0.645,1.447,0.645s1.121-0.214,1.451-0.642s0.494-1.054,0.494-1.878c0-0.816-0.164-1.437-0.494-1.86
		s-0.818-0.636-1.463-0.636c-0.637,0-1.117,0.209-1.441,0.627S121.707,55.575,121.707,56.403z"/>
	<path fill="#696A6A" d="M136.365,56.403c0,1.047-0.264,1.864-0.791,2.452s-1.256,0.882-2.186,0.882
		c-0.574,0-1.084-0.135-1.529-0.404s-0.789-0.656-1.031-1.16s-0.363-1.094-0.363-1.77c0-1.047,0.262-1.862,0.785-2.446
		s1.25-0.876,2.18-0.876c0.898,0,1.612,0.299,2.142,0.896S136.365,55.384,136.365,56.403z M131.473,56.403
		c0,0.82,0.164,1.445,0.492,1.875s0.811,0.645,1.447,0.645s1.12-0.214,1.45-0.642s0.495-1.054,0.495-1.878
		c0-0.816-0.165-1.437-0.495-1.86s-0.817-0.636-1.462-0.636c-0.637,0-1.117,0.209-1.441,0.627S131.473,55.575,131.473,56.403z"/>
	<path fill="#696A6A" d="M140.734,51.054h2.42c1.137,0,1.959,0.17,2.467,0.51s0.762,0.877,0.762,1.611
		c0,0.508-0.142,0.927-0.425,1.257s-0.696,0.544-1.239,0.642v0.059c1.301,0.223,1.951,0.906,1.951,2.051
		c0,0.766-0.259,1.363-0.776,1.793s-1.241,0.645-2.171,0.645h-2.988V51.054z M141.73,54.722h1.641c0.703,0,1.209-0.11,1.518-0.331
		s0.463-0.593,0.463-1.116c0-0.48-0.172-0.827-0.516-1.04s-0.891-0.319-1.641-0.319h-1.465V54.722z M141.73,55.565v3.205h1.787
		c0.691,0,1.212-0.134,1.562-0.401s0.524-0.687,0.524-1.257c0-0.531-0.179-0.922-0.536-1.172s-0.901-0.375-1.632-0.375H141.73z"/>
	<path fill="#696A6A" d="M150.992,53.081c0.285,0,0.541,0.023,0.768,0.07l-0.135,0.902c-0.266-0.059-0.5-0.088-0.703-0.088
		c-0.52,0-0.964,0.211-1.333,0.633s-0.554,0.947-0.554,1.576v3.445h-0.973v-6.422h0.803l0.111,1.189h0.047
		c0.238-0.418,0.525-0.74,0.861-0.967S150.59,53.081,150.992,53.081z"/>
	<path fill="#696A6A" d="M156.61,59.62l-0.193-0.914h-0.047c-0.32,0.402-0.64,0.675-0.958,0.817s-0.716,0.214-1.192,0.214
		c-0.637,0-1.136-0.164-1.497-0.492s-0.542-0.795-0.542-1.4c0-1.297,1.037-1.977,3.111-2.039l1.09-0.035v-0.398
		c0-0.504-0.108-0.876-0.325-1.116s-0.563-0.36-1.04-0.36c-0.535,0-1.141,0.164-1.816,0.492l-0.299-0.744
		c0.316-0.172,0.663-0.307,1.04-0.404s0.755-0.146,1.134-0.146c0.766,0,1.333,0.17,1.702,0.51s0.554,0.885,0.554,1.635v4.383H156.61
		z M154.413,58.935c0.605,0,1.081-0.166,1.427-0.498s0.519-0.797,0.519-1.395v-0.58l-0.973,0.041
		c-0.773,0.027-1.331,0.147-1.673,0.36s-0.513,0.544-0.513,0.993c0,0.352,0.106,0.619,0.319,0.803S154.03,58.935,154.413,58.935z"/>
	<path fill="#696A6A" d="M163.178,57.868c0,0.598-0.223,1.059-0.668,1.383s-1.07,0.486-1.875,0.486
		c-0.852,0-1.516-0.135-1.992-0.404v-0.902c0.309,0.156,0.64,0.279,0.993,0.369s0.694,0.135,1.022,0.135
		c0.508,0,0.898-0.081,1.172-0.243s0.41-0.409,0.41-0.741c0-0.25-0.108-0.464-0.325-0.642s-0.64-0.388-1.269-0.63
		c-0.598-0.223-1.022-0.417-1.274-0.583s-0.439-0.354-0.562-0.565s-0.185-0.463-0.185-0.756c0-0.523,0.213-0.937,0.639-1.239
		s1.01-0.454,1.752-0.454c0.691,0,1.367,0.141,2.027,0.422l-0.346,0.791c-0.645-0.266-1.229-0.398-1.752-0.398
		c-0.461,0-0.809,0.072-1.043,0.217s-0.352,0.344-0.352,0.598c0,0.172,0.044,0.318,0.132,0.439s0.229,0.236,0.425,0.346
		s0.57,0.268,1.125,0.475c0.762,0.277,1.276,0.557,1.544,0.838S163.178,57.442,163.178,57.868z"/>
	<path fill="#696A6A" d="M164.378,51.458c0-0.223,0.055-0.386,0.164-0.489s0.246-0.155,0.41-0.155c0.156,0,0.291,0.053,0.404,0.158
		s0.17,0.268,0.17,0.486s-0.057,0.382-0.17,0.489s-0.248,0.161-0.404,0.161c-0.164,0-0.301-0.054-0.41-0.161
		S164.378,51.677,164.378,51.458z M165.433,59.62h-0.973v-6.422h0.973V59.62z"/>
	<path fill="#696A6A" d="M168.168,59.62h-0.973v-9.117h0.973V59.62z"/>
	<path fill="#696A6A" d="M169.789,58.999c0-0.531,0.234-0.797,0.703-0.797c0.227,0,0.401,0.068,0.524,0.205s0.185,0.334,0.185,0.592
		c0,0.25-0.062,0.444-0.188,0.583s-0.299,0.208-0.521,0.208c-0.203,0-0.371-0.062-0.504-0.185S169.789,59.28,169.789,58.999z
		 M170.809,57.259h-0.615l-0.299-6.205h1.213L170.809,57.259z"/>
	<path fill="#696A6A" d="M78.85,64.131l-0.252,2.314l2.332-0.65l0.152,1.066l-2.232,0.182l1.453,1.91l-1.008,0.551l-1.031-2.121
		l-0.938,2.121l-1.031-0.551l1.418-1.91l-2.209-0.182l0.17-1.066l2.291,0.65l-0.252-2.314H78.85z"/>
	<path fill="#696A6A" d="M87.392,64.682h1.072l-3.088,8.566h-0.984l-3.07-8.566h1.055l1.969,5.543
		c0.227,0.637,0.406,1.256,0.539,1.857c0.141-0.633,0.324-1.264,0.551-1.893L87.392,64.682z"/>
	<path fill="#696A6A" d="M91.908,73.365c-0.949,0-1.698-0.289-2.247-0.867s-0.823-1.381-0.823-2.408
		c0-1.035,0.255-1.857,0.765-2.467s1.194-0.914,2.054-0.914c0.805,0,1.441,0.265,1.91,0.794s0.703,1.228,0.703,2.095v0.615h-4.424
		c0.02,0.754,0.21,1.326,0.571,1.717s0.87,0.586,1.526,0.586c0.691,0,1.375-0.145,2.051-0.434v0.867
		c-0.344,0.148-0.669,0.255-0.976,0.319S92.341,73.365,91.908,73.365z M91.644,67.523c-0.516,0-0.927,0.168-1.233,0.504
		s-0.487,0.801-0.542,1.395h3.357c0-0.613-0.137-1.083-0.41-1.409S92.152,67.523,91.644,67.523z"/>
	<path fill="#696A6A" d="M94.848,76.131c-0.371,0-0.672-0.049-0.902-0.146v-0.791c0.27,0.078,0.535,0.117,0.797,0.117
		c0.305,0,0.528-0.083,0.671-0.249s0.214-0.419,0.214-0.759v-7.477H96.6v7.406C96.6,75.498,96.016,76.131,94.848,76.131z
		 M95.545,65.086c0-0.223,0.055-0.386,0.164-0.489s0.246-0.155,0.41-0.155c0.156,0,0.291,0.053,0.404,0.158s0.17,0.268,0.17,0.486
		s-0.057,0.382-0.17,0.489s-0.248,0.161-0.404,0.161c-0.164,0-0.301-0.054-0.41-0.161S95.545,65.305,95.545,65.086z"/>
	<path fill="#696A6A" d="M102.312,73.248l-0.193-0.914h-0.047c-0.32,0.402-0.64,0.675-0.958,0.817s-0.716,0.214-1.192,0.214
		c-0.637,0-1.136-0.164-1.497-0.492s-0.542-0.795-0.542-1.4c0-1.297,1.037-1.977,3.111-2.039l1.09-0.035V69
		c0-0.504-0.108-0.876-0.325-1.116s-0.563-0.36-1.04-0.36c-0.535,0-1.141,0.164-1.816,0.492l-0.299-0.744
		c0.316-0.172,0.663-0.307,1.04-0.404s0.755-0.146,1.134-0.146c0.766,0,1.333,0.17,1.702,0.51s0.554,0.885,0.554,1.635v4.383
		H102.312z M100.114,72.562c0.605,0,1.081-0.166,1.427-0.498s0.519-0.797,0.519-1.395v-0.58l-0.973,0.041
		c-0.773,0.027-1.331,0.147-1.673,0.36s-0.513,0.544-0.513,0.993c0,0.352,0.106,0.619,0.319,0.803S99.731,72.562,100.114,72.562z"/>
	<path fill="#696A6A" d="M113.097,70.031c0,1.047-0.264,1.864-0.791,2.452s-1.256,0.882-2.186,0.882
		c-0.574,0-1.084-0.135-1.529-0.404s-0.789-0.656-1.031-1.16s-0.363-1.094-0.363-1.77c0-1.047,0.262-1.862,0.785-2.446
		s1.25-0.876,2.18-0.876c0.898,0,1.612,0.299,2.142,0.896S113.097,69.012,113.097,70.031z M108.204,70.031
		c0,0.82,0.164,1.445,0.492,1.875s0.811,0.645,1.447,0.645s1.12-0.214,1.45-0.642s0.495-1.054,0.495-1.878
		c0-0.816-0.165-1.437-0.495-1.86s-0.817-0.636-1.462-0.636c-0.637,0-1.117,0.209-1.441,0.627S108.204,69.203,108.204,70.031z"/>
	<path fill="#696A6A" d="M120.248,66.709c0.285,0,0.541,0.023,0.768,0.07l-0.135,0.902c-0.266-0.059-0.5-0.088-0.703-0.088
		c-0.52,0-0.963,0.211-1.332,0.633s-0.555,0.947-0.555,1.576v3.445h-0.973v-6.422h0.803l0.111,1.189h0.047
		c0.238-0.418,0.525-0.74,0.861-0.967S119.846,66.709,120.248,66.709z"/>
	<path fill="#696A6A" d="M124.63,73.365c-0.949,0-1.698-0.289-2.247-0.867s-0.823-1.381-0.823-2.408
		c0-1.035,0.255-1.857,0.765-2.467s1.194-0.914,2.054-0.914c0.805,0,1.441,0.265,1.91,0.794s0.703,1.228,0.703,2.095v0.615h-4.424
		c0.02,0.754,0.21,1.326,0.571,1.717s0.87,0.586,1.526,0.586c0.691,0,1.375-0.145,2.051-0.434v0.867
		c-0.344,0.148-0.669,0.255-0.976,0.319S125.063,73.365,124.63,73.365z M124.366,67.523c-0.516,0-0.927,0.168-1.233,0.504
		s-0.487,0.801-0.542,1.395h3.357c0-0.613-0.137-1.083-0.41-1.409S124.874,67.523,124.366,67.523z"/>
	<path fill="#696A6A" d="M133.605,66.826v0.615l-1.189,0.141c0.109,0.137,0.207,0.315,0.293,0.536s0.129,0.47,0.129,0.747
		c0,0.629-0.215,1.131-0.645,1.506s-1.02,0.562-1.77,0.562c-0.191,0-0.371-0.016-0.539-0.047c-0.414,0.219-0.621,0.494-0.621,0.826
		c0,0.176,0.072,0.306,0.217,0.39s0.393,0.126,0.744,0.126h1.137c0.695,0,1.229,0.146,1.603,0.439s0.56,0.719,0.56,1.277
		c0,0.711-0.285,1.253-0.855,1.626s-1.402,0.56-2.496,0.56c-0.84,0-1.487-0.156-1.942-0.469s-0.683-0.754-0.683-1.324
		c0-0.391,0.125-0.729,0.375-1.014s0.602-0.479,1.055-0.58c-0.164-0.074-0.302-0.189-0.413-0.346s-0.167-0.338-0.167-0.545
		c0-0.234,0.062-0.439,0.188-0.615s0.322-0.346,0.592-0.51c-0.332-0.137-0.603-0.369-0.812-0.697s-0.313-0.703-0.313-1.125
		c0-0.703,0.211-1.245,0.633-1.626s1.02-0.571,1.793-0.571c0.336,0,0.639,0.039,0.908,0.117H133.605z M128.484,74.326
		c0,0.348,0.146,0.611,0.439,0.791s0.713,0.27,1.26,0.27c0.816,0,1.421-0.122,1.813-0.366s0.589-0.575,0.589-0.993
		c0-0.348-0.107-0.589-0.322-0.724s-0.619-0.202-1.213-0.202h-1.166c-0.441,0-0.785,0.105-1.031,0.316
		S128.484,73.932,128.484,74.326z M129.012,68.883c0,0.449,0.127,0.789,0.381,1.02s0.607,0.346,1.061,0.346
		c0.949,0,1.424-0.461,1.424-1.383c0-0.965-0.48-1.447-1.441-1.447c-0.457,0-0.809,0.123-1.055,0.369S129.012,68.398,129.012,68.883
		z"/>
	<path fill="#696A6A" d="M135.538,66.826v4.166c0,0.523,0.119,0.914,0.357,1.172s0.611,0.387,1.119,0.387
		c0.672,0,1.163-0.184,1.474-0.551s0.466-0.967,0.466-1.799v-3.375h0.973v6.422h-0.803l-0.141-0.861h-0.053
		c-0.199,0.316-0.476,0.559-0.829,0.727s-0.757,0.252-1.21,0.252c-0.781,0-1.366-0.186-1.755-0.557s-0.583-0.965-0.583-1.781v-4.201
		H135.538z"/>
	<path fill="#696A6A" d="M142.662,73.248h-0.973v-9.117h0.973V73.248z"/>
	<path fill="#696A6A" d="M148.373,73.248l-0.193-0.914h-0.047c-0.32,0.402-0.64,0.675-0.958,0.817s-0.716,0.214-1.192,0.214
		c-0.637,0-1.136-0.164-1.497-0.492s-0.542-0.795-0.542-1.4c0-1.297,1.037-1.977,3.111-2.039l1.09-0.035V69
		c0-0.504-0.108-0.876-0.325-1.116s-0.563-0.36-1.04-0.36c-0.535,0-1.141,0.164-1.816,0.492l-0.299-0.744
		c0.316-0.172,0.663-0.307,1.04-0.404s0.755-0.146,1.134-0.146c0.766,0,1.333,0.17,1.702,0.51s0.554,0.885,0.554,1.635v4.383
		H148.373z M146.176,72.562c0.605,0,1.081-0.166,1.427-0.498s0.519-0.797,0.519-1.395v-0.58l-0.973,0.041
		c-0.773,0.027-1.331,0.147-1.673,0.36s-0.513,0.544-0.513,0.993c0,0.352,0.106,0.619,0.319,0.803S145.793,72.562,146.176,72.562z"
		/>
	<path fill="#696A6A" d="M158.983,73.248V69.07c0-0.512-0.109-0.896-0.328-1.151s-0.559-0.384-1.02-0.384
		c-0.605,0-1.053,0.174-1.342,0.521s-0.434,0.883-0.434,1.605v3.586h-0.973V69.07c0-0.512-0.109-0.896-0.328-1.151
		s-0.561-0.384-1.025-0.384c-0.609,0-1.056,0.183-1.339,0.548s-0.425,0.964-0.425,1.796v3.369h-0.973v-6.422h0.791l0.158,0.879
		h0.047c0.184-0.312,0.442-0.557,0.776-0.732s0.708-0.264,1.122-0.264c1.004,0,1.66,0.363,1.969,1.09h0.047
		c0.191-0.336,0.469-0.602,0.832-0.797s0.777-0.293,1.242-0.293c0.727,0,1.271,0.187,1.632,0.56s0.542,0.97,0.542,1.79v4.189
		H158.983z"/>
	<path fill="#696A6A" d="M164.373,73.365c-0.949,0-1.698-0.289-2.247-0.867s-0.823-1.381-0.823-2.408
		c0-1.035,0.255-1.857,0.765-2.467s1.194-0.914,2.054-0.914c0.805,0,1.441,0.265,1.91,0.794s0.703,1.228,0.703,2.095v0.615h-4.424
		c0.02,0.754,0.21,1.326,0.571,1.717s0.87,0.586,1.526,0.586c0.691,0,1.375-0.145,2.051-0.434v0.867
		c-0.344,0.148-0.669,0.255-0.976,0.319S164.807,73.365,164.373,73.365z M164.109,67.523c-0.516,0-0.927,0.168-1.233,0.504
		s-0.487,0.801-0.542,1.395h3.357c0-0.613-0.137-1.083-0.41-1.409S164.617,67.523,164.109,67.523z"/>
	<path fill="#696A6A" d="M172.487,73.248v-4.154c0-0.523-0.119-0.914-0.357-1.172s-0.611-0.387-1.119-0.387
		c-0.672,0-1.164,0.182-1.477,0.545s-0.469,0.963-0.469,1.799v3.369h-0.973v-6.422h0.791l0.158,0.879h0.047
		c0.199-0.316,0.479-0.562,0.838-0.735s0.76-0.261,1.201-0.261c0.773,0,1.355,0.187,1.746,0.56s0.586,0.97,0.586,1.79v4.189H172.487
		z"/>
	<path fill="#696A6A" d="M177.232,72.562c0.172,0,0.338-0.013,0.498-0.038s0.287-0.052,0.381-0.079v0.744
		c-0.105,0.051-0.261,0.093-0.466,0.126s-0.39,0.05-0.554,0.05c-1.242,0-1.863-0.654-1.863-1.963v-3.82h-0.92v-0.469l0.92-0.404
		l0.41-1.371h0.562v1.488h1.863v0.756h-1.863v3.779c0,0.387,0.092,0.684,0.275,0.891S176.912,72.562,177.232,72.562z"/>
	<path fill="#696A6A" d="M184.637,70.031c0,1.047-0.264,1.864-0.791,2.452s-1.256,0.882-2.186,0.882
		c-0.574,0-1.084-0.135-1.529-0.404s-0.789-0.656-1.031-1.16s-0.363-1.094-0.363-1.77c0-1.047,0.262-1.862,0.785-2.446
		s1.25-0.876,2.18-0.876c0.898,0,1.612,0.299,2.142,0.896S184.637,69.012,184.637,70.031z M179.744,70.031
		c0,0.82,0.164,1.445,0.492,1.875s0.811,0.645,1.447,0.645s1.12-0.214,1.45-0.642s0.495-1.054,0.495-1.878
		c0-0.816-0.165-1.437-0.495-1.86s-0.817-0.636-1.462-0.636c-0.637,0-1.117,0.209-1.441,0.627S179.744,69.203,179.744,70.031z"/>
</g>
<g>
	<path fill="#696A6A" d="M82.512,106.221c0,0.754-0.273,1.342-0.82,1.764s-1.289,0.633-2.227,0.633
		c-1.016,0-1.797-0.131-2.344-0.393v-0.961c0.352,0.148,0.734,0.266,1.148,0.352s0.824,0.129,1.23,0.129
		c0.664,0,1.164-0.126,1.5-0.378s0.504-0.603,0.504-1.052c0-0.297-0.06-0.54-0.179-0.729s-0.318-0.364-0.598-0.524
		s-0.704-0.342-1.274-0.545c-0.797-0.285-1.366-0.623-1.708-1.014s-0.513-0.9-0.513-1.529c0-0.66,0.248-1.186,0.744-1.576
		s1.152-0.586,1.969-0.586c0.852,0,1.635,0.156,2.35,0.469l-0.311,0.867c-0.707-0.297-1.395-0.445-2.062-0.445
		c-0.527,0-0.939,0.113-1.236,0.34s-0.445,0.541-0.445,0.943c0,0.297,0.055,0.54,0.164,0.729s0.294,0.363,0.554,0.521
		s0.657,0.333,1.192,0.524c0.898,0.32,1.517,0.664,1.854,1.031S82.512,105.635,82.512,106.221z"/>
	<path fill="#696A6A" d="M87.767,108.5l-0.193-0.914h-0.047c-0.32,0.402-0.64,0.675-0.958,0.817s-0.716,0.214-1.192,0.214
		c-0.637,0-1.136-0.164-1.497-0.492s-0.542-0.795-0.542-1.4c0-1.297,1.037-1.977,3.111-2.039l1.09-0.035v-0.398
		c0-0.504-0.108-0.876-0.325-1.116s-0.563-0.36-1.04-0.36c-0.535,0-1.141,0.164-1.816,0.492l-0.299-0.744
		c0.316-0.172,0.663-0.307,1.04-0.404s0.755-0.146,1.134-0.146c0.766,0,1.333,0.17,1.702,0.51s0.554,0.885,0.554,1.635v4.383H87.767
		z M85.569,107.814c0.605,0,1.081-0.166,1.427-0.498s0.519-0.797,0.519-1.395v-0.58l-0.973,0.041
		c-0.773,0.027-1.331,0.147-1.673,0.36s-0.513,0.544-0.513,0.993c0,0.352,0.106,0.619,0.319,0.803S85.187,107.814,85.569,107.814z"
		/>
	<path fill="#696A6A" d="M90.109,100.338c0-0.223,0.055-0.386,0.164-0.489s0.246-0.155,0.41-0.155c0.156,0,0.291,0.053,0.404,0.158
		s0.17,0.268,0.17,0.486s-0.057,0.382-0.17,0.489s-0.248,0.161-0.404,0.161c-0.164,0-0.301-0.054-0.41-0.161
		S90.109,100.557,90.109,100.338z M91.164,108.5h-0.973v-6.422h0.973V108.5z"/>
	<path fill="#696A6A" d="M95.915,101.973c0.844,0,1.499,0.288,1.966,0.864s0.7,1.392,0.7,2.446s-0.235,1.874-0.706,2.458
		s-1.124,0.876-1.96,0.876c-0.418,0-0.8-0.077-1.146-0.231s-0.636-0.392-0.87-0.712h-0.07l-0.205,0.826h-0.697v-9.117h0.973v2.215
		c0,0.496-0.016,0.941-0.047,1.336h0.047C94.352,102.293,95.024,101.973,95.915,101.973z M95.774,102.787
		c-0.664,0-1.143,0.19-1.436,0.571s-0.439,1.022-0.439,1.925s0.15,1.548,0.451,1.937s0.783,0.583,1.447,0.583
		c0.598,0,1.043-0.218,1.336-0.653s0.439-1.062,0.439-1.878c0-0.836-0.146-1.459-0.439-1.869S96.387,102.787,95.774,102.787z"/>
	<path fill="#696A6A" d="M103.929,108.5l-0.193-0.914h-0.047c-0.32,0.402-0.64,0.675-0.958,0.817s-0.716,0.214-1.192,0.214
		c-0.637,0-1.136-0.164-1.497-0.492s-0.542-0.795-0.542-1.4c0-1.297,1.037-1.977,3.111-2.039l1.09-0.035v-0.398
		c0-0.504-0.108-0.876-0.325-1.116s-0.563-0.36-1.04-0.36c-0.535,0-1.141,0.164-1.816,0.492l-0.299-0.744
		c0.316-0.172,0.663-0.307,1.04-0.404s0.755-0.146,1.134-0.146c0.766,0,1.333,0.17,1.702,0.51s0.554,0.885,0.554,1.635v4.383
		H103.929z M101.731,107.814c0.605,0,1.081-0.166,1.427-0.498s0.519-0.797,0.519-1.395v-0.58l-0.973,0.041
		c-0.773,0.027-1.331,0.147-1.673,0.36s-0.513,0.544-0.513,0.993c0,0.352,0.106,0.619,0.319,0.803S101.349,107.814,101.731,107.814z
		"/>
	<path fill="#696A6A" d="M117.356,108.5v-4.178c0-0.512-0.109-0.896-0.328-1.151s-0.559-0.384-1.02-0.384
		c-0.605,0-1.053,0.174-1.342,0.521s-0.434,0.883-0.434,1.605v3.586h-0.973v-4.178c0-0.512-0.109-0.896-0.328-1.151
		s-0.561-0.384-1.025-0.384c-0.609,0-1.056,0.183-1.339,0.548s-0.425,0.964-0.425,1.796v3.369h-0.973v-6.422h0.791l0.158,0.879
		h0.047c0.184-0.312,0.442-0.557,0.776-0.732s0.708-0.264,1.122-0.264c1.004,0,1.66,0.363,1.969,1.09h0.047
		c0.191-0.336,0.469-0.602,0.832-0.797s0.777-0.293,1.242-0.293c0.727,0,1.271,0.187,1.632,0.56s0.542,0.97,0.542,1.79v4.189
		H117.356z"/>
	<path fill="#696A6A" d="M123.982,108.5l-0.193-0.914h-0.047c-0.32,0.402-0.641,0.675-0.959,0.817s-0.715,0.214-1.191,0.214
		c-0.637,0-1.137-0.164-1.498-0.492s-0.541-0.795-0.541-1.4c0-1.297,1.037-1.977,3.111-2.039l1.09-0.035v-0.398
		c0-0.504-0.109-0.876-0.326-1.116s-0.562-0.36-1.039-0.36c-0.535,0-1.141,0.164-1.816,0.492l-0.299-0.744
		c0.316-0.172,0.662-0.307,1.039-0.404s0.756-0.146,1.135-0.146c0.766,0,1.332,0.17,1.701,0.51s0.555,0.885,0.555,1.635v4.383
		H123.982z M121.785,107.814c0.605,0,1.08-0.166,1.426-0.498s0.52-0.797,0.52-1.395v-0.58l-0.973,0.041
		c-0.773,0.027-1.332,0.147-1.674,0.36s-0.512,0.544-0.512,0.993c0,0.352,0.105,0.619,0.318,0.803S121.402,107.814,121.785,107.814z
		"/>
	<path fill="#696A6A" d="M126.324,100.338c0-0.223,0.055-0.386,0.164-0.489s0.246-0.155,0.41-0.155c0.156,0,0.291,0.053,0.404,0.158
		s0.17,0.268,0.17,0.486s-0.057,0.382-0.17,0.489s-0.248,0.161-0.404,0.161c-0.164,0-0.301-0.054-0.41-0.161
		S126.324,100.557,126.324,100.338z M127.379,108.5h-0.973v-6.422h0.973V108.5z"/>
	<path fill="#696A6A" d="M133.284,106.748c0,0.598-0.223,1.059-0.668,1.383s-1.07,0.486-1.875,0.486
		c-0.852,0-1.516-0.135-1.992-0.404v-0.902c0.309,0.156,0.64,0.279,0.993,0.369s0.694,0.135,1.022,0.135
		c0.508,0,0.898-0.081,1.172-0.243s0.41-0.409,0.41-0.741c0-0.25-0.108-0.464-0.325-0.642s-0.64-0.388-1.269-0.63
		c-0.598-0.223-1.022-0.417-1.274-0.583s-0.439-0.354-0.562-0.565s-0.185-0.463-0.185-0.756c0-0.523,0.213-0.937,0.639-1.239
		s1.01-0.454,1.752-0.454c0.691,0,1.367,0.141,2.027,0.422l-0.346,0.791c-0.645-0.266-1.229-0.398-1.752-0.398
		c-0.461,0-0.809,0.072-1.043,0.217s-0.352,0.344-0.352,0.598c0,0.172,0.044,0.318,0.132,0.439s0.229,0.236,0.425,0.346
		s0.57,0.268,1.125,0.475c0.762,0.277,1.276,0.557,1.544,0.838S133.284,106.322,133.284,106.748z"/>
	<path fill="#696A6A" d="M76.5,109.701v-0.598h57.035v0.598H76.5z"/>
</g>
<g>
	<path fill="#838588" d="M63.513,40.518c-1.559,0-50.07,0-51.764,0s-1.762-1.219-1.762-1.219V15.042c0,0-0.203-1.355,1.355-1.355
		s41.195,0,41.195,0s1.669-0.169,2.618,1.39c0.948,1.559,3.21,7.419,3.21,7.419s0.473,1.626,1.76,2.304
		c1.289,0.678,4.473,2.168,4.473,2.168s1.219,0.204,1.083,1.897c-0.135,1.695-0.677,9.892-0.677,9.892S65.072,40.518,63.513,40.518z
		"/>
	<circle fill="#838588" cx="20.065" cy="40.128" r="5.539"/>
	<circle fill="#FFFFFF" cx="20.066" cy="40.128" r="3.506"/>
	<circle fill="#838588" cx="55.942" cy="40.128" r="5.539"/>
	<circle fill="#FFFFFF" cx="55.943" cy="40.128" r="3.506"/>
</g>
</svg>
