<?xml version="1.0" encoding="utf-8"?>
<!-- Generator: Adobe Illustrator 15.0.0, SVG Export Plug-In . SVG Version: 6.00 Build 0)  -->
<!DOCTYPE svg PUBLIC "-//W3C//DTD SVG 1.1//EN" "http://www.w3.org/Graphics/SVG/1.1/DTD/svg11.dtd">
<svg version="1.1" id="Layer_1" xmlns="http://www.w3.org/2000/svg" xmlns:xlink="http://www.w3.org/1999/xlink" x="0px" y="0px"
	 width="230px" height="115px" viewBox="0 0 230 115" enable-background="new 0 0 230 115" xml:space="preserve">
<g>
	<g>
		<path fill="#696B6B" d="M67.566,27.896c-0.435-0.317-0.853-0.535-1.421-0.535c-0.92,0-1.488,0.753-1.488,1.623
			c0,0.552,0.134,0.937,0.468,1.371l1.271,1.388c1.137,1.154,1.789,1.99,1.789,3.696c0,1.773-1.104,3.294-2.96,3.294
			c-0.652,0-1.321-0.184-1.839-0.602v-1.689c0.501,0.368,1.003,0.652,1.656,0.652c1.037,0,1.472-0.819,1.472-1.756
			c0-2.509-3.529-3.01-3.529-6.322c0-1.772,0.937-3.228,2.826-3.228c0.635,0,1.238,0.1,1.773,0.418L67.566,27.896z"/>
		<path fill="#696B6B" d="M74.107,25.956v1.455H71.28v3.963h2.525v1.455H71.28v4.281h2.827v1.455h-4.499V25.956H74.107z"/>
		<path fill="#696B6B" d="M77.086,25.956v9.248c0,1.622,0.485,1.957,1.171,1.957c1.154,0,1.254-0.736,1.271-1.773v-9.432H81.2v8.947
			c0,1.656,0.017,3.83-2.894,3.83c-2.659,0-2.893-1.806-2.893-4.08v-8.696L77.086,25.956L77.086,25.956z"/>
		<path fill="#696B6B" d="M86.656,38.565V25.956h2.007c1.438,0,3.278,0.134,3.278,3.378c0,2.559-1.003,3.746-3.612,3.646v5.586
			L86.656,38.565L86.656,38.565z M88.329,27.377v4.181c1.438,0.101,1.84-0.686,1.84-2.09c0-1.137-0.334-2.09-1.605-2.09
			L88.329,27.377L88.329,27.377z"/>
		<path fill="#696B6B" d="M93.147,25.956h2.007c1.221,0,3.127,0.066,3.127,3.228c0,1.188-0.351,2.993-1.739,3.244l2.325,6.138
			h-1.739l-2.274-6.171H94.82v6.171h-1.672L93.147,25.956L93.147,25.956z M96.509,29.551c0-1.204-0.15-2.208-1.421-2.174H94.82
			v4.164C96.074,31.625,96.509,30.822,96.509,29.551z"/>
		<path fill="#696B6B" d="M103.218,25.956l2.709,12.609h-1.689l-0.468-2.458h-2.509l-0.468,2.458h-1.639l2.743-12.609H103.218z
			 M103.184,32.979l-0.635-4.582h-0.034l-1.003,6.405h2.007L103.184,32.979z"/>
		<path fill="#696B6B" d="M112.285,25.956l-3.796,11.154h3.596v1.455h-5.82l3.83-11.155h-3.378v-1.455L112.285,25.956
			L112.285,25.956z"/>
		<path fill="#696B6B" d="M118.105,25.956v1.455h-2.826v3.963h2.525v1.455h-2.525v4.281h2.826v1.455h-4.499V25.956H118.105z"/>
		<path fill="#696B6B" d="M119.414,25.956h2.007c1.222,0,3.127,0.066,3.127,3.228c0,1.188-0.353,2.993-1.739,3.244l2.324,6.138
			h-1.738l-2.274-6.171h-0.033v6.171h-1.672L119.414,25.956L119.414,25.956z M122.775,29.551c0-1.204-0.15-2.208-1.422-2.174h-0.269
			v4.164C122.34,31.625,122.775,30.822,122.775,29.551z"/>
	</g>
</g>
<g>
	<g>
		<path fill="#696B6B" d="M136.236,25.956v2.341h-2.525v2.743h2.225v2.341h-2.225v2.843h2.559v2.341h-5.051V25.956H136.236z"/>
		<path fill="#696B6B" d="M141.657,25.956l1.221,7.442h0.034l1.003-7.442h3.345l1.321,12.609h-2.56l-0.603-9.081h-0.032
			l-0.402,3.111l-1.069,5.97h-1.923l-1.221-6.037l-0.418-2.81v-0.234h-0.035l-0.367,9.081h-2.676l1.104-12.609H141.657z"/>
		<path fill="#696B6B" d="M158.756,25.956l3.026,12.609h-2.659l-0.469-2.124h-2.524l-0.452,2.124h-2.475l2.927-12.609H158.756z
			 M157.65,31.106l-0.283-1.906h-0.033l-0.268,1.906l-0.535,3.362h1.756L157.65,31.106z"/>
		<path fill="#696B6B" d="M167.656,25.956v2.341h-1.975v10.269h-2.492V28.297h-1.955v-2.341H167.656z"/>
		<path fill="#696B6B" d="M173.812,25.956v2.341h-2.525v2.743h2.225v2.341h-2.225v2.843h2.559v2.341h-5.051V25.956H173.812z
			 M173.428,22.979l-2.156,2.308l-1.153-0.669l1.604-2.408L173.428,22.979z"/>
		<path fill="#696B6B" d="M184.035,25.956v12.609h-2.426V28.13h-1.203v-2.174H184.035z"/>
		<path fill="#696B6B" d="M187.634,30.337l-0.034-0.686c0-2.341,0.67-3.914,3.295-3.914c2.092,0,3.396,1.054,3.396,3.228
			c0,1.288-0.451,2.308-1.036,3.429l-2.107,3.997h2.928v2.174h-6.623l2.843-5.218c0.651-1.204,1.623-2.91,1.623-4.298
			c0-0.652-0.201-1.556-1.004-1.556c-0.953,0-1.004,1.355-1.004,2.041l0.034,0.803H187.634z"/>
		<path fill="#696B6B" d="M198.141,25.956l0.719,1.756c0.218,0.619,0.469,1.271,0.603,1.923h0.033
			c0.134-0.652,0.334-1.288,0.567-1.923l0.754-1.756h2.691l-2.691,6.104l2.893,6.505h-2.893l-0.803-2.007
			c-0.234-0.636-0.386-1.254-0.553-1.89h-0.033c-0.185,0.635-0.335,1.254-0.553,1.89l-0.734,2.007h-2.811l2.676-6.505l-2.676-6.104
			H198.141z"/>
	</g>
</g>
<g>
	<path fill="#696B6B" d="M69.311,54.054c0,0.819-0.28,1.45-0.839,1.892c-0.56,0.441-1.359,0.661-2.4,0.661h-0.953v3.185h-0.941
		v-8.096h2.1C68.3,51.695,69.311,52.481,69.311,54.054z M65.119,55.798h0.847c0.835,0,1.438-0.135,1.811-0.404
		c0.374-0.27,0.56-0.702,0.56-1.296c0-0.535-0.176-0.934-0.527-1.197c-0.351-0.262-0.897-0.393-1.639-0.393h-1.052V55.798z"/>
	<path fill="#696B6B" d="M74.316,59.791l-0.183-0.864H74.09c-0.302,0.38-0.605,0.638-0.906,0.772
		c-0.3,0.134-0.676,0.201-1.126,0.201c-0.602,0-1.074-0.155-1.415-0.464c-0.341-0.311-0.512-0.751-0.512-1.323
		c0-1.226,0.98-1.869,2.94-1.927l1.03-0.033v-0.376c0-0.477-0.102-0.828-0.307-1.055c-0.206-0.227-0.532-0.34-0.983-0.34
		c-0.506,0-1.079,0.155-1.716,0.465l-0.283-0.703c0.299-0.163,0.627-0.291,0.983-0.382c0.356-0.091,0.714-0.137,1.072-0.137
		c0.724,0,1.26,0.16,1.608,0.481c0.349,0.321,0.524,0.836,0.524,1.545v4.143h-0.683V59.791z M72.24,59.144
		c0.572,0,1.021-0.156,1.348-0.471c0.327-0.313,0.491-0.753,0.491-1.319v-0.548l-0.919,0.039c-0.73,0.025-1.258,0.139-1.582,0.34
		c-0.323,0.202-0.484,0.514-0.484,0.938c0,0.333,0.1,0.585,0.301,0.76C71.596,59.057,71.878,59.144,72.24,59.144z"/>
	<path fill="#696B6B" d="M79.376,53.61c0.27,0,0.512,0.022,0.726,0.066l-0.127,0.853c-0.251-0.056-0.473-0.083-0.665-0.083
		c-0.491,0-0.911,0.2-1.26,0.599c-0.349,0.398-0.524,0.895-0.524,1.489v3.256h-0.918v-6.07h0.759l0.105,1.125h0.044
		c0.225-0.395,0.496-0.7,0.814-0.915C78.648,53.715,78.997,53.61,79.376,53.61z"/>
	<path fill="#696B6B" d="M83.38,59.9c-0.879,0-1.558-0.27-2.041-0.811c-0.482-0.54-0.723-1.306-0.723-2.295
		c0-1.016,0.245-1.8,0.734-2.354c0.488-0.554,1.186-0.831,2.09-0.831c0.292,0,0.583,0.031,0.875,0.095
		c0.292,0.063,0.521,0.137,0.688,0.221l-0.283,0.78c-0.203-0.081-0.424-0.148-0.665-0.202c-0.24-0.054-0.453-0.081-0.637-0.081
		c-1.234,0-1.85,0.787-1.85,2.359c0,0.746,0.15,1.318,0.452,1.717c0.301,0.397,0.747,0.598,1.337,0.598
		c0.505,0,1.024-0.109,1.556-0.327v0.814C84.508,59.796,83.997,59.9,83.38,59.9z"/>
	<path fill="#696B6B" d="M88.635,59.9c-0.897,0-1.605-0.273-2.124-0.818c-0.519-0.547-0.778-1.306-0.778-2.276
		c0-0.978,0.241-1.755,0.723-2.331c0.482-0.577,1.128-0.864,1.941-0.864c0.761,0,1.362,0.25,1.805,0.75s0.665,1.161,0.665,1.98
		v0.581h-4.181c0.019,0.713,0.198,1.254,0.539,1.624c0.341,0.369,0.823,0.554,1.442,0.554c0.653,0,1.3-0.138,1.939-0.411v0.819
		c-0.326,0.14-0.632,0.241-0.923,0.303C89.394,59.87,89.043,59.9,88.635,59.9z M88.385,54.381c-0.488,0-0.876,0.159-1.166,0.476
		s-0.46,0.757-0.512,1.318h3.173c0-0.579-0.13-1.023-0.388-1.331C89.235,54.536,88.865,54.381,88.385,54.381z"/>
	<path fill="#696B6B" d="M93.069,59.791h-0.92v-8.617h0.92V59.791z"/>
	<path fill="#696B6B" d="M97.3,59.9c-0.897,0-1.605-0.273-2.124-0.818c-0.519-0.547-0.778-1.306-0.778-2.276
		c0-0.978,0.241-1.755,0.723-2.331c0.482-0.577,1.128-0.864,1.941-0.864c0.761,0,1.362,0.25,1.805,0.75s0.665,1.161,0.665,1.98
		v0.581h-4.181c0.019,0.713,0.198,1.254,0.54,1.624c0.341,0.369,0.822,0.554,1.442,0.554c0.653,0,1.3-0.138,1.939-0.411v0.819
		c-0.326,0.14-0.632,0.241-0.923,0.303C98.059,59.87,97.708,59.9,97.3,59.9z M97.05,54.381c-0.488,0-0.876,0.159-1.166,0.476
		s-0.46,0.757-0.512,1.318h3.173c0-0.579-0.13-1.023-0.388-1.331C97.9,54.536,97.53,54.381,97.05,54.381z"/>
	<path fill="#696B6B" d="M107.392,58.135c0,0.565-0.21,1.002-0.63,1.307c-0.42,0.307-1.011,0.459-1.772,0.459
		c-0.805,0-1.433-0.127-1.882-0.381v-0.852c0.292,0.146,0.604,0.263,0.938,0.348c0.334,0.086,0.656,0.128,0.966,0.128
		c0.48,0,0.849-0.077,1.108-0.23c0.259-0.153,0.387-0.386,0.387-0.699c0-0.237-0.102-0.439-0.307-0.607
		c-0.205-0.168-0.605-0.367-1.199-0.595c-0.565-0.211-0.966-0.394-1.204-0.551c-0.238-0.157-0.416-0.334-0.531-0.534
		c-0.116-0.199-0.175-0.438-0.175-0.714c0-0.494,0.201-0.886,0.604-1.171c0.403-0.286,0.955-0.429,1.656-0.429
		c0.654,0,1.292,0.133,1.916,0.399l-0.326,0.748c-0.609-0.251-1.162-0.376-1.656-0.376c-0.436,0-0.765,0.068-0.986,0.205
		c-0.221,0.138-0.333,0.326-0.333,0.565c0,0.163,0.042,0.3,0.125,0.415c0.083,0.114,0.216,0.223,0.401,0.327
		c0.185,0.104,0.539,0.253,1.063,0.449c0.72,0.262,1.206,0.526,1.459,0.792C107.267,57.398,107.392,57.732,107.392,58.135z"/>
	<path fill="#696B6B" d="M111.168,59.9c-0.897,0-1.605-0.273-2.124-0.818c-0.519-0.547-0.778-1.306-0.778-2.276
		c0-0.978,0.241-1.755,0.723-2.331c0.482-0.577,1.129-0.864,1.942-0.864c0.761,0,1.362,0.25,1.805,0.75s0.665,1.161,0.665,1.98
		v0.581h-4.181c0.019,0.713,0.198,1.254,0.54,1.624c0.341,0.369,0.822,0.554,1.443,0.554c0.653,0,1.299-0.138,1.938-0.411v0.819
		c-0.325,0.14-0.633,0.241-0.923,0.303C111.928,59.87,111.578,59.9,111.168,59.9z M110.919,54.381c-0.487,0-0.876,0.159-1.165,0.476
		c-0.29,0.317-0.46,0.757-0.512,1.318h3.172c0-0.579-0.129-1.023-0.387-1.331C111.769,54.536,111.399,54.381,110.919,54.381z"/>
	<path fill="#696B6B" d="M115.548,53.721v3.938c0,0.495,0.112,0.863,0.338,1.108c0.225,0.243,0.577,0.365,1.057,0.365
		c0.636,0,1.1-0.175,1.393-0.521c0.295-0.348,0.441-0.915,0.441-1.701v-3.19h0.919v6.07h-0.758l-0.134-0.813h-0.051
		c-0.187,0.298-0.449,0.528-0.783,0.687c-0.334,0.159-0.715,0.238-1.144,0.238c-0.737,0-1.291-0.175-1.659-0.526
		c-0.367-0.351-0.551-0.912-0.551-1.684v-3.97h0.931V53.721z"/>
	<path fill="#696B6B" d="M125.276,58.135c0,0.565-0.211,1.002-0.632,1.307c-0.42,0.307-1.011,0.459-1.771,0.459
		c-0.806,0-1.433-0.127-1.883-0.381v-0.852c0.293,0.146,0.605,0.263,0.939,0.348c0.333,0.086,0.655,0.128,0.965,0.128
		c0.48,0,0.85-0.077,1.107-0.23c0.26-0.153,0.388-0.386,0.388-0.699c0-0.237-0.101-0.439-0.306-0.607
		c-0.205-0.168-0.605-0.367-1.2-0.595c-0.564-0.211-0.966-0.394-1.203-0.551c-0.238-0.157-0.416-0.334-0.532-0.534
		c-0.116-0.199-0.175-0.438-0.175-0.714c0-0.494,0.201-0.886,0.604-1.171c0.402-0.286,0.954-0.429,1.655-0.429
		c0.652,0,1.291,0.133,1.915,0.399l-0.326,0.748c-0.609-0.251-1.161-0.376-1.656-0.376c-0.436,0-0.764,0.068-0.985,0.205
		c-0.222,0.138-0.332,0.326-0.332,0.565c0,0.163,0.04,0.3,0.124,0.415c0.083,0.114,0.217,0.223,0.401,0.327
		c0.186,0.104,0.539,0.253,1.063,0.449c0.72,0.262,1.205,0.526,1.459,0.792S125.276,57.732,125.276,58.135z"/>
	<path fill="#696B6B" d="M131.976,59.9c-0.396,0-0.757-0.071-1.084-0.218c-0.327-0.146-0.601-0.371-0.821-0.673h-0.066
		c0.044,0.354,0.066,0.689,0.066,1.007v2.499h-0.92v-8.795h0.747l0.129,0.831h0.044c0.236-0.333,0.512-0.572,0.825-0.72
		c0.313-0.148,0.674-0.221,1.08-0.221c0.805,0,1.426,0.275,1.863,0.825c0.438,0.55,0.656,1.321,0.656,2.314
		c0,0.997-0.223,1.771-0.667,2.323C133.382,59.626,132.766,59.9,131.976,59.9z M131.843,54.391c-0.621,0-1.069,0.172-1.346,0.516
		c-0.277,0.343-0.42,0.889-0.427,1.639v0.205c0,0.853,0.142,1.464,0.427,1.831c0.284,0.367,0.74,0.551,1.367,0.551
		c0.524,0,0.936-0.213,1.233-0.637c0.297-0.425,0.445-1.009,0.445-1.755c0-0.757-0.148-1.337-0.445-1.742
		C132.8,54.593,132.382,54.391,131.843,54.391z"/>
	<path fill="#696B6B" d="M138.381,59.9c-0.897,0-1.604-0.273-2.123-0.818c-0.519-0.547-0.778-1.306-0.778-2.276
		c0-0.978,0.241-1.755,0.723-2.331c0.482-0.577,1.129-0.864,1.942-0.864c0.761,0,1.361,0.25,1.806,0.75
		c0.442,0.5,0.663,1.161,0.663,1.98v0.581h-4.181c0.02,0.713,0.198,1.254,0.54,1.624c0.341,0.369,0.821,0.554,1.441,0.554
		c0.653,0,1.3-0.138,1.938-0.411v0.819c-0.325,0.14-0.632,0.241-0.922,0.303C139.141,59.87,138.792,59.9,138.381,59.9z
		 M138.133,54.381c-0.487,0-0.876,0.159-1.166,0.476c-0.288,0.317-0.46,0.757-0.512,1.318h3.173c0-0.579-0.129-1.023-0.387-1.331
		C138.982,54.536,138.613,54.381,138.133,54.381z"/>
	<path fill="#696B6B" d="M146.028,58.977h-0.05c-0.424,0.617-1.06,0.926-1.905,0.926c-0.794,0-1.411-0.271-1.853-0.813
		c-0.441-0.543-0.662-1.315-0.662-2.315c0-1,0.222-1.778,0.665-2.332c0.443-0.554,1.06-0.831,1.85-0.831
		c0.823,0,1.454,0.299,1.894,0.896h0.072L146,54.07l-0.021-0.426v-2.47h0.92v8.617h-0.748L146.028,58.977z M144.19,59.132
		c0.627,0,1.083-0.171,1.364-0.513c0.282-0.341,0.424-0.892,0.424-1.653v-0.193c0-0.86-0.143-1.474-0.43-1.841
		c-0.286-0.367-0.742-0.551-1.37-0.551c-0.539,0-0.952,0.21-1.238,0.628s-0.429,1.01-0.429,1.775c0,0.775,0.142,1.36,0.426,1.755
		C143.223,58.935,143.64,59.132,144.19,59.132z"/>
	<path fill="#696B6B" d="M148.486,52.076c0-0.21,0.053-0.365,0.155-0.462s0.232-0.146,0.388-0.146c0.146,0,0.275,0.05,0.381,0.149
		c0.107,0.099,0.161,0.253,0.161,0.459c0,0.207-0.054,0.361-0.161,0.462c-0.105,0.101-0.234,0.152-0.381,0.152
		c-0.155,0-0.285-0.051-0.388-0.152S148.486,52.284,148.486,52.076z M149.484,59.791h-0.92v-6.07h0.92V59.791z"/>
	<path fill="#696B6B" d="M155.281,58.977h-0.05c-0.425,0.617-1.06,0.926-1.906,0.926c-0.794,0-1.411-0.271-1.853-0.813
		c-0.441-0.543-0.662-1.315-0.662-2.315c0-1,0.221-1.778,0.665-2.332c0.443-0.554,1.06-0.831,1.85-0.831
		c0.823,0,1.454,0.299,1.894,0.896h0.072l-0.039-0.438l-0.021-0.426v-2.47h0.919v8.617h-0.748L155.281,58.977z M153.442,59.132
		c0.628,0,1.083-0.171,1.364-0.513c0.282-0.341,0.425-0.892,0.425-1.653v-0.193c0-0.86-0.145-1.474-0.431-1.841
		c-0.286-0.367-0.742-0.551-1.369-0.551c-0.539,0-0.953,0.21-1.239,0.628s-0.428,1.01-0.428,1.775c0,0.775,0.141,1.36,0.425,1.755
		C152.475,58.935,152.893,59.132,153.442,59.132z"/>
	<path fill="#696B6B" d="M163.055,56.75c0,0.99-0.25,1.763-0.748,2.318s-1.187,0.832-2.065,0.832c-0.543,0-1.024-0.127-1.445-0.381
		s-0.746-0.619-0.975-1.097c-0.229-0.476-0.344-1.034-0.344-1.673c0-0.989,0.247-1.76,0.742-2.312
		c0.495-0.552,1.182-0.828,2.06-0.828c0.85,0,1.525,0.283,2.025,0.847C162.805,55.021,163.055,55.787,163.055,56.75z M158.43,56.75
		c0,0.775,0.155,1.366,0.466,1.771c0.31,0.407,0.766,0.61,1.367,0.61c0.601,0,1.059-0.202,1.37-0.606
		c0.312-0.404,0.468-0.997,0.468-1.775c0-0.771-0.155-1.358-0.468-1.758c-0.312-0.4-0.771-0.602-1.382-0.602
		c-0.603,0-1.056,0.198-1.361,0.593C158.583,55.379,158.43,55.968,158.43,56.75z"/>
	<path fill="#696B6B" d="M168.298,58.135c0,0.565-0.21,1.002-0.632,1.307c-0.42,0.307-1.01,0.459-1.771,0.459
		c-0.806,0-1.433-0.127-1.882-0.381v-0.852c0.291,0.146,0.604,0.263,0.938,0.348c0.334,0.086,0.656,0.128,0.966,0.128
		c0.48,0,0.849-0.077,1.108-0.23c0.259-0.153,0.387-0.386,0.387-0.699c0-0.237-0.102-0.439-0.307-0.607
		c-0.205-0.168-0.605-0.367-1.2-0.595c-0.564-0.211-0.965-0.394-1.203-0.551c-0.238-0.157-0.416-0.334-0.532-0.534
		c-0.116-0.199-0.174-0.438-0.174-0.714c0-0.494,0.201-0.886,0.604-1.171c0.402-0.286,0.954-0.429,1.655-0.429
		c0.653,0,1.292,0.133,1.916,0.399l-0.328,0.748c-0.609-0.251-1.161-0.376-1.656-0.376c-0.436,0-0.764,0.068-0.985,0.205
		c-0.221,0.138-0.332,0.326-0.332,0.565c0,0.163,0.041,0.3,0.125,0.415c0.083,0.114,0.216,0.223,0.4,0.327
		c0.186,0.104,0.539,0.253,1.063,0.449c0.721,0.262,1.207,0.526,1.461,0.792C168.172,57.4,168.298,57.732,168.298,58.135z"/>
	<path fill="#696B6B" d="M173.503,59.791l-2.305-6.07h0.985l1.307,3.6c0.295,0.842,0.469,1.389,0.521,1.638h0.045
		c0.04-0.194,0.168-0.6,0.384-1.214c0.216-0.614,0.7-1.956,1.454-4.024h0.985l-2.305,6.07H173.503z"/>
	<path fill="#696B6B" d="M177.493,52.076c0-0.21,0.052-0.365,0.155-0.462s0.232-0.146,0.388-0.146c0.147,0,0.275,0.05,0.382,0.149
		s0.161,0.253,0.161,0.459c0,0.207-0.055,0.361-0.161,0.462s-0.234,0.152-0.382,0.152c-0.155,0-0.284-0.051-0.388-0.152
		S177.493,52.284,177.493,52.076z M178.49,59.791h-0.919v-6.07h0.919V59.791z"/>
	<path fill="#696B6B" d="M183.888,59.791l-0.183-0.864h-0.044c-0.303,0.38-0.604,0.638-0.904,0.772
		c-0.301,0.134-0.678,0.201-1.128,0.201c-0.603,0-1.073-0.155-1.414-0.464c-0.342-0.311-0.513-0.751-0.513-1.323
		c0-1.226,0.979-1.869,2.939-1.927l1.03-0.033v-0.376c0-0.477-0.102-0.828-0.307-1.055c-0.204-0.227-0.531-0.34-0.982-0.34
		c-0.506,0-1.079,0.155-1.716,0.465l-0.283-0.703c0.298-0.163,0.626-0.291,0.982-0.382c0.356-0.091,0.714-0.137,1.073-0.137
		c0.724,0,1.259,0.16,1.607,0.481s0.524,0.836,0.524,1.545v4.143h-0.684V59.791z M181.812,59.144c0.572,0,1.022-0.156,1.35-0.471
		c0.326-0.313,0.49-0.753,0.49-1.319v-0.548l-0.921,0.039c-0.729,0.025-1.257,0.139-1.58,0.34c-0.323,0.202-0.485,0.514-0.485,0.938
		c0,0.333,0.101,0.585,0.302,0.76C181.168,59.057,181.449,59.144,181.812,59.144z"/>
</g>
<g>
	<path fill="#696B6B" d="M70.512,106.221c0,0.754-0.273,1.342-0.82,1.764s-1.289,0.634-2.227,0.634
		c-1.016,0-1.797-0.132-2.344-0.394v-0.961c0.352,0.148,0.734,0.266,1.148,0.353c0.414,0.086,0.824,0.129,1.23,0.129
		c0.664,0,1.164-0.126,1.5-0.378s0.504-0.604,0.504-1.053c0-0.297-0.06-0.539-0.179-0.729c-0.119-0.189-0.318-0.363-0.598-0.523
		c-0.28-0.16-0.704-0.342-1.274-0.545c-0.797-0.285-1.366-0.623-1.708-1.015c-0.342-0.392-0.513-0.899-0.513-1.528
		c0-0.66,0.248-1.187,0.744-1.576c0.496-0.391,1.152-0.586,1.969-0.586c0.852,0,1.635,0.156,2.35,0.469l-0.311,0.867
		c-0.707-0.297-1.395-0.445-2.062-0.445c-0.527,0-0.939,0.113-1.236,0.34s-0.445,0.541-0.445,0.943c0,0.297,0.055,0.539,0.164,0.729
		c0.109,0.189,0.294,0.363,0.554,0.521c0.26,0.158,0.657,0.332,1.192,0.523c0.898,0.32,1.517,0.664,1.854,1.031
		S70.512,105.635,70.512,106.221z"/>
	<path fill="#696B6B" d="M75.767,108.5l-0.193-0.914h-0.047c-0.32,0.402-0.64,0.676-0.958,0.816
		c-0.318,0.143-0.716,0.215-1.192,0.215c-0.637,0-1.136-0.164-1.497-0.492c-0.361-0.328-0.542-0.795-0.542-1.4
		c0-1.297,1.037-1.977,3.111-2.039l1.09-0.035v-0.397c0-0.504-0.108-0.876-0.325-1.116c-0.217-0.24-0.563-0.359-1.04-0.359
		c-0.535,0-1.141,0.164-1.816,0.492l-0.299-0.744c0.316-0.172,0.663-0.308,1.04-0.404c0.377-0.098,0.755-0.146,1.134-0.146
		c0.766,0,1.333,0.17,1.702,0.51c0.369,0.341,0.554,0.886,0.554,1.636v4.383h-0.722V108.5z M73.569,107.814
		c0.605,0,1.081-0.166,1.427-0.498c0.346-0.332,0.519-0.797,0.519-1.396v-0.58l-0.973,0.041c-0.773,0.027-1.331,0.147-1.673,0.36
		c-0.342,0.213-0.513,0.544-0.513,0.992c0,0.353,0.106,0.619,0.319,0.804C72.888,107.723,73.187,107.814,73.569,107.814z"/>
	<path fill="#696B6B" d="M78.109,100.338c0-0.223,0.055-0.386,0.164-0.488c0.109-0.104,0.246-0.156,0.41-0.156
		c0.156,0,0.291,0.054,0.404,0.158c0.113,0.105,0.17,0.269,0.17,0.486c0,0.219-0.057,0.383-0.17,0.489
		c-0.113,0.106-0.248,0.161-0.404,0.161c-0.164,0-0.301-0.055-0.41-0.161S78.109,100.557,78.109,100.338z M79.164,108.5h-0.973
		v-6.422h0.973V108.5z"/>
	<path fill="#696B6B" d="M83.915,101.973c0.844,0,1.499,0.289,1.966,0.864c0.467,0.576,0.7,1.392,0.7,2.446
		c0,1.054-0.235,1.873-0.706,2.458c-0.471,0.584-1.124,0.876-1.96,0.876c-0.418,0-0.8-0.077-1.146-0.23
		c-0.346-0.154-0.636-0.393-0.87-0.713h-0.07l-0.205,0.826h-0.697v-9.117H81.9v2.215c0,0.496-0.016,0.941-0.047,1.336H81.9
		C82.352,102.293,83.024,101.973,83.915,101.973z M83.774,102.787c-0.664,0-1.143,0.189-1.436,0.57s-0.439,1.022-0.439,1.926
		c0,0.902,0.15,1.548,0.451,1.938c0.301,0.389,0.783,0.582,1.447,0.582c0.598,0,1.043-0.218,1.336-0.652
		c0.293-0.436,0.439-1.062,0.439-1.879c0-0.836-0.146-1.459-0.439-1.869C84.84,102.993,84.387,102.787,83.774,102.787z"/>
	<path fill="#696B6B" d="M91.929,108.5l-0.193-0.914h-0.047c-0.32,0.402-0.64,0.676-0.958,0.816
		c-0.318,0.143-0.716,0.215-1.192,0.215c-0.637,0-1.136-0.164-1.497-0.492s-0.542-0.795-0.542-1.4c0-1.297,1.037-1.977,3.111-2.039
		l1.09-0.035v-0.397c0-0.504-0.108-0.876-0.325-1.116s-0.563-0.359-1.04-0.359c-0.535,0-1.141,0.164-1.816,0.492l-0.299-0.744
		c0.316-0.172,0.663-0.308,1.04-0.404c0.377-0.098,0.755-0.146,1.134-0.146c0.766,0,1.333,0.17,1.702,0.51
		c0.369,0.341,0.554,0.886,0.554,1.636v4.383h-0.722V108.5z M89.731,107.814c0.605,0,1.081-0.166,1.427-0.498
		c0.346-0.332,0.519-0.797,0.519-1.396v-0.58l-0.973,0.041c-0.773,0.027-1.331,0.147-1.673,0.36
		c-0.342,0.213-0.513,0.544-0.513,0.992c0,0.353,0.106,0.619,0.319,0.804S89.349,107.814,89.731,107.814z"/>
	<path fill="#696B6B" d="M105.356,108.5v-4.178c0-0.512-0.109-0.896-0.328-1.151c-0.219-0.255-0.559-0.384-1.02-0.384
		c-0.605,0-1.053,0.174-1.342,0.521c-0.289,0.346-0.434,0.883-0.434,1.604v3.586h-0.973v-4.179c0-0.512-0.109-0.896-0.328-1.15
		c-0.219-0.255-0.561-0.384-1.025-0.384c-0.609,0-1.056,0.183-1.339,0.548c-0.283,0.365-0.425,0.964-0.425,1.796v3.369h-0.973
		v-6.422h0.791l0.158,0.879h0.047c0.184-0.312,0.442-0.558,0.776-0.731c0.334-0.176,0.708-0.265,1.122-0.265
		c1.004,0,1.66,0.362,1.969,1.09h0.047c0.191-0.336,0.469-0.603,0.832-0.797c0.363-0.194,0.777-0.293,1.242-0.293
		c0.727,0,1.271,0.187,1.632,0.56c0.361,0.373,0.542,0.971,0.542,1.791v4.188L105.356,108.5L105.356,108.5z"/>
	<path fill="#696B6B" d="M111.982,108.5l-0.193-0.914h-0.047c-0.32,0.402-0.64,0.676-0.958,0.816
		c-0.318,0.143-0.716,0.215-1.192,0.215c-0.637,0-1.136-0.164-1.497-0.492c-0.361-0.328-0.542-0.795-0.542-1.4
		c0-1.297,1.037-1.977,3.111-2.039l1.09-0.035v-0.397c0-0.504-0.108-0.876-0.325-1.116c-0.217-0.24-0.563-0.359-1.04-0.359
		c-0.535,0-1.141,0.164-1.816,0.492l-0.299-0.744c0.316-0.172,0.663-0.308,1.04-0.404c0.377-0.098,0.755-0.146,1.134-0.146
		c0.766,0,1.333,0.17,1.702,0.51c0.369,0.341,0.554,0.886,0.554,1.636v4.383h-0.722V108.5z M109.785,107.814
		c0.605,0,1.081-0.166,1.427-0.498c0.346-0.332,0.519-0.797,0.519-1.396v-0.58l-0.973,0.041c-0.773,0.027-1.331,0.147-1.673,0.36
		c-0.342,0.213-0.513,0.544-0.513,0.992c0,0.353,0.106,0.619,0.319,0.804S109.402,107.814,109.785,107.814z"/>
	<path fill="#696B6B" d="M114.325,100.338c0-0.223,0.055-0.386,0.164-0.488c0.109-0.104,0.246-0.156,0.41-0.156
		c0.156,0,0.291,0.054,0.404,0.158c0.113,0.105,0.17,0.269,0.17,0.486c0,0.219-0.057,0.383-0.17,0.489
		c-0.113,0.106-0.248,0.161-0.404,0.161c-0.164,0-0.301-0.055-0.41-0.161C114.38,100.721,114.325,100.557,114.325,100.338z
		 M115.379,108.5h-0.973v-6.422h0.973V108.5z"/>
	<path fill="#696B6B" d="M121.284,106.748c0,0.598-0.224,1.059-0.668,1.383c-0.445,0.324-1.07,0.486-1.875,0.486
		c-0.853,0-1.517-0.135-1.992-0.404v-0.902c0.31,0.156,0.64,0.279,0.993,0.369s0.693,0.135,1.021,0.135
		c0.508,0,0.898-0.08,1.172-0.242c0.274-0.162,0.41-0.409,0.41-0.741c0-0.25-0.107-0.464-0.324-0.642s-0.641-0.389-1.27-0.631
		c-0.598-0.223-1.021-0.416-1.273-0.582s-0.439-0.354-0.562-0.565s-0.186-0.463-0.186-0.757c0-0.522,0.213-0.936,0.64-1.238
		c0.426-0.303,1.01-0.454,1.752-0.454c0.69,0,1.366,0.142,2.026,0.423l-0.346,0.79c-0.645-0.266-1.229-0.397-1.752-0.397
		c-0.461,0-0.809,0.072-1.043,0.217s-0.352,0.344-0.352,0.598c0,0.172,0.044,0.318,0.132,0.439s0.229,0.236,0.425,0.346
		c0.196,0.109,0.57,0.268,1.125,0.475c0.762,0.277,1.275,0.558,1.544,0.838C121.15,105.971,121.284,106.322,121.284,106.748z"/>
	<path fill="#696B6B" d="M64.5,109.701v-0.598h57.035v0.598H64.5z"/>
</g>
<g>
	<path fill="#696969" d="M29.568,14.426c-12.811,0-23.234,10.424-23.234,23.234c0,12.812,10.423,23.234,23.234,23.234
		c12.812,0,23.235-10.422,23.235-23.234C52.803,24.851,42.38,14.426,29.568,14.426z"/>
	<g>
		<path fill="#FFFFFF" d="M24.026,44.638h-10.16v-2.8h3.327V31.834l-3.417,0.739v-2.867l6.945-1.4v13.532h3.304L24.026,44.638
			L24.026,44.638z"/>
		<path fill="#FFFFFF" d="M35.576,44.638H25.002v-2.756l4.604-4.402c0.963-0.918,1.628-1.684,1.994-2.296
			c0.352-0.582,0.526-1.194,0.526-1.837c0-1.479-0.794-2.218-2.386-2.218c-1.381,0-2.703,0.548-3.965,1.646v-3.114
			c1.389-0.904,2.965-1.356,4.728-1.356c1.701,0,3.021,0.444,3.954,1.333c0.852,0.821,1.277,1.904,1.277,3.248
			c0,1.875-1.124,3.812-3.372,5.812l-3.305,2.937v0.067h6.52L35.576,44.638L35.576,44.638z"/>
		<path fill="#FFFFFF" d="M48.168,33.167l-3.786,5.556l3.763,5.915h-4.077l-1.657-3.092c-0.157-0.298-0.318-0.646-0.481-1.042
			h-0.045c-0.111,0.321-0.266,0.658-0.459,1.007l-1.668,3.126h-4.067l3.876-5.713l-3.641-5.757h4.1l1.635,3.214
			c0.218,0.426,0.37,0.784,0.46,1.075h0.045c0.118-0.35,0.278-0.717,0.479-1.097l1.669-3.193L48.168,33.167L48.168,33.167z"/>
	</g>
</g>
<g>
	<path fill="#8E8E8E" d="M203.284,73.005h-3.628c-0.247,0-0.459,0.182-0.497,0.426l-1.467,9.3c-0.028,0.185,0.113,0.351,0.298,0.351
		h1.862c0.173,0,0.321-0.127,0.348-0.299l0.417-2.636c0.038-0.246,0.25-0.426,0.497-0.426h1.147c2.39,0,3.769-1.156,4.128-3.448
		c0.164-1.002,0.008-1.789-0.462-2.341C205.411,73.326,204.497,73.005,203.284,73.005z M203.703,76.402
		c-0.199,1.303-1.192,1.303-2.154,1.303h-0.547l0.383-2.432c0.024-0.146,0.15-0.256,0.3-0.256h0.25c0.655,0,1.273,0,1.592,0.373
		C203.718,75.614,203.774,75.945,203.703,76.402z"/>
	<path fill="#636363" d="M177.415,73.005h-3.628c-0.248,0-0.459,0.182-0.498,0.426l-1.466,9.3c-0.028,0.185,0.113,0.351,0.298,0.351
		h1.733c0.246,0,0.458-0.181,0.496-0.426l0.396-2.509c0.039-0.244,0.251-0.425,0.499-0.425h1.146c2.39,0,3.77-1.155,4.129-3.448
		c0.162-1.003,0.007-1.789-0.463-2.341C179.541,73.326,178.627,73.005,177.415,73.005z M177.833,76.402
		c-0.199,1.303-1.192,1.303-2.155,1.303h-0.547l0.384-2.432c0.023-0.146,0.151-0.256,0.3-0.256h0.25c0.654,0,1.273,0,1.593,0.373
		C177.847,75.614,177.904,75.945,177.833,76.402z"/>
	<path fill="#636363" d="M188.256,76.36h-1.737c-0.148,0-0.275,0.109-0.299,0.256l-0.076,0.484l-0.121-0.175
		c-0.376-0.547-1.215-0.729-2.052-0.729c-1.918,0-3.558,1.453-3.877,3.493c-0.164,1.017,0.069,1.99,0.646,2.669
		c0.531,0.623,1.287,0.883,2.188,0.883c1.546,0,2.404-0.993,2.404-0.993l-0.077,0.481c-0.029,0.185,0.112,0.351,0.299,0.351h1.563
		c0.248,0,0.46-0.181,0.498-0.425l0.938-5.946C188.583,76.526,188.44,76.36,188.256,76.36z M185.835,79.741
		c-0.169,0.992-0.956,1.658-1.961,1.658c-0.504,0-0.907-0.162-1.166-0.469c-0.258-0.305-0.354-0.738-0.272-1.221
		c0.157-0.982,0.957-1.671,1.946-1.671c0.494,0,0.895,0.163,1.158,0.473C185.807,78.825,185.91,79.261,185.835,79.741z"/>
	<path fill="#8E8E8E" d="M214.126,76.36h-1.736c-0.148,0-0.277,0.109-0.3,0.256l-0.078,0.484l-0.12-0.175
		c-0.376-0.547-1.214-0.729-2.052-0.729c-1.919,0-3.558,1.453-3.877,3.493c-0.165,1.017,0.069,1.99,0.646,2.669
		c0.53,0.623,1.286,0.883,2.188,0.883c1.547,0,2.405-0.993,2.405-0.993l-0.077,0.481c-0.03,0.185,0.111,0.351,0.299,0.351h1.562
		c0.249,0,0.459-0.181,0.499-0.425l0.938-5.946C214.453,76.526,214.312,76.36,214.126,76.36z M211.704,79.741
		c-0.167,0.992-0.955,1.658-1.959,1.658c-0.505,0-0.908-0.162-1.168-0.469c-0.256-0.305-0.352-0.738-0.272-1.221
		c0.157-0.982,0.958-1.671,1.948-1.671c0.492,0,0.894,0.163,1.157,0.473C211.676,78.825,211.781,79.261,211.704,79.741z"/>
	<path fill="#636363" d="M197.506,76.36h-1.746c-0.167,0-0.322,0.084-0.416,0.221l-2.41,3.548l-1.019-3.408
		c-0.064-0.214-0.262-0.36-0.483-0.36h-1.716c-0.207,0-0.354,0.205-0.287,0.4l1.924,5.643l-1.809,2.552
		c-0.142,0.2,0.001,0.477,0.246,0.477h1.744c0.166,0,0.32-0.081,0.414-0.217l5.806-8.379
		C197.893,76.635,197.749,76.36,197.506,76.36z"/>
	<path fill="#8E8E8E" d="M216.172,73.262l-1.488,9.469c-0.029,0.185,0.113,0.351,0.299,0.351h1.498c0.247,0,0.458-0.181,0.496-0.425
		l1.468-9.301c0.029-0.184-0.112-0.35-0.299-0.35h-1.676C216.322,73.005,216.196,73.113,216.172,73.262z"/>
	<g>
		<path fill="#8E8E8E" d="M220.643,72.786c0.206,0,0.402,0.052,0.591,0.154s0.338,0.251,0.443,0.441
			c0.109,0.191,0.163,0.393,0.163,0.601s-0.054,0.407-0.159,0.596c-0.105,0.19-0.252,0.337-0.441,0.442
			c-0.19,0.106-0.388,0.158-0.595,0.158c-0.208,0-0.407-0.053-0.597-0.158c-0.188-0.105-0.335-0.252-0.441-0.442
			c-0.106-0.188-0.159-0.388-0.159-0.596s0.055-0.409,0.162-0.601c0.107-0.19,0.256-0.339,0.445-0.441
			C220.241,72.838,220.438,72.786,220.643,72.786z M220.646,73.021c-0.165,0-0.323,0.04-0.474,0.123s-0.27,0.201-0.356,0.354
			c-0.086,0.154-0.131,0.316-0.131,0.484s0.043,0.327,0.128,0.48c0.085,0.151,0.204,0.271,0.355,0.354
			c0.151,0.086,0.311,0.129,0.478,0.129s0.327-0.043,0.477-0.129c0.152-0.084,0.271-0.203,0.356-0.354
			c0.085-0.153,0.127-0.312,0.127-0.48s-0.042-0.33-0.13-0.484c-0.087-0.153-0.205-0.271-0.357-0.354
			C220.968,73.062,220.809,73.021,220.646,73.021z M220.104,74.622v-1.269h0.257c0.241,0,0.377,0.001,0.406,0.004
			c0.085,0.006,0.151,0.022,0.199,0.051c0.048,0.026,0.086,0.066,0.119,0.121c0.031,0.055,0.047,0.115,0.047,0.182
			c0,0.091-0.03,0.17-0.089,0.234c-0.062,0.065-0.145,0.105-0.252,0.121c0.037,0.014,0.066,0.031,0.087,0.048
			c0.022,0.017,0.051,0.05,0.087,0.098c0.01,0.012,0.039,0.063,0.094,0.155l0.15,0.255h-0.319l-0.107-0.206
			c-0.071-0.138-0.13-0.226-0.178-0.262c-0.046-0.034-0.106-0.054-0.178-0.054h-0.067v0.521H220.104L220.104,74.622z M220.36,73.902
			h0.104c0.148,0,0.242-0.006,0.278-0.018c0.036-0.011,0.063-0.031,0.085-0.06c0.021-0.028,0.031-0.062,0.031-0.098
			s-0.011-0.067-0.031-0.096s-0.049-0.047-0.086-0.06c-0.037-0.012-0.13-0.018-0.277-0.018h-0.104V73.902z"/>
	</g>
</g>
<g>
	<ellipse fill="#BFBFBF" cx="126.922" cy="78.065" rx="11.867" ry="11.867"/>
	<g>
		<path fill="#636363" d="M142.745,66.198c-3.094,0-5.825,1.151-7.911,3.094c-0.432,0.359-0.792,0.79-1.223,1.222h2.373
			c0.359,0.433,0.647,0.791,0.936,1.224h-4.172c-0.216,0.431-0.504,0.79-0.648,1.222h5.539c0.215,0.432,0.36,0.792,0.503,1.223
			h-6.545c-0.144,0.432-0.286,0.862-0.359,1.223h7.265c0.144,0.792,0.288,1.654,0.288,2.518c0,1.294-0.217,2.589-0.576,3.739h-6.544
			c0.144,0.431,0.286,0.863,0.503,1.224h5.538c-0.217,0.431-0.431,0.862-0.648,1.222h-4.172c0.289,0.433,0.576,0.864,0.937,1.224
			h2.374c-0.361,0.432-0.792,0.862-1.223,1.223c2.084,1.941,4.89,3.092,7.91,3.092c6.4,0.288,11.723-5.034,11.723-11.579
			C154.611,71.521,149.289,66.198,142.745,66.198z"/>
	</g>
	<path fill="#858B8C" d="M153.03,84.683c0-0.216,0.144-0.36,0.359-0.36c0.215,0,0.359,0.145,0.359,0.36s-0.145,0.359-0.359,0.359
		C153.174,85.042,153.03,84.898,153.03,84.683z M153.39,84.971c0.143,0,0.286-0.146,0.286-0.288c0-0.144-0.144-0.288-0.286-0.288
		c-0.146,0-0.288,0.145-0.288,0.288C153.102,84.825,153.244,84.971,153.39,84.971z M153.39,84.825h-0.072v-0.358h0.144h0.071
		l0.072,0.072c0,0.071,0,0.071-0.072,0.071l0.072,0.144h-0.072l-0.071-0.144h-0.071V84.825L153.39,84.825z M153.39,84.683
		L153.39,84.683c0.071,0,0.071,0,0.071,0s0,0,0-0.072l0,0c0,0,0,0-0.071,0h-0.072v0.072H153.39z"/>
	<polygon fill="#FFFFFF" points="121.312,81.159 120.018,81.159 120.811,76.556 119.155,81.159 118.292,81.159 118.148,76.556 
		117.357,81.159 116.206,81.159 117.214,75.189 119.012,75.189 119.084,78.928 120.306,75.189 122.319,75.189 	"/>
	<path fill="#FFFFFF" d="M124.478,79.001c-0.145,0-0.216,0-0.288,0c-0.719,0-1.079,0.215-1.079,0.719
		c0,0.288,0.216,0.503,0.431,0.503C124.117,80.223,124.478,79.72,124.478,79.001z M125.412,81.159c-0.144,0-1.079,0-1.079,0v-0.505
		c-0.358,0.433-0.792,0.575-1.365,0.575c-0.72,0-1.152-0.575-1.152-1.365c0-1.224,0.864-1.87,2.231-1.87
		c0.143,0,0.358,0,0.503,0.071c0.07-0.144,0.07-0.216,0.07-0.287c0-0.36-0.215-0.432-0.791-0.432c-0.646,0-1.149,0.144-1.365,0.216
		c0-0.072,0.145-1.08,0.145-1.08c0.645-0.215,1.078-0.286,1.509-0.286c1.079,0,1.655,0.503,1.655,1.438
		c0,0.288-0.073,0.575-0.073,0.935C125.699,79.289,125.484,80.799,125.412,81.159z"/>
	<path fill="#FFFFFF" d="M142.673,75.332l-0.216,1.295c-0.432-0.216-0.791-0.359-1.15-0.359c-0.936,0-1.655,0.936-1.655,2.229
		c0,0.935,0.433,1.438,1.225,1.438c0.287,0,0.646-0.071,1.078-0.287l-0.217,1.365c-0.503,0.216-0.79,0.288-1.149,0.288
		c-1.367,0-2.23-1.007-2.23-2.589c0-2.157,1.223-3.669,2.877-3.669C141.81,75.044,142.457,75.261,142.673,75.332z"/>
	<path fill="#FFFFFF" d="M144.759,79.001c-0.144,0-0.216,0-0.288,0c-0.719,0-1.078,0.215-1.078,0.719
		c0,0.288,0.145,0.503,0.431,0.503C144.328,80.223,144.687,79.72,144.759,79.001z M145.693,81.159c-0.144,0-1.078,0-1.078,0v-0.505
		c-0.359,0.433-0.792,0.575-1.366,0.575c-0.72,0-1.152-0.575-1.152-1.365c0-1.224,0.864-1.87,2.231-1.87
		c0.143,0,0.358,0,0.502,0.071c0.071-0.144,0.071-0.216,0.071-0.287c0-0.36-0.215-0.432-0.791-0.432
		c-0.646,0-1.149,0.144-1.365,0.216c0-0.072,0.144-1.08,0.144-1.08c0.648-0.215,1.079-0.286,1.51-0.286
		c1.079,0,1.655,0.503,1.655,1.438c0,0.288-0.072,0.575-0.072,0.935C145.908,79.289,145.693,80.799,145.693,81.159z"/>
	<path fill="#FFFFFF" d="M131.165,81.087c-0.358,0.143-0.646,0.143-0.935,0.143c-0.646,0-1.006-0.358-1.006-1.079
		c0-0.215,0.071-0.789,0.143-1.294c0.072-0.432,0.577-3.308,0.577-3.308h1.293l-0.144,0.719h0.647l-0.145,1.15h-0.72
		c-0.143,0.935-0.358,2.087-0.358,2.23c0,0.287,0.145,0.359,0.431,0.359c0.145,0,0.288,0,0.361-0.072L131.165,81.087z"/>
	<path fill="#FFFFFF" d="M135.049,81.087c-0.431,0.143-0.863,0.215-1.295,0.215c-1.438,0-2.157-0.72-2.157-2.158
		c0-1.653,0.936-2.876,2.23-2.876c1.079,0,1.726,0.72,1.726,1.798c0,0.359-0.07,0.72-0.144,1.224h-2.519
		c-0.07,0.719,0.361,1.006,1.08,1.006c0.432,0,0.863-0.072,1.294-0.287L135.049,81.087z M134.33,78.138
		c0-0.072,0.144-0.862-0.576-0.862c-0.431,0-0.719,0.287-0.791,0.862H134.33z"/>
	<path fill="#FFFFFF" d="M126.203,77.85c0,0.647,0.288,1.078,1.007,1.366c0.503,0.216,0.575,0.289,0.575,0.576
		c0,0.288-0.215,0.431-0.719,0.431c-0.36,0-0.719-0.072-1.151-0.215c0,0-0.143,1.079-0.143,1.151
		c0.288,0.07,0.575,0.143,1.366,0.143c1.365,0,2.013-0.503,2.013-1.653c0-0.647-0.286-1.08-0.935-1.366
		c-0.504-0.217-0.575-0.288-0.575-0.504c0-0.288,0.217-0.432,0.647-0.432c0.288,0,0.576,0,0.936,0.071l0.215-1.15
		c-0.36-0.071-0.862-0.071-1.15-0.071C126.706,76.196,126.203,76.915,126.203,77.85z"/>
	<path fill="#FFFFFF" d="M152.453,81.159h-1.222l0.072-0.433c-0.36,0.36-0.719,0.575-1.15,0.575c-0.936,0-1.584-0.791-1.584-2.013
		c0-1.655,0.937-3.021,2.086-3.021c0.504,0,0.863,0.215,1.222,0.647l0.288-1.726h1.296L152.453,81.159z M150.585,80.08
		c0.574,0,1.007-0.648,1.007-1.655c0-0.646-0.217-0.935-0.648-0.935c-0.576,0-1.007,0.647-1.007,1.653
		C149.937,79.72,150.153,80.08,150.585,80.08z"/>
	<path fill="#FFFFFF" d="M146.845,76.268c-0.144,1.511-0.431,3.021-0.648,4.531l-0.07,0.36h1.294
		c0.432-3.021,0.574-3.597,1.294-3.525c0.144-0.646,0.359-1.151,0.504-1.438c-0.504-0.145-0.863,0.215-1.224,0.791
		c0-0.217,0.073-0.505,0.073-0.72H146.845z"/>
	<path fill="#FFFFFF" d="M136.271,76.268c-0.144,1.511-0.432,3.021-0.646,4.531l-0.072,0.36h1.294
		c0.434-3.021,0.576-3.597,1.295-3.525c0.144-0.646,0.36-1.151,0.504-1.438c-0.504-0.145-0.863,0.215-1.223,0.791
		c0-0.217,0.071-0.505,0.071-0.72H136.271z"/>
	<g>
		<path fill="#FFFFFF" d="M153.03,80.799c0-0.217,0.144-0.36,0.359-0.36c0.215,0,0.359,0.144,0.359,0.36
			c0,0.215-0.145,0.36-0.359,0.36C153.174,81.159,153.03,81.014,153.03,80.799z M153.39,81.087c0.143,0,0.286-0.146,0.286-0.288
			c0-0.145-0.144-0.288-0.286-0.288c-0.146,0-0.288,0.144-0.288,0.288C153.102,80.941,153.244,81.087,153.39,81.087z M153.39,80.941
			h-0.072v-0.359h0.144h0.071l0.072,0.072c0,0.072,0,0.072-0.072,0.072l0.072,0.145h-0.072l-0.071-0.145h-0.071V80.941
			L153.39,80.941z M153.39,80.799L153.39,80.799c0.071,0,0.071,0,0.071,0s0,0,0-0.072l0,0c0,0,0,0-0.071,0h-0.072v0.072H153.39z"/>
	</g>
</g>
<g>
	<polygon fill="#636363" points="78.289,84.164 80.639,70.374 84.411,70.374 82.062,84.164 	"/>
	<path fill="#636363" d="M95.667,70.683c-0.743-0.248-1.917-0.557-3.34-0.557c-3.71,0-6.307,1.855-6.369,4.575
		c0,1.98,1.855,3.093,3.278,3.773c1.484,0.681,1.979,1.113,1.917,1.731c0,0.929-1.175,1.36-2.226,1.36
		c-1.484,0-2.288-0.185-3.525-0.742l-0.495-0.246l-0.557,3.091c0.866,0.372,2.474,0.742,4.206,0.742
		c3.958,0,6.493-1.854,6.555-4.699c0-1.547-0.989-2.783-3.154-3.772c-1.298-0.618-2.103-1.052-2.103-1.732
		c0-0.556,0.68-1.175,2.165-1.175c1.236,0,2.103,0.248,2.782,0.557l0.31,0.187L95.667,70.683z"/>
	<path fill="#636363" d="M105.314,70.374h-2.907c-0.928,0-1.545,0.247-1.979,1.112l-5.566,12.616h3.958c0,0,0.62-1.67,0.805-2.042
		c0.433,0,4.266,0,4.823,0c0.124,0.496,0.433,2.042,0.433,2.042h3.464L105.314,70.374z M100.675,79.279
		c0.31-0.805,1.484-3.835,1.484-3.835c0,0.062,0.31-0.804,0.495-1.299l0.247,1.176c0,0,0.742,3.277,0.866,3.958H100.675
		L100.675,79.279z"/>
	<path fill="#636363" d="M75.135,70.374l-3.648,9.399l-0.371-1.917l0,0l0,0c-0.865-2.288-2.659-4.268-5.194-5.689l3.339,11.997
		h3.958l5.937-13.729h-4.021V70.374z"/>
	<path fill="#BFBFBF" d="M68.085,70.374h-6.06l-0.062,0.309c4.7,1.113,7.854,3.896,9.091,7.235l-1.298-6.37
		C69.57,70.683,68.889,70.374,68.085,70.374"/>
</g>
<g>
	<path fill="#696B6B" d="M191.454,59.799c-0.87,0-1.543-0.268-2.021-0.803c-0.477-0.535-0.715-1.293-0.715-2.273
		c0-1.005,0.242-1.782,0.727-2.33s1.174-0.823,2.069-0.823c0.289,0,0.577,0.031,0.866,0.093c0.289,0.062,0.516,0.135,0.68,0.219
		l-0.279,0.773c-0.201-0.081-0.42-0.147-0.658-0.2c-0.237-0.053-0.447-0.08-0.63-0.08c-1.222,0-1.832,0.778-1.832,2.336
		c0,0.738,0.149,1.305,0.447,1.7s0.739,0.592,1.324,0.592c0.501,0,1.015-0.107,1.541-0.323v0.806
		C192.571,59.695,192.064,59.799,191.454,59.799z"/>
	<path fill="#696B6B" d="M197.42,59.689l-0.181-0.855h-0.044c-0.3,0.377-0.599,0.632-0.896,0.765c-0.298,0.134-0.67,0.2-1.115,0.2
		c-0.597,0-1.063-0.153-1.401-0.46c-0.338-0.308-0.507-0.744-0.507-1.311c0-1.214,0.971-1.85,2.911-1.908l1.02-0.033v-0.373
		c0-0.472-0.101-0.82-0.304-1.044c-0.203-0.225-0.527-0.337-0.974-0.337c-0.501,0-1.067,0.154-1.699,0.46l-0.28-0.696
		c0.297-0.161,0.621-0.287,0.974-0.378c0.353-0.091,0.706-0.137,1.061-0.137c0.717,0,1.248,0.159,1.593,0.477
		c0.346,0.318,0.519,0.828,0.519,1.53v4.101H197.42z M195.364,59.048c0.566,0,1.012-0.155,1.335-0.466s0.485-0.746,0.485-1.305
		v-0.543l-0.91,0.039c-0.724,0.026-1.246,0.138-1.565,0.337c-0.32,0.199-0.479,0.509-0.479,0.929c0,0.329,0.1,0.58,0.299,0.751
		C194.728,58.962,195.006,59.048,195.364,59.048z"/>
	<path fill="#696B6B" d="M202.037,53.57c0.268,0,0.507,0.022,0.719,0.066l-0.126,0.844c-0.249-0.055-0.468-0.082-0.658-0.082
		c-0.486,0-0.902,0.197-1.247,0.592c-0.346,0.395-0.519,0.886-0.519,1.475v3.224h-0.91V53.68h0.751l0.104,1.113h0.044
		c0.223-0.391,0.491-0.692,0.806-0.904C201.315,53.676,201.661,53.57,202.037,53.57z"/>
	<path fill="#696B6B" d="M205.147,59.048c0.16,0,0.315-0.012,0.466-0.035c0.149-0.024,0.269-0.049,0.356-0.074v0.696
		c-0.099,0.048-0.244,0.087-0.436,0.118c-0.192,0.03-0.365,0.046-0.519,0.046c-1.162,0-1.743-0.612-1.743-1.836v-3.575h-0.861
		v-0.438l0.861-0.378l0.384-1.283h0.526v1.393h1.743v0.707h-1.743v3.537c0,0.361,0.085,0.64,0.257,0.834
		C204.611,58.951,204.848,59.048,205.147,59.048z"/>
	<path fill="#696B6B" d="M211.685,56.679c0,0.98-0.247,1.745-0.74,2.294c-0.494,0.551-1.176,0.825-2.046,0.825
		c-0.537,0-1.014-0.126-1.431-0.378s-0.738-0.614-0.965-1.086c-0.227-0.471-0.34-1.023-0.34-1.656c0-0.979,0.244-1.743,0.734-2.289
		s1.17-0.82,2.04-0.82c0.841,0,1.509,0.28,2.004,0.839C211.437,54.969,211.685,55.725,211.685,56.679z M209.771,52.874
		c-0.157,0-0.311-0.034-0.461-0.102c-0.149-0.067-0.297-0.143-0.441-0.225c-0.144-0.082-0.283-0.157-0.416-0.225
		c-0.134-0.068-0.263-0.102-0.387-0.102c-0.183,0-0.321,0.055-0.414,0.165c-0.093,0.109-0.165,0.276-0.217,0.499h-0.537
		c0.048-0.442,0.177-0.789,0.387-1.039s0.481-0.375,0.814-0.375c0.168,0,0.33,0.034,0.487,0.101c0.157,0.068,0.308,0.143,0.45,0.225
		c0.143,0.082,0.279,0.157,0.411,0.225c0.132,0.068,0.256,0.102,0.373,0.102c0.179,0,0.312-0.054,0.399-0.162
		c0.088-0.108,0.159-0.275,0.214-0.502h0.543c-0.047,0.442-0.175,0.789-0.381,1.039S210.114,52.874,209.771,52.874z M207.105,56.679
		c0,0.768,0.154,1.352,0.461,1.754s0.759,0.604,1.354,0.604s1.048-0.2,1.356-0.601c0.31-0.4,0.464-0.986,0.464-1.757
		c0-0.764-0.154-1.344-0.464-1.741c-0.309-0.396-0.765-0.595-1.367-0.595c-0.597,0-1.046,0.195-1.35,0.586
		C207.258,55.321,207.105,55.904,207.105,56.679z"/>
	<path fill="#696B6B" d="M215.145,59.799c-0.889,0-1.59-0.271-2.103-0.812c-0.514-0.54-0.771-1.292-0.771-2.253
		c0-0.968,0.238-1.738,0.715-2.308c0.478-0.57,1.118-0.855,1.922-0.855c0.753,0,1.349,0.248,1.788,0.743
		c0.438,0.495,0.657,1.148,0.657,1.96v0.576h-4.14c0.019,0.706,0.197,1.241,0.535,1.606c0.338,0.366,0.814,0.549,1.428,0.549
		c0.647,0,1.287-0.135,1.92-0.406v0.812c-0.322,0.139-0.627,0.238-0.913,0.299C215.896,59.769,215.55,59.799,215.145,59.799z
		 M214.897,54.333c-0.482,0-0.867,0.157-1.154,0.472s-0.456,0.75-0.507,1.305h3.142c0-0.574-0.128-1.013-0.384-1.318
		S215.373,54.333,214.897,54.333z"/>
	<path fill="#696B6B" d="M222.108,58.05c0,0.56-0.209,0.991-0.625,1.294c-0.417,0.304-1.002,0.455-1.755,0.455
		c-0.797,0-1.418-0.126-1.864-0.378v-0.845c0.289,0.146,0.599,0.262,0.93,0.346c0.33,0.084,0.649,0.126,0.956,0.126
		c0.476,0,0.841-0.076,1.097-0.228s0.384-0.383,0.384-0.693c0-0.234-0.102-0.434-0.304-0.601c-0.203-0.166-0.599-0.363-1.188-0.589
		c-0.56-0.208-0.957-0.39-1.192-0.545s-0.411-0.332-0.526-0.529s-0.173-0.433-0.173-0.708c0-0.49,0.199-0.876,0.598-1.159
		c0.398-0.284,0.945-0.425,1.64-0.425c0.646,0,1.279,0.132,1.897,0.395l-0.324,0.74c-0.603-0.249-1.149-0.373-1.639-0.373
		c-0.432,0-0.757,0.068-0.977,0.203c-0.219,0.135-0.329,0.321-0.329,0.559c0,0.161,0.041,0.298,0.124,0.411
		c0.082,0.113,0.214,0.221,0.397,0.324c0.183,0.102,0.533,0.25,1.053,0.444c0.713,0.26,1.194,0.521,1.444,0.784
		S222.108,57.652,222.108,58.05z"/>
</g>
<g>
	<path fill="#696B6B" d="M163.183,81.374c-0.949,0-1.698-0.289-2.247-0.867s-0.823-1.381-0.823-2.408
		c0-1.035,0.255-1.857,0.765-2.467s1.194-0.914,2.054-0.914c0.805,0,1.441,0.265,1.91,0.794s0.703,1.228,0.703,2.095v0.615h-4.424
		c0.02,0.754,0.21,1.326,0.571,1.717s0.87,0.586,1.526,0.586c0.691,0,1.375-0.145,2.051-0.434v0.867
		c-0.344,0.148-0.669,0.255-0.976,0.319S163.616,81.374,163.183,81.374z M162.919,75.532c-0.516,0-0.927,0.168-1.233,0.504
		s-0.487,0.801-0.542,1.395h3.357c0-0.613-0.137-1.083-0.41-1.409S163.427,75.532,162.919,75.532z"/>
</g>
</svg>
