<?xml version="1.0" encoding="utf-8"?>
<!-- Generator: Adobe Illustrator 15.0.0, SVG Export Plug-In . SVG Version: 6.00 Build 0)  -->
<!DOCTYPE svg PUBLIC "-//W3C//DTD SVG 1.1//EN" "http://www.w3.org/Graphics/SVG/1.1/DTD/svg11.dtd">
<svg version="1.1" id="Layer_1" xmlns="http://www.w3.org/2000/svg" xmlns:xlink="http://www.w3.org/1999/xlink" x="0px" y="0px"
	 width="230px" height="115px" viewBox="0 0 230 115" enable-background="new 0 0 230 115" xml:space="preserve">
<g>
	<g>
		<path fill="#696A6A" d="M67.566,27.896c-0.435-0.317-0.853-0.535-1.421-0.535c-0.92,0-1.488,0.753-1.488,1.623
			c0,0.552,0.134,0.937,0.468,1.371l1.271,1.388c1.137,1.154,1.789,1.99,1.789,3.696c0,1.773-1.104,3.294-2.96,3.294
			c-0.652,0-1.321-0.184-1.839-0.602v-1.689c0.501,0.368,1.003,0.652,1.656,0.652c1.037,0,1.472-0.819,1.472-1.756
			c0-2.509-3.529-3.01-3.529-6.322c0-1.772,0.937-3.228,2.826-3.228c0.635,0,1.238,0.1,1.773,0.418L67.566,27.896z"/>
		<path fill="#696A6A" d="M74.107,25.956v1.455h-2.827v3.963h2.525v1.455h-2.525v4.281h2.827v1.455h-4.499V25.956H74.107z"/>
		<path fill="#696A6A" d="M77.086,25.956v9.248c0,1.622,0.485,1.957,1.171,1.957c1.154,0,1.254-0.736,1.271-1.773v-9.432H81.2v8.947
			c0,1.656,0.017,3.83-2.894,3.83c-2.659,0-2.893-1.806-2.893-4.08v-8.696H77.086z"/>
		<path fill="#696A6A" d="M86.656,38.565V25.956h2.007c1.438,0,3.278,0.134,3.278,3.378c0,2.559-1.003,3.746-3.612,3.646v5.586
			H86.656z M88.329,27.377v4.181c1.438,0.101,1.84-0.686,1.84-2.09c0-1.137-0.334-2.09-1.605-2.09H88.329z"/>
		<path fill="#696A6A" d="M97.646,25.956v1.455H94.82v3.963h2.525v1.455H94.82v4.281h2.827v1.455h-4.499V25.956H97.646z"/>
		<path fill="#696A6A" d="M100.826,25.956c1.974,0,4.214,0.134,4.214,6.522c0,5.82-1.94,6.087-4.934,6.087h-1.154V25.956H100.826z
			 M100.625,27.377v9.767c2.76,0.083,2.643-2.525,2.643-4.666C103.268,30.538,103.451,27.21,100.625,27.377z"/>
		<path fill="#696A6A" d="M108.421,38.565h-1.672V25.956h1.672V38.565z"/>
		<path fill="#696A6A" d="M112.336,25.956c1.974,0,4.215,0.134,4.215,6.522c0,5.82-1.94,6.087-4.934,6.087h-1.154V25.956H112.336z
			 M112.135,27.377v9.767c2.759,0.083,2.643-2.525,2.643-4.666C114.778,30.538,114.962,27.21,112.135,27.377z"/>
		<path fill="#696A6A" d="M124.497,32.261c0,2.274-0.033,6.472-3.277,6.472c-3.245,0-3.278-4.197-3.278-6.472
			s0.033-6.472,3.278-6.472C124.464,25.789,124.497,29.986,124.497,32.261z M119.715,32.261c0,2.676,0.184,4.9,1.505,4.9
			s1.505-2.224,1.505-4.9s-0.184-4.9-1.505-4.9S119.715,29.585,119.715,32.261z"/>
	</g>
</g>
<g>
	<g>
		<path fill="#696A6A" d="M131.219,38.565V25.956h1.891c0.435,0,5.652-0.636,5.652,6.405c0,3.596-1.389,6.205-5.318,6.205H131.219z
			 M136.27,32.344c0-1.605-0.502-4.147-2.559-4.147v8.127C135.718,36.425,136.27,33.916,136.27,32.344z"/>
		<path fill="#696A6A" d="M142.578,25.956v12.609h-2.492V25.956H142.578z"/>
		<path fill="#696A6A" d="M149.537,28.799c-0.502-0.435-1.121-0.803-1.807-0.803c-0.77,0-1.254,0.468-1.254,1.237
			c0,2.074,3.797,2.191,3.797,5.603c0,2.241-1.288,3.93-3.63,3.93c-0.702,0-1.571-0.217-2.141-0.635v-2.375
			c0.585,0.401,1.154,0.669,1.89,0.669c0.803,0,1.438-0.535,1.438-1.371c0-0.97-0.769-1.338-1.472-1.84
			c-1.438-0.97-2.324-1.906-2.324-3.746c0-1.99,1.154-3.713,3.295-3.713c0.803,0,1.521,0.218,2.207,0.619V28.799z"/>
		<path fill="#696A6A" d="M158.002,28.331c-0.317-0.083-0.619-0.134-0.937-0.134c-2.19,0-3.144,1.99-3.144,3.93
			c0,1.873,0.953,4.181,3.127,4.181c0.318,0,0.636-0.083,0.953-0.184v2.358c-0.367,0.15-0.752,0.217-1.154,0.217
			c-3.596,0-5.585-3.244-5.585-6.556c0-3.127,2.073-6.338,5.468-6.338c0.436,0,0.854,0.083,1.271,0.234V28.331z"/>
		<path fill="#696A6A" d="M159.275,38.565V25.956h2.51c1.588,0,4.432,0.167,4.432,3.612c0,1.388-0.553,2.575-1.79,3.261l2.19,5.736
			h-2.625l-2.191-5.82h-0.033v5.82H159.275z M161.768,31.374l0.436,0.017c1.137,0,1.588-0.77,1.588-1.806
			c0-0.903-0.435-1.639-1.688-1.572h-0.335V31.374z"/>
		<path fill="#696A6A" d="M173.16,25.956v2.341h-2.525v2.743h2.225v2.341h-2.225v2.843h2.559v2.341h-5.051V25.956H173.16z"/>
		<path fill="#696A6A" d="M180.488,25.956v2.341h-1.975v10.269h-2.491V28.297h-1.956v-2.341H180.488z"/>
		<path fill="#696A6A" d="M190.04,32.261c0,4.732-2.208,6.505-4.433,6.505c-2.224,0-4.432-1.773-4.432-6.505
			c0-4.733,2.208-6.506,4.432-6.506C187.832,25.755,190.04,27.528,190.04,32.261z M185.607,36.458c1.656,0,1.773-3.194,1.773-4.197
			c0-1.121-0.117-4.198-1.773-4.198c-1.655,0-1.772,3.077-1.772,4.198C183.835,33.264,183.952,36.458,185.607,36.458z"/>
	</g>
</g>
<g>
	<path fill="#696A6A" d="M71.613,55.325c0,1.371-0.347,2.449-1.04,3.234s-1.657,1.178-2.892,1.178c-1.262,0-2.235-0.386-2.921-1.157
		s-1.028-1.86-1.028-3.267c0-1.395,0.344-2.476,1.031-3.243s1.664-1.151,2.93-1.151c1.23,0,2.191,0.391,2.883,1.172
		S71.613,53.95,71.613,55.325z M64.787,55.325c0,1.16,0.247,2.04,0.741,2.64s1.212,0.899,2.153,0.899
		c0.949,0,1.666-0.299,2.15-0.896s0.727-1.479,0.727-2.643c0-1.152-0.241-2.026-0.724-2.622s-1.196-0.894-2.142-0.894
		c-0.949,0-1.671,0.3-2.165,0.899S64.787,54.181,64.787,55.325z"/>
	<path fill="#696A6A" d="M78.46,59.737c-0.93,0-1.649-0.286-2.159-0.858s-0.765-1.382-0.765-2.429c0-1.074,0.259-1.904,0.776-2.49
		s1.255-0.879,2.212-0.879c0.309,0,0.617,0.033,0.926,0.1s0.551,0.145,0.727,0.234l-0.299,0.826
		c-0.215-0.086-0.449-0.157-0.703-0.214s-0.479-0.085-0.674-0.085c-1.305,0-1.957,0.832-1.957,2.496
		c0,0.789,0.159,1.395,0.478,1.816s0.79,0.633,1.415,0.633c0.535,0,1.084-0.115,1.646-0.346v0.861
		C79.654,59.626,79.113,59.737,78.46,59.737z"/>
	<path fill="#696A6A" d="M82.221,53.198v4.166c0,0.523,0.119,0.914,0.357,1.172s0.611,0.387,1.119,0.387
		c0.672,0,1.163-0.184,1.474-0.551s0.466-0.967,0.466-1.799v-3.375h0.973v6.422h-0.803l-0.141-0.861h-0.053
		c-0.199,0.316-0.476,0.559-0.829,0.727s-0.757,0.252-1.21,0.252c-0.781,0-1.366-0.186-1.755-0.557s-0.583-0.965-0.583-1.781v-4.201
		H82.221z"/>
	<path fill="#696A6A" d="M88.29,51.458c0-0.223,0.055-0.386,0.164-0.489s0.246-0.155,0.41-0.155c0.156,0,0.291,0.053,0.404,0.158
		s0.17,0.268,0.17,0.486s-0.057,0.382-0.17,0.489s-0.248,0.161-0.404,0.161c-0.164,0-0.301-0.054-0.41-0.161
		S88.29,51.677,88.29,51.458z M89.345,59.62h-0.973v-6.422h0.973V59.62z"/>
	<path fill="#696A6A" d="M95.479,58.759h-0.053c-0.449,0.652-1.121,0.979-2.016,0.979c-0.84,0-1.493-0.287-1.96-0.861
		s-0.7-1.391-0.7-2.449s0.234-1.881,0.703-2.467s1.121-0.879,1.957-0.879c0.871,0,1.539,0.316,2.004,0.949h0.076l-0.041-0.463
		l-0.023-0.451v-2.613h0.973v9.117h-0.791L95.479,58.759z M93.533,58.923c0.664,0,1.146-0.181,1.444-0.542s0.448-0.944,0.448-1.749
		v-0.205c0-0.91-0.151-1.56-0.454-1.948s-0.786-0.583-1.45-0.583c-0.57,0-1.007,0.222-1.31,0.665s-0.454,1.069-0.454,1.878
		c0,0.82,0.15,1.439,0.451,1.857S92.951,58.923,93.533,58.923z"/>
	<path fill="#696A6A" d="M102.11,59.62l-0.193-0.914h-0.047c-0.32,0.402-0.64,0.675-0.958,0.817s-0.716,0.214-1.192,0.214
		c-0.637,0-1.136-0.164-1.497-0.492s-0.542-0.795-0.542-1.4c0-1.297,1.037-1.977,3.111-2.039l1.09-0.035v-0.398
		c0-0.504-0.108-0.876-0.325-1.116s-0.563-0.36-1.04-0.36c-0.535,0-1.141,0.164-1.816,0.492l-0.299-0.744
		c0.316-0.172,0.663-0.307,1.04-0.404s0.755-0.146,1.134-0.146c0.766,0,1.333,0.17,1.702,0.51s0.554,0.885,0.554,1.635v4.383H102.11
		z M99.913,58.935c0.605,0,1.081-0.166,1.427-0.498s0.519-0.797,0.519-1.395v-0.58l-0.973,0.041
		c-0.773,0.027-1.331,0.147-1.673,0.36S98.7,57.407,98.7,57.856c0,0.352,0.106,0.619,0.319,0.803S99.53,58.935,99.913,58.935z"/>
	<path fill="#696A6A" d="M108.906,58.759h-0.053c-0.449,0.652-1.121,0.979-2.016,0.979c-0.84,0-1.493-0.287-1.96-0.861
		s-0.7-1.391-0.7-2.449s0.234-1.881,0.703-2.467s1.121-0.879,1.957-0.879c0.871,0,1.539,0.316,2.004,0.949h0.076l-0.041-0.463
		l-0.023-0.451v-2.613h0.973v9.117h-0.792L108.906,58.759z M106.96,58.923c0.664,0,1.146-0.181,1.444-0.542s0.448-0.944,0.448-1.749
		v-0.205c0-0.91-0.151-1.56-0.454-1.948s-0.786-0.583-1.45-0.583c-0.57,0-1.007,0.222-1.31,0.665s-0.454,1.069-0.454,1.878
		c0,0.82,0.15,1.439,0.451,1.857S106.378,58.923,106.96,58.923z"/>
	<path fill="#696A6A" d="M117.131,56.403c0,1.047-0.264,1.864-0.791,2.452s-1.256,0.882-2.186,0.882
		c-0.574,0-1.084-0.135-1.529-0.404s-0.789-0.656-1.031-1.16s-0.363-1.094-0.363-1.77c0-1.047,0.262-1.862,0.785-2.446
		s1.25-0.876,2.18-0.876c0.898,0,1.612,0.299,2.142,0.896S117.131,55.384,117.131,56.403z M112.238,56.403
		c0,0.82,0.164,1.445,0.492,1.875s0.811,0.645,1.447,0.645s1.12-0.214,1.45-0.642s0.495-1.054,0.495-1.878
		c0-0.816-0.165-1.437-0.495-1.86s-0.817-0.636-1.462-0.636c-0.637,0-1.117,0.209-1.441,0.627S112.238,55.575,112.238,56.403z"/>
	<path fill="#696A6A" d="M124.066,59.737c-0.949,0-1.698-0.289-2.247-0.867s-0.823-1.381-0.823-2.408
		c0-1.035,0.255-1.857,0.765-2.467s1.194-0.914,2.054-0.914c0.805,0,1.441,0.265,1.91,0.794s0.703,1.228,0.703,2.095v0.615h-4.424
		c0.02,0.754,0.21,1.326,0.571,1.717s0.87,0.586,1.526,0.586c0.691,0,1.375-0.145,2.051-0.434v0.867
		c-0.344,0.148-0.669,0.255-0.976,0.319S124.5,59.737,124.066,59.737z M123.803,53.896c-0.516,0-0.927,0.168-1.233,0.504
		s-0.487,0.801-0.542,1.395h3.357c0-0.613-0.137-1.083-0.41-1.409S124.311,53.896,123.803,53.896z"/>
	<path fill="#696A6A" d="M134.975,58.759h-0.053c-0.449,0.652-1.121,0.979-2.016,0.979c-0.84,0-1.493-0.287-1.96-0.861
		s-0.7-1.391-0.7-2.449s0.234-1.881,0.703-2.467s1.121-0.879,1.957-0.879c0.871,0,1.539,0.316,2.004,0.949h0.076l-0.041-0.463
		l-0.023-0.451v-2.613h0.973v9.117h-0.791L134.975,58.759z M133.029,58.923c0.664,0,1.146-0.181,1.444-0.542
		s0.448-0.944,0.448-1.749v-0.205c0-0.91-0.151-1.56-0.454-1.948s-0.786-0.583-1.45-0.583c-0.57,0-1.007,0.222-1.31,0.665
		s-0.454,1.069-0.454,1.878c0,0.82,0.15,1.439,0.451,1.857S132.447,58.923,133.029,58.923z"/>
	<path fill="#696A6A" d="M140.369,59.737c-0.949,0-1.698-0.289-2.247-0.867s-0.823-1.381-0.823-2.408
		c0-1.035,0.255-1.857,0.765-2.467s1.194-0.914,2.054-0.914c0.805,0,1.441,0.265,1.91,0.794s0.703,1.228,0.703,2.095v0.615h-4.424
		c0.02,0.754,0.21,1.326,0.571,1.717s0.87,0.586,1.526,0.586c0.691,0,1.375-0.145,2.051-0.434v0.867
		c-0.344,0.148-0.669,0.255-0.976,0.319S140.803,59.737,140.369,59.737z M140.105,53.896c-0.516,0-0.927,0.168-1.233,0.504
		s-0.487,0.801-0.542,1.395h3.357c0-0.613-0.137-1.083-0.41-1.409S140.613,53.896,140.105,53.896z"/>
	<path fill="#696A6A" d="M148.231,57.868c0,0.598-0.223,1.059-0.668,1.383s-1.07,0.486-1.875,0.486
		c-0.852,0-1.516-0.135-1.992-0.404v-0.902c0.309,0.156,0.64,0.279,0.993,0.369s0.694,0.135,1.022,0.135
		c0.508,0,0.898-0.081,1.172-0.243s0.41-0.409,0.41-0.741c0-0.25-0.108-0.464-0.325-0.642s-0.64-0.388-1.269-0.63
		c-0.598-0.223-1.022-0.417-1.274-0.583s-0.439-0.354-0.562-0.565s-0.185-0.463-0.185-0.756c0-0.523,0.213-0.937,0.639-1.239
		s1.01-0.454,1.752-0.454c0.691,0,1.367,0.141,2.027,0.422l-0.346,0.791c-0.645-0.266-1.229-0.398-1.752-0.398
		c-0.461,0-0.809,0.072-1.043,0.217s-0.352,0.344-0.352,0.598c0,0.172,0.044,0.318,0.132,0.439s0.229,0.236,0.425,0.346
		s0.57,0.268,1.125,0.475c0.762,0.277,1.276,0.557,1.544,0.838S148.231,57.442,148.231,57.868z"/>
	<path fill="#696A6A" d="M152.08,59.737c-0.93,0-1.649-0.286-2.159-0.858s-0.765-1.382-0.765-2.429c0-1.074,0.259-1.904,0.776-2.49
		s1.255-0.879,2.212-0.879c0.309,0,0.617,0.033,0.926,0.1s0.551,0.145,0.727,0.234l-0.299,0.826
		c-0.215-0.086-0.449-0.157-0.703-0.214s-0.479-0.085-0.674-0.085c-1.305,0-1.957,0.832-1.957,2.496
		c0,0.789,0.159,1.395,0.478,1.816s0.79,0.633,1.415,0.633c0.535,0,1.084-0.115,1.646-0.346v0.861
		C153.273,59.626,152.732,59.737,152.08,59.737z"/>
	<path fill="#696A6A" d="M157.856,53.081c0.285,0,0.541,0.023,0.768,0.07l-0.135,0.902c-0.266-0.059-0.5-0.088-0.703-0.088
		c-0.52,0-0.964,0.211-1.333,0.633s-0.554,0.947-0.554,1.576v3.445h-0.973v-6.422h0.803l0.111,1.189h0.047
		c0.238-0.418,0.525-0.74,0.861-0.967S157.454,53.081,157.856,53.081z"/>
	<path fill="#696A6A" d="M159.443,51.458c0-0.223,0.055-0.386,0.164-0.489s0.246-0.155,0.41-0.155c0.156,0,0.291,0.053,0.404,0.158
		s0.17,0.268,0.17,0.486s-0.057,0.382-0.17,0.489s-0.248,0.161-0.404,0.161c-0.164,0-0.301-0.054-0.41-0.161
		S159.443,51.677,159.443,51.458z M160.498,59.62h-0.973v-6.422h0.973V59.62z"/>
	<path fill="#696A6A" d="M164.826,59.737c-0.93,0-1.649-0.286-2.159-0.858s-0.765-1.382-0.765-2.429c0-1.074,0.259-1.904,0.776-2.49
		s1.255-0.879,2.212-0.879c0.309,0,0.617,0.033,0.926,0.1s0.551,0.145,0.727,0.234l-0.299,0.826
		c-0.215-0.086-0.449-0.157-0.703-0.214s-0.479-0.085-0.674-0.085c-1.305,0-1.957,0.832-1.957,2.496
		c0,0.789,0.159,1.395,0.478,1.816s0.79,0.633,1.415,0.633c0.535,0,1.084-0.115,1.646-0.346v0.861
		C166.02,59.626,165.479,59.737,164.826,59.737z M165.693,61.313c0,0.379-0.149,0.672-0.448,0.879s-0.741,0.311-1.327,0.311
		c-0.199,0-0.387-0.018-0.562-0.053v-0.621c0.176,0.031,0.379,0.047,0.609,0.047c0.309,0,0.542-0.039,0.7-0.117
		s0.237-0.223,0.237-0.434c0-0.168-0.077-0.304-0.231-0.407s-0.444-0.188-0.87-0.255l0.516-1.043h0.645l-0.322,0.674
		C165.342,60.446,165.693,60.786,165.693,61.313z"/>
	<path fill="#696A6A" d="M171.622,59.62l-0.193-0.914h-0.047c-0.32,0.402-0.64,0.675-0.958,0.817s-0.716,0.214-1.192,0.214
		c-0.637,0-1.136-0.164-1.497-0.492s-0.542-0.795-0.542-1.4c0-1.297,1.037-1.977,3.111-2.039l1.09-0.035v-0.398
		c0-0.504-0.108-0.876-0.325-1.116s-0.563-0.36-1.04-0.36c-0.535,0-1.141,0.164-1.816,0.492l-0.299-0.744
		c0.316-0.172,0.663-0.307,1.04-0.404s0.755-0.146,1.134-0.146c0.766,0,1.333,0.17,1.702,0.51s0.554,0.885,0.554,1.635v4.383
		H171.622z M170.866,52.337c-0.168,0-0.332-0.036-0.492-0.108s-0.317-0.152-0.472-0.24s-0.303-0.168-0.445-0.24
		s-0.28-0.108-0.413-0.108c-0.195,0-0.343,0.059-0.442,0.176s-0.177,0.295-0.231,0.533h-0.574c0.051-0.473,0.188-0.843,0.413-1.11
		s0.515-0.401,0.87-0.401c0.18,0,0.354,0.036,0.521,0.108s0.328,0.152,0.48,0.24s0.299,0.168,0.439,0.24s0.273,0.108,0.398,0.108
		c0.191,0,0.334-0.058,0.428-0.173s0.17-0.294,0.229-0.536h0.58c-0.051,0.473-0.187,0.843-0.407,1.11S171.233,52.337,170.866,52.337
		z M169.425,58.935c0.605,0,1.081-0.166,1.427-0.498s0.519-0.797,0.519-1.395v-0.58l-0.973,0.041
		c-0.773,0.027-1.331,0.147-1.673,0.36s-0.513,0.544-0.513,0.993c0,0.352,0.106,0.619,0.319,0.803S169.042,58.935,169.425,58.935z"
		/>
	<path fill="#696A6A" d="M179.59,56.403c0,1.047-0.264,1.864-0.791,2.452s-1.256,0.882-2.186,0.882
		c-0.574,0-1.084-0.135-1.529-0.404s-0.789-0.656-1.031-1.16s-0.363-1.094-0.363-1.77c0-1.047,0.262-1.862,0.785-2.446
		s1.25-0.876,2.18-0.876c0.898,0,1.612,0.299,2.142,0.896S179.59,55.384,179.59,56.403z M174.697,56.403
		c0,0.82,0.164,1.445,0.492,1.875s0.811,0.645,1.447,0.645s1.12-0.214,1.45-0.642s0.495-1.054,0.495-1.878
		c0-0.816-0.165-1.437-0.495-1.86s-0.817-0.636-1.462-0.636c-0.637,0-1.117,0.209-1.441,0.627S174.697,55.575,174.697,56.403z"/>
	<path fill="#696A6A" d="M188.184,58.759h-0.053c-0.449,0.652-1.121,0.979-2.016,0.979c-0.84,0-1.493-0.287-1.96-0.861
		s-0.7-1.391-0.7-2.449s0.234-1.881,0.703-2.467s1.121-0.879,1.957-0.879c0.871,0,1.539,0.316,2.004,0.949h0.076l-0.041-0.463
		l-0.023-0.451v-2.613h0.973v9.117h-0.791L188.184,58.759z M186.238,58.923c0.664,0,1.146-0.181,1.444-0.542
		s0.448-0.944,0.448-1.749v-0.205c0-0.91-0.151-1.56-0.454-1.948s-0.786-0.583-1.45-0.583c-0.57,0-1.007,0.222-1.31,0.665
		s-0.454,1.069-0.454,1.878c0,0.82,0.15,1.439,0.451,1.857S185.656,58.923,186.238,58.923z"/>
	<path fill="#696A6A" d="M193.578,59.737c-0.949,0-1.698-0.289-2.247-0.867s-0.823-1.381-0.823-2.408
		c0-1.035,0.255-1.857,0.765-2.467s1.194-0.914,2.054-0.914c0.805,0,1.441,0.265,1.91,0.794s0.703,1.228,0.703,2.095v0.615h-4.424
		c0.02,0.754,0.21,1.326,0.571,1.717s0.87,0.586,1.526,0.586c0.691,0,1.375-0.145,2.051-0.434v0.867
		c-0.344,0.148-0.669,0.255-0.976,0.319S194.012,59.737,193.578,59.737z M193.314,53.896c-0.516,0-0.927,0.168-1.233,0.504
		s-0.487,0.801-0.542,1.395h3.357c0-0.613-0.137-1.083-0.41-1.409S193.822,53.896,193.314,53.896z"/>
	<path fill="#696A6A" d="M68.174,71.496c0,0.598-0.223,1.059-0.668,1.383s-1.07,0.486-1.875,0.486c-0.852,0-1.516-0.135-1.992-0.404
		v-0.902c0.309,0.156,0.64,0.279,0.993,0.369s0.694,0.135,1.022,0.135c0.508,0,0.898-0.081,1.172-0.243s0.41-0.409,0.41-0.741
		c0-0.25-0.108-0.464-0.325-0.642s-0.64-0.388-1.269-0.63c-0.598-0.223-1.022-0.417-1.274-0.583s-0.439-0.354-0.562-0.565
		s-0.185-0.463-0.185-0.756c0-0.523,0.213-0.937,0.639-1.239s1.01-0.454,1.752-0.454c0.691,0,1.367,0.141,2.027,0.422l-0.346,0.791
		c-0.645-0.266-1.229-0.398-1.752-0.398c-0.461,0-0.809,0.072-1.043,0.217s-0.352,0.344-0.352,0.598
		c0,0.172,0.044,0.318,0.132,0.439s0.229,0.236,0.425,0.346s0.57,0.268,1.125,0.475c0.762,0.277,1.276,0.557,1.544,0.838
		S68.174,71.07,68.174,71.496z"/>
	<path fill="#696A6A" d="M72.169,73.365c-0.949,0-1.698-0.289-2.247-0.867s-0.823-1.381-0.823-2.408
		c0-1.035,0.255-1.857,0.765-2.467s1.194-0.914,2.054-0.914c0.805,0,1.441,0.265,1.91,0.794s0.703,1.228,0.703,2.095v0.615h-4.424
		c0.02,0.754,0.21,1.326,0.571,1.717s0.87,0.586,1.526,0.586c0.691,0,1.375-0.145,2.051-0.434v0.867
		c-0.344,0.148-0.669,0.255-0.976,0.319S72.603,73.365,72.169,73.365z M71.905,67.523c-0.516,0-0.927,0.168-1.233,0.504
		s-0.487,0.801-0.542,1.395h3.357c0-0.613-0.137-1.083-0.41-1.409S72.413,67.523,71.905,67.523z"/>
	<path fill="#696A6A" d="M76.802,66.826v4.166c0,0.523,0.119,0.914,0.357,1.172s0.611,0.387,1.119,0.387
		c0.672,0,1.163-0.184,1.474-0.551s0.466-0.967,0.466-1.799v-3.375h0.973v6.422h-0.803l-0.141-0.861h-0.053
		c-0.199,0.316-0.476,0.559-0.829,0.727s-0.757,0.252-1.21,0.252c-0.781,0-1.366-0.186-1.755-0.557s-0.583-0.965-0.583-1.781v-4.201
		H76.802z"/>
	<path fill="#696A6A" d="M88.759,73.365c-0.418,0-0.8-0.077-1.146-0.231s-0.636-0.392-0.87-0.712h-0.07
		c0.047,0.375,0.07,0.73,0.07,1.066v2.643h-0.973v-9.305h0.791l0.135,0.879h0.047c0.25-0.352,0.541-0.605,0.873-0.762
		s0.713-0.234,1.143-0.234c0.852,0,1.509,0.291,1.972,0.873s0.694,1.398,0.694,2.449c0,1.055-0.235,1.874-0.706,2.458
		S89.595,73.365,88.759,73.365z M88.618,67.535c-0.656,0-1.131,0.182-1.424,0.545s-0.443,0.941-0.451,1.734v0.217
		c0,0.902,0.15,1.548,0.451,1.937s0.783,0.583,1.447,0.583c0.555,0,0.989-0.225,1.304-0.674s0.472-1.068,0.472-1.857
		c0-0.801-0.157-1.415-0.472-1.843S89.188,67.535,88.618,67.535z"/>
	<path fill="#696A6A" d="M95.537,73.365c-0.949,0-1.698-0.289-2.247-0.867s-0.823-1.381-0.823-2.408
		c0-1.035,0.255-1.857,0.765-2.467s1.194-0.914,2.054-0.914c0.805,0,1.441,0.265,1.91,0.794s0.703,1.228,0.703,2.095v0.615h-4.424
		c0.02,0.754,0.21,1.326,0.571,1.717s0.87,0.586,1.526,0.586c0.691,0,1.375-0.145,2.051-0.434v0.867
		c-0.344,0.148-0.669,0.255-0.976,0.319S95.971,73.365,95.537,73.365z M95.273,67.523c-0.516,0-0.927,0.168-1.233,0.504
		s-0.487,0.801-0.542,1.395h3.357c0-0.613-0.137-1.083-0.41-1.409S95.781,67.523,95.273,67.523z"/>
	<path fill="#696A6A" d="M103.628,72.387h-0.053c-0.449,0.652-1.121,0.979-2.016,0.979c-0.84,0-1.493-0.287-1.96-0.861
		s-0.7-1.391-0.7-2.449s0.234-1.881,0.703-2.467s1.121-0.879,1.957-0.879c0.871,0,1.539,0.316,2.004,0.949h0.076l-0.041-0.463
		l-0.023-0.451v-2.613h0.973v9.117h-0.791L103.628,72.387z M101.683,72.551c0.664,0,1.146-0.181,1.444-0.542
		s0.448-0.944,0.448-1.749v-0.205c0-0.91-0.151-1.56-0.454-1.948s-0.786-0.583-1.45-0.583c-0.57,0-1.007,0.222-1.31,0.665
		s-0.454,1.069-0.454,1.878c0,0.82,0.15,1.439,0.451,1.857S101.101,72.551,101.683,72.551z"/>
	<path fill="#696A6A" d="M106.228,65.086c0-0.223,0.055-0.386,0.164-0.489s0.246-0.155,0.41-0.155c0.156,0,0.291,0.053,0.404,0.158
		s0.17,0.268,0.17,0.486s-0.057,0.382-0.17,0.489s-0.248,0.161-0.404,0.161c-0.164,0-0.301-0.054-0.41-0.161
		S106.228,65.305,106.228,65.086z M107.283,73.248h-0.973v-6.422h0.973V73.248z"/>
	<path fill="#696A6A" d="M113.416,72.387h-0.053c-0.449,0.652-1.121,0.979-2.016,0.979c-0.84,0-1.492-0.287-1.959-0.861
		c-0.467-0.574-0.7-1.391-0.7-2.449s0.234-1.881,0.703-2.467c0.468-0.586,1.121-0.879,1.957-0.879c0.871,0,1.539,0.316,2.004,0.949
		h0.076l-0.041-0.463l-0.023-0.451v-2.613h0.973v9.117h-0.791L113.416,72.387z M111.471,72.551c0.664,0,1.146-0.181,1.445-0.542
		s0.447-0.944,0.447-1.749v-0.205c0-0.91-0.15-1.56-0.453-1.948s-0.787-0.583-1.451-0.583c-0.57,0-1.006,0.222-1.309,0.665
		s-0.455,1.069-0.455,1.878c0,0.82,0.15,1.439,0.451,1.857S110.889,72.551,111.471,72.551z"/>
	<path fill="#696A6A" d="M121.642,70.031c0,1.047-0.264,1.864-0.791,2.452s-1.256,0.882-2.186,0.882
		c-0.574,0-1.084-0.135-1.529-0.404s-0.789-0.656-1.031-1.16s-0.363-1.094-0.363-1.77c0-1.047,0.262-1.862,0.785-2.446
		s1.25-0.876,2.18-0.876c0.898,0,1.612,0.299,2.142,0.896S121.642,69.012,121.642,70.031z M116.749,70.031
		c0,0.82,0.164,1.445,0.492,1.875s0.811,0.645,1.447,0.645s1.12-0.214,1.45-0.642s0.495-1.054,0.495-1.878
		c0-0.816-0.165-1.437-0.495-1.86s-0.817-0.636-1.462-0.636c-0.637,0-1.117,0.209-1.441,0.627S116.749,69.203,116.749,70.031z"/>
	<path fill="#696A6A" d="M129.679,65.449c-0.941,0-1.685,0.313-2.229,0.94s-0.817,1.485-0.817,2.575
		c0,1.121,0.263,1.987,0.788,2.599s1.274,0.917,2.247,0.917c0.598,0,1.279-0.107,2.045-0.322v0.873
		c-0.594,0.223-1.326,0.334-2.197,0.334c-1.262,0-2.235-0.383-2.921-1.148s-1.028-1.854-1.028-3.264c0-0.883,0.165-1.656,0.495-2.32
		s0.807-1.176,1.43-1.535s1.356-0.539,2.2-0.539c0.898,0,1.684,0.164,2.355,0.492l-0.422,0.855
		C130.976,65.602,130.327,65.449,129.679,65.449z"/>
	<path fill="#696A6A" d="M140.717,68.953c0,1.371-0.347,2.449-1.04,3.234s-1.657,1.178-2.892,1.178
		c-1.262,0-2.235-0.386-2.921-1.157s-1.028-1.86-1.028-3.267c0-1.395,0.344-2.476,1.031-3.243s1.664-1.151,2.93-1.151
		c1.23,0,2.191,0.391,2.883,1.172S140.717,67.578,140.717,68.953z M133.891,68.953c0,1.16,0.247,2.04,0.741,2.64
		s1.212,0.899,2.153,0.899c0.949,0,1.666-0.299,2.15-0.896s0.727-1.479,0.727-2.643c0-1.152-0.241-2.026-0.724-2.622
		s-1.196-0.894-2.142-0.894c-0.949,0-1.671,0.3-2.165,0.899S133.891,67.809,133.891,68.953z"/>
	<path fill="#696A6A" d="M149.018,73.248h-1.137l-4.682-7.189h-0.047c0.062,0.844,0.094,1.617,0.094,2.32v4.869h-0.92v-8.566h1.125
		l4.67,7.16h0.047c-0.008-0.105-0.025-0.444-0.053-1.017s-0.037-0.981-0.029-1.228v-4.916h0.932V73.248z"/>
	<path fill="#696A6A" d="M153.71,73.248h-0.996v-7.682h-2.713v-0.885h6.422v0.885h-2.713V73.248z"/>
	<path fill="#696A6A" d="M157.412,73.248v-8.566h0.996v8.566H157.412z"/>
	<path fill="#696A6A" d="M167.149,73.248h-1.137l-4.682-7.189h-0.047c0.062,0.844,0.094,1.617,0.094,2.32v4.869h-0.92v-8.566h1.125
		l4.67,7.16h0.047c-0.008-0.105-0.025-0.444-0.053-1.017s-0.037-0.981-0.029-1.228v-4.916h0.932V73.248z"/>
	<path fill="#696A6A" d="M175.674,64.682v5.543c0,0.977-0.295,1.744-0.885,2.303s-1.4,0.838-2.432,0.838s-1.829-0.281-2.394-0.844
		s-0.847-1.336-0.847-2.32v-5.52h0.996v5.59c0,0.715,0.195,1.264,0.586,1.646s0.965,0.574,1.723,0.574
		c0.723,0,1.279-0.192,1.67-0.577s0.586-0.937,0.586-1.655v-5.578H175.674z"/>
	<path fill="#696A6A" d="M183.025,73.248l-1.066-2.725h-3.434l-1.055,2.725h-1.008l3.387-8.602h0.838l3.369,8.602H183.025z
		 M181.648,69.627l-0.996-2.654c-0.129-0.336-0.262-0.748-0.398-1.236c-0.086,0.375-0.209,0.787-0.369,1.236l-1.008,2.654H181.648z"
		/>
	<path fill="#696A6A" d="M188.726,73.248l-2.906-7.594h-0.047c0.055,0.602,0.082,1.316,0.082,2.145v5.449h-0.92v-8.566h1.5
		l2.713,7.066h0.047l2.736-7.066h1.488v8.566h-0.996v-5.52c0-0.633,0.027-1.32,0.082-2.062h-0.047l-2.93,7.582H188.726z"/>
	<path fill="#696A6A" d="M67.98,86.876l-0.193-0.914H67.74c-0.32,0.402-0.64,0.675-0.958,0.817s-0.716,0.214-1.192,0.214
		c-0.637,0-1.136-0.164-1.497-0.492s-0.542-0.795-0.542-1.4c0-1.297,1.037-1.977,3.111-2.039l1.09-0.035v-0.398
		c0-0.504-0.108-0.876-0.325-1.116s-0.563-0.36-1.04-0.36c-0.535,0-1.141,0.164-1.816,0.492l-0.299-0.744
		c0.316-0.172,0.663-0.307,1.04-0.404s0.755-0.146,1.134-0.146c0.766,0,1.333,0.17,1.702,0.51s0.554,0.885,0.554,1.635v4.383H67.98z
		 M65.783,86.19c0.605,0,1.081-0.166,1.427-0.498s0.519-0.797,0.519-1.395v-0.58l-0.973,0.041c-0.773,0.027-1.331,0.147-1.673,0.36
		s-0.513,0.544-0.513,0.993c0,0.352,0.106,0.619,0.319,0.803S65.4,86.19,65.783,86.19z"/>
	<path fill="#696A6A" d="M72.479,86.19c0.172,0,0.338-0.013,0.498-0.038s0.287-0.052,0.381-0.079v0.744
		c-0.105,0.051-0.261,0.093-0.466,0.126s-0.39,0.05-0.554,0.05c-1.242,0-1.863-0.654-1.863-1.963v-3.82h-0.92v-0.469l0.92-0.404
		l0.41-1.371h0.562v1.488h1.863v0.756h-1.863v3.779c0,0.387,0.092,0.684,0.275,0.891S72.159,86.19,72.479,86.19z"/>
	<path fill="#696A6A" d="M77.054,86.993c-0.949,0-1.698-0.289-2.247-0.867s-0.823-1.381-0.823-2.408
		c0-1.035,0.255-1.857,0.765-2.467s1.194-0.914,2.054-0.914c0.805,0,1.441,0.265,1.91,0.794s0.703,1.228,0.703,2.095v0.615h-4.424
		c0.02,0.754,0.21,1.326,0.571,1.717s0.87,0.586,1.526,0.586c0.691,0,1.375-0.145,2.051-0.434v0.867
		c-0.344,0.148-0.669,0.255-0.976,0.319S77.488,86.993,77.054,86.993z M76.791,81.151c-0.516,0-0.927,0.168-1.233,0.504
		s-0.487,0.801-0.542,1.395h3.357c0-0.613-0.137-1.083-0.41-1.409S77.298,81.151,76.791,81.151z M76.07,79.458
		c0.188-0.242,0.39-0.535,0.606-0.879s0.388-0.643,0.513-0.896h1.184v0.123c-0.172,0.254-0.428,0.566-0.768,0.938
		s-0.635,0.658-0.885,0.861h-0.65V79.458z"/>
	<path fill="#696A6A" d="M87.962,86.015h-0.053c-0.449,0.652-1.121,0.979-2.016,0.979c-0.84,0-1.493-0.287-1.96-0.861
		s-0.7-1.391-0.7-2.449s0.234-1.881,0.703-2.467s1.121-0.879,1.957-0.879c0.871,0,1.539,0.316,2.004,0.949h0.076l-0.041-0.463
		l-0.023-0.451v-2.613h0.973v9.117h-0.791L87.962,86.015z M86.017,86.179c0.664,0,1.146-0.181,1.444-0.542s0.448-0.944,0.448-1.749
		v-0.205c0-0.91-0.151-1.56-0.454-1.948s-0.786-0.583-1.45-0.583c-0.57,0-1.007,0.222-1.31,0.665s-0.454,1.069-0.454,1.878
		c0,0.82,0.15,1.439,0.451,1.857S85.435,86.179,86.017,86.179z"/>
	<path fill="#696A6A" d="M93.357,86.993c-0.949,0-1.698-0.289-2.247-0.867s-0.823-1.381-0.823-2.408
		c0-1.035,0.255-1.857,0.765-2.467s1.194-0.914,2.054-0.914c0.805,0,1.441,0.265,1.91,0.794s0.703,1.228,0.703,2.095v0.615h-4.424
		c0.02,0.754,0.21,1.326,0.571,1.717s0.87,0.586,1.526,0.586c0.691,0,1.375-0.145,2.051-0.434v0.867
		c-0.344,0.148-0.669,0.255-0.976,0.319S93.791,86.993,93.357,86.993z M93.094,81.151c-0.516,0-0.927,0.168-1.233,0.504
		s-0.487,0.801-0.542,1.395h3.357c0-0.613-0.137-1.083-0.41-1.409S93.602,81.151,93.094,81.151z"/>
	<path fill="#696A6A" d="M101.472,86.876v-4.154c0-0.523-0.119-0.914-0.357-1.172s-0.611-0.387-1.119-0.387
		c-0.672,0-1.164,0.182-1.477,0.545s-0.469,0.963-0.469,1.799v3.369h-0.973v-6.422h0.791l0.158,0.879h0.047
		c0.199-0.316,0.479-0.562,0.838-0.735s0.76-0.261,1.201-0.261c0.773,0,1.355,0.187,1.746,0.56s0.586,0.97,0.586,1.79v4.189H101.472
		z"/>
	<path fill="#696A6A" d="M106.216,86.19c0.172,0,0.338-0.013,0.498-0.038s0.287-0.052,0.381-0.079v0.744
		c-0.105,0.051-0.261,0.093-0.466,0.126s-0.39,0.05-0.554,0.05c-1.242,0-1.863-0.654-1.863-1.963v-3.82h-0.92v-0.469l0.92-0.404
		l0.41-1.371h0.562v1.488h1.863v0.756h-1.863v3.779c0,0.387,0.092,0.684,0.275,0.891S105.896,86.19,106.216,86.19z"/>
	<path fill="#696A6A" d="M111.008,80.337c0.285,0,0.541,0.023,0.768,0.07l-0.135,0.902c-0.266-0.059-0.5-0.088-0.703-0.088
		c-0.52,0-0.963,0.211-1.332,0.633c-0.37,0.422-0.554,0.947-0.554,1.576v3.445h-0.973v-6.422h0.803l0.111,1.189h0.047
		c0.238-0.418,0.525-0.74,0.861-0.967S110.605,80.337,111.008,80.337z"/>
	<path fill="#696A6A" d="M118.22,83.659c0,1.047-0.264,1.864-0.791,2.452s-1.256,0.882-2.186,0.882
		c-0.574,0-1.084-0.135-1.529-0.404s-0.789-0.656-1.031-1.16s-0.363-1.094-0.363-1.77c0-1.047,0.262-1.862,0.785-2.446
		s1.25-0.876,2.18-0.876c0.898,0,1.612,0.299,2.142,0.896S118.22,82.64,118.22,83.659z M113.327,83.659
		c0,0.82,0.164,1.445,0.492,1.875s0.811,0.645,1.447,0.645s1.12-0.214,1.45-0.642s0.495-1.054,0.495-1.878
		c0-0.816-0.165-1.437-0.495-1.86s-0.817-0.636-1.462-0.636c-0.637,0-1.117,0.209-1.441,0.627S113.327,82.831,113.327,83.659z"/>
	<path fill="#696A6A" d="M126.813,86.015h-0.053c-0.449,0.652-1.121,0.979-2.016,0.979c-0.84,0-1.493-0.287-1.96-0.861
		s-0.7-1.391-0.7-2.449s0.234-1.881,0.703-2.467s1.121-0.879,1.957-0.879c0.871,0,1.539,0.316,2.004,0.949h0.076l-0.041-0.463
		l-0.023-0.451v-2.613h0.973v9.117h-0.791L126.813,86.015z M124.868,86.179c0.664,0,1.146-0.181,1.444-0.542
		s0.448-0.944,0.448-1.749v-0.205c0-0.91-0.151-1.56-0.454-1.948s-0.786-0.583-1.45-0.583c-0.57,0-1.007,0.222-1.31,0.665
		s-0.454,1.069-0.454,1.878c0,0.82,0.15,1.439,0.451,1.857S124.286,86.179,124.868,86.179z"/>
	<path fill="#696A6A" d="M133.445,86.876l-0.193-0.914h-0.047c-0.32,0.402-0.64,0.675-0.958,0.817s-0.716,0.214-1.192,0.214
		c-0.637,0-1.136-0.164-1.497-0.492s-0.542-0.795-0.542-1.4c0-1.297,1.037-1.977,3.111-2.039l1.09-0.035v-0.398
		c0-0.504-0.108-0.876-0.325-1.116s-0.563-0.36-1.04-0.36c-0.535,0-1.141,0.164-1.816,0.492l-0.299-0.744
		c0.316-0.172,0.663-0.307,1.04-0.404s0.755-0.146,1.134-0.146c0.766,0,1.333,0.17,1.702,0.51s0.554,0.885,0.554,1.635v4.383
		H133.445z M131.248,86.19c0.605,0,1.081-0.166,1.427-0.498s0.519-0.797,0.519-1.395v-0.58l-0.973,0.041
		c-0.773,0.027-1.331,0.147-1.673,0.36s-0.513,0.544-0.513,0.993c0,0.352,0.106,0.619,0.319,0.803S130.865,86.19,131.248,86.19z"/>
	<path fill="#696A6A" d="M138.833,86.876V78.31h0.996v7.664h3.779v0.902H138.833z"/>
	<path fill="#696A6A" d="M150.158,83.659c0,1.047-0.264,1.864-0.791,2.452s-1.256,0.882-2.186,0.882
		c-0.574,0-1.084-0.135-1.529-0.404s-0.789-0.656-1.031-1.16s-0.363-1.094-0.363-1.77c0-1.047,0.262-1.862,0.785-2.446
		s1.25-0.876,2.18-0.876c0.898,0,1.612,0.299,2.142,0.896S150.158,82.64,150.158,83.659z M145.266,83.659
		c0,0.82,0.164,1.445,0.492,1.875s0.811,0.645,1.447,0.645s1.12-0.214,1.45-0.642s0.495-1.054,0.495-1.878
		c0-0.816-0.165-1.437-0.495-1.86s-0.817-0.636-1.462-0.636c-0.637,0-1.117,0.209-1.441,0.627S145.266,82.831,145.266,83.659z"/>
	<path fill="#696A6A" d="M150.784,89.759c-0.371,0-0.672-0.049-0.902-0.146v-0.791c0.27,0.078,0.535,0.117,0.797,0.117
		c0.305,0,0.528-0.083,0.671-0.249s0.214-0.419,0.214-0.759v-7.477h0.973v7.406C152.536,89.126,151.952,89.759,150.784,89.759z
		 M151.481,78.714c0-0.223,0.055-0.386,0.164-0.489s0.246-0.155,0.41-0.155c0.156,0,0.291,0.053,0.404,0.158s0.17,0.268,0.17,0.486
		s-0.057,0.382-0.17,0.489s-0.248,0.161-0.404,0.161c-0.164,0-0.301-0.054-0.41-0.161S151.481,78.933,151.481,78.714z"/>
	<path fill="#696A6A" d="M158.248,86.876l-0.193-0.914h-0.047c-0.32,0.402-0.64,0.675-0.958,0.817s-0.716,0.214-1.192,0.214
		c-0.637,0-1.136-0.164-1.497-0.492s-0.542-0.795-0.542-1.4c0-1.297,1.037-1.977,3.111-2.039l1.09-0.035v-0.398
		c0-0.504-0.108-0.876-0.325-1.116s-0.563-0.36-1.04-0.36c-0.535,0-1.141,0.164-1.816,0.492l-0.299-0.744
		c0.316-0.172,0.663-0.307,1.04-0.404s0.755-0.146,1.134-0.146c0.766,0,1.333,0.17,1.702,0.51s0.554,0.885,0.554,1.635v4.383
		H158.248z M156.051,86.19c0.605,0,1.081-0.166,1.427-0.498s0.519-0.797,0.519-1.395v-0.58l-0.973,0.041
		c-0.773,0.027-1.331,0.147-1.673,0.36s-0.513,0.544-0.513,0.993c0,0.352,0.106,0.619,0.319,0.803S155.668,86.19,156.051,86.19z"/>
	<path fill="#696A6A" d="M167.86,86.015h-0.053c-0.449,0.652-1.121,0.979-2.016,0.979c-0.84,0-1.493-0.287-1.96-0.861
		s-0.7-1.391-0.7-2.449s0.234-1.881,0.703-2.467s1.121-0.879,1.957-0.879c0.871,0,1.539,0.316,2.004,0.949h0.076l-0.041-0.463
		l-0.023-0.451v-2.613h0.973v9.117h-0.791L167.86,86.015z M165.915,86.179c0.664,0,1.146-0.181,1.444-0.542s0.448-0.944,0.448-1.749
		v-0.205c0-0.91-0.151-1.56-0.454-1.948s-0.786-0.583-1.45-0.583c-0.57,0-1.007,0.222-1.31,0.665s-0.454,1.069-0.454,1.878
		c0,0.82,0.15,1.439,0.451,1.857S165.333,86.179,165.915,86.179z"/>
	<path fill="#696A6A" d="M176.086,83.659c0,1.047-0.264,1.864-0.791,2.452s-1.256,0.882-2.186,0.882
		c-0.574,0-1.084-0.135-1.529-0.404s-0.789-0.656-1.031-1.16s-0.363-1.094-0.363-1.77c0-1.047,0.262-1.862,0.785-2.446
		s1.25-0.876,2.18-0.876c0.898,0,1.612,0.299,2.142,0.896S176.086,82.64,176.086,83.659z M171.193,83.659
		c0,0.82,0.164,1.445,0.492,1.875s0.811,0.645,1.447,0.645s1.12-0.214,1.45-0.642s0.495-1.054,0.495-1.878
		c0-0.816-0.165-1.437-0.495-1.86s-0.817-0.636-1.462-0.636c-0.637,0-1.117,0.209-1.441,0.627S171.193,82.831,171.193,83.659z"/>
	<path fill="#696A6A" d="M185.887,80.806c0,0.867-0.296,1.534-0.888,2.001s-1.438,0.7-2.54,0.7h-1.008v3.369h-0.996V78.31h2.221
		C184.816,78.31,185.887,79.142,185.887,80.806z M181.451,82.651h0.896c0.883,0,1.521-0.143,1.916-0.428s0.592-0.742,0.592-1.371
		c0-0.566-0.186-0.988-0.557-1.266s-0.949-0.416-1.734-0.416h-1.113V82.651z"/>
	<path fill="#696A6A" d="M190.162,80.337c0.285,0,0.541,0.023,0.768,0.07l-0.135,0.902c-0.266-0.059-0.5-0.088-0.703-0.088
		c-0.52,0-0.964,0.211-1.333,0.633s-0.554,0.947-0.554,1.576v3.445h-0.973v-6.422h0.803l0.111,1.189h0.047
		c0.238-0.418,0.525-0.74,0.861-0.967S189.76,80.337,190.162,80.337z"/>
	<path fill="#696A6A" d="M195.78,86.876l-0.193-0.914h-0.047c-0.32,0.402-0.64,0.675-0.958,0.817s-0.716,0.214-1.192,0.214
		c-0.637,0-1.136-0.164-1.497-0.492s-0.542-0.795-0.542-1.4c0-1.297,1.037-1.977,3.111-2.039l1.09-0.035v-0.398
		c0-0.504-0.108-0.876-0.325-1.116s-0.563-0.36-1.04-0.36c-0.535,0-1.141,0.164-1.816,0.492l-0.299-0.744
		c0.316-0.172,0.663-0.307,1.04-0.404s0.755-0.146,1.134-0.146c0.766,0,1.333,0.17,1.702,0.51s0.554,0.885,0.554,1.635v4.383H195.78
		z M193.583,86.19c0.605,0,1.081-0.166,1.427-0.498s0.519-0.797,0.519-1.395v-0.58l-0.973,0.041
		c-0.773,0.027-1.331,0.147-1.673,0.36s-0.513,0.544-0.513,0.993c0,0.352,0.106,0.619,0.319,0.803S193.2,86.19,193.583,86.19z"/>
	<path fill="#696A6A" d="M202.312,86.876h-4.658v-0.662l3.504-5.004h-3.287v-0.756h4.354v0.756l-3.457,4.91h3.545V86.876z"/>
	<path fill="#696A6A" d="M206.231,86.993c-0.949,0-1.698-0.289-2.247-0.867s-0.823-1.381-0.823-2.408
		c0-1.035,0.255-1.857,0.765-2.467s1.194-0.914,2.054-0.914c0.805,0,1.441,0.265,1.91,0.794s0.703,1.228,0.703,2.095v0.615h-4.424
		c0.02,0.754,0.21,1.326,0.571,1.717s0.87,0.586,1.526,0.586c0.691,0,1.375-0.145,2.051-0.434v0.867
		c-0.344,0.148-0.669,0.255-0.976,0.319S206.665,86.993,206.231,86.993z M205.968,81.151c-0.516,0-0.927,0.168-1.233,0.504
		s-0.487,0.801-0.542,1.395h3.357c0-0.613-0.137-1.083-0.41-1.409S206.476,81.151,205.968,81.151z"/>
	<path fill="#696A6A" d="M212.881,80.337c0.285,0,0.541,0.023,0.768,0.07l-0.135,0.902c-0.266-0.059-0.5-0.088-0.703-0.088
		c-0.52,0-0.964,0.211-1.333,0.633s-0.554,0.947-0.554,1.576v3.445h-0.973v-6.422h0.803l0.111,1.189h0.047
		c0.238-0.418,0.525-0.74,0.861-0.967S212.479,80.337,212.881,80.337z"/>
	<path fill="#696A6A" d="M214.408,86.255c0-0.262,0.06-0.46,0.179-0.595s0.29-0.202,0.513-0.202c0.227,0,0.403,0.067,0.53,0.202
		s0.19,0.333,0.19,0.595c0,0.254-0.064,0.449-0.193,0.586s-0.305,0.205-0.527,0.205c-0.199,0-0.364-0.062-0.495-0.185
		S214.408,86.536,214.408,86.255z"/>
</g>
<g>
	<path fill="#696A6A" d="M70.512,106.221c0,0.754-0.273,1.342-0.82,1.764s-1.289,0.633-2.227,0.633
		c-1.016,0-1.797-0.131-2.344-0.393v-0.961c0.352,0.148,0.734,0.266,1.148,0.352s0.824,0.129,1.23,0.129
		c0.664,0,1.164-0.126,1.5-0.378s0.504-0.603,0.504-1.052c0-0.297-0.06-0.54-0.179-0.729s-0.318-0.364-0.598-0.524
		s-0.704-0.342-1.274-0.545c-0.797-0.285-1.366-0.623-1.708-1.014s-0.513-0.9-0.513-1.529c0-0.66,0.248-1.186,0.744-1.576
		s1.152-0.586,1.969-0.586c0.852,0,1.635,0.156,2.35,0.469l-0.311,0.867c-0.707-0.297-1.395-0.445-2.062-0.445
		c-0.527,0-0.939,0.113-1.236,0.34s-0.445,0.541-0.445,0.943c0,0.297,0.055,0.54,0.164,0.729s0.294,0.363,0.554,0.521
		s0.657,0.333,1.192,0.524c0.898,0.32,1.517,0.664,1.854,1.031S70.512,105.635,70.512,106.221z"/>
	<path fill="#696A6A" d="M75.767,108.5l-0.193-0.914h-0.047c-0.32,0.402-0.64,0.675-0.958,0.817s-0.716,0.214-1.192,0.214
		c-0.637,0-1.136-0.164-1.497-0.492s-0.542-0.795-0.542-1.4c0-1.297,1.037-1.977,3.111-2.039l1.09-0.035v-0.398
		c0-0.504-0.108-0.876-0.325-1.116s-0.563-0.36-1.04-0.36c-0.535,0-1.141,0.164-1.816,0.492l-0.299-0.744
		c0.316-0.172,0.663-0.307,1.04-0.404s0.755-0.146,1.134-0.146c0.766,0,1.333,0.17,1.702,0.51s0.554,0.885,0.554,1.635v4.383H75.767
		z M73.569,107.814c0.605,0,1.081-0.166,1.427-0.498s0.519-0.797,0.519-1.395v-0.58l-0.973,0.041
		c-0.773,0.027-1.331,0.147-1.673,0.36s-0.513,0.544-0.513,0.993c0,0.352,0.106,0.619,0.319,0.803S73.187,107.814,73.569,107.814z"
		/>
	<path fill="#696A6A" d="M78.109,100.338c0-0.223,0.055-0.386,0.164-0.489s0.246-0.155,0.41-0.155c0.156,0,0.291,0.053,0.404,0.158
		s0.17,0.268,0.17,0.486s-0.057,0.382-0.17,0.489s-0.248,0.161-0.404,0.161c-0.164,0-0.301-0.054-0.41-0.161
		S78.109,100.557,78.109,100.338z M79.164,108.5h-0.973v-6.422h0.973V108.5z"/>
	<path fill="#696A6A" d="M83.915,101.973c0.844,0,1.499,0.288,1.966,0.864s0.7,1.392,0.7,2.446s-0.235,1.874-0.706,2.458
		s-1.124,0.876-1.96,0.876c-0.418,0-0.8-0.077-1.146-0.231s-0.636-0.392-0.87-0.712h-0.07l-0.205,0.826h-0.697v-9.117h0.973v2.215
		c0,0.496-0.016,0.941-0.047,1.336h0.047C82.352,102.293,83.024,101.973,83.915,101.973z M83.774,102.787
		c-0.664,0-1.143,0.19-1.436,0.571s-0.439,1.022-0.439,1.925s0.15,1.548,0.451,1.937s0.783,0.583,1.447,0.583
		c0.598,0,1.043-0.218,1.336-0.653s0.439-1.062,0.439-1.878c0-0.836-0.146-1.459-0.439-1.869S84.387,102.787,83.774,102.787z"/>
	<path fill="#696A6A" d="M91.929,108.5l-0.193-0.914h-0.047c-0.32,0.402-0.64,0.675-0.958,0.817s-0.716,0.214-1.192,0.214
		c-0.637,0-1.136-0.164-1.497-0.492s-0.542-0.795-0.542-1.4c0-1.297,1.037-1.977,3.111-2.039l1.09-0.035v-0.398
		c0-0.504-0.108-0.876-0.325-1.116s-0.563-0.36-1.04-0.36c-0.535,0-1.141,0.164-1.816,0.492l-0.299-0.744
		c0.316-0.172,0.663-0.307,1.04-0.404s0.755-0.146,1.134-0.146c0.766,0,1.333,0.17,1.702,0.51s0.554,0.885,0.554,1.635v4.383H91.929
		z M89.731,107.814c0.605,0,1.081-0.166,1.427-0.498s0.519-0.797,0.519-1.395v-0.58l-0.973,0.041
		c-0.773,0.027-1.331,0.147-1.673,0.36s-0.513,0.544-0.513,0.993c0,0.352,0.106,0.619,0.319,0.803S89.349,107.814,89.731,107.814z"
		/>
	<path fill="#696A6A" d="M105.356,108.5v-4.178c0-0.512-0.109-0.896-0.328-1.151s-0.559-0.384-1.02-0.384
		c-0.605,0-1.053,0.174-1.342,0.521s-0.434,0.883-0.434,1.605v3.586h-0.973v-4.178c0-0.512-0.109-0.896-0.328-1.151
		s-0.561-0.384-1.025-0.384c-0.609,0-1.056,0.183-1.339,0.548s-0.425,0.964-0.425,1.796v3.369h-0.973v-6.422h0.791l0.158,0.879
		h0.047c0.184-0.312,0.442-0.557,0.776-0.732s0.708-0.264,1.122-0.264c1.004,0,1.66,0.363,1.969,1.09h0.047
		c0.191-0.336,0.469-0.602,0.832-0.797s0.777-0.293,1.242-0.293c0.727,0,1.271,0.187,1.632,0.56s0.542,0.97,0.542,1.79v4.189
		H105.356z"/>
	<path fill="#696A6A" d="M111.982,108.5l-0.193-0.914h-0.047c-0.32,0.402-0.64,0.675-0.958,0.817s-0.716,0.214-1.192,0.214
		c-0.637,0-1.136-0.164-1.497-0.492s-0.542-0.795-0.542-1.4c0-1.297,1.037-1.977,3.111-2.039l1.09-0.035v-0.398
		c0-0.504-0.108-0.876-0.325-1.116s-0.563-0.36-1.04-0.36c-0.535,0-1.141,0.164-1.816,0.492l-0.299-0.744
		c0.316-0.172,0.663-0.307,1.04-0.404s0.755-0.146,1.134-0.146c0.766,0,1.333,0.17,1.702,0.51s0.554,0.885,0.554,1.635v4.383
		H111.982z M109.785,107.814c0.605,0,1.081-0.166,1.427-0.498s0.519-0.797,0.519-1.395v-0.58l-0.973,0.041
		c-0.773,0.027-1.331,0.147-1.673,0.36s-0.513,0.544-0.513,0.993c0,0.352,0.106,0.619,0.319,0.803S109.402,107.814,109.785,107.814z
		"/>
	<path fill="#696A6A" d="M114.325,100.338c0-0.223,0.055-0.386,0.164-0.489s0.246-0.155,0.41-0.155c0.156,0,0.291,0.053,0.404,0.158
		s0.17,0.268,0.17,0.486s-0.057,0.382-0.17,0.489s-0.248,0.161-0.404,0.161c-0.164,0-0.301-0.054-0.41-0.161
		S114.325,100.557,114.325,100.338z M115.379,108.5h-0.973v-6.422h0.973V108.5z"/>
	<path fill="#696A6A" d="M121.284,106.748c0,0.598-0.223,1.059-0.668,1.383s-1.07,0.486-1.875,0.486
		c-0.852,0-1.516-0.135-1.992-0.404v-0.902c0.309,0.156,0.64,0.279,0.993,0.369s0.694,0.135,1.022,0.135
		c0.508,0,0.898-0.081,1.172-0.243s0.41-0.409,0.41-0.741c0-0.25-0.108-0.464-0.325-0.642s-0.64-0.388-1.269-0.63
		c-0.598-0.223-1.022-0.417-1.274-0.583s-0.439-0.354-0.562-0.565s-0.185-0.463-0.185-0.756c0-0.523,0.213-0.937,0.639-1.239
		s1.01-0.454,1.752-0.454c0.691,0,1.367,0.141,2.027,0.422l-0.346,0.791c-0.645-0.266-1.229-0.398-1.752-0.398
		c-0.461,0-0.809,0.072-1.043,0.217s-0.352,0.344-0.352,0.598c0,0.172,0.044,0.318,0.132,0.439s0.229,0.236,0.425,0.346
		s0.57,0.268,1.125,0.475c0.762,0.277,1.276,0.557,1.544,0.838S121.284,106.322,121.284,106.748z"/>
	<path fill="#696A6A" d="M64.5,109.701v-0.598h57.035v0.598H64.5z"/>
</g>
<g>
	<path fill="#838387" d="M3.999,26.435c0,0,1.2,2.838,6.057,0.601c6.656-3.438,13.095-0.109,13.095-0.109s2.291,1.364,4.474,0
		c7.639-3.328,12.167,0.219,12.931,0.709c2.729,1.528,4.256-0.49,4.256-0.49s-0.109,9.112-3.875,13.804
		c-3.765,4.693-10.258,3.056-10.912,2.892c-0.656-0.164-1.31-0.6-2.183-1.2c-2.238-1.419-3.874-1.419-5.565,0.054
		c-0.655,0.437-2.237,1.528-4.529,2.019c-6.002,0.219-9.078-3.284-9.767-4.801C5.172,33.72,3.999,26.435,3.999,26.435"/>
	<path fill="#FFFFFF" d="M21.433,38.016c0,0-1.064-4.256-4.911-5.484c-2.046-0.572-4.256,0.328-5.156,0.573
		c-1.992,0.736-2.456,0.164-2.292,0.409C13.249,40.471,21.433,38.016,21.433,38.016"/>
	<path fill="#FFFFFF" d="M27.377,38.016c0,0,1.065-4.256,4.911-5.484c2.046-0.572,4.256,0.328,5.157,0.573
		c1.991,0.736,2.455,0.164,2.292,0.409C35.562,40.471,27.377,38.016,27.377,38.016"/>
	<path fill="#FFFFFF" d="M25.844,29.806c0,0.432-0.35,0.782-0.781,0.782s-0.782-0.35-0.782-0.782c0-0.431,0.35-0.781,0.782-0.781
		S25.844,29.375,25.844,29.806"/>
	<path fill="#FFFFFF" d="M23.656,28.999c0,0.331-0.268,0.6-0.599,0.6s-0.599-0.269-0.599-0.6s0.268-0.599,0.599-0.599
		S23.656,28.667,23.656,28.999"/>
	<path fill="#FFFFFF" d="M21.884,28.191c0,0.229-0.186,0.417-0.416,0.417c-0.23,0-0.417-0.187-0.417-0.417
		c0-0.231,0.187-0.417,0.417-0.417C21.698,27.774,21.884,27.96,21.884,28.191"/>
	<path fill="#FFFFFF" d="M20.53,27.8c0,0.187-0.151,0.339-0.338,0.339c-0.187,0-0.339-0.152-0.339-0.339
		c0-0.187,0.152-0.338,0.339-0.338C20.378,27.461,20.53,27.613,20.53,27.8"/>
	<path fill="#FFFFFF" d="M19.307,27.514c0,0.187-0.152,0.339-0.339,0.339s-0.339-0.152-0.339-0.339c0-0.188,0.152-0.338,0.339-0.338
		S19.307,27.326,19.307,27.514"/>
	<path fill="#FFFFFF" d="M17.951,27.305c0,0.187-0.152,0.338-0.338,0.338c-0.188,0-0.339-0.151-0.339-0.338
		c0-0.188,0.151-0.338,0.339-0.338C17.799,26.967,17.951,27.118,17.951,27.305"/>
	<path fill="#FFFFFF" d="M16.545,27.201c0,0.187-0.151,0.339-0.339,0.339c-0.187,0-0.339-0.152-0.339-0.339
		c0-0.187,0.152-0.338,0.339-0.338C16.394,26.863,16.545,27.014,16.545,27.201"/>
	<path fill="#FFFFFF" d="M15.243,27.305c0,0.187-0.152,0.339-0.339,0.339s-0.338-0.152-0.338-0.339s0.151-0.338,0.338-0.338
		S15.243,27.118,15.243,27.305"/>
	<path fill="#FFFFFF" d="M26.496,28.999c0,0.331,0.268,0.6,0.599,0.6s0.599-0.269,0.599-0.6s-0.268-0.599-0.599-0.599
		S26.496,28.667,26.496,28.999"/>
	<path fill="#FFFFFF" d="M28.267,28.191c0,0.229,0.187,0.417,0.417,0.417c0.23,0,0.417-0.187,0.417-0.417
		c0-0.231-0.187-0.417-0.417-0.417C28.453,27.774,28.267,27.96,28.267,28.191"/>
	<path fill="#FFFFFF" d="M29.621,27.8c0,0.187,0.151,0.339,0.338,0.339c0.188,0,0.339-0.152,0.339-0.339
		c0-0.187-0.152-0.338-0.339-0.338C29.772,27.461,29.621,27.613,29.621,27.8"/>
	<path fill="#FFFFFF" d="M30.845,27.514c0,0.187,0.152,0.339,0.338,0.339c0.187,0,0.339-0.152,0.339-0.339
		c0-0.188-0.152-0.338-0.339-0.338C30.997,27.175,30.845,27.326,30.845,27.514"/>
	<path fill="#FFFFFF" d="M32.199,27.305c0,0.187,0.152,0.338,0.339,0.338s0.339-0.151,0.339-0.338c0-0.188-0.152-0.338-0.339-0.338
		S32.199,27.118,32.199,27.305"/>
	<path fill="#FFFFFF" d="M33.606,27.201c0,0.187,0.151,0.339,0.339,0.339c0.187,0,0.338-0.152,0.338-0.339
		c0-0.187-0.152-0.338-0.338-0.338C33.758,26.863,33.606,27.014,33.606,27.201"/>
	<path fill="#FFFFFF" d="M34.909,27.305c0,0.187,0.151,0.339,0.339,0.339c0.186,0,0.338-0.152,0.338-0.339s-0.152-0.338-0.338-0.338
		C35.06,26.967,34.909,27.118,34.909,27.305"/>
	<path fill="#838387" d="M40.452,30.359c0,0,0.317-3.819,3.475-6.673c5.722-6.701,1.488-12.85,1.488-12.85s2.675,4.384,2.648,4.688
		c0.759-0.565,1.047-2.702,1.047-2.702s0.4,1.544-0.275,2.978c-0.675,1.435-0.427,1.572-0.055,1.71
		c1.199,0.509,1.103-0.772,1.378-0.772c0.566,0,1.807,2.812-1.103,2.537c1.089,0.648,0.841,1.972,0.841,1.972
		s-1.117-0.704-2.165,0.234c-0.248,0.221-0.164,0.367,0,0.331c5.212-1.13,4.302,2.62,4.136,2.813
		c-1.655,1.378-2.344-0.496-2.15-0.772c1.461-1.02-0.469-1.544-0.993-1.157c-0.221,0.22,0.221,1.764,0.221,1.764
		s-0.579-1.6-2.482-0.772c-3.585,2.013-3.805,4.964-3.805,4.964l-0.551,2.426L40.452,30.359z"/>
	<path fill="#838387" d="M41.997,28.402c0,0,1.895-3.359,5.981-4.643c8.048-3.723,6.762-11.125,6.762-11.125
		s0.604,5.133,0.451,5.399c0.931-0.199,2.094-2.031,2.094-2.031s-0.283,1.58-1.503,2.607c-1.221,1.027-1.051,1.258-0.769,1.541
		c0.882,0.97,1.333-0.243,1.585-0.127c0.517,0.237,0.469,3.331-2.074,1.856c0.723,1.051-0.06,2.157-0.06,2.157
		s-0.726-1.112-2.078-0.695c-0.319,0.098-0.304,0.266-0.14,0.303c5.242,1.156,2.833,4.204,2.602,4.31
		c-2.093,0.566-1.935-1.439-1.642-1.61c1.764-0.318,0.219-1.608-0.422-1.476c-0.294,0.109-0.54,1.707-0.54,1.707
		s0.143-1.706-1.945-1.749c-4.125,0.334-5.566,2.94-5.566,2.94l-1.525,1.987L41.997,28.402z"/>
	<path fill="#838387" d="M42.73,29.696c0,0,2.207-2.594,6.743,0.93c5.141,3.87,10.638-0.76,10.638-0.76s-3.143,2.838-3.393,2.862
		c0.574,0.528,2.349,0.436,2.349,0.436s-1.189,0.561-2.454,0.232c-1.265-0.328-1.338-0.106-1.393,0.217
		c-0.23,1.05,0.794,0.776,0.836,0.999c0.087,0.458-2.002,1.893-2.223-0.505c-0.358,0.981-1.469,0.982-1.469,0.982
		s0.399-1.012-0.521-1.717c-0.217-0.167-0.322-0.077-0.269,0.05c1.713,4.049-1.464,3.886-1.646,3.781
		c-1.37-1.129,0.043-1.975,0.297-1.86c1.049,1.027,1.178-0.617,0.786-0.982c-0.212-0.145-1.396,0.449-1.396,0.449
		s1.207-0.714,0.246-2.129c-2.179-2.596-3.816-2.319-4.603-2.323c-0.786-0.004-1.406,1.002-1.406,1.002L42.73,29.696z"/>
	<path fill="#838387" d="M42.245,27.698c0,0-0.738-2.061,0.494-4.717c1.824-5.78-2.509-8.537-2.509-8.537s2.872,2.058,2.936,2.257
		c0.329-0.562-0.062-1.993-0.062-1.993s0.668,0.871,0.626,1.96c-0.043,1.09,0.152,1.11,0.425,1.098c0.896,0,0.491-0.786,0.666-0.859
		c0.357-0.152,1.899,1.295-0.017,1.902c0.864,0.118,1.062,1.023,1.062,1.023s-0.896-0.146-1.308,0.73
		c-0.098,0.207-0.005,0.276,0.089,0.209c2.997-2.117,3.428,0.502,3.375,0.669c-0.677,1.317-1.617,0.316-1.57,0.089
		c0.651-1.039-0.711-0.852-0.94-0.467c-0.081,0.199,0.614,1.059,0.614,1.059s-0.796-0.858-1.779,0.177
		c-1.729,2.239-1.076,4.166-1.076,4.166l-0.57,1.273L42.245,27.698z"/>
	<path fill="#838387" d="M44.162,26.863c0,0,3.346-2.719,4.914-0.349c1.674,0.454,1.604,1.359,1.986,2.057
		c0.942,0.941,1.569-0.453,1.569-0.453s-0.023,0.731-0.162,0.964c5.124,1.394,6.472-2.08,6.472-2.08s-0.383,1.592-1.499,2.335
		c-0.163,0.093,1.301-0.116,1.185-0.035c-0.557,0.523-2.022,0.558-2.022,0.558s-0.046,0.5,0.732,0.592
		c-0.592,1.162-1.29,0.244-1.29,0.244s-0.395,0.489-0.72,0.523c0.162-0.442-0.441-0.883-0.466-0.732
		c0.024,0.662-0.8,0.698-0.8,0.698s0.151-1.267-2.162-1.36c-0.127,0.023,0.36,2.487,2.428,1.882
		c-0.301,0.407-1.043,0.514-1.599,0.375c-2.089-0.286-2.672-2.187-4.997-2.603c-0.886-0.159-1.339-0.108-1.339-0.108h-3.208
		l-0.208-1.429L44.162,26.863z"/>
	<rect x="42.149" y="26.264" fill="#838387" width="1.876" height="3.542"/>
	<rect x="44.025" y="29.754" fill="#838387" width="0.625" height="24.693"/>
</g>
</svg>
