<?xml version="1.0" encoding="utf-8"?>
<!-- Generator: Adobe Illustrator 15.0.0, SVG Export Plug-In . SVG Version: 6.00 Build 0)  -->
<!DOCTYPE svg PUBLIC "-//W3C//DTD SVG 1.1//EN" "http://www.w3.org/Graphics/SVG/1.1/DTD/svg11.dtd">
<svg version="1.1" id="Layer_1" xmlns="http://www.w3.org/2000/svg" xmlns:xlink="http://www.w3.org/1999/xlink" x="0px" y="0px"
	 width="230px" height="115px" viewBox="0 0 230 115" enable-background="new 0 0 230 115" xml:space="preserve">
<g>
	<path fill="#696B6B" d="M70.512,106.221c0,0.754-0.273,1.342-0.82,1.764s-1.289,0.634-2.227,0.634
		c-1.016,0-1.797-0.132-2.344-0.394v-0.961c0.352,0.148,0.734,0.266,1.148,0.353c0.414,0.086,0.824,0.129,1.23,0.129
		c0.664,0,1.164-0.126,1.5-0.378s0.504-0.604,0.504-1.053c0-0.297-0.06-0.539-0.179-0.729c-0.119-0.189-0.318-0.363-0.598-0.523
		c-0.28-0.16-0.704-0.342-1.274-0.545c-0.797-0.285-1.366-0.623-1.708-1.015c-0.342-0.392-0.513-0.899-0.513-1.528
		c0-0.66,0.248-1.187,0.744-1.576c0.496-0.391,1.152-0.586,1.969-0.586c0.852,0,1.635,0.156,2.35,0.469l-0.311,0.867
		c-0.707-0.297-1.395-0.445-2.062-0.445c-0.527,0-0.939,0.113-1.236,0.34s-0.445,0.541-0.445,0.943c0,0.297,0.055,0.539,0.164,0.729
		c0.109,0.189,0.294,0.363,0.554,0.521c0.26,0.158,0.657,0.332,1.192,0.523c0.898,0.32,1.517,0.664,1.854,1.031
		S70.512,105.635,70.512,106.221z"/>
	<path fill="#696B6B" d="M75.767,108.5l-0.193-0.914h-0.047c-0.32,0.402-0.64,0.676-0.958,0.816
		c-0.318,0.143-0.716,0.215-1.192,0.215c-0.637,0-1.136-0.164-1.497-0.492c-0.361-0.328-0.542-0.795-0.542-1.4
		c0-1.297,1.037-1.977,3.111-2.039l1.09-0.035v-0.397c0-0.504-0.108-0.876-0.325-1.116c-0.217-0.24-0.563-0.359-1.04-0.359
		c-0.535,0-1.141,0.164-1.816,0.492l-0.299-0.744c0.316-0.172,0.663-0.308,1.04-0.404c0.377-0.098,0.755-0.146,1.134-0.146
		c0.766,0,1.333,0.17,1.702,0.51c0.369,0.341,0.554,0.886,0.554,1.636v4.383h-0.722V108.5z M73.569,107.814
		c0.605,0,1.081-0.166,1.427-0.498c0.346-0.332,0.519-0.797,0.519-1.396v-0.58l-0.973,0.041c-0.773,0.027-1.331,0.147-1.673,0.36
		c-0.342,0.213-0.513,0.544-0.513,0.992c0,0.353,0.106,0.619,0.319,0.804C72.888,107.723,73.187,107.814,73.569,107.814z"/>
	<path fill="#696B6B" d="M78.109,100.338c0-0.223,0.055-0.386,0.164-0.488c0.109-0.104,0.246-0.156,0.41-0.156
		c0.156,0,0.291,0.054,0.404,0.158c0.113,0.105,0.17,0.269,0.17,0.486c0,0.219-0.057,0.383-0.17,0.489
		c-0.113,0.106-0.248,0.161-0.404,0.161c-0.164,0-0.301-0.055-0.41-0.161S78.109,100.557,78.109,100.338z M79.164,108.5h-0.973
		v-6.422h0.973V108.5z"/>
	<path fill="#696B6B" d="M83.915,101.973c0.844,0,1.499,0.289,1.966,0.864c0.467,0.576,0.7,1.392,0.7,2.446
		c0,1.054-0.235,1.873-0.706,2.458c-0.471,0.584-1.124,0.876-1.96,0.876c-0.418,0-0.8-0.077-1.146-0.23
		c-0.346-0.154-0.636-0.393-0.87-0.713h-0.07l-0.205,0.826h-0.697v-9.117H81.9v2.215c0,0.496-0.016,0.941-0.047,1.336H81.9
		C82.352,102.293,83.024,101.973,83.915,101.973z M83.774,102.787c-0.664,0-1.143,0.189-1.436,0.57s-0.439,1.022-0.439,1.926
		c0,0.902,0.15,1.548,0.451,1.938c0.301,0.389,0.783,0.582,1.447,0.582c0.598,0,1.043-0.218,1.336-0.652
		c0.293-0.436,0.439-1.062,0.439-1.879c0-0.836-0.146-1.459-0.439-1.869C84.84,102.993,84.387,102.787,83.774,102.787z"/>
	<path fill="#696B6B" d="M91.929,108.5l-0.193-0.914h-0.047c-0.32,0.402-0.64,0.676-0.958,0.816
		c-0.318,0.143-0.716,0.215-1.192,0.215c-0.637,0-1.136-0.164-1.497-0.492s-0.542-0.795-0.542-1.4c0-1.297,1.037-1.977,3.111-2.039
		l1.09-0.035v-0.397c0-0.504-0.108-0.876-0.325-1.116s-0.563-0.359-1.04-0.359c-0.535,0-1.141,0.164-1.816,0.492l-0.299-0.744
		c0.316-0.172,0.663-0.308,1.04-0.404c0.377-0.098,0.755-0.146,1.134-0.146c0.766,0,1.333,0.17,1.702,0.51
		c0.369,0.341,0.554,0.886,0.554,1.636v4.383h-0.722V108.5z M89.731,107.814c0.605,0,1.081-0.166,1.427-0.498
		c0.346-0.332,0.519-0.797,0.519-1.396v-0.58l-0.973,0.041c-0.773,0.027-1.331,0.147-1.673,0.36
		c-0.342,0.213-0.513,0.544-0.513,0.992c0,0.353,0.106,0.619,0.319,0.804S89.349,107.814,89.731,107.814z"/>
	<path fill="#696B6B" d="M105.356,108.5v-4.178c0-0.512-0.109-0.896-0.328-1.151c-0.219-0.255-0.559-0.384-1.02-0.384
		c-0.605,0-1.053,0.174-1.342,0.521c-0.289,0.346-0.434,0.883-0.434,1.604v3.586h-0.973v-4.179c0-0.512-0.109-0.896-0.328-1.15
		c-0.219-0.255-0.561-0.384-1.025-0.384c-0.609,0-1.056,0.183-1.339,0.548c-0.283,0.365-0.425,0.964-0.425,1.796v3.369h-0.973
		v-6.422h0.791l0.158,0.879h0.047c0.184-0.312,0.442-0.558,0.776-0.731c0.334-0.176,0.708-0.265,1.122-0.265
		c1.004,0,1.66,0.362,1.969,1.09h0.047c0.191-0.336,0.469-0.603,0.832-0.797c0.363-0.194,0.777-0.293,1.242-0.293
		c0.727,0,1.271,0.187,1.632,0.56c0.361,0.373,0.542,0.971,0.542,1.791v4.188L105.356,108.5L105.356,108.5z"/>
	<path fill="#696B6B" d="M111.982,108.5l-0.193-0.914h-0.047c-0.32,0.402-0.64,0.676-0.958,0.816
		c-0.318,0.143-0.716,0.215-1.192,0.215c-0.637,0-1.136-0.164-1.497-0.492c-0.361-0.328-0.542-0.795-0.542-1.4
		c0-1.297,1.037-1.977,3.111-2.039l1.09-0.035v-0.397c0-0.504-0.108-0.876-0.325-1.116c-0.217-0.24-0.563-0.359-1.04-0.359
		c-0.535,0-1.141,0.164-1.816,0.492l-0.299-0.744c0.316-0.172,0.663-0.308,1.04-0.404c0.377-0.098,0.755-0.146,1.134-0.146
		c0.766,0,1.333,0.17,1.702,0.51c0.369,0.341,0.554,0.886,0.554,1.636v4.383h-0.722V108.5z M109.785,107.814
		c0.605,0,1.081-0.166,1.427-0.498c0.346-0.332,0.519-0.797,0.519-1.396v-0.58l-0.973,0.041c-0.773,0.027-1.331,0.147-1.673,0.36
		c-0.342,0.213-0.513,0.544-0.513,0.992c0,0.353,0.106,0.619,0.319,0.804S109.402,107.814,109.785,107.814z"/>
	<path fill="#696B6B" d="M114.325,100.338c0-0.223,0.055-0.386,0.164-0.488c0.109-0.104,0.246-0.156,0.41-0.156
		c0.156,0,0.291,0.054,0.404,0.158c0.113,0.105,0.17,0.269,0.17,0.486c0,0.219-0.057,0.383-0.17,0.489
		c-0.113,0.106-0.248,0.161-0.404,0.161c-0.164,0-0.301-0.055-0.41-0.161C114.38,100.721,114.325,100.557,114.325,100.338z
		 M115.379,108.5h-0.973v-6.422h0.973V108.5z"/>
	<path fill="#696B6B" d="M121.284,106.748c0,0.598-0.224,1.059-0.668,1.383c-0.445,0.324-1.07,0.486-1.875,0.486
		c-0.853,0-1.517-0.135-1.992-0.404v-0.902c0.31,0.156,0.64,0.279,0.993,0.369s0.693,0.135,1.021,0.135
		c0.508,0,0.898-0.08,1.172-0.242c0.274-0.162,0.41-0.409,0.41-0.741c0-0.25-0.107-0.464-0.324-0.642s-0.641-0.389-1.27-0.631
		c-0.598-0.223-1.021-0.416-1.273-0.582s-0.439-0.354-0.562-0.565s-0.186-0.463-0.186-0.757c0-0.522,0.213-0.936,0.64-1.238
		c0.426-0.303,1.01-0.454,1.752-0.454c0.69,0,1.366,0.142,2.026,0.423l-0.346,0.79c-0.645-0.266-1.229-0.397-1.752-0.397
		c-0.461,0-0.809,0.072-1.043,0.217s-0.352,0.344-0.352,0.598c0,0.172,0.044,0.318,0.132,0.439s0.229,0.236,0.425,0.346
		c0.196,0.109,0.57,0.268,1.125,0.475c0.762,0.277,1.275,0.558,1.544,0.838C121.15,105.971,121.284,106.322,121.284,106.748z"/>
	<path fill="#696B6B" d="M64.5,109.701v-0.598h57.035v0.598H64.5z"/>
</g>
<g>
	<path fill-rule="evenodd" clip-rule="evenodd" fill="#696969" d="M52.614,37.785c0,12.683-10.362,22.965-23.145,22.965
		c-4.06,0-7.874-1.036-11.188-2.857L5.466,61.965l4.177-12.321c-2.108-3.461-3.32-7.521-3.32-11.859
		c0-12.685,10.362-22.968,23.147-22.968C42.252,14.817,52.614,25.1,52.614,37.785L52.614,37.785z M29.47,18.475
		c-10.733,0-19.461,8.661-19.461,19.31c0,4.223,1.376,8.137,3.706,11.321l-2.43,7.17l7.478-2.376
		c3.071,2.015,6.752,3.192,10.707,3.192c10.728,0,19.459-8.662,19.459-19.308C48.929,27.136,40.198,18.475,29.47,18.475
		L29.47,18.475z M41.157,43.075c-0.143-0.235-0.521-0.376-1.087-0.658c-0.567-0.282-3.358-1.645-3.877-1.832
		c-0.52-0.187-0.9-0.282-1.277,0.281c-0.378,0.563-1.465,1.832-1.798,2.208c-0.33,0.375-0.66,0.422-1.228,0.14
		c-0.568-0.281-2.397-0.877-4.563-2.794c-1.685-1.493-2.824-3.335-3.157-3.898c-0.33-0.562-0.033-0.867,0.248-1.147
		c0.256-0.254,0.568-0.658,0.852-0.985c0.284-0.33,0.379-0.566,0.568-0.941c0.189-0.377,0.095-0.704-0.048-0.986
		c-0.141-0.28-1.277-3.051-1.75-4.18c-0.471-1.124-0.944-0.938-1.276-0.938c-0.331,0-0.709-0.046-1.087-0.046
		c-0.378,0-0.992,0.141-1.511,0.704c-0.52,0.562-1.986,1.926-1.986,4.694c0,2.77,2.031,5.448,2.315,5.822
		c0.285,0.376,3.924,6.247,9.692,8.5c5.768,2.253,5.768,1.502,6.809,1.407c1.04-0.092,3.357-1.36,3.83-2.675
		C41.298,44.436,41.298,43.308,41.157,43.075L41.157,43.075z M41.157,43.075"/>
</g>
<g>
	<path fill="#696969" d="M67.18,26.023l2.697,12.552h-1.681l-0.466-2.447h-2.497l-0.466,2.447h-1.632l2.73-12.552H67.18z
		 M67.146,33.015l-0.633-4.562H66.48l-0.999,6.376h1.998L67.146,33.015z"/>
	<path fill="#696969" d="M72.838,26.023c1.964,0,4.195,0.133,4.195,6.493c0,5.793-1.931,6.06-4.911,6.06h-1.148V26.023H72.838z
		 M72.639,27.438v9.722c2.747,0.083,2.63-2.514,2.63-4.645C75.269,30.584,75.452,27.271,72.639,27.438z"/>
	<path fill="#696969" d="M80.395,38.575H78.73V26.023h1.665V38.575z"/>
	<path fill="#696969" d="M87.286,27.738c-0.333-0.167-0.683-0.316-1.065-0.316c-2.331,0-2.347,3.396-2.347,4.961
		c0,1.665,0.133,4.794,2.414,4.794c0.367,0,0.683-0.083,0.999-0.25v1.465c-0.416,0.266-0.849,0.35-1.332,0.35
		c-3.396,0-3.846-3.612-3.846-6.243c0-2.514,0.316-6.643,3.729-6.643c0.566,0,0.965,0.083,1.448,0.366V27.738z"/>
	<path fill="#696969" d="M90.231,38.575h-1.665V26.023h1.665V38.575z"/>
	<path fill="#696969" d="M98.471,32.299c0,2.264-0.033,6.442-3.263,6.442c-3.229,0-3.263-4.179-3.263-6.442
		c0-2.264,0.033-6.443,3.263-6.443C98.438,25.856,98.471,30.035,98.471,32.299z M93.709,32.299c0,2.664,0.183,4.877,1.498,4.877
		c1.315,0,1.499-2.214,1.499-4.877s-0.183-4.878-1.499-4.878C93.893,27.421,93.709,29.636,93.709,32.299z"/>
	<path fill="#696969" d="M101.599,29.752l0.25,4.212v4.611h-1.665V26.023h1.598l2.93,9.539l0.033-0.033l-0.399-5.027v-4.479h1.665
		v12.552h-1.548l-2.93-9.672l-0.033,0.033L101.599,29.752z"/>
	<path fill="#696969" d="M112.518,26.023v1.448h-2.813v3.946h2.514v1.448h-2.514v4.262h2.813v1.448h-4.478V26.023H112.518z"/>
	<path fill="#696969" d="M121.704,26.023v1.448h-2.812v3.946h2.514v1.448h-2.514v4.262h2.812v1.448h-4.478V26.023H121.704z"/>
</g>
<g>
	<path fill="#696969" d="M136.135,26.023v2.331h-1.965v10.222h-2.48V28.354h-1.947v-2.331H136.135z"/>
	<path fill="#696969" d="M139.746,26.023v12.552h-2.48V26.023H139.746z"/>
	<path fill="#696969" d="M141.51,38.575V26.023h2.497c1.581,0,4.411,0.167,4.411,3.596c0,1.381-0.549,2.563-1.781,3.246l2.181,5.71
		h-2.613l-2.181-5.793h-0.033v5.793H141.51z M143.99,31.417l0.433,0.017c1.132,0,1.581-0.766,1.581-1.798
		c0-0.899-0.433-1.632-1.681-1.565h-0.333V31.417z"/>
	<path fill="#696969" d="M155.325,26.023v2.331h-2.514v2.73h2.214v2.331h-2.214v2.83h2.547v2.331h-5.027V26.023H155.325z"/>
	<path fill="#696969" d="M160.933,38.575V26.023h1.882c0.433,0,5.626-0.632,5.626,6.376c0,3.579-1.382,6.176-5.294,6.176H160.933z
		 M165.96,32.382c0-1.598-0.499-4.128-2.547-4.128v8.09C165.411,36.444,165.96,33.947,165.96,32.382z"/>
	<path fill="#696969" d="M172.169,26.023v8.124c0,0.949-0.117,2.38,1.231,2.38c1.215,0,1.215-0.916,1.231-1.848v-8.657h2.48v9.156
		c0,1.332-0.149,3.596-3.729,3.596c-2.314,0-3.695-1.082-3.695-3.429v-9.323H172.169z M175.631,23.06l-2.147,2.297l-1.148-0.666
		l1.599-2.397L175.631,23.06z"/>
	<path fill="#696969" d="M180.724,26.023l1.498,6.026c0.217,0.716,0.3,1.432,0.449,2.147h0.033c0.134-0.732,0.184-1.448,0.384-2.181
		l1.515-5.993h2.597l-3.479,12.552h-2.031l-3.629-12.552H180.724z"/>
	<path fill="#696969" d="M190.693,26.023v12.552h-2.48V26.023H190.693z"/>
	<path fill="#696969" d="M192.457,38.575V26.023h1.882c0.433,0,5.627-0.632,5.627,6.376c0,3.579-1.382,6.176-5.294,6.176H192.457z
		 M197.485,32.382c0-1.598-0.5-4.128-2.548-4.128v8.09C196.936,36.444,197.485,33.947,197.485,32.382z"/>
	<path fill="#696969" d="M206.057,26.023l3.013,12.552h-2.646l-0.466-2.114h-2.514l-0.45,2.114h-2.464l2.914-12.552H206.057z
		 M204.958,31.15l-0.283-1.897h-0.033l-0.267,1.897l-0.532,3.346h1.748L204.958,31.15z"/>
	<path fill="#696969" d="M215.228,28.853c-0.499-0.433-1.115-0.799-1.798-0.799c-0.766,0-1.249,0.466-1.249,1.232
		c0,2.064,3.779,2.181,3.779,5.577c0,2.231-1.282,3.912-3.612,3.912c-0.699,0-1.565-0.216-2.131-0.632v-2.364
		c0.583,0.399,1.148,0.666,1.881,0.666c0.799,0,1.432-0.533,1.432-1.365c0-0.965-0.766-1.332-1.465-1.831
		c-1.432-0.965-2.313-1.898-2.313-3.729c0-1.981,1.148-3.696,3.279-3.696c0.799,0,1.515,0.216,2.197,0.616V28.853z"/>
	<path fill="#696969" d="M220.137,37.193c0,0.866-0.716,1.582-1.581,1.582c-0.866,0-1.582-0.716-1.582-1.582
		s0.716-1.582,1.582-1.582C219.421,35.612,220.137,36.328,220.137,37.193z M219.787,34.813h-2.447v-8.79h2.447V34.813z"/>
</g>
<g>
	<g>
		<path fill="#696969" d="M93.958,82.96l2.01-2.479c1.005,0.849,1.988,1.385,3.306,1.385c1.207,0,2.189-0.402,3.061-1.273
			c0.67-0.67,1.207-1.563,1.519-2.524c-0.67,0.67-2.078,1.296-3.552,1.296c-2.614,0-4.758-1.497-4.758-4.424
			c0-3.418,2.859-6.165,6.478-6.165c1.497,0,3.15,0.47,4.088,1.407c1.05,1.05,1.608,2.436,1.608,4.736
			c0,2.814-1.117,5.696-3.127,7.707c-1.452,1.451-3.329,2.322-5.496,2.322C97.153,84.947,95.388,84.232,93.958,82.96z
			 M104.436,73.823c0-0.559-0.201-1.117-0.559-1.475c-0.425-0.425-1.028-0.67-1.832-0.67c-1.832,0-3.038,1.296-3.038,2.814
			c0,1.362,1.005,2.1,2.391,2.1C103.229,76.593,104.436,75.319,104.436,73.823z"/>
		<path fill="#696969" d="M107.854,80.48c0-2.391,1.72-3.709,3.999-4.268c-1.229-0.625-1.898-1.787-1.898-3.016
			c0-2.033,1.966-4.378,5.875-4.378c3.262,0,5.54,1.765,5.54,4.199c0,1.966-1.296,3.396-3.418,3.909
			c1.407,0.536,2.391,1.676,2.391,3.329c0,2.368-2.413,4.646-6.501,4.646C110.624,84.903,107.854,83.16,107.854,80.48z
			 M116.99,80.078c0.022-1.117-1.116-1.922-2.837-1.922c-1.72,0-2.926,0.872-2.948,2.033c-0.022,1.117,1.117,1.943,2.814,1.943
			C115.695,82.133,116.969,81.329,116.99,80.078z M118.152,73.443c0.022-0.982-0.849-1.81-2.479-1.81
			c-1.407,0-2.524,0.827-2.547,1.921c-0.022,1.027,0.938,1.832,2.457,1.832C117.035,75.387,118.13,74.538,118.152,73.443z"/>
		<path fill="#696969" d="M126.396,72.572l-2.837,0.647l-0.045-2.927l4.915-1.362h2.346l-4.223,15.749h-3.396L126.396,72.572z"/>
		<path fill="#696969" d="M130.552,80.48c0-2.391,1.72-3.709,3.999-4.268c-1.229-0.625-1.899-1.787-1.899-3.016
			c0-2.033,1.966-4.378,5.875-4.378c3.262,0,5.54,1.765,5.54,4.199c0,1.966-1.295,3.396-3.418,3.909
			c1.408,0.536,2.391,1.676,2.391,3.329c0,2.368-2.412,4.646-6.5,4.646C133.322,84.903,130.552,83.16,130.552,80.48z
			 M139.688,80.078c0.022-1.117-1.117-1.922-2.837-1.922c-1.721,0-2.927,0.872-2.949,2.033c-0.022,1.117,1.117,1.943,2.814,1.943
			C138.393,82.133,139.666,81.329,139.688,80.078z M140.85,73.443c0.022-0.982-0.849-1.81-2.479-1.81
			c-1.407,0-2.524,0.827-2.546,1.921c-0.022,1.027,0.938,1.832,2.457,1.832C139.733,75.387,140.828,74.538,140.85,73.443z"/>
		<path fill="#696969" d="M143.911,82.96l2.011-2.479c1.006,0.849,1.988,1.385,3.307,1.385c1.206,0,2.188-0.402,3.061-1.273
			c0.67-0.67,1.206-1.563,1.519-2.524c-0.67,0.67-2.077,1.296-3.552,1.296c-2.613,0-4.758-1.497-4.758-4.424
			c0-3.418,2.859-6.165,6.478-6.165c1.497,0,3.15,0.47,4.088,1.407c1.05,1.05,1.608,2.436,1.608,4.736
			c0,2.814-1.116,5.696-3.127,7.707c-1.452,1.451-3.328,2.322-5.495,2.322C147.105,84.947,145.341,84.232,143.911,82.96z
			 M154.389,73.823c0-0.559-0.201-1.117-0.559-1.475c-0.425-0.425-1.027-0.67-1.832-0.67c-1.832,0-3.038,1.296-3.038,2.814
			c0,1.362,1.005,2.1,2.391,2.1C153.182,76.593,154.389,75.319,154.389,73.823z"/>
		<path fill="#696969" d="M158.946,76.124h6.88l-0.871,3.262h-6.881L158.946,76.124z"/>
		<path fill="#696969" d="M165.692,82.96l2.011-2.479c1.006,0.849,1.988,1.385,3.307,1.385c1.206,0,2.188-0.402,3.061-1.273
			c0.67-0.67,1.206-1.563,1.519-2.524c-0.67,0.67-2.077,1.296-3.552,1.296c-2.613,0-4.758-1.497-4.758-4.424
			c0-3.418,2.859-6.165,6.478-6.165c1.497,0,3.15,0.47,4.088,1.407c1.05,1.05,1.608,2.436,1.608,4.736
			c0,2.814-1.116,5.696-3.127,7.707c-1.452,1.451-3.328,2.322-5.495,2.322C168.887,84.947,167.122,84.232,165.692,82.96z
			 M176.17,73.823c0-0.559-0.201-1.117-0.559-1.475c-0.425-0.425-1.027-0.67-1.832-0.67c-1.832,0-3.038,1.296-3.038,2.814
			c0,1.362,1.005,2.1,2.391,2.1C174.963,76.593,176.17,75.319,176.17,73.823z"/>
		<path fill="#696969" d="M188.234,72.014h-7.193l0.804-2.971h11.259l-0.715,2.591L182.56,84.68h-4.043L188.234,72.014z"/>
		<path fill="#696969" d="M193.507,83.518c-1.05-1.05-1.608-2.435-1.608-4.4c0-2.971,1.05-5.986,3.061-7.997
			c1.407-1.407,3.351-2.346,5.674-2.346c1.988,0,3.641,0.715,4.825,1.81l-1.988,2.479c-0.805-0.715-1.854-1.206-3.128-1.206
			c-1.251,0-2.211,0.402-3.038,1.229c-0.67,0.67-1.272,1.676-1.608,2.748c0.671-0.671,2.123-1.318,3.597-1.318
			c2.614,0,4.759,1.563,4.759,4.355c0,3.15-2.859,6.076-6.479,6.076C195.919,84.947,194.444,84.456,193.507,83.518z M200.588,79.341
			c0-1.273-0.961-2.056-2.346-2.056c-1.854,0-3.083,1.229-3.083,2.681c0,0.559,0.224,1.05,0.581,1.407
			c0.425,0.425,1.027,0.671,1.832,0.671C199.382,82.044,200.588,80.681,200.588,79.341z"/>
		<path fill="#696969" d="M204.118,82.96l2.011-2.479c1.006,0.849,1.988,1.385,3.307,1.385c1.206,0,2.188-0.402,3.061-1.273
			c0.67-0.67,1.206-1.563,1.519-2.524c-0.67,0.67-2.077,1.296-3.552,1.296c-2.613,0-4.758-1.497-4.758-4.424
			c0-3.418,2.859-6.165,6.478-6.165c1.497,0,3.15,0.47,4.088,1.407c1.05,1.05,1.608,2.436,1.608,4.736
			c0,2.814-1.116,5.696-3.127,7.707c-1.452,1.451-3.328,2.322-5.495,2.322C207.312,84.947,205.548,84.232,204.118,82.96z
			 M214.596,73.823c0-0.559-0.201-1.117-0.559-1.475c-0.425-0.425-1.027-0.67-1.832-0.67c-1.832,0-3.038,1.296-3.038,2.814
			c0,1.362,1.005,2.1,2.391,2.1C213.389,76.593,214.596,75.319,214.596,73.823z"/>
	</g>
</g>
<g>
	<g>
		<path fill="#696969" d="M65.474,80.1c0-3.33,2.185-6.171,6.033-7.698l0.855,1.727c-2.994,1.374-4.536,3.635-4.536,5.896
			c0,1.512,0.825,2.856,1.894,3.971l-1.451,1.482C66.497,84.056,65.474,82.223,65.474,80.1z"/>
		<path fill="#696969" d="M74.44,75.014l-1.94,0.442l-0.031-2.001l3.36-0.932h1.604l-2.887,10.769h-2.321L74.44,75.014z"/>
		<path fill="#696969" d="M80.459,75.014l-1.939,0.442l-0.031-2.001l3.36-0.932h1.604l-2.887,10.769h-2.321L80.459,75.014z"/>
		<path fill="#696969" d="M81.987,83.689c2.994-1.375,4.536-3.636,4.536-5.896c0-1.512-0.825-2.855-1.894-3.971l1.451-1.482
			c1.772,1.421,2.795,3.254,2.795,5.377c0,3.33-2.185,6.171-6.033,7.698L81.987,83.689z"/>
	</g>
</g>
<g>
	<path fill="#696B6B" d="M64.934,52.957h1.871c2.771,0,5.073,1.463,5.073,4.474c0,3.082-2.255,4.569-5.109,4.569h-1.835V52.957z
		 M66.062,60.969h0.396c2.303,0,4.294-0.863,4.294-3.49c0-2.639-1.991-3.49-4.294-3.49h-0.396V60.969z"/>
	<path fill="#696B6B" d="M73.538,59.373c0.012,0.96,0.66,1.859,1.691,1.859c0.827,0,1.271-0.42,1.679-1.092l0.912,0.517
		c-0.528,0.971-1.511,1.535-2.603,1.535c-1.715,0-2.758-1.296-2.758-2.951c0-1.727,0.923-3.022,2.734-3.022
		c1.787,0,2.626,1.319,2.626,2.986v0.168H73.538z M76.74,58.558c-0.132-0.839-0.684-1.403-1.547-1.403
		c-0.839,0-1.463,0.6-1.595,1.403H76.74z"/>
	<path fill="#696B6B" d="M84.469,57.67c-0.132-0.275-0.408-0.491-0.72-0.491c-0.3,0-0.588,0.24-0.588,0.552
		c0,0.491,0.648,0.707,1.308,1.007c0.66,0.301,1.295,0.708,1.295,1.596c0,1.067-0.887,1.859-1.931,1.859
		c-0.815,0-1.643-0.468-1.943-1.26l0.923-0.42c0.228,0.42,0.504,0.72,1.02,0.72c0.456,0,0.852-0.312,0.852-0.792
		c0-0.3-0.144-0.443-0.396-0.611l-1.055-0.563c-0.624-0.336-1.08-0.647-1.08-1.415c0-0.912,0.744-1.632,1.655-1.632
		c0.684,0,1.235,0.372,1.535,0.983L84.469,57.67z"/>
	<path fill="#696B6B" d="M87.469,59.373c0.012,0.96,0.66,1.859,1.691,1.859c0.827,0,1.271-0.42,1.679-1.092l0.912,0.517
		c-0.528,0.971-1.511,1.535-2.603,1.535c-1.715,0-2.758-1.296-2.758-2.951c0-1.727,0.923-3.022,2.734-3.022
		c1.787,0,2.626,1.319,2.626,2.986v0.168H87.469z M90.671,58.558c-0.132-0.839-0.684-1.403-1.547-1.403
		c-0.839,0-1.463,0.6-1.595,1.403H90.671z"/>
	<path fill="#696B6B" d="M97.931,61.892c0,1.932-0.552,3.322-2.734,3.322c-1.559,0-2.687-0.959-2.71-2.542h1.08
		c0,1.007,0.695,1.583,1.679,1.583c1.332,0,1.607-0.912,1.607-2.062v-1.068h-0.024c-0.432,0.636-1.115,1.068-1.907,1.068
		c-1.727,0-2.687-1.428-2.687-3.035c0-1.535,1.02-2.938,2.639-2.938c0.839,0,1.511,0.433,1.955,1.128h0.024v-0.96h1.079V61.892z
		 M96.911,59.193c0-1.091-0.659-2.015-1.823-2.015c-1.115,0-1.775,0.972-1.775,2.015c0,1.056,0.636,2.039,1.775,2.039
		C96.264,61.232,96.911,60.297,96.911,59.193z"/>
	<path fill="#696B6B" d="M101.028,61.496c0,0.384-0.312,0.696-0.695,0.696s-0.696-0.312-0.696-0.696
		c0-0.372,0.312-0.695,0.696-0.695S101.028,61.124,101.028,61.496z"/>
	<path fill="#696B6B" d="M111.538,62h-1.08v-0.876h-0.024c-0.432,0.636-1.104,1.068-1.907,1.068c-1.715,0-2.687-1.428-2.687-3.035
		c0-1.535,1.019-2.938,2.65-2.938c0.828,0,1.499,0.433,1.943,1.104h0.024v-0.936h1.08V62z M110.519,59.193
		c0-1.091-0.66-2.015-1.823-2.015c-1.115,0-1.775,0.972-1.775,2.015c0,1.056,0.636,2.039,1.775,2.039
		C109.871,61.232,110.519,60.297,110.519,59.193z M108.432,53.197l1.499,1.99l-0.527,0.324l-1.967-1.787L108.432,53.197z"/>
	<path fill="#696B6B" d="M118.668,57.67c-0.133-0.275-0.408-0.491-0.72-0.491c-0.3,0-0.588,0.24-0.588,0.552
		c0,0.491,0.647,0.707,1.308,1.007c0.66,0.301,1.295,0.708,1.295,1.596c0,1.067-0.887,1.859-1.931,1.859
		c-0.815,0-1.644-0.468-1.942-1.26l0.923-0.42c0.228,0.42,0.504,0.72,1.02,0.72c0.456,0,0.852-0.312,0.852-0.792
		c0-0.3-0.144-0.443-0.396-0.611l-1.056-0.563c-0.624-0.336-1.079-0.647-1.079-1.415c0-0.912,0.743-1.632,1.654-1.632
		c0.684,0,1.236,0.372,1.535,0.983L118.668,57.67z"/>
	<path fill="#696B6B" d="M121.668,59.373c0.013,0.96,0.66,1.859,1.691,1.859c0.828,0,1.271-0.42,1.68-1.092l0.911,0.517
		c-0.528,0.971-1.511,1.535-2.603,1.535c-1.715,0-2.758-1.296-2.758-2.951c0-1.727,0.923-3.022,2.734-3.022
		c1.787,0,2.626,1.319,2.626,2.986v0.168H121.668z M124.871,58.558c-0.133-0.839-0.684-1.403-1.547-1.403
		c-0.84,0-1.464,0.6-1.596,1.403H124.871z"/>
	<path fill="#696B6B" d="M126.457,56.387h1.271l1.33,1.812l1.451-1.812h1.309l-2.063,2.567L132.166,62h-1.26l-1.848-2.278
		L127.271,62h-1.307l2.507-3.046L126.457,56.387z"/>
	<path fill="#696B6B" d="M134.436,61.496c0,0.384-0.312,0.696-0.695,0.696s-0.695-0.312-0.695-0.696
		c0-0.372,0.312-0.695,0.695-0.695S134.436,61.124,134.436,61.496z"/>
	<path fill="#696B6B" d="M143.866,61.124h-0.024c-0.432,0.636-1.115,1.068-1.907,1.068c-1.727,0-2.687-1.428-2.687-3.035
		c0-1.535,1.02-2.938,2.639-2.938c0.84,0,1.512,0.433,1.955,1.104h0.024V51.59h1.079V62h-1.079V61.124z M143.926,59.193
		c0-1.091-0.659-2.015-1.823-2.015c-1.115,0-1.774,0.972-1.774,2.015c0,1.056,0.636,2.039,1.774,2.039
		C143.278,61.232,143.926,60.297,143.926,59.193z"/>
	<path fill="#696B6B" d="M151.617,62h-1.079v-0.876h-0.024c-0.432,0.636-1.104,1.068-1.907,1.068c-1.715,0-2.687-1.428-2.687-3.035
		c0-1.535,1.02-2.938,2.65-2.938c0.828,0,1.5,0.433,1.943,1.104h0.024v-0.936h1.079V62z M150.598,59.193
		c0-1.091-0.659-2.015-1.823-2.015c-1.115,0-1.774,0.972-1.774,2.015c0,1.056,0.636,2.039,1.774,2.039
		C149.95,61.232,150.598,60.297,150.598,59.193z"/>
	<path fill="#696B6B" d="M155.278,57.67c-0.132-0.275-0.407-0.491-0.72-0.491c-0.3,0-0.587,0.24-0.587,0.552
		c0,0.491,0.647,0.707,1.307,1.007c0.66,0.301,1.296,0.708,1.296,1.596c0,1.067-0.888,1.859-1.932,1.859
		c-0.815,0-1.643-0.468-1.942-1.26l0.923-0.42c0.229,0.42,0.504,0.72,1.02,0.72c0.456,0,0.852-0.312,0.852-0.792
		c0-0.3-0.144-0.443-0.396-0.611l-1.056-0.563c-0.623-0.336-1.079-0.647-1.079-1.415c0-0.912,0.743-1.632,1.655-1.632
		c0.684,0,1.235,0.372,1.535,0.983L155.278,57.67z"/>
	<path fill="#696B6B" d="M160.668,57.479c0-1.859,0.815-4.714,3.154-4.714s3.154,2.854,3.154,4.714c0,1.847-0.827,4.714-3.154,4.714
		C161.496,62.192,160.668,59.325,160.668,57.479z M161.748,57.467c0,1.247,0.455,3.718,2.074,3.718s2.075-2.471,2.075-3.718
		c0-1.248-0.456-3.742-2.075-3.742S161.748,56.219,161.748,57.467z"/>
	<path fill="#696B6B" d="M169.031,61.628l2.41-3.25l-0.023-0.023c-0.264,0.132-0.563,0.167-0.876,0.167
		c-1.499,0-2.626-1.343-2.626-2.782c0-1.655,1.343-2.975,2.986-2.975c1.559,0,3.01,1.296,3.01,2.891c0,0.899-0.455,1.68-0.983,2.387
		l-3.082,4.15L169.031,61.628z M172.833,55.667c0-0.959-0.863-1.895-1.847-1.895c-1.08,0-1.991,0.863-1.991,1.895
		c0,1.08,0.983,1.896,1.919,1.896C172.065,57.562,172.833,56.651,172.833,55.667z"/>
	<path fill="#696B6B" d="M183.705,62h-1.079v-0.876h-0.024c-0.432,0.636-1.104,1.068-1.907,1.068c-1.715,0-2.687-1.428-2.687-3.035
		c0-1.535,1.02-2.938,2.65-2.938c0.828,0,1.5,0.433,1.943,1.104h0.024v-0.936h1.079V62z M182.686,59.193
		c0-1.091-0.659-2.015-1.823-2.015c-1.115,0-1.774,0.972-1.774,2.015c0,1.056,0.636,2.039,1.774,2.039
		C182.038,61.232,182.686,60.297,182.686,59.193z"/>
	<path fill="#696B6B" d="M187.366,57.67c-0.132-0.275-0.407-0.491-0.72-0.491c-0.3,0-0.587,0.24-0.587,0.552
		c0,0.491,0.647,0.707,1.307,1.007c0.66,0.301,1.296,0.708,1.296,1.596c0,1.067-0.888,1.859-1.932,1.859
		c-0.815,0-1.643-0.468-1.942-1.26l0.923-0.42c0.229,0.42,0.504,0.72,1.02,0.72c0.456,0,0.852-0.312,0.852-0.792
		c0-0.3-0.144-0.443-0.396-0.611l-1.056-0.563c-0.623-0.336-1.079-0.647-1.079-1.415c0-0.912,0.743-1.632,1.655-1.632
		c0.684,0,1.235,0.372,1.535,0.983L187.366,57.67z"/>
	<path fill="#696B6B" d="M193.919,53.988l0.623-1.031h2.027V62h-1.08v-8.012H193.919z"/>
	<path fill="#696B6B" d="M201.442,57.311c-0.743-0.42-1.187-1.14-1.187-2.026c0-1.476,1.151-2.52,2.59-2.52
		c1.439,0,2.591,1.044,2.591,2.52c0,0.887-0.443,1.606-1.188,2.026c0.936,0.324,1.428,1.199,1.428,2.171
		c0,1.679-1.296,2.711-2.831,2.711s-2.83-1.032-2.83-2.711C200.016,58.51,200.507,57.635,201.442,57.311z M201.095,59.481
		c0,0.911,0.863,1.703,1.751,1.703s1.751-0.792,1.751-1.703c0-0.96-0.839-1.703-1.751-1.703
		C201.935,57.778,201.095,58.521,201.095,59.481z M201.311,55.284c0,0.719,0.78,1.535,1.535,1.535c0.756,0,1.535-0.816,1.535-1.535
		c0-0.864-0.72-1.56-1.535-1.56S201.311,54.42,201.311,55.284z"/>
	<path fill="#696B6B" d="M208.139,51.59v5.553h0.023c0.336-0.6,1.008-0.924,1.691-0.924c1.583,0,1.991,1.067,1.991,2.436V62h-1.08
		v-3.214c0-0.96-0.132-1.607-1.235-1.607c-1.391,0-1.391,1.224-1.391,2.243V62h-1.08V51.59H208.139z"/>
	<path fill="#696B6B" d="M215.589,57.67c-0.132-0.275-0.407-0.491-0.72-0.491c-0.3,0-0.587,0.24-0.587,0.552
		c0,0.491,0.647,0.707,1.307,1.007c0.66,0.301,1.296,0.708,1.296,1.596c0,1.067-0.888,1.859-1.932,1.859
		c-0.815,0-1.643-0.468-1.942-1.26l0.923-0.42c0.229,0.42,0.504,0.72,1.02,0.72c0.456,0,0.852-0.312,0.852-0.792
		c0-0.3-0.144-0.443-0.396-0.611l-1.056-0.563c-0.623-0.336-1.079-0.647-1.079-1.415c0-0.912,0.743-1.632,1.655-1.632
		c0.684,0,1.235,0.372,1.535,0.983L215.589,57.67z"/>
</g>
</svg>
