<?xml version="1.0" encoding="utf-8"?>
<!-- Generator: Adobe Illustrator 15.0.0, SVG Export Plug-In . SVG Version: 6.00 Build 0)  -->
<!DOCTYPE svg PUBLIC "-//W3C//DTD SVG 1.1//EN" "http://www.w3.org/Graphics/SVG/1.1/DTD/svg11.dtd">
<svg version="1.1" id="Layer_1" xmlns="http://www.w3.org/2000/svg" xmlns:xlink="http://www.w3.org/1999/xlink" x="0px" y="0px"
	 width="250px" height="141px" viewBox="0 0 250 141" enable-background="new 0 0 250 141" xml:space="preserve">
<g>
	<path fill="#E6E4E5" d="M230.082,22.513H26.75c-4.879,0-8.834,3.956-8.834,8.834v75.331c0,4.88,3.955,8.835,8.834,8.835h10.923
		c3.003,4.229,13.577,19.107,14.702,20.5c1.312,1.625,4.25,1.875,4.25-2c0-2.873,0-13.297,0-18.5h173.457
		c4.879,0,8.834-3.955,8.834-8.835V31.347C238.916,26.468,234.961,22.513,230.082,22.513z"/>
	<rect x="19" y="63.763" fill="#FFFFFF" width="219" height="1"/>
	<rect x="19" y="62.763" fill="#EAEAEA" width="219" height="1"/>
	<rect x="131.125" y="71.388" fill="#FFFFFF" width="1" height="35.375"/>
	<rect x="130.125" y="71.388" fill="#EAEAEA" width="1" height="35.375"/>
	<path fill="#1BB347" d="M50.583,5.68c-0.417,0.583-26.334,34.667-29.667,39.5s-6.667,0-6.667,0L3.583,29.513
		c0,0-2-2.916-0.167-4.833c2.75-2.583,5.667,0.333,5.667,0.333s6.25,6,7.5,6.833c1.833,1.583,3.167-0.167,3.167-0.167
		s27.5-27.25,28.333-28C51.417,0.846,51.667,3.763,50.583,5.68z"/>
</g>
<path fill="none" stroke="#E6E4E5" stroke-miterlimit="10" d="M-70.167,31.167"/>
</svg>
