<?xml version="1.0" encoding="utf-8"?>
<!-- Generator: Adobe Illustrator 15.0.0, SVG Export Plug-In . SVG Version: 6.00 Build 0)  -->
<!DOCTYPE svg PUBLIC "-//W3C//DTD SVG 1.1//EN" "http://www.w3.org/Graphics/SVG/1.1/DTD/svg11.dtd">
<svg version="1.1" id="Layer_1" xmlns="http://www.w3.org/2000/svg" xmlns:xlink="http://www.w3.org/1999/xlink" x="0px" y="0px"
	 width="279px" height="66px" viewBox="0 0 279 66" enable-background="new 0 0 279 66" xml:space="preserve">
<path fill="#1BB81F" d="M277.333,55.165c0,4.88-3.955,8.835-8.835,8.835H10.501c-4.879,0-8.834-3.955-8.834-8.835V10.834
	C1.667,5.955,5.622,2,10.501,2h257.997c4.88,0,8.835,3.955,8.835,8.834V55.165z"/>
<path fill="#FFFFFF" d="M245.102,33.998c0.004-0.389-0.144-0.779-0.439-1.076l-10.775-10.776c-0.588-0.589-1.543-0.588-2.132,0
	c-0.588,0.589-0.588,1.543,0,2.132L241.477,34l-9.723,9.725c-0.588,0.588-0.588,1.541,0,2.131c0.589,0.588,1.544,0.588,2.133,0
	l10.775-10.775C244.959,34.781,245.105,34.389,245.102,33.998z"/>
<g>
	<path fill="#FFFFFF" d="M47.965,36.453l4.039,1.281c-0.619,2.252-1.649,3.924-3.089,5.017c-1.44,1.094-3.268,1.64-5.482,1.64
		c-2.74,0-4.991-0.936-6.755-2.808c-1.764-1.871-2.646-4.431-2.646-7.677c0-3.434,0.887-6.101,2.66-8.001
		c1.773-1.9,4.105-2.85,6.995-2.85c2.524,0,4.574,0.746,6.15,2.238c0.938,0.882,1.642,2.149,2.111,3.8l-4.124,0.985
		c-0.244-1.07-0.753-1.914-1.527-2.533c-0.774-0.619-1.715-0.929-2.822-0.929c-1.529,0-2.771,0.549-3.723,1.646
		s-1.428,2.876-1.428,5.334c0,2.608,0.469,4.466,1.407,5.573c0.938,1.106,2.158,1.66,3.659,1.66c1.107,0,2.059-0.352,2.857-1.056
		C47.046,39.071,47.618,37.964,47.965,36.453z"/>
	<path fill="#FFFFFF" d="M54.735,33.85c0-2.102,0.314-3.865,0.943-5.292c0.469-1.051,1.109-1.994,1.921-2.829
		c0.811-0.835,1.7-1.454,2.667-1.858c1.285-0.544,2.768-0.816,4.447-0.816c3.04,0,5.473,0.943,7.297,2.829s2.737,4.508,2.737,7.868
		c0,3.33-0.906,5.937-2.716,7.817s-4.231,2.821-7.262,2.821c-3.068,0-5.508-0.936-7.318-2.808
		C55.64,39.712,54.735,37.134,54.735,33.85z M59.027,33.709c0,2.336,0.54,4.107,1.619,5.312c1.079,1.206,2.449,1.809,4.109,1.809
		s3.023-0.598,4.088-1.794s1.597-2.991,1.597-5.384c0-2.364-0.519-4.128-1.555-5.291c-1.037-1.164-2.414-1.745-4.13-1.745
		s-3.101,0.589-4.152,1.766S59.027,31.335,59.027,33.709z"/>
	<path fill="#FFFFFF" d="M78.041,44.039V23.407h4.053l8.444,13.778V23.407h3.87v20.632h-4.18l-8.317-13.454v13.454H78.041z"/>
	<path fill="#FFFFFF" d="M103.458,44.039V26.897h-6.122v-3.49h16.396v3.49h-6.108v17.142H103.458z"/>
	<path fill="#FFFFFF" d="M116.292,44.039V23.407h4.166v20.632H116.292z"/>
	<path fill="#FFFFFF" d="M124.469,44.039V23.407h4.053l8.444,13.778V23.407h3.87v20.632h-4.18l-8.318-13.454v13.454H124.469z"/>
	<path fill="#FFFFFF" d="M145.213,23.407h4.166v11.175c0,1.772,0.052,2.922,0.155,3.447c0.178,0.845,0.603,1.522,1.273,2.034
		s1.588,0.767,2.751,0.767c1.183,0,2.074-0.241,2.675-0.725c0.6-0.483,0.961-1.076,1.083-1.78s0.184-1.872,0.184-3.504V23.407h4.165
		v10.837c0,2.477-0.112,4.227-0.338,5.249c-0.225,1.022-0.64,1.886-1.245,2.59c-0.605,0.703-1.414,1.265-2.428,1.682
		s-2.336,0.626-3.969,0.626c-1.971,0-3.465-0.228-4.482-0.683s-1.822-1.046-2.413-1.772c-0.592-0.728-0.981-1.49-1.169-2.287
		c-0.271-1.183-0.408-2.928-0.408-5.235V23.407z"/>
	<path fill="#FFFFFF" d="M184.662,44.039h-4.531l-1.802-4.687h-8.247l-1.703,4.687h-4.419l8.036-20.632h4.405L184.662,44.039z
		 M176.992,35.876l-2.843-7.656l-2.787,7.656H176.992z"/>
	<path fill="#FFFFFF" d="M186.886,44.039V23.407h8.768c2.205,0,3.807,0.186,4.806,0.556c1,0.371,1.8,1.03,2.4,1.978
		c0.6,0.948,0.9,2.031,0.9,3.251c0,1.548-0.455,2.827-1.365,3.835c-0.91,1.009-2.271,1.645-4.081,1.907
		c0.9,0.525,1.644,1.103,2.23,1.73c0.586,0.629,1.377,1.745,2.371,3.35l2.52,4.025h-4.982l-3.012-4.489
		c-1.069-1.604-1.801-2.615-2.195-3.033c-0.394-0.417-0.812-0.703-1.253-0.858c-0.44-0.154-1.14-0.232-2.097-0.232h-0.845v8.613
		H186.886z M191.051,32.133h3.083c1.998,0,3.246-0.084,3.743-0.253s0.887-0.459,1.168-0.873c0.281-0.413,0.422-0.929,0.422-1.548
		c0-0.694-0.185-1.255-0.556-1.682c-0.37-0.427-0.894-0.696-1.569-0.809c-0.338-0.047-1.351-0.07-3.04-0.07h-3.251V32.133z"/>
</g>
</svg>
