<?xml version="1.0" encoding="utf-8"?>
<!-- Generator: Adobe Illustrator 15.0.0, SVG Export Plug-In . SVG Version: 6.00 Build 0)  -->
<!DOCTYPE svg PUBLIC "-//W3C//DTD SVG 1.1//EN" "http://www.w3.org/Graphics/SVG/1.1/DTD/svg11.dtd">
<svg version="1.1" id="Layer_1" xmlns="http://www.w3.org/2000/svg" xmlns:xlink="http://www.w3.org/1999/xlink" x="0px" y="0px"
	 width="279px" height="66px" viewBox="0 0 279 66" enable-background="new 0 0 279 66" xml:space="preserve">
<path fill="#ED5B39" d="M267.3,64.5H9.2c-4.4,0-8-3.6-8-8V9c0-4.4,3.6-8,8-8h258.2c4.4,0,8,3.6,8,8v47.5
	C275.3,60.9,271.7,64.5,267.3,64.5z"/>
<path fill="#FFFFFF" d="M62.1,37.9l-1.6-5.3h-8l-1.6,5.3h-5l7.8-22.2h5.7l7.8,22.2H62.1z M59.4,28.7c-1.5-4.8-2.3-7.5-2.5-8.1
	c-0.2-0.6-0.3-1.1-0.4-1.5c-0.3,1.3-1.3,4.5-2.9,9.6H59.4z"/>
<path fill="#FFFFFF" d="M82.5,15.8h4.7l-7.5,22.1h-5.1l-7.5-22.1h4.7L76,29c0.2,0.8,0.5,1.7,0.7,2.7c0.2,1,0.4,1.7,0.5,2.2
	c0.1-0.9,0.5-2.5,1.1-4.9L82.5,15.8z"/>
<path fill="#FFFFFF" d="M90,37.9V15.8h4.7v22.1H90z"/>
<path fill="#FFFFFF" d="M113.3,31.8c0,2-0.7,3.6-2.2,4.7c-1.4,1.1-3.4,1.7-6,1.7c-2.4,0-4.4-0.4-6.3-1.3v-4.3
	c1.5,0.7,2.8,1.1,3.8,1.4c1,0.3,2,0.4,2.8,0.4c1,0,1.8-0.2,2.4-0.6s0.8-1,0.8-1.8c0-0.4-0.1-0.8-0.4-1.2c-0.2-0.3-0.6-0.7-1.1-1
	c-0.5-0.3-1.4-0.8-2.9-1.5c-1.3-0.6-2.4-1.2-3-1.8c-0.7-0.6-1.2-1.3-1.6-2c-0.4-0.8-0.6-1.7-0.6-2.7c0-2,0.7-3.5,2-4.6
	c1.3-1.1,3.2-1.7,5.5-1.7c1.1,0,2.2,0.1,3.3,0.4c1,0.3,2.1,0.7,3.3,1.1l-1.5,3.6c-1.2-0.5-2.2-0.8-2.9-1c-0.8-0.2-1.5-0.3-2.3-0.3
	c-0.9,0-1.6,0.2-2,0.6s-0.7,1-0.7,1.6c0,0.4,0.1,0.8,0.3,1.1c0.2,0.3,0.5,0.6,0.9,0.9c0.4,0.3,1.4,0.8,3,1.5c2.1,1,3.5,2,4.2,3
	C112.9,29.1,113.3,30.3,113.3,31.8z"/>
<path fill="#FFFFFF" d="M130,37.9h-12.7V15.8H130v3.8h-8v4.8h7.5v3.8H122V34h8V37.9z"/>
<path fill="#FFFFFF" d="M132.8,31.5v-3.8h8.1v3.8H132.8z"/>
<path fill="#FFFFFF" d="M153.9,37.9l-5.3-17.3h-0.1c0.2,3.5,0.3,5.9,0.3,7.1v10.3h-4.2V15.8h6.4l5.2,16.9h0.1l5.5-16.9h6.4v22.1
	h-4.4V27.5c0-0.5,0-1.1,0-1.7c0-0.6,0.1-2.4,0.2-5.1h-0.1l-5.7,17.3H153.9z"/>
<path fill="#FFFFFF" d="M186.4,37.9h-12.7V15.8h12.7v3.8h-8v4.8h7.5v3.8h-7.5V34h8V37.9z"/>
<path fill="#FFFFFF" d="M67,46.2c0,1-0.3,1.8-0.9,2.3c-0.6,0.5-1.5,0.8-2.7,0.8h-0.9v3.3h-2v-9.4h3c1.1,0,2,0.2,2.6,0.7
	C66.7,44.5,67,45.2,67,46.2z M62.5,47.7h0.7c0.6,0,1.1-0.1,1.4-0.4c0.3-0.2,0.5-0.6,0.5-1.1c0-0.5-0.1-0.8-0.4-1
	c-0.3-0.2-0.7-0.3-1.2-0.3h-0.9V47.7z"/>
<path fill="#FFFFFF" d="M72.6,45.4c0.3,0,0.5,0,0.7,0.1l-0.1,1.8c-0.2,0-0.4-0.1-0.6-0.1c-0.6,0-1.1,0.2-1.5,0.5s-0.5,0.8-0.5,1.3
	v3.7h-2v-7.2h1.5l0.3,1.2h0.1c0.2-0.4,0.5-0.7,0.9-1C71.8,45.5,72.2,45.4,72.6,45.4z"/>
<path fill="#FFFFFF" d="M81.1,49.1c0,1.2-0.3,2.1-0.9,2.7c-0.6,0.7-1.5,1-2.6,1c-0.7,0-1.3-0.2-1.8-0.5c-0.5-0.3-0.9-0.7-1.2-1.3
	c-0.3-0.6-0.4-1.2-0.4-2c0-1.2,0.3-2.1,0.9-2.7c0.6-0.7,1.5-1,2.6-1c0.7,0,1.3,0.2,1.8,0.4c0.5,0.3,0.9,0.7,1.2,1.3
	C81,47.7,81.1,48.3,81.1,49.1z M76.1,49.1c0,0.7,0.1,1.2,0.4,1.6c0.2,0.4,0.6,0.5,1.1,0.5c0.5,0,0.9-0.2,1.1-0.5s0.3-0.9,0.3-1.6
	c0-0.7-0.1-1.2-0.3-1.6c-0.2-0.4-0.6-0.5-1.1-0.5c-0.5,0-0.9,0.2-1.1,0.5S76.1,48.4,76.1,49.1z"/>
<path fill="#FFFFFF" d="M85,52.8c-0.8,0-1.5-0.3-2-1c-0.5-0.7-0.7-1.6-0.7-2.7c0-1.2,0.2-2.1,0.7-2.8c0.5-0.7,1.2-1,2-1
	c0.9,0,1.6,0.4,2.1,1.1h0.1c-0.1-0.5-0.1-1-0.1-1.4v-2.3h2v10h-1.5l-0.4-0.9H87C86.6,52.4,85.9,52.8,85,52.8z M85.7,51.2
	c0.5,0,0.9-0.1,1.1-0.4c0.2-0.3,0.4-0.8,0.4-1.5v-0.2c0-0.8-0.1-1.3-0.4-1.7c-0.2-0.3-0.6-0.5-1.2-0.5c-0.4,0-0.8,0.2-1,0.6
	c-0.2,0.4-0.4,0.9-0.4,1.6s0.1,1.2,0.4,1.6C84.9,51.1,85.2,51.2,85.7,51.2z"/>
<path fill="#FFFFFF" d="M96.1,52.7l-0.3-0.9h-0.1c-0.2,0.3-0.5,0.6-0.9,0.8c-0.4,0.2-0.8,0.3-1.3,0.3c-0.8,0-1.5-0.2-1.9-0.7
	S91,51,91,50.2v-4.7h2v4.2c0,0.5,0.1,0.9,0.3,1.2c0.2,0.3,0.5,0.4,0.9,0.4c0.5,0,0.9-0.2,1.2-0.5c0.2-0.4,0.4-1,0.4-1.8v-3.4h2v7.2
	H96.1z"/>
<path fill="#FFFFFF" d="M102.7,51.2c0.3,0,0.8-0.1,1.2-0.2v1.5c-0.5,0.2-1.1,0.3-1.8,0.3c-0.8,0-1.4-0.2-1.7-0.6
	c-0.4-0.4-0.5-1-0.5-1.8V47h-0.9v-0.8l1.1-0.7l0.6-1.5h1.3v1.5h2V47h-2v3.5c0,0.3,0.1,0.5,0.2,0.6C102.2,51.2,102.4,51.2,102.7,51.2
	z"/>
<path fill="#FFFFFF" d="M111.9,49.1c0,1.2-0.3,2.1-0.9,2.7c-0.6,0.7-1.5,1-2.6,1c-0.7,0-1.3-0.2-1.8-0.5c-0.5-0.3-0.9-0.7-1.2-1.3
	c-0.3-0.6-0.4-1.2-0.4-2c0-1.2,0.3-2.1,0.9-2.7c0.6-0.7,1.5-1,2.6-1c0.7,0,1.3,0.2,1.8,0.4c0.5,0.3,0.9,0.7,1.2,1.3
	C111.8,47.7,111.9,48.3,111.9,49.1z M106.9,49.1c0,0.7,0.1,1.2,0.4,1.6c0.2,0.4,0.6,0.5,1.1,0.5c0.5,0,0.9-0.2,1.1-0.5
	s0.3-0.9,0.3-1.6c0-0.7-0.1-1.2-0.3-1.6c-0.2-0.4-0.6-0.5-1.1-0.5c-0.5,0-0.9,0.2-1.1,0.5S106.9,48.4,106.9,49.1z"/>
<path fill="#FFFFFF" d="M122.5,52.7h-5.4v-9.4h5.4v1.6h-3.4V47h3.2v1.6h-3.2V51h3.4V52.7z"/>
<path fill="#FFFFFF" d="M129.3,50.5c0,0.7-0.3,1.3-0.8,1.7s-1.3,0.6-2.3,0.6c-0.5,0-1,0-1.3-0.1c-0.4-0.1-0.7-0.2-1-0.3v-1.6
	c0.4,0.2,0.8,0.3,1.2,0.4c0.5,0.1,0.9,0.2,1.2,0.2c0.7,0,1.1-0.2,1.1-0.6c0-0.2,0-0.3-0.1-0.4c-0.1-0.1-0.3-0.2-0.5-0.3
	c-0.2-0.1-0.5-0.3-0.9-0.4c-0.6-0.2-1-0.4-1.2-0.6c-0.3-0.2-0.4-0.4-0.6-0.7c-0.1-0.3-0.2-0.6-0.2-0.9c0-0.6,0.2-1.1,0.7-1.5
	s1.2-0.5,2.1-0.5c0.9,0,1.7,0.2,2.5,0.6l-0.6,1.4c-0.4-0.2-0.7-0.3-1-0.4c-0.3-0.1-0.6-0.1-1-0.1c-0.6,0-0.9,0.2-0.9,0.5
	c0,0.2,0.1,0.3,0.3,0.5c0.2,0.1,0.6,0.3,1.2,0.6c0.6,0.2,1,0.4,1.2,0.6c0.3,0.2,0.5,0.4,0.6,0.7C129.2,49.9,129.3,50.2,129.3,50.5z"
	/>
<path fill="#FFFFFF" d="M137.1,45.5v1l-1.1,0.3c0.2,0.3,0.3,0.7,0.3,1.1c0,0.8-0.3,1.4-0.8,1.8c-0.5,0.4-1.3,0.6-2.2,0.6l-0.4,0
	l-0.3,0c-0.2,0.2-0.3,0.3-0.3,0.5c0,0.3,0.4,0.4,1.1,0.4h1.2c0.8,0,1.4,0.2,1.8,0.5c0.4,0.3,0.6,0.8,0.6,1.5c0,0.8-0.4,1.5-1,2
	c-0.7,0.5-1.7,0.7-3,0.7c-1,0-1.8-0.2-2.3-0.5c-0.5-0.3-0.8-0.8-0.8-1.5c0-0.4,0.1-0.8,0.4-1.1c0.3-0.3,0.7-0.5,1.2-0.6
	c-0.2-0.1-0.4-0.2-0.5-0.4c-0.1-0.2-0.2-0.4-0.2-0.6c0-0.3,0.1-0.5,0.2-0.7c0.2-0.2,0.4-0.4,0.7-0.5c-0.4-0.2-0.7-0.4-0.9-0.8
	c-0.2-0.4-0.3-0.8-0.3-1.3c0-0.8,0.3-1.4,0.8-1.8c0.5-0.4,1.2-0.6,2.2-0.6c0.2,0,0.4,0,0.7,0.1s0.5,0.1,0.5,0.1H137.1z M131.5,53.7
	c0,0.3,0.1,0.5,0.4,0.6c0.3,0.2,0.6,0.2,1.1,0.2c0.7,0,1.3-0.1,1.6-0.3s0.6-0.5,0.6-0.8c0-0.3-0.1-0.5-0.4-0.6s-0.6-0.2-1.1-0.2h-1
	c-0.4,0-0.7,0.1-0.9,0.3C131.6,53.2,131.5,53.4,131.5,53.7z M132.2,47.8c0,0.4,0.1,0.7,0.3,0.9c0.2,0.2,0.4,0.3,0.8,0.3
	c0.4,0,0.6-0.1,0.8-0.3c0.2-0.2,0.3-0.5,0.3-0.9c0-0.9-0.4-1.3-1.1-1.3C132.6,46.5,132.2,47,132.2,47.8z"/>
<path fill="#FFFFFF" d="M144.8,49.1c0,1.2-0.3,2.1-0.9,2.7c-0.6,0.7-1.5,1-2.6,1c-0.7,0-1.3-0.2-1.8-0.5c-0.5-0.3-0.9-0.7-1.2-1.3
	c-0.3-0.6-0.4-1.2-0.4-2c0-1.2,0.3-2.1,0.9-2.7c0.6-0.7,1.5-1,2.6-1c0.7,0,1.3,0.2,1.8,0.4c0.5,0.3,0.9,0.7,1.2,1.3
	C144.6,47.7,144.8,48.3,144.8,49.1z M139.8,49.1c0,0.7,0.1,1.2,0.4,1.6s0.6,0.5,1.1,0.5c0.5,0,0.9-0.2,1.1-0.5
	c0.2-0.4,0.3-0.9,0.3-1.6c0-0.7-0.1-1.2-0.3-1.6c-0.2-0.4-0.6-0.5-1.1-0.5c-0.5,0-0.9,0.2-1.1,0.5C139.9,47.8,139.8,48.4,139.8,49.1
	z"/>
<path fill="#FFFFFF" d="M149.4,51.2c0.3,0,0.8-0.1,1.2-0.2v1.5c-0.5,0.2-1.1,0.3-1.8,0.3c-0.8,0-1.4-0.2-1.7-0.6
	c-0.4-0.4-0.5-1-0.5-1.8V47h-0.9v-0.8l1.1-0.7l0.6-1.5h1.3v1.5h2V47h-2v3.5c0,0.3,0.1,0.5,0.2,0.6C148.9,51.2,149.1,51.2,149.4,51.2
	z"/>
<path fill="#FFFFFF" d="M156.6,52.7l-0.4-1h-0.1c-0.3,0.4-0.7,0.7-1,0.9s-0.8,0.2-1.4,0.2c-0.7,0-1.2-0.2-1.6-0.6
	c-0.4-0.4-0.6-1-0.6-1.7c0-0.8,0.3-1.3,0.8-1.7c0.5-0.4,1.3-0.6,2.4-0.6l1.2,0v-0.3c0-0.7-0.4-1.1-1.1-1.1c-0.6,0-1.2,0.2-2,0.5
	l-0.6-1.3c0.8-0.4,1.7-0.6,2.7-0.6c1,0,1.7,0.2,2.2,0.6c0.5,0.4,0.8,1.1,0.8,1.9v4.8H156.6z M156.1,49.3l-0.8,0
	c-0.6,0-1,0.1-1.3,0.3s-0.4,0.5-0.4,0.9c0,0.6,0.3,0.8,0.9,0.8c0.5,0,0.8-0.1,1.1-0.4s0.4-0.6,0.4-1V49.3z"/>
<path fill="#FFFFFF" d="M162.3,52.8c-0.8,0-1.5-0.3-2-1s-0.7-1.6-0.7-2.7c0-1.2,0.2-2.1,0.7-2.8c0.5-0.7,1.2-1,2-1
	c0.9,0,1.6,0.4,2.1,1.1h0.1c-0.1-0.5-0.1-1-0.1-1.4v-2.3h2v10h-1.5l-0.4-0.9h-0.1C163.9,52.4,163.2,52.8,162.3,52.8z M163,51.2
	c0.5,0,0.9-0.1,1.1-0.4c0.2-0.3,0.4-0.8,0.4-1.5v-0.2c0-0.8-0.1-1.3-0.4-1.7c-0.2-0.3-0.6-0.5-1.2-0.5c-0.4,0-0.8,0.2-1,0.6
	c-0.2,0.4-0.4,0.9-0.4,1.6s0.1,1.2,0.4,1.6C162.2,51.1,162.5,51.2,163,51.2z"/>
<path fill="#FFFFFF" d="M174.9,49.1c0,1.2-0.3,2.1-0.9,2.7c-0.6,0.7-1.5,1-2.6,1c-0.7,0-1.3-0.2-1.8-0.5s-0.9-0.7-1.2-1.3
	c-0.3-0.6-0.4-1.2-0.4-2c0-1.2,0.3-2.1,0.9-2.7c0.6-0.7,1.5-1,2.6-1c0.7,0,1.3,0.2,1.8,0.4c0.5,0.3,0.9,0.7,1.2,1.3
	S174.9,48.3,174.9,49.1z M169.9,49.1c0,0.7,0.1,1.2,0.3,1.6c0.2,0.4,0.6,0.5,1.1,0.5c0.5,0,0.9-0.2,1.1-0.5s0.3-0.9,0.3-1.6
	c0-0.7-0.1-1.2-0.3-1.6c-0.2-0.4-0.6-0.5-1.1-0.5c-0.5,0-0.9,0.2-1.1,0.5C170,47.8,169.9,48.4,169.9,49.1z"/>
<path fill="#FFFFFF" d="M258.6,45.1h-34.5c-2.2,0-4-1.8-4-4V17.6c0-2.2,1.8-4,4-4h34.5c2.2,0,4,1.8,4,4v23.5
	C262.6,43.3,260.8,45.1,258.6,45.1z"/>
<path fill="#FFFFFF" d="M236,53.6C236,53.6,236,53.6,236,53.6C236,53.6,236,53.6,236,53.6L236,53.6z"/>
<path fill="#FFFFFF" d="M235.6,45.1c0,0,3.8,0.4,3.8,2.9c0,4.1-2,5.3-3.4,5.6c9.2-0.4,10.1-5,10.1-5.7c0-2.6,3.6-2.8,3.6-2.8
	L235.6,45.1z"/>
</svg>
