<?xml version="1.0" encoding="utf-8"?>
<!-- Generator: Adobe Illustrator 15.0.0, SVG Export Plug-In . SVG Version: 6.00 Build 0)  -->
<!DOCTYPE svg PUBLIC "-//W3C//DTD SVG 1.1//EN" "http://www.w3.org/Graphics/SVG/1.1/DTD/svg11.dtd">
<svg version="1.1" id="Layer_1" xmlns="http://www.w3.org/2000/svg" xmlns:xlink="http://www.w3.org/1999/xlink" x="0px" y="0px"
	 width="303px" height="62.5px" viewBox="0 0 303 62.5" enable-background="new 0 0 303 62.5" xml:space="preserve">
<g>
	<path fill="#1BB81F" d="M301.625,43.79c0,9.851-7.984,17.835-17.835,17.835H19.209c-9.85,0-17.834-7.984-17.834-17.835V18.709
		c0-9.85,7.985-17.834,17.834-17.834H283.79c9.851,0,17.835,7.984,17.835,17.834V43.79z"/>
	<g>
		<path fill="#1B773E" d="M251.125,20.958l2.375,14.75h26.25l3.125-14.75H251.125z M277.993,33.642h-23.036l-1.748-10.853h27.083
			L277.993,33.642z"/>
		<path fill="#1B773E" d="M277.625,39.083H256l-4.062-23.688c0,0-0.156-0.656-1.062-1.156c-0.719-0.469-1.062,2.938-1.062,2.938
			l0.312,1.531l3.625,22.5h23.375L277.625,39.083z"/>
		<circle fill="#1B773E" cx="273.083" cy="42.833" r="2.25"/>
		<circle fill="#1B773E" cx="257.875" cy="42.833" r="2.25"/>
		<circle fill="#1B773E" cx="249.312" cy="16.146" r="2.438"/>
		<rect x="253.209" y="27.291" fill="#1B773E" width="26.75" height="1.666"/>
		<rect x="266.5" y="21.499" fill="#1B773E" width="0.917" height="13.083"/>
		<rect x="270.916" y="21.499" fill="#1B773E" width="0.918" height="13.083"/>
		<rect x="275.333" y="21.499" fill="#1B773E" width="0.917" height="13.083"/>
		<rect x="262.083" y="21.499" fill="#1B773E" width="0.917" height="13.083"/>
		<rect x="257.666" y="21.499" fill="#1B773E" width="0.918" height="13.083"/>
	</g>
	<g>
		<path fill="#FFFFFF" d="M28.306,38.487V22.979h10.632v2.624h-7.5v3.671h6.474v2.623h-6.474v6.591H28.306z"/>
		<path fill="#FFFFFF" d="M40.991,38.487V22.979h3.131v15.509H40.991z"/>
		<path fill="#FFFFFF" d="M46.704,38.487V22.979h3.047l6.347,10.357V22.979h2.909v15.509h-3.142l-6.252-10.113v10.113H46.704z"/>
		<path fill="#FFFFFF" d="M75.869,38.487h-3.406l-1.354-3.522H64.91l-1.28,3.522h-3.322l6.041-15.509h3.311L75.869,38.487z
			 M70.104,32.352l-2.137-5.755l-2.095,5.755H70.104z"/>
		<path fill="#FFFFFF" d="M77.181,38.487V23.105h3.131v12.769h7.786v2.613H77.181z"/>
		<path fill="#FFFFFF" d="M89.802,38.487V22.979h3.131v15.509H89.802z"/>
		<path fill="#FFFFFF" d="M94.14,38.487v-2.824l8.146-10.061H95.06v-2.624h11.351v2.434l-8.495,10.462h8.823v2.613H94.14z"/>
		<path fill="#FFFFFF" d="M122.269,38.487h-3.406l-1.354-3.522h-6.199l-1.28,3.522h-3.322l6.041-15.509h3.311L122.269,38.487z
			 M116.503,32.352l-2.137-5.755l-2.095,5.755H116.503z"/>
		<path fill="#FFFFFF" d="M123.507,38.487V22.979h6.59c1.657,0,2.862,0.14,3.613,0.418c0.751,0.279,1.352,0.774,1.804,1.486
			c0.451,0.713,0.677,1.527,0.677,2.444c0,1.163-0.342,2.124-1.026,2.883c-0.684,0.758-1.707,1.235-3.068,1.433
			c0.677,0.396,1.236,0.829,1.677,1.302c0.44,0.473,1.035,1.312,1.782,2.518l1.894,3.025h-3.745l-2.264-3.375
			c-0.804-1.205-1.354-1.966-1.65-2.279c-0.296-0.313-0.61-0.529-0.941-0.646c-0.332-0.116-0.857-0.175-1.576-0.175h-0.635v6.475
			H123.507z M126.639,29.538h2.316c1.502,0,2.44-0.063,2.814-0.19s0.667-0.346,0.878-0.656c0.212-0.311,0.317-0.698,0.317-1.164
			c0-0.521-0.139-0.942-0.417-1.264c-0.279-0.321-0.672-0.523-1.18-0.608c-0.254-0.035-1.016-0.053-2.285-0.053h-2.443V29.538z"/>
		<path fill="#FFFFFF" d="M154.218,32.785l3.036,0.963c-0.466,1.692-1.239,2.95-2.322,3.771c-1.082,0.821-2.456,1.232-4.12,1.232
			c-2.06,0-3.752-0.704-5.078-2.11c-1.326-1.407-1.989-3.331-1.989-5.771c0-2.582,0.666-4.586,1.999-6.015
			c1.333-1.428,3.085-2.142,5.258-2.142c1.896,0,3.438,0.561,4.623,1.682c0.705,0.663,1.233,1.615,1.587,2.856l-3.1,0.74
			c-0.184-0.804-0.566-1.438-1.148-1.904c-0.581-0.465-1.289-0.698-2.121-0.698c-1.15,0-2.083,0.413-2.798,1.238
			s-1.074,2.161-1.074,4.009c0,1.961,0.353,3.357,1.058,4.189c0.705,0.832,1.622,1.248,2.75,1.248c0.832,0,1.548-0.265,2.147-0.793
			C153.526,34.753,153.957,33.921,154.218,32.785z"/>
		<path fill="#FFFFFF" d="M158.873,30.828c0-1.579,0.236-2.905,0.709-3.978c0.353-0.79,0.834-1.498,1.444-2.126
			c0.609-0.628,1.277-1.093,2.004-1.396c0.967-0.409,2.081-0.613,3.343-0.613c2.285,0,4.113,0.708,5.485,2.126
			s2.058,3.389,2.058,5.913c0,2.504-0.681,4.463-2.042,5.877s-3.181,2.121-5.458,2.121c-2.307,0-4.141-0.704-5.501-2.11
			C159.554,35.234,158.873,33.297,158.873,30.828z M162.1,30.723c0,1.756,0.405,3.087,1.217,3.993
			c0.811,0.906,1.841,1.359,3.089,1.359s2.272-0.449,3.073-1.349c0.8-0.899,1.2-2.248,1.2-4.046c0-1.777-0.39-3.104-1.169-3.978
			c-0.779-0.875-1.814-1.312-3.104-1.312c-1.291,0-2.331,0.443-3.121,1.328S162.1,28.938,162.1,30.723z"/>
		<path fill="#FFFFFF" d="M175.884,38.487V22.979h4.687l2.813,10.579l2.782-10.579h4.697v15.509h-2.909V26.279l-3.079,12.208h-3.015
			l-3.067-12.208v12.208H175.884z"/>
		<path fill="#FFFFFF" d="M193.54,38.487V22.979h5.025c1.903,0,3.145,0.078,3.724,0.233c0.889,0.232,1.632,0.738,2.231,1.518
			s0.899,1.786,0.899,3.021c0,0.952-0.173,1.753-0.519,2.401s-0.784,1.158-1.316,1.528c-0.533,0.37-1.074,0.615-1.624,0.735
			c-0.748,0.148-1.83,0.223-3.248,0.223h-2.042v5.85H193.54z M196.671,25.603v4.4h1.714c1.234,0,2.06-0.081,2.476-0.243
			s0.742-0.416,0.979-0.762s0.354-0.747,0.354-1.206c0-0.563-0.166-1.029-0.497-1.396c-0.332-0.366-0.751-0.596-1.259-0.688
			c-0.374-0.07-1.125-0.105-2.253-0.105H196.671z"/>
		<path fill="#FFFFFF" d="M207.567,38.487V22.979h6.591c1.657,0,2.861,0.14,3.612,0.418c0.751,0.279,1.353,0.774,1.804,1.486
			c0.451,0.713,0.677,1.527,0.677,2.444c0,1.163-0.342,2.124-1.026,2.883c-0.684,0.758-1.706,1.235-3.067,1.433
			c0.677,0.396,1.235,0.829,1.677,1.302c0.44,0.473,1.035,1.312,1.782,2.518l1.894,3.025h-3.745l-2.264-3.375
			c-0.804-1.205-1.354-1.966-1.65-2.279c-0.296-0.313-0.609-0.529-0.941-0.646c-0.331-0.116-0.856-0.175-1.576-0.175h-0.635v6.475
			H207.567z M210.698,29.538h2.317c1.502,0,2.439-0.063,2.813-0.19s0.667-0.346,0.878-0.656c0.212-0.311,0.317-0.698,0.317-1.164
			c0-0.521-0.14-0.942-0.418-1.264s-0.672-0.523-1.18-0.608c-0.254-0.035-1.015-0.053-2.284-0.053h-2.444V29.538z"/>
		<path fill="#FFFFFF" d="M236.755,38.487h-3.406l-1.354-3.522h-6.199l-1.28,3.522h-3.321l6.04-15.509h3.312L236.755,38.487z
			 M230.989,32.352l-2.137-5.755l-2.095,5.755H230.989z"/>
	</g>
</g>
</svg>
