<?xml version="1.0" encoding="utf-8"?>
<!-- Generator: Adobe Illustrator 15.0.0, SVG Export Plug-In . SVG Version: 6.00 Build 0)  -->
<!DOCTYPE svg PUBLIC "-//W3C//DTD SVG 1.1//EN" "http://www.w3.org/Graphics/SVG/1.1/DTD/svg11.dtd">
<svg version="1.1" id="Layer_1" xmlns="http://www.w3.org/2000/svg" xmlns:xlink="http://www.w3.org/1999/xlink" x="0px" y="0px"
	 width="279px" height="66px" viewBox="0 0 279 66" enable-background="new 0 0 279 66" xml:space="preserve">
<path fill="#1BB81F" d="M277.333,55.165c0,4.88-3.955,8.835-8.835,8.835H10.501c-4.879,0-8.834-3.955-8.834-8.835V10.834
	C1.667,5.955,5.622,2,10.501,2h257.997c4.88,0,8.835,3.955,8.835,8.834V55.165z"/>
<path fill="#FFFFFF" d="M245.102,33.998c0.003-0.389-0.144-0.779-0.44-1.076l-10.775-10.776c-0.588-0.589-1.543-0.588-2.132,0
	c-0.588,0.589-0.588,1.543,0,2.132L241.477,34l-9.723,9.724c-0.588,0.588-0.588,1.542,0,2.131c0.589,0.588,1.544,0.588,2.133,0
	l10.775-10.775C244.959,34.781,245.105,34.389,245.102,33.998z"/>
<polygon fill="#FFFFFF" points="231.292,23.083 231.292,45.334 243.542,33.833 "/>
<g>
	<path fill="#FFFFFF" d="M57.147,35.258l4.63,1.469c-0.71,2.581-1.891,4.498-3.542,5.751c-1.651,1.254-3.746,1.88-6.284,1.88
		c-3.141,0-5.722-1.073-7.744-3.219c-2.022-2.146-3.033-5.079-3.033-8.801c0-3.937,1.017-6.994,3.049-9.172
		c2.033-2.178,4.706-3.267,8.019-3.267c2.893,0,5.244,0.855,7.05,2.565c1.076,1.011,1.882,2.463,2.42,4.356l-4.728,1.129
		c-0.28-1.226-0.863-2.194-1.75-2.904c-0.887-0.71-1.966-1.065-3.235-1.065c-1.753,0-3.176,0.629-4.267,1.888
		c-1.092,1.258-1.638,3.297-1.638,6.114c0,2.99,0.538,5.12,1.613,6.39c1.076,1.269,2.474,1.903,4.195,1.903
		c1.269,0,2.361-0.403,3.275-1.21C56.093,38.259,56.749,36.99,57.147,35.258z"/>
	<path fill="#FFFFFF" d="M64.907,32.273c0-2.41,0.36-4.432,1.081-6.066c0.538-1.205,1.271-2.286,2.202-3.243
		c0.93-0.957,1.949-1.667,3.057-2.129c1.474-0.624,3.173-0.936,5.099-0.936c3.485,0,6.273,1.081,8.365,3.243
		c2.092,2.162,3.138,5.168,3.138,9.019c0,3.818-1.039,6.806-3.114,8.963c-2.076,2.156-4.851,3.234-8.325,3.234
		c-3.517,0-6.314-1.073-8.39-3.219C65.945,38.993,64.907,36.038,64.907,32.273z M69.828,32.112c0,2.678,0.618,4.708,1.855,6.09
		c1.237,1.383,2.808,2.073,4.711,2.073s3.466-0.686,4.687-2.057c1.221-1.372,1.832-3.429,1.832-6.172
		c0-2.71-0.595-4.732-1.783-6.066c-1.189-1.333-2.767-2-4.735-2s-3.555,0.675-4.76,2.025S69.828,29.391,69.828,32.112z"/>
	<path fill="#FFFFFF" d="M91.512,43.954V20.302h7.147l4.292,16.134l4.243-16.134h7.164v23.652h-4.437V25.335l-4.695,18.619h-4.598
		l-4.679-18.619v18.619H91.512z"/>
	<path fill="#FFFFFF" d="M119.101,43.954V20.302h7.664c2.904,0,4.797,0.119,5.679,0.355c1.355,0.355,2.49,1.127,3.404,2.315
		c0.914,1.188,1.371,2.724,1.371,4.606c0,1.452-0.264,2.673-0.791,3.662c-0.527,0.99-1.196,1.767-2.008,2.332
		c-0.812,0.564-1.638,0.938-2.477,1.121c-1.14,0.226-2.792,0.339-4.953,0.339h-3.114v8.922H119.101z M123.876,24.303v6.711h2.614
		c1.882,0,3.14-0.124,3.775-0.371c0.635-0.247,1.132-0.634,1.493-1.162c0.36-0.527,0.541-1.14,0.541-1.839
		c0-0.861-0.253-1.57-0.758-2.13c-0.506-0.559-1.146-0.909-1.92-1.049c-0.57-0.107-1.716-0.161-3.437-0.161H123.876z"/>
	<path fill="#FFFFFF" d="M141.155,43.954V20.302h10.052c2.527,0,4.364,0.213,5.51,0.638s2.062,1.18,2.751,2.267
		c0.688,1.086,1.032,2.329,1.032,3.727c0,1.774-0.522,3.24-1.565,4.397c-1.043,1.155-2.603,1.885-4.679,2.186
		c1.033,0.603,1.885,1.264,2.558,1.984c0.672,0.721,1.578,2.001,2.719,3.84l2.888,4.614h-5.712l-3.452-5.146
		c-1.227-1.84-2.065-2.998-2.517-3.477c-0.452-0.479-0.931-0.808-1.437-0.984c-0.506-0.178-1.307-0.267-2.403-0.267h-0.969v9.874
		H141.155z M145.931,30.305h3.533c2.291,0,3.722-0.097,4.292-0.29c0.57-0.194,1.017-0.527,1.339-1
		c0.323-0.473,0.484-1.065,0.484-1.775c0-0.795-0.213-1.438-0.638-1.928c-0.425-0.489-1.024-0.799-1.799-0.928
		c-0.387-0.054-1.549-0.081-3.484-0.081h-3.728V30.305z"/>
	<path fill="#FFFFFF" d="M186.33,43.954h-5.194l-2.065-5.372h-9.454l-1.952,5.372h-5.066l9.213-23.652h5.05L186.33,43.954z
		 M177.537,34.597l-3.259-8.777l-3.194,8.777H177.537z"/>
	<path fill="#FFFFFF" d="M188.879,43.954V20.302h10.052c2.527,0,4.364,0.213,5.51,0.638s2.062,1.18,2.751,2.267
		c0.688,1.086,1.032,2.329,1.032,3.727c0,1.774-0.522,3.24-1.565,4.397c-1.043,1.155-2.603,1.885-4.679,2.186
		c1.033,0.603,1.885,1.264,2.558,1.984c0.672,0.721,1.578,2.001,2.719,3.84l2.888,4.614h-5.712l-3.452-5.146
		c-1.227-1.84-2.065-2.998-2.517-3.477c-0.452-0.479-0.931-0.808-1.437-0.984c-0.506-0.178-1.307-0.267-2.403-0.267h-0.969v9.874
		H188.879z M193.654,30.305h3.533c2.291,0,3.722-0.097,4.292-0.29c0.57-0.194,1.017-0.527,1.339-1
		c0.323-0.473,0.484-1.065,0.484-1.775c0-0.795-0.213-1.438-0.638-1.928c-0.425-0.489-1.024-0.799-1.799-0.928
		c-0.387-0.054-1.549-0.081-3.484-0.081h-3.728V30.305z"/>
</g>
</svg>
