<?xml version="1.0" encoding="utf-8"?>
<!-- Generator: Adobe Illustrator 15.0.0, SVG Export Plug-In . SVG Version: 6.00 Build 0)  -->
<!DOCTYPE svg PUBLIC "-//W3C//DTD SVG 1.1//EN" "http://www.w3.org/Graphics/SVG/1.1/DTD/svg11.dtd">
<svg version="1.1" id="Layer_1" xmlns="http://www.w3.org/2000/svg" xmlns:xlink="http://www.w3.org/1999/xlink" x="0px" y="0px"
	 width="279px" height="66px" viewBox="0 0 279 66" enable-background="new 0 0 279 66" xml:space="preserve">
<path fill="#A5A5A5" d="M277.333,55.165c0,4.88-3.955,8.835-8.835,8.835H10.501c-4.879,0-8.834-3.955-8.834-8.835V10.834
	C1.667,5.955,5.622,2,10.501,2h257.997c4.88,0,8.835,3.955,8.835,8.834V55.165z"/>
<g>
	<path fill="#FFFFFF" d="M41.025,37.188l3.018-0.294c0.182,1.013,0.55,1.757,1.105,2.232c0.555,0.475,1.305,0.712,2.248,0.712
		c0.999,0,1.752-0.211,2.258-0.634s0.76-0.917,0.76-1.482c0-0.363-0.106-0.673-0.32-0.928c-0.213-0.255-0.585-0.477-1.116-0.665
		c-0.363-0.126-1.191-0.35-2.483-0.671c-1.663-0.412-2.83-0.918-3.5-1.52c-0.943-0.846-1.415-1.875-1.415-3.091
		c0-0.782,0.222-1.514,0.665-2.195c0.444-0.681,1.083-1.2,1.918-1.556c0.834-0.356,1.842-0.534,3.023-0.534
		c1.928,0,3.379,0.423,4.354,1.268s1.486,1.974,1.535,3.385l-3.102,0.136c-0.133-0.79-0.417-1.357-0.854-1.703
		c-0.437-0.346-1.092-0.519-1.965-0.519c-0.901,0-1.607,0.185-2.117,0.555c-0.329,0.238-0.493,0.556-0.493,0.954
		c0,0.363,0.153,0.674,0.461,0.933c0.391,0.329,1.341,0.671,2.851,1.026c1.509,0.357,2.625,0.726,3.348,1.106
		s1.289,0.901,1.698,1.562s0.613,1.476,0.613,2.446c0,0.88-0.245,1.705-0.733,2.473c-0.489,0.77-1.181,1.34-2.075,1.714
		c-0.895,0.374-2.009,0.561-3.343,0.561c-1.942,0-3.434-0.449-4.475-1.347S41.228,38.906,41.025,37.188z"/>
	<path fill="#FFFFFF" d="M54.838,42.187V26.824h11.391v2.599h-8.289v3.406h7.712v2.588h-7.712v4.182h8.582v2.588H54.838z"/>
	<path fill="#FFFFFF" d="M67.948,42.187V26.95h3.102v12.648h7.712v2.588H67.948z"/>
	<path fill="#FFFFFF" d="M79.686,42.187V26.824h11.391v2.599h-8.289v3.406H90.5v2.588h-7.712v4.182h8.582v2.588H79.686z"/>
	<path fill="#FFFFFF" d="M102.542,36.538l3.007,0.954c-0.461,1.677-1.228,2.922-2.3,3.735c-1.072,0.814-2.433,1.221-4.082,1.221
		c-2.04,0-3.716-0.696-5.03-2.09c-1.313-1.395-1.97-3.3-1.97-5.717c0-2.557,0.66-4.542,1.98-5.957s3.056-2.122,5.208-2.122
		c1.879,0,3.406,0.555,4.579,1.666c0.699,0.657,1.223,1.6,1.572,2.83l-3.07,0.733c-0.182-0.796-0.561-1.425-1.137-1.886
		c-0.577-0.461-1.277-0.691-2.101-0.691c-1.139,0-2.063,0.409-2.771,1.226c-0.709,0.817-1.064,2.142-1.064,3.972
		c0,1.942,0.349,3.325,1.048,4.149s1.607,1.236,2.725,1.236c0.824,0,1.533-0.262,2.127-0.785
		C101.857,38.487,102.283,37.663,102.542,36.538z"/>
	<path fill="#FFFFFF" d="M106.829,42.187V26.824h3.102v15.362H106.829z"/>
	<path fill="#FFFFFF" d="M110.969,34.6c0-1.564,0.234-2.878,0.702-3.94c0.349-0.782,0.826-1.484,1.43-2.106
		c0.604-0.622,1.266-1.083,1.986-1.383c0.957-0.405,2.061-0.608,3.312-0.608c2.263,0,4.074,0.702,5.433,2.106
		c1.359,1.404,2.038,3.356,2.038,5.857c0,2.48-0.674,4.421-2.022,5.821s-3.15,2.101-5.407,2.101c-2.285,0-4.101-0.696-5.449-2.09
		C111.644,38.964,110.969,37.045,110.969,34.6z M114.166,34.495c0,1.739,0.401,3.058,1.205,3.956
		c0.803,0.897,1.823,1.346,3.06,1.346s2.251-0.445,3.044-1.336s1.189-2.227,1.189-4.008c0-1.76-0.386-3.074-1.158-3.94
		s-1.797-1.299-3.076-1.299s-2.309,0.438-3.091,1.315C114.557,31.406,114.166,32.728,114.166,34.495z"/>
	<path fill="#FFFFFF" d="M127.035,42.187V26.824h3.018l6.287,10.259V26.824h2.882v15.362h-3.112l-6.193-10.018v10.018H127.035z"/>
	<path fill="#FFFFFF" d="M141.214,42.187V26.824h11.391v2.599h-8.289v3.406h7.713v2.588h-7.713v4.182h8.582v2.588H141.214z"/>
	<path fill="#FFFFFF" d="M171.972,42.187h-3.374l-1.341-3.489h-6.141l-1.269,3.489h-3.29l5.983-15.362h3.28L171.972,42.187z
		 M166.261,36.108l-2.116-5.7l-2.075,5.7H166.261z"/>
	<path fill="#FFFFFF" d="M182.158,36.538l3.008,0.954c-0.462,1.677-1.229,2.922-2.301,3.735c-1.072,0.814-2.433,1.221-4.081,1.221
		c-2.04,0-3.717-0.696-5.03-2.09c-1.313-1.395-1.97-3.3-1.97-5.717c0-2.557,0.66-4.542,1.98-5.957s3.056-2.122,5.208-2.122
		c1.879,0,3.405,0.555,4.579,1.666c0.698,0.657,1.223,1.6,1.572,2.83l-3.07,0.733c-0.182-0.796-0.561-1.425-1.138-1.886
		c-0.576-0.461-1.276-0.691-2.101-0.691c-1.139,0-2.062,0.409-2.771,1.226c-0.709,0.817-1.063,2.142-1.063,3.972
		c0,1.942,0.349,3.325,1.048,4.149c0.698,0.824,1.606,1.236,2.725,1.236c0.824,0,1.533-0.262,2.127-0.785
		C181.474,38.487,181.899,37.663,182.158,36.538z"/>
	<path fill="#FFFFFF" d="M186.445,42.187V26.824h3.102v15.362H186.445z"/>
	<path fill="#FFFFFF" d="M191.173,42.187V26.824h4.642l2.788,10.479l2.756-10.479h4.652v15.362h-2.882V30.094l-3.049,12.093h-2.986
		l-3.039-12.093v12.093H191.173z"/>
	<path fill="#FFFFFF" d="M221.657,42.187h-3.374l-1.341-3.489h-6.141l-1.269,3.489h-3.29l5.983-15.362h3.28L221.657,42.187z
		 M215.946,36.108l-2.116-5.7l-2.075,5.7H215.946z"/>
</g>
<g>
	<path fill="#FFFFFF" d="M253.977,44.661h-14.274c-0.543,0-1.039-0.31-1.282-0.797l-6.486-13.162
		c-0.269-0.547-0.159-1.207,0.271-1.639l2.37-2.374c0.508-0.505,1.312-0.562,1.877-0.125l3.271,2.503
		c-0.008-2.86-0.021-7.181-0.021-9.86c0-3.045,2.153-4.49,4.282-4.49c2.128,0,4.282,1.444,4.282,4.49v4.799l8.956,2.558
		c0.612,0.175,1.035,0.736,1.035,1.373v9.586c0,0.223-0.052,0.441-0.151,0.639l-2.854,5.71
		C255.011,44.355,254.517,44.661,253.977,44.661 M240.591,41.807h12.502l2.31-4.619v-8.174l-8.954-2.558
		c-0.614-0.176-1.036-0.737-1.036-1.373V17.78c0-1.315-0.737-0.996-1.428-0.996c-0.689,0-1.427-0.319-1.427,0.996v14.035
		c0.001,0.545-0.275,1.187-0.763,1.427c-0.487,0.244-1.069,0.188-1.501-0.145l-4.582-3.505l-0.765,0.765L240.591,41.807z
		 M255.402,46.088h-15.7c-0.783,0-1.428,0.644-1.428,1.428v2.162h18.556v-2.162C256.83,46.731,256.189,46.088,255.402,46.088"/>
</g>
</svg>
