<?xml version="1.0" encoding="utf-8"?>
<!-- Generator: Adobe Illustrator 14.0.0, SVG Export Plug-In . SVG Version: 6.00 Build 43363)  -->
<!DOCTYPE svg PUBLIC "-//W3C//DTD SVG 1.1//EN" "http://www.w3.org/Graphics/SVG/1.1/DTD/svg11.dtd">
<svg version="1.1" id="Layer_1" xmlns="http://www.w3.org/2000/svg" xmlns:xlink="http://www.w3.org/1999/xlink" x="0px" y="0px"
	 width="117.223px" height="101px" viewBox="0 0 117.223 101" enable-background="new 0 0 117.223 101" xml:space="preserve">
<polygon fill="#ED2344" points="101.012,100.396 0,100.396 0,0.604 101.012,0.604 116.27,50.348 "/>
<path fill="#FFFFFF" d="M58.194,87.283l-11.861,6.203c-0.166,0.13-0.323,0.062-0.323-0.148V80.764c0-0.213,0.156-0.279,0.322-0.147
	l11.872,6.2C58.369,86.945,58.359,87.156,58.194,87.283"/>
<g>
	<path fill="#FFFFFF" d="M31.761,71.968c-5.535-5.536-5.535-35.41,0-40.944c5.534-5.535,35.408-5.535,40.941,0
		c5.533,5.534,5.533,35.408,0,40.944C67.17,77.5,37.296,77.5,31.761,71.968z"/>
	<path fill="#ED2141" d="M32.979,70.749c-5.205-5.205-5.205-33.302,0-38.507c5.206-5.206,33.303-5.206,38.506,0
		c5.208,5.206,5.208,33.302,0,38.507C66.281,75.952,38.185,75.952,32.979,70.749z"/>
	<path fill="#FFFFFF" d="M47.643,61.213L50,48.604c-1.735-0.832-2.936-2.606-2.936-4.661c0-2.854,2.313-5.166,5.166-5.166
		s5.166,2.312,5.166,5.166c0,2.055-1.201,3.829-2.937,4.661l2.359,12.609C57.581,65.264,46.887,65.249,47.643,61.213"/>
</g>
<g>
	<path fill="#FFFFFF" d="M66.88,12.014c-2.348,0-4.253,1.904-4.253,4.253s1.905,4.253,4.253,4.253c2.351,0,4.253-1.904,4.253-4.253
		S69.23,12.014,66.88,12.014z M66.88,18.735c-1.36,0-2.466-1.105-2.466-2.468c0-1.362,1.104-2.468,2.466-2.468
		c1.365,0,2.469,1.105,2.469,2.468C69.348,17.63,68.246,18.735,66.88,18.735z"/>
	<path fill="#FFFFFF" d="M57.118,8.132c-0.534,0-0.967,0.433-0.967,0.966v3.186c-0.46-0.172-0.957-0.27-1.479-0.27
		c-2.348,0-4.253,1.904-4.253,4.253s1.905,4.253,4.253,4.253c0.624,0,1.214-0.14,1.745-0.381c0.178,0.185,0.424,0.302,0.699,0.302
		c0.534,0,0.967-0.433,0.967-0.968V9.098C58.085,8.564,57.653,8.132,57.118,8.132z M52.206,16.267c0-1.362,1.104-2.468,2.468-2.468
		c0.556,0,1.065,0.186,1.479,0.494v3.947c-0.412,0.309-0.922,0.494-1.479,0.494C53.312,18.735,52.206,17.63,52.206,16.267z"/>
	<path fill="#FFFFFF" d="M49.463,16.362c0-0.032,0.004-0.063,0.004-0.095c0-2.349-1.903-4.253-4.252-4.253s-4.253,1.904-4.253,4.253
		s1.904,4.253,4.253,4.253c0.905,0,1.742-0.285,2.431-0.767c0.001,0.506,0.411,0.917,0.916,0.917c0.506,0,0.916-0.41,0.916-0.917
		v-3.395L49.463,16.362z M45.214,18.735c-1.362,0-2.468-1.105-2.468-2.468c0-1.362,1.104-2.468,2.468-2.468s2.469,1.105,2.469,2.468
		c0,0.135-0.014,0.267-0.035,0.397h-0.003v0.014C47.449,17.845,46.437,18.735,45.214,18.735z"/>
	<path fill="#FFFFFF" d="M61.29,19.568c0,0.523-0.423,0.946-0.943,0.946l0,0c-0.523,0-0.946-0.422-0.946-0.946v-6.92
		c0-0.522,0.423-0.944,0.946-0.944l0,0c0.521,0,0.943,0.422,0.943,0.944V19.568z"/>
	<path fill="#FFFFFF" d="M38.301,19.568c0,0.523-0.423,0.946-0.945,0.946l0,0c-0.521,0-0.943-0.422-0.943-0.946V13.87
		c0-0.523,0.423-0.946,0.943-0.946l0,0c0.522,0,0.945,0.423,0.945,0.946V19.568z"/>
	<path fill="#FFFFFF" d="M61.29,9.584c0,0.521-0.423,0.944-0.943,0.944l0,0c-0.523,0-0.946-0.422-0.946-0.944v0.098
		c0-0.522,0.423-0.946,0.946-0.946l0,0c0.521,0,0.943,0.424,0.943,0.946V9.584z"/>
	<path fill="#FFFFFF" d="M40.845,12.94c0,0.521-0.425,0.945-0.946,0.945l0,0c-0.521,0-0.945-0.424-0.945-0.945v0.099
		c0-0.523,0.424-0.946,0.945-0.946l0,0c0.521,0,0.946,0.423,0.946,0.946V12.94z"/>
	<path fill="#FFFFFF" d="M39.8,13.978c-1.235,0.104-1.525,1.708-1.525,1.708l-1.449-0.864c0,0,0.763-2.468,3.001-2.722
		C40.695,12,41.036,13.874,39.8,13.978z"/>
	<path fill="#FFFFFF" d="M46.554,8.568c0.199,0.354,0.074,0.805-0.28,1.004l-1.948,1.099c-0.354,0.2-0.806,0.075-1.005-0.28l0,0
		c-0.2-0.354-0.074-0.803,0.28-1.004l1.947-1.1C45.904,8.088,46.354,8.214,46.554,8.568L46.554,8.568z"/>
	<g>
		<path fill="#FFFFFF" d="M22.276,21.849c0.544,0,0.985-0.441,0.985-0.984c0-0.038-0.007-0.074-0.011-0.11
			c-0.529-1.473-0.819-3.06-0.819-4.714c0-1.852,0.364-3.617,1.021-5.23c0.026-0.09,0.048-0.184,0.048-0.283
			c0-0.543-0.441-0.984-0.986-0.984c-0.341,0-0.636,0.175-0.812,0.438c-0.773,1.867-1.203,3.912-1.203,6.06
			c0,1.833,0.314,3.59,0.887,5.228C21.539,21.611,21.877,21.849,22.276,21.849z"/>
	</g>
	<g>
		<path fill="#FFFFFF" d="M26.438,20.76c0.526,0,0.954-0.429,0.954-0.955c0-0.021-0.004-0.042-0.005-0.062
			c-0.472-1.141-0.734-2.39-0.734-3.702c0-1.545,0.364-3.006,1.008-4.302c0.01-0.053,0.016-0.108,0.016-0.164
			c0-0.528-0.429-0.958-0.958-0.958c-0.279,0-0.529,0.125-0.703,0.32c-0.765,1.537-1.193,3.27-1.193,5.104
			c0,1.518,0.297,2.965,0.83,4.293C25.821,20.589,26.108,20.76,26.438,20.76z"/>
	</g>
	<g>
		<path fill="#FFFFFF" d="M30.333,19.722c0.446-0.01,0.799-0.382,0.788-0.829c0-0.021-0.004-0.043-0.007-0.065
			c-0.444-0.831-0.698-1.779-0.698-2.787c0-1.235,0.378-2.38,1.022-3.329c0.014-0.053,0.022-0.109,0.024-0.167
			c0.012-0.447-0.342-0.819-0.79-0.831c-0.2-0.004-0.385,0.066-0.527,0.185c-0.794,1.185-1.256,2.608-1.256,4.141
			c0,1.233,0.301,2.395,0.832,3.419C29.873,19.626,30.089,19.73,30.333,19.722z"/>
	</g>
	<g>
		<path fill="#FFFFFF" d="M84.236,9.544c-0.545,0-0.984,0.441-0.984,0.984c0,0.038,0.006,0.074,0.011,0.11
			c0.528,1.473,0.819,3.059,0.819,4.713c0,1.851-0.363,3.616-1.021,5.23c-0.026,0.09-0.049,0.184-0.049,0.283
			c0,0.543,0.441,0.984,0.986,0.984c0.341,0,0.635-0.175,0.812-0.438c0.771-1.867,1.202-3.913,1.202-6.06
			c0-1.833-0.313-3.59-0.889-5.228C84.971,9.784,84.634,9.544,84.236,9.544z"/>
	</g>
	<g>
		<path fill="#FFFFFF" d="M80.075,10.635c-0.528,0-0.955,0.427-0.955,0.953c0,0.021,0.004,0.042,0.006,0.062
			c0.473,1.142,0.732,2.392,0.732,3.703c0,1.546-0.362,3.005-1.007,4.301c-0.011,0.054-0.017,0.108-0.017,0.164
			c0,0.529,0.431,0.958,0.957,0.958c0.281,0,0.529-0.125,0.704-0.318c0.763-1.54,1.192-3.271,1.192-5.105
			c0-1.518-0.296-2.965-0.832-4.293C80.691,10.804,80.402,10.635,80.075,10.635z"/>
	</g>
	<g>
		<path fill="#FFFFFF" d="M76.179,11.67c-0.447,0.011-0.8,0.382-0.788,0.829c0,0.022,0.004,0.044,0.008,0.065
			c0.442,0.83,0.696,1.779,0.696,2.787c0,1.235-0.379,2.38-1.021,3.329c-0.014,0.053-0.022,0.109-0.024,0.168
			c-0.013,0.446,0.34,0.818,0.788,0.83c0.203,0.004,0.388-0.066,0.528-0.185c0.794-1.185,1.257-2.609,1.257-4.141
			c0-1.233-0.303-2.395-0.831-3.419C76.638,11.767,76.421,11.665,76.179,11.67z"/>
	</g>
</g>
<circle fill="#ED2344" cx="103.885" cy="12.322" r="12.322"/>
<circle fill="#FFFFFF" cx="103.885" cy="12.322" r="10.224"/>
<g>
	<path fill="#ED2344" d="M102.044,16.724c-0.487,0.488-1.279,0.488-1.769,0l0,0c-0.487-0.488-0.487-1.279,0-1.768l6.808-6.806
		c0.486-0.488,1.278-0.488,1.768,0l0,0c0.488,0.488,0.488,1.279,0,1.768L102.044,16.724z"/>
	<path fill="#ED2344" d="M108.85,14.956c0.488,0.487,0.488,1.279,0,1.768l0,0c-0.488,0.488-1.279,0.488-1.768,0l-6.808-6.807
		c-0.487-0.487-0.487-1.279,0-1.768l0,0c0.488-0.488,1.279-0.488,1.769,0L108.85,14.956z"/>
</g>
<polygon fill="#ED2344" points="101.012,100.396 0,100.396 0,0.604 101.012,0.604 116.27,50.348 "/>
<path fill="#FFFFFF" d="M58.194,87.283l-11.861,6.203c-0.166,0.13-0.323,0.062-0.323-0.148V80.764c0-0.213,0.156-0.279,0.322-0.147
	l11.872,6.2C58.369,86.945,58.359,87.156,58.194,87.283"/>
<g>
	<path fill="#FFFFFF" d="M31.761,71.968c-5.535-5.536-5.535-35.41,0-40.944c5.534-5.535,35.408-5.535,40.941,0
		c5.533,5.534,5.533,35.408,0,40.944C67.17,77.5,37.296,77.5,31.761,71.968z"/>
	<path fill="#ED2141" d="M32.979,70.749c-5.205-5.205-5.205-33.302,0-38.507c5.206-5.206,33.303-5.206,38.506,0
		c5.208,5.206,5.208,33.302,0,38.507C66.281,75.952,38.185,75.952,32.979,70.749z"/>
	<path fill="#FFFFFF" d="M47.643,61.213L50,48.604c-1.735-0.832-2.936-2.606-2.936-4.661c0-2.854,2.313-5.166,5.166-5.166
		s5.166,2.312,5.166,5.166c0,2.055-1.201,3.829-2.937,4.661l2.359,12.609C57.581,65.264,46.887,65.249,47.643,61.213"/>
</g>
<g>
	<path fill="#FFFFFF" d="M66.88,12.014c-2.348,0-4.253,1.904-4.253,4.253s1.905,4.253,4.253,4.253c2.351,0,4.253-1.904,4.253-4.253
		S69.23,12.014,66.88,12.014z M66.88,18.735c-1.36,0-2.466-1.105-2.466-2.468c0-1.362,1.104-2.468,2.466-2.468
		c1.365,0,2.469,1.105,2.469,2.468C69.348,17.63,68.246,18.735,66.88,18.735z"/>
	<path fill="#FFFFFF" d="M57.118,8.132c-0.534,0-0.967,0.433-0.967,0.966v3.186c-0.46-0.172-0.957-0.27-1.479-0.27
		c-2.348,0-4.253,1.904-4.253,4.253s1.905,4.253,4.253,4.253c0.624,0,1.214-0.14,1.745-0.381c0.178,0.185,0.424,0.302,0.699,0.302
		c0.534,0,0.967-0.433,0.967-0.968V9.098C58.085,8.564,57.653,8.132,57.118,8.132z M52.206,16.267c0-1.362,1.104-2.468,2.468-2.468
		c0.556,0,1.065,0.186,1.479,0.494v3.947c-0.412,0.309-0.922,0.494-1.479,0.494C53.312,18.735,52.206,17.63,52.206,16.267z"/>
	<path fill="#FFFFFF" d="M49.463,16.362c0-0.032,0.004-0.063,0.004-0.095c0-2.349-1.903-4.253-4.252-4.253s-4.253,1.904-4.253,4.253
		s1.904,4.253,4.253,4.253c0.905,0,1.742-0.285,2.431-0.767c0.001,0.506,0.411,0.917,0.916,0.917c0.506,0,0.916-0.41,0.916-0.917
		v-3.395L49.463,16.362z M45.214,18.735c-1.362,0-2.468-1.105-2.468-2.468c0-1.362,1.104-2.468,2.468-2.468s2.469,1.105,2.469,2.468
		c0,0.135-0.014,0.267-0.035,0.397h-0.003v0.014C47.449,17.845,46.437,18.735,45.214,18.735z"/>
	<path fill="#FFFFFF" d="M61.29,19.568c0,0.523-0.423,0.946-0.943,0.946l0,0c-0.523,0-0.946-0.422-0.946-0.946v-6.92
		c0-0.522,0.423-0.944,0.946-0.944l0,0c0.521,0,0.943,0.422,0.943,0.944V19.568z"/>
	<path fill="#FFFFFF" d="M38.301,19.568c0,0.523-0.423,0.946-0.945,0.946l0,0c-0.521,0-0.943-0.422-0.943-0.946V13.87
		c0-0.523,0.423-0.946,0.943-0.946l0,0c0.522,0,0.945,0.423,0.945,0.946V19.568z"/>
	<path fill="#FFFFFF" d="M61.29,9.584c0,0.521-0.423,0.944-0.943,0.944l0,0c-0.523,0-0.946-0.422-0.946-0.944v0.098
		c0-0.522,0.423-0.946,0.946-0.946l0,0c0.521,0,0.943,0.424,0.943,0.946V9.584z"/>
	<path fill="#FFFFFF" d="M40.845,12.94c0,0.521-0.425,0.945-0.946,0.945l0,0c-0.521,0-0.945-0.424-0.945-0.945v0.099
		c0-0.523,0.424-0.946,0.945-0.946l0,0c0.521,0,0.946,0.423,0.946,0.946V12.94z"/>
	<path fill="#FFFFFF" d="M39.8,13.978c-1.235,0.104-1.525,1.708-1.525,1.708l-1.449-0.864c0,0,0.763-2.468,3.001-2.722
		C40.695,12,41.036,13.874,39.8,13.978z"/>
	<path fill="#FFFFFF" d="M46.554,8.568c0.199,0.354,0.074,0.805-0.28,1.004l-1.948,1.099c-0.354,0.2-0.806,0.075-1.005-0.28l0,0
		c-0.2-0.354-0.074-0.803,0.28-1.004l1.947-1.1C45.904,8.088,46.354,8.214,46.554,8.568L46.554,8.568z"/>
	<g>
		<path fill="#FFFFFF" d="M22.276,21.849c0.544,0,0.985-0.441,0.985-0.984c0-0.038-0.007-0.074-0.011-0.11
			c-0.529-1.473-0.819-3.06-0.819-4.714c0-1.852,0.364-3.617,1.021-5.23c0.026-0.09,0.048-0.184,0.048-0.283
			c0-0.543-0.441-0.984-0.986-0.984c-0.341,0-0.636,0.175-0.812,0.438c-0.773,1.867-1.203,3.912-1.203,6.06
			c0,1.833,0.314,3.59,0.887,5.228C21.539,21.611,21.877,21.849,22.276,21.849z"/>
	</g>
	<g>
		<path fill="#FFFFFF" d="M26.438,20.76c0.526,0,0.954-0.429,0.954-0.955c0-0.021-0.004-0.042-0.005-0.062
			c-0.472-1.141-0.734-2.39-0.734-3.702c0-1.545,0.364-3.006,1.008-4.302c0.01-0.053,0.016-0.108,0.016-0.164
			c0-0.528-0.429-0.958-0.958-0.958c-0.279,0-0.529,0.125-0.703,0.32c-0.765,1.537-1.193,3.27-1.193,5.104
			c0,1.518,0.297,2.965,0.83,4.293C25.821,20.589,26.108,20.76,26.438,20.76z"/>
	</g>
	<g>
		<path fill="#FFFFFF" d="M30.333,19.722c0.446-0.01,0.799-0.382,0.788-0.829c0-0.021-0.004-0.043-0.007-0.065
			c-0.444-0.831-0.698-1.779-0.698-2.787c0-1.235,0.378-2.38,1.022-3.329c0.014-0.053,0.022-0.109,0.024-0.167
			c0.012-0.447-0.342-0.819-0.79-0.831c-0.2-0.004-0.385,0.066-0.527,0.185c-0.794,1.185-1.256,2.608-1.256,4.141
			c0,1.233,0.301,2.395,0.832,3.419C29.873,19.626,30.089,19.73,30.333,19.722z"/>
	</g>
	<g>
		<path fill="#FFFFFF" d="M84.236,9.544c-0.545,0-0.984,0.441-0.984,0.984c0,0.038,0.006,0.074,0.011,0.11
			c0.528,1.473,0.819,3.059,0.819,4.713c0,1.851-0.363,3.616-1.021,5.23c-0.026,0.09-0.049,0.184-0.049,0.283
			c0,0.543,0.441,0.984,0.986,0.984c0.341,0,0.635-0.175,0.812-0.438c0.771-1.867,1.202-3.913,1.202-6.06
			c0-1.833-0.313-3.59-0.889-5.228C84.971,9.784,84.634,9.544,84.236,9.544z"/>
	</g>
	<g>
		<path fill="#FFFFFF" d="M80.075,10.635c-0.528,0-0.955,0.427-0.955,0.953c0,0.021,0.004,0.042,0.006,0.062
			c0.473,1.142,0.732,2.392,0.732,3.703c0,1.546-0.362,3.005-1.007,4.301c-0.011,0.054-0.017,0.108-0.017,0.164
			c0,0.529,0.431,0.958,0.957,0.958c0.281,0,0.529-0.125,0.704-0.318c0.763-1.54,1.192-3.271,1.192-5.105
			c0-1.518-0.296-2.965-0.832-4.293C80.691,10.804,80.402,10.635,80.075,10.635z"/>
	</g>
	<g>
		<path fill="#FFFFFF" d="M76.179,11.67c-0.447,0.011-0.8,0.382-0.788,0.829c0,0.022,0.004,0.044,0.008,0.065
			c0.442,0.83,0.696,1.779,0.696,2.787c0,1.235-0.379,2.38-1.021,3.329c-0.014,0.053-0.022,0.109-0.024,0.168
			c-0.013,0.446,0.34,0.818,0.788,0.83c0.203,0.004,0.388-0.066,0.528-0.185c0.794-1.185,1.257-2.609,1.257-4.141
			c0-1.233-0.303-2.395-0.831-3.419C76.638,11.767,76.421,11.665,76.179,11.67z"/>
	</g>
</g>
<g>
	<path fill="#FFFFFF" d="M100.198,38.201c0,2.128,1.725,3.855,3.854,3.855s3.854-1.727,3.854-3.855c0-2.131-1.726-3.855-3.854-3.855
		S100.198,36.07,100.198,38.201z M106.289,38.201c0,1.233-1.001,2.235-2.236,2.235c-1.234,0-2.237-1.002-2.237-2.235
		c0-1.237,1.002-2.238,2.237-2.238S106.289,36.962,106.289,38.201z"/>
	<path fill="#FFFFFF" d="M96.678,47.049c0,0.484,0.393,0.875,0.876,0.875h2.889c-0.156,0.417-0.244,0.868-0.244,1.34
		c0,2.128,1.725,3.855,3.854,3.855s3.854-1.727,3.854-3.855c0-0.565-0.127-1.1-0.346-1.582c0.167-0.161,0.273-0.384,0.273-0.633
		c0-0.485-0.395-0.876-0.877-0.876h-9.404C97.07,46.172,96.678,46.563,96.678,47.049z M104.052,51.501
		c-1.234,0-2.237-1.002-2.237-2.237c0-0.504,0.169-0.966,0.447-1.34h3.578c0.279,0.375,0.448,0.836,0.448,1.34
		C106.289,50.498,105.288,51.501,104.052,51.501z"/>
	<path fill="#FFFFFF" d="M104.138,53.986c-0.029,0-0.058-0.004-0.086-0.004c-2.13,0-3.854,1.727-3.854,3.854
		s1.725,3.854,3.854,3.854s3.854-1.727,3.854-3.854c0-0.819-0.259-1.579-0.694-2.203c0.458-0.001,0.83-0.373,0.83-0.829
		c0-0.459-0.372-0.832-0.83-0.832h-3.078L104.138,53.986z M106.289,57.839c0,1.234-1.001,2.236-2.236,2.236
		c-1.234,0-2.237-1.002-2.237-2.236c0-1.235,1.002-2.237,2.237-2.237c0.122,0,0.242,0.013,0.359,0.031v0.003h0.014
		C105.483,55.813,106.289,56.729,106.289,57.839z"/>
	<path fill="#FFFFFF" d="M107.045,43.267c0.474,0,0.856,0.383,0.856,0.855l0,0c0,0.476-0.384,0.858-0.856,0.858h-6.272
		c-0.473,0-0.855-0.382-0.855-0.858l0,0c0-0.472,0.384-0.855,0.855-0.855H107.045z"/>
	<path fill="#FFFFFF" d="M107.045,64.104c0.474,0,0.856,0.385,0.856,0.857l0,0c0,0.473-0.384,0.855-0.856,0.855h-5.164
		c-0.475,0-0.859-0.383-0.859-0.855l0,0c0-0.475,0.386-0.857,0.859-0.857H107.045z"/>
	<path fill="#FFFFFF" d="M97.995,43.267c0.473,0,0.854,0.383,0.854,0.855l0,0c0,0.476-0.382,0.858-0.854,0.858h0.089
		c-0.475,0-0.857-0.382-0.857-0.858l0,0c0-0.472,0.384-0.855,0.857-0.855H97.995z"/>
	<path fill="#FFFFFF" d="M101.037,61.798c0.472,0,0.854,0.386,0.854,0.856l0,0c0,0.475-0.384,0.859-0.854,0.859h0.089
		c-0.475,0-0.856-0.386-0.856-0.859l0,0c0-0.473,0.383-0.856,0.856-0.856H101.037z"/>
	<path fill="#FFFFFF" d="M101.977,62.746c0.094,1.119,1.549,1.383,1.549,1.383l-0.783,1.314c0,0-2.236-0.691-2.468-2.721
		C100.184,61.936,101.884,61.625,101.977,62.746z"/>
	<path fill="#FFFFFF" d="M97.074,56.623c0.319-0.182,0.729-0.066,0.909,0.254l0.995,1.768c0.183,0.321,0.068,0.729-0.253,0.91l0,0
		c-0.321,0.182-0.729,0.067-0.91-0.255l-0.997-1.765C96.638,57.213,96.753,56.805,97.074,56.623L97.074,56.623z"/>
</g>
<circle fill="#ED2344" cx="103.885" cy="12.322" r="12.322"/>
<circle fill="#FFFFFF" cx="103.885" cy="12.322" r="10.224"/>
<g>
	<path fill="#ED2344" d="M99.75,13.687c-0.689,0-1.25-0.56-1.251-1.25l0,0c0.001-0.69,0.561-1.249,1.251-1.25l9.626,0.001
		c0.688-0.001,1.249,0.559,1.25,1.25l0,0c0,0.69-0.56,1.25-1.25,1.25L99.75,13.687z"/>
	<path fill="#ED2344" d="M105.813,17.25c0.001,0.689-0.559,1.25-1.25,1.25l0,0c-0.69,0-1.25-0.56-1.25-1.25V7.623
		c-0.001-0.689,0.56-1.249,1.25-1.25l0,0c0.69,0,1.249,0.56,1.25,1.25V17.25z"/>
</g>
</svg>
