<?xml version="1.0" encoding="utf-8"?>
<!DOCTYPE svg PUBLIC "-//W3C//DTD SVG 1.1//EN" "http://www.w3.org/Graphics/SVG/1.1/DTD/svg11.dtd">
<svg version="1.1" id="Layer_1" xmlns="http://www.w3.org/2000/svg" xmlns:xlink="http://www.w3.org/1999/xlink" x="0px" y="0px"
	 width="193.333px" height="126.333px" viewBox="0 0 193.333 126.333" enable-background="new 0 0 193.333 126.333"
	 xml:space="preserve">
<g>
	<g>
		<linearGradient id="SVGID_1_" gradientUnits="userSpaceOnUse" x1="123.0615" y1="39.5386" x2="123.0615" y2="132.648">
			<stop  offset="0.0184" style="stop-color:#E61E26"/>
			<stop  offset="0.1595" style="stop-color:#E61E26"/>
			<stop  offset="0.227" style="stop-color:#AC1217"/>
			<stop  offset="0.5828" style="stop-color:#AE271D"/>
			<stop  offset="0.9387" style="stop-color:#E61E26"/>
		</linearGradient>
		<path fill="url(#SVGID_1_)" d="M192.506,110.575c0,5.479-4.441,9.921-9.922,9.921H63.538c-5.48,0-9.922-4.442-9.922-9.921V61.58
			c0-5.479,4.441-9.921,9.922-9.921h119.046c5.48,0,9.922,4.442,9.922,9.921V110.575z"/>
		<radialGradient id="SVGID_2_" cx="80.5811" cy="57.666" r="30.2554" gradientUnits="userSpaceOnUse">
			<stop  offset="0.2129" style="stop-color:#4B0000"/>
			<stop  offset="0.9387" style="stop-color:#AF1318"/>
		</radialGradient>
		<path fill="url(#SVGID_2_)" d="M53.616,61.58v48.996c0,5.479,4.441,9.921,9.922,9.921h21.828
			c13.494-10.646,22.179-27.21,22.179-45.831c0-8.174-1.679-15.949-4.696-23.007H63.538C58.058,51.658,53.616,56.1,53.616,61.58z"/>
		<linearGradient id="SVGID_3_" gradientUnits="userSpaceOnUse" x1="123.0615" y1="51.1006" x2="123.0615" y2="127.3352">
			<stop  offset="0.0184" style="stop-color:#E61E26"/>
			<stop  offset="0.1595" style="stop-color:#E61E26"/>
			<stop  offset="0.227" style="stop-color:#AC1217"/>
			<stop  offset="0.5828" style="stop-color:#AE271D"/>
			<stop  offset="0.9387" style="stop-color:#E61E26"/>
		</linearGradient>
		<path fill="url(#SVGID_3_)" d="M53.616,92.666v17.909c0,5.479,4.441,9.921,9.922,9.921h119.046c5.48,0,9.922-4.442,9.922-9.921
			V92.666H53.616z"/>
		<g>
			<linearGradient id="SVGID_4_" gradientUnits="userSpaceOnUse" x1="2.1226" y1="81.1611" x2="85.6867" y2="81.1611">
				<stop  offset="0.0184" style="stop-color:#B5B5B5"/>
				<stop  offset="0.2699" style="stop-color:#FAFAFA"/>
				<stop  offset="0.5399" style="stop-color:#4F4F4F"/>
				<stop  offset="0.9448" style="stop-color:#C7C7C7"/>
			</linearGradient>
			<path fill="url(#SVGID_4_)" d="M84.608,81.159c0,24.486-18.646,44.333-41.646,44.333c-23.001,0-41.647-19.847-41.647-44.333
				c0-24.481,18.646-44.329,41.647-44.329C65.963,36.83,84.608,56.678,84.608,81.159z"/>
			<circle fill="#D1D2D1" cx="43.009" cy="83.932" r="41.238"/>
			<linearGradient id="SVGID_5_" gradientUnits="userSpaceOnUse" x1="3.271" y1="84.6475" x2="84.5813" y2="84.6475">
				<stop  offset="0.0184" style="stop-color:#E3E3E3"/>
				<stop  offset="0.2699" style="stop-color:#FAFAFA"/>
				<stop  offset="0.5399" style="stop-color:#8F8F8F"/>
				<stop  offset="0.9448" style="stop-color:#FFFFFF"/>
			</linearGradient>
			<circle fill="url(#SVGID_5_)" cx="43.009" cy="84.646" r="40.523"/>
			<linearGradient id="SVGID_6_" gradientUnits="userSpaceOnUse" x1="43.0083" y1="55.8599" x2="43.0083" y2="111.8382">
				<stop  offset="0" style="stop-color:#3E0000"/>
				<stop  offset="0.3248" style="stop-color:#000000"/>
				<stop  offset="0.8466" style="stop-color:#FBBEA7"/>
				<stop  offset="0.9816" style="stop-color:#FEE7DC"/>
			</linearGradient>
			<circle fill="url(#SVGID_6_)" cx="43.009" cy="84.646" r="35.824"/>
			<linearGradient id="SVGID_7_" gradientUnits="userSpaceOnUse" x1="43.0083" y1="44.0742" x2="43.0083" y2="121.713">
				<stop  offset="0" style="stop-color:#C4161C"/>
				<stop  offset="0.411" style="stop-color:#C4161C"/>
				<stop  offset="0.8466" style="stop-color:#FBBEA7"/>
				<stop  offset="0.9816" style="stop-color:#FEE7DC"/>
			</linearGradient>
			<circle fill="url(#SVGID_7_)" cx="43.009" cy="84.646" r="34.394"/>
			<circle fill="#CE242B" cx="43.009" cy="84.646" r="32.991"/>
			<circle fill="#EF4130" cx="43.008" cy="83.445" r="26.18"/>
			<circle fill="#BA141A" cx="43.009" cy="83.946" r="26.08"/>
			<circle fill="#BA141A" cx="43.009" cy="83.946" r="26.08"/>
			<g>
				<linearGradient id="SVGID_8_" gradientUnits="userSpaceOnUse" x1="43.0083" y1="60.3013" x2="43.0083" y2="108.5785">
					<stop  offset="0" style="stop-color:#D1D3D4"/>
					<stop  offset="0.4969" style="stop-color:#BCBEC0"/>
					<stop  offset="0.9816" style="stop-color:#000000"/>
				</linearGradient>
				<circle fill="url(#SVGID_8_)" cx="43.009" cy="83.946" r="25.078"/>
				<linearGradient id="SVGID_9_" gradientUnits="userSpaceOnUse" x1="5.8823" y1="31.6553" x2="82.4776" y2="139.5362">
					<stop  offset="0" style="stop-color:#C4C6C8"/>
					<stop  offset="0.3006" style="stop-color:#D6D7D8"/>
					<stop  offset="0.4847" style="stop-color:#EFEFF0"/>
					<stop  offset="0.9816" style="stop-color:#000000"/>
				</linearGradient>
				<circle fill="url(#SVGID_9_)" cx="43.009" cy="83.946" r="24.076"/>
				
					<linearGradient id="SVGID_10_" gradientUnits="userSpaceOnUse" x1="47.998" y1="53.0049" x2="15.6639" y2="-3.9969" gradientTransform="matrix(0.9451 0.3268 -0.3268 0.9451 24.3104 38.6591)">
					<stop  offset="0" style="stop-color:#D1D3D4"/>
					<stop  offset="0.4969" style="stop-color:#BCBEC0"/>
					<stop  offset="0.9816" style="stop-color:#000000"/>
				</linearGradient>
				<path fill="url(#SVGID_10_)" d="M51.052,61.287c-8.902-3.078-18.379-0.583-24.641,5.633c2.769,0.165,5.574,0.703,8.341,1.66
					c15.39,5.322,23.799,21.394,18.785,35.894c-0.13,0.377-0.272,0.745-0.419,1.112c5.752-2.614,10.466-7.487,12.693-13.931
					C70.122,79.194,63.514,65.597,51.052,61.287z"/>
				<linearGradient id="SVGID_11_" gradientUnits="userSpaceOnUse" x1="28.6001" y1="87.8428" x2="69.6108" y2="75.0475">
					<stop  offset="0" style="stop-color:#C4C6C8"/>
					<stop  offset="0.4847" style="stop-color:#EFEFF0"/>
					<stop  offset="0.9816" style="stop-color:#FFFFFF"/>
				</linearGradient>
				<path fill="url(#SVGID_11_)" d="M57.481,68.166c-0.791-0.042-14.252,0-16.917,0c-10.1,0-12.031,9.396-12.25,11.521
					s-0.326,6.576-0.407,8.812c-0.081,9.333,9.49,9.5,9.49,9.5h11.748c0,0,4.4-0.588,5.585-5.5c0.065-0.359,0.129-0.756,0.185-1.125
					c0.111-0.744-0.399-1.375-1.336-1.375c-3.413,0-11.422,0-12.182,0c-4.056,0-3.5-3.667-3.5-3.667l0.667-6.166
					c0,0,0.349-4.167,5.833-4.167c3.02,0,6.422,0,7.419,0C53.815,75.999,56.794,74.999,57.481,68.166z"/>
				<path fill="#CE242B" d="M55.878,69.749c0,0-12.813,0-14.625,0c-8.75,0-10.875,7.938-11.062,10s-0.438,9.812-0.438,9.812
					s0.25,6.938,7.625,6.938c0.625,0,12.25,0,12.25,0s1.045-0.123,2.073-1.182c1.171-1.206,1.207-1.454,1.803-3.193
					c0.5-1-0.812-1-0.812-1s-9.563,0-12.188,0c-4.625,0-4.125-3.625-4.125-3.625l0.438-8.25c0,0,0.562-4.562,5.5-4.625
					c2.188,0,9.375,0,9.375,0s2-0.125,2.75-1.312S55.878,69.749,55.878,69.749z"/>
			</g>
			<g>
				<path fill="#FFFFFF" d="M22.51,64.698l-2.394-2.194l-0.661,0.72l2.393,2.194C22.064,65.174,22.286,64.936,22.51,64.698z"/>
				<path fill="#FFFFFF" d="M14.736,84.155c0-0.187,0.011-0.372,0.015-0.559l-3.249-0.008L11.5,84.565l3.247,0.008
					C14.745,84.434,14.736,84.296,14.736,84.155z"/>
				<path fill="#FFFFFF" d="M18.004,70.964l-2.891-1.463l-0.441,0.872l2.887,1.46C17.701,71.54,17.852,71.252,18.004,70.964z"/>
				<path fill="#FFFFFF" d="M36.752,56.593l-0.771-3.149l-0.949,0.232l0.77,3.143C36.116,56.737,36.434,56.664,36.752,56.593z"/>
				<path fill="#FFFFFF" d="M15.493,77.669l-3.168-0.689l-0.208,0.955l3.165,0.688C15.345,78.303,15.419,77.985,15.493,77.669z"/>
				<path fill="#FFFFFF" d="M62.878,64.065l2.242-2.345l-0.708-0.675l-2.241,2.345C62.41,63.612,62.646,63.836,62.878,64.065z"/>
				<path fill="#FFFFFF" d="M70.152,76.305l3.099-0.953l-0.289-0.936l-3.096,0.954C69.968,75.68,70.062,75.991,70.152,76.305z"/>
				<path fill="#FFFFFF" d="M67.138,69.445l2.736-1.733l-0.523-0.826l-2.74,1.735C66.79,68.894,66.968,69.166,67.138,69.445z"/>
				<path fill="#FFFFFF" d="M50.207,56.821l0.771-3.143l-0.95-0.232l-0.772,3.148C49.574,56.666,49.892,56.738,50.207,56.821z"/>
				<path fill="#FFFFFF" d="M57.289,59.771l1.591-2.825l-0.853-0.48l-1.587,2.82C56.728,59.441,57.009,59.606,57.289,59.771z"/>
				<path fill="#FFFFFF" d="M43.001,55.891c0.164,0,0.326,0.01,0.489,0.013v-3.248h-0.977v3.248
					C42.676,55.9,42.837,55.891,43.001,55.891z"/>
				<path fill="#FFFFFF" d="M28.518,59.883L26.81,57.13l-0.831,0.515l1.711,2.757C27.964,60.226,28.238,60.05,28.518,59.883z"/>
				<path fill="#FFFFFF" d="M67.998,97.347l2.892,1.463l0.441-0.874l-2.887-1.46C68.302,96.77,68.15,97.059,67.998,97.347z"/>
				<path fill="#FFFFFF" d="M63.492,103.611l2.394,2.195l0.661-0.722l-2.392-2.194C63.938,103.135,63.718,103.374,63.492,103.611z"
					/>
				<path fill="#FFFFFF" d="M57.485,108.427l1.707,2.753l0.831-0.517l-1.71-2.756C58.04,108.084,57.765,108.259,57.485,108.427z"/>
				<path fill="#FFFFFF" d="M49.251,111.718l0.771,3.148l0.949-0.231l-0.77-3.144C49.887,111.573,49.569,111.646,49.251,111.718z"/>
				<path fill="#FFFFFF" d="M15.85,92.006l-3.097,0.953l0.288,0.935l3.095-0.953C16.035,92.631,15.94,92.319,15.85,92.006z"/>
				<path fill="#FFFFFF" d="M71.255,83.735c0.002,0.141,0.011,0.278,0.011,0.42c0,0.187-0.011,0.372-0.015,0.559l3.25,0.008
					l0.001-0.979L71.255,83.735z"/>
				<path fill="#FFFFFF" d="M70.509,90.642l3.168,0.689l0.207-0.957l-3.163-0.688C70.657,90.007,70.583,90.325,70.509,90.642z"/>
				<path fill="#FFFFFF" d="M18.864,98.866l-2.734,1.732l0.523,0.825l2.739-1.735C19.212,99.417,19.034,99.146,18.864,98.866z"/>
				<path fill="#FFFFFF" d="M23.125,104.246l-2.24,2.344l0.707,0.676l2.241-2.345C23.592,104.699,23.356,104.476,23.125,104.246z"/>
				<path fill="#FFFFFF" d="M35.797,111.49l-0.771,3.143l0.949,0.232l0.772-3.148C36.428,111.646,36.111,111.573,35.797,111.49z"/>
				<path fill="#FFFFFF" d="M28.714,108.54l-1.59,2.825l0.852,0.479l1.586-2.818C29.275,108.87,28.995,108.704,28.714,108.54z"/>
				<path fill="#FFFFFF" d="M43.001,112.42c-0.164,0-0.325-0.01-0.488-0.013v3.248h0.977v-3.248
					C43.327,112.41,43.165,112.42,43.001,112.42z"/>
			</g>
			<path fill="#4D4E4E" d="M22.686,45.547c0.589-0.348,1.186-0.684,1.794-1.001V27.669c0,0,0.962-16.171,19.25-16.171
				S61.441,26.61,61.441,26.61v17.886c0.634,0.329,1.255,0.678,1.868,1.04c3.747,1.985,7.168,4.5,10.164,7.449V27.848
				c0,0-0.098-25.975-28.877-27.034c-0.411,0-0.665,0-0.826,0c-0.017,0-0.09,0-0.232,0c-0.094,0-0.213,0-0.386,0
				c-30.513,0-30.608,27.034-30.608,27.034v25.137C15.534,50.041,18.948,47.53,22.686,45.547z"/>
			<path fill="#B3B4B3" d="M23.165,45.302V26.29c0,0,1.254-16.833,20.54-16.833c19.285,0,18.814,15.118,18.814,15.118v20.471
				c3.42,1.722,6.58,3.963,9.408,6.489V24.731c0,0-3.137-23.067-28.222-23.067c-28.692,0-29.477,24.313-29.477,24.313v25.438
				C16.928,49.024,19.928,46.967,23.165,45.302z"/>
			<path fill="#E6E6E5" d="M16.579,49.328V26.437c0,0,1.255-23.989,26.498-23.989s26.184,22.578,26.184,22.578v24.146l-4.077-2.656
				V25.025c0,0-2.038-18.031-22.264-17.874C22.381,7.311,21.126,28.945,21.126,28.945v17.09L16.579,49.328z"/>
			<linearGradient id="SVGID_12_" gradientUnits="userSpaceOnUse" x1="42.9204" y1="35.9121" x2="42.9204" y2="9.4774">
				<stop  offset="0.0184" style="stop-color:#B5B5B5"/>
				<stop  offset="0.6748" style="stop-color:#FAFAFA"/>
			</linearGradient>
			<path fill="url(#SVGID_12_)" d="M16.579,49.328V26.437c0,0,1.255-23.989,26.498-23.989s26.184,22.578,26.184,22.578v24.146
				l-4.077-2.688V25.025c0,0-2.038-18.031-22.264-17.874C22.381,7.311,21.126,28.945,21.126,28.945v17.09L16.579,49.328z"/>
			<linearGradient id="SVGID_13_" gradientUnits="userSpaceOnUse" x1="18.2788" y1="61.8354" x2="17.8934" y2="39.0729">
				<stop  offset="0.0184" style="stop-color:#B5B5B5"/>
				<stop  offset="0.2699" style="stop-color:#FAFAFA"/>
				<stop  offset="0.5399" style="stop-color:#4F4F4F"/>
				<stop  offset="0.9448" style="stop-color:#C7C7C7"/>
			</linearGradient>
			<polygon fill="url(#SVGID_13_)" points="19.211,47.166 19.211,28.999 16.579,49.328 			"/>
			<linearGradient id="SVGID_14_" gradientUnits="userSpaceOnUse" x1="23.3423" y1="98.2432" x2="21.7926" y2="6.7253">
				<stop  offset="0.0184" style="stop-color:#B5B5B5"/>
				<stop  offset="0.2699" style="stop-color:#FAFAFA"/>
				<stop  offset="0.5399" style="stop-color:#2B2B2B"/>
				<stop  offset="0.9448" style="stop-color:#C7C7C7"/>
			</linearGradient>
			<path fill="url(#SVGID_14_)" d="M15.638,49.959c0,0,0-15.308,0-23.776c0-13.57,13.028-20.193,13.028-20.193
				s-11.617,7.491-11.617,19.867c0,6.405,0,23.22,0,23.22L15.638,49.959z"/>
			<path fill="#7D7D7D" d="M59.224,6.717c0,0,10.287,7.126,10.86,18.534c0.237,4.901,0,24.616,0,24.616l-1.304-0.869
				c0,0,0-19.369,0-23.973C68.78,14.384,59.224,6.717,59.224,6.717z"/>
			<path fill="#4D4E4E" d="M12.544,52.984c0,0,5.683-5.498,11.936-8.439c-0.113-0.321-8.909,4.739-9.642,5.435
				C13.56,51.195,12.544,52.984,12.544,52.984z"/>
			<path fill="#4D4E4E" d="M73.466,52.984c0,0-5.377-5.31-11.629-8.251c0.112-0.321,8.418,4.355,9.234,4.953
				C72.673,50.861,73.466,52.984,73.466,52.984z"/>
			<path fill="#7D7D7D" d="M62.522,44.556c0,0,3.768,1.63,8.445,5.08c-2.752-1.735-8.487-4.678-8.487-4.678L62.522,44.556z"/>
		</g>
	</g>
	<g>
		<linearGradient id="SVGID_15_" gradientUnits="userSpaceOnUse" x1="91.1123" y1="98.4824" x2="103.7793" y2="98.4824">
			<stop  offset="0" style="stop-color:#C4C6C8"/>
			<stop  offset="0.4417" style="stop-color:#D6D7D8"/>
			<stop  offset="0.7669" style="stop-color:#EFEFF0"/>
		</linearGradient>
		<path fill="url(#SVGID_15_)" d="M103.432,93.56l-3.14,0.857c0,0-1.326-4.077-4.088-2.12c-1.93,1.368,0.363,3.454,1.434,3.787
			c7.32,1.833,6.255,6.286,5.83,7.83c-1.718,4.628-6.232,3.813-7.309,3.741c-3.867-0.322-5.047-4.438-5.047-4.438L94.157,102
			c0,0,2.035,4.429,4.96,2.61c3.383-2.86-1.74-4.438-1.74-4.438s-5.685-1.396-5.698-6.122c-0.006-2.351,2.176-5.754,8.285-4.613
			C102.971,90.07,103.432,93.56,103.432,93.56z"/>
		<linearGradient id="SVGID_16_" gradientUnits="userSpaceOnUse" x1="112.1387" y1="106.5264" x2="112.1387" y2="97.45">
			<stop  offset="0" style="stop-color:#C4C6C8"/>
			<stop  offset="0.4417" style="stop-color:#D6D7D8"/>
			<stop  offset="0.7669" style="stop-color:#EFEFF0"/>
		</linearGradient>
		<polygon fill="url(#SVGID_16_)" points="117.509,92.753 117.509,89.784 109.999,89.784 108.864,89.784 106.769,89.784 
			106.769,107.685 108.864,107.685 109.999,107.685 117.509,107.685 117.509,104.716 109.999,104.716 109.999,100.001 
			115.589,100.001 115.589,97.032 109.999,97.032 109.999,92.753 		"/>
		<linearGradient id="SVGID_17_" gradientUnits="userSpaceOnUse" x1="171.7764" y1="105.374" x2="171.7764" y2="84.7759">
			<stop  offset="0" style="stop-color:#C4C6C8"/>
			<stop  offset="0.4417" style="stop-color:#D6D7D8"/>
			<stop  offset="0.7669" style="stop-color:#EFEFF0"/>
		</linearGradient>
		<polygon fill="url(#SVGID_17_)" points="177.146,92.753 177.146,89.784 169.637,89.784 168.501,89.784 166.405,89.784 
			166.405,107.685 168.501,107.685 169.637,107.685 177.146,107.685 177.146,104.716 169.637,104.716 169.637,100.001 
			175.226,100.001 175.226,97.032 169.637,97.032 169.637,92.753 		"/>
		<linearGradient id="SVGID_18_" gradientUnits="userSpaceOnUse" x1="157.1816" y1="105.9502" x2="157.1816" y2="91.8274">
			<stop  offset="0" style="stop-color:#C4C6C8"/>
			<stop  offset="0.4417" style="stop-color:#D6D7D8"/>
			<stop  offset="0.7669" style="stop-color:#EFEFF0"/>
		</linearGradient>
		<path fill="url(#SVGID_18_)" d="M161.083,99.437c2.944-0.883,4.67-9.652-2.914-9.652c-1.3,0-3.389,0-4.162,0h-0.304h-2.927v17.9
			h3.23v-7.693h2.692l2.856,7.678h3.84l-3-8.068C160.647,99.551,160.882,99.497,161.083,99.437z M158.123,92.753
			c2.405,0,2.913,4.279-0.04,4.279c-2.045,0-3.415,0.021-4.076,0.034v-4.313C154.648,92.753,156.263,92.753,158.123,92.753z"/>
		<linearGradient id="SVGID_19_" gradientUnits="userSpaceOnUse" x1="125.9961" y1="106.5264" x2="125.9961" y2="90.5714">
			<stop  offset="0" style="stop-color:#C4C6C8"/>
			<stop  offset="0.4417" style="stop-color:#D6D7D8"/>
			<stop  offset="0.7669" style="stop-color:#EFEFF0"/>
		</linearGradient>
		<path fill="url(#SVGID_19_)" d="M132.583,96.166h-3.795c0,0,0.164-2.665-1.313-3.732c-1.013-0.657-2.392-0.518-3.225,0.315
			s-1.417,2.666-1.333,6.583c0.083,3.917,1.416,4.834,1.416,4.834s2,1.084,3.334,0c1.333-1.084,1.583-3.167,1.583-3.167h3.25
			c0,0-0.583,4.667-3.333,6.167s-5.917,0.521-7.167-0.667s-2.501-3.833-2.583-7.333c-0.084-3.5,0.341-7.444,3.379-9.415
			c2.221-1.44,5.274-1.504,7.607,0.329S132.583,96.166,132.583,96.166z"/>
		<linearGradient id="SVGID_20_" gradientUnits="userSpaceOnUse" x1="141.4131" y1="106.958" x2="141.4131" y2="95.2875">
			<stop  offset="0" style="stop-color:#C4C6C8"/>
			<stop  offset="0.4417" style="stop-color:#D6D7D8"/>
			<stop  offset="0.7669" style="stop-color:#EFEFF0"/>
		</linearGradient>
		<path fill="url(#SVGID_20_)" d="M143.976,89.624v12.75c0,1.415-1.147,2.562-2.562,2.562s-2.562-1.147-2.562-2.562v-12.75h-3.639
			v12.393c0,3.305,2.777,5.982,6.201,5.982s6.2-2.678,6.2-5.982V89.624H143.976z"/>
	</g>
	<g>
		<path fill="#FFFFFF" d="M184.119,70.249c-3.239-4.346-9.524-2.492-11.505,0.192c-1.407,1.906-3.261,5.695-0.32,9.14
			c1.662,1.854,6.584,3.26,10.355-0.128C186.961,75.579,185.014,71.272,184.119,70.249z M182.304,76.826
			c-1.451,2.762-4.457,4.04-6.715,2.854c-2.258-1.185-2.912-4.386-1.461-7.146c1.449-2.761,4.455-4.039,6.713-2.854
			C183.099,70.865,183.753,74.066,182.304,76.826z"/>
		<path fill="#FFFFFF" d="M151.919,70.249c-3.239-4.346-9.523-2.492-11.506,0.192c-1.406,1.906-3.26,5.695-0.319,9.14
			c1.662,1.854,6.583,3.26,10.354-0.128C154.761,75.579,152.813,71.272,151.919,70.249z M150.103,76.826
			c-1.449,2.762-4.456,4.04-6.714,2.854c-2.258-1.185-2.911-4.386-1.462-7.146c1.45-2.761,4.457-4.039,6.714-2.854
			C150.898,70.865,151.552,74.066,150.103,76.826z"/>
		<path fill="#FFFFFF" d="M115.36,70.249c-3.238-4.346-9.523-2.492-11.505,0.192c-1.407,1.906-3.261,5.695-0.319,9.14
			c1.662,1.854,6.584,3.26,10.354-0.128C118.202,75.579,116.255,71.272,115.36,70.249z M113.545,76.826
			c-1.45,2.762-4.456,4.04-6.714,2.854c-2.258-1.185-2.912-4.386-1.461-7.146c1.449-2.761,4.455-4.039,6.713-2.854
			C114.341,70.865,114.995,74.066,113.545,76.826z"/>
		<path fill="#FFFFFF" d="M162.642,68.268l-5.816-0.063l-0.176,1.598h5.608c0,0,3.963-0.319,3.644,4.41
			c-0.575,5.113-4.41,4.858-4.41,4.858h-3.068l0.959-7.479h-2.931l-0.989,8.97h5.795c0,0,7.547,0.236,7.625-7.52
			C168.968,68.354,162.642,68.268,162.642,68.268z"/>
		<path fill="#FFFFFF" d="M119.315,80.562l1.619-12.549h2.109l4.326,7.023l6.284-6.769h2.109l-1.31,11.697
			c0,0-0.529,0.895-1.566,0.895c-0.502,0-1.279,0-1.279,0l1.215-8.117l-5.625,6.392l-4.602-7.989l-1.278,9.331L119.315,80.562z"/>
		<path fill="#FFFFFF" d="M94.792,78.966c0,0-3.963,0.32-3.645-4.41c0.576-5.113,4.411-4.857,4.411-4.857h3.067v0.009
			c0.106,0,0.233,0,0.395,0c0.959,0,1.554-1.063,1.759-1.501h-4.987c0,0-7.547-0.235-7.625,7.521
			c-0.086,4.687,6.24,4.773,6.24,4.773l3.928,0.006c0,0,1.135-0.205,1.311-1.54C99.533,78.974,94.792,78.966,94.792,78.966z"/>
	</g>
</g>
</svg>
