<?xml version="1.0" encoding="utf-8"?>
<!-- Generator: Adobe Illustrator 15.0.0, SVG Export Plug-In . SVG Version: 6.00 Build 0)  -->
<!DOCTYPE svg PUBLIC "-//W3C//DTD SVG 1.1//EN" "http://www.w3.org/Graphics/SVG/1.1/DTD/svg11.dtd">
<svg version="1.1" id="Layer_1" xmlns="http://www.w3.org/2000/svg" xmlns:xlink="http://www.w3.org/1999/xlink" x="0px" y="0px"
	 width="166.667px" height="35px" viewBox="0 0 166.667 35" enable-background="new 0 0 166.667 35" xml:space="preserve">
<g>
	<path fill="#6374E4" d="M164.462,29.588c0,2.023-1.641,3.664-3.664,3.664H5.417c-2.024,0-3.666-1.641-3.666-3.664V5.412
		c0-2.023,1.642-3.664,3.666-3.664h155.381c2.023,0,3.664,1.641,3.664,3.664V29.588z"/>
</g>
<path fill="#FFFFFF" d="M13.077,17.501c-0.002,0.29,0.105,0.58,0.326,0.802l8.016,8.016c0.438,0.438,1.146,0.438,1.585,0
	c0.438-0.438,0.438-1.147,0-1.586L15.772,17.5l7.231-7.232c0.438-0.438,0.437-1.147,0-1.585c-0.438-0.438-1.147-0.438-1.585,0
	l-8.016,8.015C13.182,16.919,13.074,17.211,13.077,17.501z"/>
<g enable-background="new    ">
	<path fill="#FFFFFF" d="M40.339,19.616l1.982,0.628c-0.304,1.104-0.809,1.926-1.516,2.462s-1.604,0.806-2.69,0.806
		c-1.344,0-2.449-0.459-3.314-1.379c-0.866-0.918-1.298-2.174-1.298-3.767c0-1.686,0.435-2.994,1.305-3.926
		c0.87-0.933,2.014-1.398,3.432-1.398c1.238,0,2.244,0.365,3.018,1.098c0.46,0.433,0.806,1.054,1.036,1.864l-2.023,0.483
		c-0.12-0.524-0.37-0.939-0.75-1.243c-0.38-0.304-0.841-0.455-1.384-0.455c-0.75,0-1.359,0.269-1.827,0.808
		c-0.468,0.539-0.701,1.411-0.701,2.617c0,1.28,0.23,2.19,0.691,2.733c0.46,0.545,1.059,0.816,1.795,0.816
		c0.543,0,1.01-0.174,1.402-0.52C39.888,20.9,40.168,20.357,40.339,19.616z"/>
	<path fill="#FFFFFF" d="M43.661,18.338c0-1.031,0.154-1.896,0.462-2.597c0.23-0.515,0.544-0.978,0.943-1.388
		c0.398-0.409,0.834-0.714,1.309-0.911c0.63-0.268,1.358-0.4,2.182-0.4c1.492,0,2.685,0.462,3.581,1.388
		c0.896,0.925,1.343,2.212,1.343,3.86c0,1.634-0.444,2.913-1.333,3.836c-0.889,0.923-2.076,1.386-3.563,1.386
		c-1.506,0-2.703-0.459-3.591-1.379C44.105,21.215,43.661,19.949,43.661,18.338z M45.767,18.27c0,1.146,0.265,2.016,0.794,2.606
		c0.529,0.593,1.202,0.888,2.016,0.888c0.815,0,1.484-0.293,2.006-0.881c0.522-0.587,0.784-1.468,0.784-2.642
		c0-1.16-0.254-2.025-0.763-2.597c-0.509-0.57-1.184-0.855-2.027-0.855c-0.842,0-1.521,0.289-2.037,0.866
		C46.024,16.233,45.767,17.104,45.767,18.27z"/>
	<path fill="#FFFFFF" d="M55.048,23.338V13.214h3.059l1.837,6.906l1.815-6.906h3.066v10.124h-1.898v-7.969l-2.01,7.969h-1.969
		l-2.002-7.969v7.969H55.048z"/>
	<path fill="#FFFFFF" d="M66.856,23.338V13.214h3.28c1.242,0,2.053,0.051,2.431,0.152c0.58,0.151,1.065,0.482,1.458,0.991
		c0.391,0.509,0.587,1.166,0.587,1.972c0,0.621-0.112,1.144-0.338,1.567c-0.226,0.424-0.512,0.756-0.86,0.999
		c-0.348,0.24-0.701,0.4-1.06,0.479c-0.487,0.098-1.194,0.146-2.12,0.146h-1.333v3.817L66.856,23.338L66.856,23.338z M68.901,14.927
		V17.8h1.119c0.806,0,1.344-0.053,1.616-0.159c0.271-0.105,0.484-0.271,0.639-0.497c0.155-0.226,0.23-0.488,0.23-0.787
		c0-0.368-0.107-0.672-0.324-0.912c-0.217-0.239-0.49-0.389-0.822-0.448c-0.244-0.046-0.734-0.069-1.471-0.069L68.901,14.927
		L68.901,14.927z"/>
	<path fill="#FFFFFF" d="M76.296,23.338V13.214h4.302c1.082,0,1.868,0.091,2.358,0.273c0.489,0.182,0.883,0.505,1.178,0.97
		s0.441,0.997,0.441,1.596c0,0.76-0.224,1.387-0.671,1.882c-0.446,0.495-1.114,0.807-2.002,0.936
		c0.442,0.258,0.808,0.541,1.095,0.85c0.289,0.309,0.676,0.855,1.164,1.645l1.236,1.975h-2.445l-1.478-2.203
		c-0.524-0.787-0.884-1.283-1.078-1.488c-0.192-0.203-0.397-0.344-0.614-0.42s-0.56-0.115-1.029-0.115h-0.414v4.228h-2.043V23.338z
		 M78.341,17.496h1.512c0.98,0,1.593-0.042,1.837-0.125s0.435-0.226,0.573-0.428c0.138-0.203,0.207-0.456,0.207-0.76
		c0-0.341-0.092-0.615-0.273-0.825c-0.182-0.209-0.438-0.342-0.77-0.397c-0.166-0.022-0.663-0.034-1.492-0.034h-1.596v2.569H78.341z
		"/>
	<path fill="#FFFFFF" d="M95.632,23.338H93.41l-0.885-2.3h-4.047l-0.836,2.3h-2.168l3.943-10.124h2.16L95.632,23.338z
		 M91.869,19.333l-1.395-3.757l-1.367,3.757H91.869z"/>
	<path fill="#FFFFFF" d="M96.724,23.338V13.214h4.302c1.082,0,1.869,0.091,2.358,0.273c0.49,0.182,0.884,0.505,1.178,0.97
		c0.295,0.465,0.441,0.997,0.441,1.596c0,0.76-0.224,1.387-0.67,1.882c-0.446,0.495-1.113,0.807-2.002,0.936
		c0.441,0.258,0.808,0.541,1.094,0.85c0.287,0.309,0.677,0.855,1.164,1.645l1.236,1.975h-2.445l-1.478-2.203
		c-0.524-0.787-0.884-1.283-1.077-1.488c-0.193-0.203-0.397-0.344-0.615-0.42c-0.217-0.076-0.559-0.115-1.028-0.115h-0.414v4.228
		h-2.044V23.338z M98.768,17.496h1.513c0.98,0,1.594-0.042,1.838-0.125c0.243-0.083,0.436-0.226,0.572-0.428
		c0.139-0.203,0.207-0.456,0.207-0.76c0-0.341-0.091-0.615-0.271-0.825c-0.183-0.209-0.439-0.342-0.771-0.397
		c-0.166-0.022-0.664-0.034-1.492-0.034h-1.596V17.496z"/>
	<path fill="#FFFFFF" d="M110.832,23.338V13.214h3.06l1.838,6.906l1.815-6.906h3.065v10.124h-1.899v-7.969l-2.01,7.969h-1.968
		l-2.003-7.969v7.969H110.832z"/>
	<path fill="#FFFFFF" d="M131.77,23.338h-2.224l-0.885-2.3h-4.047l-0.835,2.3h-2.169l3.943-10.124h2.162L131.77,23.338z
		 M128.005,19.333l-1.395-3.757l-1.367,3.757H128.005z"/>
	<path fill="#FFFFFF" d="M132.792,23.338V13.214h2.043v10.124H132.792z"/>
	<path fill="#FFFFFF" d="M136.266,20.044l1.987-0.192c0.121,0.668,0.363,1.157,0.729,1.471c0.366,0.312,0.86,0.47,1.481,0.47
		c0.658,0,1.154-0.14,1.488-0.418s0.5-0.604,0.5-0.978c0-0.238-0.07-0.442-0.211-0.61s-0.386-0.313-0.734-0.438
		c-0.239-0.082-0.785-0.229-1.637-0.441c-1.097-0.271-1.865-0.605-2.308-1.001c-0.621-0.558-0.933-1.236-0.933-2.037
		c0-0.516,0.146-0.998,0.438-1.447c0.292-0.448,0.714-0.79,1.265-1.025c0.549-0.234,1.213-0.352,1.992-0.352
		c1.271,0,2.227,0.278,2.868,0.835c0.644,0.558,0.979,1.301,1.013,2.23l-2.045,0.09c-0.088-0.521-0.274-0.895-0.562-1.122
		c-0.287-0.228-0.719-0.342-1.295-0.342c-0.594,0-1.059,0.122-1.395,0.366c-0.218,0.156-0.324,0.366-0.324,0.628
		c0,0.239,0.102,0.444,0.304,0.615c0.258,0.216,0.884,0.441,1.878,0.677c0.994,0.234,1.73,0.478,2.207,0.729s0.85,0.594,1.117,1.027
		c0.271,0.437,0.404,0.974,0.404,1.613c0,0.58-0.16,1.123-0.482,1.629c-0.322,0.508-0.778,0.883-1.367,1.131
		c-0.59,0.246-1.324,0.369-2.203,0.369c-1.279,0-2.263-0.297-2.949-0.889C136.809,22.038,136.398,21.178,136.266,20.044z"/>
</g>
</svg>
