<?xml version="1.0" encoding="utf-8"?>
<!-- Generator: Adobe Illustrator 15.0.0, SVG Export Plug-In . SVG Version: 6.00 Build 0)  -->
<!DOCTYPE svg PUBLIC "-//W3C//DTD SVG 1.1//EN" "http://www.w3.org/Graphics/SVG/1.1/DTD/svg11.dtd">
<svg version="1.1" id="Layer_1" xmlns="http://www.w3.org/2000/svg" xmlns:xlink="http://www.w3.org/1999/xlink" x="0px" y="0px"
	 width="248px" height="36px" viewBox="0 0 248 36" enable-background="new 0 0 248 36" xml:space="preserve">
<g>
	<g>
		<path fill="#EE2D31" d="M246,29.998c0,2.672-2.164,4.836-4.836,4.836H6.834C4.165,34.832,2,32.668,2,29.998V6
			c0-2.67,2.165-4.834,4.834-4.834h234.33C243.836,1.166,246,3.332,246,6V29.998z"/>
	</g>
	<g enable-background="new    ">
		<path fill="#FFFFFF" d="M22.557,23.291l-3.674-10.279h2.25l2.602,7.607l2.518-7.607h2.202l-3.681,10.279H22.557z"/>
		<path fill="#FFFFFF" d="M29.513,23.291V13.012h7.622v1.738h-5.547v2.279h5.161v1.732h-5.161v2.797h5.743v1.731L29.513,23.291
			L29.513,23.291z"/>
		<path fill="#FFFFFF" d="M42.8,13.012h2.069v6.508c0,0.851-0.075,1.504-0.225,1.963c-0.201,0.599-0.565,1.078-1.094,1.44
			c-0.529,0.362-1.225,0.544-2.089,0.544c-1.015,0-1.795-0.283-2.342-0.854c-0.547-0.568-0.823-1.4-0.827-2.5l1.956-0.223
			c0.023,0.588,0.11,1.004,0.26,1.248c0.224,0.368,0.565,0.553,1.023,0.553c0.463,0,0.79-0.131,0.982-0.396
			c0.191-0.265,0.287-0.812,0.287-1.646V13.012z"/>
		<path fill="#FFFFFF" d="M56.348,23.291H54.09l-0.897-2.335h-4.109l-0.849,2.335h-2.202l4.004-10.279h2.195L56.348,23.291z
			 M52.526,19.225l-1.417-3.814l-1.388,3.814H52.526z"/>
		<path fill="#FFFFFF" d="M60.927,23.291V13.012h2.02l4.207,6.864v-6.864h1.928v10.279h-2.083l-4.144-6.703v6.703H60.927z"/>
		<path fill="#FFFFFF" d="M70.855,18.214c0-1.047,0.157-1.926,0.47-2.636c0.234-0.523,0.553-0.993,0.957-1.41
			c0.404-0.416,0.848-0.725,1.329-0.925c0.64-0.271,1.379-0.407,2.216-0.407c1.515,0,2.727,0.471,3.636,1.409
			c0.909,0.94,1.364,2.247,1.364,3.92c0,1.66-0.451,2.958-1.354,3.896c-0.903,0.938-2.108,1.406-3.618,1.406
			c-1.528,0-2.744-0.467-3.646-1.398C71.307,21.135,70.855,19.852,70.855,18.214z M72.994,18.145c0,1.164,0.269,2.047,0.807,2.646
			c0.537,0.602,1.22,0.9,2.047,0.9c0.827,0,1.506-0.297,2.037-0.895c0.53-0.596,0.796-1.488,0.796-2.682
			c0-1.178-0.259-2.057-0.775-2.637c-0.517-0.58-1.203-0.869-2.058-0.869s-1.545,0.293-2.069,0.879
			C73.256,16.077,72.994,16.962,72.994,18.145z"/>
		<path fill="#FFFFFF" d="M81.921,19.945l2.02-0.195c0.121,0.678,0.368,1.176,0.74,1.493s0.873,0.478,1.504,0.478
			c0.668,0,1.172-0.142,1.511-0.425c0.339-0.282,0.508-0.612,0.508-0.991c0-0.244-0.071-0.449-0.214-0.621
			c-0.143-0.17-0.392-0.318-0.747-0.445c-0.243-0.084-0.797-0.233-1.662-0.448c-1.113-0.274-1.893-0.614-2.342-1.017
			c-0.631-0.565-0.946-1.256-0.946-2.068c0-0.523,0.148-1.014,0.445-1.469c0.297-0.457,0.725-0.805,1.283-1.043
			c0.558-0.237,1.233-0.356,2.023-0.356c1.29,0,2.261,0.283,2.914,0.849c0.652,0.565,0.994,1.32,1.027,2.266l-2.075,0.092
			c-0.089-0.527-0.28-0.908-0.572-1.141c-0.292-0.231-0.73-0.348-1.314-0.348c-0.603,0-1.075,0.125-1.417,0.373
			c-0.22,0.158-0.33,0.37-0.33,0.637c0,0.244,0.103,0.451,0.309,0.625c0.262,0.22,0.897,0.449,1.907,0.688
			c1.01,0.239,1.756,0.484,2.24,0.74c0.484,0.255,0.862,0.604,1.136,1.044c0.273,0.442,0.411,0.987,0.411,1.638
			c0,0.59-0.164,1.141-0.491,1.655s-0.79,0.896-1.388,1.146c-0.599,0.25-1.344,0.375-2.237,0.375c-1.3,0-2.298-0.301-2.994-0.9
			C82.472,21.973,82.056,21.098,81.921,19.945z"/>
		<path fill="#FFFFFF" d="M91.499,19.945l2.02-0.195c0.121,0.678,0.368,1.176,0.74,1.493c0.372,0.317,0.873,0.478,1.504,0.478
			c0.668,0,1.172-0.142,1.511-0.425c0.339-0.282,0.508-0.612,0.508-0.991c0-0.244-0.071-0.449-0.214-0.621
			c-0.143-0.17-0.392-0.318-0.747-0.445c-0.243-0.084-0.797-0.233-1.662-0.448c-1.113-0.274-1.893-0.614-2.342-1.017
			c-0.631-0.565-0.946-1.256-0.946-2.068c0-0.523,0.148-1.014,0.445-1.469c0.297-0.457,0.725-0.805,1.283-1.043
			c0.558-0.237,1.233-0.356,2.023-0.356c1.29,0,2.261,0.283,2.914,0.849c0.652,0.565,0.994,1.32,1.027,2.266l-2.075,0.092
			c-0.089-0.527-0.28-0.908-0.572-1.141c-0.292-0.231-0.73-0.348-1.314-0.348c-0.603,0-1.075,0.125-1.417,0.373
			c-0.22,0.158-0.33,0.37-0.33,0.637c0,0.244,0.103,0.451,0.309,0.625c0.262,0.22,0.897,0.449,1.907,0.688
			c1.01,0.239,1.756,0.484,2.24,0.74c0.484,0.255,0.862,0.604,1.136,1.044c0.273,0.442,0.411,0.987,0.411,1.638
			c0,0.59-0.164,1.141-0.491,1.655c-0.327,0.515-0.79,0.896-1.388,1.146c-0.599,0.25-1.344,0.375-2.237,0.375
			c-1.3,0-2.298-0.301-2.994-0.9C92.05,21.973,91.634,21.098,91.499,19.945z"/>
		<path fill="#FFFFFF" d="M110.873,23.291h-2.258l-0.897-2.335h-4.109l-0.849,2.335h-2.202l4.004-10.279h2.195L110.873,23.291z
			 M107.052,19.225l-1.417-3.814l-1.388,3.814H107.052z"/>
		<path fill="#FFFFFF" d="M111.448,19.945l2.02-0.195c0.121,0.678,0.368,1.176,0.74,1.493s0.873,0.478,1.504,0.478
			c0.668,0,1.172-0.142,1.511-0.425c0.339-0.282,0.508-0.612,0.508-0.991c0-0.244-0.071-0.449-0.214-0.621
			c-0.143-0.17-0.392-0.318-0.747-0.445c-0.243-0.084-0.797-0.233-1.662-0.448c-1.113-0.274-1.893-0.614-2.342-1.017
			c-0.631-0.565-0.946-1.256-0.946-2.068c0-0.523,0.148-1.014,0.445-1.469c0.297-0.457,0.725-0.805,1.283-1.043
			c0.558-0.237,1.233-0.356,2.023-0.356c1.29,0,2.261,0.283,2.914,0.849c0.652,0.565,0.994,1.32,1.027,2.266l-2.075,0.092
			c-0.089-0.527-0.28-0.908-0.572-1.141c-0.292-0.231-0.73-0.348-1.314-0.348c-0.603,0-1.075,0.125-1.417,0.373
			c-0.22,0.158-0.33,0.37-0.33,0.637c0,0.244,0.103,0.451,0.309,0.625c0.262,0.22,0.897,0.449,1.907,0.688
			c1.01,0.239,1.756,0.484,2.24,0.74c0.484,0.255,0.862,0.604,1.136,1.044c0.273,0.442,0.411,0.987,0.411,1.638
			c0,0.59-0.164,1.141-0.491,1.655s-0.79,0.896-1.388,1.146c-0.599,0.25-1.344,0.375-2.237,0.375c-1.3,0-2.298-0.301-2.994-0.9
			C112,21.973,111.583,21.098,111.448,19.945z"/>
		<path fill="#FFFFFF" d="M125.543,23.291V13.012h3.33c1.262,0,2.085,0.051,2.469,0.154c0.588,0.154,1.082,0.488,1.479,1.006
			c0.398,0.518,0.598,1.184,0.598,2.002c0,0.631-0.113,1.162-0.344,1.592s-0.521,0.769-0.873,1.014
			c-0.354,0.246-0.713,0.408-1.076,0.488c-0.495,0.098-1.214,0.146-2.152,0.146h-1.354v3.878H125.543z M127.617,14.75v2.917h1.137
			c0.818,0,1.365-0.054,1.641-0.161c0.276-0.107,0.492-0.275,0.648-0.505s0.234-0.495,0.234-0.799c0-0.374-0.109-0.683-0.328-0.927
			c-0.221-0.242-0.498-0.396-0.836-0.455c-0.247-0.047-0.744-0.07-1.492-0.07H127.617z"/>
		<path fill="#FFFFFF" d="M135.127,23.291V13.012h4.369c1.098,0,1.896,0.092,2.395,0.276c0.5,0.185,0.896,0.515,1.195,0.985
			c0.299,0.473,0.449,1.013,0.449,1.619c0,0.771-0.227,1.408-0.682,1.91c-0.453,0.504-1.131,0.819-2.033,0.95
			c0.449,0.263,0.82,0.55,1.111,0.863c0.293,0.312,0.688,0.868,1.182,1.668l1.256,2.006h-2.482l-1.5-2.237
			c-0.533-0.799-0.897-1.303-1.094-1.511c-0.197-0.208-0.404-0.351-0.625-0.429c-0.219-0.076-0.566-0.114-1.045-0.114h-0.42v4.291
			L135.127,23.291L135.127,23.291z M137.203,17.357h1.535c0.996,0,1.617-0.041,1.865-0.125s0.44-0.229,0.582-0.436
			c0.141-0.206,0.211-0.463,0.211-0.771c0-0.346-0.094-0.625-0.277-0.838s-0.445-0.347-0.781-0.402
			c-0.169-0.023-0.674-0.035-1.516-0.035h-1.619V17.357z"/>
		<path fill="#FFFFFF" d="M145.07,18.214c0-1.047,0.156-1.926,0.471-2.636c0.232-0.523,0.553-0.993,0.957-1.41
			c0.404-0.416,0.848-0.725,1.328-0.925c0.641-0.271,1.379-0.407,2.217-0.407c1.514,0,2.727,0.471,3.635,1.409
			c0.91,0.94,1.364,2.247,1.364,3.92c0,1.66-0.451,2.958-1.354,3.896c-0.902,0.938-2.107,1.406-3.617,1.406
			c-1.528,0-2.744-0.467-3.646-1.398S145.07,19.852,145.07,18.214z M147.209,18.145c0,1.164,0.27,2.047,0.807,2.646
			s1.221,0.9,2.049,0.9c0.826,0,1.506-0.297,2.037-0.895c0.529-0.596,0.795-1.488,0.795-2.682c0-1.178-0.258-2.057-0.774-2.637
			s-1.202-0.869-2.058-0.869c-0.856,0-1.545,0.293-2.069,0.879C147.471,16.077,147.209,16.962,147.209,18.145z"/>
		<path fill="#FFFFFF" d="M156.633,23.291V13.012h3.107l1.865,7.012l1.844-7.012h3.113v10.279h-1.929v-8.092l-2.041,8.092h-1.997
			l-2.035-8.092v8.092H156.633z"/>
		<path fill="#FFFFFF" d="M168.203,18.214c0-1.047,0.156-1.926,0.47-2.636c0.233-0.523,0.554-0.993,0.957-1.41
			c0.404-0.416,0.849-0.725,1.329-0.925c0.641-0.271,1.379-0.407,2.216-0.407c1.515,0,2.728,0.471,3.636,1.409
			c0.91,0.94,1.363,2.247,1.363,3.92c0,1.66-0.451,2.958-1.354,3.896c-0.903,0.938-2.107,1.406-3.617,1.406
			c-1.529,0-2.744-0.467-3.646-1.398S168.203,19.852,168.203,18.214z M170.342,18.145c0,1.164,0.27,2.047,0.807,2.646
			c0.537,0.602,1.221,0.9,2.047,0.9c0.828,0,1.508-0.297,2.037-0.895c0.531-0.596,0.797-1.488,0.797-2.682
			c0-1.178-0.26-2.057-0.774-2.637c-0.517-0.58-1.202-0.869-2.06-0.869c-0.855,0-1.545,0.293-2.067,0.879
			C170.605,16.076,170.342,16.962,170.342,18.145z"/>
		<path fill="#FFFFFF" d="M186.371,19.512l2.013,0.639c-0.308,1.121-0.821,1.955-1.538,2.5c-0.719,0.545-1.629,0.816-2.732,0.816
			c-1.364,0-2.485-0.467-3.364-1.398s-1.317-2.209-1.317-3.825c0-1.712,0.44-3.039,1.324-3.986c0.885-0.946,2.045-1.42,3.485-1.42
			c1.258,0,2.278,0.372,3.063,1.115c0.467,0.438,0.817,1.069,1.051,1.894l-2.055,0.49c-0.121-0.533-0.375-0.953-0.76-1.262
			c-0.387-0.309-0.855-0.463-1.406-0.463c-0.762,0-1.381,0.272-1.854,0.82c-0.475,0.547-0.713,1.432-0.713,2.656
			c0,1.301,0.234,2.227,0.701,2.777s1.076,0.826,1.823,0.826c0.552,0,1.026-0.176,1.423-0.525
			C185.914,20.814,186.199,20.266,186.371,19.512z M182.01,26.117v-0.828c0.482,0.052,0.924,0.077,1.326,0.077
			c0.416,0,0.725-0.074,0.926-0.224c0.153-0.113,0.23-0.259,0.23-0.437c0-0.158-0.072-0.297-0.217-0.413
			c-0.146-0.117-0.369-0.176-0.674-0.176c-0.299,0-0.605,0.047-0.918,0.141l0.182-0.693c0.365-0.127,0.758-0.189,1.178-0.189
			c0.585,0,1.029,0.129,1.333,0.387c0.304,0.256,0.456,0.569,0.456,0.938c0,0.411-0.168,0.745-0.506,1.003
			c-0.453,0.352-1.104,0.525-1.949,0.525C182.773,26.229,182.318,26.191,182.01,26.117z"/>
		<path fill="#FFFFFF" d="M189.744,18.214c0-1.047,0.156-1.926,0.47-2.636c0.233-0.523,0.554-0.993,0.957-1.41
			c0.404-0.416,0.849-0.725,1.329-0.925c0.641-0.271,1.379-0.407,2.216-0.407c1.515,0,2.728,0.471,3.636,1.409
			c0.91,0.94,1.363,2.247,1.363,3.92c0,1.66-0.451,2.958-1.354,3.896c-0.903,0.938-2.107,1.406-3.617,1.406
			c-1.529,0-2.744-0.467-3.646-1.398S189.744,19.852,189.744,18.214z M191.883,18.145c0,1.164,0.27,2.047,0.807,2.646
			c0.537,0.602,1.221,0.9,2.047,0.9c0.828,0,1.508-0.297,2.037-0.895c0.531-0.596,0.797-1.488,0.797-2.682
			c0-1.178-0.26-2.057-0.774-2.637c-0.517-0.58-1.203-0.869-2.06-0.869c-0.855,0-1.545,0.293-2.067,0.879
			C192.146,16.076,191.883,16.962,191.883,18.145z M193.04,12.443h-0.897c-0.004-0.107-0.008-0.191-0.008-0.252
			c0-0.491,0.119-0.869,0.357-1.133c0.238-0.265,0.545-0.396,0.92-0.396c0.163,0,0.314,0.018,0.455,0.053s0.396,0.137,0.768,0.303
			c0.372,0.166,0.663,0.248,0.873,0.248c0.15,0,0.275-0.047,0.375-0.141c0.102-0.094,0.165-0.25,0.193-0.471h0.912
			c-0.006,0.632-0.123,1.082-0.355,1.354c-0.23,0.271-0.529,0.406-0.895,0.406c-0.158,0-0.314-0.017-0.469-0.049
			c-0.107-0.028-0.377-0.124-0.808-0.287c-0.43-0.164-0.741-0.246-0.938-0.246c-0.149,0-0.267,0.046-0.352,0.138
			C193.089,12.062,193.045,12.219,193.04,12.443z"/>
		<path fill="#FFFFFF" d="M201.335,23.291V13.012h7.622v1.738h-5.547v2.279h5.16v1.732h-5.16v2.797h5.742v1.731L201.335,23.291
			L201.335,23.291z"/>
		<path fill="#FFFFFF" d="M210.389,19.945l2.02-0.195c0.121,0.678,0.367,1.176,0.738,1.493c0.373,0.317,0.873,0.478,1.504,0.478
			c0.67,0,1.172-0.142,1.513-0.425c0.339-0.282,0.508-0.612,0.508-0.991c0-0.244-0.069-0.449-0.213-0.621
			c-0.144-0.17-0.394-0.318-0.748-0.445c-0.242-0.084-0.797-0.233-1.661-0.448c-1.111-0.274-1.895-0.614-2.343-1.017
			c-0.631-0.565-0.944-1.256-0.944-2.068c0-0.523,0.147-1.014,0.444-1.469c0.297-0.457,0.726-0.805,1.282-1.043
			c0.559-0.237,1.232-0.356,2.023-0.356c1.289,0,2.26,0.283,2.912,0.849c0.652,0.566,0.994,1.32,1.027,2.266l-2.075,0.092
			c-0.089-0.527-0.28-0.908-0.571-1.141c-0.293-0.23-0.729-0.348-1.313-0.348c-0.604,0-1.076,0.125-1.417,0.373
			c-0.221,0.158-0.329,0.37-0.329,0.637c0,0.244,0.103,0.451,0.31,0.625c0.262,0.22,0.896,0.449,1.905,0.688
			c1.011,0.239,1.757,0.484,2.24,0.74c0.483,0.255,0.862,0.604,1.137,1.044c0.272,0.442,0.41,0.987,0.41,1.638
			c0,0.59-0.164,1.141-0.491,1.655c-0.326,0.515-0.79,0.896-1.388,1.146c-0.601,0.25-1.345,0.375-2.237,0.375
			c-1.3,0-2.298-0.301-2.994-0.9C210.941,21.975,210.523,21.098,210.389,19.945z"/>
	</g>
	<path fill="#FFFFFF" d="M237.568,17.999c0.002-0.286-0.104-0.571-0.323-0.79l-7.901-7.9c-0.431-0.433-1.131-0.433-1.562,0
		c-0.431,0.432-0.431,1.131,0,1.562L234.91,18l-7.129,7.13c-0.432,0.431-0.432,1.13,0,1.562c0.432,0.434,1.132,0.434,1.562,0
		l7.902-7.899C237.464,18.572,237.57,18.285,237.568,17.999z"/>
</g>
</svg>
