<svg version="1.1" id="Layer_1" xmlns="http://www.w3.org/2000/svg" xmlns:xlink="http://www.w3.org/1999/xlink" x="0px" y="0px"
	 width="300px" height="100px" viewBox="0 0 300 100" enable-background="new 0 0 300 100" xml:space="preserve">
<g id="Layer_2">
	<g>
		<path fill="#737373" d="M71.248,29.513c-3.111-6.292-10.489-0.58-10.489-0.58s-7.378,6.872-14.32,7.163
			c-2.242,0.143-4.194,0-4.194,0s-10.415-0.362-10.27,10.196c0.143,10.562,9.111,10.923,9.111,10.923s3.834-0.072,4.123-0.146
			c-3.977-9.688,1.376-17.716,1.376-17.716s-3.473,9.981,1.734,17.716c3.908,1.16,7.089,3.328,13.815,7.887
			c6.726,4.561,9.836-2.964,9.836-2.964S80.145,47.305,71.248,29.513z M70.163,59.098c-2.604,7.594-5.933,2.241-5.933,2.241
			s-6.725-11.573-1.154-27.702c2.964-7.811,6.364-0.362,6.364-0.362S74.935,47.163,70.163,59.098z"/>
		<path fill="#737373" d="M46.006,59.531c0,0-5.641,0.72-8.029-0.653c-0.577,3.397,1.737,9.981,1.737,9.981s0.723,2.17,3.617,1.229
			c2.893-0.939,4.485-2.025,4.485-2.025s1.806-0.869,0.36-3.326C46.728,62.275,46.006,59.531,46.006,59.531z"/>
	</g>
</g>
<text transform="matrix(1 0 0 1 90.2935 35.0156)" fill="#737373" font-size="13">Alguma dúvida?</text>
<text transform="matrix(1 0 0 1 87.126 65.9082)" fill="#737373" font-size="30">Fale conosco</text>
</svg>
