<?xml version="1.0" encoding="utf-8"?>
<!-- Generator: Adobe Illustrator 15.0.0, SVG Export Plug-In . SVG Version: 6.00 Build 0)  -->
<!DOCTYPE svg PUBLIC "-//W3C//DTD SVG 1.1//EN" "http://www.w3.org/Graphics/SVG/1.1/DTD/svg11.dtd">
<svg version="1.1" id="Layer_1" xmlns="http://www.w3.org/2000/svg" xmlns:xlink="http://www.w3.org/1999/xlink" x="0px" y="0px"
	 width="80px" height="25px" viewBox="0 0 80 25" enable-background="new 0 0 80 25" xml:space="preserve">
<rect fill="#EFEFEF" width="80" height="25"/>
<g>
	<g>
		<path fill="#3E3E3E" d="M3.658,9.362V2.588h2.556c0.45,0,0.793,0.021,1.03,0.065C7.577,2.708,7.854,2.814,8.08,2.969
			c0.225,0.155,0.406,0.374,0.543,0.654c0.137,0.28,0.206,0.588,0.206,0.924c0,0.576-0.183,1.063-0.55,1.462
			C7.912,6.408,7.25,6.608,6.292,6.608H4.555v2.754H3.658z M4.555,5.808h1.751c0.579,0,0.99-0.107,1.234-0.323
			c0.243-0.216,0.365-0.519,0.365-0.91c0-0.284-0.071-0.526-0.215-0.728c-0.143-0.202-0.332-0.335-0.566-0.4
			c-0.151-0.04-0.43-0.06-0.836-0.06H4.555V5.808z"/>
		<path fill="#3E3E3E" d="M9.555,6.908c0-0.909,0.252-1.582,0.758-2.02c0.422-0.363,0.936-0.545,1.543-0.545
			c0.675,0,1.227,0.221,1.655,0.663c0.428,0.442,0.642,1.053,0.642,1.833c0,0.631-0.095,1.128-0.284,1.49
			c-0.189,0.362-0.465,0.643-0.827,0.844c-0.362,0.199-0.757,0.299-1.186,0.299c-0.687,0-1.242-0.219-1.666-0.66
			C9.767,8.372,9.555,7.737,9.555,6.908z M10.41,6.908c0,0.628,0.137,1.099,0.412,1.412c0.274,0.313,0.619,0.469,1.035,0.469
			c0.413,0,0.756-0.157,1.031-0.471c0.274-0.313,0.411-0.793,0.411-1.437c0-0.607-0.138-1.067-0.414-1.379
			c-0.276-0.312-0.619-0.47-1.029-0.47c-0.416,0-0.761,0.156-1.035,0.467C10.546,5.811,10.41,6.28,10.41,6.908z"/>
		<path fill="#3E3E3E" d="M16.034,9.362l-1.502-4.908h0.859l0.781,2.833l0.292,1.054c0.012-0.053,0.097-0.39,0.254-1.012
			l0.781-2.875h0.854l0.735,2.847l0.245,0.938l0.282-0.947l0.841-2.837h0.809l-1.535,4.907h-0.864l-0.781-2.939l-0.189-0.836
			l-0.994,3.775H16.034z"/>
		<path fill="#3E3E3E" d="M25.322,7.781l0.859,0.106c-0.136,0.502-0.387,0.892-0.753,1.168c-0.366,0.277-0.834,0.416-1.405,0.416
			c-0.718,0-1.287-0.221-1.707-0.662c-0.421-0.442-0.631-1.062-0.631-1.86c0-0.826,0.212-1.466,0.638-1.922
			c0.425-0.456,0.977-0.684,1.654-0.684c0.656,0,1.192,0.224,1.608,0.67C26,5.459,26.208,6.088,26.208,6.898
			c0,0.049-0.001,0.123-0.005,0.222h-3.66c0.031,0.539,0.183,0.952,0.458,1.238c0.274,0.287,0.616,0.43,1.026,0.43
			c0.305,0,0.565-0.08,0.781-0.24C25.023,8.387,25.194,8.133,25.322,7.781z M22.591,6.438h2.74
			c-0.037-0.413-0.142-0.722-0.314-0.929c-0.265-0.32-0.608-0.48-1.03-0.48c-0.382,0-0.703,0.128-0.963,0.383
			C22.762,5.667,22.618,6.009,22.591,6.438z"/>
		<path fill="#3E3E3E" d="M27.216,9.362V4.454h0.749v0.744c0.191-0.348,0.367-0.578,0.529-0.688c0.162-0.111,0.34-0.167,0.534-0.167
			c0.281,0,0.565,0.089,0.855,0.268l-0.286,0.772c-0.204-0.12-0.407-0.18-0.61-0.18c-0.182,0-0.345,0.055-0.49,0.164
			c-0.145,0.109-0.248,0.261-0.31,0.455c-0.092,0.295-0.139,0.619-0.139,0.97v2.57H27.216z"/>
		<path fill="#3E3E3E" d="M33.735,7.781l0.859,0.106c-0.136,0.502-0.388,0.892-0.753,1.168c-0.366,0.277-0.834,0.416-1.405,0.416
			c-0.718,0-1.287-0.221-1.707-0.662c-0.421-0.442-0.631-1.062-0.631-1.86c0-0.826,0.212-1.466,0.638-1.922
			c0.426-0.456,0.977-0.684,1.654-0.684c0.656,0,1.191,0.224,1.607,0.67c0.416,0.446,0.625,1.075,0.625,1.885
			c0,0.049-0.002,0.123-0.006,0.222h-3.66c0.031,0.539,0.184,0.952,0.459,1.238c0.273,0.287,0.615,0.43,1.025,0.43
			c0.305,0,0.565-0.08,0.781-0.24C33.438,8.388,33.609,8.133,33.735,7.781z M31.003,6.438h2.74
			c-0.037-0.413-0.142-0.722-0.313-0.929c-0.265-0.32-0.608-0.48-1.03-0.48c-0.382,0-0.703,0.128-0.963,0.383
			C31.177,5.667,31.034,6.009,31.003,6.438z"/>
		<path fill="#3E3E3E" d="M38.825,9.362V8.743c-0.312,0.487-0.77,0.73-1.373,0.73c-0.392,0-0.75-0.108-1.078-0.323
			c-0.328-0.216-0.584-0.517-0.764-0.904c-0.18-0.386-0.271-0.831-0.271-1.333c0-0.49,0.082-0.934,0.246-1.333
			c0.162-0.399,0.408-0.705,0.734-0.917c0.326-0.212,0.691-0.319,1.096-0.319c0.295,0,0.559,0.063,0.789,0.188
			c0.231,0.125,0.42,0.287,0.563,0.487V2.588h0.827v6.774H38.825z M36.193,6.913c0,0.628,0.133,1.098,0.397,1.41
			c0.265,0.311,0.577,0.466,0.938,0.466c0.362,0,0.672-0.147,0.926-0.446c0.254-0.297,0.381-0.75,0.381-1.36
			c0-0.671-0.129-1.165-0.387-1.479c-0.26-0.314-0.578-0.472-0.957-0.472c-0.371,0-0.679,0.151-0.927,0.453
			C36.317,5.786,36.193,6.263,36.193,6.913z"/>
		<path fill="#3E3E3E" d="M44.299,9.362h-0.771V2.588h0.832v2.417c0.352-0.441,0.799-0.661,1.346-0.661
			c0.303,0,0.586,0.061,0.856,0.183s0.491,0.293,0.665,0.513c0.174,0.22,0.311,0.486,0.409,0.797
			c0.098,0.311,0.147,0.644,0.147,0.998c0,0.841-0.209,1.491-0.625,1.95s-0.914,0.688-1.496,0.688c-0.58,0-1.033-0.242-1.362-0.727
			L44.299,9.362L44.299,9.362z M44.289,6.871c0,0.588,0.08,1.015,0.24,1.275c0.262,0.428,0.615,0.642,1.062,0.642
			c0.361,0,0.678-0.158,0.941-0.474C46.8,8,46.93,7.528,46.93,6.902c0-0.641-0.127-1.113-0.381-1.418
			c-0.254-0.305-0.562-0.458-0.922-0.458c-0.363,0-0.678,0.158-0.942,0.474C44.422,5.817,44.289,6.274,44.289,6.871z"/>
		<path fill="#3E3E3E" d="M48.759,11.253l-0.093-0.781c0.182,0.049,0.341,0.074,0.477,0.074c0.186,0,0.332-0.031,0.443-0.094
			s0.201-0.146,0.271-0.259c0.054-0.083,0.138-0.29,0.254-0.619c0.017-0.046,0.04-0.114,0.074-0.203l-1.86-4.917h0.896l1.021,2.842
			c0.133,0.36,0.252,0.739,0.355,1.136c0.096-0.381,0.21-0.754,0.342-1.117l1.051-2.861h0.83l-1.865,4.991
			c-0.201,0.539-0.355,0.911-0.467,1.114c-0.148,0.273-0.318,0.475-0.51,0.603c-0.189,0.128-0.419,0.192-0.684,0.192
			C49.135,11.354,48.955,11.32,48.759,11.253z"/>
	</g>
	<g>
		<path fill="#194267" d="M31.636,22.627c-0.427,0.188-1.117,0.359-1.97,0.359c-1.919,0-3.082-1.207-3.082-3.146
			c0-1.432,0.575-2.795,1.626-3.664c0.776-0.666,1.749-1.025,2.863-1.025c0.845,0,1.445,0.213,1.647,0.373l-0.306,0.756
			c-0.282-0.17-0.821-0.316-1.499-0.316c-0.791,0-1.588,0.305-2.175,0.857c-0.712,0.664-1.162,1.736-1.162,2.887
			c0,1.361,0.621,2.479,2.312,2.479c0.574,0,1.207-0.111,1.625-0.324L31.636,22.627z"/>
		<path fill="#194267" d="M39.192,18.262c0,1.316-0.473,2.771-1.376,3.674c-0.677,0.668-1.557,1.059-2.606,1.059
			c-1.96,0-2.887-1.473-2.887-3.088c0-1.344,0.533-2.814,1.456-3.73c0.644-0.631,1.59-1.025,2.549-1.025
			C38.367,15.15,39.192,16.641,39.192,18.262z M34.467,16.707c-0.732,0.73-1.161,2.062-1.161,3.119c0,1.242,0.553,2.381,2.042,2.381
			c0.642,0,1.262-0.279,1.734-0.754c0.712-0.721,1.127-2.086,1.127-3.146c0-1.082-0.348-2.367-2.005-2.367
			C35.527,15.939,34.929,16.232,34.467,16.707z"/>
		<path fill="#194267" d="M45.811,22.873l0.542-4.104c0.103-0.723,0.271-1.838,0.417-2.572h-0.044
			c-0.353,0.77-0.769,1.666-1.187,2.449l-2.254,4.182h-0.724l-0.563-4.094c-0.112-0.879-0.19-1.758-0.236-2.537H41.74
			c-0.17,0.701-0.406,1.85-0.588,2.572l-1.035,4.104h-0.88l1.971-7.6h1.199l0.598,4.361c0.078,0.645,0.17,1.332,0.18,1.895h0.034
			c0.235-0.562,0.565-1.24,0.891-1.871l2.357-4.385h1.217l-0.97,7.6H45.811z"/>
		<path fill="#194267" d="M54.381,22.873l0.542-4.104c0.1-0.723,0.271-1.838,0.415-2.572h-0.045
			c-0.349,0.77-0.764,1.666-1.183,2.449l-2.256,4.182h-0.723l-0.563-4.094c-0.111-0.879-0.189-1.758-0.236-2.537H50.31
			c-0.17,0.701-0.405,1.85-0.586,2.572l-1.036,4.104h-0.881l1.973-7.6h1.197l0.598,4.361c0.077,0.645,0.17,1.332,0.178,1.895h0.035
			c0.237-0.562,0.564-1.24,0.892-1.871l2.356-4.385h1.219l-0.971,7.6H54.381z"/>
		<path fill="#194267" d="M60.955,19.299h-2.764l-0.52,2.773h3.111l-0.158,0.799h-4.049l1.444-7.6h3.88l-0.154,0.803H58.81
			l-0.461,2.436h2.763L60.955,19.299z"/>
		<path fill="#194267" d="M63.084,15.385c0.464-0.102,1.098-0.168,1.66-0.168c0.756,0,1.408,0.182,1.813,0.553
			c0.351,0.305,0.562,0.746,0.562,1.266c0,1.1-0.844,1.926-1.803,2.193l-0.012,0.025c0.531,0.18,0.789,0.74,0.847,1.529
			c0.079,1.062,0.134,1.781,0.235,2.088h-0.969c-0.043-0.156-0.125-0.957-0.18-1.838c-0.057-1.039-0.439-1.477-1.195-1.477h-0.836
			l-0.621,3.314h-0.935L63.084,15.385z M63.355,18.838h0.834c1.188,0,1.951-0.779,1.951-1.691c0-0.811-0.607-1.17-1.466-1.17
			c-0.371,0-0.619,0.031-0.788,0.076L63.355,18.838z"/>
		<path fill="#194267" d="M72.637,22.627c-0.43,0.188-1.116,0.359-1.975,0.359c-1.916,0-3.078-1.207-3.078-3.146
			c0-1.432,0.574-2.795,1.623-3.664c0.778-0.666,1.748-1.025,2.865-1.025c0.846,0,1.444,0.213,1.646,0.373l-0.306,0.756
			c-0.279-0.17-0.821-0.316-1.496-0.316c-0.791,0-1.592,0.305-2.18,0.857c-0.711,0.664-1.16,1.736-1.16,2.887
			c0,1.361,0.621,2.479,2.312,2.479c0.574,0,1.204-0.111,1.624-0.324L72.637,22.627z"/>
		<path fill="#194267" d="M77.789,19.299h-2.762l-0.521,2.773h3.112l-0.158,0.799h-4.047l1.442-7.6h3.879l-0.157,0.803h-2.931
			l-0.464,2.436h2.764L77.789,19.299z"/>
		<path fill="#194267" d="M10.621,11.601h-0.484c-0.09,0-0.29,0-0.561,0c-0.4,0-1.392,0-2.029,0c-3.39,0-3.983,2.89-3.983,2.89
			l-1.25,7.887c0,0-0.009,0.027-0.012,0.072l-0.063,0.365h0.403l0.024,0.002c0.21,0,1.968,0,2.376,0
			c0.506,0,0.576-0.439,0.576-0.439l0.625-3.846c0,0,2.038,0,2.255,0c0.333,0,0.373-0.324,0.373-0.324l0.202-1.273h-2.58
			l0.376-2.391c0,0,0.166-1.445,1.078-1.445c0.286,0,1.678,0,2.016,0c0.426,0,0.453-0.374,0.453-0.374l0.148-0.803
			c0,0,0.005-0.016,0.005-0.039L10.621,11.601z"/>
		<path fill="#194267" d="M26.636,15.131l-0.016-0.002c-0.162,0-3.804,0-5.611,0c0,0-0.466,0-0.992,0c-0.616,0-1.315,0-1.469,0
			c-2.233,0-2.979,1.402-3.156,1.836c-0.64,1.814,0.862,2.676,0.862,2.676s0.806,0.428,1.323,0.725
			c0.51,0.295,0.502,1.023,0.103,1.373c-1.334,0.98-1.848-0.447-1.941-0.695c-0.089-0.244-0.355-0.098-0.355-0.098
			s-0.351,0.162-0.67,0.369c-0.353,0.229-0.141,0.496-0.141,0.496s1.146,1.564,2.985,1.143c0.619-0.143,3.139-0.721,2.615-3.156
			c-0.274-1.238-1.931-1.703-2.242-1.857c-0.45-0.197-0.636-0.566-0.557-0.961c0.107-0.543,0.464-0.779,1.122-0.779
			c0.202,0,0.843,0,1.406,0c0.505,0,0.949,0,0.949,0c0.287,0,0.564,0,0.719,0c0.379,0,0.3,0.326,0.3,0.326l-0.927,5.855
			c0,0-0.001,0.018-0.006,0.035l-0.066,0.396h0.365l0.007,0.002c0.393,0,1.471,0,1.881,0c0.412,0,0.467-0.393,0.467-0.393
			l0.928-5.896c0,0,0.024-0.326,0.471-0.326c0.438,0,1.064,0,1.434,0c0.371,0,0.445-0.352,0.445-0.352l0.063-0.402
			c0,0,0.006-0.029,0.006-0.062l0.045-0.25h-0.347V15.131z"/>
		<path fill="#194267" d="M14.398,22.336c-0.005-0.053-1.09-6.031-1.105-6.094c-0.033-0.121-0.316-1.246-1.358-1.246
			c-0.89,0-1.185,0.332-1.445,0.697c-0.094,0.131-0.308,0.523-0.308,0.523l-2.986,6.15l-0.013,0.023
			c-0.003,0.004-0.003,0.004-0.005,0.008l-0.196,0.381H7.46H7.47c0.147,0,0.312,0,0.496,0c0.47,0,0.591-0.4,0.591-0.4l0.339-0.73
			c0,0,0.104-0.244,0.365-0.244c0.19,0,1.687,0,1.992,0c0.304,0,0.32,0.211,0.32,0.211l0.113,0.773c0,0,0.045,0.41,0.418,0.41
			c0.374,0,1.604,0,1.874,0C14.377,22.799,14.408,22.426,14.398,22.336z M11.075,20.26c-0.243,0-1.52,0.004-1.52,0.004
			s1.121-2.344,1.166-2.441c0.042-0.119,0.277-0.398,0.357,0.02c0.078,0.42,0.269,1.982,0.269,1.982S11.418,20.26,11.075,20.26z"/>
	</g>
</g>
</svg>
