<?xml version="1.0" encoding="utf-8"?>
<!-- Generator: Adobe Illustrator 17.1.0, SVG Export Plug-In . SVG Version: 6.00 Build 0)  -->
<!DOCTYPE svg PUBLIC "-//W3C//DTD SVG 1.1//EN" "http://www.w3.org/Graphics/SVG/1.1/DTD/svg11.dtd">
<svg version="1.1" id="Layer_1" xmlns="http://www.w3.org/2000/svg" xmlns:xlink="http://www.w3.org/1999/xlink" x="0px" y="0px"
	 width="159.333px" height="153.667px" viewBox="0 0 159.333 153.667" enable-background="new 0 0 159.333 153.667"
	 xml:space="preserve">
<g>
	<rect x="1.2" y="3.2" fill="#F9F9F9" width="155.9" height="143.6"/>
	<rect x="1.5" y="3.3" fill="#F5F6F8" width="155.3" height="143.3"/>
	<rect x="1.8" y="3.5" fill="#F2F2F2" width="154.8" height="143.1"/>
	<rect x="2" y="3.5" fill="#EFEFEF" width="154.2" height="142.9"/>
	<rect x="2.3" y="3.6" fill="#EDECED" width="153.8" height="142.7"/>
	<rect x="2.6" y="3.8" fill="#E8E7E7" width="153.2" height="142.4"/>
	<rect x="2.8" y="4" fill="#FFFFFF" width="152.7" height="141.8"/>
	<rect x="12.3" y="13.3" fill="#F9F9FA" width="133.7" height="123"/>
	<g>
		<path fill="#F2F2F2" d="M155.2,147.3L3,147.4l0.1,4.8c49.2-5.6,135.4-5.4,152-0.3L155.2,147.3z"/>
		<path fill="#EAEAE9" d="M155.2,146.7L3,146.9l0.2,4.7c49.3-5.6,135.2-5.4,151.7-0.2L155.2,146.7z"/>
		<path fill="#E2E2E1" d="M155.2,145.8L3,146l0.4,4.8c48.2-5,139.9-4.4,151.5-0.2L155.2,145.8z"/>
		<path fill="#D8D8D7" d="M155.1,145.9L3.1,146l0.3,4c48.2-5,139.8-4.5,151.4-0.3L155.1,145.9z"/>
		<path fill="#D3D3D3" d="M154.9,145.9H3.3l0.4,3.5c47.1-4.3,140.3-3.1,151.2-0.3L154.9,145.9z"/>
		<path fill="#C8C8C8" d="M154.8,145.9H3.4l0.3,2.8c47-3,141.8-2.7,151-0.4L154.8,145.9z"/>
		<path fill="#C4C3C3" d="M154.7,146.4c0-0.3,0-0.5,0-0.5H3.5l0.3,2.2c46.9-3,141.7-2.3,150.7,0c0,0,0-0.2,0-0.3L154.7,146.4z"/>
	</g>
</g>
<g>
	<g>
		<path fill="#939393" d="M66.6,84.6H54.5V51.3l0.1-5.5l0.2-6c-2,2-3.4,3.3-4.2,4L44,49.2l-5.9-7.3l18.5-14.8h10L66.6,84.6
			L66.6,84.6z"/>
	</g>
</g>
<g>
	<g>
		<path fill="#939393" d="M53.9,114.6l-1-2.5h-0.1c-0.9,1.1-1.7,1.8-2.7,2.3S48,115,46.6,115c-1.8,0-3.2-0.5-4.2-1.5
			s-1.5-2.5-1.5-4.4c0-2,0.7-3.5,2.1-4.4c1.4-0.9,3.5-1.5,6.3-1.6l3.2-0.1v-0.8c0-1.9-1-2.8-2.9-2.8c-1.5,0-3.3,0.5-5.3,1.4
			l-1.7-3.4c2.2-1.1,4.5-1.7,7.2-1.7c2.5,0,4.4,0.5,5.8,1.6c1.3,1.1,2,2.8,2,5v12.5L53.9,114.6L53.9,114.6z M52.4,105.9l-2,0.1
			c-1.5,0-2.6,0.3-3.3,0.8c-0.7,0.5-1.1,1.2-1.1,2.2c0,1.4,0.8,2.2,2.5,2.2c1.2,0,2.1-0.3,2.8-1c0.7-0.7,1.1-1.6,1.1-2.7
			C52.4,107.5,52.4,105.9,52.4,105.9z"/>
		<path fill="#939393" d="M80,114.6h-5.1v-10.9c0-1.4-0.2-2.4-0.7-3s-1.2-1-2.3-1c-1.4,0-2.5,0.5-3.1,1.4c-0.6,1-1,2.5-1,4.7v8.8
			h-5.1V95.9h3.9l0.7,2.4h0.3c0.6-0.9,1.4-1.6,2.4-2.1c1-0.5,2.1-0.7,3.4-0.7c2.2,0,3.8,0.6,5,1.8c1.1,1.2,1.7,2.9,1.7,5.1L80,114.6
			L80,114.6z"/>
		<path fill="#939393" d="M102.3,105.2c0,3-0.8,5.4-2.4,7.2c-1.6,1.7-3.8,2.6-6.7,2.6c-1.8,0-3.4-0.4-4.8-1.2s-2.4-1.9-3.2-3.4
			c-0.7-1.5-1.1-3.2-1.1-5.2c0-3.1,0.8-5.4,2.4-7.1s3.8-2.5,6.7-2.5c1.8,0,3.4,0.4,4.8,1.2c1.4,0.8,2.4,1.9,3.2,3.4
			S102.3,103.3,102.3,105.2z M89.3,105.2c0,1.9,0.3,3.3,0.9,4.2c0.6,0.9,1.6,1.4,3,1.4c1.4,0,2.3-0.5,2.9-1.4s0.9-2.3,0.9-4.2
			c0-1.9-0.3-3.2-0.9-4.2c-0.6-0.9-1.6-1.4-3-1.4c-1.4,0-2.3,0.5-2.9,1.4C89.6,102,89.3,103.4,89.3,105.2z"/>
		<path fill="#939393" d="M119.6,109.1c0,1.9-0.7,3.4-2,4.4s-3.3,1.5-6,1.5c-1.4,0-2.5-0.1-3.5-0.3s-1.9-0.5-2.7-0.8v-4.2
			c0.9,0.4,2,0.8,3.2,1.1s2.2,0.5,3.1,0.5c1.9,0,2.8-0.5,2.8-1.6c0-0.4-0.1-0.7-0.4-1c-0.2-0.3-0.7-0.5-1.3-0.9s-1.4-0.7-2.4-1.1
			c-1.4-0.6-2.5-1.2-3.2-1.7c-0.7-0.5-1.2-1.1-1.5-1.8c-0.3-0.7-0.5-1.5-0.5-2.5c0-1.7,0.6-3,1.9-3.9c1.3-0.9,3.1-1.4,5.5-1.4
			c2.3,0,4.4,0.5,6.6,1.5l-1.5,3.7c-0.9-0.4-1.8-0.7-2.6-1c-0.8-0.3-1.6-0.4-2.5-0.4c-1.5,0-2.3,0.4-2.3,1.2c0,0.5,0.2,0.9,0.7,1.2
			s1.5,0.8,3.2,1.5c1.5,0.6,2.5,1.1,3.2,1.7c0.7,0.5,1.2,1.1,1.5,1.8C119.4,107.3,119.6,108.1,119.6,109.1z"/>
	</g>
</g>
<g>
	<g>
		<path fill="#939393" d="M42.8,129.3c-0.9,0-1.7-0.4-2.2-1.1c-0.5-0.7-0.8-1.7-0.8-3c0-1.3,0.3-2.3,0.8-3.1
			c0.5-0.7,1.3-1.1,2.3-1.1c1,0,1.8,0.4,2.3,1.2h0.1c-0.1-0.6-0.2-1.1-0.2-1.6V118h2.2v11.1h-1.7l-0.4-1H45
			C44.5,128.9,43.8,129.3,42.8,129.3z M43.5,127.5c0.6,0,1-0.2,1.2-0.5c0.3-0.3,0.4-0.9,0.4-1.7v-0.2c0-0.9-0.1-1.5-0.4-1.8
			s-0.7-0.6-1.3-0.6c-0.5,0-0.9,0.2-1.1,0.6c-0.3,0.4-0.4,1-0.4,1.8c0,0.8,0.1,1.4,0.4,1.8C42.6,127.3,43,127.5,43.5,127.5z"/>
		<path fill="#939393" d="M52.5,129.3c-1.3,0-2.3-0.4-3-1.1c-0.7-0.7-1.1-1.7-1.1-3c0-1.3,0.3-2.4,1-3.1c0.7-0.7,1.6-1.1,2.8-1.1
			c1.1,0,2,0.3,2.6,1s0.9,1.5,0.9,2.7v1.1h-5.2c0,0.6,0.2,1.1,0.6,1.5s0.8,0.5,1.4,0.5c0.5,0,0.9-0.1,1.4-0.2
			c0.4-0.1,0.9-0.3,1.3-0.5v1.7c-0.4,0.2-0.8,0.3-1.2,0.4C53.7,129.2,53.1,129.3,52.5,129.3z M52.2,122.5c-0.5,0-0.8,0.1-1.1,0.4
			c-0.3,0.3-0.4,0.7-0.5,1.2h3.1c0-0.5-0.2-1-0.4-1.2C53,122.7,52.7,122.5,52.2,122.5z"/>
		<path fill="#939393" d="M67.3,129.1h-2.2v-4.7c0-0.6-0.1-1-0.3-1.3c-0.2-0.3-0.5-0.4-0.9-0.4c-0.6,0-1,0.2-1.2,0.6
			c-0.3,0.4-0.4,1.1-0.4,2v3.8h-2.2v-8h1.7l0.3,1h0.1c0.2-0.4,0.5-0.7,0.9-0.9c0.4-0.2,0.9-0.3,1.4-0.3c1.2,0,2,0.4,2.4,1.2h0.2
			c0.2-0.4,0.5-0.7,0.9-0.9c0.4-0.2,0.9-0.3,1.4-0.3c0.9,0,1.6,0.2,2.1,0.7c0.5,0.5,0.7,1.2,0.7,2.2v5.2h-2.2v-4.7
			c0-0.6-0.1-1-0.3-1.3s-0.5-0.4-0.9-0.4c-0.5,0-0.9,0.2-1.2,0.6c-0.3,0.4-0.4,1-0.4,1.8C67.3,125.1,67.3,129.1,67.3,129.1z"/>
		<path fill="#939393" d="M77.6,129.3c-1.3,0-2.3-0.4-3-1.1c-0.7-0.7-1.1-1.7-1.1-3c0-1.3,0.3-2.4,1-3.1c0.7-0.7,1.6-1.1,2.8-1.1
			c1.1,0,2,0.3,2.6,1s0.9,1.5,0.9,2.7v1.1h-5.2c0,0.6,0.2,1.1,0.6,1.5s0.8,0.5,1.4,0.5c0.5,0,0.9-0.1,1.4-0.2
			c0.4-0.1,0.9-0.3,1.3-0.5v1.7c-0.4,0.2-0.8,0.3-1.2,0.4C78.8,129.2,78.2,129.3,77.6,129.3z M77.3,122.5c-0.5,0-0.8,0.1-1.1,0.4
			c-0.3,0.3-0.4,0.7-0.4,1.2h3.1c0-0.5-0.2-1-0.4-1.2C78.1,122.7,77.8,122.5,77.3,122.5z"/>
		<path fill="#939393" d="M86.5,121c0.3,0,0.5,0,0.7,0.1l-0.2,2c-0.2,0-0.4-0.1-0.6-0.1c-0.7,0-1.2,0.2-1.6,0.5
			c-0.4,0.4-0.6,0.9-0.6,1.5v4.1H82v-8h1.7l0.3,1.3h0.1c0.2-0.4,0.6-0.8,1-1.1C85.6,121.1,86,121,86.5,121z"/>
		<path fill="#939393" d="M91.4,129.3c-2.5,0-3.7-1.4-3.7-4.1c0-1.4,0.3-2.4,1-3.1c0.7-0.7,1.6-1.1,2.9-1.1c0.9,0,1.8,0.2,2.5,0.5
			l-0.6,1.7c-0.3-0.1-0.7-0.3-1-0.3s-0.6-0.1-0.9-0.1c-1.1,0-1.7,0.8-1.7,2.4c0,1.6,0.6,2.3,1.7,2.3c0.4,0,0.8-0.1,1.2-0.2
			c0.4-0.1,0.7-0.3,1.1-0.5v1.9c-0.4,0.2-0.7,0.4-1.1,0.5C92.4,129.2,91.9,129.3,91.4,129.3z"/>
		<path fill="#939393" d="M100.1,129.1l-0.4-1.1h-0.1c-0.4,0.5-0.7,0.8-1.1,1c-0.4,0.2-0.9,0.3-1.5,0.3c-0.8,0-1.4-0.2-1.8-0.7
			c-0.4-0.4-0.7-1.1-0.7-1.9c0-0.8,0.3-1.5,0.9-1.9c0.6-0.4,1.5-0.6,2.7-0.7l1.4,0v-0.4c0-0.8-0.4-1.2-1.2-1.2
			c-0.6,0-1.4,0.2-2.3,0.6l-0.7-1.5c0.9-0.5,1.9-0.7,3.1-0.7c1.1,0,1.9,0.2,2.5,0.7c0.6,0.5,0.9,1.2,0.9,2.1v5.3L100.1,129.1
			L100.1,129.1z M99.5,125.4l-0.8,0c-0.6,0-1.1,0.1-1.4,0.3c-0.3,0.2-0.5,0.5-0.5,1c0,0.6,0.4,0.9,1.1,0.9c0.5,0,0.9-0.1,1.2-0.4
			c0.3-0.3,0.5-0.7,0.5-1.2V125.4z"/>
		<path fill="#939393" d="M105.8,129.3c-0.9,0-1.7-0.4-2.2-1.1c-0.5-0.7-0.8-1.7-0.8-3c0-1.3,0.3-2.3,0.8-3.1
			c0.5-0.7,1.3-1.1,2.3-1.1c1,0,1.8,0.4,2.3,1.2h0.1c-0.1-0.6-0.2-1.1-0.2-1.6V118h2.2v11.1h-1.7l-0.4-1h-0.1
			C107.6,128.9,106.9,129.3,105.8,129.3z M106.6,127.5c0.6,0,1-0.2,1.2-0.5c0.3-0.3,0.4-0.9,0.4-1.7v-0.2c0-0.9-0.1-1.5-0.4-1.8
			s-0.7-0.6-1.3-0.6c-0.5,0-0.9,0.2-1.1,0.6c-0.3,0.4-0.4,1-0.4,1.8c0,0.8,0.1,1.4,0.4,1.8C105.7,127.3,106.1,127.5,106.6,127.5z"/>
		<path fill="#939393" d="M119.3,125.1c0,1.3-0.3,2.3-1,3.1c-0.7,0.7-1.6,1.1-2.9,1.1c-0.8,0-1.4-0.2-2-0.5s-1-0.8-1.4-1.4
			c-0.3-0.6-0.5-1.4-0.5-2.2c0-1.3,0.3-2.3,1-3c0.7-0.7,1.6-1.1,2.9-1.1c0.8,0,1.4,0.2,2,0.5s1,0.8,1.4,1.4
			C119.1,123.6,119.3,124.3,119.3,125.1z M113.7,125.1c0,0.8,0.1,1.4,0.4,1.8c0.3,0.4,0.7,0.6,1.3,0.6c0.6,0,1-0.2,1.3-0.6
			c0.3-0.4,0.4-1,0.4-1.8c0-0.8-0.1-1.4-0.4-1.8s-0.7-0.6-1.3-0.6c-0.6,0-1,0.2-1.3,0.6C113.9,123.7,113.7,124.3,113.7,125.1z"/>
	</g>
</g>
<g>
	<path fill="#939393" d="M82.7,84.4l21.5-47.1H75.9V27.2h41.1v7.6L95.4,84.4H82.7z"/>
</g>
</svg>
