<?xml version="1.0" encoding="utf-8"?>
<!-- Generator: Adobe Illustrator 15.0.0, SVG Export Plug-In . SVG Version: 6.00 Build 0)  -->
<!DOCTYPE svg PUBLIC "-//W3C//DTD SVG 1.1//EN" "http://www.w3.org/Graphics/SVG/1.1/DTD/svg11.dtd">
<svg version="1.1" id="Layer_1" xmlns="http://www.w3.org/2000/svg" xmlns:xlink="http://www.w3.org/1999/xlink" x="0px" y="0px"
	 width="159.333px" height="153.667px" viewBox="0 0 159.333 153.667" enable-background="new 0 0 159.333 153.667"
	 xml:space="preserve">
<g>
	<g>
		<rect x="1.734" y="2.315" fill="#F9F9F9" width="155.864" height="143.632"/>
		<rect x="2" y="2.477" fill="#F5F6F8" width="155.333" height="143.308"/>
		<rect x="2.266" y="2.596" fill="#F2F2F2" width="154.802" height="143.068"/>
		<rect x="2.542" y="2.674" fill="#EFEFEF" width="154.249" height="142.912"/>
		<rect x="2.792" y="2.768" fill="#EDECED" width="153.749" height="142.724"/>
		<rect x="3.083" y="2.934" fill="#E8E7E7" width="153.166" height="142.392"/>
		<rect x="3.333" y="3.13" fill="#FFFFFF" width="152.666" height="141.834"/>
		<rect x="12.833" y="12.477" fill="#F9F9FA" width="133.666" height="123"/>
		<g>
			<path fill="#F2F2F2" d="M155.677,146.395L3.474,146.576l0.094,4.775c49.251-5.598,135.439-5.432,151.953-0.301L155.677,146.395z"
				/>
			<path fill="#EAEAE9" d="M155.677,145.867L3.474,146.049l0.249,4.688c49.251-5.598,135.175-5.363,151.69-0.234L155.677,145.867z"
				/>
			<path fill="#E2E2E1" d="M155.677,144.992L3.474,145.174l0.374,4.812c48.163-5.018,139.906-4.391,151.533-0.219L155.677,144.992z"
				/>
			<path fill="#D8D8D7" d="M155.583,145.053L3.646,145.113l0.326,3.998c48.164-5.018,139.752-4.469,151.379-0.297L155.583,145.053z"
				/>
			<path fill="#D3D3D3" d="M155.444,145.043H3.754l0.374,3.459c47.075-4.33,140.271-3.082,151.207-0.281L155.444,145.043z"/>
			<path fill="#C8C8C8" d="M155.32,145.043H3.878l0.343,2.803c46.96-3.012,141.802-2.658,150.989-0.375L155.32,145.043z"/>
			<path fill="#C4C3C3" d="M155.196,145.578c-0.016-0.293-0.031-0.535-0.031-0.535H4.001l0.328,2.209
				c46.894-3.01,141.65-2.314,150.74-0.031c0.02-0.033,0.021-0.182,0.031-0.266L155.196,145.578z"/>
		</g>
	</g>
	<g>
		<g>
			<g>
				<path fill="#939393" d="M94.763,71.345h-6.924v11.92H75.958v-11.92H51.409v-8.458l25.218-37.138h11.212v36.155h6.924V71.345z
					 M75.958,61.903v-9.757c0-1.626,0.065-3.986,0.197-7.081c0.131-3.095,0.236-4.892,0.315-5.39h-0.315
					c-0.971,2.151-2.138,4.249-3.501,6.295L62.11,61.903H75.958z"/>
			</g>
		</g>
		<g>
			<g>
				<path fill="#939393" d="M39.602,112.656h-5.243v-11.225c0-1.387-0.232-2.427-0.696-3.12c-0.464-0.693-1.195-1.04-2.192-1.04
					c-1.341,0-2.315,0.493-2.922,1.479s-0.911,2.607-0.911,4.864v9.042h-5.243V93.438H26.4l0.705,2.458h0.292
					c0.516-0.882,1.26-1.572,2.234-2.071c0.974-0.498,2.091-0.747,3.352-0.747c2.876,0,4.824,0.939,5.844,2.818h0.464
					c0.516-0.894,1.274-1.587,2.277-2.08c1.003-0.492,2.134-0.738,3.395-0.738c2.177,0,3.825,0.559,4.942,1.676
					s1.676,2.907,1.676,5.371v12.531h-5.26v-11.225c0-1.387-0.232-2.427-0.696-3.12c-0.464-0.693-1.194-1.04-2.191-1.04
					c-1.284,0-2.243,0.459-2.879,1.376c-0.636,0.916-0.954,2.372-0.954,4.365V112.656z"/>
				<path fill="#939393" d="M53.923,88.471c0-1.707,0.951-2.561,2.854-2.561c1.902,0,2.854,0.854,2.854,2.561
					c0,0.814-0.238,1.447-0.713,1.899c-0.476,0.453-1.189,0.68-2.14,0.68C54.875,91.05,53.923,90.189,53.923,88.471z M59.39,112.656
					h-5.243V93.438h5.243V112.656z"/>
				<path fill="#939393" d="M67.316,112.656h-5.243V85.91h5.243V112.656z"/>
				<path fill="#939393" d="M87.74,112.656h-5.243v-11.225c0-2.773-1.032-4.16-3.094-4.16c-1.467,0-2.527,0.499-3.18,1.496
					c-0.653,0.997-0.979,2.612-0.979,4.847v9.042h-5.243V85.91h5.243v5.448c0,0.425-0.041,1.422-0.121,2.991l-0.12,1.547h0.275
					c1.169-1.879,3.025-2.818,5.569-2.818c2.257,0,3.971,0.607,5.14,1.821c1.169,1.215,1.753,2.957,1.753,5.226V112.656z"/>
				<path fill="#939393" d="M107.785,103.013c0,3.129-0.825,5.575-2.475,7.34c-1.65,1.766-3.948,2.647-6.893,2.647
					c-1.845,0-3.472-0.404-4.881-1.212c-1.41-0.808-2.493-1.968-3.249-3.48s-1.134-3.277-1.134-5.295c0-3.14,0.819-5.58,2.458-7.322
					c1.639-1.742,3.942-2.612,6.91-2.612c1.845,0,3.472,0.4,4.882,1.203c1.409,0.802,2.492,1.953,3.249,3.455
					C107.407,99.237,107.785,100.996,107.785,103.013z M95.632,89.52c-0.355,0-0.696,0.152-1.022,0.455
					c-0.327,0.304-0.564,0.766-0.713,1.384h-2.561c0.126-1.661,0.599-2.962,1.418-3.901s1.905-1.41,3.257-1.41
					c0.47,0,0.931,0.095,1.384,0.284c0.453,0.188,0.899,0.396,1.341,0.619c0.441,0.223,0.874,0.427,1.298,0.609
					c0.424,0.184,0.842,0.275,1.254,0.275c0.355,0,0.696-0.148,1.023-0.447c0.327-0.298,0.564-0.756,0.713-1.375h2.561
					c-0.126,1.662-0.604,2.963-1.435,3.902c-0.831,0.939-1.911,1.409-3.24,1.409c-0.47,0-0.931-0.095-1.384-0.283
					c-0.453-0.189-0.9-0.396-1.341-0.619c-0.441-0.224-0.874-0.43-1.298-0.619C96.463,89.614,96.045,89.52,95.632,89.52z
					 M94.498,103.013c0,1.902,0.312,3.341,0.937,4.314c0.625,0.975,1.642,1.462,3.051,1.462c1.398,0,2.404-0.484,3.017-1.453
					c0.613-0.968,0.919-2.409,0.919-4.323c0-1.901-0.31-3.328-0.928-4.279s-1.633-1.427-3.042-1.427
					c-1.398,0-2.407,0.473-3.025,1.418S94.498,101.1,94.498,103.013z"/>
				<path fill="#939393" d="M117.999,113c-3.094,0-5.512-0.854-7.254-2.562c-1.742-1.707-2.613-4.125-2.613-7.254
					c0-3.22,0.805-5.709,2.415-7.469c1.61-1.759,3.836-2.638,6.678-2.638c2.716,0,4.831,0.773,6.343,2.32
					c1.512,1.547,2.269,3.685,2.269,6.411v2.544h-12.393c0.057,1.49,0.499,2.653,1.323,3.489c0.825,0.837,1.982,1.255,3.472,1.255
					c1.158,0,2.252-0.12,3.283-0.36c1.032-0.241,2.108-0.625,3.232-1.152v4.057c-0.917,0.459-1.897,0.8-2.939,1.023
					C120.771,112.889,119.5,113,117.999,113z M117.259,96.808c-1.112,0-1.983,0.353-2.613,1.058
					c-0.63,0.704-0.991,1.704-1.083,2.999h7.357c-0.023-1.295-0.361-2.295-1.014-2.999C119.253,97.16,118.371,96.808,117.259,96.808
					z"/>
				<path fill="#939393" d="M140.691,106.949c0,1.972-0.686,3.473-2.054,4.504c-1.37,1.031-3.418,1.547-6.146,1.547
					c-1.398,0-2.59-0.095-3.575-0.283c-0.986-0.189-1.908-0.467-2.768-0.834v-4.332c0.974,0.459,2.071,0.843,3.292,1.152
					c1.22,0.309,2.294,0.464,3.223,0.464c1.902,0,2.854-0.55,2.854-1.65c0-0.412-0.126-0.748-0.378-1.006
					c-0.252-0.258-0.688-0.55-1.307-0.876c-0.619-0.327-1.444-0.708-2.475-1.144c-1.479-0.619-2.564-1.191-3.257-1.719
					c-0.693-0.527-1.198-1.132-1.513-1.813c-0.315-0.682-0.473-1.521-0.473-2.519c0-1.707,0.662-3.027,1.985-3.962
					c1.323-0.934,3.2-1.4,5.629-1.4c2.314,0,4.566,0.504,6.754,1.513l-1.581,3.781c-0.962-0.413-1.862-0.751-2.699-1.015
					c-0.836-0.263-1.69-0.395-2.561-0.395c-1.547,0-2.321,0.418-2.321,1.254c0,0.471,0.25,0.877,0.748,1.221s1.59,0.854,3.274,1.53
					c1.501,0.607,2.601,1.175,3.3,1.701c0.699,0.527,1.215,1.135,1.547,1.822S140.691,105.998,140.691,106.949z"/>
			</g>
		</g>
		<g>
			<g>
				<path fill="#939393" d="M22.265,127.649c-0.826,0-1.475-0.321-1.946-0.962c-0.471-0.642-0.707-1.53-0.707-2.666
					c0-1.152,0.24-2.051,0.72-2.694s1.141-0.965,1.984-0.965c0.884,0,1.559,0.344,2.024,1.031h0.063
					c-0.097-0.524-0.145-0.991-0.145-1.402v-2.251h1.924v9.783H24.71l-0.371-0.912h-0.082
					C23.821,127.304,23.157,127.649,22.265,127.649z M22.937,126.121c0.491,0,0.85-0.143,1.079-0.428
					c0.228-0.284,0.353-0.769,0.374-1.452v-0.207c0-0.755-0.116-1.296-0.349-1.622c-0.232-0.327-0.611-0.49-1.135-0.49
					c-0.428,0-0.76,0.181-0.997,0.543c-0.237,0.363-0.355,0.89-0.355,1.582c0,0.691,0.12,1.21,0.358,1.556
					C22.151,125.948,22.493,126.121,22.937,126.121z"/>
				<path fill="#939393" d="M30.596,127.649c-1.132,0-2.016-0.312-2.653-0.938c-0.637-0.624-0.956-1.509-0.956-2.652
					c0-1.179,0.294-2.089,0.883-2.732s1.403-0.965,2.442-0.965c0.994,0,1.767,0.283,2.32,0.849s0.83,1.348,0.83,2.345v0.931H28.93
					c0.021,0.545,0.183,0.971,0.484,1.276c0.302,0.307,0.725,0.459,1.27,0.459c0.423,0,0.824-0.044,1.201-0.132
					c0.377-0.088,0.771-0.229,1.182-0.421v1.483c-0.335,0.168-0.694,0.293-1.075,0.374C31.61,127.608,31.145,127.649,30.596,127.649
					z M30.326,121.727c-0.407,0-0.725,0.129-0.956,0.387s-0.363,0.623-0.396,1.097h2.691c-0.009-0.474-0.132-0.839-0.371-1.097
					S30.732,121.727,30.326,121.727z"/>
				<path fill="#939393" d="M39.676,127.649c-2.188,0-3.282-1.201-3.282-3.603c0-1.195,0.297-2.107,0.893-2.738
					s1.448-0.946,2.559-0.946c0.813,0,1.542,0.159,2.188,0.478l-0.566,1.484c-0.302-0.122-0.583-0.222-0.842-0.299
					c-0.26-0.078-0.52-0.116-0.78-0.116c-0.998,0-1.497,0.708-1.497,2.125c0,1.375,0.499,2.062,1.497,2.062
					c0.369,0,0.71-0.05,1.025-0.148s0.628-0.252,0.943-0.462v1.641c-0.31,0.197-0.624,0.334-0.94,0.409
					S40.158,127.649,39.676,127.649z"/>
				<path fill="#939393" d="M44.588,127.523H42.67v-9.783h1.918V127.523z"/>
				<path fill="#939393" d="M45.745,118.677c0-0.624,0.348-0.937,1.043-0.937s1.044,0.312,1.044,0.937
					c0,0.298-0.087,0.529-0.261,0.695c-0.174,0.165-0.435,0.248-0.783,0.248C46.093,119.62,45.745,119.306,45.745,118.677z
					 M47.745,127.523h-1.918v-7.029h1.918V127.523z"/>
				<path fill="#939393" d="M52.166,127.649c-1.132,0-2.016-0.312-2.653-0.938c-0.637-0.624-0.956-1.509-0.956-2.652
					c0-1.179,0.294-2.089,0.883-2.732s1.403-0.965,2.442-0.965c0.994,0,1.767,0.283,2.32,0.849s0.83,1.348,0.83,2.345v0.931h-4.533
					c0.021,0.545,0.183,0.971,0.484,1.276c0.302,0.307,0.725,0.459,1.27,0.459c0.423,0,0.824-0.044,1.201-0.132
					c0.377-0.088,0.771-0.229,1.182-0.421v1.483c-0.335,0.168-0.694,0.293-1.075,0.374C53.18,127.608,52.714,127.649,52.166,127.649
					z M51.895,121.727c-0.407,0-0.725,0.129-0.956,0.387s-0.363,0.623-0.396,1.097h2.691c-0.009-0.474-0.132-0.839-0.371-1.097
					S52.302,121.727,51.895,121.727z"/>
				<path fill="#939393" d="M62.308,127.523H60.39v-4.105c0-0.507-0.09-0.888-0.27-1.142c-0.18-0.253-0.467-0.38-0.861-0.38
					c-0.537,0-0.924,0.179-1.163,0.537c-0.239,0.358-0.358,0.953-0.358,1.782v3.308h-1.918v-7.029h1.465l0.258,0.899h0.107
					c0.214-0.34,0.508-0.597,0.883-0.771c0.375-0.174,0.802-0.261,1.28-0.261c0.817,0,1.438,0.221,1.861,0.663
					s0.635,1.08,0.635,1.915V127.523z"/>
				<path fill="#939393" d="M66.471,126.121c0.335,0,0.738-0.073,1.207-0.22v1.427c-0.478,0.214-1.064,0.321-1.76,0.321
					c-0.767,0-1.326-0.194-1.676-0.582c-0.35-0.388-0.525-0.969-0.525-1.744v-3.39h-0.918v-0.811l1.056-0.642l0.554-1.483h1.226
					v1.496h1.968v1.439h-1.968v3.39c0,0.272,0.076,0.474,0.229,0.604C66.017,126.057,66.219,126.121,66.471,126.121z"/>
				<path fill="#939393" d="M71.508,127.649c-1.132,0-2.016-0.312-2.653-0.938c-0.637-0.624-0.956-1.509-0.956-2.652
					c0-1.179,0.294-2.089,0.883-2.732s1.403-0.965,2.442-0.965c0.994,0,1.767,0.283,2.32,0.849s0.83,1.348,0.83,2.345v0.931h-4.533
					c0.021,0.545,0.183,0.971,0.484,1.276c0.302,0.307,0.725,0.459,1.27,0.459c0.423,0,0.824-0.044,1.201-0.132
					c0.377-0.088,0.771-0.229,1.182-0.421v1.483c-0.335,0.168-0.694,0.293-1.075,0.374
					C72.522,127.608,72.057,127.649,71.508,127.649z M71.237,121.727c-0.407,0-0.725,0.129-0.956,0.387s-0.363,0.623-0.396,1.097
					h2.691c-0.009-0.474-0.132-0.839-0.371-1.097S71.644,121.727,71.237,121.727z"/>
				<path fill="#939393" d="M80.065,125.436c0,0.722-0.25,1.271-0.751,1.647c-0.501,0.378-1.25,0.566-2.248,0.566
					c-0.512,0-0.947-0.035-1.308-0.104c-0.361-0.069-0.698-0.171-1.013-0.306v-1.584c0.356,0.168,0.758,0.308,1.204,0.421
					s0.839,0.17,1.179,0.17c0.695,0,1.043-0.201,1.043-0.604c0-0.151-0.046-0.273-0.138-0.368c-0.092-0.094-0.251-0.201-0.478-0.32
					c-0.226-0.119-0.528-0.259-0.905-0.418c-0.541-0.227-0.938-0.437-1.191-0.629c-0.254-0.192-0.438-0.414-0.553-0.663
					c-0.115-0.25-0.173-0.557-0.173-0.921c0-0.625,0.242-1.108,0.726-1.449c0.484-0.342,1.17-0.513,2.059-0.513
					c0.847,0,1.67,0.185,2.471,0.553l-0.578,1.384c-0.352-0.151-0.681-0.274-0.987-0.371s-0.618-0.145-0.937-0.145
					c-0.566,0-0.849,0.153-0.849,0.459c0,0.172,0.091,0.32,0.273,0.446c0.183,0.126,0.582,0.312,1.198,0.56
					c0.549,0.223,0.952,0.43,1.208,0.622c0.255,0.193,0.444,0.415,0.566,0.667C80.004,124.788,80.065,125.088,80.065,125.436z"/>
				<path fill="#939393" d="M88.266,125.436c0,0.722-0.25,1.271-0.751,1.647c-0.501,0.378-1.25,0.566-2.248,0.566
					c-0.512,0-0.947-0.035-1.308-0.104c-0.361-0.069-0.698-0.171-1.013-0.306v-1.584c0.356,0.168,0.758,0.308,1.204,0.421
					s0.839,0.17,1.179,0.17c0.695,0,1.043-0.201,1.043-0.604c0-0.151-0.046-0.273-0.138-0.368c-0.092-0.094-0.251-0.201-0.478-0.32
					c-0.226-0.119-0.528-0.259-0.905-0.418c-0.541-0.227-0.938-0.437-1.191-0.629c-0.254-0.192-0.438-0.414-0.553-0.663
					c-0.115-0.25-0.173-0.557-0.173-0.921c0-0.625,0.242-1.108,0.726-1.449c0.484-0.342,1.17-0.513,2.059-0.513
					c0.847,0,1.67,0.185,2.471,0.553l-0.578,1.384c-0.352-0.151-0.681-0.274-0.987-0.371s-0.618-0.145-0.937-0.145
					c-0.566,0-0.849,0.153-0.849,0.459c0,0.172,0.091,0.32,0.273,0.446c0.183,0.126,0.582,0.312,1.198,0.56
					c0.549,0.223,0.952,0.43,1.208,0.622c0.255,0.193,0.444,0.415,0.566,0.667C88.205,124.788,88.266,125.088,88.266,125.436z"/>
				<path fill="#939393" d="M93.454,127.523l-0.371-0.956h-0.05c-0.323,0.407-0.655,0.688-0.997,0.846
					c-0.342,0.157-0.787,0.236-1.336,0.236c-0.675,0-1.207-0.193-1.594-0.579c-0.388-0.385-0.582-0.935-0.582-1.646
					c0-0.746,0.261-1.297,0.783-1.65c0.521-0.354,1.309-0.551,2.361-0.588l1.22-0.038v-0.309c0-0.712-0.365-1.068-1.094-1.068
					c-0.562,0-1.222,0.17-1.98,0.509l-0.635-1.295c0.809-0.423,1.706-0.635,2.691-0.635c0.943,0,1.666,0.205,2.169,0.616
					s0.754,1.035,0.754,1.873v4.685H93.454z M92.888,124.267l-0.742,0.025c-0.558,0.017-0.972,0.117-1.245,0.302
					s-0.409,0.465-0.409,0.842c0,0.541,0.31,0.812,0.93,0.812c0.444,0,0.8-0.128,1.066-0.384c0.266-0.255,0.399-0.595,0.399-1.019
					V124.267z"/>
				<path fill="#939393" d="M98.956,126.121c0.335,0,0.738-0.073,1.207-0.22v1.427c-0.478,0.214-1.064,0.321-1.76,0.321
					c-0.767,0-1.326-0.194-1.676-0.582c-0.35-0.388-0.525-0.969-0.525-1.744v-3.39h-0.918v-0.811l1.056-0.642l0.554-1.483h1.226
					v1.496h1.968v1.439H98.12v3.39c0,0.272,0.076,0.474,0.229,0.604C98.502,126.057,98.704,126.121,98.956,126.121z"/>
				<path fill="#939393" d="M100.729,118.677c0-0.624,0.348-0.937,1.043-0.937s1.044,0.312,1.044,0.937
					c0,0.298-0.087,0.529-0.261,0.695c-0.174,0.165-0.435,0.248-0.783,0.248C101.077,119.62,100.729,119.306,100.729,118.677z
					 M102.729,127.523h-1.918v-7.029h1.918V127.523z"/>
				<path fill="#939393" d="M108.872,125.436c0,0.722-0.25,1.271-0.751,1.647c-0.501,0.378-1.25,0.566-2.248,0.566
					c-0.512,0-0.947-0.035-1.308-0.104c-0.361-0.069-0.698-0.171-1.013-0.306v-1.584c0.356,0.168,0.758,0.308,1.204,0.421
					s0.839,0.17,1.179,0.17c0.695,0,1.043-0.201,1.043-0.604c0-0.151-0.046-0.273-0.138-0.368c-0.092-0.094-0.251-0.201-0.478-0.32
					c-0.226-0.119-0.528-0.259-0.905-0.418c-0.541-0.227-0.938-0.437-1.191-0.629c-0.254-0.192-0.438-0.414-0.553-0.663
					c-0.115-0.25-0.173-0.557-0.173-0.921c0-0.625,0.242-1.108,0.726-1.449c0.484-0.342,1.17-0.513,2.059-0.513
					c0.847,0,1.67,0.185,2.471,0.553l-0.578,1.384c-0.352-0.151-0.681-0.274-0.987-0.371s-0.618-0.145-0.937-0.145
					c-0.566,0-0.849,0.153-0.849,0.459c0,0.172,0.091,0.32,0.273,0.446c0.183,0.126,0.582,0.312,1.198,0.56
					c0.549,0.223,0.952,0.43,1.208,0.622c0.255,0.193,0.444,0.415,0.566,0.667C108.811,124.788,108.872,125.088,108.872,125.436z"/>
				<path fill="#939393" d="M113.481,121.934h-1.66v5.59h-1.918v-5.59h-1.056v-0.924l1.056-0.516v-0.516
					c0-0.801,0.197-1.385,0.591-1.754c0.394-0.369,1.024-0.554,1.892-0.554c0.663,0,1.251,0.099,1.767,0.296l-0.491,1.408
					c-0.386-0.121-0.742-0.183-1.069-0.183c-0.272,0-0.469,0.081-0.591,0.242s-0.182,0.368-0.182,0.619v0.44h1.66V121.934z"/>
				<path fill="#939393" d="M116.991,127.649c-1.132,0-2.016-0.312-2.653-0.938c-0.637-0.624-0.956-1.509-0.956-2.652
					c0-1.179,0.294-2.089,0.883-2.732s1.403-0.965,2.442-0.965c0.994,0,1.767,0.283,2.32,0.849s0.83,1.348,0.83,2.345v0.931h-4.533
					c0.021,0.545,0.183,0.971,0.484,1.276c0.302,0.307,0.725,0.459,1.27,0.459c0.423,0,0.824-0.044,1.201-0.132
					c0.377-0.088,0.771-0.229,1.182-0.421v1.483c-0.335,0.168-0.694,0.293-1.075,0.374
					C118.005,127.608,117.54,127.649,116.991,127.649z M116.72,121.727c-0.407,0-0.725,0.129-0.956,0.387s-0.363,0.623-0.396,1.097
					h2.691c-0.009-0.474-0.132-0.839-0.371-1.097S117.127,121.727,116.72,121.727z"/>
				<path fill="#939393" d="M120.563,118.677c0-0.624,0.348-0.937,1.043-0.937s1.044,0.312,1.044,0.937
					c0,0.298-0.087,0.529-0.261,0.695c-0.174,0.165-0.435,0.248-0.783,0.248C120.911,119.62,120.563,119.306,120.563,118.677z
					 M122.562,127.523h-1.918v-7.029h1.918V127.523z"/>
				<path fill="#939393" d="M126.763,126.121c0.335,0,0.738-0.073,1.207-0.22v1.427c-0.478,0.214-1.064,0.321-1.76,0.321
					c-0.767,0-1.326-0.194-1.676-0.582c-0.35-0.388-0.525-0.969-0.525-1.744v-3.39h-0.918v-0.811l1.056-0.642l0.554-1.483h1.226
					v1.496h1.968v1.439h-1.968v3.39c0,0.272,0.076,0.474,0.229,0.604C126.309,126.057,126.511,126.121,126.763,126.121z"/>
				<path fill="#939393" d="M135.006,123.996c0,1.145-0.302,2.039-0.905,2.685c-0.604,0.646-1.444,0.969-2.521,0.969
					c-0.675,0-1.27-0.148-1.786-0.443c-0.516-0.296-0.912-0.72-1.188-1.273c-0.276-0.553-0.415-1.198-0.415-1.937
					c0-1.148,0.299-2.041,0.899-2.679c0.599-0.637,1.442-0.955,2.527-0.955c0.675,0,1.27,0.146,1.786,0.439
					c0.516,0.294,0.912,0.715,1.188,1.265C134.868,122.615,135.006,123.259,135.006,123.996z M130.146,123.996
					c0,0.696,0.114,1.222,0.343,1.578s0.601,0.534,1.116,0.534c0.511,0,0.879-0.177,1.103-0.531
					c0.225-0.354,0.336-0.881,0.336-1.581c0-0.695-0.113-1.218-0.339-1.565s-0.597-0.521-1.113-0.521
					c-0.512,0-0.88,0.173-1.106,0.519C130.259,122.773,130.146,123.296,130.146,123.996z"/>
				<path fill="#939393" d="M140.722,125.436c0,0.722-0.251,1.271-0.751,1.647c-0.501,0.378-1.25,0.566-2.248,0.566
					c-0.512,0-0.947-0.035-1.308-0.104c-0.361-0.069-0.698-0.171-1.013-0.306v-1.584c0.356,0.168,0.758,0.308,1.204,0.421
					s0.839,0.17,1.179,0.17c0.695,0,1.043-0.201,1.043-0.604c0-0.151-0.046-0.273-0.138-0.368c-0.093-0.094-0.252-0.201-0.479-0.32
					c-0.226-0.119-0.528-0.259-0.905-0.418c-0.541-0.227-0.938-0.437-1.191-0.629c-0.254-0.192-0.438-0.414-0.553-0.663
					c-0.115-0.25-0.173-0.557-0.173-0.921c0-0.625,0.242-1.108,0.726-1.449c0.484-0.342,1.17-0.513,2.059-0.513
					c0.846,0,1.67,0.185,2.471,0.553l-0.579,1.384c-0.352-0.151-0.681-0.274-0.986-0.371c-0.307-0.097-0.619-0.145-0.937-0.145
					c-0.566,0-0.849,0.153-0.849,0.459c0,0.172,0.091,0.32,0.273,0.446c0.183,0.126,0.582,0.312,1.197,0.56
					c0.55,0.223,0.952,0.43,1.208,0.622c0.256,0.193,0.444,0.415,0.565,0.667C140.662,124.788,140.722,125.088,140.722,125.436z"/>
			</g>
		</g>
	</g>
</g>
</svg>
