<?xml version="1.0" encoding="utf-8"?>
<!-- Generator: Adobe Illustrator 15.0.0, SVG Export Plug-In . SVG Version: 6.00 Build 0)  -->
<!DOCTYPE svg PUBLIC "-//W3C//DTD SVG 1.1//EN" "http://www.w3.org/Graphics/SVG/1.1/DTD/svg11.dtd">
<svg version="1.1" id="Layer_1" xmlns="http://www.w3.org/2000/svg" xmlns:xlink="http://www.w3.org/1999/xlink" x="0px" y="0px"
	 width="159.333px" height="153.667px" viewBox="0 0 159.333 153.667" enable-background="new 0 0 159.333 153.667"
	 xml:space="preserve">
<g>
	<g>
		<rect x="1.734" y="2.315" fill="#F9F9F9" width="155.864" height="143.632"/>
		<rect x="2" y="2.478" fill="#F5F6F8" width="155.333" height="143.308"/>
		<rect x="2.266" y="2.597" fill="#F2F2F2" width="154.802" height="143.067"/>
		<rect x="2.542" y="2.675" fill="#EFEFEF" width="154.249" height="142.911"/>
		<rect x="2.792" y="2.769" fill="#EDECED" width="153.749" height="142.724"/>
		<rect x="3.083" y="2.935" fill="#E8E7E7" width="153.166" height="142.392"/>
		<rect x="3.333" y="3.131" fill="#FFFFFF" width="152.666" height="141.834"/>
		<rect x="12.833" y="12.478" fill="#F9F9FA" width="133.666" height="122.999"/>
		<g>
			<path fill="#F2F2F2" d="M155.677,146.395L3.474,146.576l0.094,4.775c49.251-5.598,135.439-5.432,151.953-0.301L155.677,146.395z"
				/>
			<path fill="#EAEAE9" d="M155.677,145.867L3.474,146.049l0.249,4.688c49.251-5.598,135.175-5.363,151.69-0.234L155.677,145.867z"
				/>
			<path fill="#E2E2E1" d="M155.677,144.992L3.474,145.174l0.374,4.812c48.163-5.018,139.906-4.391,151.533-0.219L155.677,144.992z"
				/>
			<path fill="#D8D8D7" d="M155.583,145.053L3.646,145.113l0.326,3.998c48.164-5.018,139.752-4.469,151.379-0.297L155.583,145.053z"
				/>
			<path fill="#D3D3D3" d="M155.444,145.043H3.754l0.374,3.459c47.075-4.33,140.271-3.082,151.207-0.281L155.444,145.043z"/>
			<path fill="#C8C8C8" d="M155.32,145.043H3.878l0.343,2.803c46.96-3.012,141.802-2.658,150.989-0.375L155.32,145.043z"/>
			<path fill="#C4C3C3" d="M155.196,145.578c-0.016-0.293-0.031-0.535-0.031-0.535H4.001l0.328,2.209
				c46.894-3.01,141.65-2.314,150.74-0.031c0.02-0.033,0.021-0.182,0.031-0.266L155.196,145.578z"/>
		</g>
	</g>
	<g>
		<g>
			<g>
				<path fill="#939393" d="M38.997,49.468l-0.951-2.449h-0.129c-0.827,1.042-1.679,1.765-2.554,2.167
					c-0.876,0.403-2.017,0.604-3.424,0.604c-1.729,0-3.092-0.494-4.085-1.482s-1.49-2.396-1.49-4.222
					c0-1.912,0.669-3.321,2.006-4.229c1.338-0.907,3.354-1.41,6.051-1.507l3.126-0.097v-0.789c0-1.826-0.935-2.739-2.804-2.739
					c-1.439,0-3.132,0.435-5.076,1.305L28.04,32.71c2.073-1.084,4.372-1.627,6.896-1.627c2.417,0,4.27,0.526,5.559,1.579
					s1.934,2.653,1.934,4.802v12.004H38.997z M37.547,41.122l-1.901,0.064c-1.429,0.043-2.492,0.301-3.19,0.773
					s-1.048,1.192-1.048,2.159c0,1.386,0.795,2.079,2.385,2.079c1.139,0,2.049-0.328,2.731-0.983
					c0.682-0.655,1.023-1.525,1.023-2.61V41.122z"/>
				<path fill="#939393" d="M66.909,49.468h-4.914V38.947c0-1.3-0.218-2.274-0.653-2.925c-0.435-0.649-1.119-0.975-2.054-0.975
					c-1.257,0-2.17,0.462-2.739,1.386s-0.854,2.443-0.854,4.56v8.476H50.78V31.454h3.754l0.661,2.305h0.273
					c0.483-0.827,1.182-1.475,2.095-1.941c0.913-0.468,1.961-0.701,3.143-0.701c2.696,0,4.521,0.881,5.479,2.643h0.435
					c0.483-0.838,1.195-1.488,2.135-1.95c0.94-0.461,2.001-0.692,3.183-0.692c2.041,0,3.585,0.523,4.633,1.571
					c1.047,1.047,1.57,2.726,1.57,5.035v11.746h-4.931V38.947c0-1.3-0.217-2.274-0.652-2.925c-0.435-0.649-1.12-0.975-2.055-0.975
					c-1.203,0-2.103,0.43-2.698,1.289c-0.597,0.859-0.895,2.224-0.895,4.093V49.468z"/>
				<path fill="#939393" d="M91.984,49.468l-0.951-2.449h-0.129c-0.827,1.042-1.679,1.765-2.554,2.167
					c-0.876,0.403-2.017,0.604-3.424,0.604c-1.729,0-3.092-0.494-4.085-1.482s-1.49-2.396-1.49-4.222
					c0-1.912,0.669-3.321,2.006-4.229c1.338-0.907,3.354-1.41,6.051-1.507l3.126-0.097v-0.789c0-1.826-0.935-2.739-2.804-2.739
					c-1.439,0-3.132,0.435-5.076,1.305l-1.627-3.319c2.073-1.084,4.372-1.627,6.896-1.627c2.417,0,4.27,0.526,5.559,1.579
					s1.934,2.653,1.934,4.802v12.004H91.984z M90.534,41.122l-1.901,0.064c-1.429,0.043-2.492,0.301-3.19,0.773
					s-1.048,1.192-1.048,2.159c0,1.386,0.795,2.079,2.385,2.079c1.139,0,2.049-0.328,2.731-0.983
					c0.682-0.655,1.023-1.525,1.023-2.61V41.122z"/>
				<path fill="#939393" d="M97.625,26.797c0-1.601,0.892-2.4,2.675-2.4s2.675,0.8,2.675,2.4c0,0.763-0.223,1.356-0.668,1.78
					c-0.446,0.425-1.115,0.637-2.007,0.637C98.517,29.214,97.625,28.409,97.625,26.797z M102.749,49.468h-4.914V31.454h4.914V49.468
					z"/>
				<path fill="#939393" d="M121.637,40.429c0,2.933-0.773,5.226-2.32,6.88s-3.701,2.481-6.462,2.481
					c-1.729,0-3.255-0.379-4.576-1.136c-1.321-0.758-2.336-1.845-3.045-3.263s-1.063-3.072-1.063-4.963
					c0-2.943,0.768-5.231,2.304-6.864s3.695-2.449,6.478-2.449c1.729,0,3.255,0.376,4.576,1.128s2.337,1.831,3.046,3.238
					S121.637,38.539,121.637,40.429z M109.181,40.429c0,1.783,0.293,3.131,0.879,4.044c0.585,0.913,1.538,1.37,2.859,1.37
					c1.311,0,2.253-0.454,2.828-1.362c0.574-0.907,0.862-2.258,0.862-4.052c0-1.783-0.29-3.121-0.87-4.013s-1.531-1.337-2.853-1.337
					c-1.311,0-2.256,0.443-2.836,1.329C109.471,37.295,109.181,38.635,109.181,40.429z"/>
				<path fill="#939393" d="M133.112,31.116c0.666,0,1.219,0.048,1.659,0.145l-0.37,4.608c-0.397-0.107-0.881-0.161-1.45-0.161
					c-1.568,0-2.791,0.403-3.666,1.209c-0.876,0.806-1.313,1.934-1.313,3.384v9.168h-4.914V31.454h3.722l0.726,3.029h0.241
					c0.559-1.009,1.313-1.823,2.265-2.44C130.961,31.424,131.995,31.116,133.112,31.116z"/>
			</g>
		</g>
		<g>
			<g>
				<path fill="#939393" d="M40.109,68.788c0,1.643-0.57,2.893-1.711,3.752c-1.142,0.859-2.849,1.289-5.121,1.289
					c-1.165,0-2.157-0.078-2.979-0.236c-0.821-0.157-1.59-0.389-2.306-0.694v-3.609c0.812,0.382,1.726,0.702,2.742,0.96
					c1.018,0.258,1.912,0.387,2.686,0.387c1.585,0,2.378-0.459,2.378-1.375c0-0.344-0.105-0.623-0.315-0.838
					s-0.573-0.459-1.089-0.73c-0.516-0.272-1.203-0.59-2.062-0.952c-1.231-0.516-2.136-0.993-2.714-1.433
					c-0.577-0.439-0.998-0.943-1.26-1.511c-0.263-0.568-0.395-1.268-0.395-2.099c0-1.423,0.552-2.523,1.654-3.302
					c1.104-0.777,2.666-1.167,4.69-1.167c1.929,0,3.806,0.421,5.629,1.261l-1.317,3.15c-0.802-0.344-1.552-0.625-2.249-0.845
					c-0.696-0.22-1.408-0.329-2.134-0.329c-1.289,0-1.934,0.349-1.934,1.045c0,0.392,0.208,0.73,0.623,1.018
					c0.415,0.286,1.325,0.711,2.729,1.274c1.251,0.506,2.167,0.979,2.75,1.418c0.582,0.439,1.012,0.945,1.289,1.519
					C39.971,67.312,40.109,67.995,40.109,68.788z"/>
				<path fill="#939393" d="M48.419,73.829c-2.578,0-4.593-0.711-6.044-2.134c-1.452-1.423-2.178-3.438-2.178-6.044
					c0-2.683,0.671-4.758,2.013-6.224c1.341-1.465,3.196-2.198,5.564-2.198c2.263,0,4.024,0.645,5.285,1.934
					c1.26,1.289,1.891,3.07,1.891,5.343v2.119H44.623c0.048,1.241,0.415,2.211,1.103,2.907c0.688,0.697,1.652,1.046,2.894,1.046
					c0.964,0,1.876-0.101,2.735-0.301s1.757-0.521,2.693-0.96v3.381c-0.765,0.382-1.581,0.666-2.449,0.852
					C50.729,73.736,49.669,73.829,48.419,73.829z M47.803,60.337c-0.926,0-1.652,0.293-2.177,0.881
					c-0.525,0.587-0.826,1.42-0.902,2.499h6.13c-0.02-1.079-0.301-1.912-0.845-2.499C49.464,60.63,48.729,60.337,47.803,60.337z"/>
				<path fill="#939393" d="M59.436,65.365l-5.156-7.835h4.956l3.107,5.099l3.137-5.099h4.956l-5.214,7.835l5.457,8.178h-4.97
					l-3.366-5.485l-3.38,5.485h-4.955L59.436,65.365z"/>
				<path fill="#939393" d="M87.211,68.788c0,1.643-0.57,2.893-1.711,3.752c-1.142,0.859-2.849,1.289-5.121,1.289
					c-1.165,0-2.157-0.078-2.979-0.236c-0.821-0.157-1.59-0.389-2.306-0.694v-3.609c0.812,0.382,1.726,0.702,2.742,0.96
					c1.018,0.258,1.912,0.387,2.686,0.387c1.585,0,2.378-0.459,2.378-1.375c0-0.344-0.105-0.623-0.315-0.838
					s-0.573-0.459-1.089-0.73c-0.516-0.272-1.203-0.59-2.062-0.952c-1.231-0.516-2.136-0.993-2.714-1.433
					c-0.577-0.439-0.998-0.943-1.26-1.511c-0.263-0.568-0.395-1.268-0.395-2.099c0-1.423,0.552-2.523,1.654-3.302
					c1.104-0.777,2.666-1.167,4.69-1.167c1.929,0,3.806,0.421,5.629,1.261l-1.317,3.15c-0.802-0.344-1.552-0.625-2.249-0.845
					c-0.696-0.22-1.408-0.329-2.134-0.329c-1.289,0-1.934,0.349-1.934,1.045c0,0.392,0.208,0.73,0.623,1.018
					c0.415,0.286,1.325,0.711,2.729,1.274c1.251,0.506,2.167,0.979,2.75,1.418c0.582,0.439,1.012,0.945,1.289,1.519
					C87.072,67.312,87.211,67.995,87.211,68.788z"/>
				<path fill="#939393" d="M103.054,73.542h-4.368V64.19c0-2.311-0.859-3.466-2.578-3.466c-1.223,0-2.105,0.415-2.649,1.246
					c-0.545,0.83-0.816,2.177-0.816,4.039v7.533h-4.368V51.256h4.368v4.541c0,0.353-0.034,1.184-0.101,2.491l-0.101,1.289h0.229
					c0.974-1.565,2.521-2.349,4.641-2.349c1.881,0,3.309,0.507,4.282,1.519c0.975,1.012,1.461,2.463,1.461,4.354V73.542z"/>
				<path fill="#939393" d="M119.757,65.507c0,2.606-0.688,4.646-2.062,6.116s-3.29,2.205-5.744,2.205
					c-1.537,0-2.893-0.336-4.067-1.01c-1.174-0.673-2.076-1.64-2.707-2.9c-0.63-1.26-0.945-2.73-0.945-4.411
					c0-2.616,0.683-4.649,2.049-6.102c1.365-1.451,3.284-2.177,5.757-2.177c1.537,0,2.894,0.335,4.068,1.003
					c1.174,0.668,2.076,1.628,2.707,2.879C119.441,62.362,119.757,63.827,119.757,65.507z M108.685,65.507
					c0,1.585,0.261,2.784,0.781,3.595c0.521,0.812,1.367,1.218,2.542,1.218c1.165,0,2.003-0.403,2.514-1.21s0.767-2.008,0.767-3.603
					c0-1.585-0.258-2.773-0.773-3.566c-0.516-0.792-1.361-1.188-2.535-1.188c-1.165,0-2.006,0.394-2.521,1.182
					S108.685,63.913,108.685,65.507z"/>
				<path fill="#939393" d="M129.813,73.829c-1.882,0-3.356-0.683-4.426-2.048h-0.229c0.152,1.337,0.229,2.11,0.229,2.32v6.489
					h-4.368V57.53h3.552l0.615,2.077h0.201c1.021-1.585,2.535-2.378,4.54-2.378c1.891,0,3.37,0.73,4.44,2.191
					c1.068,1.461,1.604,3.49,1.604,6.087c0,1.71-0.251,3.194-0.752,4.454c-0.501,1.261-1.215,2.221-2.141,2.879
					C132.152,73.5,131.063,73.829,129.813,73.829z M128.524,60.724c-1.079,0-1.867,0.332-2.363,0.995
					c-0.497,0.664-0.755,1.76-0.773,3.287v0.473c0,1.719,0.255,2.95,0.766,3.695c0.511,0.744,1.32,1.117,2.428,1.117
					c1.958,0,2.937-1.613,2.937-4.841c0-1.576-0.241-2.758-0.724-3.545C130.312,61.118,129.556,60.724,128.524,60.724z"/>
			</g>
		</g>
		<g>
			<g>
				<path fill="#939393" d="M36.859,95.619H36.75c-0.933,1.355-2.327,2.031-4.184,2.031c-1.743,0-3.1-0.596-4.068-1.787
					s-1.453-2.887-1.453-5.084s0.486-3.904,1.46-5.119c0.973-1.217,2.326-1.824,4.062-1.824c1.809,0,3.194,0.656,4.159,1.969h0.158
					l-0.085-0.961l-0.049-0.936v-5.424h2.02v18.924h-1.643L36.859,95.619z M32.822,95.961c1.378,0,2.377-0.375,2.998-1.125
					c0.62-0.75,0.93-1.961,0.93-3.631v-0.426c0-1.889-0.314-3.236-0.942-4.043s-1.632-1.211-3.01-1.211
					c-1.184,0-2.09,0.461-2.719,1.381c-0.628,0.92-0.942,2.219-0.942,3.898c0,1.701,0.312,2.986,0.937,3.854
					C30.697,95.527,31.614,95.961,32.822,95.961z"/>
				<path fill="#939393" d="M49.255,97.408l-0.401-1.898h-0.098c-0.665,0.836-1.327,1.402-1.988,1.697s-1.486,0.443-2.475,0.443
					c-1.322,0-2.358-0.34-3.107-1.021c-0.75-0.68-1.125-1.648-1.125-2.906c0-2.691,2.152-4.104,6.458-4.232l2.262-0.072V88.59
					c0-1.045-0.225-1.818-0.675-2.316s-1.17-0.748-2.159-0.748c-1.11,0-2.367,0.34-3.77,1.021l-0.621-1.545
					c0.657-0.355,1.377-0.637,2.159-0.838c0.782-0.203,1.566-0.305,2.354-0.305c1.589,0,2.767,0.354,3.533,1.059
					c0.766,0.705,1.149,1.836,1.149,3.393v9.098H49.255z M44.694,95.984c1.256,0,2.243-0.344,2.961-1.033s1.076-1.654,1.076-2.895
					v-1.205l-2.019,0.086c-1.605,0.057-2.763,0.307-3.473,0.748c-0.709,0.441-1.063,1.129-1.063,2.061
					c0,0.73,0.221,1.285,0.662,1.668C43.281,95.795,43.899,95.984,44.694,95.984z"/>
				<path fill="#939393" d="M65.593,97.408l-0.401-1.898h-0.098c-0.665,0.836-1.327,1.402-1.988,1.697s-1.486,0.443-2.475,0.443
					c-1.322,0-2.358-0.34-3.107-1.021c-0.75-0.68-1.125-1.648-1.125-2.906c0-2.691,2.152-4.104,6.458-4.232l2.262-0.072V88.59
					c0-1.045-0.225-1.818-0.675-2.316s-1.17-0.748-2.159-0.748c-1.11,0-2.367,0.34-3.77,1.021l-0.621-1.545
					c0.657-0.355,1.377-0.637,2.159-0.838c0.782-0.203,1.566-0.305,2.354-0.305c1.589,0,2.767,0.354,3.533,1.059
					c0.766,0.705,1.149,1.836,1.149,3.393v9.098H65.593z M61.032,95.984c1.256,0,2.243-0.344,2.961-1.033s1.076-1.654,1.076-2.895
					v-1.205l-2.019,0.086c-1.605,0.057-2.763,0.307-3.473,0.748c-0.709,0.441-1.063,1.129-1.063,2.061
					c0,0.73,0.221,1.285,0.662,1.668C59.619,95.795,60.237,95.984,61.032,95.984z"/>
				<path fill="#939393" d="M86.245,97.408v-8.672c0-1.062-0.228-1.859-0.682-2.391c-0.454-0.529-1.159-0.795-2.116-0.795
					c-1.257,0-2.185,0.359-2.784,1.082c-0.601,0.721-0.9,1.832-0.9,3.332v7.443h-2.019v-8.672c0-1.062-0.228-1.859-0.682-2.391
					c-0.454-0.529-1.163-0.795-2.128-0.795c-1.265,0-2.191,0.379-2.779,1.137s-0.882,2-0.882,3.727v6.994h-2.019v-13.33h1.642
					l0.328,1.824h0.098c0.381-0.648,0.918-1.154,1.611-1.52s1.47-0.547,2.329-0.547c2.084,0,3.446,0.754,4.087,2.262h0.097
					c0.397-0.697,0.973-1.25,1.728-1.654c0.754-0.406,1.613-0.607,2.578-0.607c1.508,0,2.637,0.387,3.387,1.16
					c0.75,0.775,1.125,2.014,1.125,3.717v8.695H86.245z"/>
				<path fill="#939393" d="M96.062,97.65c-1.971,0-3.525-0.6-4.664-1.799c-1.14-1.201-1.709-2.867-1.709-5
					c0-2.148,0.529-3.854,1.587-5.119c1.059-1.266,2.479-1.896,4.263-1.896c1.671,0,2.992,0.549,3.965,1.646
					c0.974,1.1,1.46,2.549,1.46,4.348v1.277H91.78c0.041,1.564,0.436,2.754,1.186,3.564s1.807,1.215,3.169,1.215
					c1.435,0,2.854-0.299,4.257-0.898v1.799c-0.714,0.309-1.389,0.529-2.025,0.664C97.729,97.584,96.962,97.65,96.062,97.65z
					 M95.515,85.525c-1.07,0-1.924,0.35-2.561,1.047s-1.012,1.662-1.125,2.895h6.969c0-1.273-0.284-2.248-0.852-2.926
					S96.568,85.525,95.515,85.525z M94.019,82.01c0.389-0.502,0.809-1.109,1.259-1.824c0.45-0.713,0.805-1.332,1.063-1.859h2.457
					v0.254c-0.356,0.527-0.888,1.176-1.593,1.947c-0.706,0.77-1.318,1.365-1.837,1.787h-1.35V82.01z"/>
				<path fill="#939393" d="M108.493,83.836c0.592,0,1.123,0.047,1.593,0.145l-0.279,1.873c-0.552-0.121-1.038-0.182-1.46-0.182
					c-1.078,0-2,0.438-2.767,1.312c-0.766,0.877-1.149,1.967-1.149,3.271v7.152h-2.019v-13.33h1.666l0.231,2.469h0.097
					c0.495-0.867,1.091-1.537,1.788-2.006C106.892,84.07,107.658,83.836,108.493,83.836z"/>
				<path fill="#939393" d="M110.417,80.467c0-0.463,0.113-0.801,0.34-1.016c0.228-0.215,0.511-0.322,0.852-0.322
					c0.324,0,0.604,0.109,0.839,0.328s0.353,0.555,0.353,1.01c0,0.453-0.117,0.791-0.353,1.016
					c-0.235,0.223-0.515,0.334-0.839,0.334c-0.341,0-0.624-0.111-0.852-0.334C110.53,81.258,110.417,80.92,110.417,80.467z
					 M112.605,97.408h-2.019v-13.33h2.019V97.408z"/>
				<path fill="#939393" d="M120.222,97.65c-1.93,0-3.424-0.594-4.482-1.781c-1.058-1.188-1.587-2.867-1.587-5.041
					c0-2.23,0.537-3.953,1.611-5.168c1.074-1.217,2.604-1.824,4.592-1.824c0.64,0,1.28,0.068,1.921,0.205
					c0.641,0.139,1.144,0.301,1.509,0.486l-0.621,1.715c-0.445-0.178-0.932-0.326-1.459-0.443s-0.993-0.176-1.398-0.176
					c-2.708,0-4.062,1.727-4.062,5.182c0,1.637,0.33,2.895,0.991,3.77s1.64,1.312,2.938,1.312c1.11,0,2.25-0.238,3.417-0.717v1.787
					C122.698,97.42,121.575,97.65,120.222,97.65z"/>
				<path fill="#939393" d="M132.957,97.408l-0.401-1.898h-0.098c-0.665,0.836-1.327,1.402-1.988,1.697s-1.486,0.443-2.475,0.443
					c-1.322,0-2.358-0.34-3.107-1.021c-0.75-0.68-1.125-1.648-1.125-2.906c0-2.691,2.152-4.104,6.458-4.232l2.262-0.072V88.59
					c0-1.045-0.225-1.818-0.675-2.316s-1.17-0.748-2.159-0.748c-1.11,0-2.367,0.34-3.77,1.021l-0.621-1.545
					c0.657-0.355,1.377-0.637,2.159-0.838c0.782-0.203,1.566-0.305,2.354-0.305c1.589,0,2.767,0.354,3.533,1.059
					c0.766,0.705,1.149,1.836,1.149,3.393v9.098H132.957z M128.396,95.984c1.256,0,2.243-0.344,2.961-1.033s1.076-1.654,1.076-2.895
					v-1.205l-2.019,0.086c-1.605,0.057-2.763,0.307-3.473,0.748c-0.709,0.441-1.063,1.129-1.063,2.061
					c0,0.73,0.221,1.285,0.662,1.668C126.983,95.795,127.602,95.984,128.396,95.984z"/>
			</g>
		</g>
		<g>
			<g>
				<path fill="#939393" d="M29.139,120.742H27.12v-18.924h2.019V120.742z"/>
				<path fill="#939393" d="M39.625,120.742l-0.401-1.898h-0.098c-0.665,0.836-1.327,1.402-1.988,1.697s-1.486,0.443-2.475,0.443
					c-1.322,0-2.358-0.34-3.107-1.021c-0.75-0.68-1.125-1.648-1.125-2.906c0-2.691,2.152-4.104,6.458-4.232l2.262-0.072v-0.828
					c0-1.045-0.225-1.818-0.675-2.316s-1.17-0.748-2.159-0.748c-1.11,0-2.367,0.34-3.77,1.021l-0.621-1.545
					c0.657-0.355,1.377-0.637,2.159-0.838c0.782-0.203,1.566-0.305,2.354-0.305c1.589,0,2.767,0.354,3.533,1.059
					c0.766,0.705,1.149,1.836,1.149,3.393v9.098H39.625z M35.064,119.318c1.256,0,2.243-0.344,2.961-1.033s1.076-1.654,1.076-2.895
					v-1.205l-2.019,0.086c-1.605,0.057-2.763,0.307-3.473,0.748c-0.709,0.441-1.063,1.129-1.063,2.061
					c0,0.73,0.221,1.285,0.662,1.668C33.651,119.129,34.27,119.318,35.064,119.318z"/>
				<path fill="#939393" d="M47.593,119.318c0.356,0,0.701-0.025,1.033-0.078s0.596-0.107,0.791-0.164v1.543
					c-0.22,0.105-0.542,0.193-0.967,0.262c-0.426,0.07-0.81,0.104-1.149,0.104c-2.579,0-3.868-1.357-3.868-4.074v-7.93h-1.909
					v-0.973l1.909-0.838l0.852-2.848h1.168v3.09h3.867v1.568h-3.867v7.846c0,0.803,0.19,1.418,0.571,1.848
					S46.928,119.318,47.593,119.318z"/>
				<path fill="#939393" d="M49.918,103.801c0-0.463,0.113-0.801,0.34-1.016c0.228-0.215,0.511-0.322,0.852-0.322
					c0.324,0,0.604,0.109,0.839,0.328s0.353,0.555,0.353,1.01c0,0.453-0.117,0.791-0.353,1.016
					c-0.235,0.223-0.515,0.334-0.839,0.334c-0.341,0-0.624-0.111-0.852-0.334C50.031,104.592,49.918,104.254,49.918,103.801z
					 M52.106,120.742h-2.019v-13.33h2.019V120.742z"/>
				<path fill="#939393" d="M63.516,120.742v-8.623c0-1.086-0.247-1.898-0.741-2.434c-0.495-0.533-1.27-0.801-2.323-0.801
					c-1.395,0-2.416,0.377-3.064,1.131c-0.649,0.754-0.974,1.998-0.974,3.732v6.994h-2.019v-13.33h1.642l0.328,1.824h0.098
					c0.413-0.656,0.993-1.166,1.739-1.525c0.746-0.361,1.577-0.541,2.493-0.541c1.605,0,2.813,0.387,3.624,1.16
					c0.811,0.775,1.217,2.014,1.217,3.717v8.695H63.516z"/>
				<path fill="#939393" d="M75.887,120.742l-0.401-1.898h-0.098c-0.665,0.836-1.327,1.402-1.988,1.697s-1.486,0.443-2.475,0.443
					c-1.322,0-2.358-0.34-3.107-1.021c-0.75-0.68-1.125-1.648-1.125-2.906c0-2.691,2.152-4.104,6.458-4.232l2.262-0.072v-0.828
					c0-1.045-0.225-1.818-0.675-2.316s-1.17-0.748-2.159-0.748c-1.11,0-2.367,0.34-3.77,1.021l-0.621-1.545
					c0.657-0.355,1.377-0.637,2.159-0.838c0.782-0.203,1.566-0.305,2.354-0.305c1.589,0,2.767,0.354,3.533,1.059
					c0.766,0.705,1.149,1.836,1.149,3.393v9.098H75.887z M71.326,119.318c1.256,0,2.243-0.344,2.961-1.033s1.076-1.654,1.076-2.895
					v-1.205l-2.019,0.086c-1.605,0.057-2.763,0.307-3.473,0.748c-0.709,0.441-1.063,1.129-1.063,2.061
					c0,0.73,0.221,1.285,0.662,1.668C69.913,119.129,70.531,119.318,71.326,119.318z"/>
			</g>
		</g>
	</g>
</g>
</svg>
