<?xml version="1.0" encoding="utf-8"?>
<!-- Generator: Adobe Illustrator 15.0.0, SVG Export Plug-In . SVG Version: 6.00 Build 0)  -->
<!DOCTYPE svg PUBLIC "-//W3C//DTD SVG 1.1//EN" "http://www.w3.org/Graphics/SVG/1.1/DTD/svg11.dtd">
<svg version="1.1" id="Layer_1" xmlns="http://www.w3.org/2000/svg" xmlns:xlink="http://www.w3.org/1999/xlink" x="0px" y="0px"
	 width="159.333px" height="153.667px" viewBox="0 0 159.333 153.667" enable-background="new 0 0 159.333 153.667"
	 xml:space="preserve">
<g>
	<g>
		<rect x="1.734" y="2.315" fill="#F9F9F9" width="155.864" height="143.632"/>
		<rect x="2" y="2.477" fill="#F5F6F8" width="155.333" height="143.308"/>
		<rect x="2.266" y="2.596" fill="#F2F2F2" width="154.802" height="143.068"/>
		<rect x="2.542" y="2.674" fill="#EFEFEF" width="154.249" height="142.912"/>
		<rect x="2.792" y="2.768" fill="#EDECED" width="153.749" height="142.724"/>
		<rect x="3.083" y="2.934" fill="#E8E7E7" width="153.166" height="142.392"/>
		<rect x="3.333" y="3.13" fill="#FFFFFF" width="152.666" height="141.834"/>
		<rect x="12.833" y="12.477" fill="#F9F9FA" width="133.666" height="123"/>
		<g>
			<path fill="#F2F2F2" d="M155.677,146.395L3.474,146.576l0.094,4.775c49.251-5.598,135.439-5.432,151.953-0.301L155.677,146.395z"
				/>
			<path fill="#EAEAE9" d="M155.677,145.867L3.474,146.049l0.249,4.688c49.251-5.598,135.175-5.363,151.69-0.234L155.677,145.867z"
				/>
			<path fill="#E2E2E1" d="M155.677,144.992L3.474,145.174l0.374,4.812c48.163-5.018,139.906-4.391,151.533-0.219L155.677,144.992z"
				/>
			<path fill="#D8D8D7" d="M155.583,145.053L3.646,145.113l0.326,3.998c48.164-5.018,139.752-4.469,151.379-0.297L155.583,145.053z"
				/>
			<path fill="#D3D3D3" d="M155.444,145.043H3.754l0.374,3.459c47.075-4.33,140.271-3.082,151.207-0.281L155.444,145.043z"/>
			<path fill="#C8C8C8" d="M155.32,145.043H3.878l0.343,2.803c46.96-3.012,141.802-2.658,150.989-0.375L155.32,145.043z"/>
			<path fill="#C4C3C3" d="M155.196,145.578c-0.016-0.293-0.031-0.535-0.031-0.535H4.001l0.328,2.209
				c46.894-3.01,141.65-2.314,150.74-0.031c0.02-0.033,0.021-0.182,0.031-0.266L155.196,145.578z"/>
		</g>
	</g>
	<g>
		<g>
			<g>
				<path fill="#939393" d="M59.717,65.355h-9.2V40.167l0.089-4.138l0.149-4.526c-1.529,1.529-2.591,2.531-3.186,3.008l-5.002,4.019
					l-4.437-5.537l14.023-11.165h7.562V65.355z"/>
				<path fill="#939393" d="M79.464,21.262c4.168,0,7.527,0.947,10.078,2.843c2.55,1.896,3.826,4.451,3.826,7.667
					c0,2.223-0.616,4.203-1.847,5.939c-1.23,1.737-3.215,3.29-5.954,4.659c3.255,1.747,5.592,3.568,7.012,5.464
					c1.419,1.896,2.129,3.975,2.129,6.237c0,3.573-1.399,6.446-4.198,8.619c-2.799,2.174-6.481,3.261-11.046,3.261
					c-4.764,0-8.506-1.013-11.225-3.037c-2.72-2.024-4.079-4.893-4.079-8.604c0-2.48,0.66-4.685,1.98-6.609
					c1.319-1.925,3.438-3.622,6.356-5.092c-2.481-1.567-4.269-3.245-5.359-5.031c-1.092-1.786-1.638-3.741-1.638-5.865
					c0-3.116,1.29-5.637,3.87-7.562C71.95,22.225,75.315,21.262,79.464,21.262z M72.676,53.773c0,1.708,0.595,3.037,1.786,3.99
					c1.19,0.952,2.818,1.429,4.883,1.429c2.282,0,3.989-0.491,5.121-1.474c1.131-0.982,1.697-2.277,1.697-3.886
					c0-1.329-0.562-2.575-1.683-3.736s-2.942-2.396-5.463-3.707C74.789,48.335,72.676,50.796,72.676,53.773z M79.404,27.99
					c-1.568,0-2.834,0.401-3.796,1.206c-0.963,0.804-1.444,1.881-1.444,3.229c0,1.191,0.382,2.259,1.146,3.201
					c0.764,0.943,2.148,1.91,4.153,2.902c1.945-0.912,3.305-1.846,4.079-2.798c0.773-0.953,1.161-2.055,1.161-3.306
					c0-1.369-0.497-2.451-1.489-3.245C82.223,28.388,80.952,27.99,79.404,27.99z"/>
				<path fill="#939393" d="M125.794,43.591c0,7.603-1.246,13.229-3.737,16.882s-6.326,5.479-11.507,5.479
					c-5.022,0-8.809-1.886-11.358-5.657c-2.551-3.771-3.826-9.339-3.826-16.703c0-7.681,1.24-13.343,3.722-16.985
					c2.481-3.642,6.302-5.463,11.463-5.463c5.021,0,8.817,1.905,11.388,5.716C124.508,30.67,125.794,36.247,125.794,43.591z
					 M104.506,43.591c0,5.34,0.461,9.166,1.385,11.478c0.923,2.313,2.476,3.469,4.659,3.469c2.144,0,3.691-1.171,4.645-3.513
					s1.429-6.153,1.429-11.434c0-5.339-0.481-9.175-1.443-11.507c-0.963-2.332-2.506-3.498-4.63-3.498
					c-2.164,0-3.712,1.166-4.645,3.498C104.972,34.416,104.506,38.252,104.506,43.591z"/>
			</g>
		</g>
		<g>
			<g>
				<path fill="#939393" d="M64.645,90.116c-1.797,0-3.209-0.697-4.234-2.094c-1.026-1.396-1.54-3.329-1.54-5.802
					c0-2.509,0.522-4.463,1.567-5.863c1.044-1.4,2.483-2.101,4.316-2.101c1.925,0,3.394,0.748,4.406,2.244h0.137
					c-0.21-1.141-0.314-2.157-0.314-3.052v-4.898h4.188v21.292h-3.202l-0.808-1.984h-0.178
					C68.034,89.364,66.588,90.116,64.645,90.116z M66.109,86.791c1.067,0,1.849-0.31,2.347-0.931c0.497-0.62,0.769-1.674,0.813-3.16
					v-0.452c0-1.642-0.253-2.818-0.759-3.53c-0.507-0.712-1.33-1.067-2.47-1.067c-0.931,0-1.654,0.395-2.169,1.184
					c-0.516,0.789-0.773,1.937-0.773,3.441c0,1.506,0.26,2.635,0.78,3.387C64.398,86.415,65.142,86.791,66.109,86.791z"/>
				<path fill="#939393" d="M75.676,70.59c0-1.359,0.757-2.039,2.271-2.039c1.514,0,2.271,0.68,2.271,2.039
					c0,0.647-0.189,1.151-0.568,1.512c-0.378,0.36-0.946,0.541-1.703,0.541C76.433,72.643,75.676,71.958,75.676,70.59z
					 M80.027,89.843h-4.174V74.544h4.174V89.843z"/>
				<path fill="#939393" d="M92.44,89.843l-0.808-2.08h-0.109c-0.703,0.885-1.426,1.498-2.169,1.841
					c-0.744,0.342-1.713,0.513-2.908,0.513c-1.469,0-2.625-0.419-3.469-1.259c-0.844-0.839-1.266-2.034-1.266-3.585
					c0-1.624,0.568-2.821,1.704-3.592c1.136-0.771,2.848-1.197,5.138-1.279l2.655-0.083v-0.67c0-1.551-0.794-2.326-2.382-2.326
					c-1.222,0-2.659,0.369-4.31,1.108l-1.383-2.819c1.761-0.921,3.713-1.382,5.857-1.382c2.052,0,3.626,0.447,4.721,1.341
					c1.095,0.895,1.642,2.254,1.642,4.078v10.194H92.44z M91.209,82.755l-1.615,0.055c-1.213,0.036-2.116,0.255-2.709,0.656
					c-0.594,0.401-0.89,1.013-0.89,1.834c0,1.177,0.675,1.766,2.025,1.766c0.967,0,1.739-0.278,2.319-0.835
					c0.579-0.557,0.869-1.296,0.869-2.217V82.755z"/>
				<path fill="#939393" d="M108.644,85.3c0,1.569-0.546,2.764-1.636,3.585s-2.721,1.231-4.892,1.231
					c-1.113,0-2.062-0.075-2.847-0.226s-1.519-0.371-2.203-0.664v-3.448c0.775,0.365,1.649,0.671,2.621,0.917
					c0.971,0.246,1.826,0.37,2.565,0.37c1.514,0,2.271-0.438,2.271-1.314c0-0.328-0.101-0.595-0.301-0.8
					c-0.201-0.206-0.548-0.438-1.04-0.698c-0.493-0.26-1.149-0.563-1.971-0.91c-1.177-0.492-2.041-0.948-2.593-1.368
					c-0.553-0.42-0.954-0.9-1.205-1.443s-0.376-1.211-0.376-2.005c0-1.359,0.527-2.41,1.581-3.154
					c1.053-0.743,2.547-1.115,4.481-1.115c1.842,0,3.635,0.401,5.377,1.204l-1.259,3.011c-0.766-0.328-1.482-0.598-2.148-0.808
					s-1.346-0.314-2.039-0.314c-1.231,0-1.847,0.333-1.847,0.999c0,0.374,0.198,0.697,0.595,0.972
					c0.397,0.273,1.267,0.68,2.607,1.218c1.194,0.483,2.07,0.935,2.627,1.354s0.967,0.903,1.231,1.45
					C108.511,83.891,108.644,84.543,108.644,85.3z"/>
			</g>
		</g>
		<g>
			<g>
				<path fill="#939393" d="M48.997,108.819c-0.713,0-1.364-0.132-1.954-0.396c-0.59-0.263-1.084-0.668-1.484-1.214h-0.12
					c0.08,0.64,0.12,1.246,0.12,1.819v4.508h-1.659V97.665h1.35l0.229,1.499h0.08c0.427-0.6,0.923-1.033,1.489-1.3
					c0.566-0.266,1.216-0.399,1.949-0.399c1.452,0,2.574,0.496,3.363,1.489c0.79,0.993,1.185,2.386,1.185,4.178
					c0,1.799-0.401,3.197-1.204,4.193C51.537,108.321,50.423,108.819,48.997,108.819z M48.757,98.874
					c-1.119,0-1.929,0.31-2.429,0.93c-0.499,0.619-0.756,1.605-0.77,2.958v0.37c0,1.539,0.257,2.641,0.77,3.304
					c0.514,0.663,1.336,0.994,2.469,0.994c0.946,0,1.688-0.383,2.225-1.149c0.536-0.766,0.805-1.822,0.805-3.168
					c0-1.366-0.269-2.414-0.805-3.144C50.484,99.239,49.73,98.874,48.757,98.874z"/>
				<path fill="#939393" d="M61.543,108.619l-0.33-1.56h-0.08c-0.547,0.687-1.091,1.151-1.634,1.395
					c-0.544,0.243-1.222,0.365-2.034,0.365c-1.086,0-1.938-0.28-2.554-0.84s-0.925-1.355-0.925-2.389
					c0-2.212,1.77-3.372,5.308-3.479l1.858-0.06v-0.68c0-0.859-0.185-1.494-0.555-1.904c-0.369-0.41-0.961-0.614-1.773-0.614
					c-0.913,0-1.946,0.279-3.099,0.839l-0.51-1.269c0.54-0.294,1.131-0.523,1.774-0.69c0.643-0.166,1.287-0.25,1.934-0.25
					c1.306,0,2.273,0.29,2.903,0.87c0.63,0.579,0.944,1.509,0.944,2.788v7.477H61.543z M57.795,107.45
					c1.032,0,1.844-0.283,2.434-0.85s0.884-1.359,0.884-2.379v-0.99l-1.659,0.07c-1.318,0.047-2.271,0.252-2.854,0.615
					s-0.874,0.928-0.874,1.693c0,0.6,0.182,1.057,0.545,1.369C56.634,107.293,57.142,107.45,57.795,107.45z"/>
				<path fill="#939393" d="M69.55,97.465c0.486,0,0.923,0.04,1.309,0.12l-0.229,1.539c-0.453-0.1-0.853-0.15-1.199-0.15
					c-0.887,0-1.645,0.36-2.274,1.08c-0.629,0.72-0.944,1.615-0.944,2.688v5.877h-1.659V97.665h1.369l0.19,2.028h0.08
					c0.406-0.713,0.896-1.263,1.469-1.648C68.233,97.658,68.863,97.465,69.55,97.465z"/>
				<path fill="#939393" d="M78.008,108.619l-0.33-1.56h-0.08c-0.547,0.687-1.091,1.151-1.634,1.395
					c-0.544,0.243-1.222,0.365-2.034,0.365c-1.086,0-1.938-0.28-2.554-0.84s-0.925-1.355-0.925-2.389
					c0-2.212,1.77-3.372,5.308-3.479l1.858-0.06v-0.68c0-0.859-0.185-1.494-0.555-1.904c-0.369-0.41-0.961-0.614-1.773-0.614
					c-0.913,0-1.946,0.279-3.099,0.839l-0.51-1.269c0.54-0.294,1.131-0.523,1.774-0.69c0.643-0.166,1.287-0.25,1.934-0.25
					c1.306,0,2.273,0.29,2.903,0.87c0.63,0.579,0.944,1.509,0.944,2.788v7.477H78.008z M74.26,107.45
					c1.032,0,1.844-0.283,2.434-0.85s0.884-1.359,0.884-2.379v-0.99l-1.659,0.07c-1.318,0.047-2.271,0.252-2.854,0.615
					s-0.874,0.928-0.874,1.693c0,0.6,0.182,1.057,0.545,1.369C73.099,107.293,73.606,107.45,74.26,107.45z"/>
				<path fill="#939393" d="M88.234,107.45c0.294,0,0.577-0.022,0.85-0.065c0.273-0.043,0.49-0.088,0.65-0.135v1.27
					c-0.181,0.086-0.445,0.158-0.795,0.215s-0.665,0.085-0.944,0.085c-2.119,0-3.179-1.116-3.179-3.349v-6.517h-1.569v-0.8
					l1.569-0.689l0.7-2.339h0.959v2.539h3.179v1.289h-3.179v6.446c0,0.66,0.156,1.167,0.47,1.52
					C87.259,107.273,87.688,107.45,88.234,107.45z"/>
				<path fill="#939393" d="M95.283,97.465c0.486,0,0.923,0.04,1.309,0.12l-0.229,1.539c-0.453-0.1-0.853-0.15-1.199-0.15
					c-0.887,0-1.645,0.36-2.274,1.08c-0.629,0.72-0.944,1.615-0.944,2.688v5.877h-1.659V97.665h1.369l0.19,2.028h0.08
					c0.406-0.713,0.896-1.263,1.469-1.648C93.967,97.658,94.597,97.465,95.283,97.465z"/>
				<path fill="#939393" d="M106.459,103.132c0,1.786-0.449,3.181-1.349,4.183c-0.899,1.003-2.143,1.505-3.729,1.505
					c-0.979,0-1.849-0.23-2.608-0.69c-0.76-0.459-1.346-1.119-1.759-1.979c-0.414-0.859-0.62-1.865-0.62-3.019
					c0-1.785,0.446-3.177,1.339-4.173c0.894-0.996,2.133-1.494,3.719-1.494c1.532,0,2.75,0.51,3.653,1.529
					C106.008,100.014,106.459,101.393,106.459,103.132z M98.113,103.132c0,1.399,0.28,2.466,0.84,3.198
					c0.56,0.733,1.383,1.1,2.469,1.1s1.911-0.365,2.474-1.095c0.563-0.729,0.845-1.797,0.845-3.203c0-1.393-0.281-2.45-0.845-3.173
					c-0.562-0.724-1.395-1.085-2.493-1.085c-1.087,0-1.906,0.356-2.459,1.069C98.39,100.656,98.113,101.72,98.113,103.132z"/>
				<path fill="#939393" d="M112.107,108.819c-1.586,0-2.813-0.488-3.683-1.465c-0.87-0.976-1.305-2.356-1.305-4.143
					c0-1.832,0.441-3.248,1.324-4.248c0.883-0.999,2.141-1.499,3.773-1.499c0.526,0,1.053,0.057,1.579,0.17s0.939,0.246,1.239,0.399
					l-0.51,1.409c-0.366-0.146-0.767-0.268-1.199-0.364c-0.434-0.097-0.816-0.146-1.149-0.146c-2.226,0-3.339,1.42-3.339,4.259
					c0,1.346,0.271,2.378,0.815,3.098c0.543,0.72,1.347,1.08,2.413,1.08c0.913,0,1.85-0.197,2.809-0.59v1.469
					C114.144,108.629,113.221,108.819,112.107,108.819z"/>
				<path fill="#939393" d="M122.574,108.619l-0.33-1.56h-0.08c-0.547,0.687-1.091,1.151-1.634,1.395
					c-0.544,0.243-1.222,0.365-2.034,0.365c-1.086,0-1.938-0.28-2.554-0.84s-0.925-1.355-0.925-2.389
					c0-2.212,1.77-3.372,5.308-3.479l1.858-0.06v-0.68c0-0.859-0.185-1.494-0.555-1.904c-0.369-0.41-0.961-0.614-1.773-0.614
					c-0.913,0-1.946,0.279-3.099,0.839l-0.51-1.269c0.54-0.294,1.131-0.523,1.774-0.69c0.643-0.166,1.287-0.25,1.934-0.25
					c1.306,0,2.273,0.29,2.903,0.87c0.63,0.579,0.944,1.509,0.944,2.788v7.477H122.574z M118.826,107.45
					c1.032,0,1.844-0.283,2.434-0.85s0.884-1.359,0.884-2.379v-0.99l-1.659,0.07c-1.318,0.047-2.271,0.252-2.854,0.615
					s-0.874,0.928-0.874,1.693c0,0.6,0.182,1.057,0.545,1.369C117.665,107.293,118.173,107.45,118.826,107.45z"/>
				<path fill="#939393" d="M50.966,123.62c0,1.02-0.38,1.806-1.139,2.358c-0.76,0.554-1.826,0.83-3.199,0.83
					c-1.452,0-2.585-0.23-3.397-0.69v-1.539c0.526,0.267,1.091,0.477,1.693,0.63c0.604,0.153,1.185,0.23,1.744,0.23
					c0.866,0,1.533-0.139,1.999-0.415c0.467-0.276,0.7-0.698,0.7-1.265c0-0.426-0.186-0.791-0.555-1.095
					c-0.37-0.303-1.092-0.661-2.164-1.074c-1.02-0.38-1.744-0.711-2.174-0.994s-0.75-0.604-0.96-0.965
					c-0.21-0.359-0.314-0.789-0.314-1.289c0-0.893,0.363-1.598,1.089-2.114c0.727-0.517,1.723-0.774,2.989-0.774
					c1.179,0,2.332,0.24,3.458,0.72l-0.59,1.35c-1.1-0.453-2.096-0.68-2.988-0.68c-0.786,0-1.38,0.123-1.779,0.369
					c-0.399,0.247-0.6,0.587-0.6,1.02c0,0.294,0.075,0.543,0.225,0.75c0.15,0.206,0.392,0.403,0.725,0.59s0.973,0.456,1.919,0.81
					c1.3,0.473,2.178,0.949,2.634,1.429C50.738,122.291,50.966,122.894,50.966,123.62z"/>
				<path fill="#939393" d="M56.655,126.809c-1.619,0-2.896-0.493-3.833-1.479s-1.404-2.355-1.404-4.108
					c0-1.766,0.435-3.168,1.305-4.207c0.869-1.04,2.037-1.56,3.503-1.56c1.372,0,2.459,0.451,3.258,1.354
					c0.8,0.902,1.2,2.094,1.2,3.573v1.049h-7.547c0.033,1.286,0.358,2.263,0.975,2.929c0.616,0.667,1.484,1,2.604,1
					c1.18,0,2.346-0.247,3.499-0.74v1.479c-0.587,0.253-1.142,0.435-1.664,0.545C58.026,126.753,57.395,126.809,56.655,126.809z
					 M56.205,116.844c-0.879,0-1.58,0.286-2.104,0.859s-0.831,1.366-0.925,2.379h5.728c0-1.046-0.233-1.848-0.7-2.404
					C57.738,117.122,57.071,116.844,56.205,116.844z"/>
				<path fill="#939393" d="M75.836,126.608v-7.126c0-0.873-0.187-1.528-0.56-1.965c-0.373-0.436-0.953-0.654-1.739-0.654
					c-1.032,0-1.796,0.297-2.288,0.89c-0.493,0.593-0.74,1.506-0.74,2.738v6.117H68.85v-7.126c0-0.873-0.187-1.528-0.56-1.965
					c-0.373-0.436-0.956-0.654-1.749-0.654c-1.039,0-1.801,0.312-2.284,0.935c-0.482,0.623-0.725,1.645-0.725,3.063v5.747h-1.659
					v-10.954h1.35l0.27,1.499h0.08c0.313-0.533,0.755-0.949,1.324-1.249c0.57-0.3,1.208-0.45,1.914-0.45
					c1.713,0,2.832,0.62,3.358,1.859h0.08c0.326-0.573,0.8-1.026,1.419-1.359c0.62-0.333,1.326-0.5,2.119-0.5
					c1.239,0,2.167,0.318,2.784,0.954c0.616,0.637,0.924,1.654,0.924,3.054v7.146H75.836z"/>
				<path fill="#939393" d="M87.334,126.809c-1.586,0-2.813-0.488-3.683-1.465c-0.87-0.976-1.305-2.356-1.305-4.143
					c0-1.832,0.441-3.248,1.324-4.248c0.883-0.999,2.141-1.499,3.773-1.499c0.526,0,1.053,0.057,1.579,0.17s0.939,0.246,1.239,0.399
					l-0.51,1.409c-0.366-0.146-0.767-0.268-1.199-0.364c-0.434-0.097-0.816-0.146-1.149-0.146c-2.226,0-3.339,1.42-3.339,4.259
					c0,1.346,0.271,2.378,0.815,3.098c0.543,0.72,1.347,1.08,2.413,1.08c0.913,0,1.85-0.197,2.809-0.59v1.469
					C89.37,126.618,88.447,126.809,87.334,126.809z"/>
				<path fill="#939393" d="M92.623,115.654v7.106c0,0.893,0.203,1.559,0.609,1.999c0.406,0.439,1.043,0.659,1.909,0.659
					c1.146,0,1.984-0.313,2.514-0.939c0.53-0.626,0.795-1.649,0.795-3.068v-5.757h1.659v10.954H98.74l-0.24-1.47h-0.09
					c-0.34,0.54-0.812,0.953-1.414,1.24c-0.604,0.286-1.291,0.43-2.064,0.43c-1.333,0-2.33-0.316-2.993-0.95
					c-0.663-0.633-0.994-1.646-0.994-3.038v-7.166H92.623z"/>
				<path fill="#939393" d="M109.056,123.62c0,1.02-0.38,1.806-1.139,2.358c-0.76,0.554-1.826,0.83-3.199,0.83
					c-1.452,0-2.585-0.23-3.397-0.69v-1.539c0.526,0.267,1.091,0.477,1.693,0.63c0.604,0.153,1.185,0.23,1.744,0.23
					c0.866,0,1.533-0.139,1.999-0.415c0.467-0.276,0.7-0.698,0.7-1.265c0-0.426-0.186-0.791-0.555-1.095
					c-0.37-0.303-1.092-0.661-2.164-1.074c-1.02-0.38-1.744-0.711-2.174-0.994s-0.75-0.604-0.96-0.965
					c-0.21-0.359-0.314-0.789-0.314-1.289c0-0.893,0.363-1.598,1.089-2.114c0.727-0.517,1.723-0.774,2.989-0.774
					c1.179,0,2.332,0.24,3.458,0.72l-0.59,1.35c-1.1-0.453-2.096-0.68-2.988-0.68c-0.786,0-1.38,0.123-1.779,0.369
					c-0.399,0.247-0.6,0.587-0.6,1.02c0,0.294,0.075,0.543,0.225,0.75c0.15,0.206,0.392,0.403,0.725,0.59s0.973,0.456,1.919,0.81
					c1.3,0.473,2.178,0.949,2.634,1.429C108.828,122.291,109.056,122.894,109.056,123.62z"/>
				<path fill="#939393" d="M113.655,125.439c0.294,0,0.577-0.022,0.85-0.065c0.273-0.043,0.49-0.088,0.65-0.135v1.27
					c-0.181,0.086-0.445,0.158-0.795,0.215s-0.665,0.085-0.944,0.085c-2.119,0-3.179-1.116-3.179-3.349v-6.517h-1.569v-0.8
					l1.569-0.689l0.7-2.339h0.959v2.539h3.179v1.289h-3.179v6.446c0,0.66,0.156,1.167,0.47,1.52
					C112.68,125.263,113.109,125.439,113.655,125.439z"/>
				<path fill="#939393" d="M125.16,121.121c0,1.786-0.449,3.181-1.349,4.183c-0.899,1.003-2.143,1.505-3.729,1.505
					c-0.979,0-1.849-0.23-2.608-0.69c-0.76-0.459-1.346-1.119-1.759-1.979c-0.414-0.859-0.62-1.865-0.62-3.019
					c0-1.785,0.446-3.177,1.339-4.173c0.894-0.996,2.133-1.494,3.719-1.494c1.532,0,2.75,0.51,3.653,1.529
					C124.709,118.003,125.16,119.382,125.16,121.121z M116.814,121.121c0,1.399,0.28,2.466,0.84,3.198
					c0.56,0.733,1.383,1.1,2.469,1.1s1.911-0.365,2.474-1.095c0.563-0.729,0.845-1.797,0.845-3.203c0-1.393-0.281-2.45-0.845-3.173
					c-0.562-0.724-1.395-1.085-2.493-1.085c-1.087,0-1.906,0.356-2.459,1.069C117.091,118.646,116.814,119.709,116.814,121.121z"/>
			</g>
		</g>
	</g>
</g>
</svg>
