<?xml version="1.0" encoding="utf-8"?>
<!-- Generator: Adobe Illustrator 15.0.0, SVG Export Plug-In . SVG Version: 6.00 Build 0)  -->
<!DOCTYPE svg PUBLIC "-//W3C//DTD SVG 1.1//EN" "http://www.w3.org/Graphics/SVG/1.1/DTD/svg11.dtd">
<svg version="1.1" id="Layer_1" xmlns="http://www.w3.org/2000/svg" xmlns:xlink="http://www.w3.org/1999/xlink" x="0px" y="0px"
	 width="159.333px" height="153.667px" viewBox="0 0 159.333 153.667" enable-background="new 0 0 159.333 153.667"
	 xml:space="preserve">
<g>
	<g>
		<rect x="1.734" y="2.315" fill="#F9F9F9" width="155.864" height="143.632"/>
		<rect x="2" y="2.477" fill="#F5F6F8" width="155.333" height="143.308"/>
		<rect x="2.266" y="2.596" fill="#F2F2F2" width="154.802" height="143.068"/>
		<rect x="2.542" y="2.674" fill="#EFEFEF" width="154.249" height="142.912"/>
		<rect x="2.792" y="2.768" fill="#EDECED" width="153.749" height="142.724"/>
		<rect x="3.083" y="2.934" fill="#E8E7E7" width="153.166" height="142.392"/>
		<rect x="3.333" y="3.13" fill="#FFFFFF" width="152.666" height="141.834"/>
		<rect x="12.833" y="12.477" fill="#F9F9FA" width="133.666" height="123"/>
		<g>
			<path fill="#F2F2F2" d="M155.677,146.395L3.474,146.576l0.094,4.775c49.251-5.598,135.439-5.432,151.953-0.301L155.677,146.395z"
				/>
			<path fill="#EAEAE9" d="M155.677,145.867L3.474,146.049l0.249,4.688c49.251-5.598,135.175-5.363,151.69-0.234L155.677,145.867z"
				/>
			<path fill="#E2E2E1" d="M155.677,144.992L3.474,145.174l0.374,4.812c48.163-5.018,139.906-4.391,151.533-0.219L155.677,144.992z"
				/>
			<path fill="#D8D8D7" d="M155.583,145.053L3.646,145.113l0.326,3.998c48.164-5.018,139.752-4.469,151.379-0.297L155.583,145.053z"
				/>
			<path fill="#D3D3D3" d="M155.444,145.043H3.754l0.374,3.459c47.075-4.33,140.271-3.082,151.207-0.281L155.444,145.043z"/>
			<path fill="#C8C8C8" d="M155.32,145.043H3.878l0.343,2.803c46.96-3.012,141.802-2.658,150.989-0.375L155.32,145.043z"/>
			<path fill="#C4C3C3" d="M155.196,145.578c-0.016-0.293-0.031-0.535-0.031-0.535H4.001l0.328,2.209
				c46.894-3.01,141.65-2.314,150.74-0.031c0.02-0.033,0.021-0.182,0.031-0.266L155.196,145.578z"/>
		</g>
	</g>
	<g>
		<g>
			<g>
				<path fill="#939393" d="M48.81,65.073c0,2.264-0.787,3.987-2.359,5.171c-1.572,1.185-3.925,1.776-7.056,1.776
					c-1.605,0-2.974-0.108-4.105-0.325c-1.132-0.218-2.191-0.536-3.178-0.958v-4.974c1.118,0.526,2.378,0.968,3.779,1.322
					c1.401,0.355,2.636,0.533,3.701,0.533c2.184,0,3.276-0.632,3.276-1.895c0-0.474-0.145-0.858-0.435-1.155
					c-0.289-0.296-0.789-0.631-1.5-1.006c-0.71-0.375-1.657-0.812-2.842-1.312c-1.697-0.711-2.944-1.369-3.74-1.974
					c-0.797-0.605-1.375-1.3-1.737-2.083c-0.362-0.782-0.543-1.746-0.543-2.892c0-1.96,0.761-3.477,2.28-4.549
					s3.674-1.609,6.464-1.609c2.658,0,5.243,0.579,7.757,1.737l-1.815,4.342c-1.105-0.474-2.139-0.861-3.1-1.164
					c-0.96-0.303-1.94-0.454-2.94-0.454c-1.776,0-2.665,0.48-2.665,1.441c0,0.539,0.287,1.006,0.859,1.401
					c0.572,0.395,1.825,0.979,3.76,1.756c1.724,0.698,2.986,1.35,3.789,1.954c0.803,0.605,1.396,1.303,1.776,2.093
					C48.619,63.04,48.81,63.981,48.81,65.073z"/>
				<path fill="#939393" d="M65.906,71.626l-0.81-2.822h-0.315c-0.645,1.026-1.56,1.819-2.743,2.378
					c-1.185,0.56-2.533,0.839-4.047,0.839c-2.592,0-4.546-0.693-5.861-2.082c-1.316-1.388-1.974-3.385-1.974-5.99V49.56h6.02v12.889
					c0,1.592,0.283,2.786,0.849,3.582c0.565,0.797,1.467,1.194,2.704,1.194c1.685,0,2.901-0.562,3.651-1.688s1.125-2.99,1.125-5.596
					V49.56h6.021v22.066H65.906z"/>
				<path fill="#939393" d="M85.726,72.021c-2.593,0-4.626-0.94-6.1-2.822h-0.315c0.21,1.843,0.315,2.908,0.315,3.197v8.941h-6.02
					V49.56h4.895l0.849,2.861h0.276c1.408-2.184,3.494-3.276,6.257-3.276c2.605,0,4.646,1.007,6.119,3.021
					c1.474,2.013,2.21,4.81,2.21,8.388c0,2.356-0.345,4.402-1.036,6.139c-0.69,1.737-1.675,3.06-2.95,3.968
					C88.95,71.566,87.45,72.021,85.726,72.021z M83.95,53.961c-1.487,0-2.573,0.457-3.257,1.372
					c-0.685,0.914-1.04,2.424-1.066,4.529v0.651c0,2.368,0.353,4.066,1.057,5.093c0.703,1.026,1.818,1.539,3.345,1.539
					c2.697,0,4.047-2.224,4.047-6.671c0-2.172-0.333-3.8-0.997-4.886C86.413,54.504,85.371,53.961,83.95,53.961z"/>
				<path fill="#939393" d="M105.94,72.021c-3.553,0-6.329-0.979-8.329-2.94c-2.001-1.961-3.001-4.737-3.001-8.329
					c0-3.698,0.925-6.557,2.773-8.576s4.404-3.03,7.668-3.03c3.119,0,5.547,0.889,7.283,2.665c1.737,1.776,2.605,4.23,2.605,7.362
					v2.921h-14.23c0.065,1.711,0.572,3.046,1.52,4.007s2.276,1.44,3.987,1.44c1.328,0,2.585-0.138,3.77-0.414
					s2.421-0.717,3.711-1.322v4.658c-1.053,0.526-2.178,0.917-3.375,1.174C109.124,71.893,107.664,72.021,105.94,72.021z
					 M105.091,53.428c-1.276,0-2.277,0.405-3,1.214c-0.725,0.81-1.139,1.958-1.244,3.444h8.448
					c-0.027-1.486-0.415-2.635-1.165-3.444C107.38,53.833,106.367,53.428,105.091,53.428z"/>
				<path fill="#939393" d="M128.917,49.145c0.815,0,1.493,0.06,2.032,0.178l-0.453,5.646c-0.487-0.132-1.079-0.197-1.776-0.197
					c-1.922,0-3.418,0.493-4.491,1.479c-1.072,0.987-1.608,2.369-1.608,4.146v11.23h-6.02V49.56h4.56l0.888,3.711h0.296
					c0.685-1.237,1.609-2.234,2.773-2.99C126.282,49.523,127.548,49.145,128.917,49.145z"/>
			</g>
		</g>
		<g>
			<g>
				<path fill="#939393" d="M35.138,43.319c-1.619,0-2.896-0.493-3.833-1.479s-1.404-2.355-1.404-4.108
					c0-1.766,0.435-3.168,1.305-4.207c0.869-1.04,2.037-1.56,3.503-1.56c1.372,0,2.459,0.451,3.258,1.354
					c0.8,0.902,1.2,2.094,1.2,3.573v1.049H31.62c0.033,1.286,0.358,2.263,0.975,2.929c0.616,0.667,1.484,1,2.604,1
					c1.18,0,2.346-0.247,3.499-0.74v1.479c-0.587,0.253-1.142,0.435-1.664,0.545C36.509,43.264,35.877,43.319,35.138,43.319z
					 M34.688,33.354c-0.879,0-1.58,0.286-2.104,0.859s-0.831,1.366-0.925,2.379h5.728c0-1.046-0.233-1.848-0.7-2.404
					C36.221,33.633,35.554,33.354,34.688,33.354z"/>
				<path fill="#939393" d="M54.32,43.119v-7.126c0-0.873-0.187-1.528-0.56-1.965c-0.373-0.436-0.953-0.654-1.739-0.654
					c-1.032,0-1.796,0.297-2.288,0.89c-0.493,0.593-0.74,1.506-0.74,2.738v6.117h-1.659v-7.126c0-0.873-0.187-1.528-0.56-1.965
					c-0.373-0.436-0.956-0.654-1.749-0.654c-1.039,0-1.801,0.312-2.284,0.935c-0.482,0.623-0.725,1.645-0.725,3.063v5.747h-1.659
					V32.165h1.35l0.27,1.499h0.08c0.313-0.533,0.755-0.949,1.324-1.249c0.57-0.3,1.208-0.45,1.914-0.45
					c1.713,0,2.832,0.62,3.358,1.859h0.08c0.326-0.573,0.8-1.026,1.419-1.359c0.62-0.333,1.326-0.5,2.119-0.5
					c1.239,0,2.167,0.318,2.784,0.954c0.616,0.637,0.924,1.654,0.924,3.054v7.146H54.32z"/>
				<path fill="#939393" d="M62.857,31.984c1.439,0,2.557,0.492,3.354,1.475c0.796,0.983,1.194,2.374,1.194,4.173
					s-0.401,3.197-1.204,4.193c-0.804,0.996-1.918,1.494-3.344,1.494c-0.713,0-1.364-0.132-1.954-0.396
					c-0.59-0.263-1.084-0.668-1.484-1.214h-0.12l-0.35,1.409h-1.189V27.567h1.659v3.777c0,0.847-0.026,1.606-0.08,2.279h0.08
					C60.192,32.531,61.337,31.984,62.857,31.984z M62.617,33.374c-1.133,0-1.948,0.325-2.448,0.975s-0.75,1.744-0.75,3.283
					s0.257,2.641,0.77,3.304c0.514,0.663,1.336,0.994,2.469,0.994c1.02,0,1.779-0.371,2.279-1.114s0.75-1.811,0.75-3.203
					c0-1.426-0.25-2.489-0.75-3.188C64.436,33.724,63.664,33.374,62.617,33.374z"/>
				<path fill="#939393" d="M75.403,43.119l-0.33-1.56h-0.08c-0.547,0.687-1.091,1.151-1.634,1.395
					c-0.544,0.243-1.222,0.365-2.034,0.365c-1.086,0-1.938-0.28-2.554-0.84s-0.925-1.355-0.925-2.389
					c0-2.212,1.77-3.372,5.308-3.479l1.858-0.06v-0.68c0-0.859-0.185-1.494-0.555-1.904c-0.369-0.41-0.961-0.614-1.773-0.614
					c-0.913,0-1.946,0.279-3.099,0.839l-0.51-1.269c0.54-0.294,1.131-0.523,1.774-0.69c0.643-0.166,1.287-0.25,1.934-0.25
					c1.306,0,2.273,0.29,2.903,0.87c0.63,0.579,0.944,1.509,0.944,2.788v7.477H75.403z M71.655,41.95
					c1.032,0,1.844-0.283,2.434-0.85s0.884-1.359,0.884-2.379v-0.99l-1.659,0.07c-1.318,0.047-2.271,0.252-2.854,0.615
					s-0.874,0.928-0.874,1.693c0,0.6,0.182,1.057,0.545,1.369C70.494,41.793,71.001,41.95,71.655,41.95z"/>
				<path fill="#939393" d="M80.072,43.119h-1.659V27.567h1.659V43.119z"/>
				<path fill="#939393" d="M88.689,43.119l-0.33-1.56h-0.08c-0.547,0.687-1.091,1.151-1.634,1.395
					c-0.544,0.243-1.222,0.365-2.034,0.365c-1.086,0-1.938-0.28-2.554-0.84s-0.925-1.355-0.925-2.389
					c0-2.212,1.77-3.372,5.308-3.479l1.858-0.06v-0.68c0-0.859-0.185-1.494-0.555-1.904c-0.369-0.41-0.961-0.614-1.773-0.614
					c-0.913,0-1.946,0.279-3.099,0.839l-0.51-1.269c0.54-0.294,1.131-0.523,1.774-0.69c0.643-0.166,1.287-0.25,1.934-0.25
					c1.306,0,2.273,0.29,2.903,0.87c0.63,0.579,0.944,1.509,0.944,2.788v7.477H88.689z M84.941,41.95
					c1.032,0,1.844-0.283,2.434-0.85s0.884-1.359,0.884-2.379v-0.99l-1.659,0.07c-1.318,0.047-2.271,0.252-2.854,0.615
					s-0.874,0.928-0.874,1.693c0,0.6,0.182,1.057,0.545,1.369C83.78,41.793,84.288,41.95,84.941,41.95z"/>
				<path fill="#939393" d="M100.665,32.165v1.049l-2.029,0.24c0.187,0.233,0.354,0.538,0.5,0.914
					c0.146,0.377,0.22,0.802,0.22,1.274c0,1.073-0.366,1.93-1.1,2.569c-0.732,0.64-1.739,0.959-3.019,0.959
					c-0.326,0-0.633-0.026-0.919-0.08c-0.706,0.374-1.06,0.844-1.06,1.409c0,0.301,0.123,0.521,0.37,0.665
					c0.246,0.144,0.669,0.215,1.269,0.215h1.939c1.186,0,2.098,0.25,2.733,0.75c0.637,0.499,0.955,1.226,0.955,2.179
					c0,1.213-0.487,2.137-1.46,2.773s-2.392,0.955-4.258,0.955c-1.433,0-2.537-0.267-3.312-0.8
					c-0.776-0.533-1.165-1.286-1.165-2.259c0-0.667,0.213-1.243,0.64-1.729s1.026-0.816,1.799-0.989
					c-0.279-0.127-0.515-0.323-0.704-0.59c-0.19-0.267-0.285-0.576-0.285-0.93c0-0.399,0.106-0.749,0.32-1.05
					c0.213-0.3,0.55-0.589,1.009-0.869c-0.566-0.233-1.027-0.63-1.384-1.189s-0.535-1.199-0.535-1.919
					c0-1.199,0.36-2.124,1.08-2.773s1.739-0.975,3.059-0.975c0.572,0,1.089,0.066,1.549,0.2H100.665z M91.929,44.958
					c0,0.593,0.25,1.043,0.749,1.35c0.5,0.307,1.216,0.46,2.149,0.46c1.393,0,2.424-0.209,3.093-0.625
					c0.67-0.416,1.005-0.981,1.005-1.694c0-0.593-0.184-1.004-0.55-1.234c-0.366-0.229-1.056-0.345-2.068-0.345h-1.989
					c-0.753,0-1.34,0.18-1.759,0.54C92.139,43.769,91.929,44.285,91.929,44.958z M92.829,35.673c0,0.767,0.216,1.346,0.649,1.739
					s1.036,0.59,1.81,0.59c1.619,0,2.429-0.786,2.429-2.359c0-1.646-0.82-2.469-2.459-2.469c-0.779,0-1.379,0.21-1.799,0.63
					S92.829,34.847,92.829,35.673z"/>
				<path fill="#939393" d="M105.903,43.319c-1.619,0-2.896-0.493-3.833-1.479s-1.404-2.355-1.404-4.108
					c0-1.766,0.435-3.168,1.305-4.207c0.869-1.04,2.037-1.56,3.503-1.56c1.372,0,2.459,0.451,3.258,1.354
					c0.8,0.902,1.2,2.094,1.2,3.573v1.049h-7.547c0.033,1.286,0.358,2.263,0.975,2.929c0.616,0.667,1.484,1,2.604,1
					c1.18,0,2.346-0.247,3.499-0.74v1.479c-0.587,0.253-1.142,0.435-1.664,0.545C107.274,43.264,106.642,43.319,105.903,43.319z
					 M105.453,33.354c-0.879,0-1.58,0.286-2.104,0.859s-0.831,1.366-0.925,2.379h5.728c0-1.046-0.233-1.848-0.7-2.404
					C106.986,33.633,106.319,33.354,105.453,33.354z"/>
				<path fill="#939393" d="M118.618,43.119v-7.086c0-0.894-0.203-1.56-0.609-1.999c-0.406-0.44-1.043-0.66-1.909-0.66
					c-1.146,0-1.985,0.31-2.519,0.93c-0.533,0.619-0.8,1.643-0.8,3.068v5.747h-1.659V32.165h1.35l0.27,1.499h0.08
					c0.34-0.54,0.816-0.958,1.43-1.255c0.612-0.296,1.296-0.444,2.049-0.444c1.319,0,2.312,0.318,2.979,0.954
					c0.666,0.637,0.999,1.654,0.999,3.054v7.146H118.618z"/>
				<path fill="#939393" d="M129.115,40.131c0,1.02-0.38,1.806-1.139,2.358c-0.76,0.554-1.826,0.83-3.199,0.83
					c-1.452,0-2.585-0.23-3.397-0.69V41.09c0.526,0.267,1.091,0.477,1.693,0.63c0.604,0.153,1.185,0.23,1.744,0.23
					c0.866,0,1.533-0.139,1.999-0.415c0.467-0.276,0.7-0.698,0.7-1.265c0-0.426-0.186-0.791-0.555-1.095
					c-0.37-0.303-1.092-0.661-2.164-1.074c-1.02-0.38-1.744-0.711-2.174-0.994s-0.75-0.604-0.96-0.965
					c-0.21-0.359-0.314-0.789-0.314-1.289c0-0.893,0.363-1.598,1.089-2.114c0.727-0.517,1.723-0.774,2.989-0.774
					c1.179,0,2.332,0.24,3.458,0.72l-0.59,1.35c-1.1-0.453-2.096-0.68-2.988-0.68c-0.786,0-1.38,0.123-1.779,0.369
					c-0.399,0.247-0.6,0.587-0.6,1.02c0,0.294,0.075,0.543,0.225,0.75c0.15,0.206,0.392,0.403,0.725,0.59s0.973,0.456,1.919,0.81
					c1.3,0.473,2.178,0.949,2.634,1.429C128.887,38.802,129.115,39.404,129.115,40.131z"/>
			</g>
		</g>
		<g>
			<g>
				<path fill="#939393" d="M35.018,96.98c-1.729,0-3.087-0.672-4.074-2.015s-1.481-3.203-1.481-5.582
					c0-2.413,0.503-4.293,1.508-5.641s2.389-2.021,4.153-2.021c1.852,0,3.265,0.72,4.239,2.158h0.131
					c-0.201-1.097-0.303-2.075-0.303-2.936v-4.713h4.028v20.484h-3.08l-0.776-1.909h-0.172C38.279,96.256,36.887,96.98,35.018,96.98
					z M36.426,93.781c1.027,0,1.779-0.299,2.258-0.896s0.739-1.61,0.783-3.041V89.41c0-1.579-0.243-2.712-0.73-3.396
					s-1.279-1.026-2.376-1.026c-0.896,0-1.591,0.38-2.087,1.139c-0.495,0.759-0.743,1.862-0.743,3.311s0.25,2.534,0.75,3.259
					C34.781,93.419,35.497,93.781,36.426,93.781z"/>
				<path fill="#939393" d="M45.091,78.194c0-1.308,0.728-1.962,2.185-1.962s2.186,0.654,2.186,1.962
					c0,0.623-0.182,1.108-0.546,1.454c-0.364,0.348-0.911,0.521-1.64,0.521C45.819,80.169,45.091,79.511,45.091,78.194z
					 M49.277,96.717h-4.015V81.999h4.015V96.717z"/>
				<path fill="#939393" d="M61.602,92.346c0,1.51-0.524,2.66-1.573,3.449c-1.049,0.79-2.618,1.186-4.706,1.186
					c-1.071,0-1.984-0.073-2.738-0.218c-0.755-0.145-1.462-0.357-2.12-0.639v-3.317c0.746,0.352,1.587,0.646,2.521,0.882
					c0.935,0.237,1.757,0.355,2.468,0.355c1.457,0,2.186-0.421,2.186-1.264c0-0.315-0.097-0.572-0.289-0.77
					c-0.193-0.198-0.527-0.422-1.001-0.672s-1.105-0.542-1.896-0.875c-1.133-0.475-1.964-0.913-2.495-1.316
					c-0.531-0.404-0.917-0.867-1.158-1.39c-0.241-0.521-0.362-1.165-0.362-1.928c0-1.308,0.507-2.319,1.521-3.035
					c1.014-0.715,2.451-1.072,4.312-1.072c1.772,0,3.497,0.386,5.174,1.158l-1.211,2.896c-0.737-0.316-1.427-0.575-2.067-0.777
					c-0.641-0.201-1.294-0.303-1.961-0.303c-1.186,0-1.777,0.32-1.777,0.961c0,0.36,0.19,0.672,0.572,0.935
					c0.382,0.264,1.218,0.654,2.508,1.172c1.15,0.466,1.992,0.9,2.528,1.304c0.535,0.403,0.93,0.869,1.185,1.396
					C61.474,90.99,61.602,91.618,61.602,92.346z"/>
				<path fill="#939393" d="M68.554,96.98c-4.581,0-6.872-2.515-6.872-7.544c0-2.501,0.623-4.412,1.869-5.733
					c1.246-1.32,3.032-1.98,5.358-1.98c1.702,0,3.229,0.333,4.581,1l-1.185,3.107c-0.632-0.255-1.22-0.463-1.764-0.626
					c-0.545-0.162-1.089-0.243-1.633-0.243c-2.089,0-3.133,1.483-3.133,4.449c0,2.879,1.044,4.318,3.133,4.318
					c0.772,0,1.487-0.104,2.146-0.31s1.316-0.528,1.975-0.968v3.437c-0.649,0.412-1.305,0.697-1.968,0.855
					S69.563,96.98,68.554,96.98z"/>
				<path fill="#939393" d="M82.499,81.723c0.544,0,0.996,0.039,1.355,0.118l-0.303,3.765c-0.324-0.087-0.72-0.131-1.185-0.131
					c-1.281,0-2.279,0.329-2.995,0.987c-0.715,0.658-1.073,1.579-1.073,2.765v7.49h-4.015V81.999h3.041l0.593,2.475h0.197
					c0.456-0.825,1.072-1.489,1.85-1.994C80.741,81.975,81.585,81.723,82.499,81.723z"/>
				<path fill="#939393" d="M91.031,96.98c-2.369,0-4.222-0.654-5.556-1.962s-2.001-3.159-2.001-5.556
					c0-2.466,0.616-4.372,1.85-5.72s2.938-2.021,5.114-2.021c2.08,0,3.699,0.592,4.858,1.777c1.158,1.185,1.737,2.821,1.737,4.91
					v1.948h-9.491c0.044,1.141,0.382,2.032,1.014,2.672c0.632,0.642,1.518,0.962,2.659,0.962c0.886,0,1.725-0.093,2.515-0.277
					c0.789-0.184,1.614-0.478,2.475-0.882v3.107c-0.702,0.351-1.453,0.611-2.251,0.783C93.155,96.895,92.18,96.98,91.031,96.98z
					 M90.464,84.579c-0.851,0-1.519,0.27-2.001,0.81s-0.759,1.306-0.829,2.297h5.635c-0.018-0.991-0.276-1.757-0.777-2.297
					C91.992,84.849,91.316,84.579,90.464,84.579z"/>
				<path fill="#939393" d="M104.342,93.781c0.702,0,1.545-0.153,2.528-0.461v2.988c-1.001,0.447-2.229,0.672-3.687,0.672
					c-1.606,0-2.775-0.406-3.509-1.218c-0.732-0.812-1.099-2.029-1.099-3.653v-7.096h-1.922v-1.698l2.211-1.343l1.159-3.107h2.566
					v3.134h4.121v3.015h-4.121v7.096c0,0.57,0.16,0.991,0.48,1.264S103.816,93.781,104.342,93.781z"/>
				<path fill="#939393" d="M117.035,96.717l-0.776-2.001h-0.105c-0.676,0.852-1.371,1.441-2.087,1.771
					c-0.715,0.329-1.647,0.494-2.797,0.494c-1.413,0-2.526-0.404-3.338-1.212c-0.812-0.807-1.218-1.957-1.218-3.449
					c0-1.562,0.547-2.714,1.64-3.455s2.74-1.152,4.943-1.231l2.554-0.078v-0.646c0-1.492-0.764-2.238-2.291-2.238
					c-1.176,0-2.559,0.355-4.146,1.066l-1.33-2.712c1.694-0.886,3.572-1.329,5.635-1.329c1.975,0,3.488,0.43,4.542,1.29
					c1.053,0.86,1.579,2.168,1.579,3.923v9.808H117.035z M115.85,89.897l-1.554,0.053c-1.167,0.035-2.036,0.246-2.606,0.632
					c-0.57,0.387-0.855,0.975-0.855,1.764c0,1.133,0.649,1.698,1.948,1.698c0.93,0,1.674-0.268,2.231-0.803
					c0.557-0.535,0.836-1.246,0.836-2.133V89.897z"/>
				<path fill="#939393" d="M132.084,92.346c0,1.51-0.524,2.66-1.573,3.449c-1.049,0.79-2.618,1.186-4.706,1.186
					c-1.071,0-1.984-0.073-2.738-0.218c-0.755-0.145-1.462-0.357-2.12-0.639v-3.317c0.746,0.352,1.587,0.646,2.521,0.882
					c0.935,0.237,1.757,0.355,2.468,0.355c1.457,0,2.186-0.421,2.186-1.264c0-0.315-0.097-0.572-0.289-0.77
					c-0.193-0.198-0.527-0.422-1.001-0.672s-1.105-0.542-1.896-0.875c-1.133-0.475-1.964-0.913-2.495-1.316
					c-0.531-0.404-0.917-0.867-1.158-1.39c-0.241-0.521-0.362-1.165-0.362-1.928c0-1.308,0.507-2.319,1.521-3.035
					c1.014-0.715,2.451-1.072,4.312-1.072c1.772,0,3.497,0.386,5.174,1.158l-1.211,2.896c-0.737-0.316-1.427-0.575-2.067-0.777
					c-0.641-0.201-1.294-0.303-1.961-0.303c-1.186,0-1.777,0.32-1.777,0.961c0,0.36,0.19,0.672,0.572,0.935
					c0.382,0.264,1.218,0.654,2.508,1.172c1.15,0.466,1.992,0.9,2.528,1.304c0.535,0.403,0.93,0.869,1.185,1.396
					C131.957,90.99,132.084,91.618,132.084,92.346z"/>
			</g>
		</g>
		<g>
			<g>
				<path fill="#939393" d="M36.576,117.049c-2.249,0-4.008-0.621-5.274-1.862s-1.899-3-1.899-5.275
					c0-2.341,0.585-4.151,1.756-5.431s2.789-1.919,4.855-1.919c1.976,0,3.513,0.562,4.612,1.688c1.101,1.125,1.65,2.68,1.65,4.663
					v1.85h-9.012c0.041,1.083,0.362,1.929,0.962,2.537c0.601,0.608,1.441,0.913,2.525,0.913c0.841,0,1.637-0.088,2.387-0.263
					s1.533-0.454,2.351-0.838v2.95c-0.667,0.333-1.38,0.581-2.138,0.743C38.592,116.968,37.667,117.049,36.576,117.049z
					 M36.039,105.274c-0.809,0-1.441,0.256-1.899,0.769c-0.459,0.513-0.722,1.239-0.788,2.182h5.35
					c-0.017-0.942-0.262-1.669-0.737-2.182C37.489,105.53,36.847,105.274,36.039,105.274z"/>
				<path fill="#939393" d="M57.68,112.649c0,1.433-0.498,2.524-1.494,3.274s-2.485,1.125-4.469,1.125
					c-1.017,0-1.883-0.068-2.6-0.206s-1.388-0.34-2.013-0.606v-3.149c0.708,0.333,1.506,0.612,2.394,0.837
					c0.888,0.226,1.669,0.338,2.344,0.338c1.383,0,2.075-0.4,2.075-1.2c0-0.3-0.092-0.544-0.275-0.731s-0.5-0.399-0.949-0.638
					c-0.45-0.237-1.051-0.514-1.801-0.831c-1.074-0.45-1.864-0.866-2.368-1.25c-0.504-0.383-0.871-0.822-1.1-1.318
					c-0.229-0.496-0.344-1.106-0.344-1.831c0-1.242,0.48-2.202,1.443-2.881c0.962-0.68,2.327-1.02,4.094-1.02
					c1.683,0,3.32,0.367,4.912,1.101l-1.15,2.75c-0.699-0.301-1.354-0.546-1.962-0.738c-0.608-0.191-1.229-0.287-1.862-0.287
					c-1.125,0-1.688,0.305-1.688,0.912c0,0.342,0.181,0.638,0.544,0.888c0.362,0.25,1.156,0.621,2.381,1.112
					c1.092,0.442,1.892,0.854,2.399,1.237c0.509,0.384,0.884,0.825,1.125,1.325C57.559,111.361,57.68,111.957,57.68,112.649z"/>
				<path fill="#939393" d="M64.93,117.049c-2.249,0-4.008-0.621-5.274-1.862s-1.899-3-1.899-5.275c0-2.341,0.585-4.151,1.756-5.431
					s2.789-1.919,4.855-1.919c1.976,0,3.513,0.562,4.612,1.688c1.101,1.125,1.65,2.68,1.65,4.663v1.85h-9.012
					c0.041,1.083,0.362,1.929,0.962,2.537c0.601,0.608,1.441,0.913,2.525,0.913c0.841,0,1.637-0.088,2.387-0.263
					s1.533-0.454,2.351-0.838v2.95c-0.667,0.333-1.38,0.581-2.138,0.743C66.947,116.968,66.022,117.049,64.93,117.049z
					 M64.393,105.274c-0.809,0-1.441,0.256-1.899,0.769c-0.459,0.513-0.722,1.239-0.788,2.182h5.35
					c-0.017-0.942-0.262-1.669-0.737-2.182C65.843,105.53,65.202,105.274,64.393,105.274z"/>
				<path fill="#939393" d="M83.845,102.824v1.938l-2.188,0.562c0.399,0.625,0.6,1.325,0.6,2.1c0,1.5-0.522,2.669-1.568,3.507
					c-1.046,0.837-2.498,1.256-4.356,1.256l-0.688-0.037l-0.562-0.062c-0.392,0.3-0.587,0.633-0.587,1c0,0.55,0.7,0.824,2.1,0.824
					h2.375c1.533,0,2.702,0.33,3.506,0.987c0.805,0.659,1.206,1.625,1.206,2.9c0,1.633-0.681,2.899-2.043,3.8
					s-3.319,1.35-5.869,1.35c-1.949,0-3.439-0.339-4.468-1.019c-1.029-0.679-1.544-1.631-1.544-2.855
					c0-0.842,0.263-1.546,0.787-2.113c0.525-0.566,1.296-0.971,2.312-1.212c-0.392-0.167-0.733-0.439-1.024-0.819
					c-0.292-0.379-0.438-0.78-0.438-1.206c0-0.533,0.153-0.977,0.462-1.331c0.309-0.354,0.754-0.702,1.338-1.044
					c-0.733-0.316-1.314-0.824-1.744-1.524c-0.429-0.7-0.644-1.525-0.644-2.475c0-1.525,0.496-2.704,1.487-3.538
					c0.991-0.833,2.408-1.25,4.25-1.25c0.392,0,0.856,0.036,1.394,0.106c0.537,0.071,0.881,0.123,1.031,0.156H83.845z
					 M73.058,118.773c0,0.525,0.252,0.938,0.756,1.237c0.504,0.301,1.211,0.45,2.119,0.45c1.366,0,2.438-0.188,3.212-0.562
					c0.775-0.375,1.163-0.887,1.163-1.537c0-0.525-0.229-0.888-0.688-1.088c-0.459-0.199-1.167-0.3-2.125-0.3H75.52
					c-0.699,0-1.285,0.165-1.756,0.494S73.058,118.232,73.058,118.773z M74.446,107.399c0,0.758,0.173,1.358,0.519,1.8
					s0.873,0.662,1.581,0.662c0.717,0,1.241-0.221,1.575-0.662c0.333-0.441,0.5-1.042,0.5-1.8c0-1.684-0.692-2.525-2.075-2.525
					C75.145,104.874,74.446,105.716,74.446,107.399z"/>
				<path fill="#939393" d="M93.997,116.799l-0.513-1.787h-0.199c-0.409,0.649-0.988,1.151-1.738,1.506s-1.604,0.531-2.562,0.531
					c-1.643,0-2.88-0.439-3.713-1.318c-0.833-0.88-1.25-2.144-1.25-3.794v-9.112h3.812v8.162c0,1.009,0.179,1.765,0.537,2.269
					c0.358,0.505,0.93,0.757,1.713,0.757c1.066,0,1.837-0.356,2.312-1.069c0.475-0.712,0.712-1.894,0.712-3.543v-6.575h3.812v13.975
					H93.997z"/>
				<path fill="#939393" d="M106.673,102.562c0.517,0,0.945,0.038,1.287,0.113l-0.287,3.574c-0.309-0.083-0.684-0.125-1.125-0.125
					c-1.217,0-2.165,0.312-2.844,0.938c-0.68,0.625-1.019,1.5-1.019,2.625v7.112h-3.812v-13.975h2.888l0.562,2.35h0.188
					c0.433-0.782,1.019-1.414,1.756-1.894C105.004,102.802,105.806,102.562,106.673,102.562z"/>
				<path fill="#939393" d="M117.325,116.799l-0.738-1.9h-0.1c-0.642,0.809-1.302,1.369-1.981,1.682
					c-0.679,0.312-1.564,0.469-2.656,0.469c-1.342,0-2.397-0.383-3.168-1.15c-0.771-0.767-1.156-1.857-1.156-3.274
					c0-1.483,0.519-2.577,1.556-3.281c1.038-0.704,2.603-1.094,4.693-1.169l2.426-0.074v-0.613c0-1.416-0.726-2.125-2.176-2.125
					c-1.116,0-2.429,0.338-3.937,1.013l-1.263-2.574c1.608-0.842,3.392-1.263,5.35-1.263c1.875,0,3.312,0.408,4.312,1.225
					c1,0.817,1.5,2.059,1.5,3.725v9.312H117.325z M116.2,110.324l-1.476,0.05c-1.108,0.033-1.933,0.233-2.475,0.6
					c-0.542,0.367-0.812,0.926-0.812,1.676c0,1.074,0.616,1.612,1.85,1.612c0.884,0,1.59-0.254,2.119-0.763
					c0.529-0.508,0.794-1.184,0.794-2.025V110.324z"/>
				<path fill="#939393" d="M131.614,112.649c0,1.433-0.498,2.524-1.494,3.274s-2.485,1.125-4.469,1.125
					c-1.017,0-1.883-0.068-2.6-0.206s-1.388-0.34-2.013-0.606v-3.149c0.708,0.333,1.506,0.612,2.394,0.837
					c0.888,0.226,1.669,0.338,2.344,0.338c1.383,0,2.075-0.4,2.075-1.2c0-0.3-0.092-0.544-0.275-0.731s-0.5-0.399-0.949-0.638
					c-0.45-0.237-1.051-0.514-1.801-0.831c-1.074-0.45-1.864-0.866-2.368-1.25c-0.504-0.383-0.871-0.822-1.1-1.318
					c-0.229-0.496-0.344-1.106-0.344-1.831c0-1.242,0.48-2.202,1.443-2.881c0.962-0.68,2.327-1.02,4.094-1.02
					c1.683,0,3.32,0.367,4.912,1.101l-1.15,2.75c-0.699-0.301-1.354-0.546-1.962-0.738c-0.608-0.191-1.229-0.287-1.862-0.287
					c-1.125,0-1.688,0.305-1.688,0.912c0,0.342,0.181,0.638,0.544,0.888c0.362,0.25,1.156,0.621,2.381,1.112
					c1.092,0.442,1.892,0.854,2.399,1.237c0.509,0.384,0.884,0.825,1.125,1.325C131.493,111.361,131.614,111.957,131.614,112.649z"
					/>
			</g>
		</g>
	</g>
</g>
</svg>
