<?xml version="1.0" encoding="utf-8"?>
<!-- Generator: Adobe Illustrator 15.0.0, SVG Export Plug-In . SVG Version: 6.00 Build 0)  -->
<!DOCTYPE svg PUBLIC "-//W3C//DTD SVG 1.1//EN" "http://www.w3.org/Graphics/SVG/1.1/DTD/svg11.dtd">
<svg version="1.1" id="Layer_1" xmlns="http://www.w3.org/2000/svg" xmlns:xlink="http://www.w3.org/1999/xlink" x="0px" y="0px"
	 width="42px" height="35px" viewBox="0 0 42 35" enable-background="new 0 0 42 35" xml:space="preserve">
<g>
	<path fill="#474748" d="M31.416,19.957v4.589c0,0-2.857,4.284-10.098,4.284c-7.242,0-9.996-4.284-9.996-4.284v-4.589l9.996,4.997
		L31.416,19.957z"/>
	<path fill="#474748" d="M20.694,3.005L2.334,13.817l18.973,8.772l18.359-8.976L20.694,3.005z M21.408,14.123
		c-1.07,0-1.938-0.868-1.938-1.938c0-1.071,0.868-1.938,1.938-1.938s1.938,0.867,1.938,1.938
		C23.346,13.255,22.479,14.123,21.408,14.123z"/>
	<rect x="36.352" y="14.072" fill="#474748" width="1.07" height="10.557"/>
	<circle fill="#474748" cx="36.58" cy="25.623" r="1.453"/>
</g>
</svg>
