<?xml version="1.0" encoding="utf-8"?>
<!-- Generator: Adobe Illustrator 15.0.0, SVG Export Plug-In . SVG Version: 6.00 Build 0)  -->
<!DOCTYPE svg PUBLIC "-//W3C//DTD SVG 1.1//EN" "http://www.w3.org/Graphics/SVG/1.1/DTD/svg11.dtd">
<svg version="1.1" id="Layer_1" xmlns="http://www.w3.org/2000/svg" xmlns:xlink="http://www.w3.org/1999/xlink" x="0px" y="0px"
	 width="42px" height="35px" viewBox="0 0 42 35" enable-background="new 0 0 42 35" xml:space="preserve">
<g>
	<path fill="#474748" d="M20.95,16.019c-4.07,0-7.37,3.3-7.37,7.37s3.299,7.369,7.37,7.369c4.071,0,7.37-3.3,7.37-7.369
		S25.021,16.019,20.95,16.019z M20.95,29.555c-3.406,0-6.167-2.76-6.167-6.166s2.761-6.167,6.167-6.167s6.167,2.76,6.167,6.167
		S24.355,29.555,20.95,29.555z"/>
	<g>
		<path fill="#474748" d="M22.199,19.945v6.346h-1.584v-3.402c0-0.491-0.012-0.786-0.035-0.886s-0.088-0.174-0.194-0.225
			c-0.106-0.052-0.342-0.077-0.708-0.077h-0.157v-0.739c0.766-0.165,1.347-0.504,1.744-1.017H22.199z"/>
	</g>
	<rect x="15.736" y="14.014" fill="#474748" width="10.728" height="1.504"/>
	<polygon fill="#474748" points="15.234,2.784 18.042,2.784 24.66,13.312 21.852,13.312 	"/>
	<polygon fill="#474748" points="10.723,2.784 13.53,2.784 20.147,13.312 17.34,13.312 	"/>
	<polygon fill="#474748" points="22.988,8.793 26.766,2.784 23.958,2.784 21.584,6.56 	"/>
	<polygon fill="#474748" points="25.243,12.382 31.277,2.784 28.47,2.784 23.84,10.148 	"/>
</g>
</svg>
