<?xml version="1.0" encoding="utf-8"?>
<!-- Generator: Adobe Illustrator 15.0.0, SVG Export Plug-In . SVG Version: 6.00 Build 0)  -->
<!DOCTYPE svg PUBLIC "-//W3C//DTD SVG 1.1//EN" "http://www.w3.org/Graphics/SVG/1.1/DTD/svg11.dtd">
<svg version="1.1" id="Layer_1" xmlns="http://www.w3.org/2000/svg" xmlns:xlink="http://www.w3.org/1999/xlink" x="0px" y="0px"
	 width="42px" height="35px" viewBox="0 0 42 35" enable-background="new 0 0 42 35" xml:space="preserve">
<g>
	<g>
		<path id="SVGID_1_" fill="#474748" d="M23.662,5.909l-0.059,0.063l0.039,0.013l0.1-0.01l0.045-0.083l-0.03-0.034L23.662,5.909z
			 M23.839,5.623l-0.06-0.012l-0.063,0.021L23.58,5.749l-0.098,0.209l0.055-0.008l0.023-0.046l0.16-0.13l0.069-0.002l0.123-0.109
			l-0.024-0.05L23.839,5.623z M23.988,5.504l0.033,0.061l0.066,0.028l0.01-0.062l-0.013-0.058l-0.079-0.045L23.988,5.504z
			 M24.652,5.588l-0.035,0.056l-0.104,0.035l0.098,0.044l0.148,0.003l0.055-0.073l-0.07-0.063L24.652,5.588z M24.283,5.43
			l-0.1,0.002l-0.031,0.055l0.059,0.038l0.162,0.02l0.049,0.035l0.09-0.034l0.035-0.083l-0.07-0.066L24.283,5.43z M24.346,5.108
			L24.25,5.169l-0.07,0.027L24.1,5.275l0.012,0.12l0.08-0.069l0.074-0.096l0.075-0.018l0.063-0.089L24.346,5.108z M24.115,3.976
			l0.037,0.172l0.061,0.106c0.012,0.001,0.072,0.016,0.072,0.016l0.021-0.09l-0.082-0.182l-0.088-0.069L24.115,3.976z M23.564,2.545
			v0.106l-0.061,0.076l-0.162,0.089l0.002-0.002l-0.01,0.007l-0.059,0.074l-0.178,0.189l-0.193,0.21l-0.014,0.12l-0.15,0.267
			L22.618,3.85l-0.097,0.155l-0.117,0.009l-0.073,0.044l-0.035,0.108L22.17,4.241l-0.076-0.033l0.01-0.177l-0.047-0.025L22.044,3.95
			l-0.075-0.014l-0.097,0.029l-0.078,0.073l-0.112-0.029l-0.084-0.11l0.006-0.066L21.57,3.799l-0.032-0.111L21.52,3.623L21.43,3.595
			l-0.121-0.133L21.136,3.44l-0.132,0.047l-0.279-0.011l-0.146-0.051L20.44,3.501L20.41,3.62l0.111,0.13l0.025,0.081l0.052,0.15
			l-0.029,0.048l-0.114-0.004L20.29,3.964l-0.038-0.035l-0.055-0.006l-0.013-0.005l0.003,0.003l-0.215-0.018l-0.122,0.01
			L19.801,3.85l-0.198-0.006L19.458,3.89l-0.094,0.205l-0.275-0.033l-0.144,0.032l-0.022,0.061L18.82,4.259L18.666,4.26
			l-0.017-0.045l-0.092,0.016l-0.092,0.1l-0.103-0.052L18.117,4.03L18.03,3.903l0.003-0.097L17.9,3.65l-0.109-0.135l-0.003-0.137
			l0.037-0.088l-0.028-0.07l0.029-0.119l0.055-0.093l0.004-0.145l0.148-0.215l0.059-0.18l0.133-0.138V2.257L18.1,2.256l-0.055-0.102
			L18.01,2.055l-0.141-0.003l-0.111-0.067l0.065-0.077l0.092-0.123l0.016-0.177L17.83,1.459l-0.147-0.027l-0.077,0.042l-0.048-0.062
			l-0.064-0.015l0.001,0.14L17.418,1.69l-0.366,0.217l-0.219,0.001l-0.31,0.101l-0.106-0.062L16.228,1.95l-0.232,0.175l-0.22,0.055
			l-0.068-0.054L15.407,2.14l-0.233-0.004l-0.198-0.133l-0.204-0.05l-0.188-0.075l0.073,0.171l0.136,0.064l0.133,0.147l0.037,0.128
			l-0.211,0.273l0.062,0.14L14.752,3.02l0.301,0.126l0.214-0.007L15.475,3.2l-0.001,0.136l-0.16,0.06l-0.319,0.036l-0.12,0.111
			l-0.076,0.169l-0.357,0.149L14.32,3.982l-0.242,0.131l-0.173,0.175L13.631,4.28L13.48,4.246l-0.249-0.228l-0.243-0.197
			l-0.177,0.006l0.02-0.183l-0.013-0.149l-0.101-0.144l-0.028-0.106L12.498,3.28l-0.142,0.133L12.269,3.42l-0.067-0.074l-0.13-0.01
			L11.984,3.42l-0.758-0.058l-0.062,0.213l0.048,0.163l0.251,0.09l0.082,0.186L11.466,4.09l0.069,0.088l-0.043,0.107l-0.149-0.119
			l-0.461,0.118l-0.01,0.366l0.103,0.159l0.233,0.214l0.141,0.302L11.32,5.551l-0.013,0.1l-0.491,1.362l-0.142,0.358l0.01,0.068
			L10.62,7.531L10.477,7.48l0.019-0.042L10.353,7.33l-0.055,0.01l-0.129-0.01l-0.057-0.029l-0.057,0.103L9.587,7.515L9.238,7.559
			L9.145,7.638L9.066,7.656L8.914,7.784L8.748,7.842L8.622,7.91l0.005,0.175L8.551,8.18l0.021,0.108l-0.2,0.168l0.044,0.236
			L8.47,8.818L8.35,8.915L8.254,8.887L8.057,8.991L8.036,9.126L7.963,9.192l0.035,0.096L7.961,9.435L7.898,9.556L7.937,9.67
			L7.896,9.768l0.169,0.199l0.283,0.556L8.162,10.72h0.417l0.193,0.05l0.127,0.224l0.028,0.191l0.286,0.035l0.338,0.05l0.305-0.234
			l0.25-0.119l0.062,0.078l-0.044,0.145l-0.052,0.047l-0.024,0.238l0.003,0.397l-0.006,0.157l0.076,0.084l0.134-0.011l0.133-0.026
			l0.145,0.002l0.073-0.003l0.064,0.036l0.018,0.011l0,0l0.425,0.034l0.192,0.024l0.201-0.089l0.106,0.009l0.155-0.103l0.163,0.013
			l0.199-0.042l0.141-0.29l0.334-0.176l0.226-0.02l0.222-0.089l0.145,0.013l0.127,0.108l0.162-0.084l0.072,0.075l-0.033,0.152
			l0.058,0.248l-0.122,0.183l0.062,0.316l-0.068,0.13l0.094,0.261l0.149,0.08l0.033,0.207l0.146,0.089l0.201,0.153l0.135,0.146
			l0.063-0.062l0.284-0.044l0.212,0.25l0.179-0.034l0.22,0.281l0.105-0.001l0.282,0.12l0.178,0.083l0.022,0.196l0.134,0.049
			l0.164,0.111l0.389-0.007l0.258,0.178l0.05,0.12l-0.065,0.305l0.037,0.256l-0.09,0.147l0.217,0.444l-0.046,0.308l1.176,0.115
			l0.022,0.43l-0.04,0.267l0.34,0.106l0.297,0.646l-0.008,0.33l-0.383,0.627l0.012,0.1l-0.1,0.115l0.055,0.074l-0.052,0.143
			l0.155,0.139l-0.008,0.204l0.119,0.212l-0.103,0.4l0.025,0.166l-0.061,0.141l0.037,0.148l0.253,0.002l0.103,0.058l0.31,0.005
			l0.188,0.084l0.319-0.1l0.154,0.129l0.123,0.049l0.035,0.159l0.108,0.737l0.094,0.266l0.119,0.045l0.276-0.123l0.145,0.07
			l0.093,0.1l0.096,0.027l-0.074,0.102l-0.068,0.627l-0.034,0.071l-0.019,0.021l-0.009,0.086l-0.021,0.067l-0.013,0.081l0.122-0.068
			l0.306,0.069l-0.002,0.138l0.102,0.293l-0.029,0.226l0.01,0.263l0.003,0.242L20.933,24.3l-0.136-0.016l-0.171,0.073l-0.027,0.05
			l-0.104,0.075l-0.041-0.028l-0.289,0.159l-0.062,0.082l-0.107,0.021l-0.269,0.188l-0.083,0.021l-0.024,0.163l-0.094,0.021
			l-0.079-0.021l-0.234,0.241l-0.048,0.099l-0.007,0.148l-0.1,0.021l-0.059,0.078l-0.155,0.233l-0.105,0.093l-0.126,0.174
			l-0.004,0.062l-0.133,0.076l-0.023,0.059l0.1,0.011l0.068,0.046l0.346-0.074l0.133,0.104l0.137,0.225l0.13,0.069l0.066,0.188
			l0.138,0.273l0.077,0.006l0.142-0.13l0.066,0.017l0.134,0.264l0.177,0.097l0.156,0.048l0.141,0.166l-0.004,0.185l0.132-0.019
			l0.25,0.137l0.139,0.205l0.144,0.26l0.141,0.117l-0.045,0.187l-0.14,0.163l0.046,0.207l0.021,0.052l0.015,0.034l0.07,0.109
			l0.034,0.035l0.271-0.188l0.104-0.194l0.148-0.459l0.127-0.308l0.05-0.062l-0.053-0.076L21.832,27.9l0.061-0.131l0.101-0.039
			l0.012-0.088l0.121-0.115l0.009-0.096l0.062,0.058l0.092,0.022l0.121-0.121l0.023-0.133l0.047-0.041l0.024-0.152l0.052-0.059
			l0.067,0.006l0.06-0.127l-0.024-0.1l-0.067-0.082l0.027-0.202l-0.053-0.058l0.065,0.023l0.063,0.167l0.144,0.187l0.063,0.005
			l0.07-0.032l0.039,0.046l0.004,0.117l-0.053,0.01l-0.082,0.228L22.7,27.445l-0.14-0.008l-0.035,0.168l-0.055,0.086l-0.044-0.018
			l-0.146,0.066l-0.108,0.076l-0.017,0.07l-0.112,0.01l-0.058,0.052v0.071l0.127,0.049l0.451-0.297l0.237-0.228l0.356-0.509
			l0.144-0.26l0.147-0.338l0.353-0.551l0.328-0.332l0.058-0.102l-0.024-0.04l0.021-0.091l0.065-0.016l0.06-0.145l0.092-0.046
			l-0.02-0.123l0.036-0.084l-0.026-0.04l-0.049-0.049l0.021-0.135l-0.116-0.191l0.008-0.082l0.031-0.08l-0.017-0.089l-0.028-0.196
			l-0.05-0.208l0.056-0.043l0.172-0.021l-0.034-0.114l-0.078-0.056l0.162-0.023l0.016-0.132l-0.156-0.084l0.138-0.026l0.097-0.117
			l0.062,0.057l0.229-0.178l0.133-0.072v-0.067l0.19-0.14l0.218-0.116l0.304-0.291l0.239-0.009l0.144-0.114l0.151-0.104l0.138,0.012
			l0.082,0.078l0.099,0.033l0.012-0.098l0.115-0.168l0.301-0.154l0.112-0.023l0.005-0.055l-0.062-0.047l-0.092-0.027l-0.037-0.086
			l0.104-0.017l0.183-0.091l0.098,0.036h0.113l0.091-0.06l0.11,0.018l-0.011,0.054l-0.17,0.078l-0.172,0.021l-0.037,0.035
			l0.05,0.049l0.269-0.073l0.321-0.101l-0.023-0.053l0.09-0.062l0.077,0.02l-0.034,0.072c0,0,0,0.111,0.012,0.117
			c0.01,0.007,0.191,0.046,0.191,0.046l0.113-0.052l0.184,0.017l0.221,0.042l0.145-0.082l0.006-0.066l-0.029-0.037l0.023-0.064
			l0.318-0.182l0.262-0.068l0.139-0.068l0.045-0.078l-0.031-0.054l-0.092-0.263l0.098-0.168l0.104-0.105l0.016-0.13l0.066-0.047
			l0.117-0.067l0.035-0.133l-0.031-0.023l0.213-0.286l0.28-0.277l0.015-0.134l-0.018-0.43L30.327,18.9l0.104-0.248l0.073-0.096
			l0.021-0.084l0.213-0.145l0.035-0.074l-0.032-0.252l0.131-0.29l-0.011-0.234l0.054-0.17v-0.097l0.078-0.247l0.006-0.911
			l0.013-0.167l0.063-0.122l0.012-0.121l-0.062,0.058l-0.103-0.086l0.007-0.077l0.109-0.141l-0.014-0.151l0.033-0.1l0.088-0.016
			l0.033-0.157l-0.08-0.157l-0.172-0.097l0.051-0.016l0.027-0.056l0.028,0.076l0.101,0.071l0.096,0.042l0.049-0.142l0.092,0.012
			l0.031,0.086l0.064,0.039l-0.08,0.095l-0.103,0.064l-0.031,0.08l0.067,0.01l0.142-0.109l0.185-0.077l0.256-0.327l0.121-0.248
			l0.047-0.151l0.094-0.07l0.104-0.224l0.114-0.189l0.371-0.211l0.054-0.113l0.108-0.024l0.088-0.119l0.321-0.244l0.293-0.335
			l0.076-0.091l0.193-0.347l0.057-0.155l0.092-0.109l0.01-0.115l-0.074-0.132l0.045-0.132l0.082-0.064l0.008-0.332l-0.073-0.055
			l-0.015-0.167l-0.19-0.53l0.015-0.173l-0.021-0.214l-0.416-0.23L33.148,9.78L32.96,9.843l-0.11-0.184l-0.144-0.041l-0.13-0.176
			L32.391,9.33L32.259,9.3l-0.274-0.343l-0.213-0.356l-0.113-0.039l-0.15-0.168l-0.148-0.003L30.98,8.069l-0.185-0.015L30.6,7.95
			l-0.131,0.058l-0.191-0.016l-0.112-0.068l-0.129,0.048l-0.063,0.082L29.898,7.97l-0.172-0.15l-0.035,0.055l-0.07-0.073
			l-0.035,0.085L29.58,7.953l-0.1-0.096l-0.015-0.069l-0.075-0.029l0.019,0.069l-0.043,0.023l-0.19-0.093l-0.066,0.006L28.945,7.72
			l-0.354-0.204L28.45,7.515l-0.011,0.038l0.022,0.079L28.43,7.666l-0.076-0.048L28.32,7.634l-0.027,0.054l-0.132,0.05l-0.054,0.063
			l-0.03,0.155L28.02,7.834L27.993,7.73L27.92,7.753V7.88l-0.127,0.203l-0.016,0.179L27.752,8.09l0.059-0.165l-0.012-0.152
			l0.086-0.21l0.062-0.047L27.9,7.466l-0.106-0.012l0.155-0.148l-0.168-0.212l-0.092-0.177h-0.104l-0.146-0.036l-0.098,0.103
			l-0.09,0.037l-0.035-0.105l-0.059-0.043l-0.021-0.099l-0.072-0.069L26.96,6.707l-0.049-0.072L26.82,6.594l-0.055,0.062
			l0.004-0.058L26.7,6.549l-0.039-0.1l-0.084,0.026L26.43,6.42l-0.188-0.133l-0.057-0.014l-0.039,0.056l-0.111-0.092l-0.09,0.002
			L25.918,6.32l-0.059-0.001l-0.025-0.093l-0.152-0.019L25.545,6.27l-0.082,0.124l0.002,0.077l-0.154,0.132l-0.197,0.096
			l-0.254,0.118L24.73,6.952l-0.088,0.182L24.6,7.314l-0.07,0.091L24.41,7.511l0.002,0.081l0.01,0.139L24.377,7.98l-0.031-0.156
			l-0.078-0.157l0.012-0.11l0.104-0.108l0.116-0.08l-0.002-0.186l0.067-0.149l-0.004-0.083l-0.08-0.009l-0.16,0.042L24.152,6.92
			L24,6.916l-0.122,0.021L23.8,6.858l0.097,0.02l0.119-0.074l0.121-0.017l0.195,0.053l0.117-0.018l0.115-0.125l0.049,0.001
			l0.059,0.055l0.07-0.017l0.119-0.058l0.201-0.051l0.014-0.154l0.191-0.188l0.012-0.144l0.076-0.091l0.02-0.115l-0.18-0.054
			l-0.135-0.127l-0.137-0.011l-0.201,0.1L24.557,5.84l-0.223-0.116l-0.25-0.04l-0.2,0.179l0.005,0.077l0.055,0.05l0.035,0.068
			l-0.09,0.003l-0.055,0.024l-0.059,0.111L23.75,6.091l-0.061-0.029l-0.148,0.046l-0.172,0.203l-0.227,0.22l0.172-0.205l0.006-0.14
			l0.041-0.074l0.021-0.095l-0.067-0.006l-0.144,0.1l-0.08,0.148l-0.082,0.168L22.893,6.49l0.123-0.193l0.032-0.157l0.263-0.273
			l0.071-0.193l0.097-0.113L23.616,5.5l0.147-0.09l0.104-0.034l0.142-0.178l0.341-0.292l0.023-0.076l0.066-0.042l-0.06-0.092
			l0.031-0.089l0.047-0.035l0.015-0.129l-0.117-0.102l-0.141-0.002l-0.048,0.045l-0.054-0.111l-0.063-0.26L23.93,3.63l-0.117-0.203
			l-0.076-0.264l0.018-0.139L23.73,2.883l-0.053-0.057l-0.011-0.132l-0.069-0.167L23.564,2.545z"/>
	</g>
</g>
</svg>
