<?xml version="1.0" encoding="utf-8"?>
<!-- Generator: Adobe Illustrator 15.0.0, SVG Export Plug-In . SVG Version: 6.00 Build 0)  -->
<!DOCTYPE svg PUBLIC "-//W3C//DTD SVG 1.1//EN" "http://www.w3.org/Graphics/SVG/1.1/DTD/svg11.dtd">
<svg version="1.1" id="Layer_1" xmlns="http://www.w3.org/2000/svg" xmlns:xlink="http://www.w3.org/1999/xlink" x="0px" y="0px"
	 width="36px" height="36px" viewBox="0 0 36 36" enable-background="new 0 0 36 36" xml:space="preserve">
<path fill="#E62E3B" d="M20.676,14.208h1.838c1.474,0,2.68-1.206,2.68-2.68c0-1.474-1.206-2.68-2.68-2.68h-9.027
	c-1.473,0-2.679,1.206-2.679,2.68c0,1.475,1.206,2.68,2.679,2.68h1.839c-3.733,1.143-6.45,4.616-6.45,8.724
	c0,5.04,4.086,9.125,9.125,9.125c5.04,0,9.125-4.085,9.125-9.125C27.125,18.824,24.408,15.352,20.676,14.208 M18,28.3
	c-2.964,0-5.367-2.402-5.367-5.367c0-2.964,2.403-5.367,5.367-5.367c2.965,0,5.368,2.403,5.368,5.367
	C23.368,25.897,20.965,28.3,18,28.3"/>
</svg>
