<svg xmlns="http://www.w3.org/2000/svg" width="159.333" height="153.667" viewBox="0 0 159.333 153.667"><path fill="#F9F9F9" d="M1.234 3.172h155.865v143.633H1.234z"/><path fill="#F5F6F8" d="M1.5 3.333h155.333v143.309H1.5z"/><path fill="#F2F2F2" d="M1.765 3.453h154.802v143.068H1.765z"/><path fill="#EFEFEF" d="M2.042 3.531h154.25v142.912H2.042z"/><path fill="#EDECED" d="M2.292 3.625h153.75V146.35H2.292z"/><path fill="#E8E7E7" d="M2.583 3.792H155.75v142.392H2.583z"/><path fill="#FFF" d="M2.833 3.987H155.5v141.834H2.833z"/><path fill="#F9F9FA" d="M12.333 13.333H146v123H12.333z"/><path fill="#F2F2F2" d="M155.177 147.251l-152.203.182.094 4.776c49.25-5.599 135.439-5.432 151.954-.302l.155-4.656z"/><path fill="#EAEAE9" d="M155.177 146.725l-152.203.181.249 4.688c49.251-5.599 135.174-5.364 151.69-.234l.264-4.635z"/><path fill="#E2E2E1" d="M155.177 145.85l-152.203.181.374 4.812c48.164-5.019 139.907-4.392 151.534-.219l.295-4.774z"/><path fill="#D8D8D7" d="M155.083 145.91l-151.938.061.326 3.998c48.165-5.019 139.752-4.469 151.379-.297l.233-3.762z"/><path fill="#D3D3D3" d="M154.944 145.9H3.253l.374 3.459c47.076-4.33 140.271-3.082 151.207-.281l.11-3.178z"/><path fill="#C8C8C8" d="M154.82 145.9H3.377l.343 2.803c46.96-3.013 141.801-2.658 150.989-.375l.111-2.428z"/><path fill="#C4C3C3" d="M154.696 146.436c-.015-.293-.031-.535-.031-.535H3.501l.328 2.209c46.893-3.01 141.651-2.315 150.741-.031.019-.034.021-.182.031-.266l.095-1.377z"/><path d="M66.616 84.622H54.46V51.339l.118-5.468.197-5.98c-2.02 2.02-3.422 3.344-4.209 3.973l-6.609 5.312-5.862-7.318 18.53-14.753h9.993v57.517zm12.317-24.431c0-11.382 2.406-19.854 7.219-25.414 4.812-5.56 12.019-8.341 21.618-8.341 3.278 0 5.848.197 7.711.59v9.717a31.55 31.55 0 0 0-6.924-.787c-4.17 0-7.573.629-10.209 1.888s-4.61 3.122-5.921 5.586c-1.312 2.466-2.085 5.967-2.321 10.504h.512c2.596-4.458 6.753-6.688 12.471-6.688 5.14 0 9.167 1.613 12.078 4.839s4.367 7.685 4.367 13.376c0 6.137-1.731 10.996-5.193 14.576s-8.262 5.37-14.399 5.37c-4.249 0-7.954-.983-11.114-2.951-3.161-1.967-5.6-4.839-7.317-8.615-1.719-3.775-2.578-8.325-2.578-13.65zm20.773 15.5c2.596 0 4.589-.872 5.979-2.616 1.39-1.744 2.085-4.229 2.085-7.455 0-2.806-.649-5.016-1.948-6.629-1.298-1.613-3.259-2.419-5.881-2.419-2.465 0-4.57.8-6.314 2.4-1.744 1.6-2.616 3.462-2.616 5.586 0 3.122.82 5.757 2.459 7.908 1.638 2.151 3.718 3.225 6.236 3.225zm-45.802 38.932l-.988-2.546h-.134c-.86 1.083-1.745 1.834-2.655 2.253s-2.097.628-3.559.628c-1.798 0-3.213-.514-4.246-1.541s-1.549-2.49-1.549-4.389c0-1.987.695-3.452 2.085-4.396 1.39-.943 3.486-1.466 6.289-1.565l3.25-.101v-.821c0-1.898-.971-2.848-2.915-2.848-1.496 0-3.255.453-5.276 1.357l-1.691-3.45c2.155-1.128 4.544-1.692 7.168-1.692 2.513 0 4.438.548 5.779 1.642 1.34 1.095 2.01 2.758 2.01 4.991v12.479h-3.568zm-1.507-8.676l-1.977.066c-1.485.045-2.59.312-3.316.804-.726.492-1.088 1.24-1.088 2.245 0 1.44.826 2.16 2.479 2.16 1.183 0 2.129-.34 2.839-1.021.709-.681 1.063-1.585 1.063-2.713v-1.541zm27.62 8.676h-5.108v-10.938c0-1.351-.24-2.364-.72-3.04-.48-.676-1.246-1.013-2.295-1.013-1.429 0-2.462.477-3.099 1.432-.636.955-.955 2.537-.955 4.748v8.811h-5.109V95.897h3.903l.687 2.395h.285a5.405 5.405 0 0 1 2.353-2.052c.999-.463 2.136-.694 3.409-.694 2.177 0 3.83.589 4.958 1.767 1.128 1.179 1.692 2.878 1.692 5.101v12.209zm22.276-9.396c0 3.049-.804 5.433-2.412 7.152-1.608 1.72-3.847 2.579-6.716 2.579-1.798 0-3.383-.394-4.757-1.181s-2.429-1.918-3.166-3.392c-.737-1.475-1.105-3.193-1.105-5.159 0-3.06.798-5.438 2.395-7.135s3.841-2.546 6.733-2.546c1.798 0 3.383.391 4.757 1.172 1.374.782 2.429 1.904 3.166 3.367s1.105 3.178 1.105 5.143zm-12.947 0c0 1.854.304 3.255.913 4.204.608.949 1.599 1.424 2.973 1.424 1.362 0 2.342-.472 2.939-1.415s.896-2.348.896-4.213c0-1.854-.302-3.243-.905-4.171-.603-.927-1.591-1.39-2.964-1.39-1.363 0-2.345.46-2.948 1.382-.603.921-.904 2.314-.904 4.179zm30.233 3.835c0 1.921-.667 3.383-2.002 4.388s-3.33 1.508-5.988 1.508c-1.362 0-2.523-.092-3.484-.276s-1.859-.455-2.697-.812v-4.221c.949.447 2.019.82 3.208 1.122 1.189.302 2.236.452 3.141.452 1.854 0 2.78-.536 2.78-1.607 0-.402-.123-.729-.368-.98-.246-.251-.67-.535-1.273-.854s-1.407-.689-2.412-1.114c-1.44-.603-2.499-1.161-3.174-1.675-.676-.514-1.167-1.103-1.474-1.768-.307-.664-.46-1.481-.46-2.453 0-1.664.645-2.951 1.935-3.861 1.29-.909 3.118-1.364 5.485-1.364 2.255 0 4.45.491 6.583 1.474l-1.541 3.685a28.688 28.688 0 0 0-2.629-.988 8.252 8.252 0 0 0-2.496-.385c-1.507 0-2.261.407-2.261 1.223 0 .458.243.854.729 1.189s1.549.832 3.19 1.49c1.463.592 2.535 1.145 3.216 1.658.681.514 1.183 1.105 1.507 1.775.323.669.485 1.468.485 2.394zm-76.821 20.214c-.939 0-1.677-.364-2.213-1.094-.536-.729-.804-1.739-.804-3.031 0-1.311.273-2.331.819-3.063.545-.731 1.297-1.097 2.255-1.097 1.005 0 1.773.391 2.302 1.172h.071a8.885 8.885 0 0 1-.165-1.594v-2.56h2.188v11.124h-1.673l-.421-1.037h-.093c-.496.788-1.251 1.18-2.266 1.18zm.764-1.737c.558 0 .966-.161 1.227-.485.259-.324.401-.875.425-1.651v-.236c0-.858-.132-1.473-.397-1.845s-.695-.558-1.291-.558c-.486 0-.864.206-1.133.618-.27.413-.404 1.012-.404 1.799 0 .786.136 1.376.408 1.769.272.393.661.589 1.165.589zm9.002 1.737c-1.287 0-2.292-.354-3.017-1.064-.725-.711-1.087-1.716-1.087-3.018 0-1.339.335-2.374 1.004-3.106.669-.731 1.596-1.097 2.777-1.097 1.13 0 2.009.321 2.638.965.629.644.944 1.532.944 2.667v1.058h-5.155c.024.62.208 1.104.551 1.451s.824.522 1.444.522c.481 0 .937-.051 1.366-.15.429-.101.877-.26 1.344-.479v1.688c-.382.19-.789.332-1.223.426-.433.091-.962.137-1.586.137zm-.307-6.734c-.462 0-.825.146-1.087.439-.262.294-.412.709-.45 1.248h3.06c-.009-.539-.15-.954-.421-1.248-.273-.293-.64-.439-1.102-.439zm15.129 6.592h-2.181v-4.669c0-.576-.096-1.009-.29-1.297-.193-.288-.497-.433-.912-.433-.558 0-.962.205-1.215.614-.252.41-.379 1.085-.379 2.023v3.761h-2.18v-7.993h1.666l.293 1.022h.122c.215-.367.524-.654.93-.861.405-.207.87-.311 1.394-.311 1.196 0 2.006.391 2.431 1.172h.193c.215-.371.53-.66.947-.865a3.173 3.173 0 0 1 1.412-.307c.906 0 1.591.231 2.056.696.464.465.697 1.21.697 2.234v5.212h-2.188v-4.669c0-.576-.097-1.009-.29-1.297s-.497-.433-.912-.433c-.534 0-.933.19-1.197.572-.265.381-.397.986-.397 1.815v4.014zm10.252.142c-1.287 0-2.292-.354-3.017-1.064-.725-.711-1.087-1.716-1.087-3.018 0-1.339.335-2.374 1.004-3.106.669-.731 1.596-1.097 2.777-1.097 1.13 0 2.009.321 2.638.965.629.644.944 1.532.944 2.667v1.058h-5.155c.024.62.208 1.104.551 1.451s.824.522 1.444.522c.481 0 .937-.051 1.366-.15.429-.101.877-.26 1.344-.479v1.688c-.382.19-.789.332-1.223.426-.433.091-.961.137-1.586.137zm-.307-6.734c-.462 0-.825.146-1.087.439-.262.294-.412.709-.45 1.248h3.06c-.009-.539-.15-.954-.421-1.248-.273-.293-.64-.439-1.102-.439zm9.216-1.551c.295 0 .541.021.736.063l-.165 2.045a2.483 2.483 0 0 0-.643-.071c-.696 0-1.238.179-1.626.536-.389.357-.583.858-.583 1.501v4.068h-2.18v-7.993h1.651l.322 1.345h.107c.248-.448.583-.81 1.005-1.083.421-.274.88-.411 1.376-.411zm4.847 8.285c-2.488 0-3.732-1.365-3.732-4.096 0-1.358.338-2.396 1.015-3.114.677-.717 1.647-1.075 2.91-1.075.925 0 1.754.181 2.488.543l-.644 1.688c-.343-.139-.663-.252-.958-.34s-.591-.133-.887-.133c-1.134 0-1.701.806-1.701 2.417 0 1.563.567 2.345 1.701 2.345.419 0 .808-.056 1.166-.168a4.18 4.18 0 0 0 1.072-.525v1.866a3.523 3.523 0 0 1-1.069.465c-.359.084-.813.127-1.361.127zm8.773-.142l-.422-1.087h-.057c-.367.463-.745.783-1.133.962-.389.179-.895.268-1.52.268-.767 0-1.372-.219-1.812-.657-.441-.438-.662-1.062-.662-1.873 0-.849.297-1.474.89-1.877.593-.402 1.488-.625 2.685-.668l1.387-.043v-.351c0-.811-.415-1.216-1.244-1.216-.639 0-1.39.193-2.252.579l-.722-1.473c.92-.481 1.94-.722 3.06-.722 1.072 0 1.895.233 2.466.7.572.468.858 1.178.858 2.131v5.326h-1.522zm-.644-3.703l-.843.028c-.634.02-1.106.134-1.416.343-.31.21-.465.529-.465.958 0 .615.353.923 1.058.923.505 0 .909-.146 1.212-.437.303-.29.454-.677.454-1.158v-.657zm6.357 3.845c-.939 0-1.677-.364-2.213-1.094-.536-.729-.804-1.739-.804-3.031 0-1.311.273-2.331.819-3.063.545-.731 1.297-1.097 2.255-1.097 1.005 0 1.773.391 2.302 1.172h.071a8.885 8.885 0 0 1-.165-1.594v-2.56h2.188v11.124h-1.673l-.421-1.037h-.093c-.495.788-1.251 1.18-2.266 1.18zm.765-1.737c.558 0 .966-.161 1.227-.485.259-.324.401-.875.425-1.651v-.236c0-.858-.132-1.473-.397-1.845s-.695-.558-1.291-.558c-.486 0-.864.206-1.133.618-.27.413-.404 1.012-.404 1.799 0 .786.136 1.376.408 1.769.271.393.66.589 1.165.589zm12.648-2.416c0 1.301-.343 2.318-1.03 3.053-.686.734-1.642 1.101-2.867 1.101-.768 0-1.444-.168-2.03-.504a3.358 3.358 0 0 1-1.352-1.447c-.314-.629-.472-1.363-.472-2.202 0-1.306.341-2.321 1.022-3.046.682-.724 1.64-1.086 2.874-1.086.767 0 1.444.166 2.03.5s1.037.812 1.351 1.438c.316.623.474 1.354.474 2.193zm-5.526 0c0 .791.129 1.39.39 1.795.259.404.683.607 1.269.607.582 0 1-.201 1.255-.604.255-.402.382-1.002.382-1.798 0-.791-.128-1.385-.386-1.78s-.679-.594-1.266-.594c-.582 0-1.001.197-1.258.59-.258.393-.386.988-.386 1.784z" fill="#939393"/></svg>