<svg xmlns="http://www.w3.org/2000/svg" width="124" height="34" viewBox="0 0 124 34"><path d="M9.138 11.101v10.12h2.57v2.307H6.682V11.101h2.456zm8.418 0l2.983 12.426h-2.62l-.462-2.094h-2.488l-.445 2.094h-2.439l2.884-12.426h2.587zm-1.087 5.076l-.28-1.879h-.033l-.264 1.879-.527 3.312h1.73l-.626-3.312zm7.412-5.076l3.065 7.499.033-.033c-.148-.593-.198-1.236-.198-1.878v-5.587h2.456v12.426h-2.324l-3.032-7.499-.033.033.115 1.252.017.511v5.703h-2.456V11.101h2.357zm13.28 2.34a3.542 3.542 0 0 0-.923-.132c-2.159 0-3.098 1.961-3.098 3.873 0 1.845.939 4.121 3.082 4.121.313 0 .626-.082.939-.182v2.324a2.975 2.975 0 0 1-1.137.213c-3.543 0-5.504-3.197-5.504-6.459 0-3.082 2.044-6.246 5.389-6.246.428 0 .84.083 1.252.23v2.258zm-1.467 11.471l-1.73 2.207-1.038-.527 1.285-2.273 1.483.593zm7.447-13.811l2.983 12.426h-2.621l-.461-2.094h-2.489l-.445 2.094h-2.439l2.884-12.426h2.588zm-1.088 5.076l-.28-1.879h-.033l-.264 1.879-.527 3.312h1.73l-.626-3.312zm8.88-5.076l1.203 7.333h.032l.989-7.333h3.296l1.302 12.426h-2.521l-.593-8.949h-.033l-.396 3.065-1.055 5.884h-1.896l-1.203-5.95-.412-2.769v-.23h-.033l-.363 8.949h-2.637l1.088-12.426h3.232zm13.014 0v2.308h-2.488v2.702h2.191v2.307h-2.191v2.803h2.521v2.307h-4.978V11.101h4.945zm3.871 0l3.064 7.499.033-.033c-.148-.593-.197-1.236-.197-1.878v-5.587h2.455v12.426H70.85l-3.031-7.499-.033.033.115 1.252.017.511v5.703h-2.456V11.101h2.356zm12.785 0v2.308h-1.944v10.119h-2.455V13.409h-1.929v-2.308h6.328zm9.407 6.213c0 4.665-2.175 6.411-4.366 6.411-2.192 0-4.367-1.746-4.367-6.411 0-4.664 2.175-6.41 4.367-6.41 2.191 0 4.366 1.746 4.366 6.41zm-4.366 4.137c1.631 0 1.746-3.148 1.746-4.137 0-1.104-.115-4.136-1.746-4.136-1.632 0-1.747 3.032-1.747 4.136-.001.989.115 4.137 1.747 4.137zm25.471-8.371l1.789 5.505h5.788l-4.682 3.403 1.788 5.506-4.683-3.402-4.683 3.402 1.788-5.506-4.683-3.403h5.788zm-10.133-6.432l1.042 3.208h3.373l-2.728 1.983 1.042 3.208-2.729-1.982-2.729 1.982 1.042-3.208-2.729-1.983h3.373z" fill="#EB3046"/></svg>