<svg xmlns="http://www.w3.org/2000/svg" width="278" height="71.667" viewBox="0 0 278 71.667"><path fill="#1AB51E" d="M276 62.166a4.834 4.834 0 0 1-4.835 4.835H6.834A4.836 4.836 0 0 1 2 62.166V9.168a4.834 4.834 0 0 1 4.834-4.834h264.331A4.835 4.835 0 0 1 276 9.168v52.998z"/><path d="M49.729 39.289l4.478 1.42c-.686 2.496-1.828 4.352-3.425 5.562-1.597 1.214-3.623 1.818-6.078 1.818-3.038 0-5.535-1.039-7.49-3.113-1.956-2.075-2.934-4.914-2.934-8.513 0-3.808.983-6.765 2.949-8.871 1.967-2.106 4.551-3.16 7.756-3.16 2.798 0 5.072.827 6.819 2.481 1.041.978 1.82 2.382 2.341 4.213l-4.572 1.092c-.271-1.186-.835-2.123-1.693-2.809-.858-.687-1.901-1.03-3.128-1.03-1.696 0-3.072.609-4.127 1.826-1.056 1.217-1.584 3.188-1.584 5.914 0 2.893.52 4.952 1.561 6.18 1.04 1.228 2.393 1.84 4.057 1.84 1.228 0 2.283-.389 3.168-1.17.882-.777 1.516-2.007 1.902-3.68zm7.505-2.887c0-2.33.349-4.286 1.046-5.868a10.742 10.742 0 0 1 2.13-3.136c.9-.927 1.886-1.613 2.957-2.061 1.425-.603 3.069-.905 4.932-.905 3.37 0 6.067 1.045 8.091 3.138 2.023 2.091 3.035 4.999 3.035 8.723 0 3.694-1.004 6.583-3.012 8.668-2.008 2.085-4.692 3.129-8.052 3.129-3.401 0-6.107-1.039-8.115-3.113-2.008-2.076-3.012-4.935-3.012-8.575zm4.76-.157c0 2.591.598 4.554 1.794 5.892 1.196 1.336 2.715 2.004 4.557 2.004 1.842 0 3.353-.662 4.533-1.987 1.181-1.328 1.771-3.316 1.771-5.971 0-2.621-.575-4.576-1.725-5.866-1.15-1.29-2.676-1.936-4.58-1.936s-3.438.653-4.603 1.959c-1.164 1.304-1.747 3.274-1.747 5.905zM83.076 47.7V24.823h4.494l9.363 15.276V24.823h4.292v22.876H96.59l-9.223-14.918v14.918l-4.291.001zm28.182 0V28.693h-6.788v-3.87h18.18v3.87h-6.772v19.006l-4.62.001zm14.233 0V24.823h4.619v22.876l-4.619.001zm9.066 0V24.823h4.494l9.363 15.276V24.823h4.291v22.876h-4.635l-9.222-14.918v14.918l-4.291.001zm23.002-22.877h4.619v12.391c0 1.966.057 3.24.172 3.824.197.936.668 1.688 1.412 2.254s1.76.85 3.051.85c1.312 0 2.299-.266 2.966-.803.664-.535 1.066-1.193 1.201-1.975.135-.779.201-2.074.201-3.886V24.823h4.62v12.016c0 2.746-.125 4.688-.374 5.822-.25 1.133-.711 2.09-1.382 2.871-.671.778-1.567 1.399-2.69 1.862-1.125.464-2.591.695-4.4.695-2.185 0-3.843-.252-4.972-.756-1.127-.506-2.021-1.16-2.676-1.967-.656-.808-1.088-1.652-1.295-2.537-.302-1.312-.453-3.246-.453-5.804V24.823zM201.3 47.7h-5.025l-1.996-5.197h-9.146l-1.888 5.197h-4.899l8.91-22.876h4.885L201.3 47.7zm-8.505-9.051l-3.151-8.489-3.09 8.489h6.241zm10.972 9.051V24.823h9.721c2.445 0 4.222.205 5.33.616 1.107.41 1.994 1.142 2.66 2.191.664 1.051.998 2.253.998 3.605 0 1.717-.504 3.134-1.514 4.252-1.01 1.119-2.518 1.823-4.525 2.114 1 .583 1.823 1.224 2.474 1.921.649.694 1.526 1.934 2.63 3.713l2.794 4.463h-5.524l-3.34-4.979c-1.186-1.776-1.996-2.897-2.435-3.362-.437-.462-.899-.779-1.39-.951s-1.264-.258-2.324-.258h-.936v9.551l-4.619.001zm4.619-13.202h3.416c2.217 0 3.6-.094 4.15-.281.552-.188.982-.51 1.296-.967.312-.458.468-1.03.468-1.717 0-.771-.205-1.393-.615-1.865-.41-.474-.99-.772-1.74-.897-.375-.052-1.498-.077-3.371-.077h-3.604v5.804zm51.424 1.762a1.856 1.856 0 0 0-.545-1.331L245.95 21.616a1.86 1.86 0 0 0-2.633 0 1.865 1.865 0 0 0 0 2.634l12.014 12.012-12.014 12.013a1.864 1.864 0 0 0 0 2.633 1.858 1.858 0 0 0 2.633 0l13.316-13.313c.366-.37.547-.854.544-1.335z" fill="#FFF"/></svg>