<svg xmlns="http://www.w3.org/2000/svg" width="230" height="115" viewBox="0 0 230 115"><path d="M127.354 38.565V25.956h2.006c1.439 0 3.278.134 3.278 3.378 0 2.559-1.003 3.746-3.612 3.646v5.586h-1.672zm1.671-11.188v4.181c1.438.101 1.84-.686 1.84-2.09 0-1.137-.334-2.09-1.605-2.09h-.235zm7.428-1.421l2.709 12.609h-1.689l-.468-2.458h-2.509l-.468 2.458h-1.64l2.743-12.609h1.322zm-.033 7.023l-.636-4.582h-.034l-1.003 6.405h2.007l-.334-1.823zm3.849-7.023h2.007c1.221 0 3.127.066 3.127 3.228 0 1.188-.351 2.993-1.738 3.244l2.324 6.138h-1.739l-2.274-6.171h-.033v6.171h-1.673v-12.61zm3.361 3.595c0-1.204-.15-2.208-1.421-2.174h-.268v4.164c1.254.084 1.689-.719 1.689-1.99zm6.709-3.595l2.709 12.609h-1.688l-.469-2.458h-2.509l-.468 2.458h-1.639l2.742-12.609h1.322zm-.034 7.023l-.635-4.582h-.033l-1.004 6.405h2.007l-.335-1.823zm11.728-7.023v1.455h-1.891v11.155h-1.672V27.411h-1.974v-1.455h5.537zm.955 0h2.006c1.222 0 3.128.066 3.128 3.228 0 1.188-.351 2.993-1.739 3.244l2.324 6.138h-1.738l-2.275-6.171h-.033v6.171h-1.672v-12.61zm3.362 3.595c0-1.204-.15-2.208-1.422-2.174h-.268v4.164c1.254.084 1.69-.719 1.69-1.99zm9.836 2.71c0 2.274-.033 6.472-3.278 6.472-3.244 0-3.277-4.197-3.277-6.472s.033-6.472 3.277-6.472 3.278 4.197 3.278 6.472zm-4.784 0c0 2.676.184 4.9 1.505 4.9s1.505-2.224 1.505-4.9-.184-4.9-1.505-4.9-1.505 2.224-1.505 4.9zm11.393-4.583c-.335-.167-.687-.318-1.07-.318-2.342 0-2.358 3.412-2.358 4.984 0 1.672.134 4.816 2.425 4.816.368 0 .686-.083 1.004-.251v1.472c-.419.268-.854.351-1.338.351-3.412 0-3.863-3.629-3.863-6.271 0-2.525.317-6.673 3.746-6.673.568 0 .97.083 1.455.368v1.522zm4.4-1.722l2.709 12.609h-1.688l-.469-2.458h-2.509l-.468 2.458h-1.639l2.742-12.609h1.322zm-.033 7.023l-.636-4.582h-.033l-1.004 6.405h2.007l-.334-1.823zm3.849-7.023h2.007c1.221 0 3.127.066 3.127 3.228 0 1.188-.352 2.993-1.739 3.244l2.324 6.138h-1.739l-2.274-6.171h-.033v6.171h-1.672v-12.61zm3.361 3.595c0-1.204-.15-2.208-1.422-2.174h-.268v4.164c1.255.084 1.69-.719 1.69-1.99zM67.135 25.956v12.609H64.71V28.13h-1.204v-2.174h3.629zm5.405 5.786c-1.137-.385-1.723-1.472-1.723-2.659 0-1.856 1.238-3.328 3.161-3.328 1.907 0 3.145 1.472 3.145 3.328 0 1.188-.569 2.258-1.723 2.676v.017c1.572.502 2.19 1.756 2.19 3.345 0 2.074-1.505 3.646-3.612 3.646s-3.629-1.572-3.629-3.646c0-1.622.619-2.826 2.191-3.345v-.034zm.367 3.061c0 .652.184 1.789 1.054 1.789.853 0 1.07-1.17 1.07-1.789s-.268-1.823-1.087-1.823c-.853-.001-1.037 1.17-1.037 1.823zm1.021-4.332c.769 0 .769-.953.769-1.421 0-.452-.083-1.338-.769-1.338-.602 0-.686.87-.686 1.321 0 .485.067 1.438.686 1.438zm11.776 1.79c0 2.224-.519 6.505-3.545 6.505s-3.545-4.281-3.545-6.505c0-2.225.519-6.506 3.545-6.506s3.545 4.281 3.545 6.506zm-4.666 0c0 .819-.117 4.231 1.121 4.231s1.121-3.412 1.121-4.231.117-4.231-1.121-4.231c-1.238-.001-1.121 3.411-1.121 4.231zm10.207 6.304V25.956h1.89c.435 0 5.652-.636 5.652 6.405 0 3.596-1.388 6.205-5.318 6.205h-2.224zm5.05-6.221c0-1.605-.502-4.147-2.559-4.147v8.127c2.007.101 2.559-2.408 2.559-3.98zm6.309-6.388v12.609h-2.492V25.956h2.492zm6.573 0l3.027 12.609h-2.659l-.468-2.124h-2.525l-.452 2.124h-2.475l2.927-12.609h2.625zm-1.104 5.15l-.284-1.906h-.033l-.268 1.906-.535 3.362h1.756l-.636-3.362zm10.323-2.307c-.501-.435-1.12-.803-1.806-.803-.77 0-1.254.468-1.254 1.237 0 2.074 3.796 2.191 3.796 5.603 0 2.241-1.288 3.93-3.629 3.93-.703 0-1.572-.217-2.141-.635v-2.375c.585.401 1.154.669 1.89.669.803 0 1.438-.535 1.438-1.371 0-.97-.77-1.338-1.472-1.84-1.438-.97-2.325-1.906-2.325-3.746 0-1.99 1.154-3.713 3.295-3.713.803 0 1.521.218 2.207.619v2.425zM69.012 57.341c0 .754-.273 1.342-.82 1.764s-1.289.633-2.227.633c-1.016 0-1.797-.131-2.344-.393v-.961c.352.148.734.266 1.148.352s.824.129 1.23.129c.664 0 1.164-.126 1.5-.378s.504-.603.504-1.052c0-.297-.06-.54-.179-.729s-.318-.364-.598-.524-.704-.342-1.274-.545c-.797-.285-1.366-.623-1.708-1.014s-.513-.9-.513-1.529c0-.66.248-1.186.744-1.576s1.152-.586 1.969-.586c.852 0 1.635.156 2.35.469l-.311.867c-.707-.297-1.395-.445-2.062-.445-.527 0-.939.113-1.236.34s-.445.541-.445.943c0 .297.055.54.164.729s.294.363.554.521.657.333 1.192.524c.898.32 1.517.664 1.854 1.031s.508.844.508 1.43zm4.018 2.396c-.949 0-1.698-.289-2.247-.867s-.823-1.381-.823-2.408c0-1.035.255-1.857.765-2.467s1.194-.914 2.054-.914c.805 0 1.441.265 1.91.794s.703 1.228.703 2.095v.615h-4.424c.02.754.21 1.326.571 1.717s.87.586 1.526.586c.691 0 1.375-.145 2.051-.434v.867c-.344.148-.669.255-.976.319s-.676.097-1.11.097zm-.263-5.841c-.516 0-.927.168-1.233.504s-.487.801-.542 1.395h3.357c0-.613-.137-1.083-.41-1.409s-.665-.49-1.172-.49zm12.168 5.724v-4.178c0-.512-.109-.896-.328-1.151s-.559-.384-1.02-.384c-.605 0-1.053.174-1.342.521s-.434.883-.434 1.605v3.586h-.973v-4.178c0-.512-.109-.896-.328-1.151s-.561-.384-1.025-.384c-.609 0-1.056.183-1.339.548s-.425.964-.425 1.796v3.369h-.971v-6.422h.791l.158.879h.047c.184-.312.442-.557.776-.732s.708-.264 1.122-.264c1.004 0 1.66.363 1.969 1.09h.047c.191-.336.469-.602.832-.797s.777-.293 1.242-.293c.727 0 1.271.187 1.632.56s.542.97.542 1.79v4.189h-.973zm8.06.117c-.93 0-1.649-.286-2.159-.858s-.765-1.382-.765-2.429c0-1.074.259-1.904.776-2.49s1.255-.879 2.212-.879c.309 0 .617.033.926.1s.551.145.727.234l-.299.826c-.215-.086-.449-.157-.703-.214s-.479-.085-.674-.085c-1.305 0-1.957.832-1.957 2.496 0 .789.159 1.395.478 1.816s.79.633 1.415.633c.535 0 1.084-.115 1.646-.346v.861c-.43.224-.971.335-1.623.335zm3.761-6.539v4.166c0 .523.119.914.357 1.172s.611.387 1.119.387c.672 0 1.163-.184 1.474-.551s.466-.967.466-1.799v-3.375h.973v6.422h-.803l-.141-.861h-.053c-.199.316-.476.559-.829.727s-.757.252-1.21.252c-.781 0-1.366-.186-1.755-.557s-.583-.965-.583-1.781v-4.201h.985zm10.294 4.67c0 .598-.223 1.059-.668 1.383s-1.07.486-1.875.486c-.852 0-1.516-.135-1.992-.404v-.902c.309.156.64.279.993.369s.694.135 1.022.135c.508 0 .898-.081 1.172-.243s.41-.409.41-.741c0-.25-.108-.464-.325-.642s-.64-.388-1.269-.63c-.598-.223-1.022-.417-1.274-.583s-.439-.354-.562-.565-.185-.463-.185-.756c0-.523.213-.937.639-1.239s1.01-.454 1.752-.454a5.13 5.13 0 0 1 2.027.422l-.346.791c-.645-.266-1.229-.398-1.752-.398-.461 0-.809.072-1.043.217s-.352.344-.352.598c0 .172.044.318.132.439s.229.236.425.346.57.268 1.125.475c.762.277 1.276.557 1.544.838s.402.632.402 1.058zm3.356 1.067c.172 0 .338-.013.498-.038s.287-.052.381-.079v.744c-.105.051-.262.093-.467.126s-.389.05-.553.05c-1.243 0-1.864-.654-1.864-1.963v-3.82h-.92v-.469l.92-.404.41-1.371h.562v1.488h1.864v.756h-1.864v3.779c0 .387.092.684.276.891.185.206.437.31.757.31zm7.405-2.532c0 1.047-.264 1.864-.791 2.452s-1.256.882-2.186.882c-.574 0-1.084-.135-1.529-.404s-.789-.656-1.031-1.16-.363-1.094-.363-1.77c0-1.047.262-1.862.785-2.446s1.25-.876 2.18-.876c.898 0 1.612.299 2.142.896s.793 1.407.793 2.426zm-4.893 0c0 .82.164 1.445.492 1.875s.811.645 1.447.645 1.12-.214 1.45-.642.495-1.054.495-1.878c0-.816-.165-1.437-.495-1.86s-.817-.636-1.462-.636c-.637 0-1.117.209-1.441.627s-.486 1.041-.486 1.869zm13.064 3.217l-.193-.914h-.047c-.32.402-.64.675-.958.817s-.716.214-1.192.214c-.637 0-1.136-.164-1.497-.492s-.542-.795-.542-1.4c0-1.297 1.037-1.977 3.111-2.039l1.09-.035v-.398c0-.504-.108-.876-.325-1.116s-.563-.36-1.04-.36c-.535 0-1.141.164-1.816.492l-.299-.744c.316-.172.663-.307 1.04-.404s.755-.146 1.134-.146c.766 0 1.333.17 1.702.51s.554.885.554 1.635v4.383h-.722zm-2.197-.685c.605 0 1.081-.166 1.427-.498s.519-.797.519-1.395v-.58l-.973.041c-.773.027-1.331.147-1.673.36s-.513.544-.513.993c0 .352.106.619.319.803s.511.276.894.276zm8.993-.176h-.053c-.449.652-1.121.979-2.016.979-.84 0-1.493-.287-1.96-.861s-.7-1.391-.7-2.449.234-1.881.703-2.467 1.121-.879 1.957-.879c.871 0 1.539.316 2.004.949h.076l-.041-.463-.023-.451v-2.613h.973v9.117h-.791l-.129-.862zm-1.945.164c.664 0 1.146-.181 1.444-.542s.448-.944.448-1.749v-.205c0-.91-.151-1.56-.454-1.948s-.786-.583-1.45-.583c-.57 0-1.007.222-1.31.665s-.454 1.069-.454 1.878c0 .82.15 1.439.451 1.857s.743.627 1.325.627zm4.546-7.465c0-.223.055-.386.164-.489s.246-.155.41-.155c.156 0 .291.053.404.158s.17.268.17.486-.057.382-.17.489-.248.161-.404.161c-.164 0-.301-.054-.41-.161s-.164-.27-.164-.489zm1.055 8.162h-.973v-6.422h.973v6.422zm4.328.117c-.93 0-1.649-.286-2.159-.858s-.765-1.382-.765-2.429c0-1.074.259-1.904.776-2.49s1.255-.879 2.212-.879c.309 0 .617.033.926.1s.551.145.727.234l-.299.826c-.215-.086-.449-.157-.703-.214s-.479-.085-.674-.085c-1.305 0-1.957.832-1.957 2.496 0 .789.159 1.395.478 1.816s.79.633 1.415.633c.535 0 1.084-.115 1.646-.346v.861c-.43.224-.971.335-1.623.335zm2.764-8.279c0-.223.055-.386.164-.489s.246-.155.41-.155c.156 0 .291.053.404.158s.17.268.17.486-.057.382-.17.489-.248.161-.404.161c-.164 0-.301-.054-.41-.161s-.164-.27-.164-.489zm1.055 8.162h-.973v-6.422h.973v6.422zm7.306-3.217c0 1.047-.264 1.864-.791 2.452s-1.256.882-2.186.882c-.574 0-1.084-.135-1.529-.404s-.789-.656-1.031-1.16-.363-1.094-.363-1.77c0-1.047.262-1.862.785-2.446s1.25-.876 2.18-.876c.898 0 1.612.299 2.142.896s.793 1.407.793 2.426zm-4.893 0c0 .82.164 1.445.492 1.875s.811.645 1.447.645 1.12-.214 1.45-.642.495-1.054.495-1.878c0-.816-.165-1.437-.495-1.86s-.817-.636-1.462-.636c-.637 0-1.117.209-1.441.627s-.486 1.041-.486 1.869zm10.693 3.217v-4.154c0-.523-.119-.914-.357-1.172s-.611-.387-1.119-.387c-.672 0-1.164.182-1.477.545s-.469.963-.469 1.799v3.369h-.973v-6.422h.791l.158.879h.047c.199-.316.479-.562.838-.735s.76-.261 1.201-.261c.773 0 1.355.187 1.746.56s.586.97.586 1.79v4.189h-.972zm6.62 0l-.193-.914h-.047c-.32.402-.64.675-.958.817s-.716.214-1.192.214c-.637 0-1.136-.164-1.497-.492s-.542-.795-.542-1.4c0-1.297 1.037-1.977 3.111-2.039l1.09-.035v-.398c0-.504-.108-.876-.325-1.116s-.563-.36-1.04-.36c-.535 0-1.141.164-1.816.492l-.299-.744c.316-.172.663-.307 1.04-.404s.755-.146 1.134-.146c.766 0 1.333.17 1.702.51s.554.885.554 1.635v4.383h-.722zm-2.198-.685c.605 0 1.081-.166 1.427-.498s.519-.797.519-1.395v-.58l-.973.041c-.773.027-1.331.147-1.673.36s-.513.544-.513.993c0 .352.106.619.319.803s.512.276.894.276zm5.594.685h-.973v-9.117h.973v9.117zm7.568.117c-.418 0-.8-.077-1.146-.231s-.636-.392-.87-.712h-.07c.047.375.07.73.07 1.066v2.643h-.973v-9.305h.791l.135.879h.047c.25-.352.541-.605.873-.762s.713-.234 1.143-.234c.852 0 1.509.291 1.972.873s.694 1.398.694 2.449c0 1.055-.235 1.874-.706 2.458s-1.124.876-1.96.876zm-.14-5.83c-.656 0-1.131.182-1.424.545s-.443.941-.451 1.734v.217c0 .902.15 1.548.451 1.937s.783.583 1.447.583c.555 0 .989-.225 1.304-.674s.472-1.068.472-1.857c0-.801-.157-1.415-.472-1.843s-.757-.642-1.327-.642zm8.155 5.713l-.193-.914h-.047c-.32.402-.64.675-.958.817s-.716.214-1.192.214c-.637 0-1.136-.164-1.497-.492s-.542-.795-.542-1.4c0-1.297 1.037-1.977 3.111-2.039l1.09-.035v-.398c0-.504-.108-.876-.325-1.116s-.563-.36-1.04-.36c-.535 0-1.141.164-1.816.492l-.299-.744c.316-.172.663-.307 1.04-.404s.755-.146 1.134-.146c.766 0 1.333.17 1.702.51s.554.885.554 1.635v4.383h-.722zm-2.197-.685c.605 0 1.081-.166 1.427-.498s.519-.797.519-1.395v-.58l-.973.041c-.773.027-1.331.147-1.673.36s-.513.544-.513.993c0 .352.106.619.319.803s.511.276.894.276zm7.552-5.854c.285 0 .541.023.768.07l-.135.902a3.29 3.29 0 0 0-.703-.088c-.52 0-.964.211-1.333.633s-.554.947-.554 1.576v3.445h-.973v-6.422h.803l.111 1.189h.047c.238-.418.525-.74.861-.967s.705-.338 1.108-.338zm5.617 6.539l-.193-.914h-.047c-.32.402-.64.675-.958.817s-.716.214-1.192.214c-.637 0-1.136-.164-1.497-.492s-.542-.795-.542-1.4c0-1.297 1.037-1.977 3.111-2.039l1.09-.035v-.398c0-.504-.108-.876-.325-1.116s-.563-.36-1.04-.36c-.535 0-1.141.164-1.816.492l-.299-.744c.316-.172.663-.307 1.04-.404s.755-.146 1.134-.146c.766 0 1.333.17 1.702.51s.554.885.554 1.635v4.383h-.722zm-2.197-.685c.605 0 1.081-.166 1.427-.498s.519-.797.519-1.395v-.58l-.973.041c-.773.027-1.331.147-1.673.36s-.513.544-.513.993c0 .352.106.619.319.803s.511.276.894.276zM67.98 73.248l-.193-.914h-.047c-.32.402-.64.675-.958.817s-.716.214-1.192.214c-.637 0-1.136-.164-1.497-.492s-.542-.795-.542-1.4c0-1.297 1.037-1.977 3.111-2.039l1.09-.035V69c0-.504-.108-.876-.325-1.116s-.563-.36-1.04-.36c-.535 0-1.141.164-1.816.492l-.299-.744c.316-.172.663-.307 1.04-.404s.755-.146 1.134-.146c.766 0 1.333.17 1.702.51s.554.885.554 1.635v4.383h-.722zm-2.197-.686c.605 0 1.081-.166 1.427-.498s.519-.797.519-1.395v-.58l-.973.041c-.773.027-1.331.147-1.673.36s-.513.544-.513.993c0 .352.106.619.319.803s.511.276.894.276zm9.513 0c.172 0 .338-.013.498-.038s.287-.052.381-.079v.744c-.105.051-.261.093-.466.126s-.39.05-.554.05c-1.242 0-1.863-.654-1.863-1.963v-3.82h-.92v-.469l.92-.404.41-1.371h.562v1.488h1.863v.756h-1.863v3.779c0 .387.092.684.275.891s.437.31.757.31zm4.792-5.853c.285 0 .541.023.768.07l-.135.902a3.29 3.29 0 0 0-.703-.088c-.52 0-.964.211-1.333.633s-.554.947-.554 1.576v3.445h-.973v-6.422h.803l.111 1.189h.047c.238-.418.525-.74.861-.967s.706-.338 1.108-.338zm7.212 3.322c0 1.047-.264 1.864-.791 2.452s-1.256.882-2.186.882c-.574 0-1.084-.135-1.529-.404s-.789-.656-1.031-1.16-.363-1.094-.363-1.77c0-1.047.262-1.862.785-2.446s1.25-.876 2.18-.876c.898 0 1.612.299 2.142.896s.793 1.407.793 2.426zm-4.893 0c0 .82.164 1.445.492 1.875s.811.645 1.447.645 1.12-.214 1.45-.642.495-1.054.495-1.878c0-.816-.165-1.437-.495-1.86s-.817-.636-1.462-.636c-.637 0-1.117.209-1.441.627s-.486 1.041-.486 1.869zm8.864 3.334c-.93 0-1.649-.286-2.159-.858s-.765-1.382-.765-2.429c0-1.074.259-1.904.776-2.49s1.255-.879 2.212-.879c.309 0 .617.033.926.1s.551.145.727.234l-.299.826c-.215-.086-.449-.157-.703-.214s-.479-.085-.674-.085c-1.305 0-1.957.832-1.957 2.496 0 .789.159 1.395.478 1.816s.79.633 1.415.633c.535 0 1.084-.115 1.646-.346v.861c-.429.224-.97.335-1.623.335zm6.796-.117l-.193-.914h-.047c-.32.402-.64.675-.958.817s-.716.214-1.192.214c-.637 0-1.136-.164-1.497-.492s-.542-.795-.542-1.4c0-1.297 1.037-1.977 3.111-2.039l1.09-.035V69c0-.504-.108-.876-.325-1.116s-.563-.36-1.04-.36c-.535 0-1.141.164-1.816.492l-.299-.744c.316-.172.663-.307 1.04-.404s.755-.146 1.134-.146c.766 0 1.333.17 1.702.51s.554.885.554 1.635v4.383h-.722zm-2.197-.686c.605 0 1.081-.166 1.427-.498s.519-.797.519-1.395v-.58l-.973.041c-.773.027-1.331.147-1.673.36s-.513.544-.513.993c0 .352.106.619.319.803s.511.276.894.276zm11.81-.175h-.053c-.449.652-1.121.979-2.016.979-.84 0-1.493-.287-1.96-.861s-.7-1.391-.7-2.449.234-1.881.703-2.467 1.121-.879 1.957-.879c.871 0 1.539.316 2.004.949h.076l-.041-.463-.023-.451v-2.613h.973v9.117h-.791l-.129-.862zm-1.945.164c.664 0 1.146-.181 1.444-.542s.448-.944.448-1.749v-.205c0-.91-.151-1.56-.454-1.948s-.786-.583-1.45-.583c-.57 0-1.007.222-1.31.665s-.454 1.069-.454 1.878c0 .82.15 1.439.451 1.857s.743.627 1.325.627zm7.34.814c-.949 0-1.698-.289-2.247-.867s-.823-1.381-.823-2.408c0-1.035.255-1.857.765-2.467s1.194-.914 2.054-.914c.805 0 1.441.265 1.91.794s.703 1.228.703 2.095v.615h-4.424c.02.754.21 1.326.571 1.717s.87.586 1.526.586c.691 0 1.375-.145 2.051-.434v.867c-.344.148-.669.255-.976.319s-.676.097-1.11.097zm-.263-5.842c-.516 0-.927.168-1.233.504s-.487.801-.542 1.395h3.357c0-.613-.137-1.083-.41-1.409s-.665-.49-1.172-.49zm9.789 5.842c-.418 0-.8-.077-1.146-.231s-.636-.392-.87-.712h-.07c.047.375.07.73.07 1.066v2.643h-.973v-9.305h.791l.135.879h.047c.25-.352.541-.605.873-.762s.713-.234 1.143-.234c.852 0 1.509.291 1.972.873s.694 1.398.694 2.449c0 1.055-.235 1.874-.706 2.458s-1.124.876-1.96.876zm-.141-5.83c-.656 0-1.131.182-1.424.545s-.443.941-.451 1.734v.217c0 .902.15 1.548.451 1.937s.783.583 1.447.583c.555 0 .989-.225 1.304-.674s.472-1.068.472-1.857c0-.801-.157-1.415-.472-1.843s-.757-.642-1.327-.642zm7.136-.826c.285 0 .541.023.768.07l-.135.902a3.29 3.29 0 0 0-.703-.088c-.52 0-.964.211-1.333.633s-.554.947-.554 1.576v3.445h-.973v-6.422h.803l.111 1.189h.047c.238-.418.525-.74.861-.967s.705-.338 1.108-.338zm7.211 3.322c0 1.047-.264 1.864-.791 2.452s-1.256.882-2.186.882c-.574 0-1.084-.135-1.529-.404s-.789-.656-1.031-1.16-.363-1.094-.363-1.77c0-1.047.262-1.862.785-2.446s1.25-.876 2.18-.876c.898 0 1.612.299 2.142.896s.793 1.407.793 2.426zm-4.893 0c0 .82.164 1.445.492 1.875s.811.645 1.447.645 1.12-.214 1.45-.642.495-1.054.495-1.878c0-.816-.165-1.437-.495-1.86s-.817-.636-1.462-.636c-.637 0-1.117.209-1.441.627s-.486 1.041-.486 1.869zm10.669 2.356h-.053c-.449.652-1.121.979-2.016.979-.84 0-1.493-.287-1.96-.861s-.7-1.391-.7-2.449.234-1.881.703-2.467 1.121-.879 1.957-.879c.871 0 1.539.316 2.004.949h.076l-.041-.463-.023-.451v-2.613h.973v9.117h-.791l-.129-.862zm-1.945.164c.664 0 1.146-.181 1.444-.542s.448-.944.448-1.749v-.205c0-.91-.151-1.56-.454-1.948s-.786-.583-1.45-.583c-.57 0-1.007.222-1.31.665s-.454 1.069-.454 1.878c0 .82.15 1.439.451 1.857s.743.627 1.325.627zm5.542-5.725v4.166c0 .523.119.914.357 1.172s.611.387 1.119.387c.672 0 1.163-.184 1.474-.551s.466-.967.466-1.799v-3.375h.973v6.422h-.803l-.141-.861h-.053c-.199.316-.476.559-.829.727s-.757.252-1.21.252c-.781 0-1.366-.186-1.755-.557s-.583-.965-.583-1.781v-4.201h.985zm8.225 5.736c.172 0 .338-.013.498-.038s.287-.052.381-.079v.744c-.105.051-.261.093-.466.126s-.39.05-.554.05c-1.242 0-1.863-.654-1.863-1.963v-3.82h-.92v-.469l.92-.404.41-1.371h.562v1.488h1.863v.756h-1.863v3.779c0 .387.092.684.275.891s.437.31.757.31zm7.406-2.531c0 1.047-.264 1.864-.791 2.452s-1.256.882-2.186.882c-.574 0-1.084-.135-1.529-.404s-.789-.656-1.031-1.16-.363-1.094-.363-1.77c0-1.047.262-1.862.785-2.446s1.25-.876 2.18-.876c.898 0 1.612.299 2.142.896s.793 1.407.793 2.426zm-4.893 0c0 .82.164 1.445.492 1.875s.811.645 1.447.645 1.12-.214 1.45-.642.495-1.054.495-1.878c0-.816-.165-1.437-.495-1.86s-.817-.636-1.462-.636c-.637 0-1.117.209-1.441.627s-.486 1.041-.486 1.869zm10.439 1.465c0 .598-.223 1.059-.668 1.383s-1.07.486-1.875.486c-.852 0-1.516-.135-1.992-.404v-.902c.309.156.64.279.993.369s.694.135 1.022.135c.508 0 .898-.081 1.172-.243s.41-.409.41-.741c0-.25-.108-.464-.325-.642s-.64-.388-1.269-.63c-.598-.223-1.022-.417-1.274-.583s-.439-.354-.562-.565-.185-.463-.185-.756c0-.523.213-.937.639-1.239s1.01-.454 1.752-.454a5.13 5.13 0 0 1 2.027.422l-.346.791c-.645-.266-1.229-.398-1.752-.398-.461 0-.809.072-1.043.217s-.352.344-.352.598c0 .172.044.318.132.439s.229.236.425.346.57.268 1.125.475c.762.277 1.276.557 1.544.838s.402.632.402 1.058zm8.495 1.752v-4.154c0-.523-.119-.914-.357-1.172s-.611-.387-1.119-.387c-.672 0-1.164.182-1.477.545s-.469.963-.469 1.799v3.369h-.973v-6.422h.791l.158.879h.047c.199-.316.479-.562.838-.735s.76-.261 1.201-.261c.773 0 1.355.187 1.746.56s.586.97.586 1.79v4.189h-.972zm6.62 0l-.193-.914h-.047c-.32.402-.64.675-.958.817s-.716.214-1.192.214c-.637 0-1.136-.164-1.497-.492s-.542-.795-.542-1.4c0-1.297 1.037-1.977 3.111-2.039l1.09-.035V69c0-.504-.108-.876-.325-1.116s-.563-.36-1.04-.36c-.535 0-1.141.164-1.816.492l-.299-.744c.316-.172.663-.307 1.04-.404s.755-.146 1.134-.146c.766 0 1.333.17 1.702.51s.554.885.554 1.635v4.383h-.722zm-2.198-.686c.605 0 1.081-.166 1.427-.498s.519-.797.519-1.395v-.58l-.973.041c-.773.027-1.331.147-1.673.36s-.513.544-.513.993c0 .352.106.619.319.803s.512.276.894.276zM64.178 86.876V78.31h.996v7.664h3.779v.902h-4.775zm11.325-3.217c0 1.047-.264 1.864-.791 2.452s-1.256.882-2.186.882c-.574 0-1.084-.135-1.529-.404s-.789-.656-1.031-1.16-.363-1.094-.363-1.77c0-1.047.262-1.862.785-2.446s1.25-.876 2.18-.876c.898 0 1.612.299 2.142.896s.793 1.407.793 2.426zm-4.893 0c0 .82.164 1.445.492 1.875s.811.645 1.447.645 1.12-.214 1.45-.642.495-1.054.495-1.878c0-.816-.165-1.437-.495-1.86s-.817-.636-1.462-.636c-.637 0-1.117.209-1.441.627s-.486 1.041-.486 1.869zm5.518 6.1c-.371 0-.672-.049-.902-.146v-.791c.27.078.535.117.797.117.305 0 .528-.083.671-.249s.214-.419.214-.759v-7.477h.973v7.406c-.001 1.266-.585 1.899-1.753 1.899zm.698-11.045c0-.223.055-.386.164-.489s.246-.155.41-.155c.156 0 .291.053.404.158s.17.268.17.486-.057.382-.17.489-.248.161-.404.161c-.164 0-.301-.054-.41-.161s-.164-.27-.164-.489zm6.766 8.162l-.193-.914h-.047c-.32.402-.64.675-.958.817s-.716.214-1.192.214c-.637 0-1.136-.164-1.497-.492s-.542-.795-.542-1.4c0-1.297 1.037-1.977 3.111-2.039l1.09-.035v-.398c0-.504-.108-.876-.325-1.116s-.563-.36-1.04-.36c-.535 0-1.141.164-1.816.492l-.299-.744c.316-.172.663-.307 1.04-.404s.755-.146 1.134-.146c.766 0 1.333.17 1.702.51s.554.885.554 1.635v4.383h-.722zm-2.197-.686c.605 0 1.081-.166 1.427-.498s.519-.797.519-1.395v-.58l-.973.041c-.773.027-1.331.147-1.673.36s-.513.544-.513.993c0 .352.106.619.319.803s.511.276.894.276zm11.81-.175h-.053c-.449.652-1.121.979-2.016.979-.84 0-1.493-.287-1.96-.861s-.7-1.391-.7-2.449.234-1.881.703-2.467 1.121-.879 1.957-.879c.871 0 1.539.316 2.004.949h.076l-.041-.463-.023-.451V77.76h.973v9.117h-.791l-.129-.862zm-1.945.164c.664 0 1.146-.181 1.444-.542s.448-.944.448-1.749v-.205c0-.91-.151-1.56-.454-1.948s-.786-.583-1.45-.583c-.57 0-1.007.222-1.31.665s-.454 1.069-.454 1.878c0 .82.15 1.439.451 1.857s.743.627 1.325.627zm10.171-2.52c0 1.047-.264 1.864-.791 2.452s-1.256.882-2.186.882c-.574 0-1.084-.135-1.529-.404s-.789-.656-1.031-1.16-.363-1.094-.363-1.77c0-1.047.262-1.862.785-2.446s1.25-.876 2.18-.876c.898 0 1.612.299 2.142.896s.793 1.407.793 2.426zm-4.893 0c0 .82.164 1.445.492 1.875s.811.645 1.447.645 1.12-.214 1.45-.642.495-1.054.495-1.878c0-.816-.165-1.437-.495-1.86s-.817-.636-1.462-.636c-.637 0-1.117.209-1.441.627s-.486 1.041-.486 1.869zm14.692-2.853c0 .867-.295 1.534-.887 2.001s-1.439.7-2.541.7h-1.008v3.369h-.996V78.31h2.221c2.141 0 3.211.832 3.211 2.496zm-4.435 1.845h.896c.883 0 1.521-.143 1.916-.428.395-.285.592-.742.592-1.371 0-.566-.186-.988-.557-1.266-.371-.277-.949-.416-1.734-.416h-1.113v3.481zm8.712-2.314c.285 0 .541.023.768.07l-.135.902a3.29 3.29 0 0 0-.703-.088c-.52 0-.964.211-1.333.633s-.554.947-.554 1.576v3.445h-.973v-6.422h.803l.111 1.189h.047c.238-.418.525-.74.861-.967s.705-.338 1.108-.338zm5.618 6.539l-.193-.914h-.047c-.32.402-.64.675-.958.817s-.716.214-1.192.214c-.637 0-1.136-.164-1.497-.492s-.542-.795-.542-1.4c0-1.297 1.037-1.977 3.111-2.039l1.09-.035v-.398c0-.504-.108-.876-.325-1.116s-.563-.36-1.04-.36c-.535 0-1.141.164-1.816.492l-.299-.744c.316-.172.663-.307 1.04-.404s.755-.146 1.134-.146c.766 0 1.333.17 1.702.51s.554.885.554 1.635v4.383h-.722zm-2.197-.686c.605 0 1.081-.166 1.427-.498s.519-.797.519-1.395v-.58l-.973.041c-.773.027-1.331.147-1.673.36s-.513.544-.513.993c0 .352.106.619.319.803s.511.276.894.276zm8.729.686h-4.658v-.662l3.504-5.004h-3.287v-.756h4.354v.756l-3.457 4.91h3.545v.756zm3.919.117c-.949 0-1.698-.289-2.247-.867s-.823-1.381-.823-2.408c0-1.035.255-1.857.765-2.467s1.194-.914 2.054-.914c.805 0 1.441.265 1.91.794s.703 1.228.703 2.095v.615h-4.424c.02.754.21 1.326.571 1.717s.87.586 1.526.586c.691 0 1.375-.145 2.051-.434v.867c-.344.148-.669.255-.976.319s-.676.097-1.11.097zm-.264-5.842c-.516 0-.927.168-1.233.504s-.487.801-.542 1.395h3.357c0-.613-.137-1.083-.41-1.409s-.664-.49-1.172-.49zm6.913-.814c.285 0 .541.023.768.07l-.135.902a3.29 3.29 0 0 0-.703-.088c-.52 0-.964.211-1.333.633s-.554.947-.554 1.576v3.445h-.973v-6.422h.803l.111 1.189h.047c.238-.418.525-.74.861-.967s.705-.338 1.108-.338zm1.528 5.918c0-.262.06-.46.179-.595s.29-.202.513-.202c.227 0 .403.067.53.202s.19.333.19.595c0 .254-.064.449-.193.586s-.305.205-.527.205c-.199 0-.364-.062-.495-.185s-.197-.325-.197-.606zm-69.241 19.966c0 .754-.273 1.342-.82 1.764s-1.289.633-2.227.633c-1.016 0-1.797-.131-2.344-.393v-.961c.352.148.734.266 1.148.352s.824.129 1.23.129c.664 0 1.164-.126 1.5-.378s.504-.603.504-1.052c0-.297-.06-.54-.179-.729s-.318-.364-.598-.524-.704-.342-1.274-.545c-.797-.285-1.366-.623-1.708-1.014s-.513-.9-.513-1.529c0-.66.248-1.186.744-1.576s1.152-.586 1.969-.586c.852 0 1.635.156 2.35.469l-.311.867c-.707-.297-1.395-.445-2.062-.445-.527 0-.939.113-1.236.34s-.445.541-.445.943c0 .297.055.54.164.729s.294.363.554.521.657.333 1.192.524c.898.32 1.517.664 1.854 1.031s.508.844.508 1.43zm5.255 2.279l-.193-.914h-.047c-.32.402-.64.675-.958.817s-.716.214-1.192.214c-.637 0-1.136-.164-1.497-.492s-.542-.795-.542-1.4c0-1.297 1.037-1.977 3.111-2.039l1.09-.035v-.398c0-.504-.108-.876-.325-1.116s-.563-.36-1.04-.36c-.535 0-1.141.164-1.816.492l-.299-.744c.316-.172.663-.307 1.04-.404s.755-.146 1.134-.146c.766 0 1.333.17 1.702.51s.554.885.554 1.635v4.383h-.722zm-2.198-.686c.605 0 1.081-.166 1.427-.498s.519-.797.519-1.395v-.58l-.973.041c-.773.027-1.331.147-1.673.36s-.513.544-.513.993c0 .352.106.619.319.803s.512.276.894.276zm4.54-7.476c0-.223.055-.386.164-.489s.246-.155.41-.155c.156 0 .291.053.404.158s.17.268.17.486-.057.382-.17.489-.248.161-.404.161c-.164 0-.301-.054-.41-.161s-.164-.27-.164-.489zm1.055 8.162h-.973v-6.422h.973v6.422zm4.751-6.527c.844 0 1.499.288 1.966.864s.7 1.392.7 2.446-.235 1.874-.706 2.458-1.124.876-1.96.876c-.418 0-.8-.077-1.146-.231s-.636-.392-.87-.712h-.07l-.205.826h-.697v-9.117h.973v2.215c0 .496-.016.941-.047 1.336h.047c.452-.641 1.124-.961 2.015-.961zm-.141.814c-.664 0-1.143.19-1.436.571s-.439 1.022-.439 1.925.15 1.548.451 1.937.783.583 1.447.583c.598 0 1.043-.218 1.336-.653s.439-1.062.439-1.878c0-.836-.146-1.459-.439-1.869s-.746-.616-1.359-.616zm8.155 5.713l-.193-.914h-.047c-.32.402-.64.675-.958.817s-.716.214-1.192.214c-.637 0-1.136-.164-1.497-.492s-.542-.795-.542-1.4c0-1.297 1.037-1.977 3.111-2.039l1.09-.035v-.398c0-.504-.108-.876-.325-1.116s-.563-.36-1.04-.36c-.535 0-1.141.164-1.816.492l-.299-.744c.316-.172.663-.307 1.04-.404s.755-.146 1.134-.146c.766 0 1.333.17 1.702.51s.554.885.554 1.635v4.383h-.722zm-2.198-.686c.605 0 1.081-.166 1.427-.498s.519-.797.519-1.395v-.58l-.973.041c-.773.027-1.331.147-1.673.36s-.513.544-.513.993c0 .352.106.619.319.803s.512.276.894.276zm15.625.686v-4.178c0-.512-.109-.896-.328-1.151s-.559-.384-1.02-.384c-.605 0-1.053.174-1.342.521s-.434.883-.434 1.605v3.586h-.973v-4.178c0-.512-.109-.896-.328-1.151s-.561-.384-1.025-.384c-.609 0-1.056.183-1.339.548s-.425.964-.425 1.796v3.369h-.973v-6.422h.791l.158.879h.047c.184-.312.442-.557.776-.732s.708-.264 1.122-.264c1.004 0 1.66.363 1.969 1.09h.047c.191-.336.469-.602.832-.797s.777-.293 1.242-.293c.727 0 1.271.187 1.632.56s.542.97.542 1.79v4.189h-.971zm6.626 0l-.193-.914h-.047c-.32.402-.64.675-.958.817s-.716.214-1.192.214c-.637 0-1.136-.164-1.497-.492s-.542-.795-.542-1.4c0-1.297 1.037-1.977 3.111-2.039l1.09-.035v-.398c0-.504-.108-.876-.325-1.116s-.563-.36-1.04-.36c-.535 0-1.141.164-1.816.492l-.299-.744c.316-.172.663-.307 1.04-.404s.755-.146 1.134-.146c.766 0 1.333.17 1.702.51s.554.885.554 1.635v4.383h-.722zm-2.197-.686c.605 0 1.081-.166 1.427-.498s.519-.797.519-1.395v-.58l-.973.041c-.773.027-1.331.147-1.673.36s-.513.544-.513.993c0 .352.106.619.319.803s.511.276.894.276zm4.54-7.476c0-.223.055-.386.164-.489s.246-.155.41-.155c.156 0 .291.053.404.158s.17.268.17.486-.057.382-.17.489-.248.161-.404.161c-.164 0-.301-.054-.41-.161s-.164-.27-.164-.489zm1.054 8.162h-.973v-6.422h.973v6.422zm5.905-1.752c0 .598-.223 1.059-.668 1.383s-1.07.486-1.875.486c-.852 0-1.516-.135-1.992-.404v-.902c.309.156.64.279.993.369s.694.135 1.022.135c.508 0 .898-.081 1.172-.243s.41-.409.41-.741c0-.25-.108-.464-.325-.642s-.64-.388-1.269-.63c-.598-.223-1.022-.417-1.274-.583s-.439-.354-.562-.565-.185-.463-.185-.756c0-.523.213-.937.639-1.239s1.01-.454 1.752-.454a5.13 5.13 0 0 1 2.027.422l-.346.791c-.645-.266-1.229-.398-1.752-.398-.461 0-.809.072-1.043.217s-.352.344-.352.598c0 .172.044.318.132.439s.229.236.425.346.57.268 1.125.475c.762.277 1.276.557 1.544.838s.402.632.402 1.058zM64.5 109.701v-.598h57.035v.598H64.5z" fill="#696A6A"/><g fill="#818386"><path d="M31.54 20.133l-9.435 5.728v11.204l11.456 7.076 9.437-5.812V26.956L31.54 20.133zm0 1.852l9.183 5.392-2.113 1.169-8.857-5.434 1.787-1.127zm1.181 19.039l-8.93-5.308V27.63l8.93 5.307v8.087zm-8.004-14.742l2.223-1.399 8.46 5.438-1.838 1.016-8.845-5.055zm16.595 10.614l-6.739 3.959v-8.001l1.602-.9v3.511l3.621-2.021v-3.527l1.517-.854v7.833z"/><path d="M32.257 9.771a22.195 22.195 0 0 0-15.666 6.447l-3.751-3.752-2.106 13.816 13.226-2.695-3.795-3.795a17.154 17.154 0 0 1 12.093-4.966c9.515 0 17.228 7.714 17.228 17.228 0 9.514-7.713 17.227-17.228 17.227-9.448 0-17.117-7.608-17.222-17.033L10 33.019c.507 11.857 10.275 21.315 22.257 21.315 12.306 0 22.281-9.976 22.281-22.281 0-12.306-9.976-22.282-22.281-22.282"/></g></svg>