<svg xmlns="http://www.w3.org/2000/svg" width="230" height="115" viewBox="0 0 230 115"><path d="M68.185 25.956v1.455h-2.826v3.963h2.525v1.455h-2.525v4.281h2.826v1.455h-4.499V25.956h4.499zm2.728 3.746l.25 4.231v4.632h-1.672V25.956h1.605l2.943 9.583.034-.034-.401-5.05v-4.499h1.672v12.609h-1.556l-2.943-9.716-.033.033.101.82zm10.923-3.746v1.455h-1.89v11.155h-1.672V27.411H76.3v-1.455h5.536zm.956 0h2.007c1.221 0 3.127.066 3.127 3.228 0 1.188-.351 2.993-1.739 3.244l2.325 6.138h-1.739l-2.274-6.171h-.034v6.171h-1.672v-12.61zm3.361 3.595c0-1.204-.151-2.208-1.422-2.174h-.268v4.164c1.255.084 1.69-.719 1.69-1.99zm8.097-3.595v1.455h-2.826v3.963h2.525v1.455h-2.525v4.281h2.826v1.455h-4.499V25.956h4.499zm7.344 5.953v.201c0 2.408.352 6.622-3.01 6.622-2.994 0-3.345-2.876-3.345-6.438 0-3.528.284-6.505 3.194-6.505 1.79 0 2.643.903 3.077 2.576l-1.588.652c-.167-.836-.401-1.656-1.438-1.656-1.371 0-1.472 1.873-1.472 4.917 0 4.382.736 4.883 1.472 4.883.686 0 1.438-.1 1.438-3.111v-.686h-1.405v-1.455h3.077zm4.769-5.953l2.709 12.609h-1.689l-.468-2.458h-2.509l-.468 2.458h-1.639l2.743-12.609h1.321zm-.033 7.023l-.635-4.582h-.034l-1.003 6.405h2.007l-.335-1.823zm11.776-7.023v1.455h-2.826v3.963h2.525v1.455h-2.525v4.281h2.826v1.455h-4.499V25.956h4.499zm3.164 0l1.79 9.098h.033l.05-.519.502-3.027 1.087-5.552h1.472l1.171 12.609h-1.639l-.301-4.699-.101-2.341-.033-1.656h-.034l-.284 1.806-1.305 6.89h-1.153l-1.622-8.696h-.033l-.485 8.696h-1.589l1.037-12.609h1.437zm14.069 0l2.709 12.609h-1.688l-.469-2.458h-2.509l-.468 2.458h-1.639l2.742-12.609h1.322zm-.033 7.023l-.636-4.582h-.033l-1.004 6.405h2.007l-.334-1.823zm7.678-7.023v1.455h-1.89v11.155h-1.673V27.411h-1.973v-1.455h5.536zm5.454 0v1.455h-2.826v3.963h2.525v1.455h-2.525v4.281h2.826v1.455h-4.498V25.956h4.498zm-2.257-.552l-.836-.485 1.371-2.492 1.121.719-1.656 2.258zm27.53.552v4.933h2.525v-4.933h2.492v12.609h-2.492V33.23h-2.525v5.335h-2.492V25.956h2.492zm15.205 6.305c0 4.732-2.207 6.505-4.432 6.505-2.224 0-4.432-1.773-4.432-6.505 0-4.733 2.208-6.506 4.432-6.506 2.225 0 4.432 1.773 4.432 6.506zm-4.432 4.197c1.656 0 1.773-3.194 1.773-4.197 0-1.121-.117-4.198-1.773-4.198-1.655 0-1.772 3.077-1.772 4.198 0 1.003.117 4.197 1.772 4.197zm5.757 2.107V25.956h2.509c1.589 0 4.432.167 4.432 3.612 0 1.388-.552 2.575-1.789 3.261l2.19 5.736h-2.626l-2.19-5.82h-.033v5.82h-2.493zm2.492-7.191l.435.017c1.137 0 1.589-.77 1.589-1.806 0-.903-.435-1.639-1.689-1.572h-.334v3.361zm11.175-5.418l3.027 12.609h-2.659l-.469-2.124h-2.524l-.452 2.124h-2.476l2.928-12.609h2.625zm-1.103 5.15l-.285-1.906h-.033l-.268 1.906-.535 3.362h1.756l-.635-3.362zm10.322-2.307c-.502-.435-1.121-.803-1.807-.803-.77 0-1.254.468-1.254 1.237 0 2.074 3.797 2.191 3.797 5.603 0 2.241-1.288 3.93-3.63 3.93-.702 0-1.571-.217-2.141-.635v-2.375c.585.401 1.154.669 1.89.669.803 0 1.438-.535 1.438-1.371 0-.97-.769-1.338-1.472-1.84-1.438-.97-2.324-1.906-2.324-3.746 0-1.99 1.154-3.713 3.295-3.713.803 0 1.521.218 2.207.619v2.425zm-48.711-8.97v11.44h1.523v2.848h-1.523v4.546h-3.621v-4.546h-5.471v-2.798l4.996-11.49h4.096zm-3.621 4.296h-.051l-2.797 7.144h2.848v-7.144zM66.85 50.503l-.252 2.314 2.332-.65.152 1.066-2.232.182 1.453 1.91-1.008.551-1.031-2.121-.938 2.121-1.031-.551 1.418-1.91-2.209-.182.17-1.066 2.291.65-.252-2.314h1.137zm9.034 9.117l-1.066-2.725h-3.434l-1.055 2.725h-1.008l3.387-8.602h.838l3.369 8.602h-1.031zm-1.377-3.621l-.996-2.654a13.983 13.983 0 0 1-.398-1.236c-.086.375-.209.787-.369 1.236l-1.008 2.654h2.771zm5.213 2.936c.172 0 .338-.013.498-.038s.287-.052.381-.079v.744c-.105.051-.261.093-.466.126s-.39.05-.554.05c-1.242 0-1.863-.654-1.863-1.963v-3.82h-.92v-.469l.92-.404.41-1.371h.562v1.488h1.863v.756h-1.863v3.779c0 .387.092.684.275.891s.437.31.757.31zm4.575.802c-.949 0-1.698-.289-2.247-.867s-.823-1.381-.823-2.408c0-1.035.255-1.857.765-2.467s1.194-.914 2.054-.914c.805 0 1.441.265 1.91.794s.703 1.228.703 2.095v.615h-4.424c.02.754.21 1.326.571 1.717s.87.586 1.526.586c.691 0 1.375-.145 2.051-.434v.867c-.344.148-.669.255-.976.319s-.676.097-1.11.097zm-.263-5.841c-.516 0-.927.168-1.233.504s-.487.801-.542 1.395h3.357c0-.613-.137-1.083-.41-1.409s-.664-.49-1.172-.49zm-.721-1.694c.188-.242.39-.535.606-.879s.388-.643.513-.896h1.184v.123c-.172.254-.428.566-.768.938s-.635.658-.885.861h-.65v-.147zm13.111 5.449H95.15v1.969h-.932v-1.969h-4.166v-.85l4.066-5.795h1.031v5.76h1.271v.885zm-2.203-.884v-2.848c0-.559.02-1.189.059-1.893h-.048a8.91 8.91 0 0 1-.527.932l-2.678 3.809h3.194zm10.386 2.853v-4.154c0-.523-.119-.914-.357-1.172s-.611-.387-1.119-.387c-.676 0-1.169.184-1.479.551s-.466.969-.466 1.805v3.357h-.973v-9.117h.973v2.76c0 .332-.016.607-.047.826h.059c.191-.309.464-.552.817-.729s.757-.267 1.21-.267c.785 0 1.374.187 1.767.56s.589.966.589 1.778v4.189h-.974zm8.213-3.217c0 1.047-.264 1.864-.791 2.452s-1.256.882-2.186.882c-.574 0-1.083-.135-1.529-.404s-.789-.656-1.031-1.16-.363-1.094-.363-1.77c0-1.047.262-1.862.785-2.446s1.25-.876 2.179-.876c.898 0 1.613.299 2.143.896s.793 1.407.793 2.426zm-4.892 0c0 .82.164 1.445.492 1.875s.811.645 1.447.645c.637 0 1.121-.214 1.451-.642s.494-1.054.494-1.878c0-.816-.164-1.437-.494-1.86s-.818-.636-1.463-.636c-.636 0-1.117.209-1.441.627s-.486 1.041-.486 1.869zm9.227-3.322c.285 0 .541.023.768.07l-.135.902a3.29 3.29 0 0 0-.703-.088c-.52 0-.964.211-1.333.633s-.554.947-.554 1.576v3.445h-.973v-6.422h.803l.111 1.189h.047c.238-.418.525-.74.861-.967s.706-.338 1.108-.338zm5.618 6.539l-.193-.914h-.047c-.32.402-.64.675-.958.817s-.716.214-1.192.214c-.637 0-1.136-.164-1.497-.492s-.542-.795-.542-1.4c0-1.297 1.037-1.977 3.111-2.039l1.09-.035v-.398c0-.504-.108-.876-.325-1.116s-.563-.36-1.04-.36c-.535 0-1.141.164-1.816.492l-.299-.744c.316-.172.663-.307 1.04-.404s.755-.146 1.134-.146c.766 0 1.333.17 1.702.51s.554.885.554 1.635v4.383h-.722zm-2.197-.685c.605 0 1.081-.166 1.427-.498s.519-.797.519-1.395v-.58l-.973.041c-.773.027-1.331.147-1.673.36s-.513.544-.513.993c0 .352.106.619.319.803s.511.276.894.276zm8.765-1.067c0 .598-.223 1.059-.668 1.383s-1.07.486-1.875.486c-.852 0-1.516-.135-1.992-.404v-.902c.309.156.64.279.993.369s.694.135 1.022.135c.508 0 .898-.081 1.172-.243s.41-.409.41-.741c0-.25-.108-.464-.325-.642s-.64-.388-1.269-.63c-.598-.223-1.022-.417-1.274-.583s-.439-.354-.562-.565-.185-.463-.185-.756c0-.523.213-.937.639-1.239s1.01-.454 1.752-.454a5.13 5.13 0 0 1 2.027.422l-.346.791c-.645-.266-1.229-.398-1.752-.398-.461 0-.809.072-1.043.217s-.352.344-.352.598c0 .172.044.318.132.439s.229.236.425.346.57.268 1.125.475c.762.277 1.276.557 1.544.838s.402.632.402 1.058zm7.087 1.869c-.418 0-.8-.077-1.146-.231s-.636-.392-.87-.712h-.07c.047.375.07.73.07 1.066v2.643h-.973v-9.305h.791l.135.879h.047c.25-.352.541-.605.873-.762s.713-.234 1.143-.234c.852 0 1.509.291 1.972.873s.694 1.398.694 2.449c0 1.055-.235 1.874-.706 2.458s-1.124.876-1.96.876zm-.141-5.83c-.656 0-1.131.182-1.424.545s-.443.941-.451 1.734v.217c0 .902.15 1.548.451 1.937s.783.583 1.447.583c.555 0 .989-.225 1.304-.674s.472-1.068.472-1.857c0-.801-.157-1.415-.472-1.843s-.757-.642-1.327-.642zm8.155 5.713l-.193-.914h-.047c-.32.402-.64.675-.958.817s-.716.214-1.192.214c-.637 0-1.136-.164-1.497-.492s-.542-.795-.542-1.4c0-1.297 1.037-1.977 3.111-2.039l1.09-.035v-.398c0-.504-.108-.876-.325-1.116s-.563-.36-1.04-.36c-.535 0-1.141.164-1.816.492l-.299-.744c.316-.172.663-.307 1.04-.404s.755-.146 1.134-.146c.766 0 1.333.17 1.702.51s.554.885.554 1.635v4.383h-.722zm-2.197-.685c.605 0 1.081-.166 1.427-.498s.519-.797.519-1.395v-.58l-.973.041c-.773.027-1.331.147-1.673.36s-.513.544-.513.993c0 .352.106.619.319.803s.511.276.894.276zm7.552-5.854c.285 0 .541.023.768.07l-.135.902a3.29 3.29 0 0 0-.703-.088c-.52 0-.964.211-1.333.633s-.554.947-.554 1.576v3.445h-.973v-6.422h.803l.111 1.189h.047c.238-.418.525-.74.861-.967s.706-.338 1.108-.338zm5.618 6.539l-.193-.914h-.047c-.32.402-.64.675-.958.817s-.716.214-1.192.214c-.637 0-1.136-.164-1.497-.492s-.542-.795-.542-1.4c0-1.297 1.037-1.977 3.111-2.039l1.09-.035v-.398c0-.504-.108-.876-.325-1.116s-.563-.36-1.04-.36c-.535 0-1.141.164-1.816.492l-.299-.744c.316-.172.663-.307 1.04-.404s.755-.146 1.134-.146c.766 0 1.333.17 1.702.51s.554.885.554 1.635v4.383h-.722zm-2.197-.685c.605 0 1.081-.166 1.427-.498s.519-.797.519-1.395v-.58l-.973.041c-.773.027-1.331.147-1.673.36s-.513.544-.513.993c0 .352.106.619.319.803s.511.276.894.276zm12.419-1.594c0 .754-.273 1.342-.82 1.764s-1.289.633-2.227.633c-1.016 0-1.797-.131-2.344-.393v-.961c.352.148.734.266 1.148.352s.824.129 1.23.129c.664 0 1.164-.126 1.5-.378s.504-.603.504-1.052c0-.297-.06-.54-.179-.729s-.318-.364-.598-.524-.704-.342-1.274-.545c-.797-.285-1.366-.623-1.708-1.014s-.513-.9-.513-1.529c0-.66.248-1.186.744-1.576s1.152-.586 1.969-.586c.852 0 1.635.156 2.35.469l-.311.867c-.707-.297-1.395-.445-2.062-.445-.527 0-.939.113-1.236.34s-.445.541-.445.943c0 .297.055.54.164.729s.294.363.554.521.657.333 1.192.524c.898.32 1.517.664 1.854 1.031s.508.844.508 1.43zm5.255 2.279l-.193-.914h-.047c-.32.402-.64.675-.958.817s-.716.214-1.192.214c-.637 0-1.136-.164-1.497-.492s-.542-.795-.542-1.4c0-1.297 1.037-1.977 3.111-2.039l1.09-.035v-.398c0-.504-.108-.876-.325-1.116s-.563-.36-1.04-.36c-.535 0-1.141.164-1.816.492l-.299-.744c.316-.172.663-.307 1.04-.404s.755-.146 1.134-.146c.766 0 1.333.17 1.702.51s.554.885.554 1.635v4.383h-.722zm-.756-7.283c-.168 0-.332-.036-.492-.108s-.317-.152-.472-.24-.303-.168-.445-.24-.28-.108-.413-.108c-.195 0-.343.059-.442.176s-.177.295-.231.533h-.574c.051-.473.188-.843.413-1.11s.515-.401.87-.401c.18 0 .354.036.521.108s.328.152.48.24.299.168.439.24.273.108.398.108c.191 0 .334-.058.428-.173s.17-.294.229-.536h.58c-.051.473-.187.843-.407 1.11s-.515.401-.882.401zm-1.442 6.598c.605 0 1.081-.166 1.427-.498s.519-.797.519-1.395v-.58l-.973.041c-.773.027-1.331.147-1.673.36s-.513.544-.513.993c0 .352.106.619.319.803s.512.276.894.276zm10.165-2.532c0 1.047-.264 1.864-.791 2.452s-1.256.882-2.186.882c-.574 0-1.084-.135-1.529-.404s-.789-.656-1.031-1.16-.363-1.094-.363-1.77c0-1.047.262-1.862.785-2.446s1.25-.876 2.18-.876c.898 0 1.612.299 2.142.896s.793 1.407.793 2.426zm-4.892 0c0 .82.164 1.445.492 1.875s.811.645 1.447.645 1.12-.214 1.45-.642.495-1.054.495-1.878c0-.816-.165-1.437-.495-1.86s-.817-.636-1.462-.636c-.637 0-1.117.209-1.441.627s-.486 1.041-.486 1.869zm14.693-2.853c0 .867-.296 1.534-.888 2.001s-1.438.7-2.54.7h-1.008v3.369h-.996v-8.566h2.221c2.141 0 3.211.832 3.211 2.496zm-4.435 1.846h.896c.883 0 1.521-.143 1.916-.428s.592-.742.592-1.371c0-.566-.186-.988-.557-1.266s-.949-.416-1.734-.416h-1.113v3.481zm9.73 4.224l-.193-.914h-.047c-.32.402-.64.675-.958.817s-.716.214-1.192.214c-.637 0-1.136-.164-1.497-.492s-.542-.795-.542-1.4c0-1.297 1.037-1.977 3.111-2.039l1.09-.035v-.398c0-.504-.108-.876-.325-1.116s-.563-.36-1.04-.36c-.535 0-1.141.164-1.816.492l-.299-.744c.316-.172.663-.307 1.04-.404s.755-.146 1.134-.146c.766 0 1.333.17 1.702.51s.554.885.554 1.635v4.383h-.722zm-2.197-.685c.605 0 1.081-.166 1.427-.498s.519-.797.519-1.395v-.58l-.973.041c-.773.027-1.331.147-1.673.36s-.513.544-.513.993c0 .352.106.619.319.803s.511.276.894.276zm5.536-5.737v4.166c0 .523.119.914.357 1.172s.611.387 1.119.387c.672 0 1.163-.184 1.474-.551s.466-.967.466-1.799v-3.375h.973v6.422h-.803l-.141-.861h-.053c-.199.316-.476.559-.829.727s-.757.252-1.21.252c-.781 0-1.366-.186-1.755-.557s-.583-.965-.583-1.781v-4.201h.985zm7.124 6.422h-.973v-9.117h.973v9.117zm7.306-3.217c0 1.047-.264 1.864-.791 2.452s-1.256.882-2.186.882c-.574 0-1.084-.135-1.529-.404s-.789-.656-1.031-1.16-.363-1.094-.363-1.77c0-1.047.262-1.862.785-2.446s1.25-.876 2.18-.876c.898 0 1.612.299 2.142.896s.793 1.407.793 2.426zm-4.893 0c0 .82.164 1.445.492 1.875s.811.645 1.447.645 1.12-.214 1.45-.642.495-1.054.495-1.878c0-.816-.165-1.437-.495-1.86s-.817-.636-1.462-.636c-.637 0-1.117.209-1.441.627s-.486 1.041-.486 1.869zM67.846 65.449c-.941 0-1.685.313-2.229.94s-.817 1.485-.817 2.575c0 1.121.263 1.987.788 2.599s1.274.917 2.247.917c.598 0 1.279-.107 2.045-.322v.873c-.594.223-1.326.334-2.197.334-1.262 0-2.235-.383-2.921-1.148s-1.028-1.854-1.028-3.264c0-.883.165-1.656.495-2.32s.807-1.176 1.43-1.535 1.356-.539 2.2-.539c.898 0 1.684.164 2.355.492l-.422.855c-.649-.304-1.298-.457-1.946-.457zm7.405 7.799l-.193-.914h-.047c-.32.402-.64.675-.958.817s-.716.214-1.192.214c-.637 0-1.136-.164-1.497-.492s-.542-.795-.542-1.4c0-1.297 1.037-1.977 3.111-2.039l1.09-.035V69c0-.504-.108-.876-.325-1.116s-.563-.36-1.04-.36c-.535 0-1.141.164-1.816.492l-.299-.744c.316-.172.663-.307 1.04-.404s.755-.146 1.134-.146c.766 0 1.333.17 1.702.51s.554.885.554 1.635v4.383h-.722zm-2.197-.686c.605 0 1.081-.166 1.427-.498s.519-.797.519-1.395v-.58l-.973.041c-.773.027-1.331.147-1.673.36s-.513.544-.513.993c0 .352.106.619.319.803s.511.276.894.276zm7.61.803c-.418 0-.8-.077-1.146-.231s-.636-.392-.87-.712h-.07c.047.375.07.73.07 1.066v2.643h-.973v-9.305h.791l.135.879h.047c.25-.352.541-.605.873-.762s.713-.234 1.143-.234c.852 0 1.509.291 1.972.873s.694 1.398.694 2.449c0 1.055-.235 1.874-.706 2.458s-1.124.876-1.96.876zm-.141-5.83c-.656 0-1.131.182-1.424.545s-.443.941-.451 1.734v.217c0 .902.15 1.548.451 1.937s.783.583 1.447.583c.555 0 .989-.225 1.304-.674s.472-1.068.472-1.857c0-.801-.157-1.415-.472-1.843s-.757-.642-1.327-.642zm4.124-2.449c0-.223.055-.386.164-.489s.246-.155.41-.155c.156 0 .291.053.404.158s.17.268.17.486-.057.382-.17.489-.248.161-.404.161c-.164 0-.301-.054-.41-.161s-.164-.27-.164-.489zm1.055 8.162h-.973v-6.422h.973v6.422zm3.836-.686c.172 0 .338-.013.498-.038s.287-.052.381-.079v.744c-.105.051-.261.093-.466.126s-.39.05-.554.05c-1.242 0-1.863-.654-1.863-1.963v-3.82h-.92v-.469l.92-.404.41-1.371h.562v1.488h1.863v.756h-1.863v3.779c0 .387.092.684.275.891s.437.31.757.31zm5.812.686l-.193-.914h-.047c-.32.402-.64.675-.958.817s-.716.214-1.192.214c-.637 0-1.136-.164-1.497-.492s-.542-.795-.542-1.4c0-1.297 1.037-1.977 3.111-2.039l1.09-.035V69c0-.504-.108-.876-.325-1.116s-.563-.36-1.04-.36c-.535 0-1.141.164-1.816.492l-.299-.744c.316-.172.663-.307 1.04-.404s.755-.146 1.134-.146c.766 0 1.333.17 1.702.51s.554.885.554 1.635v4.383h-.722zm-2.198-.686c.605 0 1.081-.166 1.427-.498s.519-.797.519-1.395v-.58l-.973.041c-.773.027-1.331.147-1.673.36s-.513.544-.513.993c0 .352.106.619.319.803s.512.276.894.276zm5.595.686h-.973v-9.117h.973v9.117zm5.986 0l-2.438-6.422h1.043l1.383 3.809c.312.891.496 1.469.551 1.734h.047c.043-.207.179-.636.407-1.286s.741-2.069 1.538-4.257h1.043l-2.438 6.422h-1.136zm4.223-8.162c0-.223.055-.386.164-.489s.246-.155.41-.155c.156 0 .291.053.404.158s.17.268.17.486-.057.382-.17.489-.248.161-.404.161c-.164 0-.301-.054-.41-.161s-.164-.27-.164-.489zm1.055 8.162h-.973v-6.422h.973v6.422zm5.712 0l-.193-.914h-.047c-.32.402-.64.675-.958.817s-.716.214-1.192.214c-.637 0-1.136-.164-1.497-.492s-.542-.795-.542-1.4c0-1.297 1.037-1.977 3.111-2.039l1.09-.035V69c0-.504-.108-.876-.325-1.116s-.563-.36-1.04-.36c-.535 0-1.141.164-1.816.492l-.299-.744c.316-.172.663-.307 1.04-.404s.755-.146 1.134-.146c.766 0 1.333.17 1.702.51s.554.885.554 1.635v4.383h-.722zm-2.198-.686c.605 0 1.081-.166 1.427-.498s.519-.797.519-1.395v-.58l-.973.041c-.773.027-1.331.147-1.673.36s-.513.544-.513.993c0 .352.106.619.319.803s.512.276.894.276zm15.625.686V69.07c0-.512-.109-.896-.328-1.151s-.559-.384-1.02-.384c-.605 0-1.053.174-1.342.521s-.434.883-.434 1.605v3.586h-.973V69.07c0-.512-.109-.896-.328-1.151s-.561-.384-1.025-.384c-.609 0-1.056.183-1.339.548s-.425.964-.425 1.796v3.369h-.973v-6.422h.791l.158.879h.047c.184-.312.442-.557.776-.732s.708-.264 1.122-.264c1.004 0 1.66.363 1.969 1.09h.047c.191-.336.469-.602.832-.797s.777-.293 1.242-.293c.727 0 1.271.187 1.632.56s.542.97.542 1.79v4.189h-.971zm8.219-3.217c0 1.047-.264 1.864-.791 2.452s-1.256.882-2.186.882c-.574 0-1.084-.135-1.529-.404s-.789-.656-1.031-1.16-.363-1.094-.363-1.77c0-1.047.262-1.862.785-2.446s1.25-.876 2.18-.876c.898 0 1.612.299 2.142.896s.793 1.407.793 2.426zm-4.892 0c0 .82.164 1.445.492 1.875s.811.645 1.447.645 1.12-.214 1.45-.642.495-1.054.495-1.878c0-.816-.165-1.437-.495-1.86s-.817-.636-1.462-.636c-.637 0-1.117.209-1.441.627s-.486 1.041-.486 1.869zm8.372 2.531c.172 0 .338-.013.498-.038s.287-.052.381-.079v.744c-.105.051-.261.093-.466.126s-.39.05-.554.05c-1.242 0-1.863-.654-1.863-1.963v-3.82h-.92v-.469l.92-.404.41-1.371h.562v1.488h1.863v.756h-1.863v3.779c0 .387.092.684.275.891s.436.31.757.31zm7.405-2.531c0 1.047-.264 1.864-.791 2.452s-1.256.882-2.186.882c-.574 0-1.084-.135-1.529-.404s-.789-.656-1.031-1.16-.363-1.094-.363-1.77c0-1.047.262-1.862.785-2.446s1.25-.876 2.18-.876c.898 0 1.612.299 2.142.896s.793 1.407.793 2.426zm-4.893 0c0 .82.164 1.445.492 1.875s.811.645 1.447.645 1.12-.214 1.45-.642.495-1.054.495-1.878c0-.816-.165-1.437-.495-1.86s-.817-.636-1.462-.636c-.637 0-1.117.209-1.441.627s-.486 1.041-.486 1.869zm9.286-3.31c.844 0 1.499.288 1.966.864s.7 1.392.7 2.446-.235 1.874-.706 2.458-1.124.876-1.96.876c-.418 0-.8-.077-1.146-.231s-.636-.392-.87-.712h-.07l-.205.826h-.697v-9.117h.973v2.215c0 .496-.016.941-.047 1.336h.047c.453-.641 1.125-.961 2.015-.961zm-.14.814c-.664 0-1.143.19-1.436.571s-.439 1.022-.439 1.925.15 1.548.451 1.937.783.583 1.447.583c.598 0 1.043-.218 1.336-.653s.439-1.062.439-1.878c0-.836-.146-1.459-.439-1.869s-.746-.616-1.359-.616zm9.749 2.496c0 1.047-.264 1.864-.791 2.452s-1.256.882-2.186.882c-.574 0-1.084-.135-1.529-.404s-.789-.656-1.031-1.16-.363-1.094-.363-1.77c0-1.047.262-1.862.785-2.446s1.25-.876 2.18-.876c.898 0 1.612.299 2.142.896s.793 1.407.793 2.426zm-4.893 0c0 .82.164 1.445.492 1.875s.811.645 1.447.645 1.12-.214 1.45-.642.495-1.054.495-1.878c0-.816-.165-1.437-.495-1.86s-.817-.636-1.462-.636c-.637 0-1.117.209-1.441.627s-.486 1.041-.486 1.869zm5.278-3.205h1.043l1.406 3.662c.309.836.5 1.439.574 1.811h.047c.051-.199.157-.54.319-1.022s.692-1.966 1.591-4.45h1.043l-2.76 7.312c-.273.723-.593 1.235-.958 1.538s-.813.454-1.345.454c-.297 0-.59-.033-.879-.1v-.779c.215.047.455.07.721.07.668 0 1.145-.375 1.43-1.125l.357-.914-2.589-6.457zm15.127 3.205c0 1.047-.264 1.864-.791 2.452s-1.256.882-2.186.882c-.574 0-1.084-.135-1.529-.404s-.789-.656-1.031-1.16-.363-1.094-.363-1.77c0-1.047.262-1.862.785-2.446s1.25-.876 2.18-.876c.898 0 1.612.299 2.142.896s.793 1.407.793 2.426zm-4.893 0c0 .82.164 1.445.492 1.875s.811.645 1.447.645 1.12-.214 1.45-.642.495-1.054.495-1.878c0-.816-.165-1.437-.495-1.86s-.817-.636-1.462-.636c-.637 0-1.117.209-1.441.627s-.486 1.041-.486 1.869zm7.212-3.205v4.166c0 .523.119.914.357 1.172s.611.387 1.119.387c.672 0 1.163-.184 1.474-.551s.466-.967.466-1.799v-3.375h.973v6.422h-.803l-.141-.861h-.053c-.199.316-.476.559-.829.727s-.757.252-1.21.252c-.781 0-1.366-.186-1.755-.557s-.583-.965-.583-1.781v-4.201h.985zm12.917 6.422l-.193-.914h-.047c-.32.402-.64.675-.958.817s-.716.214-1.192.214c-.637 0-1.136-.164-1.497-.492s-.542-.795-.542-1.4c0-1.297 1.037-1.977 3.111-2.039l1.09-.035V69c0-.504-.108-.876-.325-1.116s-.563-.36-1.04-.36c-.535 0-1.141.164-1.816.492l-.299-.744c.316-.172.663-.307 1.04-.404s.755-.146 1.134-.146c.766 0 1.333.17 1.702.51s.554.885.554 1.635v4.383h-.722zm-2.197-.686c.605 0 1.081-.166 1.427-.498s.519-.797.519-1.395v-.58l-.973.041c-.773.027-1.331.147-1.673.36s-.513.544-.513.993c0 .352.106.619.319.803s.511.276.894.276zm6.696 0c.172 0 .338-.013.498-.038s.287-.052.381-.079v.744c-.105.051-.261.093-.466.126s-.39.05-.554.05c-1.242 0-1.863-.654-1.863-1.963v-3.82h-.92v-.469l.92-.404.41-1.371h.562v1.488h1.863v.756h-1.863v3.779c0 .387.092.684.275.891s.437.31.757.31zm4.575.803c-.949 0-1.698-.289-2.247-.867s-.823-1.381-.823-2.408c0-1.035.255-1.857.765-2.467s1.194-.914 2.054-.914c.805 0 1.441.265 1.91.794s.703 1.228.703 2.095v.615h-4.424c.02.754.21 1.326.571 1.717s.87.586 1.526.586c.691 0 1.375-.145 2.051-.434v.867c-.344.148-.669.255-.976.319s-.676.097-1.11.097zm-.264-5.842c-.516 0-.927.168-1.233.504s-.487.801-.542 1.395h3.357c0-.613-.137-1.083-.41-1.409s-.664-.49-1.172-.49zm-.72-1.693c.188-.242.39-.535.606-.879s.388-.643.513-.896h1.184v.123c-.172.254-.428.566-.768.938s-.635.658-.885.861h-.65v-.147zM69.621 84.907H68.35v1.969h-.932v-1.969h-4.166v-.85l4.066-5.795h1.031v5.76h1.271v.885zm-2.203-.885v-2.848c0-.559.02-1.189.059-1.893h-.047a8.91 8.91 0 0 1-.527.932l-2.678 3.809h3.193zm5.565-5.835c.781 0 1.4.182 1.857.545s.686.865.686 1.506c0 .422-.131.807-.393 1.154s-.68.664-1.254.949c.695.332 1.189.681 1.482 1.046s.439.788.439 1.269c0 .711-.248 1.278-.744 1.702s-1.176.636-2.039.636c-.914 0-1.617-.2-2.109-.601s-.738-.968-.738-1.702c0-.98.598-1.744 1.793-2.291-.539-.305-.926-.634-1.16-.987s-.352-.749-.352-1.187c0-.621.229-1.116.688-1.485s1.075-.554 1.844-.554zm-1.851 6.527c0 .469.163.834.489 1.096s.784.393 1.374.393c.582 0 1.035-.137 1.359-.41s.486-.648.486-1.125c0-.379-.152-.716-.457-1.011s-.836-.581-1.594-.858c-.582.25-1.004.526-1.266.829s-.391.664-.391 1.086zm1.84-5.736c-.488 0-.871.117-1.148.352s-.416.547-.416.938c0 .359.115.668.346.926s.656.516 1.277.773c.559-.234.954-.486 1.187-.756s.349-.584.349-.943c0-.395-.142-.708-.425-.94s-.674-.35-1.17-.35zm11.394 7.898v-4.154c0-.523-.119-.914-.357-1.172s-.611-.387-1.119-.387c-.676 0-1.169.184-1.479.551s-.466.969-.466 1.805v3.357h-.973v-9.117h.973v2.76c0 .332-.016.607-.047.826h.059c.191-.309.464-.552.817-.729s.757-.267 1.21-.267c.785 0 1.374.187 1.767.56s.589.966.589 1.778v4.189h-.974zm8.213-3.217c0 1.047-.264 1.864-.791 2.452s-1.256.882-2.186.882c-.574 0-1.084-.135-1.529-.404s-.789-.656-1.031-1.16-.363-1.094-.363-1.77c0-1.047.262-1.862.785-2.446s1.25-.876 2.18-.876c.898 0 1.612.299 2.142.896s.793 1.407.793 2.426zm-4.892 0c0 .82.164 1.445.492 1.875s.811.645 1.447.645 1.12-.214 1.45-.642.495-1.054.495-1.878c0-.816-.165-1.437-.495-1.86s-.817-.636-1.462-.636c-.637 0-1.117.209-1.441.627s-.486 1.041-.486 1.869zm9.227-3.322c.285 0 .541.023.768.07l-.135.902a3.29 3.29 0 0 0-.703-.088c-.52 0-.964.211-1.333.633s-.554.947-.554 1.576v3.445h-.973v-6.422h.803l.111 1.189h.047c.238-.418.525-.74.861-.967s.706-.338 1.108-.338zm5.618 6.539l-.193-.914h-.047c-.32.402-.64.675-.958.817s-.716.214-1.192.214c-.637 0-1.136-.164-1.497-.492s-.542-.795-.542-1.4c0-1.297 1.037-1.977 3.111-2.039l1.09-.035v-.398c0-.504-.108-.876-.325-1.116s-.563-.36-1.04-.36c-.535 0-1.141.164-1.816.492l-.299-.744c.316-.172.663-.307 1.04-.404s.755-.146 1.134-.146c.766 0 1.333.17 1.702.51s.554.885.554 1.635v4.383h-.722zm-2.197-.686c.605 0 1.081-.166 1.427-.498s.519-.797.519-1.395v-.58l-.973.041c-.773.027-1.331.147-1.673.36s-.513.544-.513.993c0 .352.106.619.319.803s.511.276.894.276zm8.764-1.066c0 .598-.223 1.059-.668 1.383s-1.07.486-1.875.486c-.852 0-1.516-.135-1.992-.404v-.902c.309.156.64.279.993.369s.694.135 1.022.135c.508 0 .898-.081 1.172-.243s.41-.409.41-.741c0-.25-.108-.464-.325-.642s-.64-.388-1.269-.63c-.598-.223-1.022-.417-1.274-.583s-.439-.354-.562-.565-.185-.463-.185-.756c0-.523.213-.937.639-1.239s1.01-.454 1.752-.454a5.13 5.13 0 0 1 2.027.422l-.346.791c-.645-.266-1.229-.398-1.752-.398-.461 0-.809.072-1.043.217s-.352.344-.352.598c0 .172.044.318.132.439s.229.236.425.346.57.268 1.125.475c.762.277 1.276.557 1.544.838s.402.632.402 1.058zm7.088 1.869c-.418 0-.8-.077-1.146-.231s-.636-.392-.87-.712h-.07c.047.375.07.73.07 1.066v2.643h-.973v-9.305h.791l.135.879h.047c.25-.352.541-.605.873-.762s.713-.234 1.143-.234c.852 0 1.509.291 1.972.873s.694 1.398.694 2.449c0 1.055-.235 1.874-.706 2.458s-1.125.876-1.96.876zm-.141-5.83c-.656 0-1.131.182-1.424.545s-.443.941-.451 1.734v.217c0 .902.15 1.548.451 1.937s.783.583 1.447.583c.555 0 .989-.225 1.304-.674s.472-1.068.472-1.857c0-.801-.157-1.415-.472-1.843s-.757-.642-1.327-.642zm8.155 5.713l-.193-.914h-.047c-.32.402-.64.675-.958.817s-.716.214-1.192.214c-.637 0-1.136-.164-1.497-.492s-.542-.795-.542-1.4c0-1.297 1.037-1.977 3.111-2.039l1.09-.035v-.398c0-.504-.108-.876-.325-1.116s-.563-.36-1.04-.36c-.535 0-1.141.164-1.816.492l-.299-.744c.316-.172.663-.307 1.04-.404s.755-.146 1.134-.146c.766 0 1.333.17 1.702.51s.554.885.554 1.635v4.383h-.722zm-2.197-.686c.605 0 1.081-.166 1.427-.498s.519-.797.519-1.395v-.58l-.973.041c-.773.027-1.331.147-1.673.36s-.513.544-.513.993c0 .352.106.619.319.803s.511.276.894.276zm7.552-5.853c.285 0 .541.023.768.07l-.135.902a3.29 3.29 0 0 0-.703-.088c-.52 0-.964.211-1.333.633s-.554.947-.554 1.576v3.445h-.973v-6.422h.803l.111 1.189h.047c.238-.418.525-.74.861-.967s.705-.338 1.108-.338zm5.618 6.539l-.193-.914h-.047c-.32.402-.64.675-.958.817s-.716.214-1.192.214c-.637 0-1.136-.164-1.497-.492s-.542-.795-.542-1.4c0-1.297 1.037-1.977 3.111-2.039l1.09-.035v-.398c0-.504-.108-.876-.325-1.116s-.563-.36-1.04-.36c-.535 0-1.141.164-1.816.492l-.299-.744c.316-.172.663-.307 1.04-.404s.755-.146 1.134-.146c.766 0 1.333.17 1.702.51s.554.885.554 1.635v4.383h-.722zm-2.197-.686c.605 0 1.081-.166 1.427-.498s.519-.797.519-1.395v-.58l-.973.041c-.773.027-1.331.147-1.673.36s-.513.544-.513.993c0 .352.106.619.319.803s.511.276.894.276zm12.981-2.531c0 1.047-.264 1.864-.791 2.452s-1.256.882-2.186.882c-.574 0-1.084-.135-1.529-.404s-.789-.656-1.031-1.16-.363-1.094-.363-1.77c0-1.047.262-1.862.785-2.446s1.25-.876 2.18-.876c.898 0 1.612.299 2.142.896s.793 1.407.793 2.426zm-4.893 0c0 .82.164 1.445.492 1.875s.811.645 1.447.645 1.12-.214 1.45-.642.495-1.054.495-1.878c0-.816-.165-1.437-.495-1.86s-.817-.636-1.462-.636c-.637 0-1.117.209-1.441.627s-.486 1.041-.486 1.869zm7.212-3.205v4.166c0 .523.119.914.357 1.172s.611.387 1.119.387c.672 0 1.163-.184 1.474-.551s.466-.967.466-1.799v-3.375h.973v6.422h-.803l-.141-.861h-.053c-.199.316-.476.559-.829.727s-.757.252-1.21.252c-.781 0-1.366-.186-1.755-.557s-.583-.965-.583-1.781v-4.201h.985zm8.226 5.736c.172 0 .338-.013.498-.038s.287-.052.381-.079v.744c-.105.051-.261.093-.466.126s-.39.05-.554.05c-1.242 0-1.863-.654-1.863-1.963v-3.82h-.92v-.469l.92-.404.41-1.371h.562v1.488h1.863v.756h-1.863v3.779c0 .387.092.684.275.891s.437.31.757.31zm4.792-5.853c.285 0 .541.023.768.07l-.135.902a3.29 3.29 0 0 0-.703-.088c-.52 0-.964.211-1.333.633s-.554.947-.554 1.576v3.445h-.973v-6.422h.803l.111 1.189h.047c.238-.418.525-.74.861-.967s.706-.338 1.108-.338zm7.211 3.322c0 1.047-.264 1.864-.791 2.452s-1.256.882-2.186.882c-.574 0-1.084-.135-1.529-.404s-.789-.656-1.031-1.16-.363-1.094-.363-1.77c0-1.047.262-1.862.785-2.446s1.25-.876 2.18-.876c.898 0 1.612.299 2.142.896s.793 1.407.793 2.426zm-4.893 0c0 .82.164 1.445.492 1.875s.811.645 1.447.645 1.12-.214 1.45-.642.495-1.054.495-1.878c0-.816-.165-1.437-.495-1.86s-.817-.636-1.462-.636c-.637 0-1.117.209-1.441.627s-.486 1.041-.486 1.869zm10.441 1.465c0 .598-.223 1.059-.668 1.383s-1.07.486-1.875.486c-.852 0-1.516-.135-1.992-.404v-.902c.309.156.64.279.993.369s.694.135 1.022.135c.508 0 .898-.081 1.172-.243s.41-.409.41-.741c0-.25-.108-.464-.325-.642s-.64-.388-1.269-.63c-.598-.223-1.022-.417-1.274-.583s-.439-.354-.562-.565-.185-.463-.185-.756c0-.523.213-.937.639-1.239s1.01-.454 1.752-.454a5.13 5.13 0 0 1 2.027.422l-.346.791c-.645-.266-1.229-.398-1.752-.398-.461 0-.809.072-1.043.217s-.352.344-.352.598c0 .172.044.318.132.439s.229.236.425.346.57.268 1.125.475c.762.277 1.276.557 1.544.838s.402.632.402 1.058zm9.021 1.752H178.3V78.31h4.775v.885h-3.779v2.76h3.551v.879h-3.551v3.152h3.779v.89zm5.595-1.752c0 .598-.223 1.059-.668 1.383s-1.07.486-1.875.486c-.852 0-1.516-.135-1.992-.404v-.902c.309.156.64.279.993.369s.694.135 1.022.135c.508 0 .898-.081 1.172-.243s.41-.409.41-.741c0-.25-.108-.464-.325-.642s-.64-.388-1.269-.63c-.598-.223-1.022-.417-1.274-.583s-.439-.354-.562-.565-.185-.463-.185-.756c0-.523.213-.937.639-1.239s1.01-.454 1.752-.454a5.13 5.13 0 0 1 2.027.422l-.346.791c-.645-.266-1.229-.398-1.752-.398-.461 0-.809.072-1.043.217s-.352.344-.352.598c0 .172.044.318.132.439s.229.236.425.346.57.268 1.125.475c.762.277 1.276.557 1.544.838s.402.632.402 1.058zm3.355 1.066c.172 0 .338-.013.498-.038s.287-.052.381-.079v.744c-.105.051-.261.093-.466.126s-.39.05-.554.05c-1.242 0-1.863-.654-1.863-1.963v-3.82h-.92v-.469l.92-.404.41-1.371h.562v1.488h1.863v.756h-1.863v3.779c0 .387.092.684.275.891s.437.31.757.31zm5.812.686l-.193-.914h-.047c-.32.402-.64.675-.958.817s-.716.214-1.192.214c-.637 0-1.136-.164-1.497-.492s-.542-.795-.542-1.4c0-1.297 1.037-1.977 3.111-2.039l1.09-.035v-.398c0-.504-.108-.876-.325-1.116s-.563-.36-1.04-.36c-.535 0-1.141.164-1.816.492l-.299-.744c.316-.172.663-.307 1.04-.404s.755-.146 1.134-.146c.766 0 1.333.17 1.702.51s.554.885.554 1.635v4.383h-.722zm-2.197-.686c.605 0 1.081-.166 1.427-.498s.519-.797.519-1.395v-.58l-.973.041c-.773.027-1.331.147-1.673.36s-.513.544-.513.993c0 .352.106.619.319.803s.511.276.894.276zm8.993-.175h-.053c-.449.652-1.121.979-2.016.979-.84 0-1.493-.287-1.96-.861s-.7-1.391-.7-2.449.234-1.881.703-2.467 1.121-.879 1.957-.879c.871 0 1.539.316 2.004.949h.076l-.041-.463-.023-.451V77.76h.973v9.117h-.791l-.129-.862zm-1.945.164c.664 0 1.146-.181 1.444-.542s.448-.944.448-1.749v-.205c0-.91-.151-1.56-.454-1.948s-.786-.583-1.45-.583c-.57 0-1.007.222-1.31.665s-.454 1.069-.454 1.878c0 .82.15 1.439.451 1.857s.742.627 1.325.627zm10.17-2.52c0 1.047-.264 1.864-.791 2.452s-1.256.882-2.186.882c-.574 0-1.084-.135-1.529-.404s-.789-.656-1.031-1.16-.363-1.094-.363-1.77c0-1.047.262-1.862.785-2.446s1.25-.876 2.18-.876c.898 0 1.612.299 2.142.896s.793 1.407.793 2.426zm-4.892 0c0 .82.164 1.445.492 1.875s.811.645 1.447.645 1.12-.214 1.45-.642.495-1.054.495-1.878c0-.816-.165-1.437-.495-1.86s-.817-.636-1.462-.636c-.637 0-1.117.209-1.441.627s-.486 1.041-.486 1.869zm10.44 1.465c0 .598-.223 1.059-.668 1.383s-1.07.486-1.875.486c-.852 0-1.516-.135-1.992-.404v-.902c.309.156.64.279.993.369s.694.135 1.022.135c.508 0 .898-.081 1.172-.243s.41-.409.41-.741c0-.25-.108-.464-.325-.642s-.64-.388-1.269-.63c-.598-.223-1.022-.417-1.274-.583s-.439-.354-.562-.565-.185-.463-.185-.756c0-.523.213-.937.639-1.239s1.01-.454 1.752-.454a5.13 5.13 0 0 1 2.027.422l-.346.791c-.645-.266-1.229-.398-1.752-.398-.461 0-.809.072-1.043.217s-.352.344-.352.598c0 .172.044.318.132.439s.229.236.425.346.57.268 1.125.475c.762.277 1.276.557 1.544.838s.402.632.402 1.058zm1.141 1.131c0-.262.06-.46.179-.595s.29-.202.513-.202c.227 0 .403.067.53.202s.19.333.19.595c0 .254-.064.449-.193.586s-.305.205-.527.205c-.199 0-.364-.062-.495-.185s-.197-.325-.197-.606zM70.512 106.221c0 .754-.273 1.342-.82 1.764s-1.289.633-2.227.633c-1.016 0-1.797-.131-2.344-.393v-.961c.352.148.734.266 1.148.352s.824.129 1.23.129c.664 0 1.164-.126 1.5-.378s.504-.603.504-1.052c0-.297-.06-.54-.179-.729s-.318-.364-.598-.524-.704-.342-1.274-.545c-.797-.285-1.366-.623-1.708-1.014s-.513-.9-.513-1.529c0-.66.248-1.186.744-1.576s1.152-.586 1.969-.586c.852 0 1.635.156 2.35.469l-.311.867c-.707-.297-1.395-.445-2.062-.445-.527 0-.939.113-1.236.34s-.445.541-.445.943c0 .297.055.54.164.729s.294.363.554.521.657.333 1.192.524c.898.32 1.517.664 1.854 1.031s.508.844.508 1.43zm5.255 2.279l-.193-.914h-.047c-.32.402-.64.675-.958.817s-.716.214-1.192.214c-.637 0-1.136-.164-1.497-.492s-.542-.795-.542-1.4c0-1.297 1.037-1.977 3.111-2.039l1.09-.035v-.398c0-.504-.108-.876-.325-1.116s-.563-.36-1.04-.36c-.535 0-1.141.164-1.816.492l-.299-.744c.316-.172.663-.307 1.04-.404s.755-.146 1.134-.146c.766 0 1.333.17 1.702.51s.554.885.554 1.635v4.383h-.722zm-2.198-.686c.605 0 1.081-.166 1.427-.498s.519-.797.519-1.395v-.58l-.973.041c-.773.027-1.331.147-1.673.36s-.513.544-.513.993c0 .352.106.619.319.803s.512.276.894.276zm4.54-7.476c0-.223.055-.386.164-.489s.246-.155.41-.155c.156 0 .291.053.404.158s.17.268.17.486-.057.382-.17.489-.248.161-.404.161c-.164 0-.301-.054-.41-.161s-.164-.27-.164-.489zm1.055 8.162h-.973v-6.422h.973v6.422zm4.751-6.527c.844 0 1.499.288 1.966.864s.7 1.392.7 2.446-.235 1.874-.706 2.458-1.124.876-1.96.876c-.418 0-.8-.077-1.146-.231s-.636-.392-.87-.712h-.07l-.205.826h-.697v-9.117h.973v2.215c0 .496-.016.941-.047 1.336h.047c.452-.641 1.124-.961 2.015-.961zm-.141.814c-.664 0-1.143.19-1.436.571s-.439 1.022-.439 1.925.15 1.548.451 1.937.783.583 1.447.583c.598 0 1.043-.218 1.336-.653s.439-1.062.439-1.878c0-.836-.146-1.459-.439-1.869s-.746-.616-1.359-.616zm8.155 5.713l-.193-.914h-.047c-.32.402-.64.675-.958.817s-.716.214-1.192.214c-.637 0-1.136-.164-1.497-.492s-.542-.795-.542-1.4c0-1.297 1.037-1.977 3.111-2.039l1.09-.035v-.398c0-.504-.108-.876-.325-1.116s-.563-.36-1.04-.36c-.535 0-1.141.164-1.816.492l-.299-.744c.316-.172.663-.307 1.04-.404s.755-.146 1.134-.146c.766 0 1.333.17 1.702.51s.554.885.554 1.635v4.383h-.722zm-2.198-.686c.605 0 1.081-.166 1.427-.498s.519-.797.519-1.395v-.58l-.973.041c-.773.027-1.331.147-1.673.36s-.513.544-.513.993c0 .352.106.619.319.803s.512.276.894.276zm15.625.686v-4.178c0-.512-.109-.896-.328-1.151s-.559-.384-1.02-.384c-.605 0-1.053.174-1.342.521s-.434.883-.434 1.605v3.586h-.973v-4.178c0-.512-.109-.896-.328-1.151s-.561-.384-1.025-.384c-.609 0-1.056.183-1.339.548s-.425.964-.425 1.796v3.369h-.973v-6.422h.791l.158.879h.047c.184-.312.442-.557.776-.732s.708-.264 1.122-.264c1.004 0 1.66.363 1.969 1.09h.047c.191-.336.469-.602.832-.797s.777-.293 1.242-.293c.727 0 1.271.187 1.632.56s.542.97.542 1.79v4.189h-.971zm6.626 0l-.193-.914h-.047c-.32.402-.64.675-.958.817s-.716.214-1.192.214c-.637 0-1.136-.164-1.497-.492s-.542-.795-.542-1.4c0-1.297 1.037-1.977 3.111-2.039l1.09-.035v-.398c0-.504-.108-.876-.325-1.116s-.563-.36-1.04-.36c-.535 0-1.141.164-1.816.492l-.299-.744c.316-.172.663-.307 1.04-.404s.755-.146 1.134-.146c.766 0 1.333.17 1.702.51s.554.885.554 1.635v4.383h-.722zm-2.197-.686c.605 0 1.081-.166 1.427-.498s.519-.797.519-1.395v-.58l-.973.041c-.773.027-1.331.147-1.673.36s-.513.544-.513.993c0 .352.106.619.319.803s.511.276.894.276zm4.54-7.476c0-.223.055-.386.164-.489s.246-.155.41-.155c.156 0 .291.053.404.158s.17.268.17.486-.057.382-.17.489-.248.161-.404.161c-.164 0-.301-.054-.41-.161s-.164-.27-.164-.489zm1.054 8.162h-.973v-6.422h.973v6.422zm5.905-1.752c0 .598-.223 1.059-.668 1.383s-1.07.486-1.875.486c-.852 0-1.516-.135-1.992-.404v-.902c.309.156.64.279.993.369s.694.135 1.022.135c.508 0 .898-.081 1.172-.243s.41-.409.41-.741c0-.25-.108-.464-.325-.642s-.64-.388-1.269-.63c-.598-.223-1.022-.417-1.274-.583s-.439-.354-.562-.565-.185-.463-.185-.756c0-.523.213-.937.639-1.239s1.01-.454 1.752-.454a5.13 5.13 0 0 1 2.027.422l-.346.791c-.645-.266-1.229-.398-1.752-.398-.461 0-.809.072-1.043.217s-.352.344-.352.598c0 .172.044.318.132.439s.229.236.425.346.57.268 1.125.475c.762.277 1.276.557 1.544.838s.402.632.402 1.058zM64.5 109.701v-.598h57.035v.598H64.5z" fill="#696A6A"/><path fill="#818386" d="M29.887 14.751c-12.613 0-22.875 10.263-22.875 22.874 0 12.613 10.262 22.875 22.875 22.875 12.611 0 22.873-10.261 22.873-22.875 0-12.611-10.262-22.874-22.873-22.874m0 39.511c-9.174 0-16.637-7.463-16.637-16.636 0-9.173 7.463-16.636 16.637-16.636 9.172 0 16.635 7.463 16.635 16.636-.001 9.173-7.463 16.636-16.635 16.636m4.158-16.637c0 1.536-.841 2.862-2.08 3.583v1.851c0 .574-.467 1.084-1.039 1.084h-2.079c-.574 0-1.041-.511-1.041-1.084v-1.851c-1.238-.722-2.079-2.048-2.079-3.583 0-1.535.841-2.861 2.079-3.583v-7.574c0-.574.467-1.04 1.041-1.04h2.079a1.04 1.04 0 0 1 1.039 1.04v7.574c1.239.723 2.08 2.048 2.08 3.583m-4.158-26.947c-1.057 0-3.137.073-4.16.195V5.739c0-.571.468-1.104 1.04-1.104h6.238c.572 0 1.04.533 1.04 1.104v5.134c-1.024-.122-3.104-.195-4.158-.195m24.171 7.804l-3.078 3.077a26.063 26.063 0 0 0-2.069-2.34 26.02 26.02 0 0 0-2.344-2.07l3.078-3.077a1.05 1.05 0 0 1 1.473 0l2.94 2.94a1.043 1.043 0 0 1 0 1.47"/></svg>