<svg xmlns="http://www.w3.org/2000/svg" width="230" height="115" viewBox="0 0 230 115"><path d="M79.586 25.956v2.341h-2.542v2.692h2.292v2.342h-2.292v5.234h-2.492V25.956h5.034zm1.558 12.609V25.956h2.509c1.588 0 4.432.167 4.432 3.612 0 1.388-.552 2.575-1.79 3.261l2.191 5.736H85.86l-2.191-5.82h-.034v5.82h-2.491zm2.492-7.191l.435.017c1.137 0 1.589-.77 1.589-1.806 0-.903-.435-1.64-1.689-1.572h-.335v3.361zm11.392-5.418v2.341h-2.525v2.743h2.225v2.341h-2.225v2.843h2.559v2.342h-5.051v-12.61h5.017zm7.328 0v2.341h-1.974v10.269H97.89V28.297h-1.957v-2.341h6.423zm6.157 0v2.341h-2.525v2.743h2.225v2.341h-2.225v2.843h2.559v2.342h-5.051v-12.61h5.017zm13.734 5.585v.987c0 2.676-.652 6.237-4.047 6.237-3.395 0-4.499-3.646-4.499-6.438 0-2.91.937-6.572 4.499-6.572 1.923 0 3.177 1.204 3.712 2.993l-2.424.937c-.117-.635-.318-1.622-1.271-1.622-1.689-.1-1.856 3.011-1.856 4.198 0 1.304.084 4.197 1.923 4.197 1.271 0 1.473-1.706 1.473-2.575h-1.59v-2.342h4.08zm1.325 7.024V25.956h2.508c1.589 0 4.432.167 4.432 3.612 0 1.388-.552 2.575-1.789 3.261l2.191 5.736h-2.626l-2.19-5.82h-.034v5.82h-2.492zm2.491-7.191l.435.017c1.138 0 1.589-.77 1.589-1.806 0-.903-.435-1.64-1.688-1.572h-.335v3.361zm11.175-5.418l3.027 12.609h-2.659l-.468-2.124h-2.525l-.451 2.124h-2.476l2.927-12.609h2.625zm.636-2.977l-2.157 2.309-1.154-.669 1.605-2.408 1.706.768zm-1.739 8.127l-.284-1.906h-.033l-.268 1.906-.535 3.361h1.756l-.636-3.361zm10.005-5.15v2.341h-1.974v10.269h-2.492V28.297h-1.956v-2.341h6.422zm3.631 0v12.609h-2.491V25.956h2.491zm6.958 2.843c-.501-.435-1.12-.803-1.806-.803-.77 0-1.255.468-1.255 1.237 0 2.074 3.797 2.19 3.797 5.603 0 2.241-1.288 3.93-3.629 3.93-.703 0-1.572-.217-2.141-.635v-2.375c.585.401 1.153.669 1.89.669.803 0 1.438-.535 1.438-1.371 0-.971-.77-1.338-1.472-1.84-1.438-.97-2.325-1.906-2.325-3.746 0-1.99 1.154-3.713 3.295-3.713.803 0 1.521.218 2.207.619v2.425zm5.003-2.843v1.989l1.655-1.053.535.937-1.756.97 1.756.986-.535.953-1.655-1.087v2.058h-1.07v-2.058l-1.723 1.087-.535-.953 1.739-.986-1.739-.97.535-.937 1.723 1.053v-1.989h1.07zM81.609 53.55c0 .867-.296 1.534-.888 2.001s-1.438.7-2.54.7h-1.008v3.369h-.996v-8.566h2.221c2.141 0 3.211.832 3.211 2.496zm-4.435 1.846h.896c.883 0 1.521-.143 1.916-.428s.592-.742.592-1.371c0-.566-.186-.988-.557-1.266s-.949-.416-1.734-.416h-1.113v3.481zm9.731 4.224l-.193-.914h-.047c-.32.402-.64.675-.958.817s-.716.214-1.192.214c-.637 0-1.136-.164-1.497-.492s-.542-.795-.542-1.4c0-1.297 1.037-1.977 3.111-2.039l1.09-.035v-.398c0-.504-.108-.876-.325-1.116s-.563-.36-1.04-.36c-.535 0-1.141.164-1.816.492l-.299-.744c.316-.172.663-.307 1.04-.404s.755-.146 1.134-.146c.766 0 1.333.17 1.702.51s.554.885.554 1.635v4.383h-.722zm-2.197-.685c.605 0 1.081-.166 1.427-.498s.519-.797.519-1.395v-.58l-.973.041c-.773.027-1.331.147-1.673.36s-.513.544-.513.993c0 .352.106.619.319.803s.511.276.894.276zm7.551-5.854c.285 0 .541.023.768.07l-.135.902a3.29 3.29 0 0 0-.703-.088c-.52 0-.964.211-1.333.633s-.554.947-.554 1.576v3.445h-.972v-6.422h.803l.111 1.189h.047c.238-.418.525-.74.861-.967s.705-.338 1.107-.338zm5.618 6.539l-.193-.914h-.047c-.32.402-.64.675-.958.817s-.716.214-1.192.214c-.637 0-1.136-.164-1.497-.492s-.542-.795-.542-1.4c0-1.297 1.037-1.977 3.111-2.039l1.09-.035v-.398c0-.504-.108-.876-.325-1.116s-.563-.36-1.04-.36c-.535 0-1.141.164-1.816.492l-.299-.744c.316-.172.663-.307 1.04-.404s.755-.146 1.134-.146c.766 0 1.333.17 1.702.51s.554.885.554 1.635v4.383h-.722zm-2.197-.685c.605 0 1.081-.166 1.427-.498s.519-.797.519-1.395v-.58l-.973.041c-.773.027-1.331.147-1.673.36s-.513.544-.513.993c0 .352.106.619.319.803s.511.276.894.276zm9.513 0c.172 0 .338-.013.498-.038s.287-.052.381-.079v.744c-.105.051-.261.093-.466.126s-.39.05-.554.05c-1.242 0-1.863-.654-1.863-1.963v-3.82h-.92v-.469l.92-.404.41-1.371h.562v1.488h1.863v.756h-1.863v3.779c0 .387.092.684.275.891s.437.31.757.31zm7.406-2.532c0 1.047-.264 1.864-.791 2.452s-1.256.882-2.186.882c-.574 0-1.084-.135-1.529-.404s-.789-.656-1.031-1.16-.363-1.094-.363-1.77c0-1.047.262-1.862.785-2.446s1.25-.876 2.18-.876c.898 0 1.612.299 2.142.896s.793 1.407.793 2.426zm-4.893 0c0 .82.164 1.445.492 1.875s.811.645 1.447.645 1.12-.214 1.45-.642.495-1.054.495-1.878c0-.816-.165-1.437-.495-1.86s-.817-.636-1.462-.636c-.637 0-1.117.209-1.441.627s-.486 1.041-.486 1.869zm10.669 2.356h-.053c-.449.652-1.121.979-2.016.979-.84 0-1.494-.287-1.96-.861s-.7-1.391-.7-2.449.234-1.881.703-2.467 1.121-.879 1.958-.879c.871 0 1.539.316 2.004.949h.076l-.041-.463-.023-.451v-2.613h.973v9.117h-.791l-.13-.862zm-1.945.164c.664 0 1.145-.181 1.443-.542s.449-.944.449-1.749v-.205c0-.91-.152-1.56-.455-1.948s-.785-.583-1.449-.583c-.571 0-1.007.222-1.31.665s-.454 1.069-.454 1.878c0 .82.15 1.439.451 1.857s.742.627 1.325.627zm10.17-2.52c0 1.047-.264 1.864-.791 2.452s-1.256.882-2.186.882c-.574 0-1.084-.135-1.529-.404s-.789-.656-1.031-1.16-.363-1.094-.363-1.77c0-1.047.262-1.862.785-2.446s1.25-.876 2.18-.876c.898 0 1.613.299 2.143.896s.792 1.407.792 2.426zm-4.893 0c0 .82.164 1.445.492 1.875s.811.645 1.447.645 1.121-.214 1.451-.642.494-1.054.494-1.878c0-.816-.164-1.437-.494-1.86s-.818-.636-1.463-.636c-.637 0-1.117.209-1.441.627s-.486 1.041-.486 1.869zm14.658 0c0 1.047-.264 1.864-.791 2.452s-1.256.882-2.186.882c-.574 0-1.084-.135-1.529-.404s-.789-.656-1.031-1.16-.363-1.094-.363-1.77c0-1.047.262-1.862.785-2.446s1.25-.876 2.18-.876c.898 0 1.612.299 2.142.896s.793 1.407.793 2.426zm-4.892 0c0 .82.164 1.445.492 1.875s.811.645 1.447.645 1.12-.214 1.45-.642.495-1.054.495-1.878c0-.816-.165-1.437-.495-1.86s-.817-.636-1.462-.636c-.637 0-1.117.209-1.441.627s-.486 1.041-.486 1.869zm9.261-5.349h2.42c1.137 0 1.959.17 2.467.51s.762.877.762 1.611c0 .508-.142.927-.425 1.257s-.696.544-1.239.642v.059c1.301.223 1.951.906 1.951 2.051 0 .766-.259 1.363-.776 1.793s-1.241.645-2.171.645h-2.988v-8.568zm.996 3.668h1.641c.703 0 1.209-.11 1.518-.331s.463-.593.463-1.116c0-.48-.172-.827-.516-1.04s-.891-.319-1.641-.319h-1.465v2.806zm0 .843v3.205h1.787c.691 0 1.212-.134 1.562-.401s.524-.687.524-1.257c0-.531-.179-.922-.536-1.172s-.901-.375-1.632-.375h-1.705zm9.262-2.484c.285 0 .541.023.768.07l-.135.902a3.29 3.29 0 0 0-.703-.088c-.52 0-.964.211-1.333.633s-.554.947-.554 1.576v3.445h-.973v-6.422h.803l.111 1.189h.047c.238-.418.525-.74.861-.967s.706-.338 1.108-.338zm5.618 6.539l-.193-.914h-.047c-.32.402-.64.675-.958.817s-.716.214-1.192.214c-.637 0-1.136-.164-1.497-.492s-.542-.795-.542-1.4c0-1.297 1.037-1.977 3.111-2.039l1.09-.035v-.398c0-.504-.108-.876-.325-1.116s-.563-.36-1.04-.36c-.535 0-1.141.164-1.816.492l-.299-.744c.316-.172.663-.307 1.04-.404s.755-.146 1.134-.146c.766 0 1.333.17 1.702.51s.554.885.554 1.635v4.383h-.722zm-2.197-.685c.605 0 1.081-.166 1.427-.498s.519-.797.519-1.395v-.58l-.973.041c-.773.027-1.331.147-1.673.36s-.513.544-.513.993c0 .352.106.619.319.803s.511.276.894.276zm8.765-1.067c0 .598-.223 1.059-.668 1.383s-1.07.486-1.875.486c-.852 0-1.516-.135-1.992-.404v-.902c.309.156.64.279.993.369s.694.135 1.022.135c.508 0 .898-.081 1.172-.243s.41-.409.41-.741c0-.25-.108-.464-.325-.642s-.64-.388-1.269-.63c-.598-.223-1.022-.417-1.274-.583s-.439-.354-.562-.565-.185-.463-.185-.756c0-.523.213-.937.639-1.239s1.01-.454 1.752-.454a5.13 5.13 0 0 1 2.027.422l-.346.791c-.645-.266-1.229-.398-1.752-.398-.461 0-.809.072-1.043.217s-.352.344-.352.598c0 .172.044.318.132.439s.229.236.425.346.57.268 1.125.475c.762.277 1.276.557 1.544.838s.402.632.402 1.058zm1.2-6.41c0-.223.055-.386.164-.489s.246-.155.41-.155c.156 0 .291.053.404.158s.17.268.17.486-.057.382-.17.489-.248.161-.404.161c-.164 0-.301-.054-.41-.161s-.164-.27-.164-.489zm1.055 8.162h-.973v-6.422h.973v6.422zm2.735 0h-.973v-9.117h.973v9.117zm1.621-.621c0-.531.234-.797.703-.797.227 0 .401.068.524.205s.185.334.185.592c0 .25-.062.444-.188.583s-.299.208-.521.208c-.203 0-.371-.062-.504-.185s-.199-.325-.199-.606zm1.02-1.74h-.615l-.299-6.205h1.213l-.299 6.205zM78.85 64.131l-.252 2.314 2.332-.65.152 1.066-2.232.182 1.453 1.91-1.008.551-1.031-2.121-.938 2.121-1.031-.551 1.418-1.91-2.209-.182.17-1.066 2.291.65-.252-2.314h1.137zm8.542.551h1.072l-3.088 8.566h-.984l-3.07-8.566h1.055l1.969 5.543c.227.637.406 1.256.539 1.857.141-.633.324-1.264.551-1.893l1.956-5.507zm4.516 8.683c-.949 0-1.698-.289-2.247-.867s-.823-1.381-.823-2.408c0-1.035.255-1.857.765-2.467s1.194-.914 2.054-.914c.805 0 1.441.265 1.91.794s.703 1.228.703 2.095v.615h-4.424c.02.754.21 1.326.571 1.717s.87.586 1.526.586c.691 0 1.375-.145 2.051-.434v.867c-.344.148-.669.255-.976.319s-.677.097-1.11.097zm-.264-5.842c-.516 0-.927.168-1.233.504s-.487.801-.542 1.395h3.357c0-.613-.137-1.083-.41-1.409s-.664-.49-1.172-.49zm3.204 8.608c-.371 0-.672-.049-.902-.146v-.791c.27.078.535.117.797.117.305 0 .528-.083.671-.249s.214-.419.214-.759v-7.477h.972v7.406c0 1.266-.584 1.899-1.752 1.899zm.697-11.045c0-.223.055-.386.164-.489s.246-.155.41-.155c.156 0 .291.053.404.158s.17.268.17.486-.057.382-.17.489-.248.161-.404.161c-.164 0-.301-.054-.41-.161s-.164-.27-.164-.489zm6.767 8.162l-.193-.914h-.047c-.32.402-.64.675-.958.817s-.716.214-1.192.214c-.637 0-1.136-.164-1.497-.492s-.542-.795-.542-1.4c0-1.297 1.037-1.977 3.111-2.039l1.09-.035V69c0-.504-.108-.876-.325-1.116s-.563-.36-1.04-.36c-.535 0-1.141.164-1.816.492l-.299-.744c.316-.172.663-.307 1.04-.404s.755-.146 1.134-.146c.766 0 1.333.17 1.702.51s.554.885.554 1.635v4.383h-.722zm-2.198-.686c.605 0 1.081-.166 1.427-.498s.519-.797.519-1.395v-.58l-.973.041c-.773.027-1.331.147-1.673.36s-.513.544-.513.993c0 .352.106.619.319.803s.511.276.894.276zm12.983-2.531c0 1.047-.264 1.864-.791 2.452s-1.256.882-2.186.882c-.574 0-1.084-.135-1.529-.404s-.789-.656-1.031-1.16-.363-1.094-.363-1.77c0-1.047.262-1.862.785-2.446s1.25-.876 2.18-.876c.898 0 1.612.299 2.142.896s.793 1.407.793 2.426zm-4.893 0c0 .82.164 1.445.492 1.875s.811.645 1.447.645 1.12-.214 1.45-.642.495-1.054.495-1.878c0-.816-.165-1.437-.495-1.86s-.817-.636-1.462-.636c-.637 0-1.117.209-1.441.627s-.486 1.041-.486 1.869zm12.044-3.322c.285 0 .541.023.768.07l-.135.902a3.29 3.29 0 0 0-.703-.088c-.52 0-.963.211-1.332.633s-.555.947-.555 1.576v3.445h-.973v-6.422h.803l.111 1.189h.047c.238-.418.525-.74.861-.967s.706-.338 1.108-.338zm4.382 6.656c-.949 0-1.698-.289-2.247-.867s-.823-1.381-.823-2.408c0-1.035.255-1.857.765-2.467s1.194-.914 2.054-.914c.805 0 1.441.265 1.91.794s.703 1.228.703 2.095v.615h-4.424c.02.754.21 1.326.571 1.717s.87.586 1.526.586c.691 0 1.375-.145 2.051-.434v.867c-.344.148-.669.255-.976.319s-.677.097-1.11.097zm-.264-5.842c-.516 0-.927.168-1.233.504s-.487.801-.542 1.395h3.357c0-.613-.137-1.083-.41-1.409s-.664-.49-1.172-.49zm9.239-.697v.615l-1.189.141c.109.137.207.315.293.536s.129.47.129.747c0 .629-.215 1.131-.645 1.506s-1.02.562-1.77.562c-.191 0-.371-.016-.539-.047-.414.219-.621.494-.621.826 0 .176.072.306.217.39s.393.126.744.126h1.137c.695 0 1.229.146 1.603.439s.56.719.56 1.277c0 .711-.285 1.253-.855 1.626s-1.402.56-2.496.56c-.84 0-1.487-.156-1.942-.469s-.683-.754-.683-1.324c0-.391.125-.729.375-1.014s.602-.479 1.055-.58c-.164-.074-.302-.189-.413-.346s-.167-.338-.167-.545c0-.234.062-.439.188-.615s.322-.346.592-.51c-.332-.137-.603-.369-.812-.697s-.313-.703-.313-1.125c0-.703.211-1.245.633-1.626s1.02-.571 1.793-.571c.336 0 .639.039.908.117h2.218zm-5.121 7.5c0 .348.146.611.439.791s.713.27 1.26.27c.816 0 1.421-.122 1.813-.366s.589-.575.589-.993c0-.348-.107-.589-.322-.724s-.619-.202-1.213-.202h-1.166c-.441 0-.785.105-1.031.316s-.369.514-.369.908zm.528-5.443c0 .449.127.789.381 1.02s.607.346 1.061.346c.949 0 1.424-.461 1.424-1.383 0-.965-.48-1.447-1.441-1.447-.457 0-.809.123-1.055.369s-.37.61-.37 1.095zm6.526-2.057v4.166c0 .523.119.914.357 1.172s.611.387 1.119.387c.672 0 1.163-.184 1.474-.551s.466-.967.466-1.799v-3.375h.973v6.422h-.803l-.141-.861h-.053c-.199.316-.476.559-.829.727s-.757.252-1.21.252c-.781 0-1.366-.186-1.755-.557s-.583-.965-.583-1.781v-4.201h.985zm7.124 6.422h-.973v-9.117h.973v9.117zm5.711 0l-.193-.914h-.047c-.32.402-.64.675-.958.817s-.716.214-1.192.214c-.637 0-1.136-.164-1.497-.492s-.542-.795-.542-1.4c0-1.297 1.037-1.977 3.111-2.039l1.09-.035V69c0-.504-.108-.876-.325-1.116s-.563-.36-1.04-.36c-.535 0-1.141.164-1.816.492l-.299-.744c.316-.172.663-.307 1.04-.404s.755-.146 1.134-.146c.766 0 1.333.17 1.702.51s.554.885.554 1.635v4.383h-.722zm-2.197-.686c.605 0 1.081-.166 1.427-.498s.519-.797.519-1.395v-.58l-.973.041c-.773.027-1.331.147-1.673.36s-.513.544-.513.993c0 .352.106.619.319.803s.511.276.894.276zm12.807.686V69.07c0-.512-.109-.896-.328-1.151s-.559-.384-1.02-.384c-.605 0-1.053.174-1.342.521s-.434.883-.434 1.605v3.586h-.973V69.07c0-.512-.109-.896-.328-1.151s-.561-.384-1.025-.384c-.609 0-1.056.183-1.339.548s-.425.964-.425 1.796v3.369h-.973v-6.422h.791l.158.879h.047c.184-.312.442-.557.776-.732s.708-.264 1.122-.264c1.004 0 1.66.363 1.969 1.09h.047c.191-.336.469-.602.832-.797s.777-.293 1.242-.293c.727 0 1.271.187 1.632.56s.542.97.542 1.79v4.189h-.971zm5.39.117c-.949 0-1.698-.289-2.247-.867s-.823-1.381-.823-2.408c0-1.035.255-1.857.765-2.467s1.194-.914 2.054-.914c.805 0 1.441.265 1.91.794s.703 1.228.703 2.095v.615h-4.424c.02.754.21 1.326.571 1.717s.87.586 1.526.586c.691 0 1.375-.145 2.051-.434v.867c-.344.148-.669.255-.976.319s-.676.097-1.11.097zm-.264-5.842c-.516 0-.927.168-1.233.504s-.487.801-.542 1.395h3.357c0-.613-.137-1.083-.41-1.409s-.664-.49-1.172-.49zm8.378 5.725v-4.154c0-.523-.119-.914-.357-1.172s-.611-.387-1.119-.387c-.672 0-1.164.182-1.477.545s-.469.963-.469 1.799v3.369h-.973v-6.422h.791l.158.879h.047c.199-.316.479-.562.838-.735s.76-.261 1.201-.261c.773 0 1.355.187 1.746.56s.586.97.586 1.79v4.189h-.972zm4.745-.686c.172 0 .338-.013.498-.038s.287-.052.381-.079v.744c-.105.051-.261.093-.466.126s-.39.05-.554.05c-1.242 0-1.863-.654-1.863-1.963v-3.82h-.92v-.469l.92-.404.41-1.371h.562v1.488h1.863v.756H176.2v3.779c0 .387.092.684.275.891s.437.31.757.31zm7.405-2.531c0 1.047-.264 1.864-.791 2.452s-1.256.882-2.186.882c-.574 0-1.084-.135-1.529-.404s-.789-.656-1.031-1.16-.363-1.094-.363-1.77c0-1.047.262-1.862.785-2.446s1.25-.876 2.18-.876c.898 0 1.612.299 2.142.896s.793 1.407.793 2.426zm-4.893 0c0 .82.164 1.445.492 1.875s.811.645 1.447.645 1.12-.214 1.45-.642.495-1.054.495-1.878c0-.816-.165-1.437-.495-1.86s-.817-.636-1.462-.636c-.637 0-1.117.209-1.441.627s-.486 1.041-.486 1.869zm-97.232 36.19c0 .754-.273 1.342-.82 1.764s-1.289.633-2.227.633c-1.016 0-1.797-.131-2.344-.393v-.961c.352.148.734.266 1.148.352s.824.129 1.23.129c.664 0 1.164-.126 1.5-.378s.504-.603.504-1.052c0-.297-.06-.54-.179-.729s-.318-.364-.598-.524-.704-.342-1.274-.545c-.797-.285-1.366-.623-1.708-1.014s-.513-.9-.513-1.529c0-.66.248-1.186.744-1.576s1.152-.586 1.969-.586c.852 0 1.635.156 2.35.469l-.311.867c-.707-.297-1.395-.445-2.062-.445-.527 0-.939.113-1.236.34s-.445.541-.445.943c0 .297.055.54.164.729s.294.363.554.521.657.333 1.192.524c.898.32 1.517.664 1.854 1.031s.508.844.508 1.43zm5.255 2.279l-.193-.914h-.047c-.32.402-.64.675-.958.817s-.716.214-1.192.214c-.637 0-1.136-.164-1.497-.492s-.542-.795-.542-1.4c0-1.297 1.037-1.977 3.111-2.039l1.09-.035v-.398c0-.504-.108-.876-.325-1.116s-.563-.36-1.04-.36c-.535 0-1.141.164-1.816.492l-.299-.744c.316-.172.663-.307 1.04-.404s.755-.146 1.134-.146c.766 0 1.333.17 1.702.51s.554.885.554 1.635v4.383h-.722zm-2.198-.686c.605 0 1.081-.166 1.427-.498s.519-.797.519-1.395v-.58l-.973.041c-.773.027-1.331.147-1.673.36s-.513.544-.513.993c0 .352.106.619.319.803s.512.276.894.276zm4.54-7.476c0-.223.055-.386.164-.489s.246-.155.41-.155c.156 0 .291.053.404.158s.17.268.17.486-.057.382-.17.489-.248.161-.404.161c-.164 0-.301-.054-.41-.161s-.164-.27-.164-.489zm1.055 8.162h-.973v-6.422h.973v6.422zm4.751-6.527c.844 0 1.499.288 1.966.864s.7 1.392.7 2.446-.235 1.874-.706 2.458-1.124.876-1.96.876c-.418 0-.8-.077-1.146-.231s-.636-.392-.87-.712h-.07l-.205.826h-.697v-9.117h.973v2.215c0 .496-.016.941-.047 1.336h.047c.452-.641 1.124-.961 2.015-.961zm-.141.814c-.664 0-1.143.19-1.436.571s-.439 1.022-.439 1.925.15 1.548.451 1.937.783.583 1.447.583c.598 0 1.043-.218 1.336-.653s.439-1.062.439-1.878c0-.836-.146-1.459-.439-1.869s-.746-.616-1.359-.616zm8.155 5.713l-.193-.914h-.047c-.32.402-.64.675-.958.817s-.716.214-1.192.214c-.637 0-1.136-.164-1.497-.492s-.542-.795-.542-1.4c0-1.297 1.037-1.977 3.111-2.039l1.09-.035v-.398c0-.504-.108-.876-.325-1.116s-.563-.36-1.04-.36c-.535 0-1.141.164-1.816.492l-.299-.744c.316-.172.663-.307 1.04-.404s.755-.146 1.134-.146c.766 0 1.333.17 1.702.51s.554.885.554 1.635v4.383h-.722zm-2.198-.686c.605 0 1.081-.166 1.427-.498s.519-.797.519-1.395v-.58l-.973.041c-.773.027-1.331.147-1.673.36s-.513.544-.513.993c0 .352.106.619.319.803s.512.276.894.276zm15.625.686v-4.178c0-.512-.109-.896-.328-1.151s-.559-.384-1.02-.384c-.605 0-1.053.174-1.342.521s-.434.883-.434 1.605v3.586h-.973v-4.178c0-.512-.109-.896-.328-1.151s-.561-.384-1.025-.384c-.609 0-1.056.183-1.339.548s-.425.964-.425 1.796v3.369h-.973v-6.422h.791l.158.879h.047c.184-.312.442-.557.776-.732s.708-.264 1.122-.264c1.004 0 1.66.363 1.969 1.09h.047c.191-.336.469-.602.832-.797s.777-.293 1.242-.293c.727 0 1.271.187 1.632.56s.542.97.542 1.79v4.189h-.971zm6.626 0l-.193-.914h-.047c-.32.402-.641.675-.959.817s-.715.214-1.191.214c-.637 0-1.137-.164-1.498-.492s-.541-.795-.541-1.4c0-1.297 1.037-1.977 3.111-2.039l1.09-.035v-.398c0-.504-.109-.876-.326-1.116s-.562-.36-1.039-.36c-.535 0-1.141.164-1.816.492l-.299-.744c.316-.172.662-.307 1.039-.404s.756-.146 1.135-.146c.766 0 1.332.17 1.701.51s.555.885.555 1.635v4.383h-.722zm-2.197-.686c.605 0 1.08-.166 1.426-.498s.52-.797.52-1.395v-.58l-.973.041c-.773.027-1.332.147-1.674.36s-.512.544-.512.993c0 .352.105.619.318.803s.512.276.895.276zm4.539-7.476c0-.223.055-.386.164-.489s.246-.155.41-.155c.156 0 .291.053.404.158s.17.268.17.486-.057.382-.17.489-.248.161-.404.161c-.164 0-.301-.054-.41-.161s-.164-.27-.164-.489zm1.055 8.162h-.973v-6.422h.973v6.422zm5.905-1.752c0 .598-.223 1.059-.668 1.383s-1.07.486-1.875.486c-.852 0-1.516-.135-1.992-.404v-.902c.309.156.64.279.993.369s.694.135 1.022.135c.508 0 .898-.081 1.172-.243s.41-.409.41-.741c0-.25-.108-.464-.325-.642s-.64-.388-1.269-.63c-.598-.223-1.022-.417-1.274-.583s-.439-.354-.562-.565-.185-.463-.185-.756c0-.523.213-.937.639-1.239s1.01-.454 1.752-.454a5.13 5.13 0 0 1 2.027.422l-.346.791c-.645-.266-1.229-.398-1.752-.398-.461 0-.809.072-1.043.217s-.352.344-.352.598c0 .172.044.318.132.439s.229.236.425.346.57.268 1.125.475c.762.277 1.276.557 1.544.838s.402.632.402 1.058zM76.5 109.701v-.598h57.035v.598H76.5z" fill="#696A6A"/><path fill="#838588" d="M63.513 40.518H11.749c-1.694 0-1.762-1.219-1.762-1.219V15.042s-.203-1.355 1.355-1.355h41.195s1.669-.169 2.618 1.39c.948 1.559 3.21 7.419 3.21 7.419s.473 1.626 1.76 2.304c1.289.678 4.473 2.168 4.473 2.168s1.219.204 1.083 1.897c-.135 1.695-.677 9.892-.677 9.892s.068 1.761-1.491 1.761z"/><circle fill="#838588" cx="20.065" cy="40.128" r="5.539"/><circle fill="#FFF" cx="20.066" cy="40.128" r="3.506"/><circle fill="#838588" cx="55.942" cy="40.128" r="5.539"/><circle fill="#FFF" cx="55.943" cy="40.128" r="3.506"/></svg>