<svg xmlns="http://www.w3.org/2000/svg" width="230" height="115" viewBox="0 0 230 115"><path d="M67.566 27.896c-.435-.317-.853-.535-1.421-.535-.92 0-1.488.753-1.488 1.623 0 .552.134.937.468 1.371l1.271 1.388c1.137 1.154 1.789 1.99 1.789 3.696 0 1.773-1.104 3.294-2.96 3.294-.652 0-1.321-.184-1.839-.602v-1.689c.501.368 1.003.652 1.656.652 1.037 0 1.472-.819 1.472-1.756 0-2.509-3.529-3.01-3.529-6.322 0-1.772.937-3.228 2.826-3.228.635 0 1.238.1 1.773.418l-.018 1.69zm6.541-1.94v1.455H71.28v3.963h2.525v1.455H71.28v4.281h2.827v1.455h-4.499V25.956h4.499zm2.979 0v9.248c0 1.622.485 1.957 1.171 1.957 1.154 0 1.254-.736 1.271-1.773v-9.432H81.2v8.947c0 1.656.017 3.83-2.894 3.83-2.659 0-2.893-1.806-2.893-4.08v-8.696l1.673-.001zm9.57 12.609V25.956h2.007c1.438 0 3.278.134 3.278 3.378 0 2.559-1.003 3.746-3.612 3.646v5.586l-1.673-.001zm1.673-11.188v4.181c1.438.101 1.84-.686 1.84-2.09 0-1.137-.334-2.09-1.605-2.09l-.235-.001zm4.818-1.421h2.007c1.221 0 3.127.066 3.127 3.228 0 1.188-.351 2.993-1.739 3.244l2.325 6.138h-1.739l-2.274-6.171h-.034v6.171h-1.672l-.001-12.61zm3.362 3.595c0-1.204-.15-2.208-1.421-2.174h-.268v4.164c1.254.084 1.689-.719 1.689-1.99zm6.709-3.595l2.709 12.609h-1.689l-.468-2.458h-2.509l-.468 2.458h-1.639l2.743-12.609h1.321zm-.034 7.023l-.635-4.582h-.034l-1.003 6.405h2.007l-.335-1.823zm9.101-7.023l-3.796 11.154h3.596v1.455h-5.82l3.83-11.155h-3.378v-1.455l5.568.001zm5.82 0v1.455h-2.826v3.963h2.525v1.455h-2.525v4.281h2.826v1.455h-4.499V25.956h4.499zm1.309 0h2.007c1.222 0 3.127.066 3.127 3.228 0 1.188-.353 2.993-1.739 3.244l2.324 6.138h-1.738l-2.274-6.171h-.033v6.171h-1.672l-.002-12.61zm3.361 3.595c0-1.204-.15-2.208-1.422-2.174h-.269v4.164c1.256.084 1.691-.719 1.691-1.99zm13.461-3.595v2.341h-2.525v2.743h2.225v2.341h-2.225v2.843h2.559v2.341h-5.051V25.956h5.017zm5.421 0l1.221 7.442h.034l1.003-7.442h3.345l1.321 12.609h-2.56l-.603-9.081h-.032l-.402 3.111-1.069 5.97h-1.923l-1.221-6.037-.418-2.81v-.234h-.035l-.367 9.081h-2.676l1.104-12.609h3.278zm17.099 0l3.026 12.609h-2.659l-.469-2.124h-2.524l-.452 2.124h-2.475l2.927-12.609h2.626zm-1.106 5.15l-.283-1.906h-.033l-.268 1.906-.535 3.362h1.756l-.637-3.362zm10.006-5.15v2.341h-1.975v10.269h-2.492V28.297h-1.955v-2.341h6.422zm6.156 0v2.341h-2.525v2.743h2.225v2.341h-2.225v2.843h2.559v2.341h-5.051V25.956h5.017zm-.384-2.977l-2.156 2.308-1.153-.669 1.604-2.408 1.705.769zm10.607 2.977v12.609h-2.426V28.13h-1.203v-2.174h3.629zm3.599 4.381l-.034-.686c0-2.341.67-3.914 3.295-3.914 2.092 0 3.396 1.054 3.396 3.228 0 1.288-.451 2.308-1.036 3.429l-2.107 3.997h2.928v2.174h-6.623l2.843-5.218c.651-1.204 1.623-2.91 1.623-4.298 0-.652-.201-1.556-1.004-1.556-.953 0-1.004 1.355-1.004 2.041l.034.803h-2.311zm10.507-4.381l.719 1.756c.218.619.469 1.271.603 1.923h.033c.134-.652.334-1.288.567-1.923l.754-1.756h2.691l-2.691 6.104 2.893 6.505h-2.893l-.803-2.007c-.234-.636-.386-1.254-.553-1.89h-.033c-.185.635-.335 1.254-.553 1.89l-.734 2.007h-2.811l2.676-6.505-2.676-6.104h2.811zM69.311 54.054c0 .819-.28 1.45-.839 1.892-.56.441-1.359.661-2.4.661h-.953v3.185h-.941v-8.096h2.1c2.022-.001 3.033.785 3.033 2.358zm-4.192 1.744h.847c.835 0 1.438-.135 1.811-.404.374-.27.56-.702.56-1.296 0-.535-.176-.934-.527-1.197-.351-.262-.897-.393-1.639-.393h-1.052v3.29zm9.197 3.993l-.183-.864h-.043c-.302.38-.605.638-.906.772-.3.134-.676.201-1.126.201-.602 0-1.074-.155-1.415-.464-.341-.311-.512-.751-.512-1.323 0-1.226.98-1.869 2.94-1.927l1.03-.033v-.376c0-.477-.102-.828-.307-1.055-.206-.227-.532-.34-.983-.34-.506 0-1.079.155-1.716.465l-.283-.703a4.24 4.24 0 0 1 .983-.382 4.318 4.318 0 0 1 1.072-.137c.724 0 1.26.16 1.608.481.349.321.524.836.524 1.545v4.143h-.683v-.003zm-2.076-.647c.572 0 1.021-.156 1.348-.471.327-.313.491-.753.491-1.319v-.548l-.919.039c-.73.025-1.258.139-1.582.34-.323.202-.484.514-.484.938 0 .333.1.585.301.76.201.174.483.261.845.261zm7.136-5.534c.27 0 .512.022.726.066l-.127.853a3.094 3.094 0 0 0-.665-.083c-.491 0-.911.2-1.26.599-.349.398-.524.895-.524 1.489v3.256h-.918v-6.07h.759l.105 1.125h.044c.225-.395.496-.7.814-.915.318-.215.667-.32 1.046-.32zm4.004 6.29c-.879 0-1.558-.27-2.041-.811-.482-.54-.723-1.306-.723-2.295 0-1.016.245-1.8.734-2.354.488-.554 1.186-.831 2.09-.831.292 0 .583.031.875.095.292.063.521.137.688.221l-.283.78a4.369 4.369 0 0 0-.665-.202 2.949 2.949 0 0 0-.637-.081c-1.234 0-1.85.787-1.85 2.359 0 .746.15 1.318.452 1.717.301.397.747.598 1.337.598a4.09 4.09 0 0 0 1.556-.327v.814c-.405.213-.916.317-1.533.317zm5.255 0c-.897 0-1.605-.273-2.124-.818-.519-.547-.778-1.306-.778-2.276 0-.978.241-1.755.723-2.331.482-.577 1.128-.864 1.941-.864.761 0 1.362.25 1.805.75s.665 1.161.665 1.98v.581h-4.181c.019.713.198 1.254.539 1.624.341.369.823.554 1.442.554a4.9 4.9 0 0 0 1.939-.411v.819a4.98 4.98 0 0 1-.923.303c-.289.059-.64.089-1.048.089zm-.25-5.519c-.488 0-.876.159-1.166.476s-.46.757-.512 1.318h3.173c0-.579-.13-1.023-.388-1.331-.257-.308-.627-.463-1.107-.463zm4.684 5.41h-.92v-8.617h.92v8.617zm4.231.109c-.897 0-1.605-.273-2.124-.818-.519-.547-.778-1.306-.778-2.276 0-.978.241-1.755.723-2.331.482-.577 1.128-.864 1.941-.864.761 0 1.362.25 1.805.75s.665 1.161.665 1.98v.581h-4.181c.019.713.198 1.254.54 1.624.341.369.822.554 1.442.554a4.9 4.9 0 0 0 1.939-.411v.819a4.98 4.98 0 0 1-.923.303c-.29.059-.641.089-1.049.089zm-.25-5.519c-.488 0-.876.159-1.166.476s-.46.757-.512 1.318h3.173c0-.579-.13-1.023-.388-1.331-.257-.308-.627-.463-1.107-.463zm10.342 3.754c0 .565-.21 1.002-.63 1.307-.42.307-1.011.459-1.772.459-.805 0-1.433-.127-1.882-.381v-.852c.292.146.604.263.938.348.334.086.656.128.966.128.48 0 .849-.077 1.108-.23.259-.153.387-.386.387-.699 0-.237-.102-.439-.307-.607-.205-.168-.605-.367-1.199-.595-.565-.211-.966-.394-1.204-.551a1.625 1.625 0 0 1-.531-.534 1.397 1.397 0 0 1-.175-.714c0-.494.201-.886.604-1.171.403-.286.955-.429 1.656-.429a4.84 4.84 0 0 1 1.916.399l-.326.748c-.609-.251-1.162-.376-1.656-.376-.436 0-.765.068-.986.205-.221.138-.333.326-.333.565 0 .163.042.3.125.415.083.114.216.223.401.327.185.104.539.253 1.063.449.72.262 1.206.526 1.459.792.253.26.378.594.378.997zm3.776 1.765c-.897 0-1.605-.273-2.124-.818-.519-.547-.778-1.306-.778-2.276 0-.978.241-1.755.723-2.331.482-.577 1.129-.864 1.942-.864.761 0 1.362.25 1.805.75s.665 1.161.665 1.98v.581h-4.181c.019.713.198 1.254.54 1.624.341.369.822.554 1.443.554.653 0 1.299-.138 1.938-.411v.819a4.98 4.98 0 0 1-.923.303c-.29.059-.64.089-1.05.089zm-.249-5.519c-.487 0-.876.159-1.165.476-.29.317-.46.757-.512 1.318h3.172c0-.579-.129-1.023-.387-1.331-.258-.308-.628-.463-1.108-.463zm4.629-.66v3.938c0 .495.112.863.338 1.108.225.243.577.365 1.057.365.636 0 1.1-.175 1.393-.521.295-.348.441-.915.441-1.701v-3.19h.919v6.07h-.758l-.134-.813h-.051a1.833 1.833 0 0 1-.783.687 2.63 2.63 0 0 1-1.144.238c-.737 0-1.291-.175-1.659-.526-.367-.351-.551-.912-.551-1.684v-3.97h.931v-.001zm9.728 4.414c0 .565-.211 1.002-.632 1.307-.42.307-1.011.459-1.771.459-.806 0-1.433-.127-1.883-.381v-.852c.293.146.605.263.939.348.333.086.655.128.965.128.48 0 .85-.077 1.107-.23.26-.153.388-.386.388-.699 0-.237-.101-.439-.306-.607-.205-.168-.605-.367-1.2-.595-.564-.211-.966-.394-1.203-.551a1.639 1.639 0 0 1-.532-.534 1.397 1.397 0 0 1-.175-.714c0-.494.201-.886.604-1.171.402-.286.954-.429 1.655-.429.652 0 1.291.133 1.915.399l-.326.748c-.609-.251-1.161-.376-1.656-.376-.436 0-.764.068-.985.205-.222.138-.332.326-.332.565 0 .163.04.3.124.415.083.114.217.223.401.327.186.104.539.253 1.063.449.72.262 1.205.526 1.459.792s.381.594.381.997zm6.7 1.765c-.396 0-.757-.071-1.084-.218a2.028 2.028 0 0 1-.821-.673h-.066c.044.354.066.689.066 1.007v2.499h-.92V53.72h.747l.129.831h.044c.236-.333.512-.572.825-.72a2.502 2.502 0 0 1 1.08-.221c.805 0 1.426.275 1.863.825.438.55.656 1.321.656 2.314 0 .997-.223 1.771-.667 2.323-.446.554-1.062.828-1.852.828zm-.133-5.509c-.621 0-1.069.172-1.346.516-.277.343-.42.889-.427 1.639v.205c0 .853.142 1.464.427 1.831.284.367.74.551 1.367.551.524 0 .936-.213 1.233-.637.297-.425.445-1.009.445-1.755 0-.757-.148-1.337-.445-1.742-.297-.406-.715-.608-1.254-.608zm6.538 5.509c-.897 0-1.604-.273-2.123-.818-.519-.547-.778-1.306-.778-2.276 0-.978.241-1.755.723-2.331.482-.577 1.129-.864 1.942-.864.761 0 1.361.25 1.806.75.442.5.663 1.161.663 1.98v.581h-4.181c.02.713.198 1.254.54 1.624.341.369.821.554 1.441.554.653 0 1.3-.138 1.938-.411v.819c-.325.14-.632.241-.922.303a5.323 5.323 0 0 1-1.049.089zm-.248-5.519c-.487 0-.876.159-1.166.476-.288.317-.46.757-.512 1.318h3.173c0-.579-.129-1.023-.387-1.331-.259-.308-.628-.463-1.108-.463zm7.895 4.596h-.05c-.424.617-1.06.926-1.905.926-.794 0-1.411-.271-1.853-.813-.441-.543-.662-1.315-.662-2.315s.222-1.778.665-2.332c.443-.554 1.06-.831 1.85-.831.823 0 1.454.299 1.894.896h.072L146 54.07l-.021-.426v-2.47h.92v8.617h-.748l-.123-.814zm-1.838.155c.627 0 1.083-.171 1.364-.513.282-.341.424-.892.424-1.653v-.193c0-.86-.143-1.474-.43-1.841-.286-.367-.742-.551-1.37-.551-.539 0-.952.21-1.238.628s-.429 1.01-.429 1.775c0 .775.142 1.36.426 1.755.286.396.703.593 1.253.593zm4.296-7.056c0-.21.053-.365.155-.462s.232-.146.388-.146c.146 0 .275.05.381.149.107.099.161.253.161.459 0 .207-.054.361-.161.462a.533.533 0 0 1-.381.152c-.155 0-.285-.051-.388-.152s-.155-.254-.155-.462zm.998 7.715h-.92v-6.07h.92v6.07zm5.797-.814h-.05c-.425.617-1.06.926-1.906.926-.794 0-1.411-.271-1.853-.813-.441-.543-.662-1.315-.662-2.315s.221-1.778.665-2.332c.443-.554 1.06-.831 1.85-.831.823 0 1.454.299 1.894.896h.072l-.039-.438-.021-.426v-2.47h.919v8.617h-.748l-.121-.814zm-1.839.155c.628 0 1.083-.171 1.364-.513.282-.341.425-.892.425-1.653v-.193c0-.86-.145-1.474-.431-1.841-.286-.367-.742-.551-1.369-.551-.539 0-.953.21-1.239.628s-.428 1.01-.428 1.775c0 .775.141 1.36.425 1.755.286.396.704.593 1.253.593zm9.613-2.382c0 .99-.25 1.763-.748 2.318s-1.187.832-2.065.832c-.543 0-1.024-.127-1.445-.381s-.746-.619-.975-1.097c-.229-.476-.344-1.034-.344-1.673 0-.989.247-1.76.742-2.312.495-.552 1.182-.828 2.06-.828.85 0 1.525.283 2.025.847.5.565.75 1.331.75 2.294zm-4.625 0c0 .775.155 1.366.466 1.771.31.407.766.61 1.367.61s1.059-.202 1.37-.606c.312-.404.468-.997.468-1.775 0-.771-.155-1.358-.468-1.758-.312-.4-.771-.602-1.382-.602-.603 0-1.056.198-1.361.593-.307.396-.46.985-.46 1.767zm9.868 1.385c0 .565-.21 1.002-.632 1.307-.42.307-1.01.459-1.771.459-.806 0-1.433-.127-1.882-.381v-.852c.291.146.604.263.938.348.334.086.656.128.966.128.48 0 .849-.077 1.108-.23.259-.153.387-.386.387-.699 0-.237-.102-.439-.307-.607-.205-.168-.605-.367-1.2-.595-.564-.211-.965-.394-1.203-.551a1.639 1.639 0 0 1-.532-.534 1.396 1.396 0 0 1-.174-.714c0-.494.201-.886.604-1.171.402-.286.954-.429 1.655-.429.653 0 1.292.133 1.916.399l-.328.748c-.609-.251-1.161-.376-1.656-.376-.436 0-.764.068-.985.205-.221.138-.332.326-.332.565 0 .163.041.3.125.415.083.114.216.223.4.327.186.104.539.253 1.063.449.721.262 1.207.526 1.461.792.253.262.379.594.379.997zm5.205 1.656l-2.305-6.07h.985l1.307 3.6c.295.842.469 1.389.521 1.638h.045c.04-.194.168-.6.384-1.214s.7-1.956 1.454-4.024h.985l-2.305 6.07h-1.071zm3.99-7.715c0-.21.052-.365.155-.462s.232-.146.388-.146c.147 0 .275.05.382.149s.161.253.161.459c0 .207-.055.361-.161.462s-.234.152-.382.152c-.155 0-.284-.051-.388-.152s-.155-.254-.155-.462zm.997 7.715h-.919v-6.07h.919v6.07zm5.398 0l-.183-.864h-.044c-.303.38-.604.638-.904.772-.301.134-.678.201-1.128.201-.603 0-1.073-.155-1.414-.464-.342-.311-.513-.751-.513-1.323 0-1.226.979-1.869 2.939-1.927l1.03-.033v-.376c0-.477-.102-.828-.307-1.055-.204-.227-.531-.34-.982-.34-.506 0-1.079.155-1.716.465l-.283-.703c.298-.163.626-.291.982-.382a4.32 4.32 0 0 1 1.073-.137c.724 0 1.259.16 1.607.481s.524.836.524 1.545v4.143h-.684v-.003zm-2.076-.647c.572 0 1.022-.156 1.35-.471.326-.313.49-.753.49-1.319v-.548l-.921.039c-.729.025-1.257.139-1.58.34-.323.202-.485.514-.485.938 0 .333.101.585.302.76.2.174.481.261.844.261zm-111.3 47.077c0 .754-.273 1.342-.82 1.764s-1.289.634-2.227.634c-1.016 0-1.797-.132-2.344-.394v-.961a6.293 6.293 0 0 0 2.378.482c.664 0 1.164-.126 1.5-.378s.504-.604.504-1.053c0-.297-.06-.539-.179-.729-.119-.189-.318-.363-.598-.523-.28-.16-.704-.342-1.274-.545-.797-.285-1.366-.623-1.708-1.015-.342-.392-.513-.899-.513-1.528 0-.66.248-1.187.744-1.576.496-.391 1.152-.586 1.969-.586.852 0 1.635.156 2.35.469l-.311.867c-.707-.297-1.395-.445-2.062-.445-.527 0-.939.113-1.236.34s-.445.541-.445.943c0 .297.055.539.164.729.109.189.294.363.554.521.26.158.657.332 1.192.523.898.32 1.517.664 1.854 1.031s.508.844.508 1.43zm5.255 2.279l-.193-.914h-.047c-.32.402-.64.676-.958.816-.318.143-.716.215-1.192.215-.637 0-1.136-.164-1.497-.492-.361-.328-.542-.795-.542-1.4 0-1.297 1.037-1.977 3.111-2.039l1.09-.035v-.397c0-.504-.108-.876-.325-1.116-.217-.24-.563-.359-1.04-.359-.535 0-1.141.164-1.816.492l-.299-.744a4.48 4.48 0 0 1 1.04-.404 4.49 4.49 0 0 1 1.134-.146c.766 0 1.333.17 1.702.51.369.341.554.886.554 1.636v4.383h-.722v-.006zm-2.198-.686c.605 0 1.081-.166 1.427-.498.346-.332.519-.797.519-1.396v-.58l-.973.041c-.773.027-1.331.147-1.673.36-.342.213-.513.544-.513.992 0 .353.106.619.319.804.213.186.512.277.894.277zm4.54-7.476c0-.223.055-.386.164-.488a.571.571 0 0 1 .41-.156c.156 0 .291.054.404.158.113.105.17.269.17.486 0 .219-.057.383-.17.489a.573.573 0 0 1-.404.161c-.164 0-.301-.055-.41-.161s-.164-.27-.164-.489zm1.055 8.162h-.973v-6.422h.973v6.422zm4.751-6.527c.844 0 1.499.289 1.966.864.467.576.7 1.392.7 2.446 0 1.054-.235 1.873-.706 2.458-.471.584-1.124.876-1.96.876-.418 0-.8-.077-1.146-.23a2.152 2.152 0 0 1-.87-.713h-.07l-.205.826h-.697v-9.117h.973v2.215c0 .496-.016.941-.047 1.336h.047c.452-.641 1.124-.961 2.015-.961zm-.141.814c-.664 0-1.143.189-1.436.57s-.439 1.022-.439 1.926c0 .902.15 1.548.451 1.938.301.389.783.582 1.447.582.598 0 1.043-.218 1.336-.652.293-.436.439-1.062.439-1.879 0-.836-.146-1.459-.439-1.869-.293-.41-.746-.616-1.359-.616zm8.155 5.713l-.193-.914h-.047c-.32.402-.64.676-.958.816-.318.143-.716.215-1.192.215-.637 0-1.136-.164-1.497-.492s-.542-.795-.542-1.4c0-1.297 1.037-1.977 3.111-2.039l1.09-.035v-.397c0-.504-.108-.876-.325-1.116s-.563-.359-1.04-.359c-.535 0-1.141.164-1.816.492l-.299-.744a4.48 4.48 0 0 1 1.04-.404 4.49 4.49 0 0 1 1.134-.146c.766 0 1.333.17 1.702.51.369.341.554.886.554 1.636v4.383h-.722v-.006zm-2.198-.686c.605 0 1.081-.166 1.427-.498.346-.332.519-.797.519-1.396v-.58l-.973.041c-.773.027-1.331.147-1.673.36-.342.213-.513.544-.513.992 0 .353.106.619.319.804s.512.277.894.277zm15.625.686v-4.178c0-.512-.109-.896-.328-1.151-.219-.255-.559-.384-1.02-.384-.605 0-1.053.174-1.342.521-.289.346-.434.883-.434 1.604v3.586h-.973v-4.179c0-.512-.109-.896-.328-1.15-.219-.255-.561-.384-1.025-.384-.609 0-1.056.183-1.339.548-.283.365-.425.964-.425 1.796v3.369h-.973v-6.422h.791l.158.879h.047c.184-.312.442-.558.776-.731a2.37 2.37 0 0 1 1.122-.265c1.004 0 1.66.362 1.969 1.09h.047c.191-.336.469-.603.832-.797a2.595 2.595 0 0 1 1.242-.293c.727 0 1.271.187 1.632.56.361.373.542.971.542 1.791v4.188l-.971.002zm6.626 0l-.193-.914h-.047c-.32.402-.64.676-.958.816-.318.143-.716.215-1.192.215-.637 0-1.136-.164-1.497-.492-.361-.328-.542-.795-.542-1.4 0-1.297 1.037-1.977 3.111-2.039l1.09-.035v-.397c0-.504-.108-.876-.325-1.116-.217-.24-.563-.359-1.04-.359-.535 0-1.141.164-1.816.492l-.299-.744a4.48 4.48 0 0 1 1.04-.404 4.49 4.49 0 0 1 1.134-.146c.766 0 1.333.17 1.702.51.369.341.554.886.554 1.636v4.383h-.722v-.006zm-2.197-.686c.605 0 1.081-.166 1.427-.498.346-.332.519-.797.519-1.396v-.58l-.973.041c-.773.027-1.331.147-1.673.36-.342.213-.513.544-.513.992 0 .353.106.619.319.804s.511.277.894.277zm4.54-7.476c0-.223.055-.386.164-.488a.571.571 0 0 1 .41-.156c.156 0 .291.054.404.158.113.105.17.269.17.486 0 .219-.057.383-.17.489a.573.573 0 0 1-.404.161.567.567 0 0 1-.41-.161c-.109-.106-.164-.27-.164-.489zm1.054 8.162h-.973v-6.422h.973v6.422zm5.905-1.752c0 .598-.224 1.059-.668 1.383-.445.324-1.07.486-1.875.486-.853 0-1.517-.135-1.992-.404v-.902c.31.156.64.279.993.369s.693.135 1.021.135c.508 0 .898-.08 1.172-.242.274-.162.41-.409.41-.741 0-.25-.107-.464-.324-.642s-.641-.389-1.27-.631c-.598-.223-1.021-.416-1.273-.582s-.439-.354-.562-.565-.186-.463-.186-.757c0-.522.213-.936.64-1.238.426-.303 1.01-.454 1.752-.454.69 0 1.366.142 2.026.423l-.346.79c-.645-.266-1.229-.397-1.752-.397-.461 0-.809.072-1.043.217s-.352.344-.352.598c0 .172.044.318.132.439s.229.236.425.346c.196.109.57.268 1.125.475.762.277 1.275.558 1.544.838.269.279.403.63.403 1.056zM64.5 109.701v-.598h57.035v.598H64.5z" fill="#696B6B"/><path fill="#696969" d="M29.568 14.426c-12.811 0-23.234 10.424-23.234 23.234 0 12.812 10.423 23.234 23.234 23.234 12.812 0 23.235-10.422 23.235-23.234 0-12.809-10.423-23.234-23.235-23.234z"/><path d="M24.026 44.638h-10.16v-2.8h3.327V31.834l-3.417.739v-2.867l6.945-1.4v13.532h3.304l.001 2.8zm11.55 0H25.002v-2.756l4.604-4.402c.963-.918 1.628-1.684 1.994-2.296a3.492 3.492 0 0 0 .526-1.837c0-1.479-.794-2.218-2.386-2.218-1.381 0-2.703.548-3.965 1.646v-3.114c1.389-.904 2.965-1.356 4.728-1.356 1.701 0 3.021.444 3.954 1.333.852.821 1.277 1.904 1.277 3.248 0 1.875-1.124 3.812-3.372 5.812l-3.305 2.937v.067h6.52l-.001 2.936zm12.592-11.471l-3.786 5.556 3.763 5.915h-4.077l-1.657-3.092a12.286 12.286 0 0 1-.481-1.042h-.045a6.481 6.481 0 0 1-.459 1.007l-1.668 3.126h-4.067l3.876-5.713-3.641-5.757h4.1l1.635 3.214c.218.426.37.784.46 1.075h.045c.118-.35.278-.717.479-1.097l1.669-3.193 3.854.001z" fill="#FFF"/><path fill="#8E8E8E" d="M203.284 73.005h-3.628a.505.505 0 0 0-.497.426l-1.467 9.3a.303.303 0 0 0 .298.351h1.862a.353.353 0 0 0 .348-.299l.417-2.636a.503.503 0 0 1 .497-.426h1.147c2.39 0 3.769-1.156 4.128-3.448.164-1.002.008-1.789-.462-2.341-.516-.606-1.43-.927-2.643-.927zm.419 3.397c-.199 1.303-1.192 1.303-2.154 1.303h-.547l.383-2.432a.305.305 0 0 1 .3-.256h.25c.655 0 1.273 0 1.592.373.191.224.247.555.176 1.012z"/><path fill="#636363" d="M177.415 73.005h-3.628a.506.506 0 0 0-.498.426l-1.466 9.3a.303.303 0 0 0 .298.351h1.733a.504.504 0 0 0 .496-.426l.396-2.509a.506.506 0 0 1 .499-.425h1.146c2.39 0 3.77-1.155 4.129-3.448.162-1.003.007-1.789-.463-2.341-.516-.607-1.43-.928-2.642-.928zm.418 3.397c-.199 1.303-1.192 1.303-2.155 1.303h-.547l.384-2.432a.305.305 0 0 1 .3-.256h.25c.654 0 1.273 0 1.593.373.189.224.246.555.175 1.012zm10.423-.042h-1.737a.305.305 0 0 0-.299.256l-.076.484-.121-.175c-.376-.547-1.215-.729-2.052-.729-1.918 0-3.558 1.453-3.877 3.493-.164 1.017.069 1.99.646 2.669.531.623 1.287.883 2.188.883 1.546 0 2.404-.993 2.404-.993l-.077.481a.303.303 0 0 0 .299.351h1.563c.248 0 .46-.181.498-.425l.938-5.946a.301.301 0 0 0-.297-.349zm-2.421 3.381c-.169.992-.956 1.658-1.961 1.658-.504 0-.907-.162-1.166-.469-.258-.305-.354-.738-.272-1.221.157-.982.957-1.671 1.946-1.671.494 0 .895.163 1.158.473.267.314.37.75.295 1.23z"/><path fill="#8E8E8E" d="M214.126 76.36h-1.736a.305.305 0 0 0-.3.256l-.078.484-.12-.175c-.376-.547-1.214-.729-2.052-.729-1.919 0-3.558 1.453-3.877 3.493-.165 1.017.069 1.99.646 2.669.53.623 1.286.883 2.188.883 1.547 0 2.405-.993 2.405-.993l-.077.481a.301.301 0 0 0 .299.351h1.562a.506.506 0 0 0 .499-.425l.938-5.946a.3.3 0 0 0-.297-.349zm-2.422 3.381c-.167.992-.955 1.658-1.959 1.658-.505 0-.908-.162-1.168-.469-.256-.305-.352-.738-.272-1.221.157-.982.958-1.671 1.948-1.671.492 0 .894.163 1.157.473.266.314.371.75.294 1.23z"/><path fill="#636363" d="M197.506 76.36h-1.746a.506.506 0 0 0-.416.221l-2.41 3.548-1.019-3.408a.506.506 0 0 0-.483-.36h-1.716a.303.303 0 0 0-.287.4l1.924 5.643-1.809 2.552c-.142.2.001.477.246.477h1.744c.166 0 .32-.081.414-.217l5.806-8.379a.304.304 0 0 0-.248-.477z"/><path fill="#8E8E8E" d="M216.172 73.262l-1.488 9.469a.303.303 0 0 0 .299.351h1.498a.503.503 0 0 0 .496-.425l1.468-9.301a.302.302 0 0 0-.299-.35h-1.676a.3.3 0 0 0-.298.256zm4.471-.476c.206 0 .402.052.591.154s.338.251.443.441a1.2 1.2 0 0 1 .004 1.197 1.11 1.11 0 0 1-.441.442 1.203 1.203 0 0 1-1.192 0 1.123 1.123 0 0 1-.441-.442 1.2 1.2 0 0 1 .448-1.638 1.21 1.21 0 0 1 .588-.154zm.003.235c-.165 0-.323.04-.474.123s-.27.201-.356.354c-.086.154-.131.316-.131.484s.043.327.128.48a.902.902 0 0 0 .355.354.953.953 0 0 0 .955 0 .904.904 0 0 0 .356-.354.971.971 0 0 0-.003-.964.9.9 0 0 0-.357-.354.982.982 0 0 0-.473-.123zm-.542 1.601v-1.269h.257c.241 0 .377.001.406.004a.448.448 0 0 1 .199.051.315.315 0 0 1 .119.121.363.363 0 0 1-.042.416.42.42 0 0 1-.252.121.317.317 0 0 1 .087.048c.022.017.051.05.087.098.01.012.039.063.094.155l.15.255h-.319l-.107-.206c-.071-.138-.13-.226-.178-.262a.294.294 0 0 0-.178-.054h-.067v.521h-.256v.001zm.256-.72h.104c.148 0 .242-.006.278-.018a.163.163 0 0 0 .116-.158c0-.036-.011-.067-.031-.096s-.049-.047-.086-.06a1.232 1.232 0 0 0-.277-.018h-.104v.35z"/><ellipse fill="#BFBFBF" cx="126.922" cy="78.065" rx="11.867" ry="11.867"/><path fill="#636363" d="M142.745 66.198c-3.094 0-5.825 1.151-7.911 3.094-.432.359-.792.79-1.223 1.222h2.373c.359.433.647.791.936 1.224h-4.172c-.216.431-.504.79-.648 1.222h5.539c.215.432.36.792.503 1.223h-6.545c-.144.432-.286.862-.359 1.223h7.265c.144.792.288 1.654.288 2.518a12.73 12.73 0 0 1-.576 3.739h-6.544c.144.431.286.863.503 1.224h5.538c-.217.431-.431.862-.648 1.222h-4.172c.289.433.576.864.937 1.224h2.374a10.02 10.02 0 0 1-1.223 1.223 11.59 11.59 0 0 0 7.91 3.092c6.4.288 11.723-5.034 11.723-11.579-.002-6.548-5.324-11.871-11.868-11.871z"/><path fill="#858B8C" d="M153.03 84.683c0-.216.144-.36.359-.36s.359.145.359.36-.145.359-.359.359c-.215 0-.359-.144-.359-.359zm.36.288c.143 0 .286-.146.286-.288 0-.144-.144-.288-.286-.288a.309.309 0 0 0-.288.288c0 .142.142.288.288.288zm0-.146h-.072v-.358h.215l.072.072c0 .071 0 .071-.072.071l.072.144h-.072l-.071-.144h-.071v.215h-.001zm0-.142h.071v-.072h-.143v.072h.072z"/><path fill="#FFF" d="M121.312 81.159h-1.294l.793-4.603-1.656 4.603h-.863l-.144-4.603-.791 4.603h-1.151l1.008-5.97h1.798l.072 3.739 1.222-3.739h2.013zm3.166-2.158h-.288c-.719 0-1.079.215-1.079.719 0 .288.216.503.431.503.575 0 .936-.503.936-1.222zm.934 2.158h-1.079v-.505c-.358.433-.792.575-1.365.575-.72 0-1.152-.575-1.152-1.365 0-1.224.864-1.87 2.231-1.87.143 0 .358 0 .503.071a.556.556 0 0 0 .07-.287c0-.36-.215-.432-.791-.432a4.4 4.4 0 0 0-1.365.216c0-.072.145-1.08.145-1.08.645-.215 1.078-.286 1.509-.286 1.079 0 1.655.503 1.655 1.438 0 .288-.073.575-.073.935-.001.72-.216 2.23-.288 2.59zm17.261-5.827l-.216 1.295c-.432-.216-.791-.359-1.15-.359-.936 0-1.655.936-1.655 2.229 0 .935.433 1.438 1.225 1.438.287 0 .646-.071 1.078-.287l-.217 1.365c-.503.216-.79.288-1.149.288-1.367 0-2.23-1.007-2.23-2.589 0-2.157 1.223-3.669 2.877-3.669.574.001 1.221.218 1.437.289zm2.086 3.669h-.288c-.719 0-1.078.215-1.078.719 0 .288.145.503.431.503.504 0 .863-.503.935-1.222zm.934 2.158h-1.078v-.505c-.359.433-.792.575-1.366.575-.72 0-1.152-.575-1.152-1.365 0-1.224.864-1.87 2.231-1.87.143 0 .358 0 .502.071.071-.144.071-.216.071-.287 0-.36-.215-.432-.791-.432a4.4 4.4 0 0 0-1.365.216c0-.072.144-1.08.144-1.08.648-.215 1.079-.286 1.51-.286 1.079 0 1.655.503 1.655 1.438 0 .288-.072.575-.072.935-.074.72-.289 2.23-.289 2.59zm-14.528-.072c-.358.143-.646.143-.935.143-.646 0-1.006-.358-1.006-1.079 0-.215.071-.789.143-1.294.072-.432.577-3.308.577-3.308h1.293l-.144.719h.647l-.145 1.15h-.72c-.143.935-.358 2.087-.358 2.23 0 .287.145.359.431.359.145 0 .288 0 .361-.072l-.144 1.152zm3.884 0a4.093 4.093 0 0 1-1.295.215c-1.438 0-2.157-.72-2.157-2.158 0-1.653.936-2.876 2.23-2.876 1.079 0 1.726.72 1.726 1.798 0 .359-.07.72-.144 1.224h-2.519c-.07.719.361 1.006 1.08 1.006.432 0 .863-.072 1.294-.287l-.215 1.078zm-.719-2.949c0-.072.144-.862-.576-.862-.431 0-.719.287-.791.862h1.367zm-8.127-.288c0 .647.288 1.078 1.007 1.366.503.216.575.289.575.576 0 .288-.215.431-.719.431-.36 0-.719-.072-1.151-.215 0 0-.143 1.079-.143 1.151.288.07.575.143 1.366.143 1.365 0 2.013-.503 2.013-1.653 0-.647-.286-1.08-.935-1.366-.504-.217-.575-.288-.575-.504 0-.288.217-.432.647-.432.288 0 .576 0 .936.071l.215-1.15c-.36-.071-.862-.071-1.15-.071-1.583-.001-2.086.718-2.086 1.653zm26.25 3.309h-1.222l.072-.433c-.36.36-.719.575-1.15.575-.936 0-1.584-.791-1.584-2.013 0-1.655.937-3.021 2.086-3.021.504 0 .863.215 1.222.647l.288-1.726h1.296l-1.008 5.971zm-1.868-1.079c.574 0 1.007-.648 1.007-1.655 0-.646-.217-.935-.648-.935-.576 0-1.007.647-1.007 1.653 0 .577.216.937.648.937zm-3.74-3.812c-.144 1.511-.431 3.021-.648 4.531l-.07.36h1.294c.432-3.021.574-3.597 1.294-3.525a6.31 6.31 0 0 1 .504-1.438c-.504-.145-.863.215-1.224.791 0-.217.073-.505.073-.72h-1.223zm-10.574 0c-.144 1.511-.432 3.021-.646 4.531l-.072.36h1.294c.434-3.021.576-3.597 1.295-3.525a6.36 6.36 0 0 1 .504-1.438c-.504-.145-.863.215-1.223.791 0-.217.071-.505.071-.72h-1.223zm16.759 4.531c0-.217.144-.36.359-.36s.359.144.359.36c0 .215-.145.36-.359.36-.215 0-.359-.145-.359-.36zm.36.288c.143 0 .286-.146.286-.288 0-.145-.144-.288-.286-.288a.308.308 0 0 0-.288.288c0 .142.142.288.288.288zm0-.146h-.072v-.359h.215l.072.072c0 .072 0 .072-.072.072l.072.145h-.072l-.071-.145h-.071v.215h-.001zm0-.142h.071v-.072h-.143v.072h.072z"/><path fill="#636363" d="M78.289 84.164l2.35-13.79h3.772l-2.349 13.79zm17.378-13.481a10.582 10.582 0 0 0-3.34-.557c-3.71 0-6.307 1.855-6.369 4.575 0 1.98 1.855 3.093 3.278 3.773 1.484.681 1.979 1.113 1.917 1.731 0 .929-1.175 1.36-2.226 1.36-1.484 0-2.288-.185-3.525-.742l-.495-.246-.557 3.091c.866.372 2.474.742 4.206.742 3.958 0 6.493-1.854 6.555-4.699 0-1.547-.989-2.783-3.154-3.772-1.298-.618-2.103-1.052-2.103-1.732 0-.556.68-1.175 2.165-1.175 1.236 0 2.103.248 2.782.557l.31.187.556-3.093zm9.647-.309h-2.907c-.928 0-1.545.247-1.979 1.112l-5.566 12.616h3.958s.62-1.67.805-2.042h4.823c.124.496.433 2.042.433 2.042h3.464l-3.031-13.728zm-4.639 8.905c.31-.805 1.484-3.835 1.484-3.835 0 .062.31-.804.495-1.299l.247 1.176s.742 3.277.866 3.958h-3.092zm-25.54-8.905l-3.648 9.399-.371-1.917c-.865-2.288-2.659-4.268-5.194-5.689l3.339 11.997h3.958l5.937-13.729h-4.021v-.061z"/><path fill="#BFBFBF" d="M68.085 70.374h-6.06l-.062.309c4.7 1.113 7.854 3.896 9.091 7.235l-1.298-6.37c-.186-.865-.867-1.174-1.671-1.174"/><g fill="#696B6B"><path d="M191.454 59.799c-.87 0-1.543-.268-2.021-.803-.477-.535-.715-1.293-.715-2.273 0-1.005.242-1.782.727-2.33s1.174-.823 2.069-.823c.289 0 .577.031.866.093.289.062.516.135.68.219l-.279.773a4.202 4.202 0 0 0-.658-.2 2.93 2.93 0 0 0-.63-.08c-1.222 0-1.832.778-1.832 2.336 0 .738.149 1.305.447 1.7s.739.592 1.324.592a4.04 4.04 0 0 0 1.541-.323v.806c-.402.209-.909.313-1.519.313zm5.966-.11l-.181-.855h-.044c-.3.377-.599.632-.896.765-.298.134-.67.2-1.115.2-.597 0-1.063-.153-1.401-.46-.338-.308-.507-.744-.507-1.311 0-1.214.971-1.85 2.911-1.908l1.02-.033v-.373c0-.472-.101-.82-.304-1.044-.203-.225-.527-.337-.974-.337-.501 0-1.067.154-1.699.46l-.28-.696a4.27 4.27 0 0 1 .974-.378 4.232 4.232 0 0 1 1.061-.137c.717 0 1.248.159 1.593.477.346.318.519.828.519 1.53v4.101h-.677zm-2.056-.641c.566 0 1.012-.155 1.335-.466s.485-.746.485-1.305v-.543l-.91.039c-.724.026-1.246.138-1.565.337-.32.199-.479.509-.479.929 0 .329.1.58.299.751.199.172.477.258.835.258zm6.673-5.478c.268 0 .507.022.719.066l-.126.844a3.092 3.092 0 0 0-.658-.082c-.486 0-.902.197-1.247.592-.346.395-.519.886-.519 1.475v3.224h-.91V53.68h.751l.104 1.113h.044c.223-.391.491-.692.806-.904.314-.213.66-.319 1.036-.319z"/><path d="M205.147 59.048a3.087 3.087 0 0 0 .822-.109v.696a1.645 1.645 0 0 1-.436.118c-.192.03-.365.046-.519.046-1.162 0-1.743-.612-1.743-1.836v-3.575h-.861v-.438l.861-.378.384-1.283h.526v1.393h1.743v.707h-1.743v3.537c0 .361.085.64.257.834.173.191.41.288.709.288zm6.538-2.369c0 .98-.247 1.745-.74 2.294-.494.551-1.176.825-2.046.825-.537 0-1.014-.126-1.431-.378s-.738-.614-.965-1.086c-.227-.471-.34-1.023-.34-1.656 0-.979.244-1.743.734-2.289s1.17-.82 2.04-.82c.841 0 1.509.28 2.004.839.496.561.744 1.317.744 2.271zm-1.914-3.805c-.157 0-.311-.034-.461-.102a5.229 5.229 0 0 1-.441-.225 10.524 10.524 0 0 0-.416-.225.854.854 0 0 0-.387-.102c-.183 0-.321.055-.414.165-.093.109-.165.276-.217.499h-.537c.048-.442.177-.789.387-1.039s.481-.375.814-.375c.168 0 .33.034.487.101.157.068.308.143.45.225.143.082.279.157.411.225a.817.817 0 0 0 .373.102c.179 0 .312-.054.399-.162.088-.108.159-.275.214-.502h.543c-.047.442-.175.789-.381 1.039s-.481.376-.824.376zm-2.666 3.805c0 .768.154 1.352.461 1.754s.759.604 1.354.604 1.048-.2 1.356-.601c.31-.4.464-.986.464-1.757 0-.764-.154-1.344-.464-1.741-.309-.396-.765-.595-1.367-.595-.597 0-1.046.195-1.35.586-.301.392-.454.975-.454 1.75zm8.04 3.12c-.889 0-1.59-.271-2.103-.812-.514-.54-.771-1.292-.771-2.253 0-.968.238-1.738.715-2.308.478-.57 1.118-.855 1.922-.855.753 0 1.349.248 1.788.743.438.495.657 1.148.657 1.96v.576h-4.14c.019.706.197 1.241.535 1.606.338.366.814.549 1.428.549.647 0 1.287-.135 1.92-.406v.812a4.891 4.891 0 0 1-.913.299 5.232 5.232 0 0 1-1.038.089zm-.248-5.466c-.482 0-.867.157-1.154.472s-.456.75-.507 1.305h3.142c0-.574-.128-1.013-.384-1.318s-.621-.459-1.097-.459zm7.211 3.717c0 .56-.209.991-.625 1.294-.417.304-1.002.455-1.755.455-.797 0-1.418-.126-1.864-.378v-.845c.289.146.599.262.93.346.33.084.649.126.956.126.476 0 .841-.076 1.097-.228s.384-.383.384-.693c0-.234-.102-.434-.304-.601-.203-.166-.599-.363-1.188-.589-.56-.208-.957-.39-1.192-.545s-.411-.332-.526-.529-.173-.433-.173-.708c0-.49.199-.876.598-1.159.398-.284.945-.425 1.64-.425.646 0 1.279.132 1.897.395l-.324.74c-.603-.249-1.149-.373-1.639-.373-.432 0-.757.068-.977.203-.219.135-.329.321-.329.559 0 .161.041.298.124.411.082.113.214.221.397.324.183.102.533.25 1.053.444.713.26 1.194.521 1.444.784s.376.594.376.992z"/></g><path fill="#696B6B" d="M163.183 81.374c-.949 0-1.698-.289-2.247-.867s-.823-1.381-.823-2.408c0-1.035.255-1.857.765-2.467s1.194-.914 2.054-.914c.805 0 1.441.265 1.91.794s.703 1.228.703 2.095v.615h-4.424c.02.754.21 1.326.571 1.717s.87.586 1.526.586c.691 0 1.375-.145 2.051-.434v.867c-.344.148-.669.255-.976.319s-.677.097-1.11.097zm-.264-5.842c-.516 0-.927.168-1.233.504s-.487.801-.542 1.395h3.357c0-.613-.137-1.083-.41-1.409s-.664-.49-1.172-.49z"/></svg>