<svg xmlns="http://www.w3.org/2000/svg" width="230" height="115" viewBox="0 0 230 115"><path d="M67.566 27.896c-.435-.317-.853-.535-1.421-.535-.92 0-1.488.753-1.488 1.623 0 .552.134.937.468 1.371l1.271 1.388c1.137 1.154 1.789 1.99 1.789 3.696 0 1.773-1.104 3.294-2.96 3.294-.652 0-1.321-.184-1.839-.602v-1.689c.501.368 1.003.652 1.656.652 1.037 0 1.472-.819 1.472-1.756 0-2.509-3.529-3.01-3.529-6.322 0-1.772.937-3.228 2.826-3.228.635 0 1.238.1 1.773.418l-.018 1.69zm6.541-1.94v1.455H71.28v3.963h2.525v1.455H71.28v4.281h2.827v1.455h-4.499V25.956h4.499zm2.979 0v9.248c0 1.622.485 1.957 1.171 1.957 1.154 0 1.254-.736 1.271-1.773v-9.432H81.2v8.947c0 1.656.017 3.83-2.894 3.83-2.659 0-2.893-1.806-2.893-4.08v-8.696h1.673zm9.57 12.609V25.956h2.007c1.438 0 3.278.134 3.278 3.378 0 2.559-1.003 3.746-3.612 3.646v5.586h-1.673zm1.673-11.188v4.181c1.438.101 1.84-.686 1.84-2.09 0-1.137-.334-2.09-1.605-2.09h-.235zm9.317-1.421v1.455H94.82v3.963h2.525v1.455H94.82v4.281h2.827v1.455h-4.499V25.956h4.498zm3.18 0c1.974 0 4.214.134 4.214 6.522 0 5.82-1.94 6.087-4.934 6.087h-1.154V25.956h1.874zm-.201 1.421v9.767c2.76.083 2.643-2.525 2.643-4.666 0-1.94.183-5.268-2.643-5.101zm7.796 11.188h-1.672V25.956h1.672v12.609zm3.915-12.609c1.974 0 4.215.134 4.215 6.522 0 5.82-1.94 6.087-4.934 6.087h-1.154V25.956h1.873zm-.201 1.421v9.767c2.759.083 2.643-2.525 2.643-4.666 0-1.94.184-5.268-2.643-5.101zm12.362 4.884c0 2.274-.033 6.472-3.277 6.472-3.245 0-3.278-4.197-3.278-6.472s.033-6.472 3.278-6.472c3.244 0 3.277 4.197 3.277 6.472zm-4.782 0c0 2.676.184 4.9 1.505 4.9s1.505-2.224 1.505-4.9-.184-4.9-1.505-4.9-1.505 2.224-1.505 4.9zm11.504 6.304V25.956h1.891c.435 0 5.652-.636 5.652 6.405 0 3.596-1.389 6.205-5.318 6.205h-2.225zm5.051-6.221c0-1.605-.502-4.147-2.559-4.147v8.127c2.007.101 2.559-2.408 2.559-3.98zm6.308-6.388v12.609h-2.492V25.956h2.492zm6.959 2.843c-.502-.435-1.121-.803-1.807-.803-.77 0-1.254.468-1.254 1.237 0 2.074 3.797 2.191 3.797 5.603 0 2.241-1.288 3.93-3.63 3.93-.702 0-1.571-.217-2.141-.635v-2.375c.585.401 1.154.669 1.89.669.803 0 1.438-.535 1.438-1.371 0-.97-.769-1.338-1.472-1.84-1.438-.97-2.324-1.906-2.324-3.746 0-1.99 1.154-3.713 3.295-3.713.803 0 1.521.218 2.207.619v2.425zm8.465-.468a3.644 3.644 0 0 0-.937-.134c-2.19 0-3.144 1.99-3.144 3.93 0 1.873.953 4.181 3.127 4.181.318 0 .636-.083.953-.184v2.358c-.367.15-.752.217-1.154.217-3.596 0-5.585-3.244-5.585-6.556 0-3.127 2.073-6.338 5.468-6.338.436 0 .854.083 1.271.234v2.292zm1.273 10.234V25.956h2.51c1.588 0 4.432.167 4.432 3.612 0 1.388-.553 2.575-1.79 3.261l2.19 5.736h-2.625l-2.191-5.82h-.033v5.82h-2.493zm2.493-7.191l.436.017c1.137 0 1.588-.77 1.588-1.806 0-.903-.435-1.639-1.688-1.572h-.335v3.361zm11.392-5.418v2.341h-2.525v2.743h2.225v2.341h-2.225v2.843h2.559v2.341h-5.051V25.956h5.017zm7.328 0v2.341h-1.975v10.269h-2.491V28.297h-1.956v-2.341h6.422zm9.552 6.305c0 4.732-2.208 6.505-4.433 6.505-2.224 0-4.432-1.773-4.432-6.505 0-4.733 2.208-6.506 4.432-6.506 2.225 0 4.433 1.773 4.433 6.506zm-4.433 4.197c1.656 0 1.773-3.194 1.773-4.197 0-1.121-.117-4.198-1.773-4.198-1.655 0-1.772 3.077-1.772 4.198 0 1.003.117 4.197 1.772 4.197zM71.613 55.325c0 1.371-.347 2.449-1.04 3.234s-1.657 1.178-2.892 1.178c-1.262 0-2.235-.386-2.921-1.157s-1.028-1.86-1.028-3.267c0-1.395.344-2.476 1.031-3.243s1.664-1.151 2.93-1.151c1.23 0 2.191.391 2.883 1.172s1.037 1.859 1.037 3.234zm-6.826 0c0 1.16.247 2.04.741 2.64s1.212.899 2.153.899c.949 0 1.666-.299 2.15-.896s.727-1.479.727-2.643c0-1.152-.241-2.026-.724-2.622s-1.196-.894-2.142-.894c-.949 0-1.671.3-2.165.899s-.74 1.473-.74 2.617zm13.673 4.412c-.93 0-1.649-.286-2.159-.858s-.765-1.382-.765-2.429c0-1.074.259-1.904.776-2.49s1.255-.879 2.212-.879c.309 0 .617.033.926.1s.551.145.727.234l-.299.826c-.215-.086-.449-.157-.703-.214s-.479-.085-.674-.085c-1.305 0-1.957.832-1.957 2.496 0 .789.159 1.395.478 1.816s.79.633 1.415.633c.535 0 1.084-.115 1.646-.346v.861c-.429.224-.97.335-1.623.335zm3.761-6.539v4.166c0 .523.119.914.357 1.172s.611.387 1.119.387c.672 0 1.163-.184 1.474-.551s.466-.967.466-1.799v-3.375h.973v6.422h-.803l-.141-.861h-.053c-.199.316-.476.559-.829.727s-.757.252-1.21.252c-.781 0-1.366-.186-1.755-.557s-.583-.965-.583-1.781v-4.201h.985zm6.069-1.74c0-.223.055-.386.164-.489s.246-.155.41-.155c.156 0 .291.053.404.158s.17.268.17.486-.057.382-.17.489-.248.161-.404.161c-.164 0-.301-.054-.41-.161s-.164-.27-.164-.489zm1.055 8.162h-.973v-6.422h.973v6.422zm6.134-.861h-.053c-.449.652-1.121.979-2.016.979-.84 0-1.493-.287-1.96-.861s-.7-1.391-.7-2.449.234-1.881.703-2.467 1.121-.879 1.957-.879c.871 0 1.539.316 2.004.949h.076l-.041-.463-.023-.451v-2.613h.973v9.117h-.791l-.129-.862zm-1.946.164c.664 0 1.146-.181 1.444-.542s.448-.944.448-1.749v-.205c0-.91-.151-1.56-.454-1.948s-.786-.583-1.45-.583c-.57 0-1.007.222-1.31.665s-.454 1.069-.454 1.878c0 .82.15 1.439.451 1.857s.743.627 1.325.627zm8.577.697l-.193-.914h-.047c-.32.402-.64.675-.958.817s-.716.214-1.192.214c-.637 0-1.136-.164-1.497-.492s-.542-.795-.542-1.4c0-1.297 1.037-1.977 3.111-2.039l1.09-.035v-.398c0-.504-.108-.876-.325-1.116s-.563-.36-1.04-.36c-.535 0-1.141.164-1.816.492l-.299-.744c.316-.172.663-.307 1.04-.404s.755-.146 1.134-.146c.766 0 1.333.17 1.702.51s.554.885.554 1.635v4.383h-.722zm-2.197-.685c.605 0 1.081-.166 1.427-.498s.519-.797.519-1.395v-.58l-.973.041c-.773.027-1.331.147-1.673.36s-.513.544-.513.993c0 .352.106.619.319.803s.511.276.894.276zm8.993-.176h-.053c-.449.652-1.121.979-2.016.979-.84 0-1.493-.287-1.96-.861s-.7-1.391-.7-2.449.234-1.881.703-2.467 1.121-.879 1.957-.879c.871 0 1.539.316 2.004.949h.076l-.041-.463-.023-.451v-2.613h.973v9.117h-.792l-.128-.862zm-1.946.164c.664 0 1.146-.181 1.444-.542s.448-.944.448-1.749v-.205c0-.91-.151-1.56-.454-1.948s-.786-.583-1.45-.583c-.57 0-1.007.222-1.31.665s-.454 1.069-.454 1.878c0 .82.15 1.439.451 1.857s.743.627 1.325.627zm10.171-2.52c0 1.047-.264 1.864-.791 2.452s-1.256.882-2.186.882c-.574 0-1.084-.135-1.529-.404s-.789-.656-1.031-1.16-.363-1.094-.363-1.77c0-1.047.262-1.862.785-2.446s1.25-.876 2.18-.876c.898 0 1.612.299 2.142.896s.793 1.407.793 2.426zm-4.893 0c0 .82.164 1.445.492 1.875s.811.645 1.447.645 1.12-.214 1.45-.642.495-1.054.495-1.878c0-.816-.165-1.437-.495-1.86s-.817-.636-1.462-.636c-.637 0-1.117.209-1.441.627s-.486 1.041-.486 1.869zm11.828 3.334c-.949 0-1.698-.289-2.247-.867s-.823-1.381-.823-2.408c0-1.035.255-1.857.765-2.467s1.194-.914 2.054-.914c.805 0 1.441.265 1.91.794s.703 1.228.703 2.095v.615h-4.424c.02.754.21 1.326.571 1.717s.87.586 1.526.586c.691 0 1.375-.145 2.051-.434v.867c-.344.148-.669.255-.976.319s-.676.097-1.11.097zm-.263-5.841c-.516 0-.927.168-1.233.504s-.487.801-.542 1.395h3.357c0-.613-.137-1.083-.41-1.409s-.664-.49-1.172-.49zm11.172 4.863h-.053c-.449.652-1.121.979-2.016.979-.84 0-1.493-.287-1.96-.861s-.7-1.391-.7-2.449.234-1.881.703-2.467 1.121-.879 1.957-.879c.871 0 1.539.316 2.004.949h.076l-.041-.463-.023-.451v-2.613h.973v9.117h-.791l-.129-.862zm-1.946.164c.664 0 1.146-.181 1.444-.542s.448-.944.448-1.749v-.205c0-.91-.151-1.56-.454-1.948s-.786-.583-1.45-.583c-.57 0-1.007.222-1.31.665s-.454 1.069-.454 1.878c0 .82.15 1.439.451 1.857s.743.627 1.325.627zm7.34.814c-.949 0-1.698-.289-2.247-.867s-.823-1.381-.823-2.408c0-1.035.255-1.857.765-2.467s1.194-.914 2.054-.914c.805 0 1.441.265 1.91.794s.703 1.228.703 2.095v.615h-4.424c.02.754.21 1.326.571 1.717s.87.586 1.526.586c.691 0 1.375-.145 2.051-.434v.867c-.344.148-.669.255-.976.319s-.676.097-1.11.097zm-.264-5.841c-.516 0-.927.168-1.233.504s-.487.801-.542 1.395h3.357c0-.613-.137-1.083-.41-1.409s-.664-.49-1.172-.49zm8.126 3.972c0 .598-.223 1.059-.668 1.383s-1.07.486-1.875.486c-.852 0-1.516-.135-1.992-.404v-.902c.309.156.64.279.993.369s.694.135 1.022.135c.508 0 .898-.081 1.172-.243s.41-.409.41-.741c0-.25-.108-.464-.325-.642s-.64-.388-1.269-.63c-.598-.223-1.022-.417-1.274-.583s-.439-.354-.562-.565-.185-.463-.185-.756c0-.523.213-.937.639-1.239s1.01-.454 1.752-.454a5.13 5.13 0 0 1 2.027.422l-.346.791c-.645-.266-1.229-.398-1.752-.398-.461 0-.809.072-1.043.217s-.352.344-.352.598c0 .172.044.318.132.439s.229.236.425.346.57.268 1.125.475c.762.277 1.276.557 1.544.838s.402.632.402 1.058zm3.849 1.869c-.93 0-1.649-.286-2.159-.858s-.765-1.382-.765-2.429c0-1.074.259-1.904.776-2.49s1.255-.879 2.212-.879c.309 0 .617.033.926.1s.551.145.727.234l-.299.826c-.215-.086-.449-.157-.703-.214s-.479-.085-.674-.085c-1.305 0-1.957.832-1.957 2.496 0 .789.159 1.395.478 1.816s.79.633 1.415.633c.535 0 1.084-.115 1.646-.346v.861c-.43.224-.971.335-1.623.335zm5.776-6.656c.285 0 .541.023.768.07l-.135.902a3.29 3.29 0 0 0-.703-.088c-.52 0-.964.211-1.333.633s-.554.947-.554 1.576v3.445h-.973v-6.422h.803l.111 1.189h.047c.238-.418.525-.74.861-.967s.706-.338 1.108-.338zm1.587-1.623c0-.223.055-.386.164-.489s.246-.155.41-.155c.156 0 .291.053.404.158s.17.268.17.486-.057.382-.17.489-.248.161-.404.161c-.164 0-.301-.054-.41-.161s-.164-.27-.164-.489zm1.055 8.162h-.973v-6.422h.973v6.422zm4.328.117c-.93 0-1.649-.286-2.159-.858s-.765-1.382-.765-2.429c0-1.074.259-1.904.776-2.49s1.255-.879 2.212-.879c.309 0 .617.033.926.1s.551.145.727.234l-.299.826c-.215-.086-.449-.157-.703-.214s-.479-.085-.674-.085c-1.305 0-1.957.832-1.957 2.496 0 .789.159 1.395.478 1.816s.79.633 1.415.633c.535 0 1.084-.115 1.646-.346v.861c-.429.224-.97.335-1.623.335zm.867 1.576c0 .379-.149.672-.448.879s-.741.311-1.327.311c-.199 0-.387-.018-.562-.053v-.621c.176.031.379.047.609.047.309 0 .542-.039.7-.117s.237-.223.237-.434c0-.168-.077-.304-.231-.407s-.444-.188-.87-.255l.516-1.043h.645l-.322.674c.702.152 1.053.492 1.053 1.019zm5.929-1.693l-.193-.914h-.047c-.32.402-.64.675-.958.817s-.716.214-1.192.214c-.637 0-1.136-.164-1.497-.492s-.542-.795-.542-1.4c0-1.297 1.037-1.977 3.111-2.039l1.09-.035v-.398c0-.504-.108-.876-.325-1.116s-.563-.36-1.04-.36c-.535 0-1.141.164-1.816.492l-.299-.744c.316-.172.663-.307 1.04-.404s.755-.146 1.134-.146c.766 0 1.333.17 1.702.51s.554.885.554 1.635v4.383h-.722zm-.756-7.283c-.168 0-.332-.036-.492-.108s-.317-.152-.472-.24-.303-.168-.445-.24-.28-.108-.413-.108c-.195 0-.343.059-.442.176s-.177.295-.231.533h-.574c.051-.473.188-.843.413-1.11s.515-.401.87-.401c.18 0 .354.036.521.108s.328.152.48.24.299.168.439.24.273.108.398.108c.191 0 .334-.058.428-.173s.17-.294.229-.536h.58c-.051.473-.187.843-.407 1.11s-.515.401-.882.401zm-1.441 6.598c.605 0 1.081-.166 1.427-.498s.519-.797.519-1.395v-.58l-.973.041c-.773.027-1.331.147-1.673.36s-.513.544-.513.993c0 .352.106.619.319.803s.511.276.894.276zm10.165-2.532c0 1.047-.264 1.864-.791 2.452s-1.256.882-2.186.882c-.574 0-1.084-.135-1.529-.404s-.789-.656-1.031-1.16-.363-1.094-.363-1.77c0-1.047.262-1.862.785-2.446s1.25-.876 2.18-.876c.898 0 1.612.299 2.142.896s.793 1.407.793 2.426zm-4.893 0c0 .82.164 1.445.492 1.875s.811.645 1.447.645 1.12-.214 1.45-.642.495-1.054.495-1.878c0-.816-.165-1.437-.495-1.86s-.817-.636-1.462-.636c-.637 0-1.117.209-1.441.627s-.486 1.041-.486 1.869zm13.487 2.356h-.053c-.449.652-1.121.979-2.016.979-.84 0-1.493-.287-1.96-.861s-.7-1.391-.7-2.449.234-1.881.703-2.467 1.121-.879 1.957-.879c.871 0 1.539.316 2.004.949h.076l-.041-.463-.023-.451v-2.613h.973v9.117h-.791l-.129-.862zm-1.946.164c.664 0 1.146-.181 1.444-.542s.448-.944.448-1.749v-.205c0-.91-.151-1.56-.454-1.948s-.786-.583-1.45-.583c-.57 0-1.007.222-1.31.665s-.454 1.069-.454 1.878c0 .82.15 1.439.451 1.857s.743.627 1.325.627zm7.34.814c-.949 0-1.698-.289-2.247-.867s-.823-1.381-.823-2.408c0-1.035.255-1.857.765-2.467s1.194-.914 2.054-.914c.805 0 1.441.265 1.91.794s.703 1.228.703 2.095v.615h-4.424c.02.754.21 1.326.571 1.717s.87.586 1.526.586c.691 0 1.375-.145 2.051-.434v.867c-.344.148-.669.255-.976.319s-.676.097-1.11.097zm-.264-5.841c-.516 0-.927.168-1.233.504s-.487.801-.542 1.395h3.357c0-.613-.137-1.083-.41-1.409s-.664-.49-1.172-.49zm-125.14 17.6c0 .598-.223 1.059-.668 1.383s-1.07.486-1.875.486c-.852 0-1.516-.135-1.992-.404v-.902c.309.156.64.279.993.369s.694.135 1.022.135c.508 0 .898-.081 1.172-.243s.41-.409.41-.741c0-.25-.108-.464-.325-.642s-.64-.388-1.269-.63c-.598-.223-1.022-.417-1.274-.583s-.439-.354-.562-.565-.185-.463-.185-.756c0-.523.213-.937.639-1.239s1.01-.454 1.752-.454a5.13 5.13 0 0 1 2.027.422l-.346.791c-.645-.266-1.229-.398-1.752-.398-.461 0-.809.072-1.043.217s-.352.344-.352.598c0 .172.044.318.132.439s.229.236.425.346.57.268 1.125.475c.762.277 1.276.557 1.544.838s.402.632.402 1.058zm3.995 1.869c-.949 0-1.698-.289-2.247-.867s-.823-1.381-.823-2.408c0-1.035.255-1.857.765-2.467s1.194-.914 2.054-.914c.805 0 1.441.265 1.91.794s.703 1.228.703 2.095v.615h-4.424c.02.754.21 1.326.571 1.717s.87.586 1.526.586c.691 0 1.375-.145 2.051-.434v.867c-.344.148-.669.255-.976.319s-.676.097-1.11.097zm-.264-5.842c-.516 0-.927.168-1.233.504s-.487.801-.542 1.395h3.357c0-.613-.137-1.083-.41-1.409s-.664-.49-1.172-.49zm4.897-.697v4.166c0 .523.119.914.357 1.172s.611.387 1.119.387c.672 0 1.163-.184 1.474-.551s.466-.967.466-1.799v-3.375h.973v6.422h-.803l-.141-.861h-.053c-.199.316-.476.559-.829.727s-.757.252-1.21.252c-.781 0-1.366-.186-1.755-.557s-.583-.965-.583-1.781v-4.201h.985zm11.957 6.539c-.418 0-.8-.077-1.146-.231s-.636-.392-.87-.712h-.07c.047.375.07.73.07 1.066v2.643h-.973v-9.305h.791l.135.879h.047c.25-.352.541-.605.873-.762s.713-.234 1.143-.234c.852 0 1.509.291 1.972.873s.694 1.398.694 2.449c0 1.055-.235 1.874-.706 2.458s-1.124.876-1.96.876zm-.141-5.83c-.656 0-1.131.182-1.424.545s-.443.941-.451 1.734v.217c0 .902.15 1.548.451 1.937s.783.583 1.447.583c.555 0 .989-.225 1.304-.674s.472-1.068.472-1.857c0-.801-.157-1.415-.472-1.843s-.757-.642-1.327-.642zm6.919 5.83c-.949 0-1.698-.289-2.247-.867s-.823-1.381-.823-2.408c0-1.035.255-1.857.765-2.467s1.194-.914 2.054-.914c.805 0 1.441.265 1.91.794s.703 1.228.703 2.095v.615h-4.424c.02.754.21 1.326.571 1.717s.87.586 1.526.586c.691 0 1.375-.145 2.051-.434v.867c-.344.148-.669.255-.976.319s-.676.097-1.11.097zm-.264-5.842c-.516 0-.927.168-1.233.504s-.487.801-.542 1.395h3.357c0-.613-.137-1.083-.41-1.409s-.664-.49-1.172-.49zm8.355 4.864h-.053c-.449.652-1.121.979-2.016.979-.84 0-1.493-.287-1.96-.861s-.7-1.391-.7-2.449.234-1.881.703-2.467 1.121-.879 1.957-.879c.871 0 1.539.316 2.004.949h.076l-.041-.463-.023-.451v-2.613h.973v9.117h-.791l-.129-.862zm-1.945.164c.664 0 1.146-.181 1.444-.542s.448-.944.448-1.749v-.205c0-.91-.151-1.56-.454-1.948s-.786-.583-1.45-.583c-.57 0-1.007.222-1.31.665s-.454 1.069-.454 1.878c0 .82.15 1.439.451 1.857s.743.627 1.325.627zm4.545-7.465c0-.223.055-.386.164-.489s.246-.155.41-.155c.156 0 .291.053.404.158s.17.268.17.486-.057.382-.17.489-.248.161-.404.161c-.164 0-.301-.054-.41-.161s-.164-.27-.164-.489zm1.055 8.162h-.973v-6.422h.973v6.422zm6.133-.861h-.053c-.449.652-1.121.979-2.016.979-.84 0-1.492-.287-1.959-.861-.467-.574-.7-1.391-.7-2.449s.234-1.881.703-2.467c.468-.586 1.121-.879 1.957-.879.871 0 1.539.316 2.004.949h.076l-.041-.463-.023-.451v-2.613h.973v9.117h-.791l-.13-.862zm-1.945.164c.664 0 1.146-.181 1.445-.542s.447-.944.447-1.749v-.205c0-.91-.15-1.56-.453-1.948s-.787-.583-1.451-.583c-.57 0-1.006.222-1.309.665s-.455 1.069-.455 1.878c0 .82.15 1.439.451 1.857s.743.627 1.325.627zm10.171-2.52c0 1.047-.264 1.864-.791 2.452s-1.256.882-2.186.882c-.574 0-1.084-.135-1.529-.404s-.789-.656-1.031-1.16-.363-1.094-.363-1.77c0-1.047.262-1.862.785-2.446s1.25-.876 2.18-.876c.898 0 1.612.299 2.142.896s.793 1.407.793 2.426zm-4.893 0c0 .82.164 1.445.492 1.875s.811.645 1.447.645 1.12-.214 1.45-.642.495-1.054.495-1.878c0-.816-.165-1.437-.495-1.86s-.817-.636-1.462-.636c-.637 0-1.117.209-1.441.627s-.486 1.041-.486 1.869zm12.93-4.582c-.941 0-1.685.313-2.229.94s-.817 1.485-.817 2.575c0 1.121.263 1.987.788 2.599s1.274.917 2.247.917c.598 0 1.279-.107 2.045-.322v.873c-.594.223-1.326.334-2.197.334-1.262 0-2.235-.383-2.921-1.148s-1.028-1.854-1.028-3.264c0-.883.165-1.656.495-2.32s.807-1.176 1.43-1.535 1.356-.539 2.2-.539c.898 0 1.684.164 2.355.492l-.422.855c-.649-.304-1.298-.457-1.946-.457zm11.038 3.504c0 1.371-.347 2.449-1.04 3.234s-1.657 1.178-2.892 1.178c-1.262 0-2.235-.386-2.921-1.157s-1.028-1.86-1.028-3.267c0-1.395.344-2.476 1.031-3.243s1.664-1.151 2.93-1.151c1.23 0 2.191.391 2.883 1.172s1.037 1.859 1.037 3.234zm-6.826 0c0 1.16.247 2.04.741 2.64s1.212.899 2.153.899c.949 0 1.666-.299 2.15-.896s.727-1.479.727-2.643c0-1.152-.241-2.026-.724-2.622s-1.196-.894-2.142-.894c-.949 0-1.671.3-2.165.899s-.74 1.473-.74 2.617zm15.127 4.295h-1.137l-4.682-7.189h-.047c.062.844.094 1.617.094 2.32v4.869h-.92v-8.566h1.125l4.67 7.16h.047c-.008-.105-.025-.444-.053-1.017s-.037-.981-.029-1.228v-4.916h.932v8.567zm4.692 0h-.996v-7.682h-2.713v-.885h6.422v.885h-2.713v7.682zm3.702 0v-8.566h.996v8.566h-.996zm9.737 0h-1.137l-4.682-7.189h-.047c.062.844.094 1.617.094 2.32v4.869h-.92v-8.566h1.125l4.67 7.16h.047c-.008-.105-.025-.444-.053-1.017s-.037-.981-.029-1.228v-4.916h.932v8.567zm8.525-8.566v5.543c0 .977-.295 1.744-.885 2.303s-1.4.838-2.432.838-1.829-.281-2.394-.844-.847-1.336-.847-2.32v-5.52h.996v5.59c0 .715.195 1.264.586 1.646s.965.574 1.723.574c.723 0 1.279-.192 1.67-.577s.586-.937.586-1.655v-5.578h.997zm7.351 8.566l-1.066-2.725h-3.434l-1.055 2.725h-1.008l3.387-8.602h.838l3.369 8.602h-1.031zm-1.377-3.621l-.996-2.654a13.983 13.983 0 0 1-.398-1.236c-.086.375-.209.787-.369 1.236l-1.008 2.654h2.771zm7.078 3.621l-2.906-7.594h-.047c.055.602.082 1.316.082 2.145v5.449h-.92v-8.566h1.5l2.713 7.066h.047l2.736-7.066h1.488v8.566h-.996v-5.52c0-.633.027-1.32.082-2.062h-.047l-2.93 7.582h-.802zM67.98 86.876l-.193-.914h-.047c-.32.402-.64.675-.958.817s-.716.214-1.192.214c-.637 0-1.136-.164-1.497-.492s-.542-.795-.542-1.4c0-1.297 1.037-1.977 3.111-2.039l1.09-.035v-.398c0-.504-.108-.876-.325-1.116s-.563-.36-1.04-.36c-.535 0-1.141.164-1.816.492l-.299-.744c.316-.172.663-.307 1.04-.404s.755-.146 1.134-.146c.766 0 1.333.17 1.702.51s.554.885.554 1.635v4.383h-.722zm-2.197-.686c.605 0 1.081-.166 1.427-.498s.519-.797.519-1.395v-.58l-.973.041c-.773.027-1.331.147-1.673.36s-.513.544-.513.993c0 .352.106.619.319.803s.511.276.894.276zm6.696 0c.172 0 .338-.013.498-.038s.287-.052.381-.079v.744c-.105.051-.261.093-.466.126s-.39.05-.554.05c-1.242 0-1.863-.654-1.863-1.963v-3.82h-.92v-.469l.92-.404.41-1.371h.562v1.488h1.863v.756h-1.863v3.779c0 .387.092.684.275.891s.437.31.757.31zm4.575.803c-.949 0-1.698-.289-2.247-.867s-.823-1.381-.823-2.408c0-1.035.255-1.857.765-2.467s1.194-.914 2.054-.914c.805 0 1.441.265 1.91.794s.703 1.228.703 2.095v.615h-4.424c.02.754.21 1.326.571 1.717s.87.586 1.526.586c.691 0 1.375-.145 2.051-.434v.867c-.344.148-.669.255-.976.319s-.676.097-1.11.097zm-.263-5.842c-.516 0-.927.168-1.233.504s-.487.801-.542 1.395h3.357c0-.613-.137-1.083-.41-1.409s-.665-.49-1.172-.49zm-.721-1.693c.188-.242.39-.535.606-.879s.388-.643.513-.896h1.184v.123c-.172.254-.428.566-.768.938s-.635.658-.885.861h-.65v-.147zm11.892 6.557h-.053c-.449.652-1.121.979-2.016.979-.84 0-1.493-.287-1.96-.861s-.7-1.391-.7-2.449.234-1.881.703-2.467 1.121-.879 1.957-.879c.871 0 1.539.316 2.004.949h.076l-.041-.463-.023-.451V77.76h.973v9.117h-.791l-.129-.862zm-1.945.164c.664 0 1.146-.181 1.444-.542s.448-.944.448-1.749v-.205c0-.91-.151-1.56-.454-1.948s-.786-.583-1.45-.583c-.57 0-1.007.222-1.31.665s-.454 1.069-.454 1.878c0 .82.15 1.439.451 1.857s.743.627 1.325.627zm7.34.814c-.949 0-1.698-.289-2.247-.867s-.823-1.381-.823-2.408c0-1.035.255-1.857.765-2.467s1.194-.914 2.054-.914c.805 0 1.441.265 1.91.794s.703 1.228.703 2.095v.615h-4.424c.02.754.21 1.326.571 1.717s.87.586 1.526.586c.691 0 1.375-.145 2.051-.434v.867c-.344.148-.669.255-.976.319s-.676.097-1.11.097zm-.263-5.842c-.516 0-.927.168-1.233.504s-.487.801-.542 1.395h3.357c0-.613-.137-1.083-.41-1.409s-.664-.49-1.172-.49zm8.378 5.725v-4.154c0-.523-.119-.914-.357-1.172s-.611-.387-1.119-.387c-.672 0-1.164.182-1.477.545s-.469.963-.469 1.799v3.369h-.973v-6.422h.791l.158.879h.047c.199-.316.479-.562.838-.735s.76-.261 1.201-.261c.773 0 1.355.187 1.746.56s.586.97.586 1.79v4.189h-.972zm4.744-.686c.172 0 .338-.013.498-.038s.287-.052.381-.079v.744c-.105.051-.261.093-.466.126s-.39.05-.554.05c-1.242 0-1.863-.654-1.863-1.963v-3.82h-.92v-.469l.92-.404.41-1.371h.562v1.488h1.863v.756h-1.863v3.779c0 .387.092.684.275.891s.437.31.757.31zm4.792-5.853c.285 0 .541.023.768.07l-.135.902a3.29 3.29 0 0 0-.703-.088c-.52 0-.963.211-1.332.633-.37.422-.554.947-.554 1.576v3.445h-.973v-6.422h.803l.111 1.189h.047c.238-.418.525-.74.861-.967s.704-.338 1.107-.338zm7.212 3.322c0 1.047-.264 1.864-.791 2.452s-1.256.882-2.186.882c-.574 0-1.084-.135-1.529-.404s-.789-.656-1.031-1.16-.363-1.094-.363-1.77c0-1.047.262-1.862.785-2.446s1.25-.876 2.18-.876c.898 0 1.612.299 2.142.896s.793 1.407.793 2.426zm-4.893 0c0 .82.164 1.445.492 1.875s.811.645 1.447.645 1.12-.214 1.45-.642.495-1.054.495-1.878c0-.816-.165-1.437-.495-1.86s-.817-.636-1.462-.636c-.637 0-1.117.209-1.441.627s-.486 1.041-.486 1.869zm13.486 2.356h-.053c-.449.652-1.121.979-2.016.979-.84 0-1.493-.287-1.96-.861s-.7-1.391-.7-2.449.234-1.881.703-2.467 1.121-.879 1.957-.879c.871 0 1.539.316 2.004.949h.076l-.041-.463-.023-.451V77.76h.973v9.117h-.791l-.129-.862zm-1.945.164c.664 0 1.146-.181 1.444-.542s.448-.944.448-1.749v-.205c0-.91-.151-1.56-.454-1.948s-.786-.583-1.45-.583c-.57 0-1.007.222-1.31.665s-.454 1.069-.454 1.878c0 .82.15 1.439.451 1.857s.743.627 1.325.627zm8.577.697l-.193-.914h-.047c-.32.402-.64.675-.958.817s-.716.214-1.192.214c-.637 0-1.136-.164-1.497-.492s-.542-.795-.542-1.4c0-1.297 1.037-1.977 3.111-2.039l1.09-.035v-.398c0-.504-.108-.876-.325-1.116s-.563-.36-1.04-.36c-.535 0-1.141.164-1.816.492l-.299-.744c.316-.172.663-.307 1.04-.404s.755-.146 1.134-.146c.766 0 1.333.17 1.702.51s.554.885.554 1.635v4.383h-.722zm-2.197-.686c.605 0 1.081-.166 1.427-.498s.519-.797.519-1.395v-.58l-.973.041c-.773.027-1.331.147-1.673.36s-.513.544-.513.993c0 .352.106.619.319.803s.511.276.894.276zm7.585.686V78.31h.996v7.664h3.779v.902h-4.775zm11.325-3.217c0 1.047-.264 1.864-.791 2.452s-1.256.882-2.186.882c-.574 0-1.084-.135-1.529-.404s-.789-.656-1.031-1.16-.363-1.094-.363-1.77c0-1.047.262-1.862.785-2.446s1.25-.876 2.18-.876c.898 0 1.612.299 2.142.896s.793 1.407.793 2.426zm-4.892 0c0 .82.164 1.445.492 1.875s.811.645 1.447.645 1.12-.214 1.45-.642.495-1.054.495-1.878c0-.816-.165-1.437-.495-1.86s-.817-.636-1.462-.636c-.637 0-1.117.209-1.441.627s-.486 1.041-.486 1.869zm5.518 6.1c-.371 0-.672-.049-.902-.146v-.791c.27.078.535.117.797.117.305 0 .528-.083.671-.249s.214-.419.214-.759v-7.477h.973v7.406c-.001 1.266-.585 1.899-1.753 1.899zm.697-11.045c0-.223.055-.386.164-.489s.246-.155.41-.155c.156 0 .291.053.404.158s.17.268.17.486-.057.382-.17.489-.248.161-.404.161c-.164 0-.301-.054-.41-.161s-.164-.27-.164-.489zm6.767 8.162l-.193-.914h-.047c-.32.402-.64.675-.958.817s-.716.214-1.192.214c-.637 0-1.136-.164-1.497-.492s-.542-.795-.542-1.4c0-1.297 1.037-1.977 3.111-2.039l1.09-.035v-.398c0-.504-.108-.876-.325-1.116s-.563-.36-1.04-.36c-.535 0-1.141.164-1.816.492l-.299-.744c.316-.172.663-.307 1.04-.404s.755-.146 1.134-.146c.766 0 1.333.17 1.702.51s.554.885.554 1.635v4.383h-.722zm-2.197-.686c.605 0 1.081-.166 1.427-.498s.519-.797.519-1.395v-.58l-.973.041c-.773.027-1.331.147-1.673.36s-.513.544-.513.993c0 .352.106.619.319.803s.511.276.894.276zm11.809-.175h-.053c-.449.652-1.121.979-2.016.979-.84 0-1.493-.287-1.96-.861s-.7-1.391-.7-2.449.234-1.881.703-2.467 1.121-.879 1.957-.879c.871 0 1.539.316 2.004.949h.076l-.041-.463-.023-.451V77.76h.973v9.117h-.791l-.129-.862zm-1.945.164c.664 0 1.146-.181 1.444-.542s.448-.944.448-1.749v-.205c0-.91-.151-1.56-.454-1.948s-.786-.583-1.45-.583c-.57 0-1.007.222-1.31.665s-.454 1.069-.454 1.878c0 .82.15 1.439.451 1.857s.743.627 1.325.627zm10.171-2.52c0 1.047-.264 1.864-.791 2.452s-1.256.882-2.186.882c-.574 0-1.084-.135-1.529-.404s-.789-.656-1.031-1.16-.363-1.094-.363-1.77c0-1.047.262-1.862.785-2.446s1.25-.876 2.18-.876c.898 0 1.612.299 2.142.896s.793 1.407.793 2.426zm-4.893 0c0 .82.164 1.445.492 1.875s.811.645 1.447.645 1.12-.214 1.45-.642.495-1.054.495-1.878c0-.816-.165-1.437-.495-1.86s-.817-.636-1.462-.636c-.637 0-1.117.209-1.441.627s-.486 1.041-.486 1.869zm14.694-2.853c0 .867-.296 1.534-.888 2.001s-1.438.7-2.54.7h-1.008v3.369h-.996V78.31h2.221c2.14 0 3.211.832 3.211 2.496zm-4.436 1.845h.896c.883 0 1.521-.143 1.916-.428s.592-.742.592-1.371c0-.566-.186-.988-.557-1.266s-.949-.416-1.734-.416h-1.113v3.481zm8.711-2.314c.285 0 .541.023.768.07l-.135.902a3.29 3.29 0 0 0-.703-.088c-.52 0-.964.211-1.333.633s-.554.947-.554 1.576v3.445h-.973v-6.422h.803l.111 1.189h.047c.238-.418.525-.74.861-.967s.706-.338 1.108-.338zm5.618 6.539l-.193-.914h-.047c-.32.402-.64.675-.958.817s-.716.214-1.192.214c-.637 0-1.136-.164-1.497-.492s-.542-.795-.542-1.4c0-1.297 1.037-1.977 3.111-2.039l1.09-.035v-.398c0-.504-.108-.876-.325-1.116s-.563-.36-1.04-.36c-.535 0-1.141.164-1.816.492l-.299-.744c.316-.172.663-.307 1.04-.404s.755-.146 1.134-.146c.766 0 1.333.17 1.702.51s.554.885.554 1.635v4.383h-.722zm-2.197-.686c.605 0 1.081-.166 1.427-.498s.519-.797.519-1.395v-.58l-.973.041c-.773.027-1.331.147-1.673.36s-.513.544-.513.993c0 .352.106.619.319.803s.511.276.894.276zm8.729.686h-4.658v-.662l3.504-5.004h-3.287v-.756h4.354v.756l-3.457 4.91h3.545v.756zm3.919.117c-.949 0-1.698-.289-2.247-.867s-.823-1.381-.823-2.408c0-1.035.255-1.857.765-2.467s1.194-.914 2.054-.914c.805 0 1.441.265 1.91.794s.703 1.228.703 2.095v.615h-4.424c.02.754.21 1.326.571 1.717s.87.586 1.526.586c.691 0 1.375-.145 2.051-.434v.867c-.344.148-.669.255-.976.319s-.676.097-1.11.097zm-.263-5.842c-.516 0-.927.168-1.233.504s-.487.801-.542 1.395h3.357c0-.613-.137-1.083-.41-1.409s-.664-.49-1.172-.49zm6.913-.814c.285 0 .541.023.768.07l-.135.902a3.29 3.29 0 0 0-.703-.088c-.52 0-.964.211-1.333.633s-.554.947-.554 1.576v3.445h-.973v-6.422h.803l.111 1.189h.047c.238-.418.525-.74.861-.967s.706-.338 1.108-.338zm1.527 5.918c0-.262.06-.46.179-.595s.29-.202.513-.202c.227 0 .403.067.53.202s.19.333.19.595c0 .254-.064.449-.193.586s-.305.205-.527.205c-.199 0-.364-.062-.495-.185s-.197-.325-.197-.606zM70.512 106.221c0 .754-.273 1.342-.82 1.764s-1.289.633-2.227.633c-1.016 0-1.797-.131-2.344-.393v-.961c.352.148.734.266 1.148.352s.824.129 1.23.129c.664 0 1.164-.126 1.5-.378s.504-.603.504-1.052c0-.297-.06-.54-.179-.729s-.318-.364-.598-.524-.704-.342-1.274-.545c-.797-.285-1.366-.623-1.708-1.014s-.513-.9-.513-1.529c0-.66.248-1.186.744-1.576s1.152-.586 1.969-.586c.852 0 1.635.156 2.35.469l-.311.867c-.707-.297-1.395-.445-2.062-.445-.527 0-.939.113-1.236.34s-.445.541-.445.943c0 .297.055.54.164.729s.294.363.554.521.657.333 1.192.524c.898.32 1.517.664 1.854 1.031s.508.844.508 1.43zm5.255 2.279l-.193-.914h-.047c-.32.402-.64.675-.958.817s-.716.214-1.192.214c-.637 0-1.136-.164-1.497-.492s-.542-.795-.542-1.4c0-1.297 1.037-1.977 3.111-2.039l1.09-.035v-.398c0-.504-.108-.876-.325-1.116s-.563-.36-1.04-.36c-.535 0-1.141.164-1.816.492l-.299-.744c.316-.172.663-.307 1.04-.404s.755-.146 1.134-.146c.766 0 1.333.17 1.702.51s.554.885.554 1.635v4.383h-.722zm-2.198-.686c.605 0 1.081-.166 1.427-.498s.519-.797.519-1.395v-.58l-.973.041c-.773.027-1.331.147-1.673.36s-.513.544-.513.993c0 .352.106.619.319.803s.512.276.894.276zm4.54-7.476c0-.223.055-.386.164-.489s.246-.155.41-.155c.156 0 .291.053.404.158s.17.268.17.486-.057.382-.17.489-.248.161-.404.161c-.164 0-.301-.054-.41-.161s-.164-.27-.164-.489zm1.055 8.162h-.973v-6.422h.973v6.422zm4.751-6.527c.844 0 1.499.288 1.966.864s.7 1.392.7 2.446-.235 1.874-.706 2.458-1.124.876-1.96.876c-.418 0-.8-.077-1.146-.231s-.636-.392-.87-.712h-.07l-.205.826h-.697v-9.117h.973v2.215c0 .496-.016.941-.047 1.336h.047c.452-.641 1.124-.961 2.015-.961zm-.141.814c-.664 0-1.143.19-1.436.571s-.439 1.022-.439 1.925.15 1.548.451 1.937.783.583 1.447.583c.598 0 1.043-.218 1.336-.653s.439-1.062.439-1.878c0-.836-.146-1.459-.439-1.869s-.746-.616-1.359-.616zm8.155 5.713l-.193-.914h-.047c-.32.402-.64.675-.958.817s-.716.214-1.192.214c-.637 0-1.136-.164-1.497-.492s-.542-.795-.542-1.4c0-1.297 1.037-1.977 3.111-2.039l1.09-.035v-.398c0-.504-.108-.876-.325-1.116s-.563-.36-1.04-.36c-.535 0-1.141.164-1.816.492l-.299-.744c.316-.172.663-.307 1.04-.404s.755-.146 1.134-.146c.766 0 1.333.17 1.702.51s.554.885.554 1.635v4.383h-.722zm-2.198-.686c.605 0 1.081-.166 1.427-.498s.519-.797.519-1.395v-.58l-.973.041c-.773.027-1.331.147-1.673.36s-.513.544-.513.993c0 .352.106.619.319.803s.512.276.894.276zm15.625.686v-4.178c0-.512-.109-.896-.328-1.151s-.559-.384-1.02-.384c-.605 0-1.053.174-1.342.521s-.434.883-.434 1.605v3.586h-.973v-4.178c0-.512-.109-.896-.328-1.151s-.561-.384-1.025-.384c-.609 0-1.056.183-1.339.548s-.425.964-.425 1.796v3.369h-.973v-6.422h.791l.158.879h.047c.184-.312.442-.557.776-.732s.708-.264 1.122-.264c1.004 0 1.66.363 1.969 1.09h.047c.191-.336.469-.602.832-.797s.777-.293 1.242-.293c.727 0 1.271.187 1.632.56s.542.97.542 1.79v4.189h-.971zm6.626 0l-.193-.914h-.047c-.32.402-.64.675-.958.817s-.716.214-1.192.214c-.637 0-1.136-.164-1.497-.492s-.542-.795-.542-1.4c0-1.297 1.037-1.977 3.111-2.039l1.09-.035v-.398c0-.504-.108-.876-.325-1.116s-.563-.36-1.04-.36c-.535 0-1.141.164-1.816.492l-.299-.744c.316-.172.663-.307 1.04-.404s.755-.146 1.134-.146c.766 0 1.333.17 1.702.51s.554.885.554 1.635v4.383h-.722zm-2.197-.686c.605 0 1.081-.166 1.427-.498s.519-.797.519-1.395v-.58l-.973.041c-.773.027-1.331.147-1.673.36s-.513.544-.513.993c0 .352.106.619.319.803s.511.276.894.276zm4.54-7.476c0-.223.055-.386.164-.489s.246-.155.41-.155c.156 0 .291.053.404.158s.17.268.17.486-.057.382-.17.489-.248.161-.404.161c-.164 0-.301-.054-.41-.161s-.164-.27-.164-.489zm1.054 8.162h-.973v-6.422h.973v6.422zm5.905-1.752c0 .598-.223 1.059-.668 1.383s-1.07.486-1.875.486c-.852 0-1.516-.135-1.992-.404v-.902c.309.156.64.279.993.369s.694.135 1.022.135c.508 0 .898-.081 1.172-.243s.41-.409.41-.741c0-.25-.108-.464-.325-.642s-.64-.388-1.269-.63c-.598-.223-1.022-.417-1.274-.583s-.439-.354-.562-.565-.185-.463-.185-.756c0-.523.213-.937.639-1.239s1.01-.454 1.752-.454a5.13 5.13 0 0 1 2.027.422l-.346.791c-.645-.266-1.229-.398-1.752-.398-.461 0-.809.072-1.043.217s-.352.344-.352.598c0 .172.044.318.132.439s.229.236.425.346.57.268 1.125.475c.762.277 1.276.557 1.544.838s.402.632.402 1.058zM64.5 109.701v-.598h57.035v.598H64.5z" fill="#696A6A"/><path fill="#838387" d="M3.999 26.435s1.2 2.838 6.057.601c6.656-3.438 13.095-.109 13.095-.109s2.291 1.364 4.474 0c7.639-3.328 12.167.219 12.931.709 2.729 1.528 4.256-.49 4.256-.49s-.109 9.112-3.875 13.804c-3.765 4.693-10.258 3.056-10.912 2.892-.656-.164-1.31-.6-2.183-1.2-2.238-1.419-3.874-1.419-5.565.054-.655.437-2.237 1.528-4.529 2.019-6.002.219-9.078-3.284-9.767-4.801-2.809-6.194-3.982-13.479-3.982-13.479"/><path fill="#FFF" d="M21.433 38.016s-1.064-4.256-4.911-5.484c-2.046-.572-4.256.328-5.156.573-1.992.736-2.456.164-2.292.409 4.175 6.957 12.359 4.502 12.359 4.502m5.944 0s1.065-4.256 4.911-5.484c2.046-.572 4.256.328 5.157.573 1.991.736 2.455.164 2.292.409-4.175 6.957-12.36 4.502-12.36 4.502m-1.533-8.21a.782.782 0 1 1-1.563 0 .782.782 0 0 1 1.563 0m-2.188-.807a.6.6 0 1 1-1.2 0 .6.6 0 0 1 1.2 0m-1.772-.808a.417.417 0 1 1-.834 0 .417.417 0 0 1 .834 0M20.53 27.8a.338.338 0 1 1-.677.001.338.338 0 0 1 .677-.001m-1.223-.286a.34.34 0 1 1-.679 0 .34.34 0 0 1 .679 0m-1.356-.209a.338.338 0 1 1-.676 0 .338.338 0 0 1 .676 0m-1.406-.104a.339.339 0 1 1-.677 0 .339.339 0 0 1 .677 0m-1.302.104a.34.34 0 1 1-.679 0 .34.34 0 0 1 .679 0m11.253 1.694a.6.6 0 1 0 1.2 0 .6.6 0 0 0-1.2 0m1.771-.808a.418.418 0 0 0 .834 0 .417.417 0 1 0-.834 0m1.354-.391a.338.338 0 1 0 .677.001.338.338 0 0 0-.677-.001m1.224-.286a.34.34 0 1 0 .678 0 .34.34 0 0 0-.678 0m1.354-.209a.338.338 0 1 0 .677 0 .338.338 0 0 0-.677 0m1.407-.104a.339.339 0 1 0 .677 0 .339.339 0 0 0-.677 0m1.303.104a.339.339 0 1 0 .677 0 .339.339 0 0 0-.677 0"/><path fill="#838387" d="M40.452 30.359s.317-3.819 3.475-6.673c5.722-6.701 1.488-12.85 1.488-12.85s2.675 4.384 2.648 4.688c.759-.565 1.047-2.702 1.047-2.702s.4 1.544-.275 2.978c-.675 1.435-.427 1.572-.055 1.71 1.199.509 1.103-.772 1.378-.772.566 0 1.807 2.812-1.103 2.537 1.089.648.841 1.972.841 1.972s-1.117-.704-2.165.234c-.248.221-.164.367 0 .331 5.212-1.13 4.302 2.62 4.136 2.813-1.655 1.378-2.344-.496-2.15-.772 1.461-1.02-.469-1.544-.993-1.157-.221.22.221 1.764.221 1.764s-.579-1.6-2.482-.772c-3.585 2.013-3.805 4.964-3.805 4.964l-.551 2.426-1.655-.719z"/><path fill="#838387" d="M41.997 28.402s1.895-3.359 5.981-4.643c8.048-3.723 6.762-11.125 6.762-11.125s.604 5.133.451 5.399c.931-.199 2.094-2.031 2.094-2.031s-.283 1.58-1.503 2.607c-1.221 1.027-1.051 1.258-.769 1.541.882.97 1.333-.243 1.585-.127.517.237.469 3.331-2.074 1.856.723 1.051-.06 2.157-.06 2.157s-.726-1.112-2.078-.695c-.319.098-.304.266-.14.303 5.242 1.156 2.833 4.204 2.602 4.31-2.093.566-1.935-1.439-1.642-1.61 1.764-.318.219-1.608-.422-1.476-.294.109-.54 1.707-.54 1.707s.143-1.706-1.945-1.749c-4.125.334-5.566 2.94-5.566 2.94l-1.525 1.987-1.211-1.351z"/><path fill="#838387" d="M42.73 29.696s2.207-2.594 6.743.93c5.141 3.87 10.638-.76 10.638-.76s-3.143 2.838-3.393 2.862c.574.528 2.349.436 2.349.436s-1.189.561-2.454.232c-1.265-.328-1.338-.106-1.393.217-.23 1.05.794.776.836.999.087.458-2.002 1.893-2.223-.505-.358.981-1.469.982-1.469.982s.399-1.012-.521-1.717c-.217-.167-.322-.077-.269.05 1.713 4.049-1.464 3.886-1.646 3.781-1.37-1.129.043-1.975.297-1.86 1.049 1.027 1.178-.617.786-.982-.212-.145-1.396.449-1.396.449s1.207-.714.246-2.129c-2.179-2.596-3.816-2.319-4.603-2.323-.786-.004-1.406 1.002-1.406 1.002l-1.122-1.664zm-.485-1.998s-.738-2.061.494-4.717c1.824-5.78-2.509-8.537-2.509-8.537s2.872 2.058 2.936 2.257c.329-.562-.062-1.993-.062-1.993s.668.871.626 1.96c-.043 1.09.152 1.11.425 1.098.896 0 .491-.786.666-.859.357-.152 1.899 1.295-.017 1.902.864.118 1.062 1.023 1.062 1.023s-.896-.146-1.308.73c-.098.207-.005.276.089.209 2.997-2.117 3.428.502 3.375.669-.677 1.317-1.617.316-1.57.089.651-1.039-.711-.852-.94-.467-.081.199.614 1.059.614 1.059s-.796-.858-1.779.177c-1.729 2.239-1.076 4.166-1.076 4.166l-.57 1.273-.456-.039z"/><path fill="#838387" d="M44.162 26.863s3.346-2.719 4.914-.349c1.674.454 1.604 1.359 1.986 2.057.942.941 1.569-.453 1.569-.453s-.023.731-.162.964c5.124 1.394 6.472-2.08 6.472-2.08s-.383 1.592-1.499 2.335c-.163.093 1.301-.116 1.185-.035-.557.523-2.022.558-2.022.558s-.046.5.732.592c-.592 1.162-1.29.244-1.29.244s-.395.489-.72.523c.162-.442-.441-.883-.466-.732.024.662-.8.698-.8.698s.151-1.267-2.162-1.36c-.127.023.36 2.487 2.428 1.882-.301.407-1.043.514-1.599.375-2.089-.286-2.672-2.187-4.997-2.603-.886-.159-1.339-.108-1.339-.108h-3.208l-.208-1.429 1.186-1.079z"/><path fill="#838387" d="M42.149 26.264h1.876v3.542h-1.876zm1.876 3.49h.625v24.693h-.625z"/></svg>