<svg xmlns="http://www.w3.org/2000/svg" width="230" height="115" viewBox="0 0 230 115"><path d="M70.512 106.221c0 .754-.273 1.342-.82 1.764s-1.289.634-2.227.634c-1.016 0-1.797-.132-2.344-.394v-.961a6.293 6.293 0 0 0 2.378.482c.664 0 1.164-.126 1.5-.378s.504-.604.504-1.053c0-.297-.06-.539-.179-.729-.119-.189-.318-.363-.598-.523-.28-.16-.704-.342-1.274-.545-.797-.285-1.366-.623-1.708-1.015-.342-.392-.513-.899-.513-1.528 0-.66.248-1.187.744-1.576.496-.391 1.152-.586 1.969-.586.852 0 1.635.156 2.35.469l-.311.867c-.707-.297-1.395-.445-2.062-.445-.527 0-.939.113-1.236.34s-.445.541-.445.943c0 .297.055.539.164.729.109.189.294.363.554.521.26.158.657.332 1.192.523.898.32 1.517.664 1.854 1.031s.508.844.508 1.43zm5.255 2.279l-.193-.914h-.047c-.32.402-.64.676-.958.816-.318.143-.716.215-1.192.215-.637 0-1.136-.164-1.497-.492-.361-.328-.542-.795-.542-1.4 0-1.297 1.037-1.977 3.111-2.039l1.09-.035v-.397c0-.504-.108-.876-.325-1.116-.217-.24-.563-.359-1.04-.359-.535 0-1.141.164-1.816.492l-.299-.744a4.48 4.48 0 0 1 1.04-.404 4.49 4.49 0 0 1 1.134-.146c.766 0 1.333.17 1.702.51.369.341.554.886.554 1.636v4.383h-.722v-.006zm-2.198-.686c.605 0 1.081-.166 1.427-.498.346-.332.519-.797.519-1.396v-.58l-.973.041c-.773.027-1.331.147-1.673.36-.342.213-.513.544-.513.992 0 .353.106.619.319.804.213.186.512.277.894.277zm4.54-7.476c0-.223.055-.386.164-.488a.571.571 0 0 1 .41-.156c.156 0 .291.054.404.158.113.105.17.269.17.486 0 .219-.057.383-.17.489a.573.573 0 0 1-.404.161c-.164 0-.301-.055-.41-.161s-.164-.27-.164-.489zm1.055 8.162h-.973v-6.422h.973v6.422zm4.751-6.527c.844 0 1.499.289 1.966.864.467.576.7 1.392.7 2.446 0 1.054-.235 1.873-.706 2.458-.471.584-1.124.876-1.96.876-.418 0-.8-.077-1.146-.23a2.152 2.152 0 0 1-.87-.713h-.07l-.205.826h-.697v-9.117h.973v2.215c0 .496-.016.941-.047 1.336h.047c.452-.641 1.124-.961 2.015-.961zm-.141.814c-.664 0-1.143.189-1.436.57s-.439 1.022-.439 1.926c0 .902.15 1.548.451 1.938.301.389.783.582 1.447.582.598 0 1.043-.218 1.336-.652.293-.436.439-1.062.439-1.879 0-.836-.146-1.459-.439-1.869-.293-.41-.746-.616-1.359-.616zm8.155 5.713l-.193-.914h-.047c-.32.402-.64.676-.958.816-.318.143-.716.215-1.192.215-.637 0-1.136-.164-1.497-.492s-.542-.795-.542-1.4c0-1.297 1.037-1.977 3.111-2.039l1.09-.035v-.397c0-.504-.108-.876-.325-1.116s-.563-.359-1.04-.359c-.535 0-1.141.164-1.816.492l-.299-.744a4.48 4.48 0 0 1 1.04-.404 4.49 4.49 0 0 1 1.134-.146c.766 0 1.333.17 1.702.51.369.341.554.886.554 1.636v4.383h-.722v-.006zm-2.198-.686c.605 0 1.081-.166 1.427-.498.346-.332.519-.797.519-1.396v-.58l-.973.041c-.773.027-1.331.147-1.673.36-.342.213-.513.544-.513.992 0 .353.106.619.319.804s.512.277.894.277zm15.625.686v-4.178c0-.512-.109-.896-.328-1.151-.219-.255-.559-.384-1.02-.384-.605 0-1.053.174-1.342.521-.289.346-.434.883-.434 1.604v3.586h-.973v-4.179c0-.512-.109-.896-.328-1.15-.219-.255-.561-.384-1.025-.384-.609 0-1.056.183-1.339.548-.283.365-.425.964-.425 1.796v3.369h-.973v-6.422h.791l.158.879h.047c.184-.312.442-.558.776-.731a2.37 2.37 0 0 1 1.122-.265c1.004 0 1.66.362 1.969 1.09h.047c.191-.336.469-.603.832-.797a2.595 2.595 0 0 1 1.242-.293c.727 0 1.271.187 1.632.56.361.373.542.971.542 1.791v4.188l-.971.002zm6.626 0l-.193-.914h-.047c-.32.402-.64.676-.958.816-.318.143-.716.215-1.192.215-.637 0-1.136-.164-1.497-.492-.361-.328-.542-.795-.542-1.4 0-1.297 1.037-1.977 3.111-2.039l1.09-.035v-.397c0-.504-.108-.876-.325-1.116-.217-.24-.563-.359-1.04-.359-.535 0-1.141.164-1.816.492l-.299-.744a4.48 4.48 0 0 1 1.04-.404 4.49 4.49 0 0 1 1.134-.146c.766 0 1.333.17 1.702.51.369.341.554.886.554 1.636v4.383h-.722v-.006zm-2.197-.686c.605 0 1.081-.166 1.427-.498.346-.332.519-.797.519-1.396v-.58l-.973.041c-.773.027-1.331.147-1.673.36-.342.213-.513.544-.513.992 0 .353.106.619.319.804s.511.277.894.277zm4.54-7.476c0-.223.055-.386.164-.488a.571.571 0 0 1 .41-.156c.156 0 .291.054.404.158.113.105.17.269.17.486 0 .219-.057.383-.17.489a.573.573 0 0 1-.404.161.567.567 0 0 1-.41-.161c-.109-.106-.164-.27-.164-.489zm1.054 8.162h-.973v-6.422h.973v6.422zm5.905-1.752c0 .598-.224 1.059-.668 1.383-.445.324-1.07.486-1.875.486-.853 0-1.517-.135-1.992-.404v-.902c.31.156.64.279.993.369s.693.135 1.021.135c.508 0 .898-.08 1.172-.242.274-.162.41-.409.41-.741 0-.25-.107-.464-.324-.642s-.641-.389-1.27-.631c-.598-.223-1.021-.416-1.273-.582s-.439-.354-.562-.565-.186-.463-.186-.757c0-.522.213-.936.64-1.238.426-.303 1.01-.454 1.752-.454.69 0 1.366.142 2.026.423l-.346.79c-.645-.266-1.229-.397-1.752-.397-.461 0-.809.072-1.043.217s-.352.344-.352.598c0 .172.044.318.132.439s.229.236.425.346c.196.109.57.268 1.125.475.762.277 1.275.558 1.544.838.269.279.403.63.403 1.056zM64.5 109.701v-.598h57.035v.598H64.5z" fill="#696B6B"/><path fill-rule="evenodd" clip-rule="evenodd" fill="#696969" d="M52.614 37.785c0 12.683-10.362 22.965-23.145 22.965-4.06 0-7.874-1.036-11.188-2.857L5.466 61.965l4.177-12.321a22.724 22.724 0 0 1-3.32-11.859c0-12.685 10.362-22.968 23.147-22.968 12.782 0 23.144 10.283 23.144 22.968zM29.47 18.475c-10.733 0-19.461 8.661-19.461 19.31a19.11 19.11 0 0 0 3.706 11.321l-2.43 7.17 7.478-2.376a19.46 19.46 0 0 0 10.707 3.192c10.728 0 19.459-8.662 19.459-19.308 0-10.648-8.731-19.309-19.459-19.309zm11.687 24.6c-.143-.235-.521-.376-1.087-.658-.567-.282-3.358-1.645-3.877-1.832-.52-.187-.9-.282-1.277.281-.378.563-1.465 1.832-1.798 2.208-.33.375-.66.422-1.228.14-.568-.281-2.397-.877-4.563-2.794-1.685-1.493-2.824-3.335-3.157-3.898-.33-.562-.033-.867.248-1.147.256-.254.568-.658.852-.985.284-.33.379-.566.568-.941.189-.377.095-.704-.048-.986-.141-.28-1.277-3.051-1.75-4.18-.471-1.124-.944-.938-1.276-.938-.331 0-.709-.046-1.087-.046s-.992.141-1.511.704c-.52.562-1.986 1.926-1.986 4.694 0 2.77 2.031 5.448 2.315 5.822.285.376 3.924 6.247 9.692 8.5 5.768 2.253 5.768 1.502 6.809 1.407 1.04-.092 3.357-1.36 3.83-2.675.472-1.315.472-2.443.331-2.676zm0 0"/><path d="M67.18 26.023l2.697 12.552h-1.681l-.466-2.447h-2.497l-.466 2.447h-1.632l2.73-12.552h1.315zm-.034 6.992l-.633-4.562h-.033l-.999 6.376h1.998l-.333-1.814zm5.692-6.992c1.964 0 4.195.133 4.195 6.493 0 5.793-1.931 6.06-4.911 6.06h-1.148V26.023h1.864zm-.199 1.415v9.722c2.747.083 2.63-2.514 2.63-4.645 0-1.931.183-5.244-2.63-5.077zm7.756 11.137H78.73V26.023h1.665v12.552zm6.891-10.837c-.333-.167-.683-.316-1.065-.316-2.331 0-2.347 3.396-2.347 4.961 0 1.665.133 4.794 2.414 4.794.367 0 .683-.083.999-.25v1.465c-.416.266-.849.35-1.332.35-3.396 0-3.846-3.612-3.846-6.243 0-2.514.316-6.643 3.729-6.643.566 0 .965.083 1.448.366v1.516zm2.945 10.837h-1.665V26.023h1.665v12.552zm8.24-6.276c0 2.264-.033 6.442-3.263 6.442-3.229 0-3.263-4.179-3.263-6.442 0-2.264.033-6.443 3.263-6.443s3.263 4.179 3.263 6.443zm-4.762 0c0 2.664.183 4.877 1.498 4.877s1.499-2.214 1.499-4.877-.183-4.878-1.499-4.878c-1.314 0-1.498 2.215-1.498 4.878zm7.89-2.547l.25 4.212v4.611h-1.665V26.023h1.598l2.93 9.539.033-.033-.399-5.027v-4.479h1.665v12.552h-1.548l-2.93-9.672-.033.033.099.816zm10.919-3.729v1.448h-2.813v3.946h2.514v1.448h-2.514v4.262h2.813v1.448h-4.478V26.023h4.478zm9.186 0v1.448h-2.812v3.946h2.514v1.448h-2.514v4.262h2.812v1.448h-4.478V26.023h4.478zm14.431 0v2.331h-1.965v10.222h-2.48V28.354h-1.947v-2.331h6.392zm3.611 0v12.552h-2.48V26.023h2.48zm1.764 12.552V26.023h2.497c1.581 0 4.411.167 4.411 3.596 0 1.381-.549 2.563-1.781 3.246l2.181 5.71h-2.613l-2.181-5.793h-.033v5.793h-2.481zm2.48-7.158l.433.017c1.132 0 1.581-.766 1.581-1.798 0-.899-.433-1.632-1.681-1.565h-.333v3.346zm11.335-5.394v2.331h-2.514v2.73h2.214v2.331h-2.214v2.83h2.547v2.331h-5.027V26.023h4.994zm5.608 12.552V26.023h1.882c.433 0 5.626-.632 5.626 6.376 0 3.579-1.382 6.176-5.294 6.176h-2.214zm5.027-6.193c0-1.598-.499-4.128-2.547-4.128v8.09c1.998.1 2.547-2.397 2.547-3.962zm6.209-6.359v8.124c0 .949-.117 2.38 1.231 2.38 1.215 0 1.215-.916 1.231-1.848v-8.657h2.48v9.156c0 1.332-.149 3.596-3.729 3.596-2.314 0-3.695-1.082-3.695-3.429v-9.323h2.482zm3.462-2.963l-2.147 2.297-1.148-.666 1.599-2.397 1.696.766zm5.093 2.963l1.498 6.026c.217.716.3 1.432.449 2.147h.033c.134-.732.184-1.448.384-2.181l1.515-5.993h2.597l-3.479 12.552h-2.031l-3.629-12.552h2.663zm9.969 0v12.552h-2.48V26.023h2.48zm1.764 12.552V26.023h1.882c.433 0 5.627-.632 5.627 6.376 0 3.579-1.382 6.176-5.294 6.176h-2.215zm5.028-6.193c0-1.598-.5-4.128-2.548-4.128v8.09c1.999.1 2.548-2.397 2.548-3.962zm8.572-6.359l3.013 12.552h-2.646l-.466-2.114h-2.514l-.45 2.114h-2.464l2.914-12.552h2.613zm-1.099 5.127l-.283-1.897h-.033l-.267 1.897-.532 3.346h1.748l-.633-3.346zm10.27-2.297c-.499-.433-1.115-.799-1.798-.799-.766 0-1.249.466-1.249 1.232 0 2.064 3.779 2.181 3.779 5.577 0 2.231-1.282 3.912-3.612 3.912-.699 0-1.565-.216-2.131-.632v-2.364c.583.399 1.148.666 1.881.666.799 0 1.432-.533 1.432-1.365 0-.965-.766-1.332-1.465-1.831-1.432-.965-2.313-1.898-2.313-3.729 0-1.981 1.148-3.696 3.279-3.696.799 0 1.515.216 2.197.616v2.413zm4.909 8.34c0 .866-.716 1.582-1.581 1.582-.866 0-1.582-.716-1.582-1.582s.716-1.582 1.582-1.582a1.593 1.593 0 0 1 1.581 1.582zm-.35-2.38h-2.447v-8.79h2.447v8.79zM93.958 82.96l2.01-2.479c1.005.849 1.988 1.385 3.306 1.385 1.207 0 2.189-.402 3.061-1.273.67-.67 1.207-1.563 1.519-2.524-.67.67-2.078 1.296-3.552 1.296-2.614 0-4.758-1.497-4.758-4.424 0-3.418 2.859-6.165 6.478-6.165 1.497 0 3.15.47 4.088 1.407 1.05 1.05 1.608 2.436 1.608 4.736 0 2.814-1.117 5.696-3.127 7.707-1.452 1.451-3.329 2.322-5.496 2.322-1.942-.001-3.707-.716-5.137-1.988zm10.478-9.137c0-.559-.201-1.117-.559-1.475-.425-.425-1.028-.67-1.832-.67-1.832 0-3.038 1.296-3.038 2.814 0 1.362 1.005 2.1 2.391 2.1 1.831.001 3.038-1.273 3.038-2.769zm3.418 6.657c0-2.391 1.72-3.709 3.999-4.268-1.229-.625-1.898-1.787-1.898-3.016 0-2.033 1.966-4.378 5.875-4.378 3.262 0 5.54 1.765 5.54 4.199 0 1.966-1.296 3.396-3.418 3.909 1.407.536 2.391 1.676 2.391 3.329 0 2.368-2.413 4.646-6.501 4.646-3.218.002-5.988-1.741-5.988-4.421zm9.136-.402c.022-1.117-1.116-1.922-2.837-1.922-1.72 0-2.926.872-2.948 2.033-.022 1.117 1.117 1.943 2.814 1.943 1.676.001 2.95-.803 2.971-2.054zm1.162-6.635c.022-.982-.849-1.81-2.479-1.81-1.407 0-2.524.827-2.547 1.921-.022 1.027.938 1.832 2.457 1.832 1.452.001 2.547-.848 2.569-1.943zm8.244-.871l-2.837.647-.045-2.927 4.915-1.362h2.346l-4.223 15.749h-3.396l3.24-12.107zm4.156 7.908c0-2.391 1.72-3.709 3.999-4.268-1.229-.625-1.899-1.787-1.899-3.016 0-2.033 1.966-4.378 5.875-4.378 3.262 0 5.54 1.765 5.54 4.199 0 1.966-1.295 3.396-3.418 3.909 1.408.536 2.391 1.676 2.391 3.329 0 2.368-2.412 4.646-6.5 4.646-3.218.002-5.988-1.741-5.988-4.421zm9.136-.402c.022-1.117-1.117-1.922-2.837-1.922-1.721 0-2.927.872-2.949 2.033-.022 1.117 1.117 1.943 2.814 1.943 1.677.001 2.95-.803 2.972-2.054zm1.162-6.635c.022-.982-.849-1.81-2.479-1.81-1.407 0-2.524.827-2.546 1.921-.022 1.027.938 1.832 2.457 1.832 1.451.001 2.546-.848 2.568-1.943zm3.061 9.517l2.011-2.479c1.006.849 1.988 1.385 3.307 1.385 1.206 0 2.188-.402 3.061-1.273.67-.67 1.206-1.563 1.519-2.524-.67.67-2.077 1.296-3.552 1.296-2.613 0-4.758-1.497-4.758-4.424 0-3.418 2.859-6.165 6.478-6.165 1.497 0 3.15.47 4.088 1.407 1.05 1.05 1.608 2.436 1.608 4.736 0 2.814-1.116 5.696-3.127 7.707-1.452 1.451-3.328 2.322-5.495 2.322-1.946-.001-3.71-.716-5.14-1.988zm10.478-9.137c0-.559-.201-1.117-.559-1.475-.425-.425-1.027-.67-1.832-.67-1.832 0-3.038 1.296-3.038 2.814 0 1.362 1.005 2.1 2.391 2.1 1.831.001 3.038-1.273 3.038-2.769zm4.557 2.301h6.88l-.871 3.262h-6.881l.872-3.262zm6.746 6.836l2.011-2.479c1.006.849 1.988 1.385 3.307 1.385 1.206 0 2.188-.402 3.061-1.273.67-.67 1.206-1.563 1.519-2.524-.67.67-2.077 1.296-3.552 1.296-2.613 0-4.758-1.497-4.758-4.424 0-3.418 2.859-6.165 6.478-6.165 1.497 0 3.15.47 4.088 1.407 1.05 1.05 1.608 2.436 1.608 4.736 0 2.814-1.116 5.696-3.127 7.707-1.452 1.451-3.328 2.322-5.495 2.322-1.945-.001-3.71-.716-5.14-1.988zm10.478-9.137c0-.559-.201-1.117-.559-1.475-.425-.425-1.027-.67-1.832-.67-1.832 0-3.038 1.296-3.038 2.814 0 1.362 1.005 2.1 2.391 2.1 1.831.001 3.038-1.273 3.038-2.769zm12.064-1.809h-7.193l.804-2.971h11.259l-.715 2.591-9.829 13.046h-4.043l9.717-12.666zm5.273 11.504c-1.05-1.05-1.608-2.435-1.608-4.4 0-2.971 1.05-5.986 3.061-7.997a7.914 7.914 0 0 1 5.674-2.346c1.988 0 3.641.715 4.825 1.81l-1.988 2.479c-.805-.715-1.854-1.206-3.128-1.206-1.251 0-2.211.402-3.038 1.229-.67.67-1.272 1.676-1.608 2.748.671-.671 2.123-1.318 3.597-1.318 2.614 0 4.759 1.563 4.759 4.355 0 3.15-2.859 6.076-6.479 6.076-1.655-.001-3.13-.492-4.067-1.43zm7.081-4.177c0-1.273-.961-2.056-2.346-2.056-1.854 0-3.083 1.229-3.083 2.681 0 .559.224 1.05.581 1.407.425.425 1.027.671 1.832.671 1.81 0 3.016-1.363 3.016-2.703zm3.53 3.619l2.011-2.479c1.006.849 1.988 1.385 3.307 1.385 1.206 0 2.188-.402 3.061-1.273.67-.67 1.206-1.563 1.519-2.524-.67.67-2.077 1.296-3.552 1.296-2.613 0-4.758-1.497-4.758-4.424 0-3.418 2.859-6.165 6.478-6.165 1.497 0 3.15.47 4.088 1.407 1.05 1.05 1.608 2.436 1.608 4.736 0 2.814-1.116 5.696-3.127 7.707-1.452 1.451-3.328 2.322-5.495 2.322-1.946-.001-3.71-.716-5.14-1.988zm10.478-9.137c0-.559-.201-1.117-.559-1.475-.425-.425-1.027-.67-1.832-.67-1.832 0-3.038 1.296-3.038 2.814 0 1.362 1.005 2.1 2.391 2.1 1.831.001 3.038-1.273 3.038-2.769zM65.474 80.1c0-3.33 2.185-6.171 6.033-7.698l.855 1.727c-2.994 1.374-4.536 3.635-4.536 5.896 0 1.512.825 2.856 1.894 3.971l-1.451 1.482c-1.772-1.422-2.795-3.255-2.795-5.378zm8.966-5.086l-1.94.442-.031-2.001 3.36-.932h1.604l-2.887 10.769h-2.321l2.215-8.278zm6.019 0l-1.939.442-.031-2.001 3.36-.932h1.604l-2.887 10.769h-2.321l2.214-8.278zm1.528 8.675c2.994-1.375 4.536-3.636 4.536-5.896 0-1.512-.825-2.855-1.894-3.971l1.451-1.482c1.772 1.421 2.795 3.254 2.795 5.377 0 3.33-2.185 6.171-6.033 7.698l-.855-1.726z" fill="#696969"/><path d="M64.934 52.957h1.871c2.771 0 5.073 1.463 5.073 4.474 0 3.082-2.255 4.569-5.109 4.569h-1.835v-9.043zm1.128 8.012h.396c2.303 0 4.294-.863 4.294-3.49 0-2.639-1.991-3.49-4.294-3.49h-.396v6.98zm7.476-1.596c.012.96.66 1.859 1.691 1.859.827 0 1.271-.42 1.679-1.092l.912.517a2.921 2.921 0 0 1-2.603 1.535c-1.715 0-2.758-1.296-2.758-2.951 0-1.727.923-3.022 2.734-3.022 1.787 0 2.626 1.319 2.626 2.986v.168h-4.281zm3.202-.815c-.132-.839-.684-1.403-1.547-1.403-.839 0-1.463.6-1.595 1.403h3.142zm7.729-.888c-.132-.275-.408-.491-.72-.491-.3 0-.588.24-.588.552 0 .491.648.707 1.308 1.007.66.301 1.295.708 1.295 1.596 0 1.067-.887 1.859-1.931 1.859-.815 0-1.643-.468-1.943-1.26l.923-.42c.228.42.504.72 1.02.72.456 0 .852-.312.852-.792 0-.3-.144-.443-.396-.611l-1.055-.563c-.624-.336-1.08-.647-1.08-1.415 0-.912.744-1.632 1.655-1.632.684 0 1.235.372 1.535.983l-.875.467zm3 1.703c.012.96.66 1.859 1.691 1.859.827 0 1.271-.42 1.679-1.092l.912.517a2.921 2.921 0 0 1-2.603 1.535c-1.715 0-2.758-1.296-2.758-2.951 0-1.727.923-3.022 2.734-3.022 1.787 0 2.626 1.319 2.626 2.986v.168h-4.281zm3.202-.815c-.132-.839-.684-1.403-1.547-1.403-.839 0-1.463.6-1.595 1.403h3.142zm7.26 3.334c0 1.932-.552 3.322-2.734 3.322-1.559 0-2.687-.959-2.71-2.542h1.08c0 1.007.695 1.583 1.679 1.583 1.332 0 1.607-.912 1.607-2.062v-1.068h-.024c-.432.636-1.115 1.068-1.907 1.068-1.727 0-2.687-1.428-2.687-3.035 0-1.535 1.02-2.938 2.639-2.938.839 0 1.511.433 1.955 1.128h.024v-.96h1.079v5.504zm-1.02-2.699c0-1.091-.659-2.015-1.823-2.015-1.115 0-1.775.972-1.775 2.015 0 1.056.636 2.039 1.775 2.039 1.176 0 1.823-.935 1.823-2.039zm4.117 2.303a.696.696 0 0 1-1.391 0c0-.372.312-.695.696-.695s.695.323.695.695zm10.51.504h-1.08v-.876h-.024c-.432.636-1.104 1.068-1.907 1.068-1.715 0-2.687-1.428-2.687-3.035 0-1.535 1.019-2.938 2.65-2.938.828 0 1.499.433 1.943 1.104h.024v-.936h1.08V62zm-1.019-2.807c0-1.091-.66-2.015-1.823-2.015-1.115 0-1.775.972-1.775 2.015 0 1.056.636 2.039 1.775 2.039 1.175 0 1.823-.935 1.823-2.039zm-2.087-5.996l1.499 1.99-.527.324-1.967-1.787.995-.527zm10.236 4.473c-.133-.275-.408-.491-.72-.491-.3 0-.588.24-.588.552 0 .491.647.707 1.308 1.007.66.301 1.295.708 1.295 1.596 0 1.067-.887 1.859-1.931 1.859-.815 0-1.644-.468-1.942-1.26l.923-.42c.228.42.504.72 1.02.72.456 0 .852-.312.852-.792 0-.3-.144-.443-.396-.611l-1.056-.563c-.624-.336-1.079-.647-1.079-1.415 0-.912.743-1.632 1.654-1.632.684 0 1.236.372 1.535.983l-.875.467zm3 1.703c.013.96.66 1.859 1.691 1.859.828 0 1.271-.42 1.68-1.092l.911.517a2.921 2.921 0 0 1-2.603 1.535c-1.715 0-2.758-1.296-2.758-2.951 0-1.727.923-3.022 2.734-3.022 1.787 0 2.626 1.319 2.626 2.986v.168h-4.281zm3.203-.815c-.133-.839-.684-1.403-1.547-1.403-.84 0-1.464.6-1.596 1.403h3.143zm1.586-2.171h1.271l1.33 1.812 1.451-1.812h1.309l-2.063 2.567L132.166 62h-1.26l-1.848-2.278L127.271 62h-1.307l2.507-3.046-2.014-2.567zm7.979 5.109c0 .384-.312.696-.695.696s-.695-.312-.695-.696c0-.372.312-.695.695-.695s.695.323.695.695zm9.43-.372h-.024c-.432.636-1.115 1.068-1.907 1.068-1.727 0-2.687-1.428-2.687-3.035 0-1.535 1.02-2.938 2.639-2.938.84 0 1.512.433 1.955 1.104h.024V51.59h1.079V62h-1.079v-.876zm.06-1.931c0-1.091-.659-2.015-1.823-2.015-1.115 0-1.774.972-1.774 2.015 0 1.056.636 2.039 1.774 2.039 1.175 0 1.823-.935 1.823-2.039zM151.617 62h-1.079v-.876h-.024c-.432.636-1.104 1.068-1.907 1.068-1.715 0-2.687-1.428-2.687-3.035 0-1.535 1.02-2.938 2.65-2.938.828 0 1.5.433 1.943 1.104h.024v-.936h1.079V62zm-1.019-2.807c0-1.091-.659-2.015-1.823-2.015-1.115 0-1.774.972-1.774 2.015 0 1.056.636 2.039 1.774 2.039 1.175 0 1.823-.935 1.823-2.039zm4.68-1.523c-.132-.275-.407-.491-.72-.491-.3 0-.587.24-.587.552 0 .491.647.707 1.307 1.007.66.301 1.296.708 1.296 1.596 0 1.067-.888 1.859-1.932 1.859-.815 0-1.643-.468-1.942-1.26l.923-.42c.229.42.504.72 1.02.72.456 0 .852-.312.852-.792 0-.3-.144-.443-.396-.611l-1.056-.563c-.623-.336-1.079-.647-1.079-1.415 0-.912.743-1.632 1.655-1.632.684 0 1.235.372 1.535.983l-.876.467zm5.39-.191c0-1.859.815-4.714 3.154-4.714s3.154 2.854 3.154 4.714c0 1.847-.827 4.714-3.154 4.714-2.326-.001-3.154-2.868-3.154-4.714zm1.08-.012c0 1.247.455 3.718 2.074 3.718s2.075-2.471 2.075-3.718c0-1.248-.456-3.742-2.075-3.742s-2.074 2.494-2.074 3.742zm7.283 4.161l2.41-3.25-.023-.023c-.264.132-.563.167-.876.167-1.499 0-2.626-1.343-2.626-2.782a2.977 2.977 0 0 1 2.986-2.975c1.559 0 3.01 1.296 3.01 2.891 0 .899-.455 1.68-.983 2.387l-3.082 4.15-.816-.565zm3.802-5.961c0-.959-.863-1.895-1.847-1.895-1.08 0-1.991.863-1.991 1.895 0 1.08.983 1.896 1.919 1.896a1.89 1.89 0 0 0 1.919-1.896zM183.705 62h-1.079v-.876h-.024c-.432.636-1.104 1.068-1.907 1.068-1.715 0-2.687-1.428-2.687-3.035 0-1.535 1.02-2.938 2.65-2.938.828 0 1.5.433 1.943 1.104h.024v-.936h1.079V62zm-1.019-2.807c0-1.091-.659-2.015-1.823-2.015-1.115 0-1.774.972-1.774 2.015 0 1.056.636 2.039 1.774 2.039 1.175 0 1.823-.935 1.823-2.039zm4.68-1.523c-.132-.275-.407-.491-.72-.491-.3 0-.587.24-.587.552 0 .491.647.707 1.307 1.007.66.301 1.296.708 1.296 1.596 0 1.067-.888 1.859-1.932 1.859-.815 0-1.643-.468-1.942-1.26l.923-.42c.229.42.504.72 1.02.72.456 0 .852-.312.852-.792 0-.3-.144-.443-.396-.611l-1.056-.563c-.623-.336-1.079-.647-1.079-1.415 0-.912.743-1.632 1.655-1.632.684 0 1.235.372 1.535.983l-.876.467zm6.553-3.682l.623-1.031h2.027V62h-1.08v-8.012h-1.57zm7.523 3.323c-.743-.42-1.187-1.14-1.187-2.026 0-1.476 1.151-2.52 2.59-2.52 1.439 0 2.591 1.044 2.591 2.52 0 .887-.443 1.606-1.188 2.026.936.324 1.428 1.199 1.428 2.171 0 1.679-1.296 2.711-2.831 2.711s-2.83-1.032-2.83-2.711c.001-.972.492-1.847 1.427-2.171zm-.347 2.17c0 .911.863 1.703 1.751 1.703s1.751-.792 1.751-1.703c0-.96-.839-1.703-1.751-1.703-.911 0-1.751.743-1.751 1.703zm.216-4.197c0 .719.78 1.535 1.535 1.535.756 0 1.535-.816 1.535-1.535 0-.864-.72-1.56-1.535-1.56s-1.535.696-1.535 1.56zm6.828-3.694v5.553h.023c.336-.6 1.008-.924 1.691-.924 1.583 0 1.991 1.067 1.991 2.436V62h-1.08v-3.214c0-.96-.132-1.607-1.235-1.607-1.391 0-1.391 1.224-1.391 2.243V62h-1.08V51.59h1.081zm7.45 6.08c-.132-.275-.407-.491-.72-.491-.3 0-.587.24-.587.552 0 .491.647.707 1.307 1.007.66.301 1.296.708 1.296 1.596 0 1.067-.888 1.859-1.932 1.859-.815 0-1.643-.468-1.942-1.26l.923-.42c.229.42.504.72 1.02.72.456 0 .852-.312.852-.792 0-.3-.144-.443-.396-.611l-1.056-.563c-.623-.336-1.079-.647-1.079-1.415 0-.912.743-1.632 1.655-1.632.684 0 1.235.372 1.535.983l-.876.467z" fill="#696B6B"/></svg>