<svg xmlns="http://www.w3.org/2000/svg" width="250" height="141" viewBox="0 0 250 141"><path fill="#E6E4E5" d="M230.082 22.513H26.75a8.834 8.834 0 0 0-8.834 8.834v75.331a8.834 8.834 0 0 0 8.834 8.835h10.923c3.003 4.229 13.577 19.107 14.702 20.5 1.312 1.625 4.25 1.875 4.25-2v-18.5h173.457a8.834 8.834 0 0 0 8.834-8.835V31.347a8.834 8.834 0 0 0-8.834-8.834z"/><path fill="#FFF" d="M19 63.763h219v1H19z"/><path fill="#EAEAEA" d="M19 62.763h219v1H19z"/><path fill="#FFF" d="M131.125 71.388h1v35.375h-1z"/><path fill="#EAEAEA" d="M130.125 71.388h1v35.375h-1z"/><path fill="#1BB347" d="M50.583 5.68c-.417.583-26.334 34.667-29.667 39.5s-6.667 0-6.667 0L3.583 29.513s-2-2.916-.167-4.833c2.75-2.583 5.667.333 5.667.333s6.25 6 7.5 6.833c1.833 1.583 3.167-.167 3.167-.167s27.5-27.25 28.333-28c3.334-2.833 3.584.084 2.5 2.001z"/></svg>