<svg xmlns="http://www.w3.org/2000/svg" width="279" height="66" viewBox="0 0 279 66"><path fill="#ED5B39" d="M267.3 64.5H9.2c-4.4 0-8-3.6-8-8V9c0-4.4 3.6-8 8-8h258.2c4.4 0 8 3.6 8 8v47.5c-.1 4.4-3.7 8-8.1 8z"/><path fill="#FFF" d="M62.1 37.9l-1.6-5.3h-8l-1.6 5.3h-5l7.8-22.2h5.7l7.8 22.2h-5.1zm-2.7-9.2c-1.5-4.8-2.3-7.5-2.5-8.1-.2-.6-.3-1.1-.4-1.5-.3 1.3-1.3 4.5-2.9 9.6h5.8zm23.1-12.9h4.7l-7.5 22.1h-5.1l-7.5-22.1h4.7L76 29c.2.8.5 1.7.7 2.7.2 1 .4 1.7.5 2.2.1-.9.5-2.5 1.1-4.9l4.2-13.2zM90 37.9V15.8h4.7v22.1H90zm23.3-6.1c0 2-.7 3.6-2.2 4.7-1.4 1.1-3.4 1.7-6 1.7-2.4 0-4.4-.4-6.3-1.3v-4.3c1.5.7 2.8 1.1 3.8 1.4 1 .3 2 .4 2.8.4 1 0 1.8-.2 2.4-.6s.8-1 .8-1.8c0-.4-.1-.8-.4-1.2-.2-.3-.6-.7-1.1-1-.5-.3-1.4-.8-2.9-1.5-1.3-.6-2.4-1.2-3-1.8-.7-.6-1.2-1.3-1.6-2-.4-.8-.6-1.7-.6-2.7 0-2 .7-3.5 2-4.6 1.3-1.1 3.2-1.7 5.5-1.7 1.1 0 2.2.1 3.3.4 1 .3 2.1.7 3.3 1.1l-1.5 3.6c-1.2-.5-2.2-.8-2.9-1-.8-.2-1.5-.3-2.3-.3-.9 0-1.6.2-2 .6s-.7 1-.7 1.6c0 .4.1.8.3 1.1.2.3.5.6.9.9.4.3 1.4.8 3 1.5 2.1 1 3.5 2 4.2 3 .8 1.1 1.2 2.3 1.2 3.8zm16.7 6.1h-12.7V15.8H130v3.8h-8v4.8h7.5v3.8H122V34h8v3.9zm2.8-6.4v-3.8h8.1v3.8h-8.1zm21.1 6.4l-5.3-17.3h-.1c.2 3.5.3 5.9.3 7.1V38h-4.2V15.8h6.4l5.2 16.9h.1l5.5-16.9h6.4v22.1h-4.4V25.8c0-.6.1-2.4.2-5.1h-.1L158.2 38h-4.3zm32.5 0h-12.7V15.8h12.7v3.8h-8v4.8h7.5v3.8h-7.5V34h8v3.9zM67 46.2c0 1-.3 1.8-.9 2.3-.6.5-1.5.8-2.7.8h-.9v3.3h-2v-9.4h3c1.1 0 2 .2 2.6.7.6.6.9 1.3.9 2.3zm-4.5 1.5h.7c.6 0 1.1-.1 1.4-.4.3-.2.5-.6.5-1.1 0-.5-.1-.8-.4-1-.3-.2-.7-.3-1.2-.3h-.9v2.8zm10.1-2.3c.3 0 .5 0 .7.1l-.1 1.8c-.2 0-.4-.1-.6-.1-.6 0-1.1.2-1.5.5s-.5.8-.5 1.3v3.7h-2v-7.2h1.5l.3 1.2h.1c.2-.4.5-.7.9-1 .4-.2.8-.3 1.2-.3zm8.5 3.7c0 1.2-.3 2.1-.9 2.7-.6.7-1.5 1-2.6 1-.7 0-1.3-.2-1.8-.5s-.9-.7-1.2-1.3c-.3-.6-.4-1.2-.4-2 0-1.2.3-2.1.9-2.7.6-.7 1.5-1 2.6-1 .7 0 1.3.2 1.8.4.5.3.9.7 1.2 1.3.3.7.4 1.3.4 2.1zm-5 0c0 .7.1 1.2.4 1.6.2.4.6.5 1.1.5.5 0 .9-.2 1.1-.5s.3-.9.3-1.6c0-.7-.1-1.2-.3-1.6-.2-.4-.6-.5-1.1-.5-.5 0-.9.2-1.1.5s-.4.9-.4 1.6zm8.9 3.7c-.8 0-1.5-.3-2-1s-.7-1.6-.7-2.7c0-1.2.2-2.1.7-2.8.5-.7 1.2-1 2-1 .9 0 1.6.4 2.1 1.1h.1c-.1-.5-.1-1-.1-1.4v-2.3h2v10h-1.5l-.4-.9H87c-.4.6-1.1 1-2 1zm.7-1.6c.5 0 .9-.1 1.1-.4.2-.3.4-.8.4-1.5v-.2c0-.8-.1-1.3-.4-1.7-.2-.3-.6-.5-1.2-.5-.4 0-.8.2-1 .6-.2.4-.4.9-.4 1.6s.1 1.2.4 1.6c.3.4.6.5 1.1.5zm10.4 1.5l-.3-.9h-.1c-.2.3-.5.6-.9.8-.4.2-.8.3-1.3.3-.8 0-1.5-.2-1.9-.7s-.6-1.2-.6-2v-4.7h2v4.2c0 .5.1.9.3 1.2.2.3.5.4.9.4.5 0 .9-.2 1.2-.5.2-.4.4-1 .4-1.8v-3.4h2v7.2h-1.7zm6.6-1.5c.3 0 .8-.1 1.2-.2v1.5c-.5.2-1.1.3-1.8.3-.8 0-1.4-.2-1.7-.6-.4-.4-.5-1-.5-1.8V47H99v-.8l1.1-.7.6-1.5h1.3v1.5h2V47h-2v3.5c0 .3.1.5.2.6 0 .1.2.1.5.1zm9.2-2.1c0 1.2-.3 2.1-.9 2.7-.6.7-1.5 1-2.6 1-.7 0-1.3-.2-1.8-.5s-.9-.7-1.2-1.3c-.3-.6-.4-1.2-.4-2 0-1.2.3-2.1.9-2.7.6-.7 1.5-1 2.6-1 .7 0 1.3.2 1.8.4.5.3.9.7 1.2 1.3.3.7.4 1.3.4 2.1zm-5 0c0 .7.1 1.2.4 1.6.2.4.6.5 1.1.5.5 0 .9-.2 1.1-.5s.3-.9.3-1.6c0-.7-.1-1.2-.3-1.6-.2-.4-.6-.5-1.1-.5-.5 0-.9.2-1.1.5s-.4.9-.4 1.6zm15.6 3.6h-5.4v-9.4h5.4v1.6h-3.4V47h3.2v1.6h-3.2V51h3.4v1.7zm6.8-2.2c0 .7-.3 1.3-.8 1.7s-1.3.6-2.3.6c-.5 0-1 0-1.3-.1-.4-.1-.7-.2-1-.3v-1.6c.4.2.8.3 1.2.4.5.1.9.2 1.2.2.7 0 1.1-.2 1.1-.6 0-.2 0-.3-.1-.4-.1-.1-.3-.2-.5-.3-.2-.1-.5-.3-.9-.4-.6-.2-1-.4-1.2-.6-.3-.2-.4-.4-.6-.7-.1-.3-.2-.6-.2-.9 0-.6.2-1.1.7-1.5s1.2-.5 2.1-.5c.9 0 1.7.2 2.5.6l-.6 1.4c-.4-.2-.7-.3-1-.4-.3-.1-.6-.1-1-.1-.6 0-.9.2-.9.5 0 .2.1.3.3.5l1.2.6c.6.2 1 .4 1.2.6.3.2.5.4.6.7.2 0 .3.3.3.6zm7.8-5v1l-1.1.3c.2.3.3.7.3 1.1 0 .8-.3 1.4-.8 1.8-.5.4-1.3.6-2.2.6h-.7c-.2.2-.3.3-.3.5 0 .3.4.4 1.1.4h1.2c.8 0 1.4.2 1.8.5.4.3.6.8.6 1.5 0 .8-.4 1.5-1 2-.7.5-1.7.7-3 .7-1 0-1.8-.2-2.3-.5-.5-.3-.8-.8-.8-1.5 0-.4.1-.8.4-1.1.3-.3.7-.5 1.2-.6-.2-.1-.4-.2-.5-.4-.1-.2-.2-.4-.2-.6 0-.3.1-.5.2-.7.2-.2.4-.4.7-.5-.4-.2-.7-.4-.9-.8-.2-.4-.3-.8-.3-1.3 0-.8.3-1.4.8-1.8.5-.4 1.2-.6 2.2-.6.2 0 .4 0 .7.1s.5.1.5.1h2.4zm-5.6 8.2c0 .3.1.5.4.6.3.2.6.2 1.1.2.7 0 1.3-.1 1.6-.3s.6-.5.6-.8c0-.3-.1-.5-.4-.6s-.6-.2-1.1-.2h-1c-.4 0-.7.1-.9.3-.2.3-.3.5-.3.8zm.7-5.9c0 .4.1.7.3.9.2.2.4.3.8.3s.6-.1.8-.3c.2-.2.3-.5.3-.9 0-.9-.4-1.3-1.1-1.3-.7 0-1.1.5-1.1 1.3zm12.6 1.3c0 1.2-.3 2.1-.9 2.7-.6.7-1.5 1-2.6 1-.7 0-1.3-.2-1.8-.5s-.9-.7-1.2-1.3c-.3-.6-.4-1.2-.4-2 0-1.2.3-2.1.9-2.7.6-.7 1.5-1 2.6-1 .7 0 1.3.2 1.8.4.5.3.9.7 1.2 1.3.2.7.4 1.3.4 2.1zm-5 0c0 .7.1 1.2.4 1.6s.6.5 1.1.5c.5 0 .9-.2 1.1-.5.2-.4.3-.9.3-1.6 0-.7-.1-1.2-.3-1.6-.2-.4-.6-.5-1.1-.5-.5 0-.9.2-1.1.5-.3.3-.4.9-.4 1.6zm9.6 2.1c.3 0 .8-.1 1.2-.2v1.5c-.5.2-1.1.3-1.8.3-.8 0-1.4-.2-1.7-.6-.4-.4-.5-1-.5-1.8V47h-.9v-.8l1.1-.7.6-1.5h1.3v1.5h2V47h-2v3.5c0 .3.1.5.2.6 0 .1.2.1.5.1zm7.2 1.5l-.4-1h-.1c-.3.4-.7.7-1 .9s-.8.2-1.4.2c-.7 0-1.2-.2-1.6-.6-.4-.4-.6-1-.6-1.7 0-.8.3-1.3.8-1.7.5-.4 1.3-.6 2.4-.6h1.2v-.3c0-.7-.4-1.1-1.1-1.1-.6 0-1.2.2-2 .5l-.6-1.3c.8-.4 1.7-.6 2.7-.6 1 0 1.7.2 2.2.6.5.4.8 1.1.8 1.9v4.8h-1.3zm-.5-3.4h-.8c-.6 0-1 .1-1.3.3s-.4.5-.4.9c0 .6.3.8.9.8.5 0 .8-.1 1.1-.4s.4-.6.4-1v-.6zm6.2 3.5c-.8 0-1.5-.3-2-1s-.7-1.6-.7-2.7c0-1.2.2-2.1.7-2.8.5-.7 1.2-1 2-1 .9 0 1.6.4 2.1 1.1h.1c-.1-.5-.1-1-.1-1.4v-2.3h2v10h-1.5l-.4-.9h-.1c-.5.6-1.2 1-2.1 1zm.7-1.6c.5 0 .9-.1 1.1-.4.2-.3.4-.8.4-1.5v-.2c0-.8-.1-1.3-.4-1.7-.2-.3-.6-.5-1.2-.5-.4 0-.8.2-1 .6-.2.4-.4.9-.4 1.6s.1 1.2.4 1.6c.3.4.6.5 1.1.5zm11.9-2.1c0 1.2-.3 2.1-.9 2.7-.6.7-1.5 1-2.6 1-.7 0-1.3-.2-1.8-.5s-.9-.7-1.2-1.3c-.3-.6-.4-1.2-.4-2 0-1.2.3-2.1.9-2.7.6-.7 1.5-1 2.6-1 .7 0 1.3.2 1.8.4.5.3.9.7 1.2 1.3s.4 1.3.4 2.1zm-5 0c0 .7.1 1.2.3 1.6.2.4.6.5 1.1.5.5 0 .9-.2 1.1-.5s.3-.9.3-1.6c0-.7-.1-1.2-.3-1.6-.2-.4-.6-.5-1.1-.5-.5 0-.9.2-1.1.5-.2.3-.3.9-.3 1.6zm88.7-4h-34.5c-2.2 0-4-1.8-4-4V17.6c0-2.2 1.8-4 4-4h34.5c2.2 0 4 1.8 4 4v23.5c0 2.2-1.8 4-4 4zM236 53.6zm-.4-8.5s3.8.4 3.8 2.9c0 4.1-2 5.3-3.4 5.6 9.2-.4 10.1-5 10.1-5.7 0-2.6 3.6-2.8 3.6-2.8h-14.1z"/></svg>