<svg xmlns="http://www.w3.org/2000/svg" width="279" height="66" viewBox="0 0 279 66"><path fill="#1BB81F" d="M277.333 55.165A8.834 8.834 0 0 1 268.498 64H10.501a8.834 8.834 0 0 1-8.834-8.835V10.834A8.834 8.834 0 0 1 10.501 2h257.997a8.834 8.834 0 0 1 8.835 8.834v44.331z"/><path fill="#FFF" d="M245.102 33.998a1.504 1.504 0 0 0-.44-1.076l-10.775-10.776a1.508 1.508 0 0 0-2.132 2.132L241.477 34l-9.723 9.724a1.508 1.508 0 0 0 2.133 2.131l10.775-10.775c.297-.299.443-.691.44-1.082z"/><path fill="#FFF" d="M231.292 23.083v22.251l12.25-11.501zM57.147 35.258l4.63 1.469c-.71 2.581-1.891 4.498-3.542 5.751-1.651 1.254-3.746 1.88-6.284 1.88-3.141 0-5.722-1.073-7.744-3.219-2.022-2.146-3.033-5.079-3.033-8.801 0-3.937 1.017-6.994 3.049-9.172 2.033-2.178 4.706-3.267 8.019-3.267 2.893 0 5.244.855 7.05 2.565 1.076 1.011 1.882 2.463 2.42 4.356l-4.728 1.129c-.28-1.226-.863-2.194-1.75-2.904s-1.966-1.065-3.235-1.065c-1.753 0-3.176.629-4.267 1.888-1.092 1.258-1.638 3.297-1.638 6.114 0 2.99.538 5.12 1.613 6.39 1.076 1.269 2.474 1.903 4.195 1.903 1.269 0 2.361-.403 3.275-1.21.916-.806 1.572-2.075 1.97-3.807zm7.76-2.985c0-2.41.36-4.432 1.081-6.066a11.115 11.115 0 0 1 2.202-3.243c.93-.957 1.949-1.667 3.057-2.129 1.474-.624 3.173-.936 5.099-.936 3.485 0 6.273 1.081 8.365 3.243 2.092 2.162 3.138 5.168 3.138 9.019 0 3.818-1.039 6.806-3.114 8.963-2.076 2.156-4.851 3.234-8.325 3.234-3.517 0-6.314-1.073-8.39-3.219-2.075-2.146-3.113-5.101-3.113-8.866zm4.921-.161c0 2.678.618 4.708 1.855 6.09 1.237 1.383 2.808 2.073 4.711 2.073s3.466-.686 4.687-2.057c1.221-1.372 1.832-3.429 1.832-6.172 0-2.71-.595-4.732-1.783-6.066-1.189-1.333-2.767-2-4.735-2s-3.555.675-4.76 2.025-1.807 3.386-1.807 6.107zm21.684 11.842V20.302h7.147l4.292 16.134 4.243-16.134h7.164v23.652h-4.437V25.335l-4.695 18.619h-4.598l-4.679-18.619v18.619h-4.437zm27.589 0V20.302h7.664c2.904 0 4.797.119 5.679.355 1.355.355 2.49 1.127 3.404 2.315.914 1.188 1.371 2.724 1.371 4.606 0 1.452-.264 2.673-.791 3.662-.527.99-1.196 1.767-2.008 2.332-.812.564-1.638.938-2.477 1.121-1.14.226-2.792.339-4.953.339h-3.114v8.922h-4.775zm4.775-19.651v6.711h2.614c1.882 0 3.14-.124 3.775-.371a3.131 3.131 0 0 0 1.493-1.162c.36-.527.541-1.14.541-1.839 0-.861-.253-1.57-.758-2.13-.506-.559-1.146-.909-1.92-1.049-.57-.107-1.716-.161-3.437-.161h-2.308zm17.279 19.651V20.302h10.052c2.527 0 4.364.213 5.51.638s2.062 1.18 2.751 2.267c.688 1.086 1.032 2.329 1.032 3.727 0 1.774-.522 3.24-1.565 4.397-1.043 1.155-2.603 1.885-4.679 2.186 1.033.603 1.885 1.264 2.558 1.984.672.721 1.578 2.001 2.719 3.84l2.888 4.614h-5.712l-3.452-5.146c-1.227-1.84-2.065-2.998-2.517-3.477-.452-.479-.931-.808-1.437-.984-.506-.178-1.307-.267-2.403-.267h-.969v9.874h-4.776zm4.776-13.649h3.533c2.291 0 3.722-.097 4.292-.29a2.572 2.572 0 0 0 1.339-1c.323-.473.484-1.065.484-1.775 0-.795-.213-1.438-.638-1.928-.425-.489-1.024-.799-1.799-.928-.387-.054-1.549-.081-3.484-.081h-3.728v6.002zm40.399 13.649h-5.194l-2.065-5.372h-9.454l-1.952 5.372h-5.066l9.213-23.652h5.05l9.468 23.652zm-8.793-9.357l-3.259-8.777-3.194 8.777h6.453zm11.342 9.357V20.302h10.052c2.527 0 4.364.213 5.51.638s2.062 1.18 2.751 2.267c.688 1.086 1.032 2.329 1.032 3.727 0 1.774-.522 3.24-1.565 4.397-1.043 1.155-2.603 1.885-4.679 2.186 1.033.603 1.885 1.264 2.558 1.984.672.721 1.578 2.001 2.719 3.84l2.888 4.614h-5.712l-3.452-5.146c-1.227-1.84-2.065-2.998-2.517-3.477-.452-.479-.931-.808-1.437-.984-.506-.178-1.307-.267-2.403-.267h-.969v9.874h-4.776zm4.775-13.649h3.533c2.291 0 3.722-.097 4.292-.29a2.572 2.572 0 0 0 1.339-1c.323-.473.484-1.065.484-1.775 0-.795-.213-1.438-.638-1.928-.425-.489-1.024-.799-1.799-.928-.387-.054-1.549-.081-3.484-.081h-3.728v6.002z"/></svg>