<svg xmlns="http://www.w3.org/2000/svg" width="303" height="62.5" viewBox="0 0 303 62.5"><path fill="#1BB81F" d="M301.625 43.79c0 9.851-7.984 17.835-17.835 17.835H19.209c-9.85 0-17.834-7.984-17.834-17.835V18.709C1.375 8.859 9.36.875 19.209.875H283.79c9.851 0 17.835 7.984 17.835 17.834V43.79z"/><g fill="#1B773E"><path d="M251.125 20.958l2.375 14.75h26.25l3.125-14.75h-31.75zm26.868 12.684h-23.036l-1.748-10.853h27.083l-2.299 10.853z"/><path d="M277.625 39.083H256l-4.062-23.688s-.156-.656-1.062-1.156c-.719-.469-1.062 2.938-1.062 2.938l.312 1.531 3.625 22.5h23.375l.499-2.125z"/><circle cx="273.083" cy="42.833" r="2.25"/><circle cx="257.875" cy="42.833" r="2.25"/><circle cx="249.312" cy="16.146" r="2.438"/><path d="M253.209 27.291h26.75v1.666h-26.75z"/><path d="M266.5 21.499h.917v13.083h-.917zm4.416 0h.918v13.083h-.918zm4.417 0h.917v13.083h-.917zm-13.25 0H263v13.083h-.917zm-4.417 0h.918v13.083h-.918z"/></g><g fill="#FFF"><path d="M28.306 38.487V22.979h10.632v2.624h-7.5v3.671h6.474v2.623h-6.474v6.591h-3.132zm12.685 0V22.979h3.131v15.509h-3.131zm5.713 0V22.979h3.047l6.347 10.357V22.979h2.909v15.509h-3.142l-6.252-10.113v10.113h-2.909zm29.165 0h-3.406l-1.354-3.522H64.91l-1.28 3.522h-3.322l6.041-15.509h3.311l6.209 15.509zm-5.765-6.135l-2.137-5.755-2.095 5.755h4.232zm7.077 6.135V23.105h3.131v12.769h7.786v2.613H77.181zm12.621 0V22.979h3.131v15.509h-3.131zm4.338 0v-2.824l8.146-10.061H95.06v-2.624h11.351v2.434l-8.495 10.462h8.823v2.613H94.14z"/><path d="M122.269 38.487h-3.406l-1.354-3.522h-6.199l-1.28 3.522h-3.322l6.041-15.509h3.311l6.209 15.509zm-5.766-6.135l-2.137-5.755-2.095 5.755h4.232zm7.004 6.135V22.979h6.59c1.657 0 2.862.14 3.613.418.751.279 1.352.774 1.804 1.486.451.713.677 1.527.677 2.444 0 1.163-.342 2.124-1.026 2.883-.684.758-1.707 1.235-3.068 1.433.677.396 1.236.829 1.677 1.302.44.473 1.035 1.312 1.782 2.518l1.894 3.025h-3.745l-2.264-3.375c-.804-1.205-1.354-1.966-1.65-2.279-.296-.313-.61-.529-.941-.646-.332-.116-.857-.175-1.576-.175h-.635v6.475h-3.132zm3.132-8.949h2.316c1.502 0 2.44-.063 2.814-.19s.667-.346.878-.656c.212-.311.317-.698.317-1.164 0-.521-.139-.942-.417-1.264-.279-.321-.672-.523-1.18-.608-.254-.035-1.016-.053-2.285-.053h-2.443v3.935zm27.579 3.247l3.036.963c-.466 1.692-1.239 2.95-2.322 3.771-1.082.821-2.456 1.232-4.12 1.232-2.06 0-3.752-.704-5.078-2.11-1.326-1.407-1.989-3.331-1.989-5.771 0-2.582.666-4.586 1.999-6.015 1.333-1.428 3.085-2.142 5.258-2.142 1.896 0 3.438.561 4.623 1.682.705.663 1.233 1.615 1.587 2.856l-3.1.74c-.184-.804-.566-1.438-1.148-1.904-.581-.465-1.289-.698-2.121-.698-1.15 0-2.083.413-2.798 1.238s-1.074 2.161-1.074 4.009c0 1.961.353 3.357 1.058 4.189.705.832 1.622 1.248 2.75 1.248.832 0 1.548-.265 2.147-.793.6-.527 1.031-1.359 1.292-2.495zm4.655-1.957c0-1.579.236-2.905.709-3.978a7.308 7.308 0 0 1 1.444-2.126c.609-.628 1.277-1.093 2.004-1.396.967-.409 2.081-.613 3.343-.613 2.285 0 4.113.708 5.485 2.126s2.058 3.389 2.058 5.913c0 2.504-.681 4.463-2.042 5.877s-3.181 2.121-5.458 2.121c-2.307 0-4.141-.704-5.501-2.11-1.361-1.408-2.042-3.345-2.042-5.814zm3.227-.105c0 1.756.405 3.087 1.217 3.993.811.906 1.841 1.359 3.089 1.359s2.272-.449 3.073-1.349c.8-.899 1.2-2.248 1.2-4.046 0-1.777-.39-3.104-1.169-3.978-.779-.875-1.814-1.312-3.104-1.312-1.291 0-2.331.443-3.121 1.328s-1.185 2.22-1.185 4.005zm13.784 7.764V22.979h4.687l2.813 10.579 2.782-10.579h4.697v15.509h-2.909V26.279l-3.079 12.208h-3.015l-3.067-12.208v12.208h-2.909zm17.656 0V22.979h5.025c1.903 0 3.145.078 3.724.233.889.232 1.632.738 2.231 1.518s.899 1.786.899 3.021c0 .952-.173 1.753-.519 2.401s-.784 1.158-1.316 1.528c-.533.37-1.074.615-1.624.735-.748.148-1.83.223-3.248.223h-2.042v5.85h-3.13zm3.131-12.884v4.4h1.714c1.234 0 2.06-.081 2.476-.243s.742-.416.979-.762.354-.747.354-1.206c0-.563-.166-1.029-.497-1.396a2.173 2.173 0 0 0-1.259-.688c-.374-.07-1.125-.105-2.253-.105h-1.514zm10.896 12.884V22.979h6.591c1.657 0 2.861.14 3.612.418.751.279 1.353.774 1.804 1.486.451.713.677 1.527.677 2.444 0 1.163-.342 2.124-1.026 2.883-.684.758-1.706 1.235-3.067 1.433.677.396 1.235.829 1.677 1.302.44.473 1.035 1.312 1.782 2.518l1.894 3.025h-3.745l-2.264-3.375c-.804-1.205-1.354-1.966-1.65-2.279-.296-.313-.609-.529-.941-.646-.331-.116-.856-.175-1.576-.175h-.635v6.475h-3.133zm3.131-8.949h2.317c1.502 0 2.439-.063 2.813-.19s.667-.346.878-.656c.212-.311.317-.698.317-1.164 0-.521-.14-.942-.418-1.264s-.672-.523-1.18-.608c-.254-.035-1.015-.053-2.284-.053h-2.444v3.935z"/><path d="M236.755 38.487h-3.406l-1.354-3.522h-6.199l-1.28 3.522h-3.321l6.04-15.509h3.312l6.208 15.509zm-5.766-6.135l-2.137-5.755-2.095 5.755h4.232z"/></g></svg>