<svg xmlns="http://www.w3.org/2000/svg" width="279" height="66" viewBox="0 0 279 66"><path fill="#1BB81F" d="M277.333 55.165A8.834 8.834 0 0 1 268.498 64H10.501a8.834 8.834 0 0 1-8.834-8.835V10.834A8.834 8.834 0 0 1 10.501 2h257.997a8.834 8.834 0 0 1 8.835 8.834v44.331z"/><path fill="#FFF" d="M245.102 33.998a1.503 1.503 0 0 0-.439-1.076l-10.775-10.776a1.508 1.508 0 0 0-2.132 2.132L241.477 34l-9.723 9.725a1.508 1.508 0 0 0 2.133 2.131l10.775-10.775c.297-.3.443-.692.44-1.083zM47.965 36.453l4.039 1.281c-.619 2.252-1.649 3.924-3.089 5.017-1.44 1.094-3.268 1.64-5.482 1.64-2.74 0-4.991-.936-6.755-2.808-1.764-1.871-2.646-4.431-2.646-7.677 0-3.434.887-6.101 2.66-8.001 1.773-1.9 4.105-2.85 6.995-2.85 2.524 0 4.574.746 6.15 2.238.938.882 1.642 2.149 2.111 3.8l-4.124.985c-.244-1.07-.753-1.914-1.527-2.533-.774-.619-1.715-.929-2.822-.929-1.529 0-2.771.549-3.723 1.646s-1.428 2.876-1.428 5.334c0 2.608.469 4.466 1.407 5.573.938 1.106 2.158 1.66 3.659 1.66 1.107 0 2.059-.352 2.857-1.056.799-.702 1.371-1.809 1.718-3.32zm6.77-2.603c0-2.102.314-3.865.943-5.292a9.698 9.698 0 0 1 1.921-2.829c.811-.835 1.7-1.454 2.667-1.858 1.285-.544 2.768-.816 4.447-.816 3.04 0 5.473.943 7.297 2.829s2.737 4.508 2.737 7.868c0 3.33-.906 5.937-2.716 7.817S67.8 44.39 64.769 44.39c-3.068 0-5.508-.936-7.318-2.808-1.811-1.87-2.716-4.448-2.716-7.732zm4.292-.141c0 2.336.54 4.107 1.619 5.312 1.079 1.206 2.449 1.809 4.109 1.809s3.023-.598 4.088-1.794 1.597-2.991 1.597-5.384c0-2.364-.519-4.128-1.555-5.291-1.037-1.164-2.414-1.745-4.13-1.745s-3.101.589-4.152 1.766-1.576 2.953-1.576 5.327zm19.014 10.33V23.407h4.053l8.444 13.778V23.407h3.87v20.632h-4.18l-8.317-13.454v13.454h-3.87zm25.417 0V26.897h-6.122v-3.49h16.396v3.49h-6.108v17.142h-4.166zm12.834 0V23.407h4.166v20.632h-4.166zm8.177 0V23.407h4.053l8.444 13.778V23.407h3.87v20.632h-4.18l-8.318-13.454v13.454h-3.869zm20.744-20.632h4.166v11.175c0 1.772.052 2.922.155 3.447.178.845.603 1.522 1.273 2.034s1.588.767 2.751.767c1.183 0 2.074-.241 2.675-.725.6-.483.961-1.076 1.083-1.78s.184-1.872.184-3.504V23.407h4.165v10.837c0 2.477-.112 4.227-.338 5.249-.225 1.022-.64 1.886-1.245 2.59-.605.703-1.414 1.265-2.428 1.682s-2.336.626-3.969.626c-1.971 0-3.465-.228-4.482-.683s-1.822-1.046-2.413-1.772c-.592-.728-.981-1.49-1.169-2.287-.271-1.183-.408-2.928-.408-5.235V23.407zm39.449 20.632h-4.531l-1.802-4.687h-8.247l-1.703 4.687h-4.419l8.036-20.632h4.405l8.261 20.632zm-7.67-8.163l-2.843-7.656-2.787 7.656h5.63zm9.894 8.163V23.407h8.768c2.205 0 3.807.186 4.806.556 1 .371 1.8 1.03 2.4 1.978.6.948.9 2.031.9 3.251 0 1.548-.455 2.827-1.365 3.835-.91 1.009-2.271 1.645-4.081 1.907.9.525 1.644 1.103 2.23 1.73.586.629 1.377 1.745 2.371 3.35l2.52 4.025h-4.982l-3.012-4.489c-1.069-1.604-1.801-2.615-2.195-3.033-.394-.417-.812-.703-1.253-.858-.44-.154-1.14-.232-2.097-.232h-.845v8.613h-4.165zm4.165-11.906h3.083c1.998 0 3.246-.084 3.743-.253s.887-.459 1.168-.873c.281-.413.422-.929.422-1.548 0-.694-.185-1.255-.556-1.682-.37-.427-.894-.696-1.569-.809-.338-.047-1.351-.07-3.04-.07h-3.251v5.235z"/></svg>