<svg xmlns="http://www.w3.org/2000/svg" width="200" height="50" viewBox="0 0 200 50"><path fill="#A3ABB0" d="M0 0h200v50H0z"/><text transform="translate(57.917 31.916)" fill="#FFF" font-family="'Arial'" font-size="20">Consulte-nos</text><path fill="#8C969C" d="M0 0h35.835v50H0z"/><path fill="#A3ABB0" d="M17.429 10.405c-7.881-.067-14.324 6.268-14.39 14.15-.066 7.881 6.268 14.323 14.148 14.39 7.881.067 14.324-6.266 14.392-14.147.067-7.882-6.269-14.326-14.15-14.393zm-.224 26.524c-6.768-.058-12.206-5.591-12.148-12.357s5.59-12.206 12.355-12.148c6.768.058 12.207 5.59 12.148 12.357-.057 6.765-5.59 12.204-12.355 12.148z"/><circle fill="#A3ABB0" cx="17.308" cy="24.676" r="11.039"/><path fill="#8C969C" d="M23.919 27.931l-3.355 3.354-3.256-3.253-3.256 3.253-3.355-3.354 3.256-3.255-3.256-3.256 3.355-3.356 3.256 3.256 3.256-3.256 3.355 3.356-3.255 3.256z"/></svg>