<svg xmlns="http://www.w3.org/2000/svg" width="279" height="66" viewBox="0 0 279 66"><path fill="#A5A5A5" d="M277.333 55.165A8.834 8.834 0 0 1 268.498 64H10.501a8.834 8.834 0 0 1-8.834-8.835V10.834A8.834 8.834 0 0 1 10.501 2h257.997a8.834 8.834 0 0 1 8.835 8.834v44.331z"/><path d="M41.025 37.188l3.018-.294c.182 1.013.55 1.757 1.105 2.232.555.475 1.305.712 2.248.712.999 0 1.752-.211 2.258-.634s.76-.917.76-1.482c0-.363-.106-.673-.32-.928-.213-.255-.585-.477-1.116-.665-.363-.126-1.191-.35-2.483-.671-1.663-.412-2.83-.918-3.5-1.52-.943-.846-1.415-1.875-1.415-3.091 0-.782.222-1.514.665-2.195.444-.681 1.083-1.2 1.918-1.556.834-.356 1.842-.534 3.023-.534 1.928 0 3.379.423 4.354 1.268s1.486 1.974 1.535 3.385l-3.102.136c-.133-.79-.417-1.357-.854-1.703-.437-.346-1.092-.519-1.965-.519-.901 0-1.607.185-2.117.555a1.12 1.12 0 0 0-.493.954c0 .363.153.674.461.933.391.329 1.341.671 2.851 1.026 1.509.357 2.625.726 3.348 1.106s1.289.901 1.698 1.562.613 1.476.613 2.446c0 .88-.245 1.705-.733 2.473-.489.77-1.181 1.34-2.075 1.714-.895.374-2.009.561-3.343.561-1.942 0-3.434-.449-4.475-1.347s-1.661-2.206-1.864-3.924zm13.813 4.999V26.824h11.391v2.599H57.94v3.406h7.712v2.588H57.94v4.182h8.582v2.588H54.838zm13.11 0V26.95h3.102v12.648h7.712v2.588H67.948zm11.738 0V26.824h11.391v2.599h-8.289v3.406H90.5v2.588h-7.712v4.182h8.582v2.588H79.686zm22.856-5.649l3.007.954c-.461 1.677-1.228 2.922-2.3 3.735-1.072.814-2.433 1.221-4.082 1.221-2.04 0-3.716-.696-5.03-2.09-1.313-1.395-1.97-3.3-1.97-5.717 0-2.557.66-4.542 1.98-5.957s3.056-2.122 5.208-2.122c1.879 0 3.406.555 4.579 1.666.699.657 1.223 1.6 1.572 2.83l-3.07.733c-.182-.796-.561-1.425-1.137-1.886-.577-.461-1.277-.691-2.101-.691-1.139 0-2.063.409-2.771 1.226-.709.817-1.064 2.142-1.064 3.972 0 1.942.349 3.325 1.048 4.149s1.607 1.236 2.725 1.236c.824 0 1.533-.262 2.127-.785.594-.525 1.02-1.349 1.279-2.474zm4.287 5.649V26.824h3.102v15.362h-3.102zm4.14-7.587c0-1.564.234-2.878.702-3.94a7.236 7.236 0 0 1 1.43-2.106c.604-.622 1.266-1.083 1.986-1.383.957-.405 2.061-.608 3.312-.608 2.263 0 4.074.702 5.433 2.106s2.038 3.356 2.038 5.857c0 2.48-.674 4.421-2.022 5.821s-3.15 2.101-5.407 2.101c-2.285 0-4.101-.696-5.449-2.09-1.348-1.394-2.023-3.313-2.023-5.758zm3.197-.105c0 1.739.401 3.058 1.205 3.956.803.897 1.823 1.346 3.06 1.346s2.251-.445 3.044-1.336 1.189-2.227 1.189-4.008c0-1.76-.386-3.074-1.158-3.94s-1.797-1.299-3.076-1.299-2.309.438-3.091 1.315-1.173 2.199-1.173 3.966zm12.869 7.692V26.824h3.018l6.287 10.259V26.824h2.882v15.362h-3.112l-6.193-10.018v10.018h-2.882zm14.179 0V26.824h11.391v2.599h-8.289v3.406h7.713v2.588h-7.713v4.182h8.582v2.588h-11.684zm30.758 0h-3.374l-1.341-3.489h-6.141l-1.269 3.489h-3.29l5.983-15.362h3.28l6.152 15.362zm-5.711-6.079l-2.116-5.7-2.075 5.7h4.191zm15.897.43l3.008.954c-.462 1.677-1.229 2.922-2.301 3.735-1.072.814-2.433 1.221-4.081 1.221-2.04 0-3.717-.696-5.03-2.09-1.313-1.395-1.97-3.3-1.97-5.717 0-2.557.66-4.542 1.98-5.957s3.056-2.122 5.208-2.122c1.879 0 3.405.555 4.579 1.666.698.657 1.223 1.6 1.572 2.83l-3.07.733c-.182-.796-.561-1.425-1.138-1.886-.576-.461-1.276-.691-2.101-.691-1.139 0-2.062.409-2.771 1.226-.709.817-1.063 2.142-1.063 3.972 0 1.942.349 3.325 1.048 4.149.698.824 1.606 1.236 2.725 1.236.824 0 1.533-.262 2.127-.785.594-.525 1.019-1.349 1.278-2.474zm4.287 5.649V26.824h3.102v15.362h-3.102zm4.728 0V26.824h4.642l2.788 10.479 2.756-10.479h4.652v15.362h-2.882V30.094l-3.049 12.093h-2.986l-3.039-12.093v12.093h-2.882zm30.484 0h-3.374l-1.341-3.489h-6.141l-1.269 3.489h-3.29l5.983-15.362h3.28l6.152 15.362zm-5.711-6.079l-2.116-5.7-2.075 5.7h4.191zm38.031 8.553h-14.274c-.543 0-1.039-.31-1.282-.797l-6.486-13.162a1.431 1.431 0 0 1 .271-1.639l2.37-2.374a1.427 1.427 0 0 1 1.877-.125l3.271 2.503c-.008-2.86-.021-7.181-.021-9.86 0-3.045 2.153-4.49 4.282-4.49 2.128 0 4.282 1.444 4.282 4.49v4.799l8.956 2.558a1.429 1.429 0 0 1 1.035 1.373v9.586c0 .223-.052.441-.151.639l-2.854 5.71a1.428 1.428 0 0 1-1.276.789m-13.386-2.854h12.502l2.31-4.619v-8.174l-8.954-2.558a1.43 1.43 0 0 1-1.036-1.373V17.78c0-1.315-.737-.996-1.428-.996-.689 0-1.427-.319-1.427.996v14.035c.001.545-.275 1.187-.763 1.427a1.416 1.416 0 0 1-1.501-.145l-4.582-3.505-.765.765 5.644 11.45zm14.811 4.281h-15.7c-.783 0-1.428.644-1.428 1.428v2.162h18.556v-2.162c0-.785-.641-1.428-1.428-1.428" fill="#FFF"/></svg>