<svg xmlns="http://www.w3.org/2000/svg" width="117.223" height="101" viewBox="0 0 117.223 101"><path fill="#ED2344" d="M101.012 100.396H0V.604h101.012l15.258 49.744z"/><path fill="#FFF" d="M58.194 87.283l-11.861 6.203c-.166.13-.323.062-.323-.148V80.764c0-.213.156-.279.322-.147l11.872 6.2c.165.128.155.339-.01.466M31.761 71.968c-5.535-5.536-5.535-35.41 0-40.944 5.534-5.535 35.408-5.535 40.941 0 5.533 5.534 5.533 35.408 0 40.944-5.532 5.532-35.406 5.532-40.941 0z"/><path fill="#ED2141" d="M32.979 70.749c-5.205-5.205-5.205-33.302 0-38.507 5.206-5.206 33.303-5.206 38.506 0 5.208 5.206 5.208 33.302 0 38.507-5.204 5.203-33.3 5.203-38.506 0z"/><path fill="#FFF" d="M47.643 61.213L50 48.604a5.168 5.168 0 0 1 2.23-9.827 5.165 5.165 0 0 1 2.229 9.827l2.359 12.609c.763 4.051-9.931 4.036-9.175 0M66.88 12.014a4.253 4.253 0 1 0 0 8.507 4.253 4.253 0 0 0 0-8.507zm0 6.721a2.468 2.468 0 1 1 .005-4.937 2.468 2.468 0 0 1-.005 4.937zM57.118 8.132a.967.967 0 0 0-.967.966v3.186a4.21 4.21 0 0 0-1.479-.27 4.253 4.253 0 0 0 0 8.506c.624 0 1.214-.14 1.745-.381a.967.967 0 0 0 .699.302.967.967 0 0 0 .967-.968V9.098a.963.963 0 0 0-.965-.966zm-4.912 8.135a2.468 2.468 0 0 1 3.947-1.974v3.947a2.467 2.467 0 0 1-3.947-1.973zm-2.743.095c0-.032.004-.063.004-.095a4.252 4.252 0 1 0-8.505 0 4.253 4.253 0 0 0 4.253 4.253c.905 0 1.742-.285 2.431-.767a.916.916 0 0 0 1.832 0v-3.395l-.015.004zm-4.249 2.373a2.469 2.469 0 1 1 2.469-2.468c0 .135-.014.267-.035.397h-.003v.014a2.466 2.466 0 0 1-2.431 2.057zm16.076.833a.945.945 0 0 1-1.889 0v-6.92a.944.944 0 0 1 1.889 0v6.92zm-22.989 0a.943.943 0 1 1-1.888 0V13.87a.945.945 0 0 1 1.888 0v5.698zM61.29 9.584a.944.944 0 1 1-1.889 0v.098a.945.945 0 0 1 1.889 0v-.098zM40.845 12.94a.946.946 0 0 1-1.891 0v.099a.947.947 0 0 1 1.891 0v-.099z"/><path fill="#FFF" d="M39.8 13.978c-1.235.104-1.525 1.708-1.525 1.708l-1.449-.864s.763-2.468 3.001-2.722c.868-.1 1.209 1.774-.027 1.878zm6.754-5.41a.738.738 0 0 1-.28 1.004l-1.948 1.099a.738.738 0 0 1-.725-1.284l1.947-1.1a.74.74 0 0 1 1.006.281zM22.276 21.849a.985.985 0 0 0 .985-.984c0-.038-.007-.074-.011-.11a13.92 13.92 0 0 1-.819-4.714c0-1.852.364-3.617 1.021-5.23.026-.09.048-.184.048-.283a.985.985 0 0 0-.986-.984.974.974 0 0 0-.812.438 15.8 15.8 0 0 0-1.203 6.06c0 1.833.314 3.59.887 5.228a.973.973 0 0 0 .89.579zm4.162-1.089a.956.956 0 0 0 .954-.955c0-.021-.004-.042-.005-.062a9.658 9.658 0 0 1-.734-3.702c0-1.545.364-3.006 1.008-4.302a.959.959 0 0 0-.942-1.122.941.941 0 0 0-.703.32 11.42 11.42 0 0 0-1.193 5.104c0 1.518.297 2.965.83 4.293a.939.939 0 0 0 .785.426zm3.895-1.038a.808.808 0 0 0 .788-.829c0-.021-.004-.043-.007-.065a5.896 5.896 0 0 1-.698-2.787c0-1.235.378-2.38 1.022-3.329a.81.81 0 0 0-.766-.998.794.794 0 0 0-.527.185 7.41 7.41 0 0 0-1.256 4.141c0 1.233.301 2.395.832 3.419a.787.787 0 0 0 .612.263zM84.236 9.544a.983.983 0 0 0-.984.984c0 .038.006.074.011.11a13.94 13.94 0 0 1-.202 9.943c-.026.09-.049.184-.049.283 0 .543.441.984.986.984a.975.975 0 0 0 .812-.438 15.841 15.841 0 0 0 .313-11.288.973.973 0 0 0-.887-.578zm-4.161 1.091a.954.954 0 0 0-.955.953c0 .021.004.042.006.062a9.651 9.651 0 0 1 .732 3.703 9.621 9.621 0 0 1-1.007 4.301.815.815 0 0 0-.017.164.96.96 0 0 0 .957.958.947.947 0 0 0 .704-.318 11.46 11.46 0 0 0 1.192-5.105c0-1.518-.296-2.965-.832-4.293a.925.925 0 0 0-.78-.425zm-3.896 1.035a.808.808 0 0 0-.788.829.35.35 0 0 0 .008.065c.442.83.696 1.779.696 2.787 0 1.235-.379 2.38-1.021 3.329a.808.808 0 0 0 .764.998.787.787 0 0 0 .528-.185 7.413 7.413 0 0 0 1.257-4.141 7.44 7.44 0 0 0-.831-3.419.809.809 0 0 0-.613-.263z"/><circle fill="#ED2344" cx="103.885" cy="12.322" r="12.322"/><circle fill="#FFF" cx="103.885" cy="12.322" r="10.224"/><g fill="#ED2344"><path d="M102.044 16.724a1.252 1.252 0 0 1-1.769 0 1.252 1.252 0 0 1 0-1.768l6.808-6.806a1.25 1.25 0 0 1 1.768 1.768l-6.807 6.806z"/><path d="M108.85 14.956a1.25 1.25 0 0 1-1.768 1.768l-6.808-6.807a1.252 1.252 0 0 1 0-1.768 1.252 1.252 0 0 1 1.769 0l6.807 6.807z"/></g><path fill="#ED2344" d="M101.012 100.396H0V.604h101.012l15.258 49.744z"/><path fill="#FFF" d="M58.194 87.283l-11.861 6.203c-.166.13-.323.062-.323-.148V80.764c0-.213.156-.279.322-.147l11.872 6.2c.165.128.155.339-.01.466M31.761 71.968c-5.535-5.536-5.535-35.41 0-40.944 5.534-5.535 35.408-5.535 40.941 0 5.533 5.534 5.533 35.408 0 40.944-5.532 5.532-35.406 5.532-40.941 0z"/><path fill="#ED2141" d="M32.979 70.749c-5.205-5.205-5.205-33.302 0-38.507 5.206-5.206 33.303-5.206 38.506 0 5.208 5.206 5.208 33.302 0 38.507-5.204 5.203-33.3 5.203-38.506 0z"/><path fill="#FFF" d="M47.643 61.213L50 48.604a5.168 5.168 0 0 1 2.23-9.827 5.165 5.165 0 0 1 2.229 9.827l2.359 12.609c.763 4.051-9.931 4.036-9.175 0"/><g fill="#FFF"><path d="M66.88 12.014a4.253 4.253 0 1 0 0 8.507 4.253 4.253 0 0 0 0-8.507zm0 6.721a2.468 2.468 0 1 1 .005-4.937 2.468 2.468 0 0 1-.005 4.937zM57.118 8.132a.967.967 0 0 0-.967.966v3.186a4.21 4.21 0 0 0-1.479-.27 4.253 4.253 0 0 0 0 8.506c.624 0 1.214-.14 1.745-.381a.967.967 0 0 0 .699.302.967.967 0 0 0 .967-.968V9.098a.963.963 0 0 0-.965-.966zm-4.912 8.135a2.468 2.468 0 0 1 3.947-1.974v3.947a2.467 2.467 0 0 1-3.947-1.973zm-2.743.095c0-.032.004-.063.004-.095a4.252 4.252 0 1 0-8.505 0 4.253 4.253 0 0 0 4.253 4.253c.905 0 1.742-.285 2.431-.767a.916.916 0 0 0 1.832 0v-3.395l-.015.004zm-4.249 2.373a2.469 2.469 0 1 1 2.469-2.468c0 .135-.014.267-.035.397h-.003v.014a2.466 2.466 0 0 1-2.431 2.057zm16.076.833a.945.945 0 0 1-1.889 0v-6.92a.944.944 0 0 1 1.889 0v6.92zm-22.989 0a.943.943 0 1 1-1.888 0V13.87a.945.945 0 0 1 1.888 0v5.698zM61.29 9.584a.944.944 0 1 1-1.889 0v.098a.945.945 0 0 1 1.889 0v-.098zM40.845 12.94a.946.946 0 0 1-1.891 0v.099a.947.947 0 0 1 1.891 0v-.099z"/><path d="M39.8 13.978c-1.235.104-1.525 1.708-1.525 1.708l-1.449-.864s.763-2.468 3.001-2.722c.868-.1 1.209 1.774-.027 1.878zm6.754-5.41a.738.738 0 0 1-.28 1.004l-1.948 1.099a.738.738 0 0 1-.725-1.284l1.947-1.1a.74.74 0 0 1 1.006.281zM22.276 21.849a.985.985 0 0 0 .985-.984c0-.038-.007-.074-.011-.11a13.92 13.92 0 0 1-.819-4.714c0-1.852.364-3.617 1.021-5.23.026-.09.048-.184.048-.283a.985.985 0 0 0-.986-.984.974.974 0 0 0-.812.438 15.8 15.8 0 0 0-1.203 6.06c0 1.833.314 3.59.887 5.228a.973.973 0 0 0 .89.579zm4.162-1.089a.956.956 0 0 0 .954-.955c0-.021-.004-.042-.005-.062a9.658 9.658 0 0 1-.734-3.702c0-1.545.364-3.006 1.008-4.302a.959.959 0 0 0-.942-1.122.941.941 0 0 0-.703.32 11.42 11.42 0 0 0-1.193 5.104c0 1.518.297 2.965.83 4.293a.939.939 0 0 0 .785.426zm3.895-1.038a.808.808 0 0 0 .788-.829c0-.021-.004-.043-.007-.065a5.896 5.896 0 0 1-.698-2.787c0-1.235.378-2.38 1.022-3.329a.81.81 0 0 0-.766-.998.794.794 0 0 0-.527.185 7.41 7.41 0 0 0-1.256 4.141c0 1.233.301 2.395.832 3.419a.787.787 0 0 0 .612.263zM84.236 9.544a.983.983 0 0 0-.984.984c0 .038.006.074.011.11a13.94 13.94 0 0 1-.202 9.943c-.026.09-.049.184-.049.283 0 .543.441.984.986.984a.975.975 0 0 0 .812-.438 15.841 15.841 0 0 0 .313-11.288.973.973 0 0 0-.887-.578zm-4.161 1.091a.954.954 0 0 0-.955.953c0 .021.004.042.006.062a9.651 9.651 0 0 1 .732 3.703 9.621 9.621 0 0 1-1.007 4.301.815.815 0 0 0-.017.164.96.96 0 0 0 .957.958.947.947 0 0 0 .704-.318 11.46 11.46 0 0 0 1.192-5.105c0-1.518-.296-2.965-.832-4.293a.925.925 0 0 0-.78-.425zm-3.896 1.035a.808.808 0 0 0-.788.829.35.35 0 0 0 .008.065c.442.83.696 1.779.696 2.787 0 1.235-.379 2.38-1.021 3.329a.808.808 0 0 0 .764.998.787.787 0 0 0 .528-.185 7.413 7.413 0 0 0 1.257-4.141 7.44 7.44 0 0 0-.831-3.419.809.809 0 0 0-.613-.263z"/></g><g fill="#FFF"><path d="M100.198 38.201a3.855 3.855 0 1 0 7.71 0 3.855 3.855 0 0 0-7.71 0zm6.091 0a2.236 2.236 0 1 1-4.473-.003 2.236 2.236 0 0 1 4.473.003zm-9.611 8.848c0 .484.393.875.876.875h2.889a3.816 3.816 0 0 0-.244 1.34 3.855 3.855 0 1 0 7.708 0c0-.565-.127-1.1-.346-1.582a.877.877 0 0 0 .273-.633.877.877 0 0 0-.877-.876h-9.404a.874.874 0 0 0-.875.876zm7.374 4.452a2.238 2.238 0 0 1-1.79-3.577h3.578a2.235 2.235 0 0 1-1.788 3.577zm.086 2.485c-.029 0-.058-.004-.086-.004a3.854 3.854 0 1 0 3.16 1.651.832.832 0 0 0 0-1.661h-3.078l.004.014zm2.151 3.853a2.237 2.237 0 1 1-1.877-2.206v.003h.014a2.233 2.233 0 0 1 1.863 2.203zm.756-14.572a.856.856 0 1 1 0 1.713h-6.272a.856.856 0 1 1 0-1.713h6.272zm0 20.837a.855.855 0 1 1 0 1.712h-5.164a.857.857 0 0 1-.859-.855c0-.475.386-.857.859-.857h5.164zm-9.05-20.837c.473 0 .854.383.854.855a.854.854 0 0 1-.854.858h.089a.856.856 0 1 1 0-1.713h-.089zm3.042 18.531a.857.857 0 1 1 0 1.715h.089a.857.857 0 0 1-.856-.859c0-.473.383-.856.856-.856h-.089z"/><path d="M101.977 62.746c.094 1.119 1.549 1.383 1.549 1.383l-.783 1.314s-2.236-.691-2.468-2.721c-.091-.786 1.609-1.097 1.702.024zm-4.903-6.123a.668.668 0 0 1 .909.254l.995 1.768a.667.667 0 1 1-1.163.655l-.997-1.765a.673.673 0 0 1 .256-.912z"/></g><circle fill="#ED2344" cx="103.885" cy="12.322" r="12.322"/><circle fill="#FFF" cx="103.885" cy="12.322" r="10.224"/><g fill="#ED2344"><path d="M99.75 13.687c-.689 0-1.25-.56-1.251-1.25a1.253 1.253 0 0 1 1.251-1.25l9.626.001a1.25 1.25 0 0 1 0 2.5l-9.626-.001z"/><path d="M105.813 17.25a1.25 1.25 0 0 1-2.5 0V7.623a1.251 1.251 0 0 1 2.5 0v9.627z"/></g></svg>