<svg xmlns="http://www.w3.org/2000/svg" width="117.223" height="101" viewBox="0 0 117.223 101"><path fill="#ED2344" d="M101.012 100.396H0V.604h101.012l15.258 49.744z"/><path fill="#FFF" d="M58.194 87.283l-11.862 6.203c-.166.13-.323.062-.323-.148V80.764c0-.213.156-.279.322-.148l11.872 6.201c.166.128.156.339-.009.466M31.761 71.968c-5.535-5.536-5.535-35.41 0-40.944 5.534-5.535 35.408-5.535 40.941 0 5.534 5.534 5.534 35.408 0 40.944-5.532 5.532-35.406 5.532-40.941 0z"/><path fill="#ED2141" d="M32.979 70.749c-5.205-5.205-5.205-33.302 0-38.507 5.206-5.206 33.302-5.206 38.506 0 5.208 5.206 5.208 33.302 0 38.507-5.204 5.203-33.3 5.203-38.506 0z"/><path fill="#FFF" d="M47.643 61.213L50 48.604a5.167 5.167 0 1 1 7.397-4.661 5.167 5.167 0 0 1-2.937 4.661l2.36 12.609c.761 4.051-9.933 4.036-9.177 0M66.88 12.014a4.253 4.253 0 1 0 0 8.507 4.253 4.253 0 0 0 0-8.507zm0 6.721a2.468 2.468 0 1 1 .005-4.937 2.468 2.468 0 0 1-.005 4.937zM57.118 8.132a.966.966 0 0 0-.966.966v3.186a4.21 4.21 0 0 0-1.479-.27 4.253 4.253 0 0 0 0 8.506c.624 0 1.214-.14 1.745-.381a.967.967 0 0 0 1.666-.666V9.098a.964.964 0 0 0-.966-.966zm-4.912 8.135a2.469 2.469 0 0 1 3.947-1.974v3.947a2.467 2.467 0 0 1-3.947-1.973zm-2.743.095c0-.032.004-.063.004-.095a4.252 4.252 0 1 0-8.505 0 4.253 4.253 0 0 0 4.253 4.253c.905 0 1.742-.285 2.431-.767a.916.916 0 0 0 1.832 0v-3.395l-.015.004zm-4.249 2.373a2.469 2.469 0 1 1 2.469-2.468c0 .135-.014.267-.035.397h-.003v.014a2.466 2.466 0 0 1-2.431 2.057zm16.076.833a.944.944 0 1 1-1.889 0v-6.92a.944.944 0 1 1 1.889 0v6.92zm-22.989 0a.944.944 0 1 1-1.889 0V13.87a.945.945 0 0 1 1.889 0v5.698zM61.29 9.584a.944.944 0 1 1-1.889 0v.098a.945.945 0 0 1 1.889 0v-.098zM40.845 12.94a.946.946 0 0 1-1.892 0v.099a.947.947 0 0 1 1.892 0v-.099z"/><path fill="#FFF" d="M39.8 13.978c-1.235.104-1.525 1.708-1.525 1.708l-1.45-.864s.763-2.468 3.001-2.722c.869-.1 1.21 1.774-.026 1.878zm6.754-5.41a.738.738 0 0 1-.28 1.004l-1.949 1.099a.736.736 0 1 1-.724-1.284l1.947-1.1a.74.74 0 0 1 1.006.281zM22.276 21.849a.985.985 0 0 0 .985-.984c0-.038-.007-.074-.011-.11a13.92 13.92 0 0 1-.819-4.714c0-1.852.364-3.617 1.02-5.23a.982.982 0 0 0 .048-.283.985.985 0 0 0-.986-.984.974.974 0 0 0-.812.438 15.8 15.8 0 0 0-1.203 6.06c0 1.833.315 3.59.887 5.228a.976.976 0 0 0 .891.579zm4.162-1.089a.956.956 0 0 0 .954-.955c0-.021-.004-.042-.005-.062a9.658 9.658 0 0 1-.734-3.702c0-1.545.364-3.006 1.007-4.302a.959.959 0 0 0-.942-1.122.941.941 0 0 0-.703.32 11.42 11.42 0 0 0-1.193 5.104c0 1.518.296 2.965.83 4.293a.942.942 0 0 0 .786.426zm3.895-1.038a.808.808 0 0 0 .788-.829c0-.021-.004-.043-.007-.065a5.896 5.896 0 0 1-.698-2.787 5.9 5.9 0 0 1 1.023-3.329.81.81 0 0 0-.766-.998.794.794 0 0 0-.527.185 7.41 7.41 0 0 0-1.256 4.141c0 1.233.301 2.395.832 3.419a.784.784 0 0 0 .611.263zM84.236 9.544a.984.984 0 0 0-.985.984c0 .038.006.074.011.11a13.94 13.94 0 0 1-.201 9.943.982.982 0 0 0-.049.283c0 .543.441.984.986.984a.975.975 0 0 0 .812-.438 15.841 15.841 0 0 0 .313-11.288.973.973 0 0 0-.887-.578zm-4.161 1.091a.954.954 0 0 0-.955.953c0 .021.004.042.006.062a9.652 9.652 0 0 1 .733 3.703 9.634 9.634 0 0 1-1.007 4.301.815.815 0 0 0-.017.164.96.96 0 0 0 .957.958c.281 0 .53-.125.704-.318a11.461 11.461 0 0 0 1.193-5.105c0-1.518-.296-2.965-.832-4.293a.931.931 0 0 0-.782-.425zm-3.896 1.035a.808.808 0 0 0-.788.829.35.35 0 0 0 .008.065c.442.83.696 1.779.696 2.787 0 1.235-.379 2.38-1.022 3.329a.808.808 0 0 0 .764.998.787.787 0 0 0 .528-.185 7.413 7.413 0 0 0 1.257-4.141 7.428 7.428 0 0 0-.831-3.419.805.805 0 0 0-.612-.263z"/><circle fill="#ED2344" cx="103.885" cy="12.322" r="12.322"/><circle fill="#FFF" cx="103.885" cy="12.322" r="10.224"/><g fill="#ED2344"><path d="M102.044 16.724a1.25 1.25 0 0 1-1.768-1.768l6.807-6.806a1.25 1.25 0 0 1 1.768 1.768l-6.807 6.806z"/><path d="M108.85 14.956a1.25 1.25 0 0 1-1.768 1.768l-6.807-6.807a1.25 1.25 0 0 1 1.768-1.768l6.807 6.807z"/></g></svg>