<svg xmlns="http://www.w3.org/2000/svg" width="37" height="31" viewBox="0 0 37 31"><path fill="#FFF" d="M34.906 6.172a1.322 1.322 0 0 0-1.023-.49H8.667l-1.003-4.23A1.307 1.307 0 0 0 6.39.446H3.12a1.308 1.308 0 1 0 0 2.618h2.237l5.655 23.563h.002c.134.654.652 1.31 1.27 1.31h1.43a1.96 1.96 0 0 0-.12.655 1.964 1.964 0 0 0 3.926 0c0-.23-.046-.447-.12-.654h6.786c-.072.207-.12.425-.12.655a1.964 1.964 0 0 0 3.927 0c0-.23-.044-.447-.118-.654h1.43a1.308 1.308 0 0 0 0-2.62H13.317l-1.24-5.235h19.187c.615 0 1.146-.424 1.28-1.024L35.16 7.28a1.317 1.317 0 0 0-.254-1.104z"/></svg>