<svg xmlns="http://www.w3.org/2000/svg" width="193.333" height="126.333" viewBox="0 0 193.333 126.333"><linearGradient id="a" gradientUnits="userSpaceOnUse" x1="123.061" y1="39.539" x2="123.061" y2="132.648"><stop offset=".018" stop-color="#e61e26"/><stop offset=".16" stop-color="#e61e26"/><stop offset=".227" stop-color="#ac1217"/><stop offset=".583" stop-color="#ae271d"/><stop offset=".939" stop-color="#e61e26"/></linearGradient><path fill="url(#a)" d="M192.506 110.575c0 5.479-4.441 9.921-9.922 9.921H63.538c-5.48 0-9.922-4.442-9.922-9.921V61.58c0-5.479 4.441-9.921 9.922-9.921h119.046c5.48 0 9.922 4.442 9.922 9.921v48.995z"/><radialGradient id="b" cx="80.581" cy="57.666" r="30.255" gradientUnits="userSpaceOnUse"><stop offset=".213" stop-color="#4b0000"/><stop offset=".939" stop-color="#af1318"/></radialGradient><path fill="url(#b)" d="M53.616 61.58v48.996c0 5.479 4.441 9.921 9.922 9.921h21.828c13.494-10.646 22.179-27.21 22.179-45.831a58.392 58.392 0 0 0-4.696-23.007H63.538c-5.48-.001-9.922 4.441-9.922 9.921z"/><linearGradient id="c" gradientUnits="userSpaceOnUse" x1="123.061" y1="51.101" x2="123.061" y2="127.335"><stop offset=".018" stop-color="#e61e26"/><stop offset=".16" stop-color="#e61e26"/><stop offset=".227" stop-color="#ac1217"/><stop offset=".583" stop-color="#ae271d"/><stop offset=".939" stop-color="#e61e26"/></linearGradient><path fill="url(#c)" d="M53.616 92.666v17.909c0 5.479 4.441 9.921 9.922 9.921h119.046c5.48 0 9.922-4.442 9.922-9.921V92.666H53.616z"/><linearGradient id="d" gradientUnits="userSpaceOnUse" x1="2.123" y1="81.161" x2="85.687" y2="81.161"><stop offset=".018" stop-color="#b5b5b5"/><stop offset=".27" stop-color="#fafafa"/><stop offset=".54" stop-color="#4f4f4f"/><stop offset=".945" stop-color="#c7c7c7"/></linearGradient><path fill="url(#d)" d="M84.608 81.159c0 24.486-18.646 44.333-41.646 44.333-23.001 0-41.647-19.847-41.647-44.333 0-24.481 18.646-44.329 41.647-44.329 23.001 0 41.646 19.848 41.646 44.329z"/><circle fill="#D1D2D1" cx="43.009" cy="83.932" r="41.238"/><linearGradient id="e" gradientUnits="userSpaceOnUse" x1="3.271" y1="84.647" x2="84.581" y2="84.647"><stop offset=".018" stop-color="#e3e3e3"/><stop offset=".27" stop-color="#fafafa"/><stop offset=".54" stop-color="#8f8f8f"/><stop offset=".945" stop-color="#fff"/></linearGradient><circle fill="url(#e)" cx="43.009" cy="84.646" r="40.523"/><linearGradient id="f" gradientUnits="userSpaceOnUse" x1="43.008" y1="55.86" x2="43.008" y2="111.838"><stop offset="0" stop-color="#3e0000"/><stop offset=".325"/><stop offset=".847" stop-color="#fbbea7"/><stop offset=".982" stop-color="#fee7dc"/></linearGradient><circle fill="url(#f)" cx="43.009" cy="84.646" r="35.824"/><linearGradient id="g" gradientUnits="userSpaceOnUse" x1="43.008" y1="44.074" x2="43.008" y2="121.713"><stop offset="0" stop-color="#c4161c"/><stop offset=".411" stop-color="#c4161c"/><stop offset=".847" stop-color="#fbbea7"/><stop offset=".982" stop-color="#fee7dc"/></linearGradient><circle fill="url(#g)" cx="43.009" cy="84.646" r="34.394"/><circle fill="#CE242B" cx="43.009" cy="84.646" r="32.991"/><circle fill="#EF4130" cx="43.008" cy="83.445" r="26.18"/><circle fill="#BA141A" cx="43.009" cy="83.946" r="26.08"/><circle fill="#BA141A" cx="43.009" cy="83.946" r="26.08"/><linearGradient id="h" gradientUnits="userSpaceOnUse" x1="43.008" y1="60.301" x2="43.008" y2="108.579"><stop offset="0" stop-color="#d1d3d4"/><stop offset=".497" stop-color="#bcbec0"/><stop offset=".982"/></linearGradient><circle fill="url(#h)" cx="43.009" cy="83.946" r="25.078"/><linearGradient id="i" gradientUnits="userSpaceOnUse" x1="5.882" y1="31.655" x2="82.478" y2="139.536"><stop offset="0" stop-color="#c4c6c8"/><stop offset=".301" stop-color="#d6d7d8"/><stop offset=".485" stop-color="#efeff0"/><stop offset=".982"/></linearGradient><circle fill="url(#i)" cx="43.009" cy="83.946" r="24.076"/><linearGradient id="j" gradientUnits="userSpaceOnUse" x1="47.998" y1="53.005" x2="15.664" y2="-3.997" gradientTransform="rotate(19.074 -102.895 91.675)"><stop offset="0" stop-color="#d1d3d4"/><stop offset=".497" stop-color="#bcbec0"/><stop offset=".982"/></linearGradient><path fill="url(#j)" d="M51.052 61.287c-8.902-3.078-18.379-.583-24.641 5.633 2.769.165 5.574.703 8.341 1.66 15.39 5.322 23.799 21.394 18.785 35.894-.13.377-.272.745-.419 1.112 5.752-2.614 10.466-7.487 12.693-13.931 4.311-12.461-2.297-26.058-14.759-30.368z"/><linearGradient id="k" gradientUnits="userSpaceOnUse" x1="28.6" y1="87.843" x2="69.611" y2="75.047"><stop offset="0" stop-color="#c4c6c8"/><stop offset=".485" stop-color="#efeff0"/><stop offset=".982" stop-color="#fff"/></linearGradient><path fill="url(#k)" d="M57.481 68.166c-.791-.042-14.252 0-16.917 0-10.1 0-12.031 9.396-12.25 11.521s-.326 6.576-.407 8.812c-.081 9.333 9.49 9.5 9.49 9.5h11.748s4.4-.588 5.585-5.5c.065-.359.129-.756.185-1.125.111-.744-.399-1.375-1.336-1.375H41.397c-4.056 0-3.5-3.667-3.5-3.667l.667-6.166s.349-4.167 5.833-4.167h7.419c1.999 0 4.978-1 5.665-7.833z"/><path fill="#CE242B" d="M55.878 69.749H41.253c-8.75 0-10.875 7.938-11.062 10s-.438 9.812-.438 9.812.25 6.938 7.625 6.938h12.25s1.045-.123 2.073-1.182c1.171-1.206 1.207-1.454 1.803-3.193.5-1-.812-1-.812-1H40.504c-4.625 0-4.125-3.625-4.125-3.625l.438-8.25s.562-4.562 5.5-4.625h9.375s2-.125 2.75-1.312 1.436-3.563 1.436-3.563z"/><path d="M22.51 64.698l-2.394-2.194-.661.72 2.393 2.194c.216-.244.438-.482.662-.72zm-7.774 19.457c0-.187.011-.372.015-.559l-3.249-.008-.002.977 3.247.008c-.002-.139-.011-.277-.011-.418zm3.268-13.191l-2.891-1.463-.441.872 2.887 1.46c.142-.293.293-.581.445-.869zm18.748-14.371l-.771-3.149-.949.232.77 3.143c.314-.082.632-.155.95-.226zM15.493 77.669l-3.168-.689-.208.955 3.165.688c.063-.32.137-.638.211-.954zm47.385-13.604l2.242-2.345-.708-.675-2.241 2.345c.239.222.475.446.707.675zm7.274 12.24l3.099-.953-.289-.936-3.096.954c.102.31.196.621.286.935zm-3.014-6.86l2.736-1.733-.523-.826-2.74 1.735c.179.273.357.545.527.824zM50.207 56.821l.771-3.143-.95-.232-.772 3.148c.318.072.636.144.951.227zm7.082 2.95l1.591-2.825-.853-.48-1.587 2.82c.288.155.569.32.849.485zm-14.288-3.88c.164 0 .326.01.489.013v-3.248h-.977v3.248c.163-.004.324-.013.488-.013zm-14.483 3.992L26.81 57.13l-.831.515 1.711 2.757c.274-.176.548-.352.828-.519zm39.48 37.464l2.892 1.463.441-.874-2.887-1.46c-.142.294-.294.583-.446.871zm-4.506 6.264l2.394 2.195.661-.722-2.392-2.194c-.217.245-.437.484-.663.721zm-6.007 4.816l1.707 2.753.831-.517-1.71-2.756c-.273.177-.548.352-.828.52zm-8.234 3.291l.771 3.148.949-.231-.77-3.144c-.314.082-.632.155-.95.227zM15.85 92.006l-3.097.953.288.935 3.095-.953c-.101-.31-.196-.622-.286-.935zm55.405-8.271c.002.141.011.278.011.42 0 .187-.011.372-.015.559l3.25.008.001-.979-3.247-.008zm-.746 6.907l3.168.689.207-.957-3.163-.688c-.064.321-.138.639-.212.956zm-51.645 8.224l-2.734 1.732.523.825 2.739-1.735c-.18-.271-.358-.542-.528-.822zm4.261 5.38l-2.24 2.344.707.676 2.241-2.345a25.136 25.136 0 0 1-.708-.675zm12.672 7.244l-.771 3.143.949.232.772-3.148a24.782 24.782 0 0 1-.95-.227zm-7.083-2.95l-1.59 2.825.852.479 1.586-2.818c-.287-.156-.567-.322-.848-.486zm14.287 3.88c-.164 0-.325-.01-.488-.013v3.248h.977v-3.248c-.163.003-.325.013-.489.013z" fill="#FFF"/><path fill="#4D4E4E" d="M22.686 45.547a38.731 38.731 0 0 1 1.794-1.001V27.669s.962-16.171 19.25-16.171S61.441 26.61 61.441 26.61v17.886c.634.329 1.255.678 1.868 1.04a43.563 43.563 0 0 1 10.164 7.449V27.848S73.375 1.873 44.596.814h-1.444c-30.513 0-30.608 27.034-30.608 27.034v25.137a43.544 43.544 0 0 1 10.142-7.438z"/><path fill="#B3B4B3" d="M23.165 45.302V26.29s1.254-16.833 20.54-16.833c19.285 0 18.814 15.118 18.814 15.118v20.471c3.42 1.722 6.58 3.963 9.408 6.489V24.731S68.79 1.664 43.705 1.664c-28.692 0-29.477 24.313-29.477 24.313v25.438c2.7-2.391 5.7-4.448 8.937-6.113z"/><path fill="#E6E6E5" d="M16.579 49.328V26.437S17.834 2.448 43.077 2.448s26.184 22.578 26.184 22.578v24.146l-4.077-2.656V25.025S63.146 6.994 42.92 7.151c-20.539.16-21.794 21.794-21.794 21.794v17.09l-4.547 3.293z"/><linearGradient id="l" gradientUnits="userSpaceOnUse" x1="42.92" y1="35.912" x2="42.92" y2="9.477"><stop offset=".018" stop-color="#b5b5b5"/><stop offset=".675" stop-color="#fafafa"/></linearGradient><path fill="url(#l)" d="M16.579 49.328V26.437S17.834 2.448 43.077 2.448s26.184 22.578 26.184 22.578v24.146l-4.077-2.688V25.025S63.146 6.994 42.92 7.151c-20.539.16-21.794 21.794-21.794 21.794v17.09l-4.547 3.293z"/><linearGradient id="m" gradientUnits="userSpaceOnUse" x1="18.279" y1="61.835" x2="17.893" y2="39.073"><stop offset=".018" stop-color="#b5b5b5"/><stop offset=".27" stop-color="#fafafa"/><stop offset=".54" stop-color="#4f4f4f"/><stop offset=".945" stop-color="#c7c7c7"/></linearGradient><path fill="url(#m)" d="M19.211 47.166V28.999l-2.632 20.329z"/><linearGradient id="n" gradientUnits="userSpaceOnUse" x1="23.342" y1="98.243" x2="21.793" y2="6.725"><stop offset=".018" stop-color="#b5b5b5"/><stop offset=".27" stop-color="#fafafa"/><stop offset=".54" stop-color="#2b2b2b"/><stop offset=".945" stop-color="#c7c7c7"/></linearGradient><path fill="url(#n)" d="M15.638 49.959V26.183c0-13.57 13.028-20.193 13.028-20.193s-11.617 7.491-11.617 19.867v23.22l-1.411.882z"/><path fill="#7D7D7D" d="M59.224 6.717s10.287 7.126 10.86 18.534c.237 4.901 0 24.616 0 24.616l-1.304-.869V25.025c0-10.641-9.556-18.308-9.556-18.308z"/><path fill="#4D4E4E" d="M12.544 52.984s5.683-5.498 11.936-8.439c-.113-.321-8.909 4.739-9.642 5.435-1.278 1.215-2.294 3.004-2.294 3.004zm60.922 0s-5.377-5.31-11.629-8.251c.112-.321 8.418 4.355 9.234 4.953 1.602 1.175 2.395 3.298 2.395 3.298z"/><path fill="#7D7D7D" d="M62.522 44.556s3.768 1.63 8.445 5.08c-2.752-1.735-8.487-4.678-8.487-4.678l.042-.402z"/><linearGradient id="o" gradientUnits="userSpaceOnUse" x1="91.112" y1="98.482" x2="103.779" y2="98.482"><stop offset="0" stop-color="#c4c6c8"/><stop offset=".442" stop-color="#d6d7d8"/><stop offset=".767" stop-color="#efeff0"/></linearGradient><path fill="url(#o)" d="M103.432 93.56l-3.14.857s-1.326-4.077-4.088-2.12c-1.93 1.368.363 3.454 1.434 3.787 7.32 1.833 6.255 6.286 5.83 7.83-1.718 4.628-6.232 3.813-7.309 3.741-3.867-.322-5.047-4.438-5.047-4.438L94.157 102s2.035 4.429 4.96 2.61c3.383-2.86-1.74-4.438-1.74-4.438s-5.685-1.396-5.698-6.122c-.006-2.351 2.176-5.754 8.285-4.613 3.007.633 3.468 4.123 3.468 4.123z"/><linearGradient id="p" gradientUnits="userSpaceOnUse" x1="112.139" y1="106.526" x2="112.139" y2="97.45"><stop offset="0" stop-color="#c4c6c8"/><stop offset=".442" stop-color="#d6d7d8"/><stop offset=".767" stop-color="#efeff0"/></linearGradient><path fill="url(#p)" d="M117.509 92.753v-2.969h-10.74v17.901h10.74v-2.969h-7.51v-4.715h5.59v-2.969h-5.59v-4.279z"/><linearGradient id="q" gradientUnits="userSpaceOnUse" x1="171.776" y1="105.374" x2="171.776" y2="84.776"><stop offset="0" stop-color="#c4c6c8"/><stop offset=".442" stop-color="#d6d7d8"/><stop offset=".767" stop-color="#efeff0"/></linearGradient><path fill="url(#q)" d="M177.146 92.753v-2.969h-10.741v17.901h10.741v-2.969h-7.509v-4.715h5.589v-2.969h-5.589v-4.279z"/><linearGradient id="r" gradientUnits="userSpaceOnUse" x1="157.182" y1="105.95" x2="157.182" y2="91.827"><stop offset="0" stop-color="#c4c6c8"/><stop offset=".442" stop-color="#d6d7d8"/><stop offset=".767" stop-color="#efeff0"/></linearGradient><path fill="url(#r)" d="M161.083 99.437c2.944-.883 4.67-9.652-2.914-9.652h-7.393v17.9h3.23v-7.693h2.692l2.856 7.678h3.84l-3-8.068c.253-.051.488-.105.689-.165zm-2.96-6.684c2.405 0 2.913 4.279-.04 4.279-2.045 0-3.415.021-4.076.034v-4.313h4.116z"/><linearGradient id="s" gradientUnits="userSpaceOnUse" x1="125.996" y1="106.526" x2="125.996" y2="90.571"><stop offset="0" stop-color="#c4c6c8"/><stop offset=".442" stop-color="#d6d7d8"/><stop offset=".767" stop-color="#efeff0"/></linearGradient><path fill="url(#s)" d="M132.583 96.166h-3.795s.164-2.665-1.313-3.732c-1.013-.657-2.392-.518-3.225.315s-1.417 2.666-1.333 6.583c.083 3.917 1.416 4.834 1.416 4.834s2 1.084 3.334 0c1.333-1.084 1.583-3.167 1.583-3.167h3.25s-.583 4.667-3.333 6.167-5.917.521-7.167-.667-2.501-3.833-2.583-7.333c-.084-3.5.341-7.444 3.379-9.415 2.221-1.44 5.274-1.504 7.607.329s2.18 6.086 2.18 6.086z"/><linearGradient id="t" gradientUnits="userSpaceOnUse" x1="141.413" y1="106.958" x2="141.413" y2="95.287"><stop offset="0" stop-color="#c4c6c8"/><stop offset=".442" stop-color="#d6d7d8"/><stop offset=".767" stop-color="#efeff0"/></linearGradient><path fill="url(#t)" d="M143.976 89.624v12.75a2.562 2.562 0 1 1-5.124 0v-12.75h-3.639v12.393c0 3.305 2.777 5.982 6.201 5.982s6.2-2.678 6.2-5.982V89.624h-3.638z"/><path d="M184.119 70.249c-3.239-4.346-9.524-2.492-11.505.192-1.407 1.906-3.261 5.695-.32 9.14 1.662 1.854 6.584 3.26 10.355-.128 4.312-3.874 2.365-8.181 1.47-9.204zm-1.815 6.577c-1.451 2.762-4.457 4.04-6.715 2.854-2.258-1.185-2.912-4.386-1.461-7.146 1.449-2.761 4.455-4.039 6.713-2.854 2.258 1.185 2.912 4.386 1.463 7.146zm-30.385-6.577c-3.239-4.346-9.523-2.492-11.506.192-1.406 1.906-3.26 5.695-.319 9.14 1.662 1.854 6.583 3.26 10.354-.128 4.313-3.874 2.365-8.181 1.471-9.204zm-1.816 6.577c-1.449 2.762-4.456 4.04-6.714 2.854-2.258-1.185-2.911-4.386-1.462-7.146 1.45-2.761 4.457-4.039 6.714-2.854 2.257 1.185 2.911 4.386 1.462 7.146zm-34.743-6.577c-3.238-4.346-9.523-2.492-11.505.192-1.407 1.906-3.261 5.695-.319 9.14 1.662 1.854 6.584 3.26 10.354-.128 4.312-3.874 2.365-8.181 1.47-9.204zm-1.815 6.577c-1.45 2.762-4.456 4.04-6.714 2.854-2.258-1.185-2.912-4.386-1.461-7.146 1.449-2.761 4.455-4.039 6.713-2.854 2.258 1.185 2.912 4.386 1.462 7.146zm49.097-8.558l-5.816-.063-.176 1.598h5.608s3.963-.319 3.644 4.41c-.575 5.113-4.41 4.858-4.41 4.858h-3.068l.959-7.479h-2.931l-.989 8.97h5.795s7.547.236 7.625-7.52c.085-4.688-6.241-4.774-6.241-4.774zm-43.327 12.294l1.619-12.549h2.109l4.326 7.023 6.284-6.769h2.109l-1.31 11.697s-.529.895-1.566.895h-1.279l1.215-8.117-5.625 6.392-4.602-7.989-1.278 9.331-2.002.086zm-24.523-1.596s-3.963.32-3.645-4.41c.576-5.113 4.411-4.857 4.411-4.857h3.067v.009h.395c.959 0 1.554-1.063 1.759-1.501h-4.987s-7.547-.235-7.625 7.521c-.086 4.687 6.24 4.773 6.24 4.773l3.928.006s1.135-.205 1.311-1.54c-.113.007-4.854-.001-4.854-.001z" fill="#FFF"/></svg>