<svg xmlns="http://www.w3.org/2000/svg" width="166.667" height="35" viewBox="0 0 166.667 35"><path fill="#6374E4" d="M164.462 29.588a3.665 3.665 0 0 1-3.664 3.664H5.417a3.666 3.666 0 0 1-3.666-3.664V5.412a3.666 3.666 0 0 1 3.666-3.664h155.381a3.665 3.665 0 0 1 3.664 3.664v24.176z"/><path fill="#FFF" d="M13.077 17.501c-.002.29.105.58.326.802l8.016 8.016a1.12 1.12 0 1 0 1.585-1.586L15.772 17.5l7.231-7.232a1.121 1.121 0 0 0-1.585-1.585l-8.016 8.015c-.22.221-.328.513-.325.803zm27.262 2.115l1.982.628c-.304 1.104-.809 1.926-1.516 2.462s-1.604.806-2.69.806c-1.344 0-2.449-.459-3.314-1.379-.866-.918-1.298-2.174-1.298-3.767 0-1.686.435-2.994 1.305-3.926.87-.933 2.014-1.398 3.432-1.398 1.238 0 2.244.365 3.018 1.098.46.433.806 1.054 1.036 1.864l-2.023.483c-.12-.524-.37-.939-.75-1.243-.38-.304-.841-.455-1.384-.455-.75 0-1.359.269-1.827.808-.468.539-.701 1.411-.701 2.617 0 1.28.23 2.19.691 2.733.46.545 1.059.816 1.795.816.543 0 1.01-.174 1.402-.52.391-.343.671-.886.842-1.627zm3.322-1.278c0-1.031.154-1.896.462-2.597.23-.515.544-.978.943-1.388a3.927 3.927 0 0 1 1.309-.911c.63-.268 1.358-.4 2.182-.4 1.492 0 2.685.462 3.581 1.388.896.925 1.343 2.212 1.343 3.86 0 1.634-.444 2.913-1.333 3.836s-2.076 1.386-3.563 1.386c-1.506 0-2.703-.459-3.591-1.379-.889-.918-1.333-2.184-1.333-3.795zm2.106-.068c0 1.146.265 2.016.794 2.606.529.593 1.202.888 2.016.888.815 0 1.484-.293 2.006-.881.522-.587.784-1.468.784-2.642 0-1.16-.254-2.025-.763-2.597-.509-.57-1.184-.855-2.027-.855-.842 0-1.521.289-2.037.866-.516.578-.773 1.449-.773 2.615zm9.281 5.068V13.214h3.059l1.837 6.906 1.815-6.906h3.066v10.124h-1.898v-7.969l-2.01 7.969h-1.969l-2.002-7.969v7.969h-1.898zm11.808 0V13.214h3.28c1.242 0 2.053.051 2.431.152.58.151 1.065.482 1.458.991.391.509.587 1.166.587 1.972 0 .621-.112 1.144-.338 1.567a2.788 2.788 0 0 1-.86.999c-.348.24-.701.4-1.06.479-.487.098-1.194.146-2.12.146h-1.333v3.817l-2.045.001zm2.045-8.411V17.8h1.119c.806 0 1.344-.053 1.616-.159.271-.105.484-.271.639-.497.155-.226.23-.488.23-.787 0-.368-.107-.672-.324-.912a1.41 1.41 0 0 0-.822-.448c-.244-.046-.734-.069-1.471-.069l-.987-.001zm7.395 8.411V13.214h4.302c1.082 0 1.868.091 2.358.273.489.182.883.505 1.178.97s.441.997.441 1.596c0 .76-.224 1.387-.671 1.882-.446.495-1.114.807-2.002.936.442.258.808.541 1.095.85.289.309.676.855 1.164 1.645l1.236 1.975h-2.445l-1.478-2.203c-.524-.787-.884-1.283-1.078-1.488-.192-.203-.397-.344-.614-.42s-.56-.115-1.029-.115h-.414v4.228h-2.043v-.005zm2.045-5.842h1.512c.98 0 1.593-.042 1.837-.125s.435-.226.573-.428c.138-.203.207-.456.207-.76 0-.341-.092-.615-.273-.825-.182-.209-.438-.342-.77-.397-.166-.022-.663-.034-1.492-.034h-1.596v2.569h.002zm17.291 5.842H93.41l-.885-2.3h-4.047l-.836 2.3h-2.168l3.943-10.124h2.16l4.055 10.124zm-3.763-4.005l-1.395-3.757-1.367 3.757h2.762zm4.855 4.005V13.214h4.302c1.082 0 1.869.091 2.358.273.49.182.884.505 1.178.97.295.465.441.997.441 1.596 0 .76-.224 1.387-.67 1.882-.446.495-1.113.807-2.002.936a4.74 4.74 0 0 1 1.094.85c.287.309.677.855 1.164 1.645l1.236 1.975h-2.445l-1.478-2.203c-.524-.787-.884-1.283-1.077-1.488a1.572 1.572 0 0 0-.615-.42c-.217-.076-.559-.115-1.028-.115h-.414v4.228h-2.044v-.005zm2.044-5.842h1.513c.98 0 1.594-.042 1.838-.125.243-.083.436-.226.572-.428.139-.203.207-.456.207-.76 0-.341-.091-.615-.271-.825-.183-.209-.439-.342-.771-.397-.166-.022-.664-.034-1.492-.034h-1.596v2.569zm12.064 5.842V13.214h3.06l1.838 6.906 1.815-6.906h3.065v10.124h-1.899v-7.969l-2.01 7.969h-1.968l-2.003-7.969v7.969h-1.898zm20.938 0h-2.224l-.885-2.3h-4.047l-.835 2.3h-2.169l3.943-10.124h2.162l4.055 10.124zm-3.765-4.005l-1.395-3.757-1.367 3.757h2.762zm4.787 4.005V13.214h2.043v10.124h-2.043zm3.474-3.294l1.987-.192c.121.668.363 1.157.729 1.471.366.312.86.47 1.481.47.658 0 1.154-.14 1.488-.418s.5-.604.5-.978c0-.238-.07-.442-.211-.61s-.386-.313-.734-.438c-.239-.082-.785-.229-1.637-.441-1.097-.271-1.865-.605-2.308-1.001-.621-.558-.933-1.236-.933-2.037 0-.516.146-.998.438-1.447.292-.448.714-.79 1.265-1.025.549-.234 1.213-.352 1.992-.352 1.271 0 2.227.278 2.868.835.644.558.979 1.301 1.013 2.23l-2.045.09c-.088-.521-.274-.895-.562-1.122-.287-.228-.719-.342-1.295-.342-.594 0-1.059.122-1.395.366a.732.732 0 0 0-.324.628c0 .239.102.444.304.615.258.216.884.441 1.878.677.994.234 1.73.478 2.207.729s.85.594 1.117 1.027c.271.437.404.974.404 1.613 0 .58-.16 1.123-.482 1.629-.322.508-.778.883-1.367 1.131-.59.246-1.324.369-2.203.369-1.279 0-2.263-.297-2.949-.889-.683-.594-1.094-1.454-1.226-2.588z"/></svg>