<svg xmlns="http://www.w3.org/2000/svg" width="248" height="36" viewBox="0 0 248 36"><path fill="#EE2D31" d="M246 29.998a4.835 4.835 0 0 1-4.836 4.836H6.834A4.837 4.837 0 0 1 2 29.998V6a4.834 4.834 0 0 1 4.834-4.834h234.33A4.835 4.835 0 0 1 246 6v23.998z"/><path d="M22.557 23.291l-3.674-10.279h2.25l2.602 7.607 2.518-7.607h2.202l-3.681 10.279h-2.217zm6.956 0V13.012h7.622v1.738h-5.547v2.279h5.161v1.732h-5.161v2.797h5.743v1.731l-7.818.002zM42.8 13.012h2.069v6.508c0 .851-.075 1.504-.225 1.963a2.77 2.77 0 0 1-1.094 1.44c-.529.362-1.225.544-2.089.544-1.015 0-1.795-.283-2.342-.854-.547-.568-.823-1.4-.827-2.5l1.956-.223c.023.588.11 1.004.26 1.248.224.368.565.553 1.023.553.463 0 .79-.131.982-.396.191-.265.287-.812.287-1.646v-6.637zm13.548 10.279H54.09l-.897-2.335h-4.109l-.849 2.335h-2.202l4.004-10.279h2.195l4.116 10.279zm-3.822-4.066l-1.417-3.814-1.388 3.814h2.805zm8.401 4.066V13.012h2.02l4.207 6.864v-6.864h1.928v10.279h-2.083l-4.144-6.703v6.703h-1.928zm9.928-5.077c0-1.047.157-1.926.47-2.636.234-.523.553-.993.957-1.41a3.988 3.988 0 0 1 1.329-.925c.64-.271 1.379-.407 2.216-.407 1.515 0 2.727.471 3.636 1.409.909.94 1.364 2.247 1.364 3.92 0 1.66-.451 2.958-1.354 3.896-.903.938-2.108 1.406-3.618 1.406-1.528 0-2.744-.467-3.646-1.398-.902-.934-1.354-2.217-1.354-3.855zm2.139-.069c0 1.164.269 2.047.807 2.646.537.602 1.22.9 2.047.9.827 0 1.506-.297 2.037-.895.53-.596.796-1.488.796-2.682 0-1.178-.259-2.057-.775-2.637-.517-.58-1.203-.869-2.058-.869s-1.545.293-2.069.879c-.523.59-.785 1.475-.785 2.658zm8.927 1.8l2.02-.195c.121.678.368 1.176.74 1.493s.873.478 1.504.478c.668 0 1.172-.142 1.511-.425.339-.282.508-.612.508-.991a.936.936 0 0 0-.214-.621c-.143-.17-.392-.318-.747-.445-.243-.084-.797-.233-1.662-.448-1.113-.274-1.893-.614-2.342-1.017-.631-.565-.946-1.256-.946-2.068 0-.523.148-1.014.445-1.469.297-.457.725-.805 1.283-1.043.558-.237 1.233-.356 2.023-.356 1.29 0 2.261.283 2.914.849.652.565.994 1.32 1.027 2.266l-2.075.092c-.089-.527-.28-.908-.572-1.141-.292-.231-.73-.348-1.314-.348-.603 0-1.075.125-1.417.373a.745.745 0 0 0-.33.637c0 .244.103.451.309.625.262.22.897.449 1.907.688 1.01.239 1.756.484 2.24.74.484.255.862.604 1.136 1.044.273.442.411.987.411 1.638 0 .59-.164 1.141-.491 1.655s-.79.896-1.388 1.146c-.599.25-1.344.375-2.237.375-1.3 0-2.298-.301-2.994-.9-.698-.604-1.114-1.479-1.249-2.632zm9.578 0l2.02-.195c.121.678.368 1.176.74 1.493.372.317.873.478 1.504.478.668 0 1.172-.142 1.511-.425.339-.282.508-.612.508-.991a.936.936 0 0 0-.214-.621c-.143-.17-.392-.318-.747-.445-.243-.084-.797-.233-1.662-.448-1.113-.274-1.893-.614-2.342-1.017-.631-.565-.946-1.256-.946-2.068 0-.523.148-1.014.445-1.469.297-.457.725-.805 1.283-1.043.558-.237 1.233-.356 2.023-.356 1.29 0 2.261.283 2.914.849.652.565.994 1.32 1.027 2.266l-2.075.092c-.089-.527-.28-.908-.572-1.141-.292-.231-.73-.348-1.314-.348-.603 0-1.075.125-1.417.373a.745.745 0 0 0-.33.637c0 .244.103.451.309.625.262.22.897.449 1.907.688 1.01.239 1.756.484 2.24.74.484.255.862.604 1.136 1.044.273.442.411.987.411 1.638 0 .59-.164 1.141-.491 1.655-.327.515-.79.896-1.388 1.146-.599.25-1.344.375-2.237.375-1.3 0-2.298-.301-2.994-.9-.698-.604-1.114-1.479-1.249-2.632zm19.374 3.346h-2.258l-.897-2.335h-4.109l-.849 2.335h-2.202l4.004-10.279h2.195l4.116 10.279zm-3.821-4.066l-1.417-3.814-1.388 3.814h2.805zm4.396.72l2.02-.195c.121.678.368 1.176.74 1.493s.873.478 1.504.478c.668 0 1.172-.142 1.511-.425.339-.282.508-.612.508-.991a.936.936 0 0 0-.214-.621c-.143-.17-.392-.318-.747-.445-.243-.084-.797-.233-1.662-.448-1.113-.274-1.893-.614-2.342-1.017-.631-.565-.946-1.256-.946-2.068 0-.523.148-1.014.445-1.469.297-.457.725-.805 1.283-1.043.558-.237 1.233-.356 2.023-.356 1.29 0 2.261.283 2.914.849.652.565.994 1.32 1.027 2.266l-2.075.092c-.089-.527-.28-.908-.572-1.141-.292-.231-.73-.348-1.314-.348-.603 0-1.075.125-1.417.373a.745.745 0 0 0-.33.637c0 .244.103.451.309.625.262.22.897.449 1.907.688 1.01.239 1.756.484 2.24.74.484.255.862.604 1.136 1.044.273.442.411.987.411 1.638 0 .59-.164 1.141-.491 1.655s-.79.896-1.388 1.146c-.599.25-1.344.375-2.237.375-1.3 0-2.298-.301-2.994-.9-.697-.604-1.114-1.479-1.249-2.632zm14.095 3.346V13.012h3.33c1.262 0 2.085.051 2.469.154.588.154 1.082.488 1.479 1.006.398.518.598 1.184.598 2.002 0 .631-.113 1.162-.344 1.592s-.521.769-.873 1.014a3.029 3.029 0 0 1-1.076.488c-.495.098-1.214.146-2.152.146h-1.354v3.878h-2.077zm2.074-8.541v2.917h1.137c.818 0 1.365-.054 1.641-.161.276-.107.492-.275.648-.505s.234-.495.234-.799c0-.374-.109-.683-.328-.927a1.434 1.434 0 0 0-.836-.455c-.247-.047-.744-.07-1.492-.07h-1.004zm7.51 8.541V13.012h4.369c1.098 0 1.896.092 2.395.276.5.185.896.515 1.195.985.299.473.449 1.013.449 1.619 0 .771-.227 1.408-.682 1.91-.453.504-1.131.819-2.033.95.449.263.82.55 1.111.863.293.312.688.868 1.182 1.668l1.256 2.006h-2.482l-1.5-2.237c-.533-.799-.897-1.303-1.094-1.511a1.604 1.604 0 0 0-.625-.429c-.219-.076-.566-.114-1.045-.114h-.42v4.291l-2.076.002zm2.076-5.934h1.535c.996 0 1.617-.041 1.865-.125s.44-.229.582-.436c.141-.206.211-.463.211-.771 0-.346-.094-.625-.277-.838s-.445-.347-.781-.402c-.169-.023-.674-.035-1.516-.035h-1.619v2.607zm7.867.857c0-1.047.156-1.926.471-2.636.232-.523.553-.993.957-1.41a3.995 3.995 0 0 1 1.328-.925c.641-.271 1.379-.407 2.217-.407 1.514 0 2.727.471 3.635 1.409.91.94 1.364 2.247 1.364 3.92 0 1.66-.451 2.958-1.354 3.896-.902.938-2.107 1.406-3.617 1.406-1.528 0-2.744-.467-3.646-1.398s-1.355-2.217-1.355-3.855zm2.139-.069c0 1.164.27 2.047.807 2.646s1.221.9 2.049.9c.826 0 1.506-.297 2.037-.895.529-.596.795-1.488.795-2.682 0-1.178-.258-2.057-.774-2.637s-1.202-.869-2.058-.869c-.856 0-1.545.293-2.069.879-.525.59-.787 1.475-.787 2.658zm9.424 5.146V13.012h3.107l1.865 7.012 1.844-7.012h3.113v10.279h-1.929v-8.092l-2.041 8.092h-1.997l-2.035-8.092v8.092h-1.927zm11.57-5.077c0-1.047.156-1.926.47-2.636.233-.523.554-.993.957-1.41a3.998 3.998 0 0 1 1.329-.925c.641-.271 1.379-.407 2.216-.407 1.515 0 2.728.471 3.636 1.409.91.94 1.363 2.247 1.363 3.92 0 1.66-.451 2.958-1.354 3.896-.903.938-2.107 1.406-3.617 1.406-1.529 0-2.744-.467-3.646-1.398s-1.354-2.217-1.354-3.855zm2.139-.069c0 1.164.27 2.047.807 2.646.537.602 1.221.9 2.047.9.828 0 1.508-.297 2.037-.895.531-.596.797-1.488.797-2.682 0-1.178-.26-2.057-.774-2.637-.517-.58-1.202-.869-2.06-.869-.855 0-1.545.293-2.067.879-.524.589-.787 1.475-.787 2.658zm16.029 1.367l2.013.639c-.308 1.121-.821 1.955-1.538 2.5-.719.545-1.629.816-2.732.816-1.364 0-2.485-.467-3.364-1.398s-1.317-2.209-1.317-3.825c0-1.712.44-3.039 1.324-3.986.885-.946 2.045-1.42 3.485-1.42 1.258 0 2.278.372 3.063 1.115.467.438.817 1.069 1.051 1.894l-2.055.49c-.121-.533-.375-.953-.76-1.262-.387-.309-.855-.463-1.406-.463-.762 0-1.381.272-1.854.82-.475.547-.713 1.432-.713 2.656 0 1.301.234 2.227.701 2.777s1.076.826 1.823.826c.552 0 1.026-.176 1.423-.525.399-.352.684-.9.856-1.654zm-4.361 6.605v-.828c.482.052.924.077 1.326.077.416 0 .725-.074.926-.224a.522.522 0 0 0 .23-.437.517.517 0 0 0-.217-.413c-.146-.117-.369-.176-.674-.176-.299 0-.605.047-.918.141l.182-.693a3.561 3.561 0 0 1 1.178-.189c.585 0 1.029.129 1.333.387.304.256.456.569.456.938 0 .411-.168.745-.506 1.003-.453.352-1.104.525-1.949.525-.604.001-1.059-.037-1.367-.111zm7.734-7.903c0-1.047.156-1.926.47-2.636.233-.523.554-.993.957-1.41a3.998 3.998 0 0 1 1.329-.925c.641-.271 1.379-.407 2.216-.407 1.515 0 2.728.471 3.636 1.409.91.94 1.363 2.247 1.363 3.92 0 1.66-.451 2.958-1.354 3.896-.903.938-2.107 1.406-3.617 1.406-1.529 0-2.744-.467-3.646-1.398s-1.354-2.217-1.354-3.855zm2.139-.069c0 1.164.27 2.047.807 2.646.537.602 1.221.9 2.047.9.828 0 1.508-.297 2.037-.895.531-.596.797-1.488.797-2.682 0-1.178-.26-2.057-.774-2.637-.517-.58-1.203-.869-2.06-.869-.855 0-1.545.293-2.067.879-.524.589-.787 1.475-.787 2.658zm1.157-5.702h-.897c-.004-.107-.008-.191-.008-.252 0-.491.119-.869.357-1.133a1.18 1.18 0 0 1 .92-.396c.163 0 .314.018.455.053s.396.137.768.303c.372.166.663.248.873.248.15 0 .275-.047.375-.141.102-.094.165-.25.193-.471h.912c-.006.632-.123 1.082-.355 1.354a1.12 1.12 0 0 1-.895.406c-.158 0-.314-.017-.469-.049a11.836 11.836 0 0 1-.808-.287c-.43-.164-.741-.246-.938-.246a.456.456 0 0 0-.352.138c-.082.092-.126.249-.131.473zm8.295 10.848V13.012h7.622v1.738h-5.547v2.279h5.16v1.732h-5.16v2.797h5.742v1.731l-7.817.002zm9.054-3.346l2.02-.195c.121.678.367 1.176.738 1.493.373.317.873.478 1.504.478.67 0 1.172-.142 1.513-.425.339-.282.508-.612.508-.991a.93.93 0 0 0-.213-.621c-.144-.17-.394-.318-.748-.445-.242-.084-.797-.233-1.661-.448-1.111-.274-1.895-.614-2.343-1.017-.631-.565-.944-1.256-.944-2.068 0-.523.147-1.014.444-1.469.297-.457.726-.805 1.282-1.043.559-.237 1.232-.356 2.023-.356 1.289 0 2.26.283 2.912.849.652.566.994 1.32 1.027 2.266l-2.075.092c-.089-.527-.28-.908-.571-1.141-.293-.23-.729-.348-1.313-.348-.604 0-1.076.125-1.417.373a.742.742 0 0 0-.329.637c0 .244.103.451.31.625.262.22.896.449 1.905.688 1.011.239 1.757.484 2.24.74a2.92 2.92 0 0 1 1.137 1.044c.272.442.41.987.41 1.638 0 .59-.164 1.141-.491 1.655-.326.515-.79.896-1.388 1.146-.601.25-1.345.375-2.237.375-1.3 0-2.298-.301-2.994-.9-.697-.602-1.115-1.479-1.249-2.632zm27.179-1.946a1.099 1.099 0 0 0-.323-.79l-7.901-7.9a1.105 1.105 0 0 0-1.562 1.562L234.91 18l-7.129 7.13a1.103 1.103 0 0 0 0 1.562 1.1 1.1 0 0 0 1.562 0l7.902-7.899c.219-.221.325-.508.323-.794z" fill="#FFF"/></svg>