<svg xmlns="http://www.w3.org/2000/svg" width="80" height="25" viewBox="0 0 80 25"><path fill="#EFEFEF" d="M0 0h80v25H0z"/><path d="M3.658 9.362V2.588h2.556c.45 0 .793.021 1.03.065.333.055.61.161.836.316.225.155.406.374.543.654s.206.588.206.924c0 .576-.183 1.063-.55 1.462-.367.399-1.029.599-1.987.599H4.555v2.754h-.897zm.897-3.554h1.751c.579 0 .99-.107 1.234-.323.243-.216.365-.519.365-.91a1.22 1.22 0 0 0-.215-.728 1.005 1.005 0 0 0-.566-.4c-.151-.04-.43-.06-.836-.06H4.555v2.421zm5 1.1c0-.909.252-1.582.758-2.02.422-.363.936-.545 1.543-.545.675 0 1.227.221 1.655.663.428.442.642 1.053.642 1.833 0 .631-.095 1.128-.284 1.49a2.014 2.014 0 0 1-.827.844 2.421 2.421 0 0 1-1.186.299c-.687 0-1.242-.219-1.666-.66-.423-.44-.635-1.075-.635-1.904zm.855 0c0 .628.137 1.099.412 1.412.274.313.619.469 1.035.469.413 0 .756-.157 1.031-.471.274-.313.411-.793.411-1.437 0-.607-.138-1.067-.414-1.379a1.32 1.32 0 0 0-1.029-.47c-.416 0-.761.156-1.035.467-.275.312-.411.781-.411 1.409zm5.624 2.454l-1.502-4.908h.859l.781 2.833.292 1.054c.012-.053.097-.39.254-1.012l.781-2.875h.854l.735 2.847.245.938.282-.947.841-2.837h.809L19.73 9.362h-.864l-.781-2.939-.189-.836-.994 3.775h-.868zm9.288-1.581l.859.106c-.136.502-.387.892-.753 1.168-.366.277-.834.416-1.405.416-.718 0-1.287-.221-1.707-.662-.421-.442-.631-1.062-.631-1.86 0-.826.212-1.466.638-1.922.425-.456.977-.684 1.654-.684.656 0 1.192.224 1.608.67.415.446.623 1.075.623 1.885 0 .049-.001.123-.005.222h-3.66c.031.539.183.952.458 1.238.274.287.616.43 1.026.43.305 0 .565-.08.781-.24.215-.161.386-.415.514-.767zm-2.731-1.343h2.74c-.037-.413-.142-.722-.314-.929a1.275 1.275 0 0 0-1.03-.48c-.382 0-.703.128-.963.383-.262.255-.406.597-.433 1.026zm4.625 2.924V4.454h.749v.744c.191-.348.367-.578.529-.688a.925.925 0 0 1 .534-.167c.281 0 .565.089.855.268l-.286.772a1.194 1.194 0 0 0-.61-.18.795.795 0 0 0-.49.164.889.889 0 0 0-.31.455 3.248 3.248 0 0 0-.139.97v2.57h-.832zm6.519-1.581l.859.106c-.136.502-.388.892-.753 1.168-.366.277-.834.416-1.405.416-.718 0-1.287-.221-1.707-.662-.421-.442-.631-1.062-.631-1.86 0-.826.212-1.466.638-1.922.426-.456.977-.684 1.654-.684.656 0 1.191.224 1.607.67.416.446.625 1.075.625 1.885 0 .049-.002.123-.006.222h-3.66c.031.539.184.952.459 1.238.273.287.615.43 1.025.43.305 0 .565-.08.781-.24.217-.16.388-.415.514-.767zm-2.732-1.343h2.74c-.037-.413-.142-.722-.313-.929a1.275 1.275 0 0 0-1.03-.48c-.382 0-.703.128-.963.383s-.403.597-.434 1.026zm7.822 2.924v-.619c-.312.487-.77.73-1.373.73-.392 0-.75-.108-1.078-.323a2.131 2.131 0 0 1-.764-.904 3.123 3.123 0 0 1-.271-1.333c0-.49.082-.934.246-1.333.162-.399.408-.705.734-.917a1.967 1.967 0 0 1 1.096-.319 1.629 1.629 0 0 1 1.352.675V2.588h.827v6.774h-.769zm-2.632-2.449c0 .628.133 1.098.397 1.41.265.311.577.466.938.466.362 0 .672-.147.926-.446.254-.297.381-.75.381-1.36 0-.671-.129-1.165-.387-1.479-.26-.314-.578-.472-.957-.472-.371 0-.679.151-.927.453-.247.301-.371.778-.371 1.428zm8.106 2.449h-.771V2.588h.832v2.417c.352-.441.799-.661 1.346-.661.303 0 .586.061.856.183s.491.293.665.513c.174.22.311.486.409.797.098.311.147.644.147.998 0 .841-.209 1.491-.625 1.95s-.914.688-1.496.688c-.58 0-1.033-.242-1.362-.727l-.001.616zm-.01-2.491c0 .588.08 1.015.24 1.275.262.428.615.642 1.062.642.361 0 .678-.158.941-.474.268-.314.398-.786.398-1.412 0-.641-.127-1.113-.381-1.418-.254-.305-.562-.458-.922-.458-.363 0-.678.158-.942.474-.263.317-.396.774-.396 1.371zm4.47 4.382l-.093-.781c.182.049.341.074.477.074.186 0 .332-.031.443-.094s.201-.146.271-.259c.054-.083.138-.29.254-.619.017-.046.04-.114.074-.203l-1.86-4.917h.896l1.021 2.842c.133.36.252.739.355 1.136.096-.381.21-.754.342-1.117l1.051-2.861h.83l-1.865 4.991c-.201.539-.355.911-.467 1.114-.148.273-.318.475-.51.603a1.195 1.195 0 0 1-.684.192 1.68 1.68 0 0 1-.535-.101z" fill="#3E3E3E"/><path d="M31.636 22.627c-.427.188-1.117.359-1.97.359-1.919 0-3.082-1.207-3.082-3.146 0-1.432.575-2.795 1.626-3.664.776-.666 1.749-1.025 2.863-1.025.845 0 1.445.213 1.647.373l-.306.756c-.282-.17-.821-.316-1.499-.316-.791 0-1.588.305-2.175.857-.712.664-1.162 1.736-1.162 2.887 0 1.361.621 2.479 2.312 2.479.574 0 1.207-.111 1.625-.324l.121.764zm7.556-4.365c0 1.316-.473 2.771-1.376 3.674a3.616 3.616 0 0 1-2.606 1.059c-1.96 0-2.887-1.473-2.887-3.088 0-1.344.533-2.814 1.456-3.73a3.71 3.71 0 0 1 2.549-1.025c2.039-.002 2.864 1.489 2.864 3.11zm-4.725-1.555c-.732.73-1.161 2.062-1.161 3.119 0 1.242.553 2.381 2.042 2.381.642 0 1.262-.279 1.734-.754.712-.721 1.127-2.086 1.127-3.146 0-1.082-.348-2.367-2.005-2.367-.677-.001-1.275.292-1.737.767zm11.344 6.166l.542-4.104c.103-.723.271-1.838.417-2.572h-.044c-.353.77-.769 1.666-1.187 2.449l-2.254 4.182h-.724l-.563-4.094a38.306 38.306 0 0 1-.236-2.537h-.022c-.17.701-.406 1.85-.588 2.572l-1.035 4.104h-.88l1.971-7.6h1.199l.598 4.361c.078.645.17 1.332.18 1.895h.034c.235-.562.565-1.24.891-1.871l2.357-4.385h1.217l-.97 7.6h-.903zm8.57 0l.542-4.104c.1-.723.271-1.838.415-2.572h-.045c-.349.77-.764 1.666-1.183 2.449l-2.256 4.182h-.723l-.563-4.094a39.706 39.706 0 0 1-.236-2.537h-.022c-.17.701-.405 1.85-.586 2.572l-1.036 4.104h-.881l1.973-7.6h1.197l.598 4.361c.077.645.17 1.332.178 1.895h.035c.237-.562.564-1.24.892-1.871l2.356-4.385h1.219l-.971 7.6h-.903zm6.574-3.574h-2.764l-.52 2.773h3.111l-.158.799h-4.049l1.444-7.6h3.88l-.154.803H58.81l-.461 2.436h2.763l-.157.789zm2.129-3.914a8.342 8.342 0 0 1 1.66-.168c.756 0 1.408.182 1.813.553.351.305.562.746.562 1.266 0 1.1-.844 1.926-1.803 2.193l-.012.025c.531.18.789.74.847 1.529.079 1.062.134 1.781.235 2.088h-.969c-.043-.156-.125-.957-.18-1.838-.057-1.039-.439-1.477-1.195-1.477h-.836l-.621 3.314h-.935l1.434-7.485zm.271 3.453h.834c1.188 0 1.951-.779 1.951-1.691 0-.811-.607-1.17-1.466-1.17-.371 0-.619.031-.788.076l-.531 2.785zm9.282 3.789c-.43.188-1.116.359-1.975.359-1.916 0-3.078-1.207-3.078-3.146 0-1.432.574-2.795 1.623-3.664.778-.666 1.748-1.025 2.865-1.025.846 0 1.444.213 1.646.373l-.306.756c-.279-.17-.821-.316-1.496-.316a3.22 3.22 0 0 0-2.18.857c-.711.664-1.16 1.736-1.16 2.887 0 1.361.621 2.479 2.312 2.479.574 0 1.204-.111 1.624-.324l.125.764zm5.152-3.328h-2.762l-.521 2.773h3.112l-.158.799h-4.047l1.442-7.6h3.879l-.157.803h-2.931l-.464 2.436h2.764l-.157.789zm-67.168-7.698H7.547c-3.39 0-3.983 2.89-3.983 2.89l-1.25 7.887s-.009.027-.012.072l-.063.365h.403l.024.002h2.376c.506 0 .576-.439.576-.439l.625-3.846h2.255c.333 0 .373-.324.373-.324l.202-1.273h-2.58l.376-2.391s.166-1.445 1.078-1.445h2.016a.419.419 0 0 0 .453-.374l.148-.803s.005-.016.005-.039l.052-.282zm16.015 3.53l-.016-.002h-8.072c-2.233 0-2.979 1.402-3.156 1.836-.64 1.814.862 2.676.862 2.676s.806.428 1.323.725c.51.295.502 1.023.103 1.373-1.334.98-1.848-.447-1.941-.695-.089-.244-.355-.098-.355-.098s-.351.162-.67.369c-.353.229-.141.496-.141.496s1.146 1.564 2.985 1.143c.619-.143 3.139-.721 2.615-3.156-.274-1.238-1.931-1.703-2.242-1.857-.45-.197-.636-.566-.557-.961.107-.543.464-.779 1.122-.779h3.074c.379 0 .3.326.3.326l-.927 5.855s-.001.018-.006.035l-.066.396h.365l.007.002h1.881c.412 0 .467-.393.467-.393l.928-5.896s.024-.326.471-.326h1.434c.371 0 .445-.352.445-.352l.063-.402s.006-.029.006-.062l.045-.25h-.347v-.003zm-12.238 7.205c-.005-.053-1.09-6.031-1.105-6.094-.033-.121-.316-1.246-1.358-1.246-.89 0-1.185.332-1.445.697-.094.131-.308.523-.308.523l-2.986 6.15-.013.023-.005.008-.196.381h.984c.47 0 .591-.4.591-.4l.339-.73s.104-.244.365-.244h1.992c.304 0 .32.211.32.211l.113.773s.045.41.418.41h1.874c.399.001.43-.372.42-.462zm-3.323-2.076l-1.52.004s1.121-2.344 1.166-2.441c.042-.119.277-.398.357.02.078.42.269 1.982.269 1.982s.071.435-.272.435z" fill="#194267"/></svg>