<svg xmlns="http://www.w3.org/2000/svg" width="159.333" height="153.667" viewBox="0 0 159.333 153.667"><path fill="#F9F9F9" d="M1.2 3.2h155.9v143.6H1.2z"/><path fill="#F5F6F8" d="M1.5 3.3h155.3v143.3H1.5z"/><path fill="#F2F2F2" d="M1.8 3.5h154.8v143.1H1.8z"/><path fill="#EFEFEF" d="M2 3.5h154.2v142.9H2z"/><path fill="#EDECED" d="M2.3 3.6h153.8v142.7H2.3z"/><path fill="#E8E7E7" d="M2.6 3.8h153.2v142.4H2.6z"/><path fill="#FFF" d="M2.8 4h152.7v141.8H2.8z"/><path fill="#F9F9FA" d="M12.3 13.3H146v123H12.3z"/><path fill="#F2F2F2" d="M155.2 147.3L3 147.4l.1 4.8c49.2-5.6 135.4-5.4 152-.3l.1-4.6z"/><path fill="#EAEAE9" d="M155.2 146.7L3 146.9l.2 4.7c49.3-5.6 135.2-5.4 151.7-.2l.3-4.7z"/><path fill="#E2E2E1" d="M155.2 145.8L3 146l.4 4.8c48.2-5 139.9-4.4 151.5-.2l.3-4.8z"/><path fill="#D8D8D7" d="M155.1 145.9l-152 .1.3 4c48.2-5 139.8-4.5 151.4-.3l.3-3.8z"/><path fill="#D3D3D3" d="M154.9 145.9H3.3l.4 3.5c47.1-4.3 140.3-3.1 151.2-.3v-3.2z"/><path fill="#C8C8C8" d="M154.8 145.9H3.4l.3 2.8c47-3 141.8-2.7 151-.4l.1-2.4z"/><path fill="#C4C3C3" d="M154.7 146.4v-.5H3.5l.3 2.2c46.9-3 141.7-2.3 150.7 0v-.3l.2-1.4z"/><path fill="#939393" d="M66.6 84.6H54.5V51.3l.1-5.5.2-6c-2 2-3.4 3.3-4.2 4L44 49.2l-5.9-7.3 18.5-14.8h10v57.5zm-12.7 30l-1-2.5h-.1c-.9 1.1-1.7 1.8-2.7 2.3s-2.1.6-3.5.6c-1.8 0-3.2-.5-4.2-1.5s-1.5-2.5-1.5-4.4c0-2 .7-3.5 2.1-4.4 1.4-.9 3.5-1.5 6.3-1.6l3.2-.1v-.8c0-1.9-1-2.8-2.9-2.8-1.5 0-3.3.5-5.3 1.4l-1.7-3.4c2.2-1.1 4.5-1.7 7.2-1.7 2.5 0 4.4.5 5.8 1.6 1.3 1.1 2 2.8 2 5v12.5l-3.7-.2zm-1.5-8.7l-2 .1c-1.5 0-2.6.3-3.3.8-.7.5-1.1 1.2-1.1 2.2 0 1.4.8 2.2 2.5 2.2 1.2 0 2.1-.3 2.8-1 .7-.7 1.1-1.6 1.1-2.7v-1.6zm27.6 8.7h-5.1v-10.9c0-1.4-.2-2.4-.7-3s-1.2-1-2.3-1c-1.4 0-2.5.5-3.1 1.4-.6 1-1 2.5-1 4.7v8.8h-5.1V95.9h3.9l.7 2.4h.3c.6-.9 1.4-1.6 2.4-2.1s2.1-.7 3.4-.7c2.2 0 3.8.6 5 1.8 1.1 1.2 1.7 2.9 1.7 5.1l-.1 12.2zm22.3-9.4c0 3-.8 5.4-2.4 7.2-1.6 1.7-3.8 2.6-6.7 2.6-1.8 0-3.4-.4-4.8-1.2s-2.4-1.9-3.2-3.4c-.7-1.5-1.1-3.2-1.1-5.2 0-3.1.8-5.4 2.4-7.1s3.8-2.5 6.7-2.5c1.8 0 3.4.4 4.8 1.2 1.4.8 2.4 1.9 3.2 3.4s1.1 3.1 1.1 5zm-13 0c0 1.9.3 3.3.9 4.2.6.9 1.6 1.4 3 1.4s2.3-.5 2.9-1.4.9-2.3.9-4.2c0-1.9-.3-3.2-.9-4.2-.6-.9-1.6-1.4-3-1.4s-2.3.5-2.9 1.4c-.6 1-.9 2.4-.9 4.2zm30.3 3.9c0 1.9-.7 3.4-2 4.4s-3.3 1.5-6 1.5c-1.4 0-2.5-.1-3.5-.3s-1.9-.5-2.7-.8v-4.2c.9.4 2 .8 3.2 1.1s2.2.5 3.1.5c1.9 0 2.8-.5 2.8-1.6 0-.4-.1-.7-.4-1-.2-.3-.7-.5-1.3-.9s-1.4-.7-2.4-1.1c-1.4-.6-2.5-1.2-3.2-1.7-.7-.5-1.2-1.1-1.5-1.8-.3-.7-.5-1.5-.5-2.5 0-1.7.6-3 1.9-3.9 1.3-.9 3.1-1.4 5.5-1.4 2.3 0 4.4.5 6.6 1.5l-1.5 3.7c-.9-.4-1.8-.7-2.6-1-.8-.3-1.6-.4-2.5-.4-1.5 0-2.3.4-2.3 1.2 0 .5.2.9.7 1.2s1.5.8 3.2 1.5c1.5.6 2.5 1.1 3.2 1.7.7.5 1.2 1.1 1.5 1.8.5.7.7 1.5.7 2.5zm-76.8 20.2c-.9 0-1.7-.4-2.2-1.1-.5-.7-.8-1.7-.8-3s.3-2.3.8-3.1c.5-.7 1.3-1.1 2.3-1.1 1 0 1.8.4 2.3 1.2h.1c-.1-.6-.2-1.1-.2-1.6V118h2.2v11.1h-1.7l-.4-1H45c-.5.8-1.2 1.2-2.2 1.2zm.7-1.8c.6 0 1-.2 1.2-.5.3-.3.4-.9.4-1.7v-.2c0-.9-.1-1.5-.4-1.8s-.7-.6-1.3-.6c-.5 0-.9.2-1.1.6-.3.4-.4 1-.4 1.8s.1 1.4.4 1.8c.3.4.7.6 1.2.6zm9 1.8c-1.3 0-2.3-.4-3-1.1-.7-.7-1.1-1.7-1.1-3s.3-2.4 1-3.1c.7-.7 1.6-1.1 2.8-1.1 1.1 0 2 .3 2.6 1s.9 1.5.9 2.7v1.1h-5.2c0 .6.2 1.1.6 1.5s.8.5 1.4.5c.5 0 .9-.1 1.4-.2.4-.1.9-.3 1.3-.5v1.7c-.4.2-.8.3-1.2.4-.3 0-.9.1-1.5.1zm-.3-6.8c-.5 0-.8.1-1.1.4-.3.3-.4.7-.5 1.2h3.1c0-.5-.2-1-.4-1.2-.3-.2-.6-.4-1.1-.4zm15.1 6.6h-2.2v-4.7c0-.6-.1-1-.3-1.3-.2-.3-.5-.4-.9-.4-.6 0-1 .2-1.2.6-.3.4-.4 1.1-.4 2v3.8h-2.2v-8h1.7l.3 1h.1c.2-.4.5-.7.9-.9.4-.2.9-.3 1.4-.3 1.2 0 2 .4 2.4 1.2h.2c.2-.4.5-.7.9-.9.4-.2.9-.3 1.4-.3.9 0 1.6.2 2.1.7.5.5.7 1.2.7 2.2v5.2H70v-4.7c0-.6-.1-1-.3-1.3s-.5-.4-.9-.4c-.5 0-.9.2-1.2.6-.3.4-.4 1-.4 1.8.1.1.1 4.1.1 4.1zm10.3.2c-1.3 0-2.3-.4-3-1.1-.7-.7-1.1-1.7-1.1-3s.3-2.4 1-3.1c.7-.7 1.6-1.1 2.8-1.1 1.1 0 2 .3 2.6 1s.9 1.5.9 2.7v1.1h-5.2c0 .6.2 1.1.6 1.5s.8.5 1.4.5c.5 0 .9-.1 1.4-.2.4-.1.9-.3 1.3-.5v1.7c-.4.2-.8.3-1.2.4-.3 0-.9.1-1.5.1zm-.3-6.8c-.5 0-.8.1-1.1.4-.3.3-.4.7-.4 1.2h3.1c0-.5-.2-1-.4-1.2-.4-.2-.7-.4-1.2-.4zm9.2-1.5c.3 0 .5 0 .7.1l-.2 2c-.2 0-.4-.1-.6-.1-.7 0-1.2.2-1.6.5-.4.4-.6.9-.6 1.5v4.1H82v-8h1.7l.3 1.3h.1c.2-.4.6-.8 1-1.1.5-.2.9-.3 1.4-.3zm4.9 8.3c-2.5 0-3.7-1.4-3.7-4.1 0-1.4.3-2.4 1-3.1.7-.7 1.6-1.1 2.9-1.1.9 0 1.8.2 2.5.5l-.6 1.7c-.3-.1-.7-.3-1-.3s-.6-.1-.9-.1c-1.1 0-1.7.8-1.7 2.4 0 1.6.6 2.3 1.7 2.3.4 0 .8-.1 1.2-.2.4-.1.7-.3 1.1-.5v1.9c-.4.2-.7.4-1.1.5-.4 0-.9.1-1.4.1zm8.7-.2l-.4-1.1h-.1c-.4.5-.7.8-1.1 1-.4.2-.9.3-1.5.3-.8 0-1.4-.2-1.8-.7-.4-.4-.7-1.1-.7-1.9 0-.8.3-1.5.9-1.9.6-.4 1.5-.6 2.7-.7h1.4v-.4c0-.8-.4-1.2-1.2-1.2-.6 0-1.4.2-2.3.6l-.7-1.5c.9-.5 1.9-.7 3.1-.7 1.1 0 1.9.2 2.5.7.6.5.9 1.2.9 2.1v5.3l-1.7.1zm-.6-3.7h-.8c-.6 0-1.1.1-1.4.3-.3.2-.5.5-.5 1 0 .6.4.9 1.1.9.5 0 .9-.1 1.2-.4.3-.3.5-.7.5-1.2v-.6zm6.3 3.9c-.9 0-1.7-.4-2.2-1.1-.5-.7-.8-1.7-.8-3s.3-2.3.8-3.1c.5-.7 1.3-1.1 2.3-1.1 1 0 1.8.4 2.3 1.2h.1c-.1-.6-.2-1.1-.2-1.6V118h2.2v11.1h-1.7l-.4-1h-.1c-.5.8-1.2 1.2-2.3 1.2zm.8-1.8c.6 0 1-.2 1.2-.5.3-.3.4-.9.4-1.7v-.2c0-.9-.1-1.5-.4-1.8s-.7-.6-1.3-.6c-.5 0-.9.2-1.1.6-.3.4-.4 1-.4 1.8s.1 1.4.4 1.8c.3.4.7.6 1.2.6zm12.7-2.4c0 1.3-.3 2.3-1 3.1-.7.7-1.6 1.1-2.9 1.1-.8 0-1.4-.2-2-.5s-1-.8-1.4-1.4c-.3-.6-.5-1.4-.5-2.2 0-1.3.3-2.3 1-3 .7-.7 1.6-1.1 2.9-1.1.8 0 1.4.2 2 .5s1 .8 1.4 1.4c.3.6.5 1.3.5 2.1zm-5.6 0c0 .8.1 1.4.4 1.8.3.4.7.6 1.3.6.6 0 1-.2 1.3-.6.3-.4.4-1 .4-1.8s-.1-1.4-.4-1.8-.7-.6-1.3-.6c-.6 0-1 .2-1.3.6-.2.4-.4 1-.4 1.8zm-31-40.7l21.5-47.1H75.9V27.2H117v7.6L95.4 84.4H82.7z"/></svg>