<svg xmlns="http://www.w3.org/2000/svg" width="159.333" height="153.667" viewBox="0 0 159.333 153.667"><path fill="#F9F9F9" d="M1.734 2.315h155.864v143.632H1.734z"/><path fill="#F5F6F8" d="M2 2.477h155.333v143.308H2z"/><path fill="#F2F2F2" d="M2.266 2.596h154.802v143.068H2.266z"/><path fill="#EFEFEF" d="M2.542 2.674h154.249v142.912H2.542z"/><path fill="#EDECED" d="M2.792 2.768h153.749v142.724H2.792z"/><path fill="#E8E7E7" d="M3.083 2.934h153.166v142.392H3.083z"/><path fill="#FFF" d="M3.333 3.13h152.666v141.834H3.333z"/><path fill="#F9F9FA" d="M12.833 12.477h133.666v123H12.833z"/><path fill="#F2F2F2" d="M155.677 146.395l-152.203.181.094 4.775c49.251-5.598 135.439-5.432 151.953-.301l.156-4.655z"/><path fill="#EAEAE9" d="M155.677 145.867l-152.203.182.249 4.688c49.251-5.598 135.175-5.363 151.69-.234l.264-4.636z"/><path fill="#E2E2E1" d="M155.677 144.992l-152.203.182.374 4.812c48.163-5.018 139.906-4.391 151.533-.219l.296-4.775z"/><path fill="#D8D8D7" d="M155.583 145.053l-151.937.06.326 3.998c48.164-5.018 139.752-4.469 151.379-.297l.232-3.761z"/><path fill="#D3D3D3" d="M155.444 145.043H3.754l.374 3.459c47.075-4.33 140.271-3.082 151.207-.281l.109-3.178z"/><path fill="#C8C8C8" d="M155.32 145.043H3.878l.343 2.803c46.96-3.012 141.802-2.658 150.989-.375l.11-2.428z"/><path fill="#C4C3C3" d="M155.196 145.578l-.031-.535H4.001l.328 2.209c46.894-3.01 141.65-2.314 150.74-.031.02-.033.021-.182.031-.266l.096-1.377z"/><path d="M94.763 71.345h-6.924v11.92H75.958v-11.92H51.409v-8.458l25.218-37.138h11.212v36.155h6.924v9.441zm-18.805-9.442v-9.757c0-1.626.065-3.986.197-7.081.131-3.095.236-4.892.315-5.39h-.315a44.007 44.007 0 0 1-3.501 6.295L62.11 61.903h13.848zm-36.356 50.753h-5.243v-11.225c0-1.387-.232-2.427-.696-3.12-.464-.693-1.195-1.04-2.192-1.04-1.341 0-2.315.493-2.922 1.479s-.911 2.607-.911 4.864v9.042h-5.243V93.438H26.4l.705 2.458h.292c.516-.882 1.26-1.572 2.234-2.071.974-.498 2.091-.747 3.352-.747 2.876 0 4.824.939 5.844 2.818h.464c.516-.894 1.274-1.587 2.277-2.08 1.003-.492 2.134-.738 3.395-.738 2.177 0 3.825.559 4.942 1.676s1.676 2.907 1.676 5.371v12.531h-5.26v-11.225c0-1.387-.232-2.427-.696-3.12-.464-.693-1.194-1.04-2.191-1.04-1.284 0-2.243.459-2.879 1.376-.636.916-.954 2.372-.954 4.365v9.644zm14.321-24.185c0-1.707.951-2.561 2.854-2.561 1.902 0 2.854.854 2.854 2.561 0 .814-.238 1.447-.713 1.899-.476.453-1.189.68-2.14.68-1.903 0-2.855-.861-2.855-2.579zm5.467 24.185h-5.243V93.438h5.243v19.218zm7.926 0h-5.243V85.91h5.243v26.746zm20.424 0h-5.243v-11.225c0-2.773-1.032-4.16-3.094-4.16-1.467 0-2.527.499-3.18 1.496s-.979 2.612-.979 4.847v9.042h-5.243V85.91h5.243v5.448c0 .425-.041 1.422-.121 2.991l-.12 1.547h.275c1.169-1.879 3.025-2.818 5.569-2.818 2.257 0 3.971.607 5.14 1.821 1.169 1.215 1.753 2.957 1.753 5.226v12.531zm20.045-9.643c0 3.129-.825 5.575-2.475 7.34-1.65 1.766-3.948 2.647-6.893 2.647-1.845 0-3.472-.404-4.881-1.212-1.41-.808-2.493-1.968-3.249-3.48s-1.134-3.277-1.134-5.295c0-3.14.819-5.58 2.458-7.322 1.639-1.742 3.942-2.612 6.91-2.612 1.845 0 3.472.4 4.882 1.203 1.409.802 2.492 1.953 3.249 3.455.755 1.5 1.133 3.259 1.133 5.276zM95.632 89.52c-.355 0-.696.152-1.022.455-.327.304-.564.766-.713 1.384h-2.561c.126-1.661.599-2.962 1.418-3.901s1.905-1.41 3.257-1.41c.47 0 .931.095 1.384.284.453.188.899.396 1.341.619.441.223.874.427 1.298.609.424.184.842.275 1.254.275.355 0 .696-.148 1.023-.447.327-.298.564-.756.713-1.375h2.561c-.126 1.662-.604 2.963-1.435 3.902-.831.939-1.911 1.409-3.24 1.409a3.58 3.58 0 0 1-1.384-.283c-.453-.189-.9-.396-1.341-.619-.441-.224-.874-.43-1.298-.619a3.064 3.064 0 0 0-1.255-.283zm-1.134 13.493c0 1.902.312 3.341.937 4.314.625.975 1.642 1.462 3.051 1.462 1.398 0 2.404-.484 3.017-1.453.613-.968.919-2.409.919-4.323 0-1.901-.31-3.328-.928-4.279s-1.633-1.427-3.042-1.427c-1.398 0-2.407.473-3.025 1.418s-.929 2.375-.929 4.288zM117.999 113c-3.094 0-5.512-.854-7.254-2.562-1.742-1.707-2.613-4.125-2.613-7.254 0-3.22.805-5.709 2.415-7.469 1.61-1.759 3.836-2.638 6.678-2.638 2.716 0 4.831.773 6.343 2.32 1.512 1.547 2.269 3.685 2.269 6.411v2.544h-12.393c.057 1.49.499 2.653 1.323 3.489.825.837 1.982 1.255 3.472 1.255 1.158 0 2.252-.12 3.283-.36 1.032-.241 2.108-.625 3.232-1.152v4.057c-.917.459-1.897.8-2.939 1.023-1.044.225-2.315.336-3.816.336zm-.74-16.192c-1.112 0-1.983.353-2.613 1.058-.63.704-.991 1.704-1.083 2.999h7.357c-.023-1.295-.361-2.295-1.014-2.999-.653-.706-1.535-1.058-2.647-1.058zm23.432 10.141c0 1.972-.686 3.473-2.054 4.504-1.37 1.031-3.418 1.547-6.146 1.547-1.398 0-2.59-.095-3.575-.283a13.507 13.507 0 0 1-2.768-.834v-4.332c.974.459 2.071.843 3.292 1.152 1.22.309 2.294.464 3.223.464 1.902 0 2.854-.55 2.854-1.65 0-.412-.126-.748-.378-1.006s-.688-.55-1.307-.876c-.619-.327-1.444-.708-2.475-1.144-1.479-.619-2.564-1.191-3.257-1.719-.693-.527-1.198-1.132-1.513-1.813-.315-.682-.473-1.521-.473-2.519 0-1.707.662-3.027 1.985-3.962 1.323-.934 3.2-1.4 5.629-1.4 2.314 0 4.566.504 6.754 1.513l-1.581 3.781a28.994 28.994 0 0 0-2.699-1.015 8.488 8.488 0 0 0-2.561-.395c-1.547 0-2.321.418-2.321 1.254 0 .471.25.877.748 1.221s1.59.854 3.274 1.53c1.501.607 2.601 1.175 3.3 1.701.699.527 1.215 1.135 1.547 1.822s.502 1.508.502 2.459zm-118.426 20.7c-.826 0-1.475-.321-1.946-.962-.471-.642-.707-1.53-.707-2.666 0-1.152.24-2.051.72-2.694s1.141-.965 1.984-.965c.884 0 1.559.344 2.024 1.031h.063a7.786 7.786 0 0 1-.145-1.402v-2.251h1.924v9.783H24.71l-.371-.912h-.082c-.436.693-1.1 1.038-1.992 1.038zm.672-1.528c.491 0 .85-.143 1.079-.428.228-.284.353-.769.374-1.452v-.207c0-.755-.116-1.296-.349-1.622-.232-.327-.611-.49-1.135-.49-.428 0-.76.181-.997.543-.237.363-.355.89-.355 1.582 0 .691.12 1.21.358 1.556.239.345.581.518 1.025.518zm7.659 1.528c-1.132 0-2.016-.312-2.653-.938-.637-.624-.956-1.509-.956-2.652 0-1.179.294-2.089.883-2.732s1.403-.965 2.442-.965c.994 0 1.767.283 2.32.849s.83 1.348.83 2.345v.931H28.93c.021.545.183.971.484 1.276.302.307.725.459 1.27.459.423 0 .824-.044 1.201-.132a6.07 6.07 0 0 0 1.182-.421v1.483a4.457 4.457 0 0 1-1.075.374 6.764 6.764 0 0 1-1.396.123zm-.27-5.922c-.407 0-.725.129-.956.387s-.363.623-.396 1.097h2.691c-.009-.474-.132-.839-.371-1.097s-.562-.387-.968-.387zm9.35 5.922c-2.188 0-3.282-1.201-3.282-3.603 0-1.195.297-2.107.893-2.738s1.448-.946 2.559-.946c.813 0 1.542.159 2.188.478l-.566 1.484a9.483 9.483 0 0 0-.842-.299 2.7 2.7 0 0 0-.78-.116c-.998 0-1.497.708-1.497 2.125 0 1.375.499 2.062 1.497 2.062.369 0 .71-.05 1.025-.148s.628-.252.943-.462v1.641c-.31.197-.624.334-.94.409s-.716.113-1.198.113zm4.912-.126H42.67v-9.783h1.918v9.783zm1.157-8.846c0-.624.348-.937 1.043-.937s1.044.312 1.044.937c0 .298-.087.529-.261.695-.174.165-.435.248-.783.248-.695 0-1.043-.314-1.043-.943zm2 8.846h-1.918v-7.029h1.918v7.029zm4.421.126c-1.132 0-2.016-.312-2.653-.938-.637-.624-.956-1.509-.956-2.652 0-1.179.294-2.089.883-2.732s1.403-.965 2.442-.965c.994 0 1.767.283 2.32.849s.83 1.348.83 2.345v.931h-4.533c.021.545.183.971.484 1.276.302.307.725.459 1.27.459.423 0 .824-.044 1.201-.132a6.07 6.07 0 0 0 1.182-.421v1.483a4.457 4.457 0 0 1-1.075.374 6.754 6.754 0 0 1-1.395.123zm-.271-5.922c-.407 0-.725.129-.956.387s-.363.623-.396 1.097h2.691c-.009-.474-.132-.839-.371-1.097s-.561-.387-.968-.387zm10.413 5.796H60.39v-4.105c0-.507-.09-.888-.27-1.142-.18-.253-.467-.38-.861-.38-.537 0-.924.179-1.163.537-.239.358-.358.953-.358 1.782v3.308H55.82v-7.029h1.465l.258.899h.107c.214-.34.508-.597.883-.771a3.009 3.009 0 0 1 1.28-.261c.817 0 1.438.221 1.861.663s.635 1.08.635 1.915v4.584zm4.163-1.402c.335 0 .738-.073 1.207-.22v1.427c-.478.214-1.064.321-1.76.321-.767 0-1.326-.194-1.676-.582-.35-.388-.525-.969-.525-1.744v-3.39h-.918v-.811l1.056-.642.554-1.483h1.226v1.496h1.968v1.439h-1.968v3.39c0 .272.076.474.229.604.153.131.355.195.607.195zm5.037 1.528c-1.132 0-2.016-.312-2.653-.938-.637-.624-.956-1.509-.956-2.652 0-1.179.294-2.089.883-2.732s1.403-.965 2.442-.965c.994 0 1.767.283 2.32.849s.83 1.348.83 2.345v.931h-4.533c.021.545.183.971.484 1.276.302.307.725.459 1.27.459.423 0 .824-.044 1.201-.132a6.07 6.07 0 0 0 1.182-.421v1.483a4.457 4.457 0 0 1-1.075.374 6.747 6.747 0 0 1-1.395.123zm-.271-5.922c-.407 0-.725.129-.956.387s-.363.623-.396 1.097h2.691c-.009-.474-.132-.839-.371-1.097s-.561-.387-.968-.387zm8.828 3.709c0 .722-.25 1.271-.751 1.647-.501.378-1.25.566-2.248.566-.512 0-.947-.035-1.308-.104a4.893 4.893 0 0 1-1.013-.306v-1.584c.356.168.758.308 1.204.421s.839.17 1.179.17c.695 0 1.043-.201 1.043-.604a.506.506 0 0 0-.138-.368c-.092-.094-.251-.201-.478-.32a12.108 12.108 0 0 0-.905-.418c-.541-.227-.938-.437-1.191-.629a1.759 1.759 0 0 1-.553-.663c-.115-.25-.173-.557-.173-.921 0-.625.242-1.108.726-1.449.484-.342 1.17-.513 2.059-.513.847 0 1.67.185 2.471.553l-.578 1.384c-.352-.151-.681-.274-.987-.371s-.618-.145-.937-.145c-.566 0-.849.153-.849.459 0 .172.091.32.273.446.183.126.582.312 1.198.56.549.223.952.43 1.208.622.255.193.444.415.566.667.121.252.182.552.182.9zm8.201 0c0 .722-.25 1.271-.751 1.647-.501.378-1.25.566-2.248.566-.512 0-.947-.035-1.308-.104a4.893 4.893 0 0 1-1.013-.306v-1.584c.356.168.758.308 1.204.421s.839.17 1.179.17c.695 0 1.043-.201 1.043-.604a.506.506 0 0 0-.138-.368c-.092-.094-.251-.201-.478-.32a12.108 12.108 0 0 0-.905-.418c-.541-.227-.938-.437-1.191-.629a1.759 1.759 0 0 1-.553-.663c-.115-.25-.173-.557-.173-.921 0-.625.242-1.108.726-1.449.484-.342 1.17-.513 2.059-.513.847 0 1.67.185 2.471.553l-.578 1.384c-.352-.151-.681-.274-.987-.371s-.618-.145-.937-.145c-.566 0-.849.153-.849.459 0 .172.091.32.273.446.183.126.582.312 1.198.56.549.223.952.43 1.208.622.255.193.444.415.566.667.121.252.182.552.182.9zm5.188 2.087l-.371-.956h-.05c-.323.407-.655.688-.997.846-.342.157-.787.236-1.336.236-.675 0-1.207-.193-1.594-.579-.388-.385-.582-.935-.582-1.646 0-.746.261-1.297.783-1.65.521-.354 1.309-.551 2.361-.588l1.22-.038v-.309c0-.712-.365-1.068-1.094-1.068-.562 0-1.222.17-1.98.509l-.635-1.295c.809-.423 1.706-.635 2.691-.635.943 0 1.666.205 2.169.616s.754 1.035.754 1.873v4.685h-1.339zm-.566-3.256l-.742.025c-.558.017-.972.117-1.245.302s-.409.465-.409.842c0 .541.31.812.93.812.444 0 .8-.128 1.066-.384.266-.255.399-.595.399-1.019v-.578zm6.068 1.854c.335 0 .738-.073 1.207-.22v1.427c-.478.214-1.064.321-1.76.321-.767 0-1.326-.194-1.676-.582-.35-.388-.525-.969-.525-1.744v-3.39h-.918v-.811l1.056-.642.554-1.483h1.226v1.496h1.968v1.439H98.12v3.39c0 .272.076.474.229.604.153.131.355.195.607.195zm1.773-7.444c0-.624.348-.937 1.043-.937s1.044.312 1.044.937c0 .298-.087.529-.261.695-.174.165-.435.248-.783.248-.695 0-1.043-.314-1.043-.943zm2 8.846h-1.918v-7.029h1.918v7.029zm6.143-2.087c0 .722-.25 1.271-.751 1.647-.501.378-1.25.566-2.248.566-.512 0-.947-.035-1.308-.104a4.893 4.893 0 0 1-1.013-.306v-1.584c.356.168.758.308 1.204.421s.839.17 1.179.17c.695 0 1.043-.201 1.043-.604a.506.506 0 0 0-.138-.368c-.092-.094-.251-.201-.478-.32a12.108 12.108 0 0 0-.905-.418c-.541-.227-.938-.437-1.191-.629a1.759 1.759 0 0 1-.553-.663c-.115-.25-.173-.557-.173-.921 0-.625.242-1.108.726-1.449.484-.342 1.17-.513 2.059-.513.847 0 1.67.185 2.471.553l-.578 1.384c-.352-.151-.681-.274-.987-.371s-.618-.145-.937-.145c-.566 0-.849.153-.849.459 0 .172.091.32.273.446.183.126.582.312 1.198.56.549.223.952.43 1.208.622.255.193.444.415.566.667.121.252.182.552.182.9zm4.609-3.502h-1.66v5.59h-1.918v-5.59h-1.056v-.924l1.056-.516v-.516c0-.801.197-1.385.591-1.754.394-.369 1.024-.554 1.892-.554.663 0 1.251.099 1.767.296l-.491 1.408a3.597 3.597 0 0 0-1.069-.183c-.272 0-.469.081-.591.242s-.182.368-.182.619v.44h1.66v1.442zm3.51 5.715c-1.132 0-2.016-.312-2.653-.938-.637-.624-.956-1.509-.956-2.652 0-1.179.294-2.089.883-2.732s1.403-.965 2.442-.965c.994 0 1.767.283 2.32.849s.83 1.348.83 2.345v.931h-4.533c.021.545.183.971.484 1.276.302.307.725.459 1.27.459.423 0 .824-.044 1.201-.132a6.07 6.07 0 0 0 1.182-.421v1.483a4.457 4.457 0 0 1-1.075.374 6.747 6.747 0 0 1-1.395.123zm-.271-5.922c-.407 0-.725.129-.956.387s-.363.623-.396 1.097h2.691c-.009-.474-.132-.839-.371-1.097s-.561-.387-.968-.387zm3.843-3.05c0-.624.348-.937 1.043-.937s1.044.312 1.044.937c0 .298-.087.529-.261.695-.174.165-.435.248-.783.248-.695 0-1.043-.314-1.043-.943zm1.999 8.846h-1.918v-7.029h1.918v7.029zm4.201-1.402c.335 0 .738-.073 1.207-.22v1.427c-.478.214-1.064.321-1.76.321-.767 0-1.326-.194-1.676-.582-.35-.388-.525-.969-.525-1.744v-3.39h-.918v-.811l1.056-.642.554-1.483h1.226v1.496h1.968v1.439h-1.968v3.39c0 .272.076.474.229.604.153.131.355.195.607.195zm8.243-2.125c0 1.145-.302 2.039-.905 2.685-.604.646-1.444.969-2.521.969-.675 0-1.27-.148-1.786-.443a2.946 2.946 0 0 1-1.188-1.273c-.276-.553-.415-1.198-.415-1.937 0-1.148.299-2.041.899-2.679.599-.637 1.442-.955 2.527-.955.675 0 1.27.146 1.786.439.516.294.912.715 1.188 1.265.277.548.415 1.192.415 1.929zm-4.86 0c0 .696.114 1.222.343 1.578s.601.534 1.116.534c.511 0 .879-.177 1.103-.531.225-.354.336-.881.336-1.581 0-.695-.113-1.218-.339-1.565s-.597-.521-1.113-.521c-.512 0-.88.173-1.106.519-.227.344-.34.867-.34 1.567zm10.576 1.44c0 .722-.251 1.271-.751 1.647-.501.378-1.25.566-2.248.566-.512 0-.947-.035-1.308-.104a4.893 4.893 0 0 1-1.013-.306v-1.584c.356.168.758.308 1.204.421s.839.17 1.179.17c.695 0 1.043-.201 1.043-.604a.506.506 0 0 0-.138-.368c-.093-.094-.252-.201-.479-.32a12.108 12.108 0 0 0-.905-.418c-.541-.227-.938-.437-1.191-.629a1.759 1.759 0 0 1-.553-.663c-.115-.25-.173-.557-.173-.921 0-.625.242-1.108.726-1.449.484-.342 1.17-.513 2.059-.513.846 0 1.67.185 2.471.553l-.579 1.384a10.869 10.869 0 0 0-.986-.371 3.09 3.09 0 0 0-.937-.145c-.566 0-.849.153-.849.459 0 .172.091.32.273.446.183.126.582.312 1.197.56.55.223.952.43 1.208.622.256.193.444.415.565.667.125.252.185.552.185.9z" fill="#939393"/></svg>