<svg xmlns="http://www.w3.org/2000/svg" width="159.333" height="153.667" viewBox="0 0 159.333 153.667"><path fill="#F9F9F9" d="M1.734 2.315h155.864v143.632H1.734z"/><path fill="#F5F6F8" d="M2 2.478h155.333v143.308H2z"/><path fill="#F2F2F2" d="M2.266 2.597h154.802v143.067H2.266z"/><path fill="#EFEFEF" d="M2.542 2.675h154.249v142.911H2.542z"/><path fill="#EDECED" d="M2.792 2.769h153.749v142.724H2.792z"/><path fill="#E8E7E7" d="M3.083 2.935h153.166v142.392H3.083z"/><path fill="#FFF" d="M3.333 3.131h152.666v141.834H3.333z"/><path fill="#F9F9FA" d="M12.833 12.478h133.666v122.999H12.833z"/><path fill="#F2F2F2" d="M155.677 146.395l-152.203.181.094 4.775c49.251-5.598 135.439-5.432 151.953-.301l.156-4.655z"/><path fill="#EAEAE9" d="M155.677 145.867l-152.203.182.249 4.688c49.251-5.598 135.175-5.363 151.69-.234l.264-4.636z"/><path fill="#E2E2E1" d="M155.677 144.992l-152.203.182.374 4.812c48.163-5.018 139.906-4.391 151.533-.219l.296-4.775z"/><path fill="#D8D8D7" d="M155.583 145.053l-151.937.06.326 3.998c48.164-5.018 139.752-4.469 151.379-.297l.232-3.761z"/><path fill="#D3D3D3" d="M155.444 145.043H3.754l.374 3.459c47.075-4.33 140.271-3.082 151.207-.281l.109-3.178z"/><path fill="#C8C8C8" d="M155.32 145.043H3.878l.343 2.803c46.96-3.012 141.802-2.658 150.989-.375l.11-2.428z"/><path fill="#C4C3C3" d="M155.196 145.578l-.031-.535H4.001l.328 2.209c46.894-3.01 141.65-2.314 150.74-.031.02-.033.021-.182.031-.266l.096-1.377z"/><g fill="#939393"><path d="M38.997 49.468l-.951-2.449h-.129c-.827 1.042-1.679 1.765-2.554 2.167-.876.403-2.017.604-3.424.604-1.729 0-3.092-.494-4.085-1.482s-1.49-2.396-1.49-4.222c0-1.912.669-3.321 2.006-4.229 1.338-.907 3.354-1.41 6.051-1.507l3.126-.097v-.789c0-1.826-.935-2.739-2.804-2.739-1.439 0-3.132.435-5.076 1.305l-1.627-3.32c2.073-1.084 4.372-1.627 6.896-1.627 2.417 0 4.27.526 5.559 1.579s1.934 2.653 1.934 4.802v12.004h-3.432zm-1.45-8.346l-1.901.064c-1.429.043-2.492.301-3.19.773s-1.048 1.192-1.048 2.159c0 1.386.795 2.079 2.385 2.079 1.139 0 2.049-.328 2.731-.983.682-.655 1.023-1.525 1.023-2.61v-1.482zm29.362 8.346h-4.914V38.947c0-1.3-.218-2.274-.653-2.925-.435-.649-1.119-.975-2.054-.975-1.257 0-2.17.462-2.739 1.386s-.854 2.443-.854 4.56v8.476H50.78V31.454h3.754l.661 2.305h.273c.483-.827 1.182-1.475 2.095-1.941.913-.468 1.961-.701 3.143-.701 2.696 0 4.521.881 5.479 2.643h.435c.483-.838 1.195-1.488 2.135-1.95.94-.461 2.001-.692 3.183-.692 2.041 0 3.585.523 4.633 1.571 1.047 1.047 1.57 2.726 1.57 5.035V49.47H73.21V38.947c0-1.3-.217-2.274-.652-2.925-.435-.649-1.12-.975-2.055-.975-1.203 0-2.103.43-2.698 1.289-.597.859-.895 2.224-.895 4.093v9.039zm25.075 0l-.951-2.449h-.129c-.827 1.042-1.679 1.765-2.554 2.167-.876.403-2.017.604-3.424.604-1.729 0-3.092-.494-4.085-1.482s-1.49-2.396-1.49-4.222c0-1.912.669-3.321 2.006-4.229 1.338-.907 3.354-1.41 6.051-1.507l3.126-.097v-.789c0-1.826-.935-2.739-2.804-2.739-1.439 0-3.132.435-5.076 1.305l-1.627-3.319c2.073-1.084 4.372-1.627 6.896-1.627 2.417 0 4.27.526 5.559 1.579s1.934 2.653 1.934 4.802v12.004h-3.432zm-1.45-8.346l-1.901.064c-1.429.043-2.492.301-3.19.773s-1.048 1.192-1.048 2.159c0 1.386.795 2.079 2.385 2.079 1.139 0 2.049-.328 2.731-.983.682-.655 1.023-1.525 1.023-2.61v-1.482zm7.091-14.325c0-1.601.892-2.4 2.675-2.4s2.675.8 2.675 2.4c0 .763-.223 1.356-.668 1.78-.446.425-1.115.637-2.007.637-1.783 0-2.675-.805-2.675-2.417zm5.124 22.671h-4.914V31.454h4.914v18.014zm18.888-9.039c0 2.933-.773 5.226-2.32 6.88s-3.701 2.481-6.462 2.481c-1.729 0-3.255-.379-4.576-1.136-1.321-.758-2.336-1.845-3.045-3.263s-1.063-3.072-1.063-4.963c0-2.943.768-5.231 2.304-6.864s3.695-2.449 6.478-2.449c1.729 0 3.255.376 4.576 1.128s2.337 1.831 3.046 3.238 1.062 3.058 1.062 4.948zm-12.456 0c0 1.783.293 3.131.879 4.044.585.913 1.538 1.37 2.859 1.37 1.311 0 2.253-.454 2.828-1.362.574-.907.862-2.258.862-4.052 0-1.783-.29-3.121-.87-4.013s-1.531-1.337-2.853-1.337c-1.311 0-2.256.443-2.836 1.329-.579.887-.869 2.227-.869 4.021zm23.931-9.313c.666 0 1.219.048 1.659.145l-.37 4.608c-.397-.107-.881-.161-1.45-.161-1.568 0-2.791.403-3.666 1.209-.876.806-1.313 1.934-1.313 3.384v9.168h-4.914V31.454h3.722l.726 3.029h.241a6.764 6.764 0 0 1 2.265-2.44 5.563 5.563 0 0 1 3.1-.927zM40.109 68.788c0 1.643-.57 2.893-1.711 3.752-1.142.859-2.849 1.289-5.121 1.289-1.165 0-2.157-.078-2.979-.236a11.269 11.269 0 0 1-2.306-.694V69.29c.812.382 1.726.702 2.742.96 1.018.258 1.912.387 2.686.387 1.585 0 2.378-.459 2.378-1.375 0-.344-.105-.623-.315-.838s-.573-.459-1.089-.73a27.347 27.347 0 0 0-2.062-.952c-1.231-.516-2.136-.993-2.714-1.433-.577-.439-.998-.943-1.26-1.511-.263-.568-.395-1.268-.395-2.099 0-1.423.552-2.523 1.654-3.302 1.104-.777 2.666-1.167 4.69-1.167 1.929 0 3.806.421 5.629 1.261l-1.317 3.15a24.276 24.276 0 0 0-2.249-.845 7.042 7.042 0 0 0-2.134-.329c-1.289 0-1.934.349-1.934 1.045 0 .392.208.73.623 1.018.415.286 1.325.711 2.729 1.274 1.251.506 2.167.979 2.75 1.418.582.439 1.012.945 1.289 1.519.278.571.416 1.254.416 2.047zm8.31 5.041c-2.578 0-4.593-.711-6.044-2.134-1.452-1.423-2.178-3.438-2.178-6.044 0-2.683.671-4.758 2.013-6.224 1.341-1.465 3.196-2.198 5.564-2.198 2.263 0 4.024.645 5.285 1.934 1.26 1.289 1.891 3.07 1.891 5.343v2.119H44.623c.048 1.241.415 2.211 1.103 2.907.688.697 1.652 1.046 2.894 1.046.964 0 1.876-.101 2.735-.301s1.757-.521 2.693-.96v3.381c-.765.382-1.581.666-2.449.852-.87.186-1.93.279-3.18.279zm-.616-13.492c-.926 0-1.652.293-2.177.881-.525.587-.826 1.42-.902 2.499h6.13c-.02-1.079-.301-1.912-.845-2.499-.545-.588-1.28-.881-2.206-.881z"/><path d="M59.436 65.365L54.28 57.53h4.956l3.107 5.099 3.137-5.099h4.956l-5.214 7.835 5.457 8.178h-4.97l-3.366-5.485-3.38 5.485h-4.955l5.428-8.178zm27.775 3.423c0 1.643-.57 2.893-1.711 3.752-1.142.859-2.849 1.289-5.121 1.289-1.165 0-2.157-.078-2.979-.236a11.269 11.269 0 0 1-2.306-.694V69.29c.812.382 1.726.702 2.742.96 1.018.258 1.912.387 2.686.387 1.585 0 2.378-.459 2.378-1.375 0-.344-.105-.623-.315-.838s-.573-.459-1.089-.73a27.347 27.347 0 0 0-2.062-.952c-1.231-.516-2.136-.993-2.714-1.433-.577-.439-.998-.943-1.26-1.511-.263-.568-.395-1.268-.395-2.099 0-1.423.552-2.523 1.654-3.302 1.104-.777 2.666-1.167 4.69-1.167 1.929 0 3.806.421 5.629 1.261l-1.317 3.15a24.276 24.276 0 0 0-2.249-.845 7.042 7.042 0 0 0-2.134-.329c-1.289 0-1.934.349-1.934 1.045 0 .392.208.73.623 1.018.415.286 1.325.711 2.729 1.274 1.251.506 2.167.979 2.75 1.418.582.439 1.012.945 1.289 1.519.277.571.416 1.254.416 2.047zm15.843 4.754h-4.368V64.19c0-2.311-.859-3.466-2.578-3.466-1.223 0-2.105.415-2.649 1.246-.545.83-.816 2.177-.816 4.039v7.533h-4.368V51.256h4.368v4.541c0 .353-.034 1.184-.101 2.491l-.101 1.289h.229c.974-1.565 2.521-2.349 4.641-2.349 1.881 0 3.309.507 4.282 1.519.975 1.012 1.461 2.463 1.461 4.354v10.441zm16.703-8.035c0 2.606-.688 4.646-2.062 6.116s-3.29 2.205-5.744 2.205c-1.537 0-2.893-.336-4.067-1.01-1.174-.673-2.076-1.64-2.707-2.9-.63-1.26-.945-2.73-.945-4.411 0-2.616.683-4.649 2.049-6.102 1.365-1.451 3.284-2.177 5.757-2.177 1.537 0 2.894.335 4.068 1.003 1.174.668 2.076 1.628 2.707 2.879.628 1.252.944 2.717.944 4.397zm-11.072 0c0 1.585.261 2.784.781 3.595.521.812 1.367 1.218 2.542 1.218 1.165 0 2.003-.403 2.514-1.21s.767-2.008.767-3.603c0-1.585-.258-2.773-.773-3.566-.516-.792-1.361-1.188-2.535-1.188-1.165 0-2.006.394-2.521 1.182s-.775 1.978-.775 3.572zm21.128 8.322c-1.882 0-3.356-.683-4.426-2.048h-.229c.152 1.337.229 2.11.229 2.32v6.489h-4.368V57.53h3.552l.615 2.077h.201c1.021-1.585 2.535-2.378 4.54-2.378 1.891 0 3.37.73 4.44 2.191 1.068 1.461 1.604 3.49 1.604 6.087 0 1.71-.251 3.194-.752 4.454-.501 1.261-1.215 2.221-2.141 2.879-.926.66-2.015.989-3.265.989zm-1.289-13.105c-1.079 0-1.867.332-2.363.995-.497.664-.755 1.76-.773 3.287v.473c0 1.719.255 2.95.766 3.695.511.744 1.32 1.117 2.428 1.117 1.958 0 2.937-1.613 2.937-4.841 0-1.576-.241-2.758-.724-3.545-.483-.787-1.239-1.181-2.271-1.181zM36.859 95.619h-.109c-.933 1.355-2.327 2.031-4.184 2.031-1.743 0-3.1-.596-4.068-1.787s-1.453-2.887-1.453-5.084.486-3.904 1.46-5.119c.973-1.217 2.326-1.824 4.062-1.824 1.809 0 3.194.656 4.159 1.969h.158l-.085-.961-.049-.936v-5.424h2.02v18.924h-1.643l-.268-1.789zm-4.037.342c1.378 0 2.377-.375 2.998-1.125.62-.75.93-1.961.93-3.631v-.426c0-1.889-.314-3.236-.942-4.043s-1.632-1.211-3.01-1.211c-1.184 0-2.09.461-2.719 1.381-.628.92-.942 2.219-.942 3.898 0 1.701.312 2.986.937 3.854.623.869 1.54 1.303 2.748 1.303zm16.433 1.447l-.401-1.898h-.098c-.665.836-1.327 1.402-1.988 1.697s-1.486.443-2.475.443c-1.322 0-2.358-.34-3.107-1.021-.75-.68-1.125-1.648-1.125-2.906 0-2.691 2.152-4.104 6.458-4.232l2.262-.072v-.829c0-1.045-.225-1.818-.675-2.316s-1.17-.748-2.159-.748c-1.11 0-2.367.34-3.77 1.021l-.621-1.545a9.501 9.501 0 0 1 2.159-.838 9.331 9.331 0 0 1 2.354-.305c1.589 0 2.767.354 3.533 1.059s1.149 1.836 1.149 3.393v9.098h-1.496zm-4.561-1.424c1.256 0 2.243-.344 2.961-1.033s1.076-1.654 1.076-2.895v-1.205l-2.019.086c-1.605.057-2.763.307-3.473.748-.709.441-1.063 1.129-1.063 2.061 0 .73.221 1.285.662 1.668.443.381 1.061.57 1.856.57zm20.899 1.424l-.401-1.898h-.098c-.665.836-1.327 1.402-1.988 1.697s-1.486.443-2.475.443c-1.322 0-2.358-.34-3.107-1.021-.75-.68-1.125-1.648-1.125-2.906 0-2.691 2.152-4.104 6.458-4.232l2.262-.072v-.829c0-1.045-.225-1.818-.675-2.316s-1.17-.748-2.159-.748c-1.11 0-2.367.34-3.77 1.021l-.621-1.545a9.501 9.501 0 0 1 2.159-.838 9.331 9.331 0 0 1 2.354-.305c1.589 0 2.767.354 3.533 1.059s1.149 1.836 1.149 3.393v9.098h-1.496zm-4.561-1.424c1.256 0 2.243-.344 2.961-1.033s1.076-1.654 1.076-2.895v-1.205l-2.019.086c-1.605.057-2.763.307-3.473.748-.709.441-1.063 1.129-1.063 2.061 0 .73.221 1.285.662 1.668.443.381 1.061.57 1.856.57zm25.213 1.424v-8.672c0-1.062-.228-1.859-.682-2.391-.454-.529-1.159-.795-2.116-.795-1.257 0-2.185.359-2.784 1.082-.601.721-.9 1.832-.9 3.332v7.443h-2.019v-8.672c0-1.062-.228-1.859-.682-2.391-.454-.529-1.163-.795-2.128-.795-1.265 0-2.191.379-2.779 1.137s-.882 2-.882 3.727v6.994h-2.019v-13.33h1.642l.328 1.824h.098c.381-.648.918-1.154 1.611-1.52s1.47-.547 2.329-.547c2.084 0 3.446.754 4.087 2.262h.097c.397-.697.973-1.25 1.728-1.654.754-.406 1.613-.607 2.578-.607 1.508 0 2.637.387 3.387 1.16.75.775 1.125 2.014 1.125 3.717v8.695h-2.019zm9.817.242c-1.971 0-3.525-.6-4.664-1.799-1.14-1.201-1.709-2.867-1.709-5 0-2.148.529-3.854 1.587-5.119 1.059-1.266 2.479-1.896 4.263-1.896 1.671 0 2.992.549 3.965 1.646.974 1.1 1.46 2.549 1.46 4.348v1.277H91.78c.041 1.564.436 2.754 1.186 3.564s1.807 1.215 3.169 1.215c1.435 0 2.854-.299 4.257-.898v1.799c-.714.309-1.389.529-2.025.664-.638.133-1.405.199-2.305.199zm-.547-12.125c-1.07 0-1.924.35-2.561 1.047s-1.012 1.662-1.125 2.895h6.969c0-1.273-.284-2.248-.852-2.926s-1.378-1.016-2.431-1.016zm-1.496-3.515c.389-.502.809-1.109 1.259-1.824.45-.713.805-1.332 1.063-1.859h2.457v.254c-.356.527-.888 1.176-1.593 1.947-.706.77-1.318 1.365-1.837 1.787h-1.35v-.305zm14.474 1.826c.592 0 1.123.047 1.593.145l-.279 1.873a6.921 6.921 0 0 0-1.46-.182c-1.078 0-2 .438-2.767 1.312-.766.877-1.149 1.967-1.149 3.271v7.152h-2.019v-13.33h1.666l.231 2.469h.097c.495-.867 1.091-1.537 1.788-2.006a4.028 4.028 0 0 1 2.299-.704zm1.924-3.369c0-.463.113-.801.34-1.016.228-.215.511-.322.852-.322.324 0 .604.109.839.328s.353.555.353 1.01c0 .453-.117.791-.353 1.016a1.177 1.177 0 0 1-.839.334c-.341 0-.624-.111-.852-.334-.227-.225-.34-.563-.34-1.016zm2.188 16.941h-2.019v-13.33h2.019v13.33zm7.617.242c-1.93 0-3.424-.594-4.482-1.781-1.058-1.188-1.587-2.867-1.587-5.041 0-2.23.537-3.953 1.611-5.168 1.074-1.217 2.604-1.824 4.592-1.824.64 0 1.28.068 1.921.205.641.139 1.144.301 1.509.486l-.621 1.715c-.445-.178-.932-.326-1.459-.443s-.993-.176-1.398-.176c-2.708 0-4.062 1.727-4.062 5.182 0 1.637.33 2.895.991 3.77s1.64 1.312 2.938 1.312c1.11 0 2.25-.238 3.417-.717v1.787c-.894.463-2.017.693-3.37.693zm12.735-.242l-.401-1.898h-.098c-.665.836-1.327 1.402-1.988 1.697s-1.486.443-2.475.443c-1.322 0-2.358-.34-3.107-1.021-.75-.68-1.125-1.648-1.125-2.906 0-2.691 2.152-4.104 6.458-4.232l2.262-.072v-.829c0-1.045-.225-1.818-.675-2.316s-1.17-.748-2.159-.748c-1.11 0-2.367.34-3.77 1.021l-.621-1.545a9.501 9.501 0 0 1 2.159-.838 9.331 9.331 0 0 1 2.354-.305c1.589 0 2.767.354 3.533 1.059s1.149 1.836 1.149 3.393v9.098h-1.496zm-4.561-1.424c1.256 0 2.243-.344 2.961-1.033s1.076-1.654 1.076-2.895v-1.205l-2.019.086c-1.605.057-2.763.307-3.473.748-.709.441-1.063 1.129-1.063 2.061 0 .73.221 1.285.662 1.668.443.381 1.062.57 1.856.57zm-99.257 24.758H27.12v-18.924h2.019v18.924zm10.486 0l-.401-1.898h-.098c-.665.836-1.327 1.402-1.988 1.697s-1.486.443-2.475.443c-1.322 0-2.358-.34-3.107-1.021-.75-.68-1.125-1.648-1.125-2.906 0-2.691 2.152-4.104 6.458-4.232l2.262-.072v-.828c0-1.045-.225-1.818-.675-2.316s-1.17-.748-2.159-.748c-1.11 0-2.367.34-3.77 1.021l-.621-1.545a9.501 9.501 0 0 1 2.159-.838 9.331 9.331 0 0 1 2.354-.305c1.589 0 2.767.354 3.533 1.059s1.149 1.836 1.149 3.393v9.098h-1.496zm-4.561-1.424c1.256 0 2.243-.344 2.961-1.033s1.076-1.654 1.076-2.895v-1.205l-2.019.086c-1.605.057-2.763.307-3.473.748-.709.441-1.063 1.129-1.063 2.061 0 .73.221 1.285.662 1.668.443.381 1.062.57 1.856.57zm12.529 0c.356 0 .701-.025 1.033-.078s.596-.107.791-.164v1.543c-.22.105-.542.193-.967.262-.426.07-.81.104-1.149.104-2.579 0-3.868-1.357-3.868-4.074v-7.93h-1.909v-.973l1.909-.838.852-2.848h1.168v3.09h3.867v1.568h-3.867v7.846c0 .803.19 1.418.571 1.848s.904.644 1.569.644zm2.325-15.517c0-.463.113-.801.34-1.016.228-.215.511-.322.852-.322.324 0 .604.109.839.328s.353.555.353 1.01c0 .453-.117.791-.353 1.016a1.177 1.177 0 0 1-.839.334c-.341 0-.624-.111-.852-.334-.227-.225-.34-.563-.34-1.016zm2.188 16.941h-2.019v-13.33h2.019v13.33zm11.41 0v-8.623c0-1.086-.247-1.898-.741-2.434-.495-.533-1.27-.801-2.323-.801-1.395 0-2.416.377-3.064 1.131-.649.754-.974 1.998-.974 3.732v6.994h-2.019v-13.33h1.642l.328 1.824h.098c.413-.656.993-1.166 1.739-1.525.746-.361 1.577-.541 2.493-.541 1.605 0 2.813.387 3.624 1.16.811.775 1.217 2.014 1.217 3.717v8.695h-2.02zm12.371 0l-.401-1.898h-.098c-.665.836-1.327 1.402-1.988 1.697s-1.486.443-2.475.443c-1.322 0-2.358-.34-3.107-1.021-.75-.68-1.125-1.648-1.125-2.906 0-2.691 2.152-4.104 6.458-4.232l2.262-.072v-.828c0-1.045-.225-1.818-.675-2.316s-1.17-.748-2.159-.748c-1.11 0-2.367.34-3.77 1.021l-.621-1.545a9.501 9.501 0 0 1 2.159-.838 9.331 9.331 0 0 1 2.354-.305c1.589 0 2.767.354 3.533 1.059s1.149 1.836 1.149 3.393v9.098h-1.496zm-4.561-1.424c1.256 0 2.243-.344 2.961-1.033s1.076-1.654 1.076-2.895v-1.205l-2.019.086c-1.605.057-2.763.307-3.473.748-.709.441-1.063 1.129-1.063 2.061 0 .73.221 1.285.662 1.668.443.381 1.061.57 1.856.57z"/></g></svg>