<svg xmlns="http://www.w3.org/2000/svg" width="159.333" height="153.667" viewBox="0 0 159.333 153.667"><path fill="#F9F9F9" d="M1.734 2.315h155.864v143.632H1.734z"/><path fill="#F5F6F8" d="M2 2.477h155.333v143.308H2z"/><path fill="#F2F2F2" d="M2.266 2.596h154.802v143.068H2.266z"/><path fill="#EFEFEF" d="M2.542 2.674h154.249v142.912H2.542z"/><path fill="#EDECED" d="M2.792 2.768h153.749v142.724H2.792z"/><path fill="#E8E7E7" d="M3.083 2.934h153.166v142.392H3.083z"/><path fill="#FFF" d="M3.333 3.13h152.666v141.834H3.333z"/><path fill="#F9F9FA" d="M12.833 12.477h133.666v123H12.833z"/><path fill="#F2F2F2" d="M155.677 146.395l-152.203.181.094 4.775c49.251-5.598 135.439-5.432 151.953-.301l.156-4.655z"/><path fill="#EAEAE9" d="M155.677 145.867l-152.203.182.249 4.688c49.251-5.598 135.175-5.363 151.69-.234l.264-4.636z"/><path fill="#E2E2E1" d="M155.677 144.992l-152.203.182.374 4.812c48.163-5.018 139.906-4.391 151.533-.219l.296-4.775z"/><path fill="#D8D8D7" d="M155.583 145.053l-151.937.06.326 3.998c48.164-5.018 139.752-4.469 151.379-.297l.232-3.761z"/><path fill="#D3D3D3" d="M155.444 145.043H3.754l.374 3.459c47.075-4.33 140.271-3.082 151.207-.281l.109-3.178z"/><path fill="#C8C8C8" d="M155.32 145.043H3.878l.343 2.803c46.96-3.012 141.802-2.658 150.989-.375l.11-2.428z"/><path fill="#C4C3C3" d="M155.196 145.578l-.031-.535H4.001l.328 2.209c46.894-3.01 141.65-2.314 150.74-.031.02-.033.021-.182.031-.266l.096-1.377z"/><g fill="#939393"><path d="M59.717 65.355h-9.2V40.167l.089-4.138.149-4.526c-1.529 1.529-2.591 2.531-3.186 3.008l-5.002 4.019-4.437-5.537 14.023-11.165h7.562v43.527zm19.747-44.093c4.168 0 7.527.947 10.078 2.843 2.55 1.896 3.826 4.451 3.826 7.667 0 2.223-.616 4.203-1.847 5.939-1.23 1.737-3.215 3.29-5.954 4.659 3.255 1.747 5.592 3.568 7.012 5.464 1.419 1.896 2.129 3.975 2.129 6.237 0 3.573-1.399 6.446-4.198 8.619-2.799 2.174-6.481 3.261-11.046 3.261-4.764 0-8.506-1.013-11.225-3.037-2.72-2.024-4.079-4.893-4.079-8.604 0-2.48.66-4.685 1.98-6.609 1.319-1.925 3.438-3.622 6.356-5.092-2.481-1.567-4.269-3.245-5.359-5.031-1.092-1.786-1.638-3.741-1.638-5.865 0-3.116 1.29-5.637 3.87-7.562 2.581-1.926 5.946-2.889 10.095-2.889zm-6.788 32.511c0 1.708.595 3.037 1.786 3.99 1.19.952 2.818 1.429 4.883 1.429 2.282 0 3.989-.491 5.121-1.474 1.131-.982 1.697-2.277 1.697-3.886 0-1.329-.562-2.575-1.683-3.736s-2.942-2.396-5.463-3.707c-4.228 1.946-6.341 4.407-6.341 7.384zm6.728-25.783c-1.568 0-2.834.401-3.796 1.206-.963.804-1.444 1.881-1.444 3.229 0 1.191.382 2.259 1.146 3.201.764.943 2.148 1.91 4.153 2.902 1.945-.912 3.305-1.846 4.079-2.798.773-.953 1.161-2.055 1.161-3.306 0-1.369-.497-2.451-1.489-3.245-.991-.791-2.262-1.189-3.81-1.189zm46.39 15.601c0 7.603-1.246 13.229-3.737 16.882s-6.326 5.479-11.507 5.479c-5.022 0-8.809-1.886-11.358-5.657-2.551-3.771-3.826-9.339-3.826-16.703 0-7.681 1.24-13.343 3.722-16.985 2.481-3.642 6.302-5.463 11.463-5.463 5.021 0 8.817 1.905 11.388 5.716 2.569 3.81 3.855 9.387 3.855 16.731zm-21.288 0c0 5.34.461 9.166 1.385 11.478.923 2.313 2.476 3.469 4.659 3.469 2.144 0 3.691-1.171 4.645-3.513s1.429-6.153 1.429-11.434c0-5.339-.481-9.175-1.443-11.507-.963-2.332-2.506-3.498-4.63-3.498-2.164 0-3.712 1.166-4.645 3.498-.934 2.332-1.4 6.168-1.4 11.507zM64.645 90.116c-1.797 0-3.209-.697-4.234-2.094-1.026-1.396-1.54-3.329-1.54-5.802 0-2.509.522-4.463 1.567-5.863 1.044-1.4 2.483-2.101 4.316-2.101 1.925 0 3.394.748 4.406 2.244h.137c-.21-1.141-.314-2.157-.314-3.052V68.55h4.188v21.292h-3.202l-.808-1.984h-.178c-.949 1.506-2.395 2.258-4.338 2.258zm1.464-3.325c1.067 0 1.849-.31 2.347-.931.497-.62.769-1.674.813-3.16v-.452c0-1.642-.253-2.818-.759-3.53-.507-.712-1.33-1.067-2.47-1.067-.931 0-1.654.395-2.169 1.184-.516.789-.773 1.937-.773 3.441 0 1.506.26 2.635.78 3.387.52.752 1.264 1.128 2.231 1.128zm9.567-16.201c0-1.359.757-2.039 2.271-2.039 1.514 0 2.271.68 2.271 2.039 0 .647-.189 1.151-.568 1.512-.378.36-.946.541-1.703.541-1.514 0-2.271-.685-2.271-2.053zm4.351 19.253h-4.174V74.544h4.174v15.299zm12.413 0l-.808-2.08h-.109c-.703.885-1.426 1.498-2.169 1.841-.744.342-1.713.513-2.908.513-1.469 0-2.625-.419-3.469-1.259-.844-.839-1.266-2.034-1.266-3.585 0-1.624.568-2.821 1.704-3.592 1.136-.771 2.848-1.197 5.138-1.279l2.655-.083v-.67c0-1.551-.794-2.326-2.382-2.326-1.222 0-2.659.369-4.31 1.108l-1.383-2.819c1.761-.921 3.713-1.382 5.857-1.382 2.052 0 3.626.447 4.721 1.341 1.095.895 1.642 2.254 1.642 4.078v10.194H92.44zm-1.231-7.088l-1.615.055c-1.213.036-2.116.255-2.709.656-.594.401-.89 1.013-.89 1.834 0 1.177.675 1.766 2.025 1.766.967 0 1.739-.278 2.319-.835.579-.557.869-1.296.869-2.217v-1.259zm17.435 2.545c0 1.569-.546 2.764-1.636 3.585s-2.721 1.231-4.892 1.231c-1.113 0-2.062-.075-2.847-.226s-1.519-.371-2.203-.664v-3.448a14.5 14.5 0 0 0 2.621.917c.971.246 1.826.37 2.565.37 1.514 0 2.271-.438 2.271-1.314 0-.328-.101-.595-.301-.8-.201-.206-.548-.438-1.04-.698a26.316 26.316 0 0 0-1.971-.91c-1.177-.492-2.041-.948-2.593-1.368-.553-.42-.954-.9-1.205-1.443s-.376-1.211-.376-2.005c0-1.359.527-2.41 1.581-3.154 1.053-.743 2.547-1.115 4.481-1.115 1.842 0 3.635.401 5.377 1.204l-1.259 3.011c-.766-.328-1.482-.598-2.148-.808s-1.346-.314-2.039-.314c-1.231 0-1.847.333-1.847.999 0 .374.198.697.595.972.397.273 1.267.68 2.607 1.218 1.194.483 2.07.935 2.627 1.354s.967.903 1.231 1.45c.268.547.401 1.199.401 1.956zm-59.647 23.519a4.73 4.73 0 0 1-1.954-.396 3.674 3.674 0 0 1-1.484-1.214h-.12c.08.64.12 1.246.12 1.819v4.508H43.9V97.665h1.35l.229 1.499h.08c.427-.6.923-1.033 1.489-1.3.566-.266 1.216-.399 1.949-.399 1.452 0 2.574.496 3.363 1.489.79.993 1.185 2.386 1.185 4.178 0 1.799-.401 3.197-1.204 4.193-.804.996-1.918 1.494-3.344 1.494zm-.24-9.945c-1.119 0-1.929.31-2.429.93-.499.619-.756 1.605-.77 2.958v.37c0 1.539.257 2.641.77 3.304.514.663 1.336.994 2.469.994.946 0 1.688-.383 2.225-1.149.536-.766.805-1.822.805-3.168 0-1.366-.269-2.414-.805-3.144-.538-.73-1.292-1.095-2.265-1.095zm12.786 9.745l-.33-1.56h-.08c-.547.687-1.091 1.151-1.634 1.395-.544.243-1.222.365-2.034.365-1.086 0-1.938-.28-2.554-.84s-.925-1.355-.925-2.389c0-2.212 1.77-3.372 5.308-3.479l1.858-.06v-.68c0-.859-.185-1.494-.555-1.904-.369-.41-.961-.614-1.773-.614-.913 0-1.946.279-3.099.839l-.51-1.269a7.783 7.783 0 0 1 1.774-.69 7.707 7.707 0 0 1 1.934-.25c1.306 0 2.273.29 2.903.87.63.579.944 1.509.944 2.788v7.477h-1.227zm-3.748-1.169c1.032 0 1.844-.283 2.434-.85s.884-1.359.884-2.379v-.99l-1.659.07c-1.318.047-2.271.252-2.854.615s-.874.928-.874 1.693c0 .6.182 1.057.545 1.369.363.315.871.472 1.524.472zm11.755-9.985c.486 0 .923.04 1.309.12l-.229 1.539c-.453-.1-.853-.15-1.199-.15-.887 0-1.645.36-2.274 1.08-.629.72-.944 1.615-.944 2.688v5.877h-1.659V97.665h1.369l.19 2.028h.08c.406-.713.896-1.263 1.469-1.648a3.294 3.294 0 0 1 1.888-.58zm8.458 11.154l-.33-1.56h-.08c-.547.687-1.091 1.151-1.634 1.395-.544.243-1.222.365-2.034.365-1.086 0-1.938-.28-2.554-.84s-.925-1.355-.925-2.389c0-2.212 1.77-3.372 5.308-3.479l1.858-.06v-.68c0-.859-.185-1.494-.555-1.904-.369-.41-.961-.614-1.773-.614-.913 0-1.946.279-3.099.839l-.51-1.269a7.783 7.783 0 0 1 1.774-.69 7.707 7.707 0 0 1 1.934-.25c1.306 0 2.273.29 2.903.87.63.579.944 1.509.944 2.788v7.477h-1.227zm-3.748-1.169c1.032 0 1.844-.283 2.434-.85s.884-1.359.884-2.379v-.99l-1.659.07c-1.318.047-2.271.252-2.854.615s-.874.928-.874 1.693c0 .6.182 1.057.545 1.369.363.315.87.472 1.524.472zm13.974 0c.294 0 .577-.022.85-.065.273-.043.49-.088.65-.135v1.27c-.181.086-.445.158-.795.215s-.665.085-.944.085c-2.119 0-3.179-1.116-3.179-3.349v-6.517h-1.569v-.8l1.569-.689.7-2.339h.959v2.539h3.179v1.289h-3.179v6.446c0 .66.156 1.167.47 1.52.314.353.743.53 1.289.53zm7.049-9.985c.486 0 .923.04 1.309.12l-.229 1.539c-.453-.1-.853-.15-1.199-.15-.887 0-1.645.36-2.274 1.08-.629.72-.944 1.615-.944 2.688v5.877h-1.659V97.665h1.369l.19 2.028h.08c.406-.713.896-1.263 1.469-1.648a3.299 3.299 0 0 1 1.888-.58zm11.176 5.667c0 1.786-.449 3.181-1.349 4.183-.899 1.003-2.143 1.505-3.729 1.505-.979 0-1.849-.23-2.608-.69-.76-.459-1.346-1.119-1.759-1.979-.414-.859-.62-1.865-.62-3.019 0-1.785.446-3.177 1.339-4.173.894-.996 2.133-1.494 3.719-1.494 1.532 0 2.75.51 3.653 1.529.903 1.02 1.354 2.399 1.354 4.138zm-8.346 0c0 1.399.28 2.466.84 3.198.56.733 1.383 1.1 2.469 1.1s1.911-.365 2.474-1.095c.563-.729.845-1.797.845-3.203 0-1.393-.281-2.45-.845-3.173-.562-.724-1.395-1.085-2.493-1.085-1.087 0-1.906.356-2.459 1.069-.554.713-.831 1.777-.831 3.189zm13.994 5.687c-1.586 0-2.813-.488-3.683-1.465-.87-.976-1.305-2.356-1.305-4.143 0-1.832.441-3.248 1.324-4.248.883-.999 2.141-1.499 3.773-1.499.526 0 1.053.057 1.579.17s.939.246 1.239.399l-.51 1.409a7.815 7.815 0 0 0-1.199-.364 5.343 5.343 0 0 0-1.149-.146c-2.226 0-3.339 1.42-3.339 4.259 0 1.346.271 2.378.815 3.098.543.72 1.347 1.08 2.413 1.08.913 0 1.85-.197 2.809-.59v1.469c-.73.381-1.653.571-2.767.571zm10.467-.2l-.33-1.56h-.08c-.547.687-1.091 1.151-1.634 1.395-.544.243-1.222.365-2.034.365-1.086 0-1.938-.28-2.554-.84s-.925-1.355-.925-2.389c0-2.212 1.77-3.372 5.308-3.479l1.858-.06v-.68c0-.859-.185-1.494-.555-1.904-.369-.41-.961-.614-1.773-.614-.913 0-1.946.279-3.099.839l-.51-1.269a7.783 7.783 0 0 1 1.774-.69 7.707 7.707 0 0 1 1.934-.25c1.306 0 2.273.29 2.903.87.63.579.944 1.509.944 2.788v7.477h-1.227zm-3.748-1.169c1.032 0 1.844-.283 2.434-.85s.884-1.359.884-2.379v-.99l-1.659.07c-1.318.047-2.271.252-2.854.615s-.874.928-.874 1.693c0 .6.182 1.057.545 1.369.363.315.871.472 1.524.472zm-67.86 16.17c0 1.02-.38 1.806-1.139 2.358-.76.554-1.826.83-3.199.83-1.452 0-2.585-.23-3.397-.69v-1.539a8.18 8.18 0 0 0 1.693.63c.604.153 1.185.23 1.744.23.866 0 1.533-.139 1.999-.415.467-.276.7-.698.7-1.265 0-.426-.186-.791-.555-1.095-.37-.303-1.092-.661-2.164-1.074-1.02-.38-1.744-.711-2.174-.994s-.75-.604-.96-.965c-.21-.359-.314-.789-.314-1.289 0-.893.363-1.598 1.089-2.114.727-.517 1.723-.774 2.989-.774a8.74 8.74 0 0 1 3.458.72l-.59 1.35c-1.1-.453-2.096-.68-2.988-.68-.786 0-1.38.123-1.779.369-.399.247-.6.587-.6 1.02 0 .294.075.543.225.75.15.206.392.403.725.59s.973.456 1.919.81c1.3.473 2.178.949 2.634 1.429.456.479.684 1.082.684 1.808zm5.689 3.189c-1.619 0-2.896-.493-3.833-1.479s-1.404-2.355-1.404-4.108c0-1.766.435-3.168 1.305-4.207.869-1.04 2.037-1.56 3.503-1.56 1.372 0 2.459.451 3.258 1.354.8.902 1.2 2.094 1.2 3.573v1.049h-7.547c.033 1.286.358 2.263.975 2.929.616.667 1.484 1 2.604 1 1.18 0 2.346-.247 3.499-.74v1.479a8.84 8.84 0 0 1-1.664.545c-.525.109-1.156.165-1.896.165zm-.45-9.965c-.879 0-1.58.286-2.104.859s-.831 1.366-.925 2.379h5.728c0-1.046-.233-1.848-.7-2.404-.466-.556-1.133-.834-1.999-.834zm19.631 9.764v-7.126c0-.873-.187-1.528-.56-1.965-.373-.436-.953-.654-1.739-.654-1.032 0-1.796.297-2.288.89-.493.593-.74 1.506-.74 2.738v6.117H68.85v-7.126c0-.873-.187-1.528-.56-1.965-.373-.436-.956-.654-1.749-.654-1.039 0-1.801.312-2.284.935-.482.623-.725 1.645-.725 3.063v5.747h-1.659v-10.954h1.35l.27 1.499h.08a3.264 3.264 0 0 1 1.324-1.249c.57-.3 1.208-.45 1.914-.45 1.713 0 2.832.62 3.358 1.859h.08c.326-.573.8-1.026 1.419-1.359.62-.333 1.326-.5 2.119-.5 1.239 0 2.167.318 2.784.954.616.637.924 1.654.924 3.054v7.146h-1.659zm11.498.201c-1.586 0-2.813-.488-3.683-1.465-.87-.976-1.305-2.356-1.305-4.143 0-1.832.441-3.248 1.324-4.248.883-.999 2.141-1.499 3.773-1.499.526 0 1.053.057 1.579.17s.939.246 1.239.399l-.51 1.409a7.815 7.815 0 0 0-1.199-.364 5.343 5.343 0 0 0-1.149-.146c-2.226 0-3.339 1.42-3.339 4.259 0 1.346.271 2.378.815 3.098.543.72 1.347 1.08 2.413 1.08.913 0 1.85-.197 2.809-.59v1.469c-.731.38-1.654.571-2.767.571zm5.289-11.155v7.106c0 .893.203 1.559.609 1.999.406.439 1.043.659 1.909.659 1.146 0 1.984-.313 2.514-.939.53-.626.795-1.649.795-3.068v-5.757h1.659v10.954H98.74l-.24-1.47h-.09c-.34.54-.812.953-1.414 1.24-.604.286-1.291.43-2.064.43-1.333 0-2.33-.316-2.993-.95-.663-.633-.994-1.646-.994-3.038v-7.166h1.678zm16.433 7.966c0 1.02-.38 1.806-1.139 2.358-.76.554-1.826.83-3.199.83-1.452 0-2.585-.23-3.397-.69v-1.539a8.18 8.18 0 0 0 1.693.63c.604.153 1.185.23 1.744.23.866 0 1.533-.139 1.999-.415.467-.276.7-.698.7-1.265 0-.426-.186-.791-.555-1.095-.37-.303-1.092-.661-2.164-1.074-1.02-.38-1.744-.711-2.174-.994s-.75-.604-.96-.965c-.21-.359-.314-.789-.314-1.289 0-.893.363-1.598 1.089-2.114.727-.517 1.723-.774 2.989-.774a8.74 8.74 0 0 1 3.458.72l-.59 1.35c-1.1-.453-2.096-.68-2.988-.68-.786 0-1.38.123-1.779.369-.399.247-.6.587-.6 1.02 0 .294.075.543.225.75.15.206.392.403.725.59s.973.456 1.919.81c1.3.473 2.178.949 2.634 1.429.456.479.684 1.082.684 1.808z"/><path d="M113.655 125.439c.294 0 .577-.022.85-.065.273-.043.49-.088.65-.135v1.27c-.181.086-.445.158-.795.215s-.665.085-.944.085c-2.119 0-3.179-1.116-3.179-3.349v-6.517h-1.569v-.8l1.569-.689.7-2.339h.959v2.539h3.179v1.289h-3.179v6.446c0 .66.156 1.167.47 1.52.314.354.743.53 1.289.53z"/><path d="M125.16 121.121c0 1.786-.449 3.181-1.349 4.183-.899 1.003-2.143 1.505-3.729 1.505-.979 0-1.849-.23-2.608-.69-.76-.459-1.346-1.119-1.759-1.979-.414-.859-.62-1.865-.62-3.019 0-1.785.446-3.177 1.339-4.173.894-.996 2.133-1.494 3.719-1.494 1.532 0 2.75.51 3.653 1.529.903 1.02 1.354 2.399 1.354 4.138zm-8.346 0c0 1.399.28 2.466.84 3.198.56.733 1.383 1.1 2.469 1.1s1.911-.365 2.474-1.095c.563-.729.845-1.797.845-3.203 0-1.393-.281-2.45-.845-3.173-.562-.724-1.395-1.085-2.493-1.085-1.087 0-1.906.356-2.459 1.069-.554.714-.831 1.777-.831 3.189z"/></g></svg>