<svg xmlns="http://www.w3.org/2000/svg" width="159.333" height="153.667" viewBox="0 0 159.333 153.667"><path fill="#F9F9F9" d="M1.734 2.315h155.864v143.632H1.734z"/><path fill="#F5F6F8" d="M2 2.477h155.333v143.308H2z"/><path fill="#F2F2F2" d="M2.266 2.596h154.802v143.068H2.266z"/><path fill="#EFEFEF" d="M2.542 2.674h154.249v142.912H2.542z"/><path fill="#EDECED" d="M2.792 2.768h153.749v142.724H2.792z"/><path fill="#E8E7E7" d="M3.083 2.934h153.166v142.392H3.083z"/><path fill="#FFF" d="M3.333 3.13h152.666v141.834H3.333z"/><path fill="#F9F9FA" d="M12.833 12.477h133.666v123H12.833z"/><path fill="#F2F2F2" d="M155.677 146.395l-152.203.181.094 4.775c49.251-5.598 135.439-5.432 151.953-.301l.156-4.655z"/><path fill="#EAEAE9" d="M155.677 145.867l-152.203.182.249 4.688c49.251-5.598 135.175-5.363 151.69-.234l.264-4.636z"/><path fill="#E2E2E1" d="M155.677 144.992l-152.203.182.374 4.812c48.163-5.018 139.906-4.391 151.533-.219l.296-4.775z"/><path fill="#D8D8D7" d="M155.583 145.053l-151.937.06.326 3.998c48.164-5.018 139.752-4.469 151.379-.297l.232-3.761z"/><path fill="#D3D3D3" d="M155.444 145.043H3.754l.374 3.459c47.075-4.33 140.271-3.082 151.207-.281l.109-3.178z"/><path fill="#C8C8C8" d="M155.32 145.043H3.878l.343 2.803c46.96-3.012 141.802-2.658 150.989-.375l.11-2.428z"/><path fill="#C4C3C3" d="M155.196 145.578l-.031-.535H4.001l.328 2.209c46.894-3.01 141.65-2.314 150.74-.031.02-.033.021-.182.031-.266l.096-1.377z"/><g fill="#939393"><path d="M48.81 65.073c0 2.264-.787 3.987-2.359 5.171-1.572 1.185-3.925 1.776-7.056 1.776-1.605 0-2.974-.108-4.105-.325a15.524 15.524 0 0 1-3.178-.958v-4.974c1.118.526 2.378.968 3.779 1.322 1.401.355 2.636.533 3.701.533 2.184 0 3.276-.632 3.276-1.895 0-.474-.145-.858-.435-1.155-.289-.296-.789-.631-1.5-1.006-.71-.375-1.657-.812-2.842-1.312-1.697-.711-2.944-1.369-3.74-1.974-.797-.605-1.375-1.3-1.737-2.083-.362-.782-.543-1.746-.543-2.892 0-1.96.761-3.477 2.28-4.549s3.674-1.609 6.464-1.609c2.658 0 5.243.579 7.757 1.737l-1.815 4.342a33.344 33.344 0 0 0-3.1-1.164 9.712 9.712 0 0 0-2.94-.454c-1.776 0-2.665.48-2.665 1.441 0 .539.287 1.006.859 1.401.572.395 1.825.979 3.76 1.756 1.724.698 2.986 1.35 3.789 1.954.803.605 1.396 1.303 1.776 2.093.383.791.574 1.732.574 2.824zm17.096 6.553l-.81-2.822h-.315c-.645 1.026-1.56 1.819-2.743 2.378-1.185.56-2.533.839-4.047.839-2.592 0-4.546-.693-5.861-2.082-1.316-1.388-1.974-3.385-1.974-5.99V49.56h6.02v12.889c0 1.592.283 2.786.849 3.582.565.797 1.467 1.194 2.704 1.194 1.685 0 2.901-.562 3.651-1.688s1.125-2.99 1.125-5.596V49.56h6.021v22.066h-4.62zm19.82.395c-2.593 0-4.626-.94-6.1-2.822h-.315c.21 1.843.315 2.908.315 3.197v8.941h-6.02V49.56h4.895l.849 2.861h.276c1.408-2.184 3.494-3.276 6.257-3.276 2.605 0 4.646 1.007 6.119 3.021 1.474 2.013 2.21 4.81 2.21 8.388 0 2.356-.345 4.402-1.036 6.139-.69 1.737-1.675 3.06-2.95 3.968-1.276.905-2.776 1.36-4.5 1.36zm-1.776-18.06c-1.487 0-2.573.457-3.257 1.372-.685.914-1.04 2.424-1.066 4.529v.651c0 2.368.353 4.066 1.057 5.093.703 1.026 1.818 1.539 3.345 1.539 2.697 0 4.047-2.224 4.047-6.671 0-2.172-.333-3.8-.997-4.886-.666-1.084-1.708-1.627-3.129-1.627zm21.99 18.06c-3.553 0-6.329-.979-8.329-2.94-2.001-1.961-3.001-4.737-3.001-8.329 0-3.698.925-6.557 2.773-8.576s4.404-3.03 7.668-3.03c3.119 0 5.547.889 7.283 2.665 1.737 1.776 2.605 4.23 2.605 7.362v2.921h-14.23c.065 1.711.572 3.046 1.52 4.007s2.276 1.44 3.987 1.44c1.328 0 2.585-.138 3.77-.414s2.421-.717 3.711-1.322v4.658a14.178 14.178 0 0 1-3.375 1.174c-1.198.256-2.658.384-4.382.384zm-.849-18.593c-1.276 0-2.277.405-3 1.214-.725.81-1.139 1.958-1.244 3.444h8.448c-.027-1.486-.415-2.635-1.165-3.444-.75-.809-1.763-1.214-3.039-1.214zm23.826-4.283c.815 0 1.493.06 2.032.178l-.453 5.646c-.487-.132-1.079-.197-1.776-.197-1.922 0-3.418.493-4.491 1.479-1.072.987-1.608 2.369-1.608 4.146v11.23h-6.02V49.56h4.56l.888 3.711h.296a8.3 8.3 0 0 1 2.773-2.99 6.824 6.824 0 0 1 3.799-1.136zm-93.779-5.826c-1.619 0-2.896-.493-3.833-1.479s-1.404-2.355-1.404-4.108c0-1.766.435-3.168 1.305-4.207.869-1.04 2.037-1.56 3.503-1.56 1.372 0 2.459.451 3.258 1.354.8.902 1.2 2.094 1.2 3.573v1.049H31.62c.033 1.286.358 2.263.975 2.929.616.667 1.484 1 2.604 1 1.18 0 2.346-.247 3.499-.74v1.479a8.84 8.84 0 0 1-1.664.545c-.525.11-1.157.165-1.896.165zm-.45-9.965c-.879 0-1.58.286-2.104.859s-.831 1.366-.925 2.379h5.728c0-1.046-.233-1.848-.7-2.404-.466-.555-1.133-.834-1.999-.834zm19.632 9.765v-7.126c0-.873-.187-1.528-.56-1.965-.373-.436-.953-.654-1.739-.654-1.032 0-1.796.297-2.288.89-.493.593-.74 1.506-.74 2.738v6.117h-1.659v-7.126c0-.873-.187-1.528-.56-1.965-.373-.436-.956-.654-1.749-.654-1.039 0-1.801.312-2.284.935-.482.623-.725 1.645-.725 3.063v5.747h-1.659V32.165h1.35l.27 1.499h.08a3.264 3.264 0 0 1 1.324-1.249c.57-.3 1.208-.45 1.914-.45 1.713 0 2.832.62 3.358 1.859h.08c.326-.573.8-1.026 1.419-1.359.62-.333 1.326-.5 2.119-.5 1.239 0 2.167.318 2.784.954.616.637.924 1.654.924 3.054v7.146H54.32zm8.537-11.135c1.439 0 2.557.492 3.354 1.475.796.983 1.194 2.374 1.194 4.173s-.401 3.197-1.204 4.193c-.804.996-1.918 1.494-3.344 1.494a4.73 4.73 0 0 1-1.954-.396 3.674 3.674 0 0 1-1.484-1.214h-.12l-.35 1.409H57.76V27.567h1.659v3.777c0 .847-.026 1.606-.08 2.279h.08c.773-1.092 1.918-1.639 3.438-1.639zm-.24 1.39c-1.133 0-1.948.325-2.448.975s-.75 1.744-.75 3.283.257 2.641.77 3.304c.514.663 1.336.994 2.469.994 1.02 0 1.779-.371 2.279-1.114s.75-1.811.75-3.203c0-1.426-.25-2.489-.75-3.188-.501-.701-1.273-1.051-2.32-1.051zm12.786 9.745l-.33-1.56h-.08c-.547.687-1.091 1.151-1.634 1.395-.544.243-1.222.365-2.034.365-1.086 0-1.938-.28-2.554-.84s-.925-1.355-.925-2.389c0-2.212 1.77-3.372 5.308-3.479l1.858-.06v-.68c0-.859-.185-1.494-.555-1.904-.369-.41-.961-.614-1.773-.614-.913 0-1.946.279-3.099.839l-.51-1.269a7.783 7.783 0 0 1 1.774-.69 7.707 7.707 0 0 1 1.934-.25c1.306 0 2.273.29 2.903.87.63.579.944 1.509.944 2.788v7.477h-1.227zm-3.748-1.169c1.032 0 1.844-.283 2.434-.85s.884-1.359.884-2.379v-.99l-1.659.07c-1.318.047-2.271.252-2.854.615s-.874.928-.874 1.693c0 .6.182 1.057.545 1.369.363.315.87.472 1.524.472zm8.417 1.169h-1.659V27.567h1.659v15.552zm8.617 0l-.33-1.56h-.08c-.547.687-1.091 1.151-1.634 1.395-.544.243-1.222.365-2.034.365-1.086 0-1.938-.28-2.554-.84s-.925-1.355-.925-2.389c0-2.212 1.77-3.372 5.308-3.479l1.858-.06v-.68c0-.859-.185-1.494-.555-1.904-.369-.41-.961-.614-1.773-.614-.913 0-1.946.279-3.099.839l-.51-1.269a7.783 7.783 0 0 1 1.774-.69 7.707 7.707 0 0 1 1.934-.25c1.306 0 2.273.29 2.903.87.63.579.944 1.509.944 2.788v7.477h-1.227zm-3.748-1.169c1.032 0 1.844-.283 2.434-.85s.884-1.359.884-2.379v-.99l-1.659.07c-1.318.047-2.271.252-2.854.615s-.874.928-.874 1.693c0 .6.182 1.057.545 1.369.363.315.871.472 1.524.472zm15.724-9.785v1.049l-2.029.24c.187.233.354.538.5.914.146.377.22.802.22 1.274 0 1.073-.366 1.93-1.1 2.569-.732.64-1.739.959-3.019.959a4.96 4.96 0 0 1-.919-.08c-.706.374-1.06.844-1.06 1.409 0 .301.123.521.37.665.246.144.669.215 1.269.215h1.939c1.186 0 2.098.25 2.733.75.637.499.955 1.226.955 2.179 0 1.213-.487 2.137-1.46 2.773s-2.392.955-4.258.955c-1.433 0-2.537-.267-3.312-.8-.776-.533-1.165-1.286-1.165-2.259 0-.667.213-1.243.64-1.729s1.026-.816 1.799-.989a1.734 1.734 0 0 1-.704-.59 1.56 1.56 0 0 1-.285-.93c0-.399.106-.749.32-1.05.213-.3.55-.589 1.009-.869-.566-.233-1.027-.63-1.384-1.189s-.535-1.199-.535-1.919c0-1.199.36-2.124 1.08-2.773s1.739-.975 3.059-.975c.572 0 1.089.066 1.549.2h3.788zm-8.736 12.793c0 .593.25 1.043.749 1.35.5.307 1.216.46 2.149.46 1.393 0 2.424-.209 3.093-.625.67-.416 1.005-.981 1.005-1.694 0-.593-.184-1.004-.55-1.234-.366-.229-1.056-.345-2.068-.345h-1.989c-.753 0-1.34.18-1.759.54-.42.359-.63.875-.63 1.548zm.9-9.285c0 .767.216 1.346.649 1.739s1.036.59 1.81.59c1.619 0 2.429-.786 2.429-2.359 0-1.646-.82-2.469-2.459-2.469-.779 0-1.379.21-1.799.63s-.63 1.043-.63 1.869zm13.074 7.646c-1.619 0-2.896-.493-3.833-1.479s-1.404-2.355-1.404-4.108c0-1.766.435-3.168 1.305-4.207.869-1.04 2.037-1.56 3.503-1.56 1.372 0 2.459.451 3.258 1.354.8.902 1.2 2.094 1.2 3.573v1.049h-7.547c.033 1.286.358 2.263.975 2.929.616.667 1.484 1 2.604 1 1.18 0 2.346-.247 3.499-.74v1.479a8.84 8.84 0 0 1-1.664.545c-.525.11-1.157.165-1.896.165zm-.45-9.965c-.879 0-1.58.286-2.104.859s-.831 1.366-.925 2.379h5.728c0-1.046-.233-1.848-.7-2.404-.466-.555-1.133-.834-1.999-.834zm13.165 9.765v-7.086c0-.894-.203-1.56-.609-1.999-.406-.44-1.043-.66-1.909-.66-1.146 0-1.985.31-2.519.93-.533.619-.8 1.643-.8 3.068v5.747h-1.659V32.165h1.35l.27 1.499h.08c.34-.54.816-.958 1.43-1.255.612-.296 1.296-.444 2.049-.444 1.319 0 2.312.318 2.979.954.666.637.999 1.654.999 3.054v7.146h-1.661zm10.497-2.988c0 1.02-.38 1.806-1.139 2.358-.76.554-1.826.83-3.199.83-1.452 0-2.585-.23-3.397-.69V41.09a8.18 8.18 0 0 0 1.693.63c.604.153 1.185.23 1.744.23.866 0 1.533-.139 1.999-.415.467-.276.7-.698.7-1.265 0-.426-.186-.791-.555-1.095-.37-.303-1.092-.661-2.164-1.074-1.02-.38-1.744-.711-2.174-.994s-.75-.604-.96-.965c-.21-.359-.314-.789-.314-1.289 0-.893.363-1.598 1.089-2.114.727-.517 1.723-.774 2.989-.774a8.74 8.74 0 0 1 3.458.72l-.59 1.35c-1.1-.453-2.096-.68-2.988-.68-.786 0-1.38.123-1.779.369-.399.247-.6.587-.6 1.02 0 .294.075.543.225.75.15.206.392.403.725.59s.973.456 1.919.81c1.3.473 2.178.949 2.634 1.429.456.479.684 1.081.684 1.808zM35.018 96.98c-1.729 0-3.087-.672-4.074-2.015s-1.481-3.203-1.481-5.582c0-2.413.503-4.293 1.508-5.641s2.389-2.021 4.153-2.021c1.852 0 3.265.72 4.239 2.158h.131c-.201-1.097-.303-2.075-.303-2.936V76.23h4.028v20.484h-3.08l-.776-1.909h-.172c-.912 1.451-2.304 2.175-4.173 2.175zm1.408-3.199c1.027 0 1.779-.299 2.258-.896s.739-1.61.783-3.041v-.434c0-1.579-.243-2.712-.73-3.396s-1.279-1.026-2.376-1.026c-.896 0-1.591.38-2.087 1.139-.495.759-.743 1.862-.743 3.311s.25 2.534.75 3.259c.5.722 1.216 1.084 2.145 1.084zm8.665-15.587c0-1.308.728-1.962 2.185-1.962s2.186.654 2.186 1.962c0 .623-.182 1.108-.546 1.454-.364.348-.911.521-1.64.521-1.457 0-2.185-.658-2.185-1.975zm4.186 18.523h-4.015V81.999h4.015v14.718zm12.325-4.371c0 1.51-.524 2.66-1.573 3.449-1.049.79-2.618 1.186-4.706 1.186-1.071 0-1.984-.073-2.738-.218a10.294 10.294 0 0 1-2.12-.639v-3.317a13.87 13.87 0 0 0 2.521.882c.935.237 1.757.355 2.468.355 1.457 0 2.186-.421 2.186-1.264 0-.315-.097-.572-.289-.77-.193-.198-.527-.422-1.001-.672s-1.105-.542-1.896-.875c-1.133-.475-1.964-.913-2.495-1.316-.531-.404-.917-.867-1.158-1.39-.241-.521-.362-1.165-.362-1.928 0-1.308.507-2.319 1.521-3.035 1.014-.715 2.451-1.072 4.312-1.072 1.772 0 3.497.386 5.174 1.158l-1.211 2.896a22.365 22.365 0 0 0-2.067-.777 6.516 6.516 0 0 0-1.961-.303c-1.186 0-1.777.32-1.777.961 0 .36.19.672.572.935.382.264 1.218.654 2.508 1.172 1.15.466 1.992.9 2.528 1.304.535.403.93.869 1.185 1.396.251.526.379 1.154.379 1.882zm6.952 4.634c-4.581 0-6.872-2.515-6.872-7.544 0-2.501.623-4.412 1.869-5.733 1.246-1.32 3.032-1.98 5.358-1.98 1.702 0 3.229.333 4.581 1l-1.185 3.107a20.36 20.36 0 0 0-1.764-.626 5.705 5.705 0 0 0-1.633-.243c-2.089 0-3.133 1.483-3.133 4.449 0 2.879 1.044 4.318 3.133 4.318.772 0 1.487-.104 2.146-.31s1.316-.528 1.975-.968v3.437c-.649.412-1.305.697-1.968.855s-1.498.238-2.507.238zm13.945-15.257c.544 0 .996.039 1.355.118l-.303 3.765a4.635 4.635 0 0 0-1.185-.131c-1.281 0-2.279.329-2.995.987-.715.658-1.073 1.579-1.073 2.765v7.49h-4.015V81.999h3.041l.593 2.475h.197a5.52 5.52 0 0 1 1.85-1.994 4.558 4.558 0 0 1 2.535-.757zm8.532 15.257c-2.369 0-4.222-.654-5.556-1.962s-2.001-3.159-2.001-5.556c0-2.466.616-4.372 1.85-5.72s2.938-2.021 5.114-2.021c2.08 0 3.699.592 4.858 1.777 1.158 1.185 1.737 2.821 1.737 4.91v1.948h-9.491c.044 1.141.382 2.032 1.014 2.672.632.642 1.518.962 2.659.962.886 0 1.725-.093 2.515-.277a12.584 12.584 0 0 0 2.475-.882v3.107a9.475 9.475 0 0 1-2.251.783c-.799.174-1.774.259-2.923.259zm-.567-12.401c-.851 0-1.519.27-2.001.81s-.759 1.306-.829 2.297h5.635c-.018-.991-.276-1.757-.777-2.297-.5-.54-1.176-.81-2.028-.81zm13.878 9.202c.702 0 1.545-.153 2.528-.461v2.988c-1.001.447-2.229.672-3.687.672-1.606 0-2.775-.406-3.509-1.218-.732-.812-1.099-2.029-1.099-3.653v-7.096h-1.922v-1.698l2.211-1.343 1.159-3.107h2.566v3.134h4.121v3.015h-4.121v7.096c0 .57.16.991.48 1.264s.747.407 1.273.407z"/><path d="M117.035 96.717l-.776-2.001h-.105c-.676.852-1.371 1.441-2.087 1.771-.715.329-1.647.494-2.797.494-1.413 0-2.526-.404-3.338-1.212-.812-.807-1.218-1.957-1.218-3.449 0-1.562.547-2.714 1.64-3.455s2.74-1.152 4.943-1.231l2.554-.078v-.646c0-1.492-.764-2.238-2.291-2.238-1.176 0-2.559.355-4.146 1.066l-1.33-2.712c1.694-.886 3.572-1.329 5.635-1.329 1.975 0 3.488.43 4.542 1.29 1.053.86 1.579 2.168 1.579 3.923v9.808h-2.805zm-1.185-6.82l-1.554.053c-1.167.035-2.036.246-2.606.632-.57.387-.855.975-.855 1.764 0 1.133.649 1.698 1.948 1.698.93 0 1.674-.268 2.231-.803.557-.535.836-1.246.836-2.133v-1.211zm16.234 2.449c0 1.51-.524 2.66-1.573 3.449-1.049.79-2.618 1.186-4.706 1.186-1.071 0-1.984-.073-2.738-.218a10.294 10.294 0 0 1-2.12-.639v-3.317a13.87 13.87 0 0 0 2.521.882c.935.237 1.757.355 2.468.355 1.457 0 2.186-.421 2.186-1.264 0-.315-.097-.572-.289-.77-.193-.198-.527-.422-1.001-.672s-1.105-.542-1.896-.875c-1.133-.475-1.964-.913-2.495-1.316-.531-.404-.917-.867-1.158-1.39-.241-.521-.362-1.165-.362-1.928 0-1.308.507-2.319 1.521-3.035 1.014-.715 2.451-1.072 4.312-1.072 1.772 0 3.497.386 5.174 1.158l-1.211 2.896a22.365 22.365 0 0 0-2.067-.777 6.516 6.516 0 0 0-1.961-.303c-1.186 0-1.777.32-1.777.961 0 .36.19.672.572.935.382.264 1.218.654 2.508 1.172 1.15.466 1.992.9 2.528 1.304.535.403.93.869 1.185 1.396.252.526.379 1.154.379 1.882zm-95.508 24.703c-2.249 0-4.008-.621-5.274-1.862s-1.899-3-1.899-5.275c0-2.341.585-4.151 1.756-5.431s2.789-1.919 4.855-1.919c1.976 0 3.513.562 4.612 1.688 1.101 1.125 1.65 2.68 1.65 4.663v1.85h-9.012c.041 1.083.362 1.929.962 2.537.601.608 1.441.913 2.525.913.841 0 1.637-.088 2.387-.263s1.533-.454 2.351-.838v2.95a8.957 8.957 0 0 1-2.138.743c-.759.163-1.684.244-2.775.244zm-.537-11.775c-.809 0-1.441.256-1.899.769-.459.513-.722 1.239-.788 2.182h5.35c-.017-.942-.262-1.669-.737-2.182-.476-.513-1.118-.769-1.926-.769zm21.641 7.375c0 1.433-.498 2.524-1.494 3.274s-2.485 1.125-4.469 1.125c-1.017 0-1.883-.068-2.6-.206s-1.388-.34-2.013-.606v-3.149c.708.333 1.506.612 2.394.837.888.226 1.669.338 2.344.338 1.383 0 2.075-.4 2.075-1.2 0-.3-.092-.544-.275-.731s-.5-.399-.949-.638a24.4 24.4 0 0 0-1.801-.831c-1.074-.45-1.864-.866-2.368-1.25-.504-.383-.871-.822-1.1-1.318-.229-.496-.344-1.106-.344-1.831 0-1.242.48-2.202 1.443-2.881.962-.68 2.327-1.02 4.094-1.02 1.683 0 3.32.367 4.912 1.101l-1.15 2.75a20.901 20.901 0 0 0-1.962-.738 6.18 6.18 0 0 0-1.862-.287c-1.125 0-1.688.305-1.688.912 0 .342.181.638.544.888.362.25 1.156.621 2.381 1.112 1.092.442 1.892.854 2.399 1.237.509.384.884.825 1.125 1.325.243.499.364 1.095.364 1.787zm7.25 4.4c-2.249 0-4.008-.621-5.274-1.862s-1.899-3-1.899-5.275c0-2.341.585-4.151 1.756-5.431s2.789-1.919 4.855-1.919c1.976 0 3.513.562 4.612 1.688 1.101 1.125 1.65 2.68 1.65 4.663v1.85h-9.012c.041 1.083.362 1.929.962 2.537.601.608 1.441.913 2.525.913.841 0 1.637-.088 2.387-.263s1.533-.454 2.351-.838v2.95a8.957 8.957 0 0 1-2.138.743c-.758.163-1.683.244-2.775.244zm-.537-11.775c-.809 0-1.441.256-1.899.769-.459.513-.722 1.239-.788 2.182h5.35c-.017-.942-.262-1.669-.737-2.182-.476-.513-1.117-.769-1.926-.769z"/><path d="M83.845 102.824v1.938l-2.188.562c.399.625.6 1.325.6 2.1 0 1.5-.522 2.669-1.568 3.507-1.046.837-2.498 1.256-4.356 1.256l-.688-.037-.562-.062c-.392.3-.587.633-.587 1 0 .55.7.824 2.1.824h2.375c1.533 0 2.702.33 3.506.987.805.659 1.206 1.625 1.206 2.9 0 1.633-.681 2.899-2.043 3.8s-3.319 1.35-5.869 1.35c-1.949 0-3.439-.339-4.468-1.019-1.029-.679-1.544-1.631-1.544-2.855 0-.842.263-1.546.787-2.113.525-.566 1.296-.971 2.312-1.212a2.539 2.539 0 0 1-1.024-.819c-.292-.379-.438-.78-.438-1.206 0-.533.153-.977.462-1.331.309-.354.754-.702 1.338-1.044a3.751 3.751 0 0 1-1.744-1.524c-.429-.7-.644-1.525-.644-2.475 0-1.525.496-2.704 1.487-3.538.991-.833 2.408-1.25 4.25-1.25.392 0 .856.036 1.394.106.537.071.881.123 1.031.156h4.875zm-10.787 15.949c0 .525.252.938.756 1.237.504.301 1.211.45 2.119.45 1.366 0 2.438-.188 3.212-.562.775-.375 1.163-.887 1.163-1.537 0-.525-.229-.888-.688-1.088-.459-.199-1.167-.3-2.125-.3H75.52c-.699 0-1.285.165-1.756.494s-.706.765-.706 1.306zm1.388-11.374c0 .758.173 1.358.519 1.8s.873.662 1.581.662c.717 0 1.241-.221 1.575-.662.333-.441.5-1.042.5-1.8 0-1.684-.692-2.525-2.075-2.525-1.401 0-2.1.842-2.1 2.525zm19.551 9.4l-.513-1.787h-.199c-.409.649-.988 1.151-1.738 1.506s-1.604.531-2.562.531c-1.643 0-2.88-.439-3.713-1.318-.833-.88-1.25-2.144-1.25-3.794v-9.112h3.812v8.162c0 1.009.179 1.765.537 2.269.358.505.93.757 1.713.757 1.066 0 1.837-.356 2.312-1.069.475-.712.712-1.894.712-3.543v-6.575h3.812v13.975h-2.923zm12.676-14.237c.517 0 .945.038 1.287.113l-.287 3.574a4.39 4.39 0 0 0-1.125-.125c-1.217 0-2.165.312-2.844.938-.68.625-1.019 1.5-1.019 2.625v7.112h-3.812v-13.975h2.888l.562 2.35h.188a5.272 5.272 0 0 1 1.756-1.894 4.336 4.336 0 0 1 2.406-.718zm10.652 14.237l-.738-1.9h-.1c-.642.809-1.302 1.369-1.981 1.682-.679.312-1.564.469-2.656.469-1.342 0-2.397-.383-3.168-1.15-.771-.767-1.156-1.857-1.156-3.274 0-1.483.519-2.577 1.556-3.281 1.038-.704 2.603-1.094 4.693-1.169l2.426-.074v-.613c0-1.416-.726-2.125-2.176-2.125-1.116 0-2.429.338-3.937 1.013l-1.263-2.574c1.608-.842 3.392-1.263 5.35-1.263 1.875 0 3.312.408 4.312 1.225 1 .817 1.5 2.059 1.5 3.725v9.312h-2.662zm-1.125-6.475l-1.476.05c-1.108.033-1.933.233-2.475.6s-.812.926-.812 1.676c0 1.074.616 1.612 1.85 1.612.884 0 1.59-.254 2.119-.763.529-.508.794-1.184.794-2.025v-1.15zm15.414 2.325c0 1.433-.498 2.524-1.494 3.274s-2.485 1.125-4.469 1.125c-1.017 0-1.883-.068-2.6-.206s-1.388-.34-2.013-.606v-3.149c.708.333 1.506.612 2.394.837.888.226 1.669.338 2.344.338 1.383 0 2.075-.4 2.075-1.2 0-.3-.092-.544-.275-.731s-.5-.399-.949-.638a24.4 24.4 0 0 0-1.801-.831c-1.074-.45-1.864-.866-2.368-1.25-.504-.383-.871-.822-1.1-1.318-.229-.496-.344-1.106-.344-1.831 0-1.242.48-2.202 1.443-2.881.962-.68 2.327-1.02 4.094-1.02 1.683 0 3.32.367 4.912 1.101l-1.15 2.75a20.901 20.901 0 0 0-1.962-.738 6.18 6.18 0 0 0-1.862-.287c-1.125 0-1.688.305-1.688.912 0 .342.181.638.544.888.362.25 1.156.621 2.381 1.112 1.092.442 1.892.854 2.399 1.237.509.384.884.825 1.125 1.325.243.499.364 1.095.364 1.787z"/></g></svg>