<svg xmlns="http://www.w3.org/2000/svg" width="42" height="35" viewBox="0 0 42 35"><path fill="#474748" d="M20.95 16.019a7.37 7.37 0 1 0 0 14.74 7.37 7.37 0 0 0 0-14.74zm0 13.536a6.166 6.166 0 1 1 0-12.333 6.166 6.166 0 1 1 0 12.333z"/><path fill="#474748" d="M22.199 19.945v6.346h-1.584v-3.402c0-.491-.012-.786-.035-.886s-.088-.174-.194-.225c-.106-.052-.342-.077-.708-.077h-.157v-.739c.766-.165 1.347-.504 1.744-1.017h.934zm-6.463-5.931h10.728v1.504H15.736zm-.502-11.23h2.808l6.618 10.528h-2.808zm-4.511 0h2.807l6.617 10.528H17.34zm12.265 6.009l3.778-6.009h-2.808L21.584 6.56zm2.255 3.589l6.034-9.598H28.47l-4.63 7.364z"/></svg>