<svg xmlns="http://www.w3.org/2000/svg" width="42" height="35" viewBox="0 0 42 35"><path fill="#474748" d="M23.662 5.909l-.059.063.039.013.1-.01.045-.083-.03-.034-.095.051zm.177-.286l-.06-.012-.063.021-.136.117-.098.209.055-.008.023-.046.16-.13.069-.002.123-.109-.024-.05-.049.01zm.149-.119l.033.061.066.028.01-.062-.013-.058-.079-.045-.017.076zm.664.084l-.035.056-.104.035.098.044.148.003.055-.073-.07-.063-.092-.002zm-.369-.158l-.1.002-.031.055.059.038.162.02.049.035.09-.034.035-.083-.07-.066-.194.033zm.063-.322l-.096.061-.07.027-.08.079.012.12.08-.069.074-.096.075-.018.063-.089-.058-.015zm-.231-1.132l.037.172.061.106c.012.001.072.016.072.016l.021-.09-.082-.182-.088-.069-.021.047zm-.551-1.431v.106l-.061.076-.162.089.002-.002-.01.007-.059.074-.178.189-.193.21-.014.12-.15.267-.121.169-.097.155-.117.009-.073.044-.035.108-.126.075-.076-.033.01-.177-.047-.025-.013-.056-.075-.014-.097.029-.078.073-.112-.029-.084-.11.006-.066-.034-.034-.032-.111-.018-.065-.09-.028-.121-.133-.173-.022-.132.047-.279-.011-.146-.051-.139.076-.03.119.111.13.025.081.052.15-.029.048-.114-.004-.165-.061-.038-.035-.055-.006-.013-.005.003.003-.215-.018-.122.01-.049-.063-.198-.006-.145.046-.094.205-.275-.033-.144.032-.022.061-.103.104-.154.001-.017-.045-.092.016-.092.1-.103-.052-.245-.249-.087-.127.003-.097-.133-.156-.109-.135-.003-.137.037-.088-.028-.07.029-.119.055-.093.004-.145.148-.215.059-.18.133-.138v-.073l-.125-.001-.055-.102-.035-.099-.141-.003-.111-.067.065-.077.092-.123.016-.177-.101-.149-.147-.027-.077.042-.048-.062-.064-.015.001.14-.077.153-.366.217-.219.001-.31.101-.106-.062-.189.003-.232.175-.22.055-.068-.054-.301.014-.233-.004-.198-.133-.204-.05-.188-.075.073.171.136.064.133.147.037.128-.211.273.062.14-.062.219.301.126.214-.007.208.061-.001.136-.16.06-.319.036-.12.111-.076.169-.357.149-.122.121-.242.131-.173.175-.274-.008-.151-.034-.249-.228-.243-.197-.177.006.02-.183-.013-.149-.101-.144-.028-.106-.191.035-.142.133-.087.007-.067-.074-.13-.01-.088.084-.758-.058-.062.213.048.163.251.09.082.186-.079.076.069.088-.043.107-.149-.119-.461.118-.01.366.103.159.233.214.141.302-.029.226-.013.1-.491 1.362-.142.358.01.068-.064.092-.143-.051.019-.042-.143-.108-.055.01-.129-.01-.057-.029-.057.103-.468.111-.349.044-.093.079-.079.018-.152.128-.166.058-.126.068.005.175-.076.095.021.108-.2.168.044.236.054.126-.12.097-.096-.028-.197.104-.021.135-.073.066.035.096-.037.147-.063.121.039.114-.041.098.169.199.283.556-.186.197h.417l.193.05.127.224.028.191.286.035.338.05.305-.234.25-.119.062.078-.044.145-.052.047-.024.238.003.397-.006.157.076.084.134-.011.133-.026.145.002.073-.003.064.036.018.011.425.034.192.024.201-.089.106.009.155-.103.163.013.199-.042.141-.29.334-.176.226-.02.222-.089.145.013.127.108.162-.084.072.075-.033.152.058.248-.122.183.062.316-.068.13.094.261.149.08.033.207.146.089.201.153.135.146.063-.062.284-.044.212.25.179-.034.22.281.105-.001.282.12.178.083.022.196.134.049.164.111.389-.007.258.178.05.12-.065.305.037.256-.09.147.217.444-.046.308 1.176.115.022.43-.04.267.34.106.297.646-.008.33-.383.627.012.1-.1.115.055.074-.052.143.155.139-.008.204.119.212-.103.4.025.166-.061.141.037.148.253.002.103.058.31.005.188.084.319-.1.154.129.123.049.035.159.108.737.094.266.119.045.276-.123.145.07.093.1.096.027-.074.102-.068.627-.034.071-.019.021-.009.086-.021.067-.013.081.122-.068.306.069-.002.138.102.293-.029.226.01.263.003.242-.046.091-.136-.016-.171.073-.027.05-.104.075-.041-.028-.289.159-.062.082-.107.021-.269.188-.083.021-.024.163-.094.021-.079-.021-.234.241-.048.099-.007.148-.1.021-.059.078-.155.233-.105.093-.126.174-.004.062-.133.076-.023.059.1.011.068.046.346-.074.133.104.137.225.13.069.066.188.138.273.077.006.142-.13.066.017.134.264.177.097.156.048.141.166-.004.185.132-.019.25.137.139.205.144.26.141.117-.045.187-.14.163.046.207.021.052.015.034.07.109.034.035.271-.188.104-.194.148-.459.127-.308.05-.062-.053-.076-.082-.167.061-.131.101-.039.012-.088.121-.115.009-.096.062.058.092.022.121-.121.023-.133.047-.041.024-.152.052-.059.067.006.06-.127-.024-.1-.067-.082.027-.202-.053-.058.065.023.063.167.144.187.063.005.07-.032.039.046.004.117-.053.01-.082.228-.18.252-.14-.008-.035.168-.055.086-.044-.018-.146.066-.108.076-.017.07-.112.01-.058.052v.071l.127.049.451-.297.237-.228.356-.509.144-.26.147-.338.353-.551.328-.332.058-.102-.024-.04.021-.091.065-.016.06-.145.092-.046-.02-.123.036-.084-.026-.04-.049-.049.021-.135-.116-.191.008-.082.031-.08-.017-.089-.028-.196-.05-.208.056-.043.172-.021-.034-.114-.078-.056.162-.023.016-.132-.156-.084.138-.026.097-.117.062.057.229-.178.133-.072v-.067l.19-.14.218-.116.304-.291.239-.009.144-.114.151-.104.138.012.082.078.099.033.012-.098.115-.168.301-.154.112-.023.005-.055-.062-.047-.092-.027-.037-.086.104-.017.183-.091.098.036h.113l.091-.06.11.018-.011.054-.17.078-.172.021-.037.035.05.049.269-.073.321-.101-.023-.053.09-.062.077.02-.034.072s0 .111.012.117c.01.007.191.046.191.046l.113-.052.184.017.221.042.145-.082.006-.066-.029-.037.023-.064.318-.182.262-.068.139-.068.045-.078-.031-.054-.092-.263.098-.168.104-.105.016-.13.066-.047.117-.067.035-.133-.031-.023.213-.286.28-.277.015-.134-.018-.43-.04-.084.104-.248.073-.096.021-.084.213-.145.035-.074-.032-.252.131-.29-.011-.234.054-.17v-.097l.078-.247.006-.911.013-.167.063-.122.012-.121-.062.058-.103-.086.007-.077.109-.141-.014-.151.033-.1.088-.016.033-.157-.08-.157-.172-.097.051-.016.027-.056.028.076.101.071.096.042.049-.142.092.012.031.086.064.039-.08.095-.103.064-.031.08.067.01.142-.109.185-.077.256-.327.121-.248.047-.151.094-.07.104-.224.114-.189.371-.211.054-.113.108-.024.088-.119.321-.244.293-.335.076-.091.193-.347.057-.155.092-.109.01-.115-.074-.132.045-.132.082-.064.008-.332-.073-.055-.015-.167-.19-.53.015-.173-.021-.214-.416-.23-.257-.012-.188.063-.11-.184-.144-.041-.13-.176-.185-.112-.132-.03-.274-.343-.213-.356-.113-.039-.15-.168-.148-.003-.381-.322-.185-.015-.195-.104-.131.058-.191-.016-.112-.068-.129.048-.063.082-.076-.084-.172-.15-.035.055-.07-.073-.035.085-.006.066-.1-.096-.015-.069-.075-.029.019.069-.043.023-.19-.093-.066.006-.165-.044-.354-.204-.141-.001-.011.038.022.079-.031.034-.076-.048-.034.016-.027.054-.132.05-.054.063-.03.155-.057-.122-.027-.104-.073.023v.127l-.127.203-.016.179-.025-.172.059-.165-.012-.152.086-.21.062-.047-.047-.05-.106-.012.155-.148-.168-.212-.092-.177h-.104l-.146-.036-.098.103-.09.037-.035-.105-.059-.043-.021-.099-.072-.069-.104.002-.049-.072-.091-.041-.055.062.004-.058-.069-.049-.039-.1-.084.026-.147-.055-.188-.133-.057-.014-.039.056-.111-.092-.09.002-.027.081-.059-.001-.025-.093-.152-.019-.137.063-.082.124.002.077-.154.132-.197.096-.254.118-.13.135-.088.182-.042.18-.07.091-.12.106.002.081.01.139-.045.249-.031-.156-.078-.157.012-.11.104-.108.116-.08-.002-.186.067-.149-.004-.083-.08-.009-.16.042-.169-.064L24 6.916l-.122.021-.078-.079.097.02.119-.074.121-.017.195.053.117-.018.115-.125.049.001.059.055.07-.017.119-.058.201-.051.014-.154.191-.188.012-.144.076-.091.02-.115-.18-.054-.135-.127-.137-.011-.201.1-.165-.003-.223-.116-.25-.04-.2.179.005.077.055.05.035.068-.09.003-.055.024-.059.111-.025-.105-.061-.029-.148.046-.172.203-.227.22.172-.205.006-.14.041-.074.021-.095-.067-.006-.144.1-.08.148-.082.168-.116.063.123-.193.032-.157.263-.273.071-.193.097-.113.137-.061.147-.09.104-.034.142-.178.341-.292.023-.076.066-.042-.06-.092.031-.089.047-.035.015-.129-.117-.102-.141-.002-.048.045-.054-.111-.063-.26-.119-.383-.117-.203-.076-.264.018-.139-.025-.141-.053-.057-.011-.132-.069-.167-.033.018z"/></svg>